<svg width="20" height="20" viewBox="0 0 20 20" fill="none" xmlns="http://www.w3.org/2000/svg">
<path d="M19.9612 5.15146C19.9354 4.9165 19.8277 4.84113 19.6338 4.9298C19.6338 4.88103 19.6122 4.82783 19.5778 4.76133C19.595 4.60617 19.4226 4.584 19.3063 4.6505C19.2546 4.6372 19.1814 4.60173 19.1426 4.59287C18.9918 4.52637 18.9013 4.52637 18.8711 4.59287C18.66 4.6106 18.6988 4.71257 18.6816 4.7037C18.2205 4.49977 18.1818 4.6106 17.7423 4.6904C17.6475 4.70813 17.3674 4.61503 17.4019 4.81896C17.3502 4.81896 17.264 4.7569 17.2166 4.76133C17.1994 4.76133 17.1477 4.9564 16.9667 4.8766L17.0745 5.21353C16.9021 5.10713 16.7298 5.24899 16.5833 5.32436C16.5617 5.27559 16.5445 5.27559 16.5273 5.32436C16.4583 5.36869 16.4583 5.39086 16.4195 5.43519C16.3635 5.54602 16.3463 5.63912 16.3635 5.71448C16.3334 5.72778 16.2817 5.77212 16.2558 5.77212C16.2386 5.77212 16.217 5.77655 16.1998 5.77212C16.1998 5.80758 16.1998 5.84748 16.1998 5.88295C16.1998 5.91842 16.1955 5.96718 16.1998 5.99378C16.161 6.04698 16.1653 6.04255 16.1438 6.10461C16.0705 6.33071 16.0705 6.42824 16.2515 6.55237C15.8206 6.51691 16.161 6.81394 16.0361 6.91147C15.825 7.07107 15.6009 7.01343 15.3812 7.11096C15.2519 7.1021 15.0882 7.05333 15.002 7.05333C15.0106 6.9558 14.6358 6.92477 14.6229 6.9425C14.5798 6.99127 14.7133 7.12426 14.5151 7.11096L14.4591 6.8893C14.4117 6.9026 14.3643 6.9425 14.3514 6.94693C14.3256 6.95137 14.2739 6.94693 14.2437 6.94693C14.1403 6.9824 14.1618 7.1287 14.08 7.1154C14.067 6.8494 13.9723 7.0755 13.9162 7.1154C13.5285 7.07993 13.6448 7.26613 13.5629 7.39469C13.5155 7.46563 13.3777 7.40356 13.4811 7.56316L13.3734 7.39469C13.3518 7.37253 13.2269 7.53213 13.2096 7.56316C13.1924 7.59419 13.1622 7.64739 13.1536 7.67399C13.1493 7.70502 13.1536 7.74936 13.1536 7.78482C13.1493 7.89565 13.1709 7.97102 13.1881 8.03308C13.1881 8.05968 13.1967 8.09072 13.2053 8.12175C13.2053 8.13948 13.2053 8.15722 13.2053 8.17938C13.2053 8.21485 13.2053 8.25475 13.2053 8.29022L13.0416 8.45868C13.0114 8.31681 12.6237 8.37888 12.4987 8.40105L12.4642 8.35671C12.2704 8.46755 12.2617 8.29908 12.2273 8.28578C12.2143 8.28135 12.1928 8.28578 12.1713 8.28578C11.9343 8.25032 11.8223 8.27248 11.7361 8.50745C11.7404 8.41878 11.7275 8.30352 11.6284 8.28578V8.50745C11.6284 8.50745 11.5551 8.56508 11.5034 8.54735C11.4216 8.52518 11.0639 8.36115 11.0295 8.39661L11.0036 8.56508C10.8873 8.48971 10.6202 8.36558 10.4866 8.39661C10.4047 8.41878 10.4435 8.45425 10.4306 8.50745L10.2668 8.33898C10.2798 8.46311 10.0428 8.53404 9.9394 8.56064C9.892 8.40548 9.77136 8.41435 9.72396 8.56064C9.6895 8.56951 9.65072 8.60941 9.61625 8.61828C9.543 8.63601 9.47407 8.62271 9.40082 8.67591C9.48699 8.44538 8.9915 8.40105 8.85793 8.50745C8.82346 8.50301 8.78469 8.50745 8.75022 8.50745C8.73298 8.50745 8.71575 8.50745 8.69421 8.50745C8.67266 8.50745 8.65543 8.50745 8.63389 8.50745C8.6425 8.50745 8.65112 8.50301 8.66405 8.50301C8.64681 8.49415 8.64681 8.48528 8.53048 8.50745C8.34521 8.28135 8.11685 8.51631 8.09962 8.50745C8.091 8.50301 8.08238 8.29465 7.93589 8.39661C7.91004 8.41435 8.02637 8.53848 7.96605 8.56508C7.94451 8.56508 7.91866 8.56508 7.88419 8.56508C7.70753 8.48528 7.73339 8.56508 7.66876 8.56508C7.49641 8.55621 7.4921 8.36115 7.3413 8.67591C7.33699 8.68921 7.3413 8.71138 7.3413 8.73354C7.30683 8.73354 7.29391 8.68034 7.28529 8.67591C7.28529 8.64044 7.28529 8.60054 7.28529 8.56508C7.28529 8.52961 7.28529 8.48971 7.28529 8.45425C7.20774 8.41435 6.87166 8.53404 6.85012 8.56508C6.74672 8.60498 6.74672 8.47641 6.71656 8.46755C6.639 8.44538 6.46666 8.49415 6.36325 8.39661V8.56508C6.26415 8.61828 6.10904 8.44095 6.09181 8.45425C6.08319 8.45868 6.07026 8.60941 6.00994 8.62271C5.97978 8.63158 5.53169 8.36115 5.38519 8.56508C5.32918 8.55621 4.91556 8.49415 4.89832 8.51188C4.8897 8.52075 4.89832 8.64931 4.84231 8.68034C4.82938 8.61828 4.84231 8.61384 4.7863 8.56951C4.66135 8.45868 4.60964 8.54291 4.54502 8.56508C4.5364 8.56508 4.52778 8.56508 4.51486 8.56951C4.48469 8.56951 4.3382 8.47198 4.29942 8.51188C4.24341 8.56951 4.489 8.79561 4.19171 8.84881C4.20894 8.73797 4.14431 8.73354 4.08399 8.68034C3.89011 8.51188 3.67037 8.63601 3.5368 8.54291C3.46355 8.48971 3.52387 8.35228 3.26536 8.23258C3.25243 8.22815 3.22658 8.23702 3.20935 8.23258C3.04562 7.84689 3.12748 7.74492 3.37307 7.44789C3.44632 7.43459 3.89872 7.3016 3.91596 7.27943C3.94181 7.27943 3.96335 7.27943 3.98059 7.27943C4.03229 7.29716 4.01937 7.39026 4.02367 7.39469C4.17017 7.50553 4.12277 7.21736 4.13139 7.1154C4.13139 7.05777 4.1874 7.0622 4.1874 7.05777C4.23049 7.05777 4.26496 7.07107 4.30373 7.0888C4.31666 7.09767 4.33389 7.10653 4.35113 7.11096C4.35544 7.11096 4.35113 7.1819 4.40283 7.16416C4.39421 7.02673 4.4373 7.06663 4.51055 7.05333C4.53209 7.06663 4.54932 7.0755 4.56656 7.08437C4.65273 7.142 4.77768 7.25726 4.78199 7.27943C4.78199 7.29716 4.6872 7.41243 4.72598 7.44789C4.87247 7.58089 4.91986 7.3016 4.9371 7.23953C4.9371 7.23953 4.9371 7.23066 4.94141 7.22623C4.97157 7.1952 5.0879 7.31933 5.02327 7.05777C5.187 7.1287 5.16115 7.20406 5.32057 7.05777C5.32057 7.1154 5.32057 7.1686 5.32057 7.22623C5.32057 7.2351 5.24732 7.2617 5.29041 7.33706C5.36365 7.47449 5.51014 7.34593 5.48429 7.50553L5.536 7.28386C5.536 7.28386 5.57908 7.275 5.59201 7.28386C5.60062 7.29273 5.61355 7.45233 5.75573 7.45233V7.31933C5.75573 7.31933 5.77297 7.30603 5.78159 7.3016L5.91946 7.39913C5.91946 7.3415 5.91515 7.25283 5.97547 7.23066C6.03149 7.3149 6.09181 7.59419 6.1392 7.2883C6.31155 7.50109 6.37187 7.24396 6.49251 7.2484C6.57006 7.2484 6.988 7.66956 6.84581 7.11983C6.91906 7.13756 6.84581 7.0622 7.06124 7.17746C6.93198 7.50996 7.21635 7.35479 7.4404 7.34593C7.47056 7.24396 7.3887 7.24396 7.38439 7.2351C7.33269 7.09323 7.30683 6.96467 7.4921 6.9558C7.48349 7.1952 7.4404 7.44346 7.70753 7.2085C7.42748 7.06663 7.66876 7.09767 7.81525 7.07107C7.81525 7.0888 7.81525 7.10653 7.81525 7.1287C7.81525 7.14643 7.81525 7.16416 7.81525 7.18633C7.87988 7.25283 7.94451 7.18633 7.97898 7.18633C8.05222 7.18633 8.15563 7.2351 8.25042 7.18633C8.27196 7.2351 8.50894 7.2883 8.57787 7.29716C8.75884 7.3282 8.77176 7.39913 8.90533 7.18633C8.96134 7.19963 8.9915 7.27056 9.12076 7.24396C9.22847 7.21736 9.30172 7.0755 9.28449 6.96467L9.17677 7.0223C9.16815 6.81837 9.23709 6.81394 9.06906 6.80064C9.05182 6.80064 9.03028 6.80507 9.01304 6.80064C9.00874 6.7563 9.06475 6.70754 9.06906 6.6898C9.14661 6.76074 9.21555 6.81837 9.28449 6.85827C9.25863 6.7031 9.38358 6.53464 9.3922 6.46814C9.40082 6.41494 9.38358 6.35288 9.3922 6.29968C9.41805 6.11791 9.42236 6.09131 9.3922 5.90955C9.46976 5.63469 9.49561 5.54602 9.44821 5.24013C9.4396 5.18249 9.39651 4.92093 9.38789 4.90763C9.37497 4.88546 9.30603 4.91206 9.28449 4.90763C8.85793 4.72143 9.33188 4.64163 9.33619 4.60173C9.32757 4.4909 9.17677 4.28254 9.17246 4.21161C9.17246 4.16284 9.33619 4.20717 9.34481 3.98551C9.34481 3.91014 9.34481 3.53775 9.3405 3.48455C9.33188 3.40032 9.2414 3.34712 9.23709 3.26289C9.23278 3.16535 9.32326 3.01906 9.28449 2.89493L9.17677 3.11659C8.98288 3.00576 9.15523 2.74863 9.16385 2.63336C9.16385 2.58016 9.12938 2.27427 9.12507 2.16787C9.12507 2.1324 9.12507 2.0925 9.12507 2.05704C9.36635 2.11467 9.26294 1.93291 9.23278 1.72011L9.3405 1.49845C9.33188 1.36988 9.34912 1.26792 9.3405 1.16152C9.15092 1.07728 9.17677 0.797989 9.16385 0.780256C9.11645 0.696023 8.93549 0.456627 8.84932 0.323629C8.83208 0.301462 8.84932 0.25713 8.7933 0.212797C8.54771 0 8.44 0.208364 8.38399 0.212797C8.31074 0.21723 8.35813 0.00443327 8.27627 0C8.23749 0 7.88419 0.0576325 7.81094 0.0709323C7.39301 0.155164 7.26375 0.234963 6.78118 0.212797C6.639 0.208364 6.53559 0.164031 6.45373 0.155164C6.41926 0.155164 6.38048 0.155164 6.34601 0.155164C6.16074 0.46106 6.03579 0.297029 5.84191 0.336929C5.77728 0.350228 5.76435 0.430027 5.62648 0.421161C5.45844 0.407861 5.52738 0.319195 5.52738 0.545292C5.38519 0.571892 5.14822 0.647257 4.9888 0.687157C4.86816 0.71819 4.84231 0.90882 4.66135 0.713756V0.882221C4.51916 0.762522 4.11846 1.04625 4.11846 1.16152H4.06245C3.96335 0.944287 3.82548 1.08172 3.84702 1.27235C3.80824 1.29451 3.77377 1.35215 3.73931 1.38318C3.68329 1.34771 3.64882 1.31225 3.57558 1.32555C3.6876 1.60928 3.4851 1.49845 3.41185 1.54721C3.40323 1.55608 3.37307 1.58711 3.35584 1.60484C3.3343 1.63144 3.32137 1.68464 3.29983 1.71568C3.1361 1.82207 3.21365 1.87084 3.0844 1.99497C2.94221 2.12797 2.92498 2.0659 2.86897 2.21664C2.86466 2.23437 2.87758 2.25653 2.86897 2.27427C2.85173 2.3053 2.8345 2.31417 2.81295 2.3319C2.59752 2.21663 2.4338 2.32303 2.37778 2.55356C2.20544 2.52696 2.19682 2.5447 2.10634 2.6644C2.04602 2.74419 1.99432 2.90823 1.89091 3.00132V3.11216C1.85644 3.15206 1.52899 3.57765 1.51175 3.60425C1.45574 3.71508 1.44282 3.97664 1.37388 4.06531C1.30063 4.15841 1.20153 4.10521 1.12829 4.11851C1.09382 4.12737 1.05504 4.16727 1.02057 4.17614C1.0335 4.26481 0.96456 4.3845 0.96456 4.45544C0.968869 4.56627 1.03781 4.59287 1.07228 4.6771C0.839611 4.6239 0.943017 4.83226 0.800833 5.01403C0.662957 5.19136 0.684501 5.08053 0.585402 5.35096C0.581094 5.36426 0.589711 5.39086 0.585402 5.40859C0.585402 5.40859 0.585402 5.41302 0.585402 5.41746C0.563859 5.46622 0.503539 5.51499 0.49923 5.60809C0.490613 5.74552 0.559551 5.81202 0.589711 5.90955C0.555242 6.15338 0.443218 5.94502 0.374281 6.02038C0.34412 6.05141 0.374281 6.37504 0.361355 6.44154C0.361355 6.46371 0.288108 6.65877 0.262257 6.80507C0.262257 6.83167 0.219171 6.88043 0.206245 6.97353C0.18901 7.12426 0.154541 7.2351 0.201936 7.39469C0.232096 7.48779 0.309651 7.48336 0.309651 7.50109C0.309651 7.51883 0.266565 7.69172 0.257948 7.69616C0.245022 7.71389 -0.0479632 7.51883 0.0985295 7.92225C0.223479 7.76709 0.301034 7.86905 0.31396 7.86462C0.245022 7.92225 0.288108 8.06412 0.257948 8.14392C0.120073 7.83802 -0.168604 8.34341 0.132998 8.36558C0.137307 8.36558 0.141616 8.37445 0.150233 8.37888C0.150233 8.44981 0.0511348 8.42765 0.0080487 8.47641C-0.0221116 8.51631 0.0425176 8.52961 0.038209 8.53404C-0.0436546 8.95077 0.107147 9.29213 0.145924 9.70886C0.0942209 9.85516 0.115764 10.3517 0.361355 10.3251C0.357046 10.3428 0.361355 10.4093 0.361355 10.4359C0.361355 10.4537 0.365663 10.4714 0.369972 10.4847C0.361355 10.5556 0.245022 10.5689 0.145924 10.6044V10.662C0.305343 10.7817 0.236405 11.0211 0.270874 11.1231C0.292417 11.1896 0.357046 11.2428 0.365663 11.2782C0.413058 11.4467 0.443218 11.5797 0.473379 11.726C0.434601 11.726 0.361355 11.7038 0.361355 11.757C0.361355 11.9831 0.400132 12.1339 0.473379 12.3422C0.486304 12.3821 0.542316 12.4309 0.568168 12.493C0.632797 12.6614 0.481996 12.8077 0.744821 12.6747C0.792216 12.8609 0.606946 12.759 0.581094 12.7856C0.568168 12.7989 0.628489 13.0028 0.637106 13.0072C0.757747 13.118 0.718969 12.8653 0.800833 12.8964L0.856845 13.1757C0.856845 13.1757 0.852536 13.22 0.856845 13.2333C0.865462 13.251 1.11105 13.3929 1.12829 13.5392C1.11536 13.6013 0.986103 13.5481 0.96456 13.5658C0.943017 13.588 1.07658 14.049 1.1843 13.9559C1.19292 13.9471 1.08089 13.7343 1.12829 13.6766C1.14552 13.6589 1.26185 13.6899 1.29201 13.6766C1.30063 13.6988 1.32217 13.7254 1.34803 13.7343C1.29201 13.8451 1.16276 14.0269 1.29201 14.1244C1.30063 14.1909 1.40835 14.2086 1.45574 14.2352C1.26185 14.5057 1.3868 14.4392 1.45574 14.6254C1.55915 14.8958 1.54191 14.8293 1.67117 14.9623C1.67979 14.98 1.69272 14.9933 1.70133 15.0066C1.74442 15.113 1.72288 15.3125 2.05464 15.5785C2.06326 15.5829 2.11496 15.5652 2.14943 15.5918C2.26145 15.6716 2.46827 16.0928 2.70524 16.1371C2.74402 16.3189 2.6363 16.3144 2.64923 16.443C2.65354 16.5006 2.78279 16.4297 2.76125 16.5272C2.64492 16.4873 2.57167 16.5583 2.48981 16.5849C2.35624 16.6248 2.29592 16.5272 2.27007 16.811L2.16235 16.7533C2.2356 17.1745 2.19682 16.9528 2.05464 17.0592C1.86075 17.2055 2.10203 17.3518 2.10634 17.3696C2.10634 17.3829 2.04602 17.5735 2.10634 17.6488C2.07618 17.6488 2.02879 17.6001 1.99863 17.5912C1.98139 17.5912 1.96416 17.5912 1.94261 17.5912C1.934 17.5247 1.91676 17.3297 1.86075 17.3119C1.72718 17.272 1.79181 17.4671 1.77889 17.5912C1.77889 17.6089 1.77889 17.6267 1.77889 17.6488C1.66255 17.6488 1.66256 17.5247 1.61085 17.671C1.55053 17.8395 1.49452 18.0257 1.50745 18.2074C1.60223 18.1675 1.64101 18.1941 1.72288 18.2074C1.77027 18.3404 1.6367 18.4513 1.64101 18.5488C1.64963 18.7483 1.81766 18.8237 1.8866 18.9921C1.89953 19.0232 1.94261 19.0852 1.94261 19.103H1.99863C2.00724 19.1429 2.02879 19.1429 2.05464 19.1606C2.06756 19.1695 2.09342 19.1517 2.11065 19.1606C2.06756 19.3335 2.23991 19.4177 2.38209 19.4399C2.44241 19.5596 2.49843 19.6039 2.54582 19.7192C2.56305 19.7192 2.5846 19.7236 2.60183 19.7192C2.73971 19.6704 2.70093 19.6128 2.81726 19.6084L3.05854 19.6527C3.29121 19.6704 3.64452 19.533 3.82117 19.5197C3.95043 19.5108 3.95904 19.6704 3.9849 19.6704C4.0883 19.6704 4.39421 19.4798 4.49762 19.4443C4.57518 19.4177 4.71305 19.4266 4.82508 19.3867C5.07497 19.298 5.28179 19.2271 5.04051 18.9389C5.06205 18.9345 5.1396 18.9345 5.14822 18.9389C5.16546 18.9478 5.19562 19.0498 5.23008 19.0453C5.25163 19.0453 5.44552 18.8237 5.58339 18.8813C5.66095 18.7971 5.80313 18.5444 5.85483 18.4335C5.88068 18.3715 5.8893 18.3227 5.91084 18.2651C5.91084 18.2606 5.91515 18.2518 5.91946 18.2473C5.96255 18.1365 6.02718 18.0301 6.02718 17.8971C6.02718 17.7907 5.81606 17.835 5.96686 17.5956C5.63079 17.5956 5.88499 17.5203 5.91084 17.3696C5.92808 17.374 5.95393 17.3651 5.96686 17.3696C6.16936 17.4715 6.1392 17.4139 6.24261 17.4538C6.38479 17.5114 6.3891 17.7198 6.64762 17.4228C6.68209 17.6222 6.77688 17.4494 6.82858 17.4848C6.88028 17.5203 6.86305 17.6577 7.0914 17.6976C7.20774 17.7198 7.14742 17.6045 7.16034 17.5912C7.25082 17.5114 7.21635 17.6045 7.32407 17.4228C7.3413 17.3962 7.33699 17.3563 7.38008 17.3651L7.7894 17.6444L7.81525 17.4228L8.03068 17.5912C8.03068 17.5912 7.97467 17.3385 8.16425 17.4272C8.30212 17.4893 8.31505 17.7907 8.30212 17.9281C8.31936 17.9281 8.3409 17.9281 8.35814 17.9281C8.38399 17.9281 8.43569 17.9769 8.46585 17.9858V18.1365C8.46585 18.1365 8.44862 18.1365 8.44431 18.1365C8.3883 18.1099 8.34521 18.1143 8.30643 18.1764C8.27627 18.2872 8.35383 18.3404 8.36244 18.3715C8.37106 18.438 8.34521 18.5222 8.36675 18.5931C8.41846 18.6064 8.47447 18.602 8.52617 18.5931V18.6508C8.52617 18.6508 8.53048 18.6907 8.52617 18.7084C8.52186 18.7306 8.46585 18.7527 8.47016 18.8414C8.47016 18.8902 8.51755 18.9123 8.52617 18.9301C8.59511 19.1163 8.62958 19.0365 8.72006 19.1517C8.92256 19.4044 8.81485 19.4044 9.12507 19.5463C9.15523 19.8611 9.56455 19.7325 9.61625 19.7724C9.62918 19.7813 9.49561 19.9009 9.73689 19.9586C9.87477 19.994 9.96525 19.9231 10.073 19.9364C10.3056 19.9719 10.2022 20.0162 10.5383 19.994C10.814 19.9763 10.9562 19.963 11.2449 19.8832C11.3138 19.861 11.3957 19.8522 11.4603 19.8256C11.4991 19.8123 11.5336 19.7857 11.5681 19.768C11.6025 19.7547 11.6585 19.6616 11.7318 19.6571C11.7576 19.6571 11.8352 19.7369 11.8869 19.7059C11.8998 19.697 12.0549 19.502 12.0592 19.4887C12.0635 19.4754 12.0592 19.4532 12.0592 19.431H12.1152C12.1713 19.3424 12.2445 19.267 12.3307 19.2094C12.3393 19.1961 12.3264 19.1695 12.3307 19.1517C12.3522 18.9522 12.279 19.1163 12.1152 19.0409C12.1152 19.0054 12.1152 18.9655 12.1152 18.9301C12.1713 18.9212 12.2273 18.9035 12.279 18.8724C12.3479 18.9522 12.3867 18.8946 12.3867 18.704C12.3867 18.633 12.3953 18.5444 12.3867 18.4823C12.3608 18.3005 12.3048 18.2074 12.223 18.203C12.2704 18.1764 12.2704 18.1587 12.223 18.1454C12.223 18.0789 12.2359 18.0301 12.223 17.9237C12.1842 17.8084 12.1497 17.7907 12.1152 17.8661C11.9214 17.7685 12.1152 17.6533 12.0075 17.4183C11.9903 17.3829 11.9731 17.3385 11.9515 17.3075L12.0075 17.1967C11.9903 17.1656 11.9946 17.1346 11.9515 17.0858C11.986 16.9839 11.917 16.9262 11.8955 16.8642C11.8481 16.8908 11.8567 16.944 11.8395 16.975C11.8223 17.0105 11.7792 17.0371 11.7835 17.0858H11.7318C11.749 17.0193 11.6887 16.9617 11.6758 16.9174C11.637 16.7755 11.6844 16.6514 11.6758 16.6381C11.6671 16.6248 11.5896 16.6514 11.5681 16.6381C11.5336 16.6203 11.5293 16.6026 11.512 16.5804C11.5939 16.5405 11.5637 16.4297 11.5681 16.3588C11.5681 16.341 11.5681 16.3233 11.5681 16.3011C11.6542 16.2524 11.6671 16.2125 11.5681 16.1903C11.5896 16.1814 11.6198 16.1504 11.6758 16.1327C11.6887 16.1903 11.7232 16.1903 11.7835 16.1327C11.8179 16.0795 11.8266 16.044 11.8912 15.9642C11.9214 15.9243 11.917 15.8312 11.9817 15.7913C12.1325 15.6982 12.2057 15.8888 12.2704 15.6273C12.2833 15.5741 12.2445 15.4854 12.3264 15.4588C12.3393 15.481 12.3608 15.4987 12.3824 15.5164C12.5418 15.6361 12.4815 15.4765 12.5547 15.4233C12.5849 15.4012 12.6624 15.4721 12.7055 15.379L12.5418 15.2416C12.6667 15.2682 12.7141 15.2371 12.8132 15.184C13.089 15.0421 13.0674 14.6608 13.3561 14.5677C13.3561 14.55 13.3561 14.5323 13.3561 14.5101H13.4121C13.5069 14.4037 13.5629 14.2929 13.5759 14.1732C13.5974 14.2131 13.6146 14.2131 13.6319 14.1732C13.6405 14.1599 13.6189 14.1111 13.6448 14.0756C13.6793 14.0269 13.7956 14.0313 13.8516 13.8939C13.8559 13.8806 13.8516 13.8584 13.8516 13.8362H13.9076C13.9206 13.6944 13.9766 13.6013 14.0714 13.5569C14.1058 13.4904 14.1489 13.4417 14.1791 13.3885C14.1791 13.2289 14.2006 13.1402 14.3514 13.087L14.4505 12.8875C14.4548 12.8343 14.4505 12.7723 14.4505 12.7191C14.4893 12.6614 14.5238 12.6082 14.5582 12.5506C14.5496 12.5373 14.5668 12.5107 14.5582 12.493C14.6358 12.4087 14.6702 12.3289 14.6659 12.2624C14.7004 12.2757 14.7435 12.2447 14.7737 12.156C14.7866 12.125 14.8124 12.0585 14.8297 12.0452L14.8857 11.8767C14.8857 11.8413 14.89 11.8014 14.8857 11.7659C14.8857 11.6462 14.9029 11.5708 14.9417 11.5442C14.9719 11.3625 15.0149 11.296 15.0494 11.1541C15.0279 11.1053 15.0106 11.1053 14.9934 11.1541C14.9589 11.0255 15.0279 10.9236 15.0494 10.8172C15.1356 10.6797 15.17 10.4758 15.1571 10.201C15.1571 10.1832 15.1571 10.1522 15.1571 10.1433C15.2045 10.099 15.2476 10.0414 15.2131 9.97486C15.2131 9.95712 15.2131 9.93939 15.2131 9.91722C15.1485 9.69556 15.1356 9.40297 15.1571 9.19017C15.1399 9.03944 15.0882 8.89757 15.1011 8.74241C15.0925 8.72024 15.0839 8.71138 15.0753 8.70694C15.127 8.64931 15.1873 8.60498 15.2648 8.57394C15.2907 8.57394 15.4199 8.52074 15.5363 8.51631C15.5751 8.47198 15.6052 8.38775 15.644 8.34785C15.644 8.34785 15.6957 8.34785 15.7302 8.32568C15.7819 8.29022 15.7215 8.21485 15.9154 8.23702C15.9241 8.23702 15.9542 8.29908 15.9887 8.29908C16.0404 8.29908 16.0361 8.18825 16.0749 8.15278C16.1223 8.11288 16.1696 8.18382 16.1869 8.18382C16.2731 8.17938 16.3894 8.18825 16.4583 8.12618C16.5057 8.08185 16.5143 8.01979 16.5143 7.95772C16.5359 7.93555 16.6824 8.16165 16.7298 7.98432C16.747 7.92225 16.6781 7.86019 16.6738 7.84689C16.6738 7.82472 16.7168 7.76709 16.7298 7.73606H16.7858C16.7772 7.93555 17.0572 8.03309 16.9495 7.62522C16.9409 7.59419 16.9538 7.54986 16.9495 7.51439C17.0271 7.51439 17.1305 7.58533 17.2209 7.57203C17.3157 7.55429 17.2683 7.37253 17.277 7.29273C17.2253 7.0755 17.277 7.11983 17.277 7.01343C17.2985 6.9425 17.3244 6.89373 17.3847 6.84497C17.389 6.82724 17.3804 6.80507 17.3847 6.78734C17.3028 6.74744 17.1563 6.73857 17.2209 6.59227C17.2899 6.44154 17.5355 6.60114 17.4924 6.39721C17.3114 6.31298 17.264 6.50804 17.2511 6.50361C17.2296 6.50361 17.1951 6.45484 17.1692 6.45041C17.096 6.43267 17.04 6.40164 17.0055 6.39278C16.7685 6.21101 16.9969 6.18441 17.0055 6.17111C17.0228 6.19328 17.0443 6.20658 17.0615 6.22874C17.0874 6.25978 17.0788 6.30411 17.1477 6.32628C17.1692 6.33071 17.5829 6.34844 17.6044 6.34401C17.7337 6.31741 17.9319 6.15338 18.0956 6.12235C18.143 6.10018 18.143 6.08245 18.0956 6.06471C18.0956 6.04698 18.0956 6.02925 18.0956 6.00708C18.4144 6.14895 18.3584 5.89625 18.6385 5.83862C18.6471 5.84748 18.6299 5.88295 18.6385 5.89625C18.6557 5.91842 18.6816 5.93615 18.6945 5.95388C18.6169 6.02481 18.6514 6.05585 18.7505 6.06471C18.897 6.05585 19.0995 6.10461 19.2417 6.06471C19.4183 6.13121 19.7846 6.09575 19.7846 5.78542C19.9785 5.74108 19.9785 5.80315 20 5.50612C19.9698 5.41746 19.9569 5.18249 19.944 5.16919L19.9612 5.15146ZM5.12668 18.6818C5.12668 18.6818 5.13529 18.6818 5.1396 18.6818L5.13099 18.6729L5.12668 18.6818ZM16.8375 5.93615C16.8375 5.93615 16.859 5.93615 16.8633 5.93615H16.8375ZM17.7337 5.71005C17.7337 5.71005 17.7337 5.71005 17.7337 5.71448C17.7337 5.71448 17.7337 5.71449 17.7337 5.71005ZM15.5578 7.45676C15.5578 7.45676 15.5578 7.46563 15.5578 7.47006C15.5578 7.46563 15.5578 7.46119 15.5578 7.45676ZM14.4204 8.09958C14.4204 8.09958 14.3816 8.10845 14.3643 8.11732L14.3773 8.10402C14.3773 8.10402 14.3686 8.11288 14.3643 8.11732C14.3859 8.10845 14.4031 8.10402 14.4204 8.09958ZM14.2394 8.37888C14.248 8.35228 14.2523 8.32568 14.2523 8.30351C14.2523 8.32125 14.2523 8.35671 14.2394 8.37888ZM14.3083 11.0211C14.3083 11.0211 14.3169 11.0034 14.3213 10.9989C14.3213 11.0078 14.3126 11.0122 14.3083 11.0211ZM6.48389 2.80183L6.55714 2.5979C6.55714 2.5979 6.54852 2.65553 6.48389 2.80183H6.49251C6.49251 2.80183 6.49251 2.80183 6.4882 2.80183H6.48389ZM13.2226 12.1959H13.1665V12.2536C13.1665 12.2536 13.1665 12.2137 13.1665 12.1959C13.1665 12.1782 13.1665 12.156 13.1665 12.1383C13.1709 12.1028 13.27 12.0097 13.2182 11.9166C13.089 11.9078 12.9425 11.7925 12.8951 11.9698C12.8736 11.9521 12.8563 11.9255 12.8391 11.9122C12.8563 11.8058 12.9597 11.828 13.0028 11.8014C13.0976 11.7659 13.2139 11.8546 13.2743 11.859L13.201 11.89C13.257 11.9521 13.2613 12.0541 13.2182 12.1915L13.2226 12.1959ZM7.13449 1.74228C7.13449 1.74228 7.13449 1.74671 7.1388 1.75114C7.1388 1.75114 7.13449 1.74671 7.13449 1.74228ZM2.40794 12.5861C2.40794 12.5861 2.39502 12.5861 2.3864 12.5861C2.39502 12.5772 2.40364 12.5683 2.41225 12.5595C2.41225 12.5683 2.41225 12.5772 2.41225 12.5861H2.40794ZM9.79721 15.7736C9.79721 15.7736 9.83168 15.7736 9.85322 15.7736H9.79721ZM8.16856 11.4068C8.16856 11.4068 8.20733 11.4201 8.22888 11.4245C8.20303 11.4245 8.18579 11.4201 8.16856 11.4157C8.16856 11.4157 8.16856 11.4112 8.16856 11.4068ZM9.83599 13.056C9.83599 13.056 9.81445 13.0515 9.80152 13.0338C9.81014 13.0338 9.82306 13.0427 9.83599 13.056ZM9.52577 15.215V15.2371C9.52577 15.2371 9.52577 15.2238 9.52577 15.215ZM7.40593 13.0338C7.40593 13.0338 7.40162 13.0338 7.39732 13.0338C7.39732 13.0338 7.39732 13.0338 7.40162 13.0294L7.40593 13.0338ZM5.17838 14.4347V14.3771C5.17838 14.3771 5.17838 14.417 5.17838 14.4347ZM4.79491 12.6526V12.6481C4.79491 12.6481 4.79491 12.6481 4.79491 12.6526ZM11.1587 11.5265C11.1587 11.5575 11.1587 11.5886 11.1587 11.624C11.1501 11.6063 11.1501 11.5797 11.1587 11.5265ZM11.0812 11.2295C11.0812 11.2295 11.0812 11.2339 11.0812 11.2383C11.0639 11.2206 11.0381 11.2472 10.9993 11.3048C10.9993 11.2694 11.0984 11.092 11.107 11.0832C11.0855 11.1541 11.0769 11.2029 11.0855 11.2339L11.0812 11.2295ZM3.87718 12.0275C3.87718 12.0275 3.87718 12.0097 3.86856 12.0009C3.86856 12.0097 3.87287 12.0186 3.87718 12.0275ZM12.5935 11.6595C12.5935 11.6595 12.5806 11.6817 12.5763 11.695C12.559 11.6684 12.5375 11.6506 12.5159 11.6373C12.5289 11.6285 12.5418 11.624 12.5461 11.6196C12.5547 11.6196 12.5633 11.6063 12.572 11.5841C12.5504 11.6506 12.559 11.6817 12.5978 11.6595H12.5935ZM4.74321 11.5841C4.74321 11.5841 4.70443 11.5841 4.6872 11.5841H4.74321ZM4.58379 16.1105C4.58379 16.1105 4.58379 16.1061 4.58379 16.0972C4.5881 16.1016 4.59672 16.1061 4.60103 16.1105C4.59241 16.1105 4.5881 16.1105 4.5881 16.1105H4.58379ZM10.995 13.2599C10.995 13.2599 11.0122 13.251 11.0165 13.2466L10.995 13.2599ZM12.1756 10.662C12.1756 10.662 12.1842 10.6753 12.1885 10.6842C12.1885 10.6842 12.1799 10.6753 12.1756 10.662ZM3.34291 13.4195C3.34291 13.4195 3.34291 13.4372 3.34291 13.4461C3.3343 13.4372 3.32568 13.4328 3.31706 13.4284C3.32568 13.4284 3.3343 13.4239 3.34291 13.4195ZM7.75924 4.5574C7.75924 4.5574 7.742 4.5441 7.73339 4.53967C7.742 4.5441 7.75062 4.55297 7.75924 4.5574ZM7.71184 1.91074C7.71184 1.91074 7.6903 1.91074 7.67737 1.91074H7.71184ZM3.60143 5.85192V5.88295C3.60143 5.88295 3.60143 5.86522 3.60143 5.85192ZM1.64532 7.39026C1.64532 7.39026 1.62809 7.37253 1.62378 7.36366C1.63239 7.37253 1.64101 7.38139 1.64532 7.39026ZM1.59362 11.1896C1.59362 11.1896 1.585 11.1896 1.57638 11.1807C1.58069 11.1807 1.58931 11.1807 1.59362 11.1896ZM5.29041 16.3898C5.29041 16.412 5.2904 16.4341 5.2861 16.4519C5.28179 16.4341 5.28179 16.4164 5.29041 16.3898ZM8.76314 15.5297C8.76314 15.5297 8.76314 15.543 8.76314 15.5519C8.76314 15.543 8.76314 15.5386 8.76314 15.5297ZM10.8873 10.2941C10.8873 10.2941 10.8916 10.3118 10.8959 10.3207C10.8916 10.3118 10.8873 10.3029 10.8873 10.2941ZM8.16856 2.6378C8.16856 2.6378 8.16856 2.64223 8.16856 2.64666C8.16856 2.64666 8.16856 2.64223 8.16856 2.6378ZM6.65623 15.3923C6.65623 15.3923 6.65193 15.3923 6.64762 15.3879C6.64762 15.3879 6.65193 15.3879 6.65623 15.3923ZM6.54421 2.61563L6.43219 2.80183C6.4882 2.70429 6.52698 2.64223 6.54421 2.61563ZM2.97668 13.8185H2.95083C2.95083 13.8185 2.96806 13.8185 2.97668 13.8185ZM11.4216 18.101C11.4086 18.1276 11.3914 18.1542 11.3742 18.1808C11.3828 18.1542 11.4 18.1321 11.4216 18.101ZM13.2226 9.68226C13.2484 9.71329 13.2484 9.73546 13.2312 9.75763C13.2312 9.73546 13.2312 9.70886 13.2226 9.68226ZM9.19831 10.0325C9.19831 10.0325 9.19831 10.0236 9.19831 10.0192C9.19831 10.0192 9.19831 10.0281 9.19831 10.0325ZM1.70133 5.71005H1.64532C1.64532 5.71005 1.67979 5.71005 1.70133 5.71005ZM10.5038 18.6286H10.6115C10.5771 18.6286 10.5383 18.6286 10.5038 18.6286ZM14.1489 11.358C14.1489 11.358 14.1532 11.358 14.1575 11.358C14.1575 11.358 14.1532 11.358 14.1489 11.358ZM0.667266 7.05333C0.667266 7.05333 0.667266 7.05777 0.662957 7.0622C0.662957 7.0622 0.662957 7.05777 0.658649 7.05333H0.667266ZM10.2625 9.0084C10.2625 9.0084 10.2151 9.0084 10.1764 9.0084C10.2022 8.93747 10.2065 8.87984 10.1936 8.84881C10.2022 8.83551 10.2065 8.81777 10.2065 8.80447C10.2238 8.80447 10.2539 8.77788 10.2884 8.72911C10.1893 8.83994 10.3056 8.96851 10.2625 9.00397V9.0084ZM9.0389 6.04698C9.06475 6.03811 9.08629 6.03811 9.10352 6.03368C9.08198 6.03368 9.06044 6.04255 9.0389 6.04698ZM8.73729 1.45855C8.73729 1.45855 8.75884 1.45855 8.76745 1.45855C8.75884 1.45855 8.74591 1.45855 8.73729 1.45855ZM2.41656 15.0244C2.41656 15.0244 2.41225 15.0066 2.40794 14.9933C2.40794 15.0022 2.41225 15.0155 2.41656 15.0244ZM10.1764 8.72468C10.1764 8.72468 10.1678 8.71138 10.1634 8.70694C10.1678 8.70251 10.1764 8.68921 10.1807 8.67148C10.1807 8.68921 10.1807 8.70694 10.1807 8.72024L10.1764 8.72468ZM6.95784 8.84437H6.97507C6.97507 8.84437 6.96215 8.84437 6.95784 8.84437ZM4.85524 8.71138V8.72911C4.85524 8.72911 4.85524 8.71581 4.85524 8.71138ZM0.0726778 8.23702C0.0726778 8.23702 0.0899123 8.26362 0.102838 8.27248C0.0942209 8.27248 0.0856037 8.27248 0.0726778 8.27692V8.23258V8.23702ZM14.5841 12.0851C14.5841 12.0851 14.5755 12.0895 14.5712 12.094C14.5712 12.094 14.5798 12.0851 14.5841 12.0851C14.5927 12.0851 14.6229 12.0851 14.6401 12.0851C14.6401 12.1028 14.6401 12.1161 14.6401 12.1294C14.6272 12.1117 14.6099 12.0984 14.5884 12.0851H14.5841Z" fill="#20293F"/>
</svg>
