<svg width="363" height="374" viewBox="0 0 363 374" fill="none" xmlns="http://www.w3.org/2000/svg">
<rect width="363" height="374" rx="10" fill="#FEFFEE"/>
<g clip-path="url(#clip0_38_1103)">
<path d="M191.277 124.811C191.701 124.385 191.68 124.831 191.546 125.443C191.639 125.64 191.483 126.232 191.546 126.522C190.946 126.989 190.346 127.476 189.747 127.964C189.22 128.234 189.075 128.659 189.023 128.69C188.765 129.229 187.597 130.36 186.863 130.132C186.697 130.225 186.294 130.433 186.139 130.495C186.222 131.2 185.705 131.574 185.416 130.858C185.323 130.879 185.178 130.858 185.054 130.858C185.808 131.066 185.808 131.678 185.054 132.663C184.795 132.891 184.444 133.296 184.33 133.389C184.144 133.773 183.999 133.887 183.607 134.115C183.286 134.053 182.873 134.136 182.532 134.115C181.177 134.727 180.371 135.754 180.009 137.009C179.782 137.237 179.513 137.528 179.286 137.735C178.335 138.565 177.497 138.928 176.763 138.825C176.629 138.928 176.515 139.105 176.402 139.188L176.763 139.914C176.546 140.059 176.278 140.152 176.04 140.277C176.019 140.277 176.154 140.038 175.678 140.277C175.595 140.318 175.523 140.847 175.099 140.941C174.737 141.024 174.334 140.629 174.231 140.64C173.952 140.671 173.724 141.221 173.507 141.366C173.156 141.605 172.773 141.843 172.432 142.092C172.081 142.341 171.791 142.849 171.181 143.202C170.675 143.492 170.292 143.14 170.272 143.181C170.075 143.544 170.778 144.665 169.372 144.27C169.259 144.239 169.455 143.814 168.473 143.544C168.576 144.032 168.897 144.644 168.835 145.1C168.824 145.183 168.028 146.023 167.749 146.428C167.656 146.573 167.098 146.667 167.026 146.791C166.798 147.175 166.881 148.233 166.561 148.523C166.395 148.669 165.858 148.523 165.692 148.679C165.455 148.907 165.579 149.592 165.237 149.872C164.907 150.152 164.379 149.945 164.142 150.038C163.904 150.131 163.801 150.038 163.78 150.401C163.77 150.64 164.059 151.044 163.997 151.314C163.904 151.708 163.449 151.77 163.418 151.843C163.356 152.984 161.878 153.202 161.258 152.569C161.165 152.704 160.989 152.797 160.896 152.932C159.955 154.208 160.441 154.83 158.374 154.011C158.374 155.017 159.139 154.654 159.097 154.903C159.004 155.494 157.195 157.299 156.575 157.621C157.722 157.932 156.379 160.006 155.469 159.716C154.735 160.307 154.073 161.075 153.691 161.957C153.226 162.351 152.905 162.797 152.616 163.046C151.789 163.969 148.708 167.226 148.295 165.577C148.336 165.224 148.45 164.861 148.657 164.498C148.047 164.851 147.84 164.664 148.295 164.135C147.726 162.268 147.84 161.666 148.657 162.33C148.615 161.863 148.347 161.531 148.295 161.241C147.437 160.826 147.333 160.639 148.295 160.515C147.685 160.017 147.147 160.214 146.496 160.515C146.196 159.789 147.147 159.612 147.209 159.436C146.806 159.311 146.682 158.948 146.848 158.347C146.682 158.979 145.959 161.832 145.814 161.977C145.028 162.755 141.793 161.438 142.454 160.266C141.72 161.345 141.276 161.977 140.015 162.506L140.728 163.046C140.201 163.046 138.226 164.674 138.206 164.861C138.071 165.089 137.834 165.089 137.482 164.861C136.417 165.151 136.934 166.438 136.759 166.666C136.697 166.739 135.601 166.085 135.322 166.303C135.28 166.334 135.291 166.458 135.311 166.593C135.332 166.666 135.342 166.759 135.342 166.853C135.342 166.925 135.342 166.988 135.322 167.029C135.167 167.33 134.815 167.88 134.598 168.108C134.639 168.46 134.546 168.865 134.598 169.197C134.836 169.176 135.094 169.228 135.322 169.197C136.149 169.072 136.417 169.84 137.12 169.197C137.286 168.761 137.358 168.222 137.482 167.755C137.534 167.558 137.441 167.268 137.482 167.029C137.72 166.811 138.113 167.714 138.195 167.755C138.319 167.807 139.074 167.786 139.271 167.755C139.064 167.247 139.56 166.894 139.632 166.676C139.973 166.168 140.335 165.805 140.707 165.587C140.738 165.494 142.227 164.477 142.33 164.467C143.395 164.394 143.343 165.131 143.591 165.224C143.964 165.639 143.964 166.002 143.591 166.313C143.674 166.552 144.057 166.915 143.953 167.029C143.798 167.195 142.909 167.174 142.816 167.921C142.857 168.097 142.878 168.284 142.878 168.492C142.951 168.523 143.509 168.523 143.602 168.492C143.974 167.475 145.059 166.998 146.837 167.05C146.207 168.108 145.793 167.682 145.4 168.855C145.266 169.259 145.576 169.923 144.863 170.297L143.612 169.591C144.563 170.504 141.906 171.78 143.964 172.112V172.465C143.385 172.309 142.909 172.651 143.25 173.191C143.312 173.284 144.305 172.9 143.964 173.917C144.677 173.128 145.99 172.444 146.848 171.749C146.961 171.77 147.096 171.728 147.209 171.749C147.809 172.786 148.574 172.672 149.587 172.247L150.094 172.828C150.187 172.952 150.373 173.045 150.455 173.191C150.807 174.062 150.807 174.674 150.455 174.996C150.59 175.286 151.561 176.583 151.892 177.164C153.422 178.076 153.381 178.979 152.833 180.68C153.133 181.821 153.226 183.335 152.978 184.394C153.112 184.082 153.236 184.082 153.339 184.394C153.205 185.773 153.236 185.037 152.978 185.835C152.905 187.049 152.285 187.786 151.479 188.553C151.727 189.653 151.479 190.451 150.342 190.783L150.104 191.613C149.918 191.748 149.98 192.059 149.38 191.976C148.667 191.655 148.305 192.101 148.305 193.314C147.623 194.279 147.199 194.818 146.858 193.418C147.065 194.279 146.775 194.611 146.496 195.223C146.362 195.524 145.669 196.437 145.421 197.028L145.783 198.117C147.912 198.854 147.964 197.671 148.667 199.922C149.463 200.742 150.507 203.833 149.029 204.258C148.863 205.192 148.543 206.208 148.305 207.152C148.129 207.878 148.326 208.501 147.768 208.947C147.013 208.252 146.631 207.235 145.431 207.868C145.38 208.418 145.431 208.511 145.431 208.957C146.134 209.393 147.499 208.822 147.881 210.306C147.912 210.409 147.933 212.266 147.902 212.37C147.706 213.2 146.972 212.556 146.734 212.588C146.31 212.65 146.6 213.137 146.507 213.303C146.951 213.926 146.91 214.486 146.507 215.108C146.279 215.461 145.607 215.7 145.431 216.187C145.245 216.166 144.842 216.146 144.708 216.187C144.718 218.438 143.55 217.764 143.261 217.992C143.147 218.085 143.643 218.874 143.478 219.092C143.199 219.444 142.382 219.33 142.237 219.486C141.948 219.797 142.372 221.259 142.186 221.602C142.124 221.716 139.973 221.685 139.663 221.602H139.302C139.694 222.006 140.232 222.131 140.738 222.328C140.904 222.39 141.235 222.276 141.462 222.328C141.71 223.5 140.862 222.898 140.025 223.054C137.73 223.459 137.834 224.382 136.79 226.311C136.748 226.384 136.841 226.643 136.686 226.934C136.624 227.037 135.849 227.338 135.715 227.94C135.632 228.313 136.604 227.836 136.428 228.469C136.035 228.469 135.704 228.718 135.353 228.832C135.291 228.853 135.032 229.371 134.629 229.195C134.278 229.62 134.174 230.16 133.906 230.637C133.161 231.985 132.531 232.193 131.383 233.168C130.763 233.686 130.091 233.863 129.998 233.956C129.791 234.153 129.998 234.693 129.946 234.983C129.874 235.336 130.101 235.896 129.585 236.072C129.843 236.466 130.246 237.462 130.308 237.514C130.474 237.659 131.425 237.711 131.745 237.877C131.755 237.815 131.363 237.431 131.559 237.151C132.2 236.217 133.75 236.083 133.843 235.989C134.071 235.771 134.081 235.056 134.464 234.651C135.001 234.07 135.921 233.884 136.335 233.427C136.924 232.763 135.663 232.96 137.513 232.462C137.741 232.4 138.009 232.151 138.237 232.099C138.392 231.985 138.547 231.882 138.702 231.767C138.919 231.425 138.898 230.927 139.064 230.751C139.208 230.606 139.632 230.658 139.88 230.492C140.242 230.253 140.025 229.703 141.121 229.921V228.842C141.235 228.759 141.348 228.593 141.483 228.479H141.844C143.044 228.687 143.292 227.411 143.643 227.203C143.84 227.089 144.718 227.348 145.442 226.674C147.499 224.755 149.08 223.137 151.923 221.975C152.781 221.623 153.577 221.477 154.445 221.249C155.365 219.714 155.603 220.71 156.244 221.249C156.389 220.928 156.523 220.284 156.606 220.16C156.72 219.994 156.73 219.901 156.968 219.797C157.143 219.724 157.516 219.869 157.691 219.797L158.415 220.876C158.508 219.849 158.849 219.745 159.593 220.388L161.65 220.513C161.899 220.793 162.436 221.851 162.726 222.318C163.067 222.764 163.284 223.687 162.726 223.759C162.829 223.894 162.974 223.998 163.087 224.122C164.1 225.315 162.819 225.668 162.364 224.849C162.343 224.807 162.353 224.589 162.364 224.486C162.229 224.797 162.105 224.797 162.002 224.486C161.63 224.6 161.702 224.921 161.64 225.212C161.619 225.336 161.671 225.481 161.64 225.575C162.498 225.917 162.932 226.031 163.077 227.017C163.108 227.203 163.108 227.566 163.077 227.743C162.653 229.039 164.018 228.583 163.801 229.361L162.715 229.548C162.57 229.651 163.077 230.097 163.077 230.263C163.418 230.409 164.049 230.616 164.152 230.989C164.504 232.452 164.266 234.018 163.428 235.688C163.232 237.016 163.108 237.11 162.705 238.219C162.477 238.666 162.24 238.78 161.981 238.583C161.857 238.894 161.733 238.894 161.619 238.583C160.803 238.966 159.903 239.578 159.097 240.024C159.118 240.201 159.128 240.719 159.097 240.751C160.307 239.755 160.648 242.224 159.821 242.919C159.686 243.696 159.418 244.371 158.746 244.723C158.611 244.972 158.508 245.221 158.384 245.45H158.022C157.216 244.858 155.386 244.143 155.634 245.647C155.779 246.57 156.854 245.864 155.148 247.265C155.169 247.379 155.117 247.514 155.148 247.628C156.244 247.815 156.637 247.856 157.309 248.717C158.818 249.765 158.952 246.891 160.224 248.904C160.575 249.464 160.286 249.962 160.555 250.522C159.945 250.895 159.614 249.09 159.48 251.248C160.162 251.31 159.614 252.244 159.903 252.638C160.048 252.835 160.472 252.638 160.565 252.69L161.826 250.159L162.002 252.327C163.129 251.445 162.446 250.636 163.801 252.151C162.374 252.773 163.036 253.385 164.162 253.779C164.08 253.904 163.873 254.007 163.801 254.142L163.697 256.196C163.739 257.368 163.304 258.675 161.671 258.457C161.661 259.671 160.327 260.356 159.128 260.314C157.712 261.922 157.061 261.424 156.957 259.93C156.937 260.283 157.03 261.3 156.957 261.383C156.895 261.455 156.161 261.341 155.872 261.383C155.541 261.434 155.148 261.362 154.797 261.383C154.745 261.403 154.683 261.424 154.632 261.434C154.373 261.538 153.991 261.787 153.722 261.746C153.329 262.057 153.991 262.69 153.515 262.824C152.874 263.022 151.603 262.959 150.848 263.188L150.672 262.109C149.69 262.233 149.856 263.457 149.546 263.571C148.481 263.945 145.049 264.194 143.809 264.121C143.436 264.1 143.343 263.571 143.292 263.561C142.951 263.468 142.01 264.059 141.493 263.914C141.328 263.291 142.01 263.706 142.186 263.53C142.496 263.229 141.865 262.866 141.855 262.835C141.297 263.322 139.86 263.125 139.333 263.198C139.488 263.561 139.25 263.675 138.609 263.561C137.968 263.685 137.213 263.478 136.407 263.717C135.508 263.976 135.952 265.231 133.906 264.484C132.427 263.945 133.099 262.752 132.489 262.295C132.055 261.963 129.988 261.735 129.605 260.677C129.368 260.013 129.698 259.827 130.329 259.951C130.35 259.526 131.042 258.281 131.052 258.146C131.052 257.991 130.742 255.304 130.701 255.148C130.67 255.014 129.936 254.536 129.616 254.173C129.554 254.111 129.678 253.883 129.616 253.81L127.217 255.387C126.711 256.518 125.76 256.59 124.933 257.067C124.695 257.202 124.447 257.296 124.209 257.43C124.736 258.997 126.277 259.972 126.37 261.766C127.59 262.109 127.776 262.679 127.807 263.934C127.9 264.059 128.086 264.163 128.168 264.297C129.75 264.349 130.215 263.26 129.616 266.102C131.786 265.729 131.838 267.243 131.414 268.996C131.28 269.546 130.856 270.086 131.063 270.801L132.324 269.359C133.358 270.687 132.241 270.293 132.148 270.687C132.024 271.185 132.138 272.025 132.148 272.606C134.195 272.855 132.086 275.386 133.585 276.942C133.471 276.942 133.327 276.963 133.223 276.942C132.986 276.89 132.014 276.092 131.817 276.226C131.714 276.299 131.414 277.845 130.556 277.648C129.44 277.388 130.339 275.884 129.45 276.216C128.22 276.683 129.988 277.627 129.977 277.834C129.957 278.197 128.923 278.571 128.541 278.374L128.365 277.658C127.848 278.218 127.559 278.633 126.742 278.737C125.812 278.861 125.367 278.592 124.581 278.374C124.333 278.301 123.847 278.519 123.579 278.322C123.269 278.094 123.248 277.036 123.124 276.942C123.041 276.88 122.669 277.347 121.346 276.569C120.777 276.237 120.395 275.853 119.909 275.48C119.547 275.21 119.382 274.909 119.185 274.754C118.245 273.996 117.604 273.519 116.663 272.586C116.126 272.057 115.206 271.808 115.226 270.781C115.071 270.677 114.937 270.635 114.864 270.418C114.833 270.335 114.854 270.148 114.864 270.054C114.172 270.241 113.593 269.806 113.066 269.691C110.647 269.194 111.464 269.712 109.851 270.241C109.499 270.355 109.169 270.044 109.107 270.054C108.693 272.191 108.373 271.081 107.339 271.704C106.905 271.963 106.512 272.44 106.233 272.586C105.613 272.907 103.277 273.364 102.636 273.312C102.439 273.364 102.201 273.364 101.943 273.343C101.592 273.415 101.312 273.623 101.188 274.038C102.419 275.386 102.708 275.552 102.263 277.295C102.16 277.699 101.984 278.073 101.902 278.374H102.263L104.062 276.206C104.682 277.253 103.152 277.762 103.349 278.187C104.072 279.712 104.517 278.011 104.61 277.99C105.551 277.834 105.788 278.509 106.223 279.089C106.44 279.38 106.46 279.546 106.584 279.816C107.856 282.481 106.533 282.004 106.584 282.16C106.874 283.062 108.156 282.067 108.569 282.699C109.014 283.374 108.373 283.892 108.383 284.152C108.393 284.4 109.189 285.075 109.107 285.593C109.499 285.645 110.254 285.438 110.502 285.645C110.678 285.79 110.502 286.237 110.554 286.319C110.823 286.693 111.112 286.88 111.277 287.409C114.027 287.232 114.43 289.068 115.598 291.019C116.591 292.689 116.777 292.502 115.95 294.805C117.345 294.4 116.477 295.365 115.95 296.07C116.074 296.132 116.177 296.361 116.312 296.433C117.376 297.823 116.115 297.678 114.864 297.408L114.451 297.979C113.624 300.665 111.277 299.877 109.541 298.02L107.67 297.522H107.308C105.799 296.703 103.68 295.188 102.832 293.871C102.646 293.591 102.625 293.166 102.625 292.823L101.912 293.186C101.829 292.626 102.026 291.89 101.912 291.382C101.881 291.257 101.623 290.479 101.55 290.292C101.426 289.96 101.064 289.66 100.837 289.39L101.188 289.214C99.9583 288.965 99.5655 288.861 99.3897 287.409C98.4077 286.734 97.7771 286.288 96.8675 285.241C96.7124 285.064 96.6607 284.691 96.5057 284.515C95.5443 283.436 94.7587 282.191 93.6216 281.257C93.3632 281.05 92.9497 280.562 92.898 280.531C92.5879 280.345 91.854 280.345 91.4611 280.168C91.4611 280.054 91.4715 279.93 91.4611 279.805C91.4508 279.65 91.2131 279.266 91.0993 279.079C90.8202 278.602 90.3654 278.353 90.0243 278C89.7555 277.72 89.1973 277.544 88.9492 277.274C88.6804 276.994 88.484 276.527 88.2256 276.185C87.8638 275.687 86.675 274.121 86.4269 273.654C85.9308 273.281 84.5146 273.799 84.2665 273.104C83.915 272.088 84.897 272.222 84.9177 272.16V272.139C84.9074 271.942 84.897 271.745 84.9177 271.538C84.5869 271.092 83.2948 271.362 82.8089 271.123C82.4058 270.926 82.3128 270.749 82.0853 270.397C81.5892 269.619 81.3721 269.204 82.4471 269.308V268.945C82.2507 268.965 81.8683 268.882 81.3721 268.945C81.3514 268.945 81.3411 269.256 81.0309 269.142C80.8449 269.069 80.7725 268.654 80.6588 268.582C80.5554 268.519 80.1006 268.685 79.9869 268.55C79.9352 268.488 80.5761 267.482 79.7595 267.14L79.0462 267.855C78.7051 266.528 77.0201 265.231 75.7176 265.024C74.6943 264.868 72.9473 266.403 71.3037 266.414C67.9131 266.414 67.4376 265.335 65.4012 263.291C65.2048 263.094 64.6982 263.053 64.4605 262.804C64.3468 262.679 64.2124 262.565 64.0987 262.441C63.985 262.316 63.8092 262.192 63.7369 262.078C63.6438 262.897 62.1243 264.536 61.5764 263.883C61.5971 264.329 61.6488 265.521 61.2146 265.687C61.1629 265.885 61.1009 266.04 61.0182 266.05C60.5324 266.123 59.3643 266.123 59.0541 266.05C58.7647 266.694 58.7337 267.046 57.9791 267.492C58.2168 267.627 58.2272 267.752 57.9791 267.855C57.8757 267.897 57.731 267.814 57.6173 267.855C55.6842 268.53 57.1728 269.37 56.5422 271.113C55.2501 272.119 54.6092 271.61 54.5161 273.177C54.4955 273.488 54.5782 273.747 54.7435 274.007C54.5575 274.287 54.4851 274.588 54.3817 274.733C53.6581 275.583 52.9449 276.434 52.2213 277.264C51.9939 277.606 51.7251 278.021 51.4977 278.343C50.1332 279.66 49.0478 281.102 48.2621 282.679C48.1381 282.793 48.0037 282.969 47.9003 283.042C47.7763 283.425 47.5179 283.726 47.2801 283.529C47.3938 283.726 47.2388 283.923 46.8149 284.131C46.4325 284.421 46.2878 284.691 46.0913 284.857C44.9956 285.583 44.0343 285.946 43.2073 285.936C43.0212 287.658 42.6697 287.263 41.4086 287.378C41.1709 287.398 40.9228 287.346 40.685 287.378C40.5816 287.792 40.2198 287.917 39.6099 287.741C39.2068 288.145 39.2275 288.259 39.2481 288.819C39.2481 288.944 39.2171 289.089 39.2481 289.182C39.1138 289.286 39.0104 289.431 38.8863 289.546C38.5245 289.546 38.1627 289.546 37.8113 289.546C37.4495 289.546 37.0877 289.525 36.7362 289.546C34.8652 289.68 34.8445 289.846 32.9425 289.369C32.6634 289.297 32.1672 289.649 32.0535 289.546C32.0018 289.494 32.0121 288.156 32.0535 288.104C30.4202 287.896 31.0301 286.423 30.2548 285.573C29.6139 286.278 29.3141 286.154 29.5312 285.21C29.2108 285.064 29.2108 284.94 29.5312 284.847C28.177 282.938 28.146 281.994 29.4589 282.015L29.5312 281.589C27.6188 282.564 28.7869 277.689 29.035 277.616C29.1901 277.575 29.3555 277.585 29.5312 277.616L30.2548 276.89C29.2108 276.61 29.5002 274.204 30.6166 274.359C30.7613 273.861 31.0404 273.633 31.3402 273.27C31.9708 272.492 31.8984 272.834 32.4153 272.544C33.0872 272.181 33.7591 271.735 34.5757 271.818C34.462 271.569 34.3277 271.341 34.2139 271.092C33.48 269.515 34.2346 270.324 34.5654 269.754C35.2167 268.602 35.8989 266.891 36.7155 265.843C37.0153 265.459 37.7389 265.428 37.8216 265.065C38.0077 264.318 37.4391 263.125 37.6252 262.773C37.8216 262.41 40.2095 260.148 40.685 259.536C40.7884 259.401 40.9538 259.308 41.0468 259.173C41.1502 259.028 41.3673 258.903 41.4086 258.81C41.543 258.54 41.6154 257.119 41.7704 257.005C43.7758 257.69 42.8765 257.223 43.2073 256.642L45.5228 252.638C46.0293 251.829 47.4455 252.742 47.5179 252.659C47.9934 252.171 46.081 251.58 46.8046 250.491C47.5075 251.238 47.9624 249.879 48.6033 249.049C48.7066 248.925 48.8514 248.81 48.9651 248.686C49.1201 248.51 49.5646 248.375 49.6163 248.25C49.7817 247.866 49.1201 247.047 49.6887 246.518C49.792 246.487 50.3089 245.979 50.7637 245.792C51.1979 244.153 52.5624 244.526 53.2963 245.304C53.4204 243.769 52.2523 244.277 51.4873 243.624C50.8258 243.064 51.1772 242.877 51.8491 242.535C51.6631 242.358 52.366 241.954 50.7741 241.809C50.65 241.809 50.5363 241.819 50.4123 241.809C50.0091 242.649 49.5233 242.732 49.3372 241.809C49.3269 241.788 49.0478 241.508 48.9754 241.446C48.7066 239.827 48.3345 239.589 46.7943 239.848L45.3677 237.11C44.8509 237.016 44.4994 236.466 44.2927 236.383C44.1169 236.321 43.7862 236.435 43.5691 236.383L43.9309 235.305C42.6387 236.197 42.9178 234.993 42.6801 234.983C42.5044 234.983 42.2252 235.325 42.1322 235.305C41.9358 235.045 41.7911 234.807 41.7394 234.537C41.6877 234.703 41.574 234.713 41.4189 234.579C40.1888 234.091 40.685 234.734 39.2585 233.5C38.907 232.743 40.0855 232.784 39.9821 232.597C39.734 232.193 38.907 232.182 38.8657 231.819C38.8243 231.446 39.3205 230.761 39.2171 230.637C39.1138 230.512 38.5969 230.668 38.5452 230.606C38.7003 231.55 38.3488 231.373 37.4702 231.332C37.2221 230.906 37.4185 230.564 36.7466 229.89C36.4158 229.983 36.2917 229.869 36.3848 229.527C36.3848 229.413 36.3848 229.288 36.3848 229.164C36.3848 229.091 36.054 227.784 36.023 227.722C36.0126 227.701 35.6818 227.369 35.6611 227.359C35.5474 227.317 35.134 227.348 34.9375 227.359C35.1029 229.164 33.511 227.898 32.9838 226.726L31.702 226.27C31.5159 226.124 31.3402 225.824 30.9784 225.544C30.4305 225.118 29.3762 224.548 28.818 224.102C28.4768 223.822 28.3114 223.562 28.0943 223.376C27.9703 223.261 27.8566 223.127 27.7325 223.013C27.4431 222.743 26.8849 222.546 26.6575 222.286C26.5438 222.162 26.4094 222.058 26.2957 221.923C26.0476 221.602 26.0166 221.311 25.9339 221.197C25.4067 220.575 24.8071 220.098 24.1352 219.755C24.0215 219.631 23.8871 219.527 23.7734 219.392C23.6287 219.206 23.5563 218.874 23.4116 218.666C22.9361 217.992 22.595 218.013 22.3366 216.861C22.2539 216.488 22.5019 215.627 22.2952 215.44C22.1505 215.305 21.4269 215.523 21.2925 215.388C21.1271 215.212 21.3338 214.04 21.1788 213.48C21.0444 212.992 20.5586 212.94 20.5275 212.888C19.3491 210.752 20.4035 211.654 21.0651 210.337C21.2718 209.911 21.1685 209.569 21.2511 209.279C21.4476 209.279 21.6543 209.258 21.8507 209.227C21.644 209.071 21.5199 208.833 21.613 208.552C21.613 208.521 21.1064 208.221 21.3959 207.847C21.706 207.443 22.6777 207.214 23.4116 206.384C23.7631 206.353 24.1559 206.436 24.4867 206.384C24.5694 206.374 24.7244 206.011 24.9829 206.073L25.2103 206.384C25.2103 206.384 25.7065 206.519 25.8719 206.312C26.4301 205.575 25.0242 205.42 27.3707 205.295C28.0323 205.264 29.1591 205.077 29.5312 205.658C29.738 205.679 30.0274 205.97 30.2548 206.021C30.7303 206.27 31.1852 206.561 30.875 207.048C30.9371 207.142 30.9577 207.297 30.9681 207.463L31.3299 206.737C31.0198 206.602 31.0198 206.478 31.3299 206.374C32.2809 206.592 33.0045 206.872 33.8521 207.1L33.4903 207.816C34.5241 207.463 34.5241 207.546 35.289 207.816C35.5578 207.909 35.7542 208.283 36.1883 208.366C36.7982 208.48 37.2531 207.526 37.0877 209.268C38.018 207.868 37.8113 208.345 38.1627 209.268C38.4212 209.953 39.1965 209.061 40.0648 209.6C40.4886 209.87 40.8401 211.001 41.0468 211.073C41.8221 211.364 42.1219 211.478 42.8455 211.799C43.0626 211.893 44.0136 211.944 44.6441 212.162C45.1713 212.131 45.6572 212.266 45.9156 212.162C45.8949 211.996 45.9466 211.758 46.081 211.447C45.2644 210.689 45.8329 210.575 44.2823 210.357C43.9205 210.243 43.9619 209.942 43.9205 209.631C43.7035 209.517 43.6414 209.424 43.7345 209.351C43.3003 209.486 42.7731 209.268 42.4837 208.905C42.4527 208.884 42.1632 208.272 42.1219 208.179C42.0805 208.075 42.1632 207.909 42.1219 207.816C40.7987 208.106 41.1192 207.391 40.685 206.727C40.4266 206.343 40.2095 206.136 39.9614 205.648C38.6486 205.399 37.2014 203.376 37.0773 202.038C36.8499 202.08 36.5501 201.208 36.1263 202.391H35.6405C35.4751 202.194 35.1856 202.1 34.9169 201.675C34.7618 201.312 34.7618 201.073 34.9169 200.949C34.9169 200.825 34.9169 200.71 34.9169 200.586C34.8962 200.347 34.9272 200.098 34.9169 199.86C34.9272 200.482 34.6895 200.482 34.1933 199.86C33.8108 199.808 33.449 199.694 33.1182 199.497H32.7564C32.6014 199.341 32.529 198.874 32.3946 198.771C32.0018 198.096 31.6607 197.401 31.3712 196.686C31.2885 197.194 30.8544 197.443 30.2341 196.603C29.8103 195.939 28.973 195.265 28.7973 194.435C28.5492 193.273 29.5209 191.914 27.7119 192.267C28.0943 191.126 27.8773 190.68 27.7119 189.736C27.6499 189.352 27.0503 188.875 27.5051 188.273C27.7222 187.983 28.4355 187.983 28.7559 187.713C30.1308 186.562 30.3582 185.742 31.3092 184.674C31.3402 184.632 31.764 184.767 31.9294 184.57C32.1672 184.29 31.9708 183.657 32.0328 183.595C32.436 183.201 33.6041 183.896 33.48 184.674C34.2139 183.937 34.0486 183.937 34.9169 183.584C35.6301 183.294 35.6405 183.335 36.3537 183.221C38.1938 182.931 37.8113 182.558 39.5893 183.584C39.5893 183.823 39.5893 184.062 39.5893 184.311C39.5893 184.425 39.5996 184.56 39.5893 184.674C40.3852 185.223 41.3879 184.902 42.2356 185.109C42.7731 185.234 43.0936 185.732 43.1969 185.763C44.0239 185.991 45.4711 186.51 46.081 186.126C45.988 185.97 46.143 185.327 46.081 185.047C46.7736 185.213 47.2801 185.078 48.2415 185.41L49.699 186.593C51.4357 186.727 52.5831 187.381 53.1413 188.564C54.1543 188.781 54.7229 189.196 53.9993 190.109C54.9089 190.068 55.6636 190.472 55.4361 189.383C55.4982 189.414 56.6559 189.705 56.873 189.746C57.3795 189.777 57.5036 189.902 57.2348 190.109C57.3485 190.13 57.4726 190.109 57.5966 190.109C57.8447 189.933 58.0721 190.005 58.3202 190.109C58.9094 190.503 59.4986 190.835 60.1189 191.198C60.7391 191.779 60.7391 192.018 60.1189 191.924C60.1809 191.945 60.2636 192.464 60.6254 192.505C61.0079 192.547 62.0312 192.07 62.269 192.308C62.331 192.37 62.2277 192.765 62.2793 193.055C62.4137 193.097 62.5584 193.2 62.7238 193.387C62.8582 193.387 62.9823 193.356 63.0029 193.377L63.3647 193.014C63.5715 193.107 64.0056 193.19 64.4398 193.377C64.8223 193.543 65.2254 193.605 65.5149 193.74C65.9697 193.76 66.2075 193.885 66.2385 194.103C66.745 194.372 67.1688 194.404 67.6753 194.829C67.9958 195.099 68.3886 195.565 68.7504 195.908C69.0605 195.731 69.4843 195.524 69.8255 195.545C71.5518 195.669 71.4484 195.845 71.6241 196.986C71.7275 197.132 71.7378 197.308 71.6965 197.484C71.7688 197.422 71.8619 197.37 71.9859 197.35C72.1927 196.976 72.3994 196.572 72.7095 196.26H73.0713C73.5158 196.52 74.0534 197.09 74.5082 197.35C75.0044 197.619 75.3972 197.972 75.5833 198.076C75.6763 198.128 75.852 198.024 75.9451 198.076C77.9298 199.092 79.0152 198.823 81.0826 199.891C82.168 200.451 83.3465 200.907 84.9384 201.696C85.9618 202.204 85.6 202.391 85.662 202.422C85.8377 202.526 86.6337 202.308 86.7474 202.422C86.8921 202.578 86.3132 203.324 86.4373 203.47C86.551 203.594 87.0472 203.439 87.0989 203.501C87.1816 203.604 87.0368 204.31 87.0989 204.59C87.2746 204.683 87.347 204.808 87.4607 204.953C87.6777 204.912 88.0292 205.026 88.1843 204.953C88.298 204.901 88.422 204.631 88.5461 204.59C89.8382 204.185 90.7892 204.237 92.1434 204.59C92.1641 204.528 92.1744 204.289 92.1434 204.227C91.9987 203.926 91.2234 203.968 91.4405 203.356C91.6575 202.723 92.898 202.173 93.3942 201.685C94.0661 201.001 93.4562 201.042 94.6657 200.264C94.2522 198.574 95.8131 198.76 96.8261 197.37C97.7668 195.285 98.6455 194.601 99.4724 195.316C99.1933 195.991 99.276 196.312 99.7102 196.281C99.7929 195.877 99.9996 195.399 100.051 195.244C100.051 195.223 100.051 195.213 100.062 195.192C99.7515 195.067 99.7515 194.953 100.062 194.829C100.072 194.715 100.062 194.59 100.062 194.466C100.392 193.823 100.744 193.823 101.137 194.466C101.116 194.269 101.095 193.885 101.137 193.74C101.374 193.003 102.181 193.065 102.222 193.014C102.357 192.827 101.519 192.381 101.488 191.758C101.488 191.675 102.315 191.229 102.584 190.493C102.274 190.348 102.274 190.234 102.584 190.13V189.767C103.463 188.729 103.752 188.128 105.106 187.236C105.323 187.091 105.613 187.018 105.83 186.873C106.698 186.271 108.662 185.286 109.324 184.622C109.593 184.362 110.027 182.215 110.482 181.676C110.833 181.271 111.081 181.593 111.939 180.358C112.073 180.047 112.197 180.047 112.301 180.358C112.632 179.321 113.262 180.037 113.738 179.995C113.851 179.975 113.944 179.975 114.037 179.975C112.921 179.58 113.355 178.854 114.089 178.19C114.348 178.014 114.875 177.983 115.071 177.744C116.229 176.365 115.009 174.83 118.048 175.296C118.038 174.601 117.263 174.145 118.772 173.491C119.34 171.251 121.336 170.048 122.731 168.429L123.093 168.792C123.651 168.16 124.127 168.118 124.168 168.066C124.509 167.89 124.716 167.859 124.767 167.952C125.439 166.956 127.197 165.639 127.403 166.624C127.414 166.739 127.403 166.863 127.403 166.988C128.241 165.763 127.652 164.944 127.765 164.82C127.817 164.757 128.21 165.245 129.202 164.82C129.305 164.778 129.461 164.861 129.564 164.82C129.719 164.944 129.719 165.068 129.564 165.183C130.039 165.286 130.484 165.463 130.742 165.732C130.918 165.566 131.259 165.546 131.879 165.649C132.221 164.311 133.017 164.591 133.885 165.546C134.133 165.286 134.381 165.037 134.608 164.82C135.012 164.405 135.921 163.336 136.056 163.212C136.428 162.89 137.317 163.004 137.493 162.289C137.617 162.268 137.741 162.309 137.854 162.289C137.658 162.289 137.544 162.216 137.524 162.081C137.389 162.174 137.203 162.185 136.996 162.081C137.038 162.154 136.965 162.226 136.779 162.289C136.407 162.849 135.715 163.035 135.704 162.289C135.694 163.689 133.968 163.284 133.668 162.444C133.347 162.818 132.706 163.004 131.745 163.015C131.611 163.326 131.487 163.326 131.383 163.015C130.753 161.988 130.753 161.386 131.383 161.21C131.476 161.168 131.642 160.556 131.941 160.504C132.758 160.349 132.737 161.5 132.841 161.573C132.955 161.656 133.647 161.013 133.916 160.847C132.665 159.685 133.647 158.99 134.464 157.963C135.415 157.735 134.795 158.814 135.022 159.011C135.26 159.228 136.666 158.948 137.162 159.052C137.193 159.011 137.493 158.119 137.524 157.963C136.045 158.212 137.555 157.029 137.12 156.552C136.945 156.365 136.283 156.77 136.448 156.158C137.71 156.376 138.03 154.944 138.288 154.747C138.382 154.685 140.315 155.256 140.046 156.158C140.842 155.598 139.839 154.706 140.408 154.166C141.028 153.596 140.552 154.695 140.945 154.716C141.307 154.737 141.059 153.949 141.131 153.627C143.591 154.177 141.131 155.079 141.131 155.432C142.485 155.764 143.333 153.99 144.367 153.99C144.708 153.99 145.39 154.426 145.442 154.353C145.514 154.249 145.979 152.31 146.527 152.185C146.786 152.123 147.013 152.476 147.251 152.548C148.181 152.413 147.53 151.459 147.778 151.096C148.026 150.733 148.564 150.847 148.698 150.743C149.339 150.256 148.936 149.82 149.06 149.301C149.132 148.98 149.36 148.689 149.422 148.212C149.814 148.108 150.176 147.87 150.497 147.486C150.631 147.445 150.941 147.237 151.22 147.123C151.737 146.179 152.461 145.463 153.381 144.955C154.022 143.97 154.228 143.887 154.818 143.15L155.893 143.513C156.151 143.078 156.792 142.569 157.123 142.019C157.34 141.656 157.299 141.024 157.34 140.982C157.454 140.868 159.79 141.76 160.575 140.982C160.596 140.868 160.544 140.733 160.575 140.619C160.234 140.391 159.469 140.069 159.655 139.54C159.686 139.447 160.503 137.798 160.586 137.735C161.123 137.362 161.888 138.223 162.364 138.441C161.981 135.567 163.408 136.791 163.739 136.584C164.255 136.262 163.739 134.893 165.248 136.273L164.173 134.468C165.672 135.059 165.734 133.534 166.178 133.389C166.891 133.161 167.698 134.406 168.494 134.105C168.39 133.565 167.842 133.794 167.749 133.555C167.284 132.279 168.669 132.839 169.062 132.331C169.589 131.646 168.514 130.63 169.217 130.132C169.217 130.132 169.217 130.142 169.217 130.153V130.132C169.269 130.09 169.92 130.205 170.292 129.945C170.685 129.676 170.613 129.084 170.664 129.053V128.327C170.964 128.13 171.264 128.047 171.388 127.964C172.267 127.113 173.104 126.626 173.91 126.522C174.034 126.346 174.024 125.703 174.272 125.443H174.634C174.634 125.443 174.996 125.08 174.996 124.717C176.05 124.178 176.774 124.178 177.156 124.717C177.167 124.624 177.177 124.437 177.156 124.354C175.151 124.499 176.836 122.757 177.518 122.549C177.756 122.062 177.88 121.875 178.242 121.46C178.727 121.377 179.089 121.138 179.317 120.734C179.42 120.651 179.513 120.506 179.678 120.371C180.082 120.319 180.216 120.371 180.402 120.734C180.474 120.869 180.35 121.242 180.402 121.46L181.115 121.097C181.332 119.603 182.139 120.257 182.625 119.987C183.017 119.769 182.883 119.624 183.638 119.292C184.041 119.116 184.434 118.639 184.971 118.628C185.633 118.607 185.726 119.271 185.798 119.292C186.17 119.417 187.359 119.396 187.555 119.707C187.752 120.029 187.452 120.807 187.638 121.066C187.679 121.118 187.762 121.128 187.865 121.128C187.948 121.097 188.062 121.087 188.186 121.087C188.248 121.087 188.3 121.076 188.331 121.087C189.354 121.792 189.127 122.539 190.853 122.528C190.832 122.601 190.822 122.829 190.853 122.892C192.6 122.031 192.104 123.773 191.297 124.79L191.277 124.811ZM39.9717 261.486C39.9717 261.486 39.9717 261.486 39.9717 261.476C39.9717 261.476 39.9717 261.476 39.9717 261.486ZM54.175 200.565C53.1723 201.758 50.1745 200.337 51.8491 199.154C51.7251 199.051 49.668 198.563 48.7687 198.148C48.81 198.148 48.8514 198.159 48.9031 198.148C48.7997 198.117 48.7066 198.096 48.6136 198.055C48.4275 197.951 48.3655 197.557 48.1484 197.422C48.0347 197.443 47.921 197.422 47.8383 197.391C47.6833 197.433 47.4972 197.547 47.2388 197.775C47.063 197.93 47.2181 198.387 47.1767 198.418V198.781C47.1457 199.175 47.2594 199.279 47.5385 199.507C48.3655 198.937 51.5184 200.607 50.7741 201.312C50.1435 201.914 49.5336 199.569 49.3786 200.503C49.3786 200.638 49.3786 200.783 49.3372 200.949C49.4613 201.146 49.6163 201.447 49.699 201.675C49.8231 201.997 50.1435 201.986 50.0608 202.754L51.4977 202.391C51.4563 202.858 51.5597 203.376 51.4977 203.833C51.7354 203.947 51.9732 204.071 52.2213 204.196C52.3143 204.237 52.4694 204.154 52.5831 204.196C53.7098 201.291 53.8442 204.538 54.1026 204.839C54.1853 204.932 54.8366 204.994 55.4671 205.638C55.8289 206.001 56.2011 206.779 56.5422 207.079C56.966 207.453 58.2892 208.262 59.0645 208.884C61.3697 207.992 61.4214 210.057 61.9899 210.637C62.0933 210.741 64.8223 210.492 63.7369 211.768C65.5459 211.924 65.0704 212.121 64.8223 213.22C64.6879 213.822 64.4088 214.393 64.4708 215.025C64.5639 215.17 64.9877 214.683 65.1841 214.662V213.22C66.6933 213.366 66.7036 213.345 67.7063 214.31C69.598 216.114 71.5621 217.007 73.1023 218.645C73.6916 219.268 73.7743 219.828 73.919 219.973C74.1361 220.201 75.7487 220.979 76.1621 221.529C76.3172 221.508 77.2372 219.745 77.4233 219.372C77.6093 218.988 78.0228 217.328 78.1469 217.204C78.9325 216.446 78.8291 218.013 78.8808 218.479C78.9532 218.531 79.0152 218.583 79.0876 218.656C79.4287 218.677 80.1213 218.594 79.9455 219.372C80.7208 219.403 79.9145 218.376 80.6588 217.93C80.7415 217.878 80.9172 217.982 81.0206 217.93C81.3824 215.886 79.5321 217.94 78.8705 216.301L80.3073 215.751L79.9455 215.046C80.2867 214.807 81.3617 214.973 81.8579 215.036C81.9303 214.994 82.0026 214.963 82.0853 214.922C81.9716 214.579 81.5788 213.604 82.4678 213.241C82.5092 212.899 82.9743 212.318 82.8296 211.799C82.9743 210.866 82.044 210.98 81.3927 210.513C81.124 210.316 81.0826 209.745 80.9793 209.673C80.9172 209.631 80.0489 209.953 79.5837 209.984C77.6817 210.108 78.0125 209.683 77.2682 209.341C77.2062 209.32 77.1338 209.299 77.0615 209.258C76.0691 208.916 74.4255 208.864 73.9086 208.667C73.3401 208.438 73.6502 207.474 72.7405 208.179V207.142C72.7405 207.142 72.6785 207.142 72.6475 207.142C71.7275 207.64 69.6187 207.017 69.2156 206.301C68.9675 205.866 69.2362 205.057 69.1329 204.932C69.0605 204.839 67.3445 205.99 66.9724 204.569C66.8484 204.569 66.7347 204.569 66.6106 204.569C65.2668 204.507 63.3234 204.777 62.2897 203.843C62.207 203.874 62.0623 203.833 61.9279 203.843C61.2249 205.295 57.8654 203.729 57.5863 202.256C56.4802 202.152 53.6995 201.737 54.175 200.555V200.565ZM47.7453 208.542H47.5385C47.6006 208.552 47.6729 208.542 47.7453 208.542ZM33.5214 283.363C33.5214 283.363 33.5007 283.342 33.4903 283.342L33.5214 283.363ZM43.3933 190.483C43.3933 190.503 43.3933 190.524 43.383 190.545C43.383 190.545 43.3933 190.545 43.4037 190.545V190.493L43.3933 190.483ZM47.9003 275.573V275.76C47.921 275.708 47.9003 275.635 47.9003 275.573ZM148.357 184.84C148.336 184.912 148.336 184.985 148.347 185.068C148.347 185.026 148.347 184.943 148.357 184.84ZM50.433 227.826C51.2599 228.552 50.9291 229.102 51.1359 229.496C51.2496 229.714 51.3736 230.077 51.4977 230.222C52.5417 229.216 54.6092 231.404 52.9345 231.664C53.0586 231.767 53.4721 231.965 53.6581 232.027C54.082 232.172 55.3328 232.068 55.4775 232.213C55.7979 232.525 55.7049 233.116 55.9116 233.375C55.9943 233.479 57.4932 234.527 57.9687 234.921C58.1651 235.087 58.1755 235.408 58.6923 235.647C59.1989 235.875 60.6874 236.197 61.1422 235.937C61.2766 235.854 63.1166 233.645 63.1787 233.5C63.3441 233.043 62.8996 232.234 63.0133 231.674C62.362 231.529 62.7859 232.286 62.6515 232.39C61.9485 232.991 61.9382 231.819 61.8762 231.767C61.7935 231.695 60.8631 231.954 59.8708 231.415C56.7903 229.734 56.1701 229.029 52.5727 227.701C51.8181 227.421 51.2496 226.944 50.4123 226.622C50.1642 226.529 49.8644 226.56 49.6887 226.259C49.5646 226.259 49.4199 226.29 49.3269 226.259C47.3525 227.649 49.9264 227.4 50.4226 227.836L50.433 227.826ZM78.0952 247.68C78.1159 247.524 78.1469 247.379 78.1882 247.254C78.0952 247.337 78.0022 247.4 77.8884 247.452C77.9711 247.514 78.0332 247.586 78.0849 247.68H78.0952ZM90.3757 218.303C90.3757 218.303 90.3447 218.303 90.3344 218.303C90.3551 218.345 90.3757 218.397 90.3964 218.448C90.3964 218.407 90.3964 218.355 90.3757 218.293V218.303ZM99.0176 220.108C98.6661 220.129 98.5007 220.025 98.294 219.745C98.0459 219.403 98.0046 218.998 97.8288 218.78C97.6634 218.78 97.467 218.76 97.2189 218.666C98.0252 219.496 97.2189 220.679 96.1439 220.108C96.6917 221.342 94.5623 222.214 94.3452 220.834C94.3039 220.938 94.3969 221.104 94.3452 221.197C93.9007 222.12 93.7043 222.307 93.2701 223.002C92.8567 223.666 91.5025 225.969 91.1097 226.259C91.1097 226.342 91.1097 226.425 91.1097 226.498V228.064L90.0346 226.985C89.9829 227.1 89.6832 227.245 89.6728 227.348C89.6521 227.587 89.6832 227.836 89.6728 228.075C89.6728 228.116 90.0346 228.324 90.0243 228.624C90.0243 229.33 89.1766 230.149 88.5874 229.527C88.3497 230.201 87.8741 230.813 87.8638 231.695C87.8638 231.923 87.8225 232.224 87.8638 232.421C87.8948 232.545 87.8225 232.711 87.8638 232.784L89.4867 231.342L90.3861 232.421C90.4584 232.224 90.8719 232.079 91.1097 232.058C91.089 231.882 91.0683 231.446 91.1097 231.332C91.182 231.145 92.898 229.433 93.2701 228.801C93.663 228.137 93.9937 227.431 93.9937 226.633L95.6167 227.712C95.9785 227.722 95.7201 227.193 95.7924 226.996C95.2859 225.191 96.7744 225.232 96.8571 223.936L99.0279 220.492C98.7178 220.357 98.7178 220.233 99.0279 220.129L99.0176 220.108ZM107.298 243.956C107.525 244.101 107.763 244.205 108.001 244.267C108.001 244.132 108.311 243.8 108.373 243.593C107.99 244.163 107.742 244.319 107.453 243.883C107.411 243.904 107.36 243.935 107.298 243.956ZM109.706 243.779C109.923 243.499 110.595 243.665 111.257 243.956C110.947 243.821 110.936 243.696 111.257 243.593C110.678 243.624 109.954 243.541 109.82 242.877L111.257 243.23C110.885 242.607 111.102 242.389 111.619 242.867C111.536 242.306 111.505 241.86 111.536 241.539C111.391 241.404 111.102 241.342 110.544 241.248C111.081 239.641 111.815 240.398 111.98 240.346C112.001 240.346 112.332 240.004 112.342 239.983C112.042 239.827 111.887 239.661 111.825 239.495C111.557 239.734 111.091 239.599 110.895 238.904C110.74 239.506 110.719 240.294 110.171 240.709C110.254 241.28 110.089 241.684 109.53 241.622C109.241 241.165 108.797 241.269 108.207 241.923C108.269 241.923 108.321 241.995 108.373 242.151C108.424 242.141 108.807 241.487 109.448 241.788C109.22 242.379 109.427 243.24 109.262 243.79C109.427 243.696 109.582 243.696 109.686 243.769L109.706 243.779ZM112.704 238.541C112.477 238.583 112.166 238.479 111.98 238.541C112.011 238.676 112.032 238.79 112.032 238.894C112.197 238.749 112.425 238.614 112.694 238.541H112.704ZM112.559 212.525C112.466 212.525 112.384 212.494 112.332 212.525H112.559ZM120.612 209.579C120.519 209.579 120.405 209.59 120.26 209.631C120.385 209.611 120.498 209.6 120.612 209.579ZM106.13 228.168C106.295 227.94 106.45 227.629 106.574 227.338C106.274 227.66 106.068 227.234 105.975 226.985C106.109 227.452 106.15 227.867 106.119 228.168H106.13ZM67.696 234.921C67.603 234.931 67.5099 234.973 67.4066 235.014C67.4996 234.983 67.5926 234.952 67.696 234.921ZM87.6054 222.266C87.6054 222.266 87.6571 222.349 87.6984 222.39C87.6467 222.245 87.5847 222.089 87.5123 221.913C87.564 222.048 87.595 222.162 87.6157 222.266H87.6054ZM127.104 197.702C127.166 197.702 127.197 197.702 127.228 197.671L127.104 197.702ZM104.579 209.289C104.579 209.289 104.486 209.268 104.414 209.268C104.445 209.289 104.507 209.289 104.579 209.289ZM121.697 198.791C121.625 198.771 121.563 198.76 121.491 198.75C121.553 198.771 121.615 198.791 121.697 198.791ZM88.2153 258.779C88.2153 258.779 88.2153 258.8 88.2256 258.8C88.2256 258.789 88.2359 258.779 88.2463 258.769C88.2463 258.769 88.2256 258.769 88.2153 258.779ZM63.6542 244.672C63.6542 244.672 63.7265 244.692 63.7369 244.682C63.7369 244.682 63.7575 244.651 63.7679 244.609C63.7369 244.63 63.6955 244.651 63.6542 244.672ZM132.861 211.436H133.037C132.975 211.426 132.913 211.415 132.861 211.436ZM55.7049 215.596C55.7049 215.596 55.7463 215.575 55.7566 215.554C55.7049 215.523 55.6429 215.492 55.5809 215.471C55.6532 215.513 55.6946 215.554 55.6946 215.596H55.7049ZM77.8471 250.149C78.0849 249.931 78.3743 249.796 78.6017 249.868C78.395 249.599 78.2296 249.142 78.1469 248.676C78.0745 248.821 77.9505 248.945 77.7851 249.018C77.7851 249.215 77.8368 249.64 77.7851 249.744C77.8161 249.879 77.8471 250.014 77.8574 250.149H77.8471ZM50.4123 207.588C50.4123 207.588 50.4123 207.588 50.4123 207.577C50.4123 207.536 50.4123 207.505 50.4123 207.463V207.588ZM111.257 200.596C111.288 200.503 111.298 200.399 111.308 200.295C111.288 200.399 111.277 200.493 111.257 200.596ZM49.3372 264.909C50.0815 264.173 50.5983 264.173 50.8981 264.692C51.0428 264.453 51.384 264.287 51.8595 264.194C51.1772 264.142 50.1022 264.474 49.699 263.831C49.544 264.152 49.4199 264.163 49.3372 263.831C49.3579 264.194 49.3062 264.557 49.3372 264.909ZM55.9943 227.577C56.046 227.618 56.1081 227.66 56.1804 227.701C56.1081 227.639 56.046 227.597 55.9943 227.577ZM52.4487 208.501C52.4487 208.501 52.5314 208.521 52.5727 208.542C52.5314 208.521 52.49 208.511 52.4487 208.501ZM92.1744 260.221C92.1744 260.221 92.2261 260.221 92.2468 260.2C92.2261 260.2 92.1951 260.21 92.1744 260.221ZM73.7949 251.487C73.7949 251.487 73.7949 251.497 73.7949 251.507C73.7949 251.507 73.7949 251.497 73.7949 251.487ZM39.734 280.355C39.734 280.355 39.6616 280.428 39.6099 280.459C39.6616 280.428 39.703 280.396 39.734 280.355ZM50.5467 204.569H50.7741C50.7017 204.559 50.619 204.569 50.5467 204.569ZM147.623 237.815C147.623 237.867 148.057 237.898 147.985 238.168C146.351 238.054 146.507 238.52 145.7 239.143C145.473 239.319 145.152 239.215 145.101 239.257C145.793 239.941 145.711 240.18 144.739 239.983C145.111 241.041 143.405 242.099 142.578 241.425C143.075 242.4 141.607 243.531 140.78 242.867C141.255 243.572 141.09 244.9 140.056 244.672C139.963 244.817 138.02 246.113 137.741 246.798C137.772 246.891 137.803 247.006 137.834 247.14C137.896 247.171 137.968 247.192 138.082 247.213C140.955 247.545 143.467 242.68 146.538 242.877L147.137 242.566C147.189 242.452 147.209 242.338 147.22 242.224C147.044 242.078 146.548 242.244 146.507 241.943C146.444 241.414 146.951 240.45 147.261 239.983C147.985 238.873 149.504 238.168 150.135 236.912L147.974 236.736C148.429 237.379 148.316 237.742 147.613 237.815H147.623ZM146.827 243.001C146.744 243.064 146.651 243.136 146.548 243.24C146.662 243.167 146.744 243.084 146.827 243.001ZM148.171 236.726C148.233 236.736 148.295 236.747 148.347 236.726H148.171ZM122.049 266.756C122.049 266.756 122.049 266.735 122.059 266.725V266.756H122.049ZM121.491 263.831H121.346C121.346 263.831 121.449 263.831 121.491 263.831ZM41.4293 277.482C41.4293 277.482 41.4086 277.544 41.4189 277.565C41.4189 277.533 41.4189 277.513 41.4293 277.482ZM51.4667 192.92C51.4667 192.92 51.4563 192.941 51.446 192.951C51.446 192.951 51.4667 192.951 51.477 192.941V192.92H51.4667ZM81.3824 210.326C81.3824 210.326 81.3824 210.347 81.3824 210.357C81.3927 210.357 81.4134 210.368 81.4238 210.378C81.4134 210.368 81.3927 210.347 81.3824 210.337V210.326ZM91.4611 271.413H91.3164C91.3164 271.413 91.4198 271.413 91.4611 271.413ZM51.8595 191.924C51.8595 191.924 51.8802 191.924 51.9112 191.904C51.8905 191.904 51.8802 191.904 51.8595 191.924ZM98.3043 268.167C98.3043 267.928 98.294 267.679 98.3043 267.44C97.1776 266.611 97.7151 266.113 97.9425 265.273C97.9942 265.065 97.8805 264.723 97.9425 264.546C98.0459 264.287 98.7282 264.453 98.6558 263.333C98.6145 262.679 98.3664 261.777 97.5807 262.015C97.3223 262.275 96.7951 262.461 96.5057 262.741C96.3816 262.856 96.2679 262.98 96.1439 263.105C95.4616 263.758 94.7794 264.173 94.3452 264.546C93.7146 265.096 93.3632 265.947 92.9083 266.714C92.7223 267.026 92.1744 267.7 91.9366 268.011C91.9056 268.063 91.8746 268.115 91.8333 268.167C91.8023 268.25 91.8333 268.405 91.8333 268.53C92.9497 269.567 93.1048 267.223 93.2805 267.098C93.6836 266.818 94.6967 267.482 95.0688 267.814L95.8958 267.658C96.2783 268.291 96.7124 268.841 97.1983 269.318C96.9708 268.685 97.3843 267.897 98.3043 268.167ZM45.2644 190.721C45.2644 190.721 45.2954 190.7 45.3057 190.69V190.669C45.3057 190.669 45.2747 190.7 45.2644 190.721ZM138.94 235.969C138.94 235.969 138.847 236.01 138.795 236.041C138.96 236.02 139.136 236 139.343 236.01L138.94 235.969ZM68.4196 261.621C68.3989 261.725 68.3989 261.849 68.4196 262.026C68.4196 261.891 68.4196 261.756 68.4196 261.621ZM45.7192 234.278V234.298C45.7192 234.319 45.7192 234.33 45.7192 234.35C45.7295 234.319 45.7502 234.298 45.7606 234.278C45.7502 234.278 45.7295 234.278 45.7192 234.278ZM84.6179 204.932C84.6179 204.932 84.6386 204.922 84.6386 204.912C84.6386 204.912 84.6386 204.912 84.6283 204.912V204.943L84.6179 204.932ZM123.32 175.67H123.145C123.145 175.67 123.258 175.68 123.32 175.67ZM100.878 276.963C100.878 276.963 100.837 276.88 100.816 276.838C100.816 276.88 100.847 276.921 100.878 276.963ZM47.1767 280.459C47.1767 280.459 47.1767 280.583 47.1974 280.739C47.2284 280.635 47.2594 280.531 47.3008 280.428C47.2388 280.428 47.1871 280.448 47.1767 280.459ZM45.0163 281.538C45.2644 281.61 45.4918 281.662 45.6985 281.683C45.6158 281.527 45.4194 281.434 45.0163 281.538ZM52.3763 240.802C52.428 240.802 52.5004 240.771 52.5831 240.699C52.5211 240.699 52.459 240.751 52.3763 240.802ZM157.588 257.617C157.588 257.545 157.578 257.472 157.578 257.389C157.516 257.524 157.443 257.628 157.35 257.69C157.454 257.638 157.536 257.617 157.598 257.617H157.588ZM113.417 290.572C113.645 290.448 113.82 290.396 113.924 290.406C113.924 290.209 113.758 290.261 113.417 290.572ZM42.1529 286.517C42.1529 286.517 42.1012 286.558 42.0805 286.589C42.0909 286.589 42.1115 286.589 42.1219 286.589C42.1219 286.589 42.1219 286.589 42.1322 286.589C42.1322 286.568 42.1425 286.548 42.1529 286.527V286.517ZM53.6581 245.761C53.7512 245.781 53.9269 245.781 54.0199 245.761C53.9579 245.439 54.0613 245.024 54.0199 244.682L53.3687 245.335C53.4824 245.47 53.5858 245.616 53.6581 245.761ZM71.2933 198.065C71.3967 198.107 71.5518 198.024 71.6551 198.065C71.6138 197.951 71.6035 197.858 71.6035 197.764C71.5208 197.889 71.4174 198.003 71.2933 198.065ZM150.259 153.814C150.259 153.814 150.176 153.907 150.135 153.99C150.176 153.938 150.218 153.886 150.259 153.814ZM155.82 154.208C155.841 154.135 155.872 154.063 155.903 153.99C155.862 154.063 155.841 154.135 155.82 154.208ZM164.659 141.044C164.71 140.993 164.731 140.92 164.7 140.837C164.69 140.899 164.679 140.972 164.659 141.044ZM152.306 159.042H152.667C152.554 159.042 152.409 159.021 152.306 159.042ZM137.71 161.552C137.71 161.552 137.761 161.459 137.792 161.407C137.751 161.448 137.71 161.469 137.668 161.438C137.689 161.479 137.699 161.521 137.71 161.552ZM141.483 159.612C141.483 159.612 141.421 159.643 141.39 159.664L141.493 159.768C141.493 159.716 141.493 159.664 141.493 159.612H141.483Z" fill="#FFE3C9" fill-opacity="0.8"/>
<path d="M88.5775 214.499C88.319 214.313 87.1923 214.707 87.1406 214.852C86.9442 215.402 88.4431 216.19 88.5775 214.499Z" fill="#FFE3C9"/>
<path d="M149.246 212.694C149.99 212.694 150.052 212.176 150.145 211.605L149.784 210.526C149.246 210.599 149.101 211.149 149.07 211.605C149.184 211.885 148.843 212.694 149.256 212.694H149.246Z" fill="#FFE3C9"/>
<path d="M48.7781 220.194C48.7161 220.205 48.6644 220.225 48.623 220.277C48.6747 220.246 48.7264 220.225 48.7781 220.194Z" fill="#FFE3C9"/>
</g>
<defs>
<clipPath id="clip0_38_1103">
<rect width="172" height="181" fill="white" transform="translate(20 118.714)"/>
</clipPath>
</defs>
</svg>
