<svg width="26" height="20" viewBox="0 0 26 20" fill="none" xmlns="http://www.w3.org/2000/svg">
<path d="M25.1367 14.0684C25.0555 14.0473 24.9532 14.0684 24.9215 13.9487C24.9144 13.9276 24.9497 13.5754 24.9603 13.5366C24.9709 13.4979 25.0132 13.4662 25.0485 13.4486C25.0626 13.4415 25.0838 13.4556 25.0943 13.4486C25.1049 13.4415 25.1296 13.4556 25.1402 13.4486C25.1614 13.3993 25.1755 13.3535 25.179 13.3042C25.1896 13.3042 25.2037 13.2971 25.2284 13.269C25.2284 13.2549 25.2284 13.2373 25.2284 13.2232C25.2884 13.1985 25.2672 13.1387 25.2743 13.0893C25.239 13.0259 25.239 12.9661 25.2743 12.9132C25.2743 12.8393 25.2778 12.7653 25.2743 12.6914C25.2707 12.6033 25.2849 12.5082 25.2743 12.4237C25.2707 12.3779 25.2425 12.2582 25.2284 12.2018C25.2072 12.1032 25.2249 12.0187 25.1402 11.9341C25.1296 11.9236 25.0696 11.9201 25.052 11.8884C25.0802 11.8637 25.0802 11.8144 25.0485 11.744C25.1367 11.6665 25.1543 11.5362 25.0979 11.353C25.0873 11.3389 25.0591 11.3284 25.052 11.3072C25.1296 11.2791 25.1437 11.2122 25.052 11.2192C25.0026 11.1593 24.9603 11.1135 24.9179 11.0854C24.992 10.955 24.9991 10.4972 24.8968 10.4162C24.8262 10.3563 24.5158 10.3105 24.9179 10.2859L24.8297 10.0182C24.8721 9.82451 24.8615 9.67658 24.8756 9.4864C24.8791 9.40539 24.9215 9.07785 24.9109 9.01094C24.8897 8.88415 24.7486 8.88415 24.9215 8.84188C24.8474 8.73975 24.8474 8.70101 24.8756 8.59535C24.9638 8.64113 24.9426 8.539 24.9215 8.46151C24.9144 8.44743 24.8862 8.43334 24.8756 8.41573L24.7874 8.14806C24.7557 8.11989 24.7133 8.11636 24.6992 8.06001C24.738 8.03888 24.738 8.02479 24.6992 8.01423C24.6816 7.93675 24.6604 7.90505 24.6287 7.91561C24.6745 7.88744 24.6957 7.85926 24.6992 7.79235C24.6957 7.7536 24.7098 7.68669 24.6992 7.65851C24.2688 7.83109 24.5898 7.42959 24.3429 7.39084C24.3429 7.37676 24.3429 7.35563 24.3429 7.34506C24.3217 7.34154 24.3041 7.32041 24.297 7.29927C24.2864 7.30632 24.2194 7.29575 24.1877 7.34506C24.1559 7.39084 24.1841 7.46481 24.1418 7.47889C24.0642 7.50002 24.0677 7.39789 24.0324 7.29927C24.036 7.30984 24.0324 7.32745 24.0324 7.34506V7.29927C24.0113 7.24645 24.0254 7.18657 23.9442 7.16544C23.9301 7.17601 23.8454 7.1584 23.8102 7.16544C23.7608 7.1267 23.7114 7.14783 23.722 7.21123C23.7114 7.21123 23.6902 7.21123 23.6761 7.21123C23.722 7.09852 23.6267 7.11613 23.542 7.16544C23.5138 7.16544 23.4785 7.16896 23.4538 7.16544C23.3939 7.43663 23.0552 7.26053 22.8964 7.25349C22.7553 7.24645 22.6212 7.23588 22.4907 7.22531C22.2296 7.21123 21.7005 7.25349 21.4958 7.2077C21.4747 7.20418 21.4429 7.16544 21.4288 7.16544C21.3724 7.17601 21.3794 7.29575 21.3406 7.29575C21.2665 7.12318 21.2665 7.20418 21.1854 7.2077C21.1571 7.17601 21.1254 7.14783 21.0972 7.11966C21.0831 7.10557 21.0689 7.08796 21.0513 7.07387C20.8396 7.04569 20.6315 7.014 20.4269 6.98582C20.2716 6.96469 20.1058 6.78155 19.9012 6.77098C19.7883 6.76394 19.7777 6.82733 19.7142 6.85199C19.5308 6.92243 19.5943 6.78155 19.3826 6.76394L19.3614 6.85199C19.3614 6.85199 19.3332 6.85199 19.3156 6.85199L19.2027 6.71815C19.1885 6.81325 18.991 6.85551 18.9134 6.85199C18.864 6.85199 18.7017 6.7569 18.6276 6.76042C18.5994 6.76042 18.6029 6.85199 18.5782 6.85199C18.5182 6.85551 18.4053 6.77451 18.3348 6.76042C18.2431 6.74281 18.1231 6.78859 18.0243 6.71463C17.9926 6.79212 18.0667 6.89073 18.0667 6.93651C17.8479 6.94004 17.9785 6.89073 17.9255 6.81677C17.8338 6.68646 17.6751 6.83086 17.6468 6.83438C17.6186 6.83438 17.5692 6.76394 17.5092 6.76042C17.4634 6.7569 17.1917 6.83086 17.2235 6.94004C17.1811 6.94004 17.1353 6.94004 17.0894 6.94004C16.7754 6.92243 16.4367 6.91538 16.1086 6.89425C15.9922 6.88721 15.8582 6.81677 15.7276 6.80268C15.6641 6.79564 15.329 6.79916 15.3078 6.89425C15.2796 6.89425 15.2478 6.89425 15.2196 6.89425C15.0679 6.7569 14.761 6.84847 14.5634 6.87664C14.5175 6.87664 14.4717 6.87664 14.4258 6.87664C14.3905 6.85551 14.387 6.78155 14.3658 6.76746C14.2706 6.70759 14.1789 6.82733 14.1259 6.83086C14.0271 6.8379 13.946 6.83086 13.7943 6.84847C13.7767 6.75337 13.1875 6.70759 13.1557 6.71815C13.124 6.7252 13.1028 6.84494 13.0146 6.83438C12.9476 6.82381 12.7959 6.6935 12.6124 6.67237C12.4995 6.65828 11.6034 6.68293 11.5223 6.71815C11.2471 6.64772 11.2048 6.76746 11.1483 6.7569C11.106 6.74985 11.0707 6.66885 11.0319 6.65124C10.9225 6.60545 10.224 6.65828 10.0547 6.67237C9.62073 6.71111 9.14446 6.83086 8.7211 6.84847C8.63291 6.85199 8.53412 6.84847 8.52001 6.76042C8.47415 6.97526 8.19191 6.77451 8.07902 6.80972C8.01904 6.82733 8.02257 6.93651 7.98023 6.94356C7.77914 6.97526 7.5216 6.66532 7.47574 6.98582C7.41576 6.99991 7.42635 6.92595 7.38754 6.89777C7.16175 6.71815 7.29228 6.91538 7.18997 6.93299C7.16175 6.93651 7.07708 6.89073 7.01005 6.89425C6.78073 6.91186 6.58669 6.95765 6.36443 6.98582C6.35032 6.98582 6.33621 6.98582 6.31857 6.98582C6.21978 6.99991 6.20215 7.01752 6.14217 7.03161C6.10689 6.98582 5.9058 6.93299 5.8564 6.94004C5.82465 6.94356 5.83171 7.03161 5.80349 7.03513C5.65178 7.03865 5.70823 6.90834 5.53889 7.16544C5.47539 6.96469 5.22843 7.14431 5.0732 7.11966C4.95325 7.08444 4.89327 7.11261 4.79096 7.10557C4.64279 7.09148 4.60751 6.96117 4.49462 7.16544C4.33939 7.03161 4.31469 7.14431 4.20179 7.16544C4.13476 7.17601 4.06068 7.1584 4.00423 7.16544C3.65143 7.03865 3.80666 7.14079 3.69377 7.16544C3.61968 6.99287 3.44328 7.11966 3.31981 7.11613C3.15399 7.11261 2.9282 7.04569 2.75533 7.095C2.64244 7.1267 2.68125 7.28871 2.44487 7.16544C2.42723 7.15487 2.41665 7.13374 2.39901 7.11966C2.25084 7.00343 2.08855 7.05626 1.90862 7.07387C1.91568 7.02456 2.01093 6.92947 1.86276 6.89777C1.64755 6.84847 1.66519 7.01752 1.57347 7.05978C1.55583 7.06683 1.23831 7.07035 1.21362 7.07035C1.14659 7.06683 1.10425 6.99639 1.08308 6.99639C1.0478 6.99639 1.00547 7.09852 0.945492 7.10909C0.899629 7.11613 0.81143 7.05626 0.79379 7.07387C0.786734 7.08091 0.807902 7.15487 0.783206 7.19362C0.75851 7.22531 0.695007 7.23236 0.680895 7.24997C0.659728 7.27814 0.807902 7.61273 0.843181 7.7043C0.892573 7.82757 0.920796 7.7536 0.927852 8.00718C0.896101 8.00718 0.77615 7.9297 0.705591 7.9614C0.663256 8.11989 0.846709 8.02127 0.885517 8.04945C0.874933 8.11284 0.850237 8.21498 0.885517 8.27133C1.00547 8.46504 1.01252 8.23611 1.01958 8.22554C1.03369 8.23963 1.05133 8.25372 1.06544 8.27133C1.07955 8.28542 1.10778 8.31007 1.11131 8.31712C1.11483 8.32768 1.11131 8.34529 1.11131 8.3629C1.05486 8.38403 0.81143 8.39812 0.800846 8.40869C0.786734 8.42277 0.871405 8.61296 0.846709 8.67635L0.737343 8.5883C0.652672 8.64466 0.673839 8.72566 0.670311 8.81019C0.670311 8.83836 0.670311 8.87006 0.670311 8.89824C0.719703 9.00037 0.754982 9.10955 0.779678 9.22225L0.850237 9.20817C0.839653 9.23634 0.825541 9.27861 0.814958 9.31735C0.814958 9.32439 0.807902 9.33143 0.807902 9.342C0.790262 9.39483 0.77615 9.39835 0.762038 9.47583C0.733815 9.64489 0.772622 9.6308 0.716175 9.83155C0.691479 9.92312 0.716175 9.95834 0.716175 9.96538C0.698535 10.0922 0.762038 10.1309 0.850237 10.0534C0.839653 10.0675 0.814958 10.1203 0.804374 10.1415C0.624448 10.0288 0.754982 10.1837 0.75851 10.2295C0.772622 10.3951 0.719703 10.5078 0.712647 10.631V10.6768C0.712647 10.6768 0.712647 10.705 0.712647 10.7226C0.705591 10.8987 0.673839 11.0255 0.712647 11.2122C0.663256 11.272 0.677367 11.346 0.75851 11.434C0.769094 11.4411 0.79379 11.427 0.804374 11.434C0.829069 11.4516 0.864349 11.4622 0.892573 11.4798C0.892573 11.4939 0.892573 11.5115 0.892573 11.5256C0.878461 11.582 0.779678 11.6594 0.804374 11.7475L0.980772 11.6594C0.984299 11.7087 0.970188 11.7616 0.980772 11.8074C0.994883 11.8637 1.09014 11.8074 1.06897 11.8813C0.973716 11.8919 0.889045 11.9412 0.800846 11.9694C0.804374 11.9975 0.79379 12.0363 0.800846 12.0574C0.839653 12.1877 0.980772 12.2582 0.977244 12.4131C0.970188 12.4237 0.984299 12.4448 0.977244 12.4589C0.945492 12.5258 0.896101 12.5012 0.977244 12.5928C1.00547 12.6244 1.06544 12.628 1.06544 12.6597C1.06191 12.6949 0.994883 12.6949 0.977244 12.7266C0.903157 12.8499 0.896101 12.871 0.93138 12.9943C0.945492 13.0365 0.96666 13.0576 0.977244 13.0823C1.01605 13.188 1.00194 13.1527 0.93138 13.2584C0.998411 13.2478 1.21009 13.357 1.15364 13.4345C1.09719 13.512 0.804374 13.4345 0.973716 13.8783L0.885517 13.8325C0.836125 13.924 0.860821 14.0684 0.839653 14.1424C0.839653 14.153 0.765566 14.1635 0.751454 14.3185C0.730287 14.5369 0.853765 14.4699 0.843181 14.6073C0.836125 14.6918 0.504498 14.8785 0.839653 14.8292C0.804374 14.8714 0.737343 14.8961 0.705591 14.9419C0.677367 14.9841 0.680895 15.0546 0.659728 15.118C0.624448 15.2342 0.525665 15.3328 0.613864 15.4737C0.592696 15.4878 0.486858 15.4455 0.476274 15.4984C0.451578 15.6498 0.536249 16.0126 0.522137 16.2309C0.522137 16.2802 0.522137 16.4 0.522137 16.407C0.532721 16.5162 0.652672 16.7134 0.744399 16.5831C0.75851 16.5831 0.772622 16.5831 0.790262 16.5831C0.832597 16.5866 0.878461 16.5796 0.924324 16.5831L0.702063 16.7839L0.790262 16.805C0.645616 16.9459 0.77615 16.967 0.836125 17.1149C0.850237 17.129 0.867877 17.1431 0.881989 17.1607C0.973716 17.2628 1.12189 17.5129 1.19245 17.5622C1.20303 17.5693 1.25242 17.5481 1.27359 17.5693C1.29476 17.5904 1.27359 17.6397 1.28065 17.6503C1.4006 17.763 1.46057 17.5305 1.54524 17.6045C1.56641 17.6221 1.50996 17.8052 1.70047 17.7806C1.77103 17.77 1.58758 17.6115 1.76751 17.6467C1.78515 17.682 1.78515 17.7348 1.81337 17.7806C1.84512 17.8299 1.85923 17.8369 1.90157 17.8686V18.0025C1.98271 18.0236 1.97213 17.9813 1.98977 17.9567C2.02152 17.9214 2.04269 17.777 2.03563 17.7348H2.08149C2.10619 17.7841 2.145 17.8897 2.19439 17.9109C2.31081 17.9637 2.21556 17.7594 2.30375 17.777C2.32139 17.8475 2.32492 18.0623 2.39195 18.087C2.42018 18.0975 2.48368 18.0799 2.52602 18.087C2.54013 18.087 2.55424 18.087 2.57188 18.087C2.75533 18.1011 3.17516 18.0236 3.30569 18.0623C3.3692 18.0835 3.41859 18.1715 3.46092 18.175C3.47856 18.175 3.79961 18.1363 3.81372 18.1257C3.83136 18.1116 3.81019 18.0553 3.81372 18.0412C3.82078 18.0236 3.85253 18.013 3.85958 17.9954C3.95484 18.1891 4.15946 18.0412 4.31469 18.0025C4.32175 18.0025 4.33233 18.0025 4.34997 17.9954C4.3923 17.9884 4.4417 17.9989 4.48403 17.9954C4.51225 18.0165 4.61104 18.0553 4.66043 18.0835C4.66748 18.087 4.66748 18.1469 4.72393 18.1539C4.78391 18.1645 5.47891 18.168 5.52125 18.1609C5.58123 18.1504 5.62356 18.0482 5.68354 18.0377C5.69059 18.0377 5.81054 18.0377 5.8176 18.0377C5.84582 18.0377 5.87757 18.0377 5.9058 18.0377C5.92696 18.0482 5.94108 18.0518 5.95519 18.0518C6.03633 18.0835 6.1457 18.1469 6.17392 17.9496H6.21626C6.19509 18.1328 6.33621 17.9919 6.35032 17.9954C6.61492 18.0271 6.74898 18.0447 7.0171 18.0412C7.07002 18.0412 7.09119 18.0553 7.1935 18.0412C7.29581 18.2384 7.56394 18.0518 7.71564 18.0518C7.77208 18.0518 7.81089 18.1116 7.83912 18.1116C7.89204 18.1116 8.21308 18.0095 8.29069 18.0025C8.36478 17.9954 8.41417 18.1046 8.43887 18.0835C8.45298 18.0694 8.40359 17.9743 8.48473 17.9954L8.53059 18.0835C8.50237 17.844 8.61527 17.9954 8.73522 17.9919C8.94689 17.9848 9.17268 17.9461 9.33144 17.9074C9.39142 17.8933 9.48667 17.9179 9.5537 17.9074C9.56429 17.9003 9.47256 17.7735 9.4655 17.7313C9.64896 17.608 9.58193 17.9355 9.59957 17.9531C9.61368 17.9672 9.94531 17.9848 9.95589 17.8651C9.97 17.8651 9.98411 17.8651 10.0018 17.8651C10.1993 18.006 10.4992 17.9496 10.2699 17.7313C10.2769 17.7066 10.2593 17.6503 10.2699 17.6432C10.2805 17.6326 10.4498 17.763 10.538 17.689C10.4463 17.763 10.4498 17.8862 10.5662 17.9074C10.6121 17.9144 10.6756 17.8334 10.7603 17.8228C10.7673 17.8228 10.7991 17.8404 10.8943 17.8228C10.9225 17.8193 10.9543 17.8264 10.9825 17.8228C11.1413 17.9848 11.293 17.8792 11.4729 17.8686C11.4588 18.0095 11.4976 17.925 11.5364 17.9391C11.6528 17.9848 11.7093 18.0623 11.7375 17.8686C12.0303 17.8968 12.1573 17.9144 12.4502 17.9144C12.4925 17.9144 12.5419 17.9109 12.5842 17.9144C12.7394 17.932 12.5736 17.9813 12.8065 17.9602C12.8206 17.9602 12.8418 17.9602 12.8523 17.9602C12.8594 17.9602 12.8806 18.0201 12.9864 18.0482C13.0958 18.0799 13.1769 18.1152 13.2969 18.0905V17.9567C13.3498 18.0236 13.445 18.1011 13.5368 18.0905C13.5862 18.087 13.6214 17.8123 13.6991 18.0905C13.7343 18.1152 13.8543 17.925 13.9037 17.9144C13.9742 17.9003 13.9954 17.9919 14.0095 18.0025L13.8754 18.1363C14.1295 18.0306 14.26 18.2948 14.387 18.3159C14.4928 18.3335 14.4399 18.2772 14.454 18.2243C14.4576 18.2032 14.4787 18.1856 14.4999 18.1785C14.6163 18.3863 14.8668 18.2419 15.0785 18.2666C15.1032 18.2666 15.1561 18.33 15.1667 18.3124C15.1737 18.1926 15.1949 18.1504 15.0785 18.1116C15.1032 18.0835 15.1632 18.0341 15.1667 17.9989C15.0361 18.0201 15.0573 17.8616 15.0785 17.7313C15.1208 17.7313 15.1737 17.9637 15.1667 17.9989C15.1949 17.9954 15.2408 17.9461 15.276 17.9531C15.3854 17.9743 15.2655 18.1328 15.3219 18.1328C15.4771 18.1257 15.329 17.9778 15.4771 17.9989C15.4842 17.9989 15.4771 18.0658 15.5653 18.0447C15.5653 17.9848 15.5442 17.9426 15.6112 17.9567V18.0447C15.6147 18.0729 15.6077 18.1081 15.6112 18.1328C15.643 18.3089 15.6853 18.2384 15.8335 18.2208C15.9322 18.2701 16.0416 18.3159 16.1228 18.3969C16.211 18.3406 15.9711 18.2243 16.1228 18.175C16.1545 18.1645 16.1333 18.2384 16.1757 18.2666C16.2074 18.2877 16.2498 18.2912 16.278 18.3089C16.338 18.3476 16.4297 18.4462 16.4403 18.4427C16.4756 18.4427 16.4932 18.3969 16.5002 18.3969C16.5602 18.3969 16.6202 18.3969 16.6766 18.3969C16.8848 18.3969 16.8354 18.4286 17.0788 18.3511C17.1776 18.4392 17.294 18.3723 17.3893 18.3053L17.414 18.3476C17.4881 18.3652 17.5234 18.3406 17.5657 18.2842C17.5586 18.2596 17.5234 18.2314 17.5234 18.2173C17.5234 18.2032 17.5234 18.1891 17.5234 18.1715C17.6116 18.2243 17.7491 18.1645 17.8091 18.1715C17.8373 18.175 17.9961 18.256 18.1937 18.2596C18.3489 18.4814 18.4512 18.2314 18.4865 18.2208C18.5323 18.2102 18.6205 18.2772 18.6841 18.2596C18.5994 18.1222 18.7017 18.1926 18.7299 18.1715C18.8887 18.3053 19.1921 18.0447 19.2203 18.3476C19.1709 18.3899 18.9875 18.2384 19.0439 18.5237C18.924 18.4955 18.931 18.4392 18.8887 18.5695C18.864 18.4709 18.4371 18.4286 18.5535 18.6153C18.5077 18.6117 18.296 18.58 18.2854 18.5695C18.2748 18.5624 18.3242 18.4392 18.1972 18.4814V18.6611C18.0772 18.6681 17.9926 18.5448 17.9291 18.7068C17.922 18.6611 17.9114 18.6751 17.8832 18.6611L17.481 18.5272C17.4599 18.5448 17.5727 18.5695 17.5269 18.7033C17.3575 18.4427 17.4316 18.6751 17.3293 18.6575C17.1988 18.5061 17.0153 18.492 16.8601 18.6575C16.8072 18.6575 16.6661 18.5624 16.6378 18.6787C16.6202 18.7526 16.7119 18.7949 16.7719 18.7878C16.719 18.8055 16.6731 18.8442 16.6026 18.8407C16.5884 18.8336 16.5708 18.8301 16.5496 18.8301C16.5108 18.7738 16.5002 18.7984 16.4614 18.7843V18.7385C16.5144 18.499 16.091 18.573 15.9287 18.5624C15.7982 18.5519 15.2796 18.5096 15.2125 18.5413C15.1878 18.5519 15.1773 18.5836 15.1702 18.6082C15.142 18.6047 15.1102 18.5695 15.082 18.5624C14.9797 18.5378 14.9091 18.4462 14.8386 18.5871C14.8174 18.5871 14.7962 18.5977 14.7715 18.6047C14.7116 18.5906 14.6657 18.58 14.5952 18.5589C14.5881 18.5589 14.5846 18.5554 14.5775 18.5519C14.5211 18.5237 14.4752 18.4603 14.4188 18.6047C14.4046 18.6012 14.387 18.6082 14.3729 18.6047C14.1295 18.5378 14.2282 18.573 14.2035 18.6329C14.2035 18.6364 14.1965 18.6434 14.193 18.6505C14.1718 18.6787 14.0977 18.6963 14.0589 18.6963C14.1012 18.5695 13.8966 18.6294 13.7484 18.6082C13.6849 18.5977 13.6285 18.573 13.5262 18.5624C13.318 18.5448 13.1875 18.5977 12.9688 18.5167C12.8559 18.5343 12.2173 18.6223 12.1891 18.654C12.1362 18.7104 12.1503 18.7843 12.1432 18.7878C12.1079 18.8195 12.0197 18.7209 11.9668 18.7139C11.8716 18.6998 11.5435 18.7914 11.5223 18.7878C11.5117 18.7878 11.4659 18.6963 11.3565 18.6611C11.3 18.6434 11.1025 18.6082 11.0566 18.6153C10.8555 18.6505 10.8873 18.8477 10.725 18.6082C10.7462 18.9287 10.284 18.6681 10.0582 18.7421C9.97353 18.735 9.88533 18.6188 9.79008 18.566C9.87475 18.3863 9.39494 18.2842 9.34555 18.4321C9.3385 18.4321 9.3385 18.492 9.29969 18.4568C9.05273 18.2208 8.5306 18.3406 8.16369 18.3441C7.75092 18.3441 7.47574 18.3546 7.05238 18.3863C6.9783 18.3934 6.86893 18.3687 6.98535 18.4744C6.97829 18.4885 6.99241 18.5378 6.98535 18.5624C6.81601 18.3863 6.84423 18.485 6.74192 18.4955C6.71723 18.4955 6.69606 18.499 6.67489 18.5026C6.66431 18.4955 6.65372 18.4955 6.63961 18.5061C6.50555 18.5237 6.53024 18.5484 6.3609 18.6082C6.3221 18.4075 6.2092 18.4885 6.05044 18.4744C6.03633 18.4744 6.02222 18.4744 6.00458 18.4744C5.66942 18.4568 5.64826 18.5096 5.38013 18.5624C5.17904 18.6012 5.28135 18.6892 5.23549 18.8407C5.22137 18.89 5.18257 18.9428 5.15787 19.0062C4.99911 18.9463 5.16845 18.8125 5.15081 18.6822C5.11201 18.4216 4.94267 18.5977 4.78038 18.6082C4.49461 18.6258 4.17004 18.5941 3.87017 18.6082C3.59851 18.6188 3.53501 18.5765 3.27041 18.6963C3.2563 18.7033 3.2175 18.5554 2.99876 18.566C2.95643 18.566 2.93879 18.6047 2.93526 18.6047C2.85059 18.6117 2.69889 18.6258 2.6248 18.6505C2.61774 18.6329 2.63538 18.5941 2.61421 18.573C2.58599 18.5448 2.52954 18.5378 2.49074 18.5202C2.38843 18.4709 2.28611 18.4356 2.18028 18.3863C2.14147 18.3687 2.09913 18.2948 2.04974 18.2807C1.9439 18.2525 1.55936 18.3053 1.47821 18.2455C1.40413 18.1891 1.40765 17.9074 1.37943 17.8087C1.31593 17.8087 1.28065 17.7559 1.2242 17.7418C1.19598 17.7348 1.14659 17.7665 1.12189 17.7665C1.12189 17.7665 1.11836 17.763 1.11483 17.7594C1.11836 17.7453 1.15364 17.6855 1.11836 17.6503C1.0478 17.5833 0.959604 17.6326 0.896101 17.6045C0.843181 17.5833 0.783206 17.4495 0.719703 17.4988C0.705591 17.5094 0.723231 17.5763 0.719703 17.5833C0.705591 17.5763 0.698535 17.5798 0.687951 17.5833C0.677367 17.5833 0.663256 17.5833 0.649144 17.5833C0.642088 17.5833 0.635032 17.5833 0.627976 17.5833C0.553889 17.4143 0.46569 17.4706 0.359851 17.7594C0.31046 17.777 0.222261 17.8193 0.183454 17.8475C0.148174 17.9461 0.0881989 18.0412 0 18.1328C0.0846709 18.2596 0.169342 18.3969 0.250485 18.5448L0.342212 18.5519C0.338684 18.8231 0.433938 18.9745 0.627976 19.0027C0.737343 19.1048 0.79379 19.1189 0.804374 19.0485C0.956076 19.1224 1.20303 19.5098 1.41824 19.6542C1.53819 19.7352 1.75692 19.8127 1.88393 19.8479C1.91921 19.8585 1.91921 19.9043 1.91568 19.936C1.94743 19.9607 1.98624 19.862 2.00388 19.8479C2.01446 19.8374 2.01446 19.8057 2.04974 19.8022L2.1838 19.936C2.21908 19.9219 2.34962 19.8479 2.3602 19.8233L2.272 19.7564C2.45546 19.7176 2.38137 19.8162 2.4484 19.9113C2.53307 20.0311 2.58952 20.0029 2.71653 19.9783C2.76592 19.9677 2.84 19.9466 2.89292 19.9325L2.96348 19.9043C3.09402 19.936 3.32333 19.9606 3.20338 19.7986C3.2563 19.8691 3.29158 19.8303 3.33745 19.8444C3.51737 19.8973 3.51384 19.8339 3.54559 19.8092C3.54912 19.8092 3.55618 19.8057 3.55971 19.8022C3.58087 19.7951 3.61968 19.8022 3.64791 19.8022H3.7361C3.80314 19.7669 3.79961 19.8022 3.9125 19.7141C3.99365 19.6965 4.08537 19.6895 4.18415 19.693C4.30411 19.7634 4.39936 19.7212 4.35702 19.5803C4.37114 19.5873 4.38525 19.6155 4.40289 19.6261C4.54401 19.7176 4.54401 19.6261 4.57929 19.6261C4.56165 19.7282 4.57929 19.7775 4.66396 19.7035L4.75216 19.7916C4.94972 19.7846 5.12965 19.8198 5.29193 19.8937C5.3378 19.8937 5.38013 19.8937 5.426 19.8937C5.53889 19.8585 5.54595 19.8198 5.426 19.8057C5.45422 19.7951 5.48597 19.774 5.51419 19.7599C5.52478 19.7669 5.54595 19.7529 5.56006 19.7599C5.7929 19.862 5.69765 19.6472 5.76115 19.6261C5.8176 19.6085 5.86346 19.7141 5.91638 19.7599C5.97283 19.8092 6.03986 19.8374 6.09278 19.8937C6.13159 19.8937 6.16334 19.8937 6.18098 19.8937C6.37854 19.9008 6.59022 19.929 6.80543 19.9395C6.89362 19.9395 6.9536 19.9254 6.98182 19.8937C7.0418 19.8937 7.10177 19.8937 7.15822 19.8937C7.27464 19.936 7.39459 19.9254 7.51454 19.8937C7.53218 19.8867 7.59922 19.8515 7.60274 19.8479C7.6098 19.8409 7.60274 19.7705 7.64861 19.7599C7.73681 19.7599 8.11077 19.7564 8.13899 19.7141C8.15663 19.6895 8.07902 19.5908 8.09313 19.5803C8.10371 19.5732 8.16369 19.5944 8.18838 19.5803C8.22719 19.5556 8.23425 19.4958 8.24483 19.4958C8.25541 19.4958 8.26247 19.538 8.26953 19.538L8.35773 19.6261C8.35773 19.6261 8.28011 19.693 8.22366 19.6719V19.7141C8.32597 19.7141 8.43181 19.7176 8.53412 19.7141C8.63996 19.7106 8.71052 19.6719 8.75638 19.6683C8.7705 19.6683 8.78461 19.6683 8.80225 19.6683C8.9222 19.6578 9.06684 19.6296 9.15857 19.6225C9.24677 19.6155 9.3385 19.6261 9.4267 19.6225C9.44081 19.6225 9.45492 19.6225 9.47256 19.6225C9.50784 19.6965 9.54312 19.7035 9.56076 19.6225C9.58898 19.6225 9.62073 19.6225 9.64896 19.6225L9.7301 19.6965C9.81477 19.6472 9.89239 19.6366 9.96295 19.6683C9.98411 19.6683 10.1711 19.6683 10.1852 19.6683C10.2805 19.6613 10.3052 19.6472 10.2311 19.5803C10.2487 19.5662 10.2981 19.5415 10.3193 19.5345C10.3545 19.5521 10.4251 19.6578 10.5204 19.6683C10.5415 19.6683 10.5204 19.5768 10.605 19.5732C10.7038 19.5732 10.9543 19.6472 11.046 19.6225C11.0884 19.612 11.0672 19.5415 11.0743 19.5345C11.0954 19.5204 11.166 19.6085 11.2083 19.6225C11.2013 19.6472 11.2118 19.6824 11.2083 19.7106C11.233 19.7176 11.2612 19.7423 11.2965 19.7564C11.3635 19.6613 11.4905 19.7423 11.5787 19.7423C11.6987 19.7423 11.8822 19.7634 11.9386 19.7599C11.9562 19.7599 12.1009 19.6507 12.2596 19.6366C12.3902 19.6261 12.4819 19.7669 12.4537 19.5345C12.4678 19.5345 12.4854 19.5345 12.4995 19.5345C12.5807 19.5486 12.5736 19.5697 12.7218 19.5803C12.75 19.5803 12.7818 19.5803 12.81 19.5803C12.8135 19.5803 12.8347 19.6225 12.8982 19.6085C12.9723 19.5908 12.9723 19.5275 13.004 19.5063C13.0958 19.4429 13.1628 19.5732 13.0781 19.3161C13.0922 19.2985 13.1487 19.3619 13.1663 19.3619C13.1734 19.3866 13.2122 19.4324 13.2122 19.45C13.2122 19.4711 13.1487 19.5275 13.1663 19.538L13.3886 19.4958C13.3886 19.4958 13.3815 19.531 13.3886 19.5415C13.4556 19.6613 13.5121 19.6542 13.6109 19.6754C13.625 19.6754 13.6391 19.6754 13.6567 19.6754C13.7802 19.6895 13.7696 19.6824 13.879 19.6754C14.0025 19.6402 14.0871 19.6085 14.1894 19.5415C14.2353 19.5838 14.26 19.6085 14.3235 19.6296C14.5387 19.4676 14.8386 19.7705 14.9479 19.4535C14.9621 19.4605 14.9797 19.45 14.9938 19.4535C14.9233 19.5345 14.9726 19.5768 15.0608 19.5873C15.1737 19.6014 15.0891 19.4817 15.1702 19.4993C15.1561 19.693 15.2655 19.5239 15.3254 19.5204C15.3678 19.5169 15.4101 19.5486 15.4348 19.5451C15.5159 19.538 15.6006 19.5028 15.6112 19.4993C15.6324 19.4993 15.6994 19.5556 15.7453 19.5451L15.8335 19.369C15.8582 19.4464 15.7664 19.6366 15.9005 19.6366C15.9464 19.6366 15.9005 19.5345 15.9675 19.5028C15.9746 19.5028 15.9852 19.5028 15.9957 19.5028H15.9675L15.9569 19.6296C16.1439 19.6683 16.3238 19.6719 16.5038 19.6366C16.5179 19.6296 16.532 19.6014 16.5496 19.5908C16.6696 19.6296 16.786 19.6155 16.906 19.5451C16.9201 19.5451 16.9377 19.5451 16.9518 19.5451C16.9695 19.5873 16.9977 19.6155 17.04 19.6331C17.0541 19.6331 17.0682 19.6331 17.0859 19.6331L17.3963 19.5451C17.4316 19.5486 17.5092 19.5662 17.5304 19.5908C17.5622 19.6261 17.8726 19.457 17.9326 19.457C17.9326 19.538 18.0102 19.5662 18.1549 19.5451C18.1584 19.5451 18.1796 19.5134 18.2431 19.4993C18.2501 19.4993 18.3736 19.4993 18.4195 19.4993C18.4759 19.4993 18.5641 19.5415 18.5994 19.5239C18.6382 19.5028 18.6629 19.4112 18.6876 19.369C18.7087 19.3337 18.737 19.2281 18.7546 19.2351C18.8887 19.3549 18.6982 19.4641 18.9063 19.5239C18.9486 19.5345 18.991 19.5028 18.998 19.5028C18.9522 19.5697 19.0157 19.5908 19.0862 19.5908C19.1885 19.5697 19.5766 19.4993 19.6648 19.5028C19.7248 19.5803 19.9541 19.5768 20.0211 19.5028C20.1129 19.4887 20.127 19.4781 20.1975 19.457C20.3069 19.4253 20.3422 19.5345 20.3316 19.3232C20.3775 19.2915 20.3563 19.2281 20.4657 19.2351C20.5151 19.2387 20.5292 19.2703 20.5539 19.2809C20.5468 19.3971 20.6138 19.4711 20.6879 19.5486C20.8114 19.5521 20.8714 19.6296 20.8643 19.7705C20.882 19.7775 20.9278 19.7634 20.9525 19.7705C21.0372 19.7599 21.0972 19.7317 21.1289 19.6824H21.1748C21.1748 19.6542 21.1748 19.6225 21.1748 19.5944C21.1995 19.6085 21.2383 19.6261 21.263 19.6402C21.2806 19.6507 21.2736 19.7176 21.3653 19.7176C21.4394 19.7176 21.5699 19.6824 21.5311 19.5944C21.6687 19.7035 21.7745 19.6542 21.9333 19.6366V19.4605C21.965 19.5908 22.018 19.693 22.1803 19.6789C22.3214 19.6683 22.1026 19.5134 22.2896 19.5028C22.3567 19.5591 22.5225 19.6859 22.6001 19.6366L22.5542 19.5486C22.6071 19.5591 22.9388 19.6049 22.9564 19.619C22.9987 19.6472 22.9882 19.7599 23.0869 19.7282C23.0975 19.7106 23.1222 19.7 23.1328 19.6824C23.2598 19.7247 23.5667 19.6578 23.4891 19.5486C23.5773 19.5134 23.6126 19.4852 23.6444 19.4711C23.6796 19.457 23.7925 19.4817 23.8455 19.4147C23.9125 19.3619 23.9336 19.3232 23.9795 19.2809C24.0395 19.2281 24.1453 19.207 24.2441 19.0802C24.3464 18.9499 24.3323 18.8759 24.3782 18.7914C24.4205 18.7139 24.5016 18.6751 24.5122 18.6575C24.5722 18.5554 24.6145 18.4004 24.5581 18.3018C24.5616 18.2138 24.551 18.1222 24.5581 18.0341C24.5969 18.1504 24.6216 18.1504 24.6463 18.0341C24.6534 17.9919 24.6851 17.9672 24.6922 17.9461C24.7239 17.8158 24.7839 17.7137 24.8686 17.6362C24.9179 17.4953 24.8403 17.5305 24.8227 17.4601C24.8615 17.446 24.8615 17.4319 24.8227 17.4143C24.9109 17.2945 24.9391 17.1184 24.9568 16.9705C24.9568 16.9705 24.9568 16.9423 24.9568 16.9247C24.9956 16.8296 24.9956 16.7698 24.9568 16.7486C25.0838 16.6571 25.1049 16.5162 25.0238 16.3225C25.1014 16.2168 25.1226 16.1217 25.0908 16.0372C25.0943 15.9668 25.0943 15.8858 25.0908 15.8153C25.0626 15.7449 25.0344 15.6885 25.0026 15.7026C25.0344 15.6322 25.0344 15.5336 25.0026 15.4138C25.0026 15.3716 24.9991 15.3223 25.0026 15.28C25.0308 15.1779 24.9074 15.0475 24.8262 15.1039C24.8297 15.0757 24.8192 15.037 24.8262 15.0158C24.8686 14.8785 24.8262 14.9278 24.8262 14.882C24.858 14.794 24.9003 14.72 24.9603 14.6601C24.9744 14.6531 24.9885 14.6214 25.0061 14.6143C25.052 14.6003 25.0943 14.5826 25.1402 14.5686C25.1755 14.3925 25.2884 14.3079 25.2743 14.1037C25.2672 13.9839 25.2214 14.0579 25.1402 14.0367L25.1367 14.0684ZM1.01605 8.86654C1.01605 8.86654 1.01605 8.84188 1.01605 8.8278C1.01605 8.84188 1.01605 8.85597 1.01605 8.86654ZM1.33004 16.252C1.33004 16.252 1.32651 16.252 1.32298 16.2485C1.32298 16.2485 1.32651 16.2485 1.33004 16.245V16.2556V16.252ZM1.41824 7.93675C1.41824 7.93675 1.42882 7.95788 1.43235 7.97197C1.42882 7.9614 1.42529 7.94731 1.41824 7.93675C1.40765 7.93675 1.39707 7.9297 1.39001 7.9297C1.40413 7.9297 1.41471 7.9297 1.41824 7.93675ZM1.41824 14.4206L1.48527 14.4382C1.48527 14.4382 1.4641 14.4488 1.41824 14.4206ZM1.6405 10.9128V10.867C1.6405 10.867 1.6405 10.8987 1.6405 10.9128ZM1.98977 15.7519C1.98977 15.7519 1.99329 15.7378 1.99682 15.7343C1.99682 15.7414 1.99682 15.7484 1.99682 15.7555H1.98977V15.7519ZM1.99682 13.7127C1.99682 13.7127 1.86276 13.7479 1.82042 13.7127C1.88746 13.6881 1.91921 13.6071 1.90862 13.5331C1.95096 13.5472 2.00035 13.5366 2.04269 13.4908L1.99682 13.7127ZM2.13088 16.3753C2.13088 16.3753 2.13088 16.3753 2.13441 16.3753C2.145 16.3824 2.15911 16.4105 2.17322 16.4176C2.06033 16.5056 2.04621 16.4915 2.12736 16.3718L2.13088 16.3753ZM2.35315 12.5223C2.35315 12.5223 2.35315 12.5153 2.35315 12.5117C2.35315 12.5153 2.35315 12.5188 2.35315 12.5223ZM5.94108 7.23236C5.94108 7.23236 5.93402 7.23588 5.93049 7.2394C5.93402 7.2394 5.93755 7.2394 5.9446 7.23588L5.94108 7.23236ZM3.60204 8.06001V8.07058L3.59499 8.06354C3.59499 8.06354 3.59851 8.06354 3.60204 8.06354V8.06001ZM3.77844 8.07058C3.76786 8.27485 4.23002 8.36642 4.24766 8.20441C4.25824 8.2185 4.26883 8.22554 4.27941 8.22907C4.24413 8.32064 4.42406 8.41221 4.54753 8.2502C4.68512 8.38051 4.87916 8.30655 4.92855 8.13397C5.0097 8.18328 5.0732 8.17976 5.11553 8.11636C5.1367 8.12693 5.15434 8.20441 5.18962 8.20794C5.23901 8.21498 5.41541 8.13397 5.51419 8.11636C5.27429 8.32064 5.57064 8.38403 5.77526 8.24315C5.90932 8.38403 5.9446 8.3946 6.12453 8.29598C6.36796 8.31007 6.61492 8.29598 6.86893 8.25372L6.93596 8.34177C6.87246 8.51787 6.81248 8.5073 6.8019 8.74327C6.8019 8.80314 6.8019 8.86302 6.8019 8.91937C6.63256 8.98628 6.69253 9.04263 6.65372 9.08138C6.5373 9.1976 6.49497 9.13773 6.41029 9.15886C6.38207 9.1659 6.4738 9.23986 6.22331 9.18703C6.13159 9.20464 6.13159 9.27508 6.22331 9.27508C6.16334 9.28917 6.13864 9.36313 6.00105 9.36313C5.98694 9.36313 5.9693 9.36313 5.95519 9.36313C5.94813 9.35609 5.93755 9.34904 5.93049 9.34904C5.90227 9.33143 5.85993 9.30326 5.82113 9.32087C5.82113 9.33496 5.82113 9.35257 5.82113 9.36665C5.7047 9.38426 5.60945 9.40187 5.50008 9.46175C5.45775 9.48288 5.4648 9.54979 5.44363 9.54627C5.40836 9.53923 5.3378 9.4547 5.28135 9.43709C5.21079 9.41596 5.14023 9.43357 5.06262 9.41244C4.94267 9.38074 4.83683 9.3737 4.70629 9.32439C4.68865 9.31735 4.67454 9.28565 4.66043 9.2786C4.49109 9.21873 4.48403 9.27156 4.37114 9.25747C4.21943 9.23986 4.09596 9.04968 3.99365 9.32439C3.94073 9.32087 3.82078 9.33143 3.81725 9.32439C3.80666 9.31382 3.90192 9.18351 3.75022 9.06024C3.64085 8.9722 3.52443 9.07785 3.54559 8.91585C3.54912 8.90528 3.55618 8.89824 3.55971 8.88767L3.68319 8.9722C3.70788 8.8278 3.60557 8.70453 3.50679 8.61648C3.49268 8.60239 3.47504 8.58126 3.46092 8.57069L3.51032 8.48969C3.46445 8.2819 3.55265 8.14806 3.77491 8.08467L3.77844 8.07058ZM6.41029 10.071C6.41029 10.071 6.41029 10.071 6.41382 10.071H6.41029ZM5.69059 9.84564C5.68706 9.82451 5.68354 9.8069 5.68354 9.78929L5.69059 9.84564ZM5.64473 10.2014H5.62356C5.62356 10.2014 5.62356 10.2014 5.62709 10.2014H5.63414C5.63414 10.2014 5.6412 10.2014 5.64473 10.2014ZM4.66748 10.469L4.71335 10.5571C4.67454 10.5113 4.64632 10.4972 4.62515 10.5571C4.61457 10.5465 4.60751 10.543 4.60045 10.5395C4.62868 10.5113 4.64985 10.4902 4.67101 10.469H4.66748ZM3.15399 9.00389C3.13282 8.98628 3.12224 8.96515 3.11518 8.9405C3.12577 8.95811 3.13988 8.97924 3.15399 9.00389ZM3.02346 8.83484C3.02346 8.83484 3.02346 8.86302 3.02346 8.87006C3.02346 8.85245 3.02346 8.84188 3.02346 8.83484ZM3.30569 17.3826C3.30569 17.3826 3.30569 17.3826 3.30217 17.3826L3.42212 17.2241C3.35861 17.3227 3.32333 17.3755 3.30569 17.3861V17.3826ZM3.30217 17.365C3.30922 17.3368 3.33392 17.2734 3.37625 17.1748L3.30217 17.365ZM6.00105 17.9743C6.03986 17.9567 6.03986 17.9426 6.00105 17.9285C6.13511 17.9285 6.13511 17.9426 6.00105 17.9743ZM6.98182 14.4206C6.89362 14.5193 6.97124 14.5263 6.98182 14.5967C7.01357 14.7904 6.93949 14.9031 7.02769 15.0863C6.97477 15.206 6.86187 15.3645 6.98182 15.4878C6.9536 15.523 6.89715 15.5723 6.89362 15.5758C6.81248 15.7026 6.8654 15.8717 6.80543 16.0196H6.93949C6.93949 16.0196 6.93949 16.0478 6.93949 16.0654C6.91126 16.0724 6.87246 16.1076 6.85129 16.1112L6.81601 16.09C6.73134 16.009 6.76662 15.7414 6.62903 15.9315C6.6008 15.9703 6.59728 16.0478 6.58669 16.083C6.57964 16.09 6.57611 16.0971 6.56905 16.1076C6.52319 16.1217 6.32915 16.1076 6.2727 16.1076C6.08925 16.1076 6.05044 16.1147 5.89168 16.1288C5.70118 16.1464 5.54242 16.0513 5.56006 16.3753C5.54595 16.3753 5.52831 16.3753 5.51419 16.3753V16.1076C5.38366 16.1887 5.2249 16.1041 5.20373 16.2837C5.16493 16.2732 5.10142 16.2732 5.06967 16.238C5.06262 16.2239 5.05556 16.2133 5.0485 16.2027C5.0097 16.1182 5.0097 15.9879 4.87211 16.238C4.84741 16.0724 4.59693 16.1006 4.57929 16.2168C4.56517 16.3154 4.62868 16.3647 4.49462 16.2837C4.49462 16.2767 4.45934 16.2556 4.44875 16.238C4.44875 16.2344 4.4417 16.2274 4.43464 16.2239C4.40994 16.2027 4.38878 16.1816 4.36761 16.1675C4.33233 16.0407 4.48403 16.0795 4.18415 15.9703C4.14182 15.9562 4.09243 15.9386 4.05009 15.9245C4.01834 15.9139 3.99012 15.8893 3.96189 15.8787C3.93367 15.8717 3.89486 15.8365 3.87369 15.8329C3.87369 15.6357 3.77844 15.6885 3.71141 15.6428C3.6091 15.5653 3.68671 15.5864 3.51737 15.523C3.51737 15.5019 3.58793 15.4173 3.56323 15.3892C3.55265 15.3786 3.48915 15.3997 3.47504 15.3892C3.37625 15.3187 3.3445 15.1532 3.20691 15.0933C3.22102 14.9806 3.24925 14.882 3.25277 14.7693C3.25983 14.6355 3.24572 14.5016 3.25277 14.3678C3.34803 14.4382 3.36214 14.4418 3.34097 14.322L3.42917 14.3854C3.51384 14.3784 4.2406 14.2058 4.25824 14.1671C4.26883 14.1459 4.27235 14.1213 4.27588 14.1001C4.34291 14.1178 4.42758 14.1213 4.49814 14.1459C4.49814 14.1178 4.49814 14.0861 4.49814 14.0579C4.58634 14.0579 5.0097 14.1354 5.03439 14.1283C5.09437 14.1107 5.14729 14.0297 5.19668 14.0227C5.25313 14.0156 5.45069 14.2128 5.43305 13.9276C5.51772 13.9276 5.4648 14.0508 5.58828 14.0614C5.70118 14.072 5.84582 13.9804 5.92344 13.9698C5.95166 13.9698 5.98341 13.9698 6.01164 13.9698C6.08925 14.1459 6.18098 14.079 6.3221 14.0156L6.27623 14.1917C6.41382 14.1917 6.61139 14.1917 6.73839 14.2445C6.83718 14.2868 6.75251 14.3608 6.83365 14.4136C6.84776 14.4206 6.88657 14.3115 6.90068 14.2798L6.92538 14.3185L7.03121 14.2798C7.10883 14.4136 7.05591 14.3361 6.98535 14.4136L6.98182 14.4206ZM4.12771 13.6212C4.12771 13.6212 4.12771 13.6212 4.13124 13.6212C4.13124 13.6212 4.13124 13.6212 4.13124 13.6247C4.13124 13.6247 4.13124 13.6247 4.13124 13.6212H4.12771ZM5.25665 13.357C5.25665 13.357 5.27076 13.35 5.29193 13.357C5.2884 13.3605 5.27429 13.357 5.25665 13.357ZM7.21114 13.2056C7.21114 13.2056 7.20761 13.1915 7.20408 13.1809C7.20761 13.1809 7.21114 13.1809 7.2182 13.1809C7.2182 13.188 7.21467 13.1985 7.21114 13.2056ZM7.24995 12.3356V12.3814C7.24995 12.3814 7.22172 12.4131 7.20408 12.4272C7.01357 12.5787 7.23584 12.5857 7.24995 12.6068C7.26053 12.6244 7.14411 12.7125 7.20408 12.7829C7.06297 12.8217 7.14411 12.6808 7.07002 12.6491C7.02416 12.6315 6.82306 12.8182 6.73839 12.8499C6.689 12.8675 6.59728 12.8534 6.5373 12.871C6.02222 13.0048 5.84229 12.8463 5.38013 12.871C5.27429 12.8428 5.1367 12.9027 5.04498 12.8921C4.93914 12.8816 4.67807 12.6984 4.58634 12.7477C4.57576 12.7548 4.57929 12.8322 4.55459 12.8252C4.46992 12.8005 4.34291 12.6843 4.21943 12.6632C4.12065 12.6456 4.09596 12.6914 4.0889 12.6914C4.01834 12.6878 3.88781 12.6914 3.86664 12.6914C3.85253 12.6914 3.83489 12.6949 3.82078 12.6914C3.85958 12.4977 3.72199 12.554 3.59851 12.5153C3.56323 12.3145 3.17516 12.1912 3.03757 12.3638C2.99171 12.3251 2.92115 12.2863 2.88587 12.3392C2.88234 12.3216 2.88234 12.2687 2.88587 12.2511C3.1046 12.3427 3.11871 12.2053 3.13282 12.2053C3.16105 12.2053 3.22808 12.2687 3.24219 12.2511C3.31628 12.1666 3.18574 12.0962 3.10813 12.075C3.23513 11.9341 3.07638 11.832 3.06227 11.7651C3.05521 11.7264 3.06932 11.6735 3.06227 11.6313C3.05168 11.5573 3.06932 11.4798 3.0164 11.4094C3.03051 11.3953 3.04815 11.3812 3.06227 11.3636C3.12224 11.2685 3.09754 11.2509 3.06227 11.1417C3.18927 11.1065 3.20338 10.9691 3.23866 10.941C3.24925 10.9339 3.4327 10.8459 3.46445 10.8318C3.47504 10.8283 3.48562 10.793 3.51032 10.786C3.59499 10.7684 3.83136 10.8283 3.86664 10.7191C3.88428 10.6627 3.8243 10.6592 3.82078 10.6522C3.80314 10.5852 3.77491 10.5676 3.82078 10.4761H3.86311C3.85605 10.5289 3.88781 10.5641 3.90897 10.6099C3.91603 10.6275 3.94425 10.6381 3.95484 10.6557C3.99012 10.7226 3.99717 11.0008 4.13124 10.7437C4.20532 10.7437 4.27588 10.8142 4.33938 10.8212C4.3923 10.8283 4.42758 10.7895 4.4417 10.7895C4.58281 10.7895 4.82624 10.7367 4.86152 10.7437C4.88975 10.7473 4.88975 10.8353 4.91444 10.8388C5.00264 10.8459 5.19668 10.7156 5.29546 10.6698C5.30957 10.6698 5.32368 10.6698 5.33427 10.6557C5.3766 10.6486 5.81407 10.7191 5.89521 10.7367C5.97283 10.7543 6.121 10.8388 6.15628 10.8353C6.26212 10.8212 6.17392 10.6944 6.18098 10.6557C6.24095 10.6803 6.51613 10.7684 6.5373 10.7437C6.55847 10.7226 6.49497 10.5958 6.58316 10.6099C6.58316 10.8423 6.73134 10.8318 6.85129 10.6768L6.76309 10.6099C7.0171 10.5465 6.83718 10.8529 7.03121 10.8776C7.02416 11.1171 7.14058 11.1558 7.20761 11.3671C7.20761 11.3777 7.24642 11.515 7.25348 11.5432C7.30287 11.7651 7.27464 11.9095 7.25348 12.1208C7.12294 12.1701 7.15469 12.2652 7.25348 12.3427L7.24995 12.3356ZM12.1961 11.9025C12.1961 11.9025 12.1961 11.9201 12.1997 11.9306C12.1961 11.9236 12.1926 11.9201 12.1891 11.913C12.1891 11.9095 12.1891 11.906 12.1961 11.9025ZM11.0107 7.17953C11.0107 7.17953 10.9861 7.18657 10.9861 7.18305C10.9825 7.17953 10.9825 7.16896 10.9825 7.16192C10.9931 7.16896 11.0037 7.17601 11.0143 7.17953H11.0107ZM8.65055 6.96117C8.65055 6.96117 8.63643 6.96117 8.62938 6.96117H8.65055ZM8.4424 8.15511C8.4424 8.15511 8.44945 8.12693 8.45298 8.11636C8.62938 8.09523 8.79166 8.19385 8.93984 8.07058C8.86575 8.26076 9.12329 8.24315 9.10565 8.13045C9.17268 8.20089 9.31027 8.16215 9.37378 8.07762C9.4267 8.13397 9.4655 8.1375 9.51842 8.07058C9.56429 8.28894 9.86416 8.11636 9.99822 8.02832C10.1005 8.19737 10.4145 8.18328 10.2734 7.98253C10.291 7.98957 10.3369 7.97549 10.3616 7.98253C10.3687 7.99662 10.3898 8.01775 10.4075 8.02832C10.5027 8.08819 10.5839 8.11284 10.6756 8.02832C10.7638 7.94379 10.6438 7.91914 10.6297 7.89448C10.6227 7.88039 10.6368 7.83109 10.6297 7.80643C10.658 7.89096 10.7215 7.898 10.7179 7.80643C10.732 7.85574 10.7814 7.86983 10.8061 7.89448C10.8132 7.90153 10.7814 7.97196 10.8343 7.98605C10.8626 7.9931 11.1871 8.03184 11.2083 8.02832C11.2965 8.01775 11.7234 7.92618 11.8328 7.89448C11.8645 8.10228 12.0021 8.01775 12.0092 8.02832C12.0409 8.08115 11.9351 8.15158 11.921 8.22907C11.8575 8.56013 11.9457 9.06024 11.607 9.27156C11.5964 9.2786 11.5787 9.342 11.5611 9.35961C11.547 9.35961 11.5329 9.35961 11.5152 9.35961C11.2577 9.38074 11.3459 9.46175 11.2648 9.48992C11.1801 9.5181 11.106 9.44414 11.0496 9.44766C11.0249 9.44766 11.0249 9.5181 11.0107 9.52162C10.9367 9.54979 10.8414 9.51458 10.7991 9.58149L10.8449 9.71533C10.8449 9.71533 10.8202 9.77168 10.7814 9.76111C10.7073 9.51105 10.5874 9.58854 10.3581 9.58149C10.0511 9.43357 9.93119 9.47583 9.64543 9.44766C9.5537 9.43709 9.51842 9.40539 9.51137 9.40187C9.39847 9.17647 9.05979 9.15182 8.84458 9.22578C8.6823 9.1166 8.50943 9.13421 8.48826 8.87006C8.48826 8.86654 8.51648 8.83836 8.51648 8.80666C8.50237 8.64818 8.42476 8.31359 8.43887 8.15158L8.4424 8.15511ZM12.0056 10.8318C12.0056 10.8318 11.9986 10.8247 11.995 10.8212C11.995 10.8212 12.0021 10.8283 12.0056 10.8318ZM10.2628 9.96538C10.2522 9.98299 10.2417 10.0041 10.2275 10.0253C10.2311 10.0006 10.2452 9.97947 10.2628 9.96538ZM8.03315 16.3014C8.1143 16.3225 8.19897 16.3436 8.27305 16.3788C8.15663 16.3436 8.07902 16.319 8.03315 16.3014ZM7.99082 16.2802C7.99082 16.2802 8.0896 16.2908 8.27305 16.3331L7.99082 16.2802ZM8.22719 11.8461V11.8003C8.22719 11.8003 8.25894 11.7581 8.29422 11.7933C8.36478 11.8672 8.35067 11.987 8.44945 12.0222C8.44945 11.9341 8.44945 11.8426 8.44945 11.7545C8.4812 11.6806 8.57646 11.5925 8.49532 11.5326V11.4869C8.58704 11.4094 8.65055 11.3918 8.67171 11.265C8.74933 11.1452 8.86928 11.0607 9.02804 11.0149V10.9832C9.02804 11.0079 9.04215 11.029 9.05273 11.0501C9.06332 11.0713 9.45492 11.0325 9.47256 11.0114C9.56429 11.1276 9.70188 11.0959 9.79008 11.0114C9.78655 11.1065 9.89944 11.1593 10.0511 11.0959C10.1288 11.1875 10.2028 11.1805 10.2769 11.0889C10.4745 11.1523 10.658 11.1558 10.8238 11.103C10.8414 11.1311 10.8767 11.184 10.8979 11.184C11.1413 11.2086 11.3353 11.2157 11.5752 11.1558C11.6352 11.2579 11.7587 11.3425 11.8292 11.2192C11.8504 11.2826 11.9457 11.4059 12.0056 11.4411C12.0162 11.4622 11.9986 11.5221 12.0268 11.5714C12.055 11.6207 12.1397 11.6559 12.182 11.7052C12.1397 11.825 12.1644 11.9025 12.182 12.0152C12.0762 12.1173 11.9668 12.3603 11.9598 12.5047C11.9492 12.6773 12.0621 12.5258 12.0938 12.6385C11.9845 12.6702 11.9104 12.5787 11.8257 12.5716C11.6775 12.5611 11.3142 12.6878 11.2365 12.6773C11.1942 12.6702 11.166 12.5928 11.0954 12.5928C11.0637 12.5928 11.0813 12.6808 11.046 12.6843C10.9966 12.6878 10.9896 12.6667 10.8943 12.6843C10.8097 12.6984 10.658 12.8146 10.6721 12.6385H10.6297C10.658 12.8287 10.4463 12.6561 10.4075 12.6808C10.3722 12.7055 10.4251 12.8393 10.3722 12.8921C10.3651 12.8921 10.3581 12.8921 10.351 12.8921C10.2734 12.8463 10.2769 12.7019 10.1852 12.7865C10.3016 13.0013 9.87122 13.033 10.0511 12.7653C9.96647 12.7442 9.87475 12.8463 9.80419 12.8393C9.74068 12.8322 9.70188 12.7055 9.62779 12.6949C9.50078 12.6738 8.94337 12.6773 8.91161 12.6597C8.86222 12.635 8.86222 12.5681 8.83753 12.554C8.75991 12.5117 8.66113 12.5857 8.60468 12.4096C8.56587 12.4765 8.57999 12.5963 8.58351 12.6773C8.45298 12.6421 8.51648 12.5188 8.49532 12.4554C8.46004 12.3533 8.39653 12.3603 8.40712 12.1877C8.40712 12.1807 8.48826 12.0926 8.45298 12.0539C8.43181 12.0292 8.20602 12.0539 8.23072 11.832L8.22719 11.8461ZM11.8786 13.2866C11.8786 13.2866 11.868 13.2971 11.8645 13.3007C11.8539 13.3007 11.8433 13.3077 11.8328 13.3112C11.8504 13.3007 11.8645 13.2936 11.8786 13.2866ZM10.7708 13.7092L10.7638 13.7162C10.7638 13.7162 10.7638 13.7127 10.7638 13.7092C10.7638 13.7092 10.7638 13.7092 10.7708 13.7092ZM9.43022 17.2206V17.1748C9.43022 17.1748 9.43022 17.2065 9.43022 17.2206ZM9.73716 16.8367C9.73716 16.8367 9.73716 16.8226 9.74068 16.8191C9.74068 16.8261 9.74068 16.8296 9.73716 16.8367ZM10.1887 17.4495C10.1887 17.4495 10.1887 17.446 10.1887 17.4425C10.1887 17.4425 10.1923 17.4425 10.1958 17.4425C10.1958 17.4425 10.1958 17.4425 10.1958 17.446L10.1887 17.4495ZM10.1852 16.731H10.2064C10.2064 16.731 10.1923 16.731 10.1852 16.731ZM11.7869 16.5091C11.7869 16.5091 11.7869 16.481 11.7869 16.4634V16.5091ZM11.7446 16.4211C11.7446 16.4211 11.7728 16.4211 11.7904 16.4211H11.7446ZM11.8751 17.6221C11.8751 17.6221 11.8751 17.5939 11.8751 17.5763V17.6221ZM12.0092 16.1605C12.0092 16.1605 12.0056 16.157 12.0021 16.1534H12.0127C12.0127 16.1534 12.0127 16.157 12.0127 16.1605H12.0092ZM12.2279 15.2201C12.2279 15.2201 12.1609 15.2166 12.1432 15.2201C12.1044 15.2342 12.0938 15.2166 12.055 15.2659C11.988 15.3469 12.0021 15.6604 11.9139 15.8118C11.8257 15.9668 11.7834 16.009 11.607 16.0654C11.5152 16.0795 11.3741 16.1358 11.2506 16.1534C11.1483 16.1675 10.9896 16.1112 11.1166 16.2415C11.0989 16.245 11.0848 16.2485 11.0743 16.252C11.0284 16.1182 10.7391 16.0583 10.6932 16.2415C10.5274 16.164 10.1993 16.0759 10.1393 16.2837C10.0264 16.1534 9.85711 16.157 9.73716 16.2837C9.69482 16.1851 9.60662 16.171 9.51489 16.1499C9.4655 16.1393 9.38789 16.1605 9.3385 16.1499C9.27852 16.0583 9.21149 15.9597 9.14446 15.8541C9.02804 15.7484 8.92925 15.7731 8.84811 15.928C8.834 15.8928 8.81989 15.8717 8.80225 15.84C8.90103 15.7414 8.75638 15.5265 8.62585 15.5723C8.5694 15.3645 8.52354 15.044 8.35773 14.9067C8.34361 14.8926 8.3295 14.8714 8.31186 14.8609C8.31186 14.8081 8.3542 14.7517 8.35773 14.727L8.53412 14.5721L8.40006 14.5509V14.3749C8.65407 14.5404 8.56588 14.2234 8.67524 14.16C8.77755 14.1001 8.87281 14.2305 8.95748 14.2375C9.00687 14.241 9.04568 14.1988 9.06684 14.1952C9.21502 14.1811 9.28911 14.2058 9.42317 14.1072C9.43022 14.1037 9.4267 14.0473 9.46903 14.0191C9.48314 14.0156 9.4902 14.0086 9.50078 14.0015C9.5784 13.9628 9.6666 13.9698 9.73716 14.0191C9.73716 14.0649 9.73716 14.1072 9.73716 14.153C9.86063 14.1776 9.82535 14.1142 9.82535 14.0191C9.95942 14.0262 10.1252 14.0332 10.2699 14.0649C10.3052 14.0931 10.3404 14.0966 10.3581 14.1107C10.5204 14.2234 10.4145 14.1248 10.538 14.1318C10.6968 14.1389 10.8802 14.3291 11.0249 14.1988C11.039 14.2023 11.0566 14.1952 11.0707 14.1988C11.3177 14.2622 11.2859 14.241 11.5611 14.2445C11.6176 14.2727 11.6564 14.3467 11.6952 14.3784C11.8045 14.4629 11.8927 14.4629 11.9104 14.477C11.9457 14.5087 11.8963 14.5369 12.0515 14.646C12.0691 14.6566 12.0797 14.6813 12.0974 14.6918V14.8257C12.0056 14.8116 12.0374 14.6777 11.9633 14.6918C11.9633 14.7658 11.9633 14.8397 11.9633 14.9137C11.9633 14.9665 11.9527 15.0511 11.9633 15.0898C11.9986 15.2342 12.1079 15.1391 12.1856 15.1356C12.1997 15.1356 12.2173 15.1356 12.2314 15.1356C12.2244 15.1567 12.2455 15.206 12.2314 15.2201H12.2279ZM12.4184 11.3425C12.4184 11.3425 12.4008 11.3249 12.3902 11.3178C12.3867 11.3108 12.3831 11.3002 12.3796 11.2932C12.3937 11.3108 12.4078 11.3284 12.4219 11.346C12.4219 11.346 12.4219 11.346 12.4184 11.346V11.3425ZM12.9017 8.64818L12.9123 8.64113C12.9123 8.64113 12.9017 8.67283 12.9017 8.69044V8.64466V8.64818ZM12.8947 17.601C12.8947 17.601 12.9194 17.615 12.93 17.6221C12.9088 17.6221 12.8947 17.615 12.8947 17.601ZM16.8566 11.029L16.8178 10.9128C16.8672 11.0008 16.8777 11.0361 16.8566 11.029ZM16.8142 10.9973C16.7931 10.9762 16.7648 10.948 16.7296 10.9128L16.8142 10.9973ZM14.0801 7.75713C14.0801 7.75713 14.0801 7.75713 14.0836 7.75713H14.0801ZM13.4874 8.44743C13.498 8.41925 13.6744 8.43686 13.4768 8.27133C13.6673 8.21146 13.5227 7.95436 13.5227 7.80643C13.7026 7.91914 14.1471 7.92618 14.3235 7.80643L14.3976 7.90153C14.8774 7.9931 15.5442 8.10932 15.9922 7.93675C16.1651 7.98957 16.3344 8.00718 16.4967 7.9931L16.5038 7.898C16.5426 8.01775 16.599 8.02127 16.6378 7.898L16.6837 8.25372C16.5779 8.44743 16.5567 8.63409 16.6837 8.83132C16.6696 8.88767 16.659 8.95459 16.6378 9.00742C16.5602 9.1166 16.4614 9.20464 16.3274 9.2293C16.2992 9.23282 16.2674 9.2293 16.2392 9.2293C16.1122 9.24339 15.8652 9.16238 15.8829 9.31735C15.6994 9.12716 15.3537 9.19056 15.1279 9.27508C15.0009 9.32087 14.9868 9.40892 14.9691 9.40892C14.9197 9.41596 14.5881 9.30326 14.454 9.28917C14.2706 9.27156 14.013 9.3103 13.8366 9.35961C13.7555 9.18703 13.4909 9.20464 13.4521 9.1166C13.4239 9.05672 13.498 8.82427 13.5085 8.73623C13.5156 8.67283 13.4768 8.48617 13.4909 8.44743H13.4874ZM16.6378 9.04616V9.02503C16.6378 9.02503 16.6378 9.03911 16.6378 9.04616ZM14.6375 10.5148C14.6375 10.5148 14.634 10.5148 14.6304 10.5183C14.6269 10.5183 14.6198 10.5183 14.6163 10.5183C14.6234 10.5183 14.6304 10.5148 14.641 10.5148H14.6375ZM14.387 9.89847C14.3694 9.89847 14.3482 9.89494 14.3235 9.89142H14.3835V9.89847H14.387ZM14.0801 9.71533C14.0801 9.71533 14.066 9.71533 14.0589 9.71533C14.066 9.71533 14.073 9.71533 14.0801 9.71533ZM13.3886 11.8461C13.4168 11.7087 13.4909 11.6947 13.4768 11.4446C13.5332 11.3918 13.5826 11.0748 13.6144 11.0466C13.6673 11.0008 14.1894 11.2403 14.1471 10.867C14.2353 10.8917 14.193 10.9903 14.3023 11.0044C14.4646 11.0255 14.4082 10.9234 14.4576 10.867C14.4787 10.8564 14.4999 10.8459 14.514 10.8318C14.5916 10.8212 14.6481 10.948 14.6692 10.955C14.7292 10.9691 14.8386 10.9621 14.9056 10.955C14.9268 10.955 14.9797 10.8952 14.9938 10.9093C15.0009 10.9163 15.0185 11.0361 15.0397 11.0854C15.0467 11.1065 15.0291 11.1664 15.0397 11.1734C15.1349 11.2509 15.1349 11.0572 15.1984 11.0431C15.2443 11.0325 15.3254 11.0994 15.4419 11.0642C15.6112 11.0149 15.6359 10.8353 15.7065 10.7719C15.7911 10.786 16.2639 10.9234 16.285 10.9057C16.3485 10.8529 16.2462 10.8283 16.2039 10.786C16.2074 10.7719 16.2039 10.7543 16.1968 10.7296C16.211 10.7684 16.2286 10.7684 16.2427 10.7296C16.2568 10.7296 16.2745 10.7296 16.2886 10.7296C16.3521 10.948 16.3697 10.8142 16.4226 10.8177C16.4297 10.8177 16.4473 10.8564 16.4685 10.8635C16.5532 10.8846 16.5637 10.9057 16.6908 10.9093C16.6872 10.9973 16.7401 11.029 16.779 11.0854C16.7895 11.0994 16.779 11.1523 16.8213 11.1945C16.8495 11.2192 16.8989 11.2086 16.9095 11.2157C16.9448 11.2438 16.9942 11.2544 16.9977 11.2615C17.0259 11.3002 17.2199 11.8355 17.2199 11.8848C17.2235 12.1772 17.1388 12.1243 17.04 12.2723C17.0224 12.3004 16.9201 12.4977 16.906 12.5047C16.8883 12.5117 16.7013 12.3286 16.5955 12.5505C16.5849 12.547 16.5673 12.5505 16.5496 12.5505C16.4262 12.5364 16.3344 12.5646 16.2815 12.6843C16.2674 12.6773 16.2215 12.6878 16.1933 12.6843C16.0769 12.6667 15.7841 12.6421 15.837 12.7724C15.7558 12.7618 15.717 12.7372 15.6606 12.7266C15.5054 12.7055 15.5548 12.79 15.4595 12.8217C15.3466 12.8569 15.2408 12.8041 15.1702 12.8182C15.1314 12.8252 15.0608 12.9168 14.9938 12.9062C14.9903 12.8921 15.0009 12.871 14.9938 12.8604C14.9303 12.7407 14.581 12.8005 14.447 12.7688C14.2741 12.7266 14.3976 12.7125 14.1048 12.7266C13.8754 12.7372 13.6779 12.5857 13.6144 12.3709C13.6073 12.3462 13.5791 12.237 13.572 12.2018C13.572 12.1983 13.572 12.1948 13.572 12.1912C13.565 12.1525 13.6391 12.1349 13.572 11.9694C13.5085 11.8074 13.4909 11.9095 13.3956 11.8355L13.3886 11.8461ZM14.013 14.0227C14.013 14.0227 14.013 14.0086 14.013 14.0015C14.013 14.0086 14.013 14.0156 14.013 14.0227ZM14.3235 17.9743C14.3588 18.0025 14.4046 18.0165 14.4576 18.0201C14.3411 18.0271 14.2988 18.013 14.3235 17.9743ZM14.5422 16.7416L14.5493 16.7346C14.5493 16.7346 14.5493 16.7416 14.5493 16.7451L14.5422 16.7416ZM15.2937 16.5514C15.269 16.5444 15.2372 16.5408 15.2055 16.5338C15.2337 16.5338 15.2619 16.5408 15.2937 16.5514ZM16.5496 18.1962C16.532 18.1574 16.5179 18.1574 16.5038 18.1962C16.5002 18.1785 16.4932 18.1645 16.4861 18.1539C16.4967 18.1469 16.5002 18.1363 16.5002 18.1292C16.5179 18.1398 16.532 18.1504 16.5496 18.1574C16.5496 18.168 16.5426 18.1785 16.5461 18.1962H16.5496ZM17.1741 15.8153C17.1071 15.8752 16.9836 15.8153 16.9483 15.9351C16.906 15.8153 16.8495 15.8118 16.8142 15.9351C16.8001 15.9351 16.786 15.9351 16.7684 15.9351C16.7401 15.9316 16.6908 15.8752 16.6802 15.8893C16.7119 16.09 16.592 16.0196 16.4685 16.0337C16.3521 16.0443 16.472 16.0689 16.4156 16.1112C16.4015 15.9809 16.2392 15.9738 16.2392 16.1112C16.024 16.1288 16.1616 16.1746 16.0416 16.2697C16.0346 16.2732 16.0275 16.2802 16.0169 16.2873C15.9922 16.1534 15.8158 16.1534 15.7947 16.2873C15.7523 16.1922 15.6782 16.1851 15.5724 16.2697C15.4348 16.2309 15.2055 16.238 15.1773 16.3788C15.1773 16.3119 15.1526 16.3471 15.0855 16.3366C15.0291 16.1887 14.7151 16.1464 14.641 16.2908C14.6692 16.1358 14.4258 16.0583 14.3729 16.2027C14.2953 16.0795 14.1577 16.0126 14.1506 16.2027C14.133 16.164 14.1189 16.164 14.1048 16.2027H14.0166C14.0166 16.2027 14.0095 16.1675 14.0166 16.157C14.0201 16.1499 14.0836 16.1675 14.0977 16.1499C14.1965 16.0196 13.9001 15.9316 13.7943 15.9351C13.8402 16.0689 13.9072 16.1393 13.8402 16.2908C13.8261 16.319 13.8261 16.3225 13.7943 16.3366C13.7837 16.3401 13.7661 16.3366 13.7484 16.3366V16.2485C13.7484 16.1006 13.7484 15.9527 13.7484 15.8048C13.625 15.7871 13.6285 15.9597 13.5826 15.928C13.5685 15.9034 13.5509 15.8752 13.5262 15.847C13.5332 15.7872 13.5615 15.7273 13.572 15.6709C13.5932 15.5371 13.6426 15.4068 13.6602 15.2694C13.6602 15.2553 13.6602 15.2412 13.6602 15.2236L13.7061 14.5122C13.7731 14.4946 13.7943 14.4523 13.8402 14.4242C13.8578 14.4136 13.8684 14.3925 13.886 14.3784C13.9813 14.4382 14.1471 14.3044 14.2424 14.2445C14.2953 14.2128 14.3517 14.1178 14.3764 14.1107C14.5528 14.0684 14.4258 14.2269 14.5987 14.0227C14.6022 14.0156 14.6269 14.0262 14.6445 14.0227L14.7539 14.1565C14.8033 14.1354 14.8351 14.0508 14.8668 14.0227C14.9232 14.1389 15.0926 14.1248 15.2231 14.1565C15.3113 14.1776 15.3431 14.1882 15.4454 14.2023C15.7453 14.241 15.8582 14.1248 16.0451 14.1178C16.345 14.1037 16.5567 14.2974 16.9589 14.1178C16.9307 14.1988 17.033 14.2269 17.033 14.2727C17.033 14.3713 16.9236 14.3572 17.0047 14.6531C17.0153 14.6918 17.04 14.72 17.0506 14.7411C17.0824 14.8327 17.1176 14.8644 17.1388 14.9172C17.1529 14.9489 17.1176 15.0335 17.1847 15.0511C17.1847 15.0652 17.1847 15.0792 17.1847 15.0969C17.1847 15.199 17.2129 15.3399 17.2235 15.442C17.2235 15.4596 17.2235 15.4772 17.2305 15.4984C17.2376 15.6111 17.3011 15.7238 17.1882 15.8224L17.1741 15.8153ZM17.3505 9.40187C17.3505 9.40187 17.3505 9.3737 17.3505 9.35609V9.40187ZM17.6715 11.913C17.6715 11.913 17.6998 11.9306 17.7139 11.9377C17.6962 11.9341 17.6821 11.9271 17.6715 11.913ZM17.9291 14.2445V14.1988C17.9291 14.1988 17.9291 14.2305 17.9291 14.2445ZM18.3665 14.3361L18.356 14.3432C18.356 14.3432 18.363 14.3326 18.3665 14.3291C18.3665 14.3291 18.3665 14.3326 18.3665 14.3361ZM18.9063 10.0675C18.8428 10.0323 18.7687 10.0957 18.8181 10.1556C18.7864 10.1661 18.6876 10.1556 18.6417 10.1556C18.6276 10.1556 18.6135 10.1556 18.5959 10.1556C18.6311 10.0746 18.5606 10.0182 18.55 9.97947C18.5253 9.8879 18.5429 9.93369 18.55 9.89142C18.5782 9.8879 18.617 9.89847 18.6382 9.89142C18.6382 9.95834 18.61 10.0429 18.6841 10.0675C18.7546 10.0922 18.7758 10.0499 18.8181 10.0217C18.864 9.99356 18.8675 9.8879 18.9945 9.93369C18.9381 9.96186 18.871 10.0006 18.9063 10.0675ZM19.0368 16.9987C19.0368 16.9987 19.0368 16.9987 19.0404 16.9987C19.0404 16.9987 19.0404 16.9987 19.0368 16.9987ZM3.55618 18.7738C3.55618 18.7738 3.58087 18.809 3.5844 18.8266C3.57382 18.809 3.56676 18.7914 3.55618 18.7738ZM5.64473 18.6857C5.64473 18.6857 5.65178 18.6611 5.65884 18.6611C5.65531 18.6646 5.64826 18.6751 5.64473 18.6857ZM6.21273 19.4958C6.21273 19.4958 6.25154 19.4958 6.27623 19.4887C6.26212 19.4958 6.24095 19.4993 6.21273 19.4958ZM16.0557 19.0661C16.0557 19.0661 16.0628 19.0661 16.0663 19.059C16.0663 19.059 16.0663 19.059 16.0698 19.059C16.0663 19.059 16.0593 19.059 16.0557 19.0626V19.0661ZM23.5844 12.3356C23.5844 12.3356 23.595 12.3356 23.5985 12.3356C23.595 12.3356 23.5914 12.3356 23.5844 12.3356ZM22.5577 13.3711C22.5577 13.3711 22.5577 13.3852 22.5577 13.3993C22.5577 13.3922 22.5577 13.3817 22.5577 13.3711ZM21.3371 7.59864C21.3547 7.60568 21.3477 7.61625 21.3124 7.62329L21.3371 7.59864ZM19.4426 8.15863C19.4426 8.15863 19.5413 8.1058 19.5555 8.07058C19.6789 8.31359 19.7601 8.06706 19.7777 8.07058C19.8306 8.08819 19.9047 8.18328 20 8.16215C20.0141 8.16215 20.0564 8.06001 20.0705 8.02479C20.0564 8.06706 20.0705 8.08467 20.1164 8.07058C20.187 8.12693 20.4657 8.12693 20.5609 8.07058C20.5115 8.15511 20.5362 8.17976 20.6068 8.11636C20.6526 8.25724 21.2101 8.38051 21.0972 8.16215C21.2983 8.1868 21.4288 8.38051 21.6299 8.20794C21.644 8.20794 21.6616 8.20794 21.6758 8.20794C21.711 8.21498 21.7428 8.2185 21.764 8.2185C21.7816 8.23963 21.7604 8.27837 21.7322 8.3312C21.6581 8.46151 21.5029 8.51434 21.5452 8.69748C21.5629 8.71509 22.0497 8.66931 21.9015 8.8771C21.891 8.89471 21.6546 8.66579 21.5452 8.85597C21.7992 8.98628 21.6546 9.04616 21.6793 9.09899C21.6793 9.10603 21.7851 9.04263 21.8133 9.12364C21.7498 9.20817 21.771 9.24339 21.7675 9.2786C21.7604 9.35609 21.838 9.38779 21.7216 9.50049C21.6793 9.54275 21.6052 9.58149 21.5417 9.59206C21.5417 9.61671 21.5876 9.6308 21.5876 9.63432C21.5876 9.64841 21.5911 9.66602 21.5876 9.68011C21.584 9.69419 21.5205 9.75407 21.4994 9.81394C21.4888 9.84212 21.457 9.88086 21.4535 9.90199H21.4076C21.4394 9.79985 21.3724 9.73294 21.2736 9.72589C21.1924 9.71885 21.1466 9.77168 21.1395 9.77168C21.1254 9.77168 21.1078 9.77168 21.0936 9.77168C21.0478 9.76111 20.9349 9.67306 20.8255 9.63784C20.6209 9.57093 20.5009 9.53923 20.2928 9.50401C20.2787 9.50401 20.2646 9.50401 20.2469 9.50401C20.1376 9.39131 19.9788 9.43005 19.8447 9.41596C19.8447 9.25395 19.7213 9.29269 19.6225 9.32791C19.566 9.21873 19.7142 9.25043 19.7142 9.21169C19.7142 9.18351 19.6648 9.15534 19.6648 9.15181C19.6648 9.12012 19.7142 9.06024 19.7107 9.01798C19.6789 8.81723 19.6013 8.61648 19.4002 8.57422C19.5943 8.51434 19.4249 8.23259 19.4461 8.17272L19.4426 8.15863ZM20.6421 11.1805C20.5891 11.1945 20.5609 11.2368 20.5539 11.3143C20.5256 11.2333 20.5927 11.1452 20.5997 11.0924C20.6068 11.11 20.6138 11.1206 20.6209 11.1206C20.6033 11.1523 20.6033 11.184 20.6421 11.1805ZM20.3775 11.1171C20.3775 11.1382 20.3775 11.1593 20.3775 11.1805C20.3775 11.1558 20.3775 11.1347 20.3775 11.1171ZM20.1975 10.2894V10.2436C20.1975 10.2436 20.1975 10.2718 20.1975 10.2894ZM20.0211 9.80337C20.007 9.77872 19.9929 9.75054 19.9753 9.71533L20.0211 9.80337ZM19.5131 12.6033C19.4637 12.6174 19.5061 12.6914 19.4637 12.6914C19.4038 12.4977 19.2838 12.6315 19.1286 12.5575C19.1286 12.5434 19.1286 12.5153 19.1286 12.5117C19.1356 12.5047 19.1921 12.5258 19.2097 12.5047C19.2415 12.466 19.2097 12.385 19.2203 12.3356C19.2379 12.1877 19.2132 12.1173 19.2203 11.9799C19.2203 11.9377 19.2132 11.8884 19.2203 11.8461C19.2238 11.8109 19.2873 11.6524 19.3085 11.6242C19.3156 11.6137 19.3438 11.589 19.3544 11.5784C19.3579 11.5784 19.3649 11.5749 19.3685 11.5714C19.4073 11.5573 19.4955 11.5432 19.5308 11.5326C19.5696 11.5256 19.6225 11.5397 19.6648 11.5326C19.7424 11.5221 19.7777 11.4904 19.7989 11.4869L19.753 11.265C19.7777 11.272 19.8236 11.2544 19.8412 11.265C19.8518 11.2685 19.8694 11.2967 19.8871 11.3108C19.9506 11.353 20.0211 11.4023 20.0211 11.4869C20.0811 11.4763 20.1376 11.4552 20.1975 11.4411C20.2258 11.4446 20.2575 11.4411 20.2857 11.4411C20.3422 11.4481 20.4057 11.4411 20.4621 11.4411C20.4621 11.4411 20.4763 11.4763 20.4868 11.4763C20.5186 11.4728 20.5786 11.2826 20.7303 11.3072C20.7691 11.3143 20.822 11.4023 20.8784 11.3918C20.8996 11.3882 21.1818 11.2051 21.2171 11.1734C21.1289 11.3812 21.2947 11.3636 21.4641 11.353C21.7498 11.3354 21.5311 11.2333 21.7498 11.1734C21.7287 11.2896 21.7393 11.3918 21.6616 11.4833C21.704 11.4904 21.7604 11.4728 21.7957 11.4833C22.0215 11.5538 21.8627 11.5749 21.891 11.6524C21.898 11.67 21.965 11.6876 21.9721 11.7052C22.0462 11.8531 22.018 11.8496 22.1485 11.9729C22.2332 12.0504 22.339 12.0856 22.3637 12.1032C22.3637 12.1032 22.3672 12.1032 22.3708 12.1067C22.2367 12.1631 22.0603 12.385 22.2826 12.4167C22.332 12.5575 22.3567 12.4871 22.3708 12.5047C22.3884 12.5258 22.3955 12.5434 22.3955 12.554C22.3813 12.5611 22.3743 12.5681 22.3672 12.5787C22.332 12.5787 22.272 12.5575 22.2367 12.547C22.2226 12.547 22.2085 12.547 22.1908 12.547C22.0109 12.5294 22.0638 12.5716 21.9686 12.5928C21.9792 12.5928 21.9862 12.5928 21.9897 12.5963C21.9827 12.5963 21.9756 12.5963 21.9686 12.5928C21.9404 12.5998 21.9051 12.5857 21.8804 12.5928C21.8098 12.5928 21.6969 12.5646 21.6581 12.6385C21.6299 12.6456 21.5981 12.6773 21.5699 12.6843C21.5558 12.6843 21.5452 12.6843 21.5346 12.6914C21.4288 12.7125 21.3194 12.7301 21.2136 12.7301C21.3053 12.8639 21.4359 12.7618 21.3935 12.9766C21.3865 12.9766 21.3794 12.9802 21.3724 12.9837C21.1254 12.7829 20.7408 12.4519 20.8996 13.04C20.8996 13.04 20.8996 13.0893 20.8784 13.0823C20.8008 12.9978 20.8432 12.9168 20.7232 12.9943C20.7902 12.8463 20.7126 12.8675 20.6773 12.8182C20.6668 12.8041 20.702 12.6667 20.5433 12.7301C20.5009 12.7477 20.4516 12.959 20.4551 12.6843C20.4445 12.6667 20.3916 12.7266 20.3669 12.7301C20.3528 12.7301 20.3351 12.7301 20.321 12.7301C20.3457 12.5223 20.1235 12.466 20.0988 12.6843C20.0846 12.6843 20.067 12.6843 20.0529 12.6843C20.0846 12.5787 19.9541 12.5681 19.8906 12.5681C19.8518 12.5681 19.5202 12.5928 19.5025 12.5963L19.5131 12.6033ZM21.577 13.3993C21.577 13.3993 21.577 13.4098 21.577 13.4169C21.5699 13.4169 21.5629 13.4134 21.5523 13.4098C21.5558 13.4098 21.5593 13.4028 21.5629 13.3993C21.5664 13.3993 21.5734 13.3993 21.577 13.3993ZM20.9561 13.7127H20.8679H20.9455C20.9455 13.7127 20.9525 13.7127 20.9561 13.7127ZM19.9329 12.9132C19.9329 12.9132 19.94 12.9132 19.94 12.9168C19.94 12.9168 19.9329 12.9203 19.9329 12.9238C19.9329 12.9203 19.9329 12.9168 19.9329 12.9132ZM23.0905 17.2065C23.0905 17.2065 23.0905 17.2171 23.0905 17.2206C23.0905 17.2206 23.0905 17.2135 23.0905 17.2065ZM23.4503 19.3725C23.4503 19.3725 23.4503 19.3619 23.4503 19.3549H23.4538C23.4538 19.3549 23.4538 19.369 23.4538 19.3725H23.4503ZM23.6691 14.4206C23.5315 14.3608 23.4292 14.5404 23.5809 14.5967C23.4609 14.6073 23.4115 14.7306 23.3586 14.8186C23.3586 14.8186 23.3551 14.8186 23.3515 14.8221C23.3339 14.8292 23.2951 14.8433 23.2774 14.8926C23.2598 14.9524 23.2845 15.0475 23.2633 15.0792C23.2422 15.1145 23.1046 15.0616 23.0481 15.1532C22.9846 15.2589 23.0622 15.3434 23.0023 15.4209C22.9352 15.5089 22.84 15.4209 22.8259 15.442C22.8153 15.4526 22.8259 15.5336 22.7976 15.5688C22.7236 15.6604 22.4237 15.7484 22.5119 15.8858C22.2473 15.9069 22.3778 16.0548 22.2896 16.1534C22.2649 16.1816 22.1661 16.1887 22.1556 16.1992C22.1485 16.2133 22.1944 16.3612 22.1979 16.4176C22.1591 16.3753 22.0779 16.3436 22.0427 16.2837C21.965 16.5197 21.8557 16.4563 21.6652 16.5479C21.4606 16.6465 21.5699 16.6641 21.4817 16.7874C21.4182 16.8719 21.3124 16.8613 21.3088 16.9917C21.3088 17.0057 21.3088 17.0269 21.3088 17.0374C21.2947 17.0515 21.2771 17.0656 21.263 17.0832C21.1854 17.1783 21.1254 17.3333 21.0407 17.4389V17.4847C21.009 17.4918 20.9455 17.5164 20.9067 17.5305C20.7691 17.5798 20.6879 17.6573 20.5503 17.7066C20.5503 17.7207 20.5503 17.7383 20.5503 17.7524C20.2857 17.77 20.3598 17.8757 20.3175 17.9214C20.2928 17.9461 20.2117 17.9109 20.1905 17.9567C20.1799 17.9848 20.2046 18.0447 20.1905 18.0623C20.1764 18.0905 20.1623 18.094 20.1446 18.1081L19.9224 17.9285C19.9153 17.844 20.0811 17.8968 20.0988 17.8158C20.1129 17.7524 20.0353 17.7207 19.9894 17.6855C19.9823 17.6784 19.9753 17.6679 19.9647 17.6608C19.9682 17.6467 19.9612 17.6291 19.9647 17.615C20.1905 17.5587 20.0211 17.2769 20.0106 17.1255C20.0035 17.0093 20.0741 16.6324 20.0988 16.5021C20.127 16.3718 20.2752 16.4528 20.0529 16.2802V16.2344C20.1058 16.2133 20.127 16.2485 20.1799 16.1605C20.2505 16.0407 20.187 15.9773 20.187 15.9703C20.187 15.9562 20.187 15.9421 20.187 15.9245C20.1975 15.8365 20.2293 15.7625 20.2328 15.6568C20.2328 15.6287 20.2328 15.597 20.2328 15.5688C20.2328 15.4772 20.2187 15.3469 20.187 15.2589C20.1975 15.2448 20.261 15.2342 20.2716 15.1884C20.2787 15.1532 20.2328 15.1321 20.2328 15.125C20.2505 14.8926 20.2928 14.8362 20.3457 14.639C20.3669 14.565 20.3986 14.2551 20.4127 14.241C20.4339 14.2234 20.5115 14.2481 20.5539 14.241C20.6068 14.2269 20.5715 14.1354 20.6068 14.153C20.6385 14.1671 20.6668 14.2375 20.7444 14.2445C20.8326 14.2516 20.882 14.1706 20.9208 14.1706C20.9666 14.1706 21.1607 14.3079 21.2312 14.2798C21.263 14.2692 21.2453 14.2023 21.2524 14.1988C21.2806 14.1811 21.3265 14.2762 21.3688 14.2833C21.4182 14.2903 21.457 14.2199 21.4958 14.2164C21.5311 14.2164 21.5241 14.2762 21.6511 14.2445C21.6652 14.2445 21.6793 14.234 21.6899 14.2234C21.7005 14.2164 21.711 14.2093 21.7181 14.2023C21.7675 14.3995 21.8663 14.1706 21.8804 14.1671C21.9121 14.1565 22.1132 14.2375 22.1838 14.1107C22.2402 14.1248 22.3073 14.1389 22.3602 14.1565C22.5401 14.2058 22.7624 14.3784 22.7871 14.3784C22.9352 14.3784 23.1116 14.2727 23.2951 14.4242C23.3057 14.3608 23.2563 14.3044 23.2528 14.2481C23.2457 14.1671 23.3445 14.2305 23.2069 14.072C23.2139 14.0614 23.2175 14.0508 23.221 14.0438C23.2704 13.9487 23.3762 14.0227 23.475 14.0297C23.475 14.0438 23.475 14.0579 23.475 14.0755C23.4785 14.2974 23.3445 14.4101 23.6973 14.2516C23.7114 14.322 23.6796 14.3713 23.6549 14.4277L23.6691 14.4206ZM23.8984 17.4213C23.8984 17.4213 23.8984 17.4143 23.8948 17.4108C23.9019 17.4108 23.9125 17.4108 23.9195 17.4037C23.9125 17.4072 23.9054 17.4143 23.8984 17.4213ZM24.6075 12.0116C24.6075 12.0116 24.6322 12.0116 24.6498 12.0222C24.6357 12.0222 24.6216 12.0152 24.6075 12.0116Z" fill="#20293F"/>
<path d="M0.617528 5.31635C0.681031 5.46427 0.635167 5.5488 0.793925 5.71785C0.726894 5.97847 0.942099 5.88338 1.0056 5.9503C1.03383 5.982 1.02324 6.08061 1.05852 6.12992C1.0938 6.18627 1.22081 6.20036 1.23845 6.29545C1.21375 6.30954 1.11144 6.26375 1.15025 6.36237C1.17847 6.4328 1.30901 6.45394 1.37251 6.47507C1.41132 6.48563 1.48188 6.51733 1.50657 6.52085C1.55949 6.5279 1.62652 6.52085 1.68297 6.52085C1.63005 6.6089 1.83467 6.65116 1.90523 6.65469C2.00049 6.65821 2.04282 6.64412 2.12749 6.6089C2.25803 6.55607 2.31447 6.4328 2.32859 6.4328C2.36739 6.4328 2.37092 6.61947 2.50498 6.56312C2.62141 6.51733 2.5579 6.44337 2.52615 6.38702C2.52262 6.37997 2.49087 6.34828 2.48029 6.34123C2.38151 6.28488 2.37092 6.31306 2.30389 6.29545C2.30389 6.26727 2.30389 6.23558 2.30389 6.2074C2.318 6.2074 2.33564 6.2074 2.34975 6.2074C2.45912 6.19683 2.47323 6.05948 2.66021 6.11935L2.48382 6.2074C2.68138 6.24614 2.50146 6.42928 2.75194 6.51733C2.8225 6.54198 2.8225 6.51733 2.84014 6.51733C2.86483 6.51733 2.90717 6.56664 2.94598 6.56312C2.98126 6.56312 2.96715 6.49268 2.99537 6.48211C3.18588 6.41519 3.34464 6.70752 3.55279 6.55959C3.5669 6.55959 3.58454 6.55959 3.59865 6.55959C3.62334 6.55607 3.65862 6.52085 3.68685 6.51381C3.72566 6.50676 3.78563 6.52437 3.82091 6.51381C4.00436 6.4645 4.08904 6.34123 4.10668 6.34123C4.19135 6.34476 4.32541 6.41872 4.42066 6.42576L4.3995 6.33771C4.45947 6.33771 4.51945 6.33771 4.57942 6.33771C4.63587 6.33771 4.7029 6.34476 4.75582 6.33771C4.83343 6.32715 4.84755 6.33067 4.88988 6.24966C4.89694 6.26023 4.88283 6.28488 4.88988 6.29545C4.97102 6.37997 4.92869 6.41872 5.06628 6.34123C5.0945 6.32362 5.12273 6.27432 5.15448 6.25318C5.28148 6.41167 5.34146 6.26023 5.37674 6.25318C5.43319 6.24262 5.50022 6.26023 5.55314 6.25318C5.75423 6.22501 5.87771 6.33419 5.95532 6.16514C5.98355 6.17922 6.01883 6.19331 6.04352 6.21092C6.06116 6.22149 6.08586 6.29897 6.11055 6.29897C6.17758 6.29897 6.13878 6.04539 6.31165 6.12287C6.29048 6.24966 6.35398 6.19331 6.39985 6.21092C6.47746 6.2391 6.51627 6.30954 6.57624 6.16514C6.59036 6.16514 6.60799 6.16514 6.62211 6.16514C6.63622 6.16514 6.65386 6.2074 6.66797 6.21092C6.74206 6.22149 6.74559 6.21092 6.75617 6.21092C6.86201 6.21797 6.96432 6.24614 7.06663 6.21092C7.1513 6.09822 6.78086 6.08061 6.89023 5.98904C6.91493 5.96791 7.10896 6.04539 7.15836 6.07709C7.20422 6.42224 7.303 6.17218 7.32064 6.16866C7.52526 6.11935 7.5676 6.14753 7.73694 6.21092C7.871 6.26023 7.87453 6.17922 7.93451 6.18275C7.97331 6.18275 8.00507 6.25318 8.06151 6.24966C8.10032 6.24614 8.14266 6.17922 8.18146 6.16866C8.31553 6.12287 8.45664 6.11583 8.53779 5.94678H8.58365L8.49545 6.12287C8.61187 6.1757 8.69654 6.12992 8.80591 6.12287C8.83413 6.12287 8.86589 6.12287 8.89411 6.12287C9.07051 6.11583 9.23632 6.1264 9.3845 6.12287C9.47269 6.12287 9.64204 5.98904 9.56089 5.94678V5.90099C9.58206 5.90803 9.62087 5.89395 9.64909 5.90099C9.64204 5.91156 9.59617 6.11583 9.60323 6.12287C9.6244 6.14753 9.81843 6.01721 9.82902 5.96086C9.83607 5.96086 9.84666 5.95382 9.85371 5.9503C9.89252 5.982 9.94191 6.09822 9.98425 6.11935C10.1113 6.17218 10.0936 6.063 10.136 5.98904C10.1606 5.94678 10.1924 5.91156 10.1818 5.85521C10.2206 5.87986 10.2771 5.88338 10.3159 5.90099C10.3476 5.91508 10.39 5.97143 10.4288 5.98904C10.4782 5.8059 10.6898 6.09118 10.7851 5.81294C10.8768 5.7742 10.8592 5.92917 10.9192 5.94678C11.0109 5.97143 11.0074 5.81999 11.0603 5.80942C11.1097 5.80238 11.526 5.83055 11.5648 5.85873C11.6988 5.95382 11.6001 5.99256 11.8752 5.99256C11.9775 5.99256 12.1716 5.99256 12.1434 5.85873C12.3339 6.16514 12.415 5.89395 12.4326 5.90451C12.4785 5.92564 12.4997 6.00665 12.609 5.99608C12.6337 5.99608 12.6337 5.86929 12.7219 5.90451C12.8207 5.96439 12.8313 5.93269 12.8983 5.9503C12.9266 6.13344 12.9724 6.08061 13.0747 5.99608C13.0994 6.00313 13.1418 5.98552 13.177 5.99608C13.2441 6.01721 13.1312 6.11935 13.3852 6.03835C13.4169 6.02778 13.4558 6.03835 13.4734 5.99256C13.4769 5.99961 13.5792 6.1264 13.5863 6.1264C13.7027 6.15809 13.6992 6.04891 13.738 6.03482C13.745 6.03482 13.7768 6.03482 13.7839 6.03482C13.7909 6.03482 13.805 6.09822 13.8579 6.11583C14.1367 6.19683 14.0837 6.06652 14.186 5.90451C14.2072 5.87282 14.2213 5.83055 14.2319 5.81646C14.3025 5.72137 14.3448 5.74603 14.366 5.72842C14.373 5.74603 14.4118 5.76716 14.4118 5.7742C14.4118 5.78829 14.4118 5.8059 14.4118 5.81999C14.4083 5.85168 14.3166 5.98904 14.366 6.04187C14.373 6.05243 14.5388 6.00665 14.6129 6.0313C14.7188 6.06652 14.687 6.18979 14.8105 6.17218V5.9503C14.7646 5.9503 14.7223 5.9503 14.6764 5.9503L14.7223 5.7742C14.8175 5.92564 14.9128 6.02778 15.1245 5.9503C15.1386 6.01369 15.195 6.13696 15.2585 6.08413L15.2374 5.9503C15.375 5.93973 15.5443 6.24262 15.5972 6.26023C15.6748 6.28488 15.7525 6.1757 15.8583 6.16866C15.9677 6.16161 16.077 6.22853 16.1934 6.21797C16.2993 6.2074 16.3698 6.08413 16.5039 6.17218C16.5039 6.18627 16.5039 6.21092 16.5039 6.21797C16.5357 6.27784 16.6133 6.25318 16.6697 6.27784C16.6874 6.28488 16.6874 6.34828 16.7085 6.3518C16.8179 6.36589 16.8496 6.24966 16.9484 6.26023C16.9625 6.27432 16.8849 6.36941 16.9026 6.39406C16.9767 6.47859 17.0014 6.30601 17.0155 6.30249C17.1178 6.29193 17.1813 6.40815 17.2801 6.39758C17.3048 6.39758 17.3012 6.30954 17.333 6.30601C17.4212 6.2884 17.5235 6.36589 17.6152 6.3518C17.5517 6.27784 17.6223 6.03835 17.7034 6.12992C17.7316 6.16161 17.6258 6.29545 17.7034 6.33067C17.7175 6.34123 17.8939 6.3518 17.9257 6.3518C17.9468 6.3518 18.0103 6.31306 18.0597 6.30601C18.1832 6.53494 18.2961 6.41519 18.4619 6.39406C18.5889 6.37997 18.5254 6.41167 18.6842 6.34828C18.723 6.4645 18.8535 6.43985 18.9523 6.43633C18.9558 6.4645 18.9911 6.47154 18.9982 6.48211C19.0335 6.53142 19.0476 6.58073 19.1322 6.57016C19.2275 6.55959 19.2416 6.45746 19.2663 6.39406C19.4709 6.35532 19.4674 6.57016 19.6226 6.5279C19.7002 6.50676 19.7673 6.44689 19.799 6.43985C19.8131 6.43985 19.8308 6.43985 19.8449 6.43985C19.926 6.54551 20.0848 6.53142 20.2012 6.57368C20.2259 6.58073 20.2894 6.76387 20.4305 6.59481C20.4623 6.55607 20.4199 6.48563 20.427 6.48211C20.5152 6.42576 20.5928 6.65821 20.6316 6.66173C20.6916 6.66173 20.7833 6.59129 20.8609 6.58073C20.9597 6.57016 21.0479 6.58073 21.1396 6.57016C21.1538 6.57016 21.1679 6.57016 21.1855 6.57016C21.4677 6.55959 21.7041 6.59481 21.9864 6.61594L22.1627 6.66173C22.2651 6.66173 22.3709 6.66173 22.4732 6.66173C22.5826 6.65116 22.6602 6.62651 22.7025 6.58425C22.6849 6.64412 22.7131 6.66877 22.7872 6.66173C22.8154 6.66173 22.8472 6.66173 22.8754 6.66173H23.0095C23.0095 6.66173 23.0412 6.62299 23.0553 6.61594C23.1753 6.63003 23.2952 6.63708 23.4116 6.61594C23.4857 6.62651 23.6092 6.66173 23.6798 6.66173C23.7433 6.6406 23.7927 6.53846 23.7256 6.5279C23.775 6.48563 23.8421 6.61947 23.7715 6.3518C23.8773 6.61947 24.1243 6.34123 23.8597 6.26375C23.8526 6.26375 23.8456 6.26375 23.8385 6.26375C23.8421 6.26375 23.8456 6.26375 23.8491 6.26375C23.8526 6.26375 23.8562 6.26375 23.8632 6.26375C23.8773 6.26375 23.895 6.26375 23.9091 6.26375C24.022 6.29193 24.1737 6.30249 24.1313 6.39758V6.44337C24.1313 6.44337 24.2301 6.45041 24.2654 6.44337C24.3077 6.3518 24.2901 6.18275 24.1772 6.22149C24.1737 6.19683 24.1031 6.18275 24.1772 6.08765C24.2795 6.31306 24.3677 6.37293 24.4453 6.26375C24.5829 6.28488 24.5159 6.26375 24.6217 6.21797C24.5194 6.05948 24.3466 6.26375 24.4453 5.9503C24.4489 6.11583 24.7135 6.16514 24.7911 6.00313L24.8899 5.99256C24.904 5.93621 24.8899 5.8376 24.8899 5.77068C24.8899 5.70024 24.8793 5.61219 24.8899 5.50301C24.8899 5.48892 24.8899 5.47484 24.8899 5.45723C24.8969 5.38679 24.9181 5.26 24.9357 5.18956C24.9428 5.16138 24.9287 5.12616 24.9357 5.10151C24.9463 5.06277 24.9498 5.06981 24.9816 5.05573V5.00994C24.9322 4.92541 24.7523 4.81976 24.7135 4.74227C24.7064 4.73171 24.717 4.71058 24.7135 4.69649C24.8899 4.90428 25.1615 4.8268 25.0239 4.56265C25.0627 4.54857 25.0627 4.53448 25.0239 4.51687C25.0133 4.40769 24.9992 4.30203 24.9781 4.20694C24.9675 4.19285 24.9463 4.17524 24.9322 4.16115C24.9181 4.01675 24.8757 3.97449 24.7981 4.02732C24.8052 4.0238 24.7911 3.98858 24.7981 3.98153C24.9181 4.05549 24.9463 3.89701 24.8863 3.80544C24.8863 3.80191 24.8863 3.79839 24.8828 3.79487C25.0028 3.73852 24.9922 3.48142 24.844 3.53777C24.8052 3.49551 24.7981 3.50607 24.7558 3.49198C24.7699 3.4779 24.784 3.46381 24.8017 3.4462C24.8475 3.40041 24.8652 3.37224 24.8899 3.31236C24.8687 3.1574 24.7734 3.12218 24.7135 3.26658C24.6993 3.20671 24.724 3.11161 24.7135 3.0447L24.7629 3.05526C24.6993 3.12922 24.8475 3.21375 24.8934 3.13275C24.8934 3.11866 24.8934 3.10457 24.8934 3.08696C24.8863 2.98482 24.8722 2.91791 24.8475 2.81929C24.8616 2.76999 24.8475 2.68194 24.8017 2.55163C24.7699 2.49527 24.7593 2.47062 24.7135 2.41779C24.7064 2.47414 24.6711 2.59741 24.6676 2.63967H24.6217C24.6358 2.52697 24.4877 2.45653 24.4665 2.59389C24.4453 2.5798 24.4206 2.55163 24.3995 2.5481C24.4736 2.48823 24.5335 2.4354 24.6217 2.53049C24.6747 2.53049 24.6535 2.21704 24.5759 2.28044C24.5653 2.26283 24.5476 2.24874 24.53 2.23465C24.3854 2.10786 24.2513 1.95994 24.1278 1.79089C24.1137 1.78032 24.1031 1.75567 24.082 1.7451C24.0961 1.62183 23.8914 1.57605 23.8138 1.65705C23.7644 1.62183 23.7609 1.61127 23.7256 1.569C23.6727 1.50913 23.6374 1.47743 23.6374 1.569C23.6127 1.57957 23.6022 1.59014 23.6127 1.6007C23.5669 1.57957 23.5104 1.57253 23.461 1.569C23.5069 1.50209 23.4857 1.49152 23.4152 1.52322C23.3905 1.50561 23.3481 1.49857 23.327 1.47743C23.2494 1.42461 23.0694 1.47039 23.0588 1.56548C23.0236 1.57605 22.9601 1.55492 22.9248 1.56548C22.8613 1.58309 22.826 1.73806 22.7907 1.69932C22.7307 1.62536 22.8542 1.62183 22.6108 1.61127C22.5685 1.61127 22.5226 1.61127 22.4767 1.61127C22.5155 1.59366 22.5155 1.57957 22.4767 1.56548C22.4556 1.57253 22.4168 1.56196 22.3885 1.56548C22.3462 1.47743 22.1733 1.46335 22.1663 1.56548C22.0816 1.49857 21.8135 1.62536 21.817 1.7451C21.7112 1.7451 21.6371 1.80145 21.69 1.90359L21.6336 1.92824C21.5454 2.01981 21.4819 2.14308 21.4395 2.30157C21.6441 2.36496 21.7359 2.44597 21.5877 2.63263C21.6829 2.35792 21.5454 2.27691 21.3196 2.45653C21.3196 2.47062 21.3196 2.48471 21.3196 2.50232C21.3196 2.59389 21.3407 2.63967 21.3866 2.63967C21.3231 2.65376 21.3019 2.6925 21.316 2.72068C21.2278 2.73829 21.1855 2.79464 21.189 2.90382C21.1784 2.91791 21.1502 2.932 21.1432 2.94961C21.1114 3.0447 21.0903 3.22079 21.1432 3.30532C20.9244 3.36872 21.0479 3.3335 20.9491 3.46733C20.8927 3.54129 20.8221 3.51312 20.8292 3.7033C20.621 3.49903 20.5928 3.75261 20.4729 3.83713C20.4976 3.66808 20.3423 3.78783 20.2506 3.83713C20.1906 3.86883 20.1342 3.94984 20.0848 3.96392C20.0354 3.97449 19.9789 3.93575 19.9225 3.94279C19.8872 3.94279 19.8555 3.99914 19.8272 3.99914C19.7637 4.00267 19.6332 3.83361 19.4921 3.92518C19.4603 3.91109 19.3721 3.90053 19.3157 3.8794C19.2169 3.8477 19.1922 3.81952 19.0476 3.79135C19.0017 3.78078 18.8782 3.74909 18.8712 3.74556C18.8535 3.66104 18.7865 3.67865 18.7371 3.65751C18.73 3.65047 18.7159 3.64695 18.7054 3.64343C18.5395 3.56947 18.5254 3.56242 18.3349 3.65751C18.3914 3.48846 18.3773 3.48494 18.2467 3.38985C18.1127 3.29476 18.0315 3.35463 18.0245 3.34758C18.0174 3.34054 18.0139 3.24545 17.9786 3.16797C17.9468 3.09753 17.8939 3.04118 17.8904 2.96369C17.8904 2.96017 17.8939 2.95313 17.8975 2.94961L17.9786 2.99187L18.0245 2.85803C18.0245 2.85803 18.0245 2.82986 18.0245 2.81225C18.0139 2.78407 18.0033 2.77703 17.9927 2.7876L18.0703 2.63263C18.0703 2.5798 18.028 2.50936 18.0245 2.45653C17.9504 2.41427 17.908 2.42484 17.8728 2.45653C17.8622 2.43892 17.8551 2.42131 17.841 2.4037C17.8128 2.28044 17.781 2.35792 17.7528 2.19239C17.7457 2.14308 17.6646 2.13604 17.774 2.05855L17.8833 2.23465V1.87894C17.8622 1.86133 17.9257 1.86133 17.7951 1.79089C17.7634 1.78736 17.7422 1.8578 17.7352 1.88246C17.7775 1.7134 17.5305 1.67466 17.4847 1.79089L17.3965 1.65705C17.3965 1.65705 17.3647 1.65705 17.3506 1.65705C17.3083 1.65705 17.2271 1.69227 17.2166 1.7451C17.1601 1.73101 16.9167 1.72045 16.8144 1.69932C16.8003 1.69932 16.7826 1.69932 16.7685 1.69932C16.7615 1.69579 16.7544 1.69227 16.7473 1.69227C16.7226 1.68171 16.6909 1.6641 16.6344 1.65705C16.7191 1.59718 16.7544 1.62536 16.6803 1.52322C16.6662 1.53379 16.5462 1.51618 16.5039 1.52322C16.4933 1.57253 16.5462 1.62536 16.5498 1.65705C16.5533 1.69932 16.5498 1.7451 16.5498 1.79089C16.3875 1.54435 16.3381 1.65001 16.2252 1.65705C16.2146 1.65705 16.204 1.65705 16.1934 1.65705C16.1405 1.65353 15.9077 1.49504 15.883 1.52322C15.8759 1.53379 15.8759 1.66058 15.8936 1.69227C15.9077 1.71693 15.9888 1.67114 15.9712 1.7451C15.7242 1.78032 15.8336 1.71693 15.7913 1.52322C15.7136 1.50561 15.763 1.59014 15.7454 1.60775C15.7313 1.62536 15.6748 1.56548 15.6607 1.56548C15.7383 1.49152 15.7101 1.44574 15.5725 1.43165C15.3785 1.47039 15.2268 1.48448 15.0398 1.47743C14.9939 1.54787 15.0927 1.58309 14.9516 1.56548C14.7646 1.4563 14.8352 1.6007 14.8175 1.61127C14.7964 1.62536 14.7293 1.57253 14.7047 1.57253C14.6729 1.57253 14.7082 1.69579 14.5953 1.61127C14.5741 1.63944 14.6764 1.82963 14.6376 1.87894C14.627 1.89302 14.4295 1.78736 14.3448 1.96698C14.3201 2.01981 14.4118 2.08321 14.4048 2.16069C14.4012 2.22056 14.3342 2.291 14.3236 2.41427C14.313 2.56219 14.2919 2.61854 14.4577 2.59389C14.4083 2.72068 14.2742 2.77351 14.3942 2.90382C14.4471 2.96369 14.5882 2.932 14.4154 3.08344C14.4083 3.09048 14.2002 3.12922 14.3272 3.19614C14.4118 3.24193 14.6094 3.19614 14.6376 3.30532C14.4718 3.24193 14.4577 3.38985 14.4365 3.39337C14.3201 3.42154 14.4189 3.3018 14.3272 3.30532C14.3236 3.35111 14.3025 3.39689 14.2813 3.43915C14.2601 3.48142 14.1931 3.50607 14.1896 3.59764C14.1896 3.68569 14.246 3.71739 14.2637 3.78078C14.2742 3.816 14.2319 3.87588 14.2354 3.8794C14.2425 3.88996 14.3766 3.90405 14.4224 3.9287C14.4683 3.95336 14.4859 4.00267 14.5036 4.01323C14.4824 4.06958 14.4789 4.13298 14.4577 4.18933H14.4118C14.3907 4.14002 14.2919 4.0731 14.3236 3.96745H14.2813V4.14354L14.1931 4.09776C14.119 4.05549 14.1261 3.98506 14.1049 3.92166C14.0978 3.89701 14.112 3.84066 14.1049 3.83361C14.0873 3.81952 13.7556 3.95336 13.6604 3.8794C13.6392 3.93223 13.7133 4.04493 13.7062 4.05549C13.6145 4.15059 13.6322 3.94279 13.5722 3.96745C13.5404 4.1048 13.5651 4.12945 13.4381 4.14354C13.4275 4.11889 13.4593 4.05197 13.4311 4.02028C13.4205 4.00971 13.2088 3.92518 13.1735 3.92166C13.1241 4.0731 12.9936 4.11889 12.7784 4.05902L12.729 4.14354C12.729 4.14354 12.669 4.06254 12.5949 4.09776C12.5773 4.1365 12.6232 4.20342 12.5067 4.18581V3.96392L12.0622 4.05197C12.041 4.08015 12.1292 4.12593 12.1504 4.14002C12.1257 4.15411 12.1045 4.18933 12.0622 4.18581C12.0516 4.12945 11.9987 4.15411 11.974 4.14002C11.8435 4.08015 11.7518 4.06606 11.6177 4.14002C11.5895 4.13298 11.5542 4.11185 11.5295 4.09424C11.5154 4.08719 11.5013 4.06254 11.4836 4.04845C11.4836 3.99914 11.4448 3.95336 11.4378 3.91462C11.4307 3.87588 11.4483 3.81248 11.4378 3.78078C11.3637 3.56594 11.2296 3.54481 11.2155 3.78078C11.1732 3.78078 11.1132 3.78783 11.0814 3.78078C11.0603 3.77374 11.0497 3.74204 11.0356 3.735C11.0285 3.73148 11.0426 3.69626 11.0356 3.68921C11.272 3.72443 11.085 3.60821 11.1308 3.45676C11.1449 3.40746 11.2014 3.37928 11.212 3.35815C11.2261 3.32293 11.1661 3.34758 11.1414 3.31941C11.1202 3.29476 11.1273 3.24897 11.1238 3.24545C11.2649 3.25249 11.2296 3.17149 11.2578 3.09048C11.3531 2.82986 11.3178 2.67489 11.3002 2.44597C11.3002 2.43188 11.3002 2.41779 11.3002 2.40018C11.2402 2.36848 11.1802 2.34031 11.1238 2.31213C11.1061 2.30157 11.0532 2.3227 11.0356 2.31213C11.025 2.24522 11.0497 2.15012 11.0356 2.09025L11.212 2.02333C11.1449 1.91063 11.0356 1.91063 10.9439 1.86837C10.8768 1.83667 10.8592 1.80145 10.7675 1.78032C10.7533 1.78032 10.7392 1.78032 10.7216 1.78032C10.5875 1.59014 10.5311 1.69227 10.5205 1.86837C10.4782 1.81202 10.4182 1.7768 10.3653 1.73454C10.3794 1.57605 10.2594 1.51618 10.0089 1.55844C9.99836 1.54435 9.97366 1.53026 9.96308 1.51265C9.91722 1.44926 9.86077 1.49504 9.82902 1.55844C9.79727 1.569 9.70201 1.60422 9.69496 1.60422C9.74435 1.45982 9.63851 1.41756 9.3845 1.47039C9.37038 1.47039 9.35274 1.47039 9.33863 1.47039C9.25043 1.53731 9.14812 1.52322 9.02817 1.42461C8.99642 1.41756 8.92586 1.39291 8.89411 1.37882C8.91881 1.57605 8.7918 1.37882 8.73888 1.37882C8.68596 1.37882 8.68596 1.488 8.67185 1.51265C8.63304 1.58309 8.58012 1.64297 8.58365 1.73454L8.49545 1.6007C8.4637 1.57957 8.42489 1.6641 8.40725 1.68875C8.37197 1.87541 8.4637 1.79089 8.5272 1.83315C8.5519 1.85076 8.53779 1.90711 8.54131 1.91063V2.04447C8.49898 2.06208 8.49898 2.22056 8.31905 2.04447C8.31905 2.10434 8.31905 2.16421 8.31905 2.22056C8.31905 2.28044 8.31905 2.34031 8.31905 2.39666C8.31905 2.44949 8.37197 2.51288 8.36492 2.57276C8.18852 2.55867 7.97684 2.42131 7.8322 2.57276C7.79692 2.52697 7.55349 2.30157 7.51821 2.28044C7.48998 2.26635 7.48646 2.28044 7.47587 2.30509C7.39473 2.49527 7.49704 2.56571 7.63816 2.66081L7.60993 2.74885C7.60993 2.74885 7.60993 2.78055 7.60993 2.79464C7.60993 2.80873 7.60993 2.82282 7.60993 2.84042C7.59935 2.91439 7.57113 2.932 7.56407 3.06231C7.56407 3.10105 7.51468 3.17149 7.52526 3.1891C7.52526 3.19614 7.59229 3.21375 7.62405 3.24193C7.65227 3.26658 7.64521 3.32293 7.65227 3.32645C7.63816 3.31589 7.48998 3.36167 7.48293 3.37928C7.45823 3.41802 7.47234 3.5272 7.4794 3.61877C7.46882 3.66456 7.46882 3.7033 7.4794 3.72443C7.46176 3.74204 7.0631 3.60116 7.34534 3.81248C7.33828 3.81248 7.31359 3.90757 7.23597 3.90405C7.16541 3.90053 7.11955 3.78783 7.01724 3.85474C6.96432 3.88996 7.00313 3.92518 6.99254 3.94631C6.90082 3.95336 6.77028 3.91462 6.70678 3.98858C6.69619 4.00267 6.73147 4.04141 6.68561 4.08015C6.65386 4.09424 6.62211 4.10832 6.59036 4.12241V4.1682C6.56566 4.15763 6.46335 4.12241 6.45629 4.12241C6.44571 4.12241 6.36809 4.28794 6.24109 4.19989C6.2305 4.19285 6.17758 3.96745 6.14231 4.21046L6.00824 4.16467C5.79304 4.04493 5.83537 4.21046 5.81068 4.21046C5.80009 4.21046 5.76834 4.17524 5.74365 4.16467C5.73659 4.12593 5.7507 4.0731 5.74365 4.03084C5.64486 4.02027 5.52844 4.04493 5.43319 4.03084C5.4226 4.03084 5.38732 3.9921 5.34499 3.98506C5.27796 3.97801 5.04511 3.93223 5.03453 3.93927C4.98866 3.97801 5.21093 4.23159 5.30265 4.11537V4.16115C5.2709 4.16115 5.13331 4.29851 5.03453 4.2492C5.031 4.2492 5.02394 4.2492 5.02042 4.2492C4.98866 4.24216 4.95691 4.20694 4.94633 4.20694C4.97102 4.01323 4.80168 3.92518 4.63587 3.89701C4.60412 3.88996 4.53356 3.89349 4.50181 3.89701V3.85122L4.45594 3.80544C4.4383 3.7667 4.42419 3.7667 4.41008 3.80544V3.75965C4.51239 3.80896 4.53709 3.67512 4.45594 3.62582C4.49475 3.60116 4.49475 3.58708 4.45594 3.58003C4.463 3.49198 4.45241 3.40041 4.45594 3.31236H4.41008C4.41008 3.31236 4.41008 3.28419 4.41008 3.26658C4.41361 3.24193 4.41008 3.20671 4.41008 3.17853C4.41008 3.15036 4.41713 3.11514 4.41008 3.09048C4.39597 3.03061 4.39244 3.04118 4.36422 3.00243C4.3501 2.9813 4.30424 2.95665 4.27602 2.95665V2.91439C4.55473 2.93904 4.44183 2.8686 4.41008 2.6925C4.44183 2.62559 4.44183 2.53754 4.41008 2.42484C4.40302 2.40018 4.41713 2.36144 4.41008 2.33679C4.39597 2.28748 4.33952 2.12195 4.32541 2.0973C4.29718 2.04799 4.24427 2.07969 4.23368 2.07264C4.20546 2.05503 4.17018 2.04799 4.14548 2.02686C4.11373 2.00573 4.08551 1.96698 4.05728 1.93881C4.06081 1.93176 4.06434 1.92472 4.06787 1.91768C4.09609 1.87541 4.15959 1.82258 4.14548 1.80497C4.14195 1.79793 4.0467 1.79089 4.00789 1.74158C3.94086 1.65705 4.09962 1.63944 3.83502 1.49504C3.81738 1.48448 3.80327 1.46687 3.78916 1.44926C3.76446 1.4563 3.72918 1.44574 3.70096 1.44926C3.69743 1.43869 3.66921 1.42108 3.6551 1.40347C3.58101 1.39995 3.50692 1.41052 3.43284 1.40347C3.40461 1.40347 3.37286 1.40347 3.34464 1.40347C3.33758 1.40347 3.25644 1.32247 3.21057 1.35769C3.19999 1.36473 3.21763 1.42461 3.21057 1.44574C3.1506 1.39995 3.09415 1.34712 3.00948 1.35417C2.92128 1.36121 2.91423 1.43517 2.89659 1.44574C2.87542 1.45982 2.82603 1.488 2.80839 1.49152C2.56496 1.49857 2.63905 1.39643 2.318 1.53731C2.21569 1.58309 1.96873 1.6641 2.18394 1.67114C2.09574 1.68523 1.96168 1.73101 1.87348 1.75919C1.67944 1.82611 1.61594 1.89302 1.51716 2.06912C1.5101 2.07969 1.4466 2.08673 1.44307 2.13252C1.44307 2.17478 1.49599 2.24522 1.46424 2.28396C1.4466 2.30509 1.38662 2.28396 1.38309 2.291C1.46071 2.19239 1.24903 2.1466 1.24903 2.33679C1.17494 2.36496 1.11144 2.39314 1.02677 2.38257C1.01266 2.43892 1.06205 2.48119 1.07263 2.51641C1.07263 2.53049 1.07263 2.54458 1.07263 2.56219L0.896236 2.60798C0.896236 2.60798 0.853901 2.63263 0.850373 2.69603C0.850373 2.74181 0.935044 2.85099 0.829205 2.87212C0.815093 2.87212 0.783341 2.83338 0.762174 2.82986C0.790397 2.88269 0.800981 2.98835 0.808037 3.05174C0.829205 3.26658 0.765702 3.54129 0.765702 3.75965H0.899764C0.804509 3.87588 0.949155 3.83713 0.942099 3.87235C0.913876 4.02732 0.822149 3.77726 0.719838 3.93927C0.59636 4.13298 0.695143 4.19285 0.673975 4.29499C0.673975 4.30203 0.614 4.33725 0.585776 4.42882C0.536385 4.58026 0.515217 4.77749 0.539912 4.9395C0.557552 5.03459 0.621055 5.03812 0.628111 5.04868C0.603416 5.22478 0.497577 5.09447 0.494049 5.16138C0.532857 5.20717 0.59636 5.20012 0.628111 5.27409L0.617528 5.31635ZM24.5723 4.41121C24.5723 4.43234 24.5653 4.45347 24.5582 4.47461L24.5723 4.41121ZM23.5351 2.20648V2.23465C23.5351 2.23465 23.5351 2.21352 23.5351 2.20648ZM23.3129 5.31635C23.3129 5.31635 23.2988 5.31635 23.2917 5.31635C23.2952 5.31635 23.3023 5.31635 23.3129 5.31635ZM22.9318 2.75238C22.9318 2.75238 22.9213 2.74533 22.9142 2.74181C22.9424 2.71716 22.9495 2.72068 22.9318 2.75238ZM22.7343 6.47155V6.42576C22.7343 6.42576 22.766 6.42576 22.7801 6.42576C22.7625 6.45041 22.7484 6.47507 22.7343 6.49268C22.7343 6.48563 22.7343 6.47859 22.7343 6.46802V6.47155ZM22.6461 5.53823C22.6461 5.53823 22.639 5.54175 22.6355 5.54528C22.639 5.54528 22.6426 5.54175 22.6461 5.53823ZM22.0181 5.64037C22.0181 5.64037 22.0252 5.65093 22.0216 5.65798C22.0216 5.65798 22.0146 5.66502 22.011 5.66502C22.011 5.65445 22.0146 5.64389 22.0146 5.63685L22.0181 5.64037ZM20.5258 5.46075C20.5046 5.45723 20.4834 5.4537 20.4658 5.45018C20.4905 5.45018 20.5081 5.45723 20.5258 5.46075ZM19.4427 5.36213V5.40792C19.4427 5.40792 19.4427 5.37974 19.4427 5.36213ZM18.4019 4.81271L18.3737 4.78454C18.3737 4.78454 18.3914 4.80215 18.4019 4.81271ZM17.7458 3.46029L17.7528 3.44972V3.46029C17.7528 3.46029 17.7493 3.46029 17.7458 3.46029ZM9.90311 1.75919C9.90311 1.75919 9.91369 1.76271 9.92074 1.76271C9.91722 1.76623 9.91016 1.77328 9.90663 1.78032C9.90663 1.77328 9.90311 1.76976 9.89958 1.76623C9.89958 1.76623 9.89958 1.75919 9.90311 1.75567V1.75919ZM9.2081 5.93621H9.11284C9.13401 5.92564 9.16223 5.92564 9.2081 5.93621ZM8.27319 5.8059C8.27319 5.8059 8.27319 5.82351 8.27319 5.83407C8.27319 5.82351 8.27319 5.81294 8.27319 5.8059ZM7.57113 3.58355C7.57113 3.58355 7.56407 3.5906 7.56407 3.59412C7.56407 3.59412 7.56407 3.58708 7.56407 3.58355C7.56407 3.58355 7.57113 3.58355 7.57465 3.58355H7.57113ZM6.49157 5.53823V5.55936C6.49157 5.55936 6.49157 5.54527 6.49157 5.53823ZM5.21093 4.62253C5.21093 4.62253 5.21093 4.62957 5.21093 4.63309C5.21093 4.63661 5.20387 4.64366 5.20387 4.6507C5.20387 4.64014 5.21093 4.62957 5.21445 4.62253H5.21093ZM4.54061 4.29146H4.53356C4.53356 4.29146 4.53356 4.29146 4.53356 4.28442C4.53356 4.28442 4.54061 4.28794 4.54061 4.29146ZM4.48769 4.29499C4.48064 4.26681 4.47711 4.24216 4.47711 4.2175L4.48769 4.29499ZM3.77858 2.87212C3.77858 2.87212 3.76799 2.86156 3.76094 2.85451L3.77858 2.87212ZM3.64451 3.53777H3.59865C3.59865 3.53777 3.62687 3.53777 3.64451 3.53777ZM3.12238 6.09822C3.09415 6.09822 3.0624 6.09822 3.02359 6.11583C3.07298 6.0947 3.10474 6.09118 3.12238 6.09822ZM2.35328 3.05174C2.35328 3.05174 2.32153 3.07992 2.30742 3.09753L2.35328 3.05174ZM1.19611 3.18558C1.19611 3.1574 1.19611 3.1257 1.19611 3.10105C1.19964 3.12922 1.19964 3.1574 1.19611 3.18558Z" fill="#20293F"/>
<path d="M11.9813 3.09405C11.999 3.14336 11.9708 3.2138 12.0096 3.31594C12.0978 3.54838 12.1824 3.45329 12.2742 3.51669C12.4753 3.66109 12.4047 3.67165 12.6799 3.7597C12.7328 3.77731 12.9903 3.85479 13.008 3.85127C13.0433 3.84423 13.0574 3.75266 13.0997 3.71391C13.1667 3.65404 13.4278 3.51316 13.4349 3.44625C13.4454 3.37229 13.3114 3.22789 13.3008 3.13632C13.329 3.12927 13.3467 3.12575 13.3467 3.09053C13.3749 3.09053 13.4102 3.09405 13.4349 3.09053C13.449 3.09053 13.4701 3.09405 13.4807 3.09053C13.6218 3.02009 13.7277 2.86513 13.5689 2.73481C13.6042 2.73129 13.6748 2.7489 13.6959 2.72777C13.7877 2.64677 13.7771 1.7698 13.6571 1.70993C13.6465 1.70289 13.6289 1.71345 13.6113 1.70993C13.6007 1.68175 13.5089 1.67119 13.5231 1.64301C13.5866 1.50214 13.643 1.5127 13.4948 1.31195C13.4666 1.27321 13.3467 1.2556 13.389 1.22038C13.4243 1.19221 13.5125 1.21686 13.5548 1.10063C13.5689 1.05837 13.4984 0.829445 13.4772 0.776616C13.5513 0.632217 13.4913 0.473729 13.4313 0.332852C13.4243 0.315242 13.3784 0.290588 13.3431 0.199018C13.322 0.142667 13.3149 0.128579 13.2973 0.0651842C13.1914 0.0158771 13.0503 0.0229209 12.8774 0.0863159C12.754 -0.0193424 12.6763 -0.0299082 12.5211 0.0651842C12.4435 0.0264429 12.3412 0.00178929 12.2706 0.0651842C12.2248 0.146189 12.2777 0.170842 12.2706 0.199018C12.26 0.237759 12.2389 0.290588 12.2248 0.332852C12.2212 0.346939 12.2283 0.364549 12.2248 0.378637C12.2001 0.413856 12.1824 0.442032 12.1648 0.470207C12.0978 0.54769 12.0166 0.604041 12.0025 0.69209C11.9884 0.790704 12.0272 0.903406 11.9566 1.00202C12.0201 1.01611 12.0766 0.959757 12.133 0.959757C12.133 0.987933 12.133 1.01963 12.133 1.04781H11.9108C11.999 1.25912 11.8755 1.21686 11.8649 1.25208C11.8049 1.46692 11.939 1.34717 11.999 1.44578C11.7273 1.50566 11.8014 1.74163 11.7767 1.93533C11.7697 1.94942 11.7697 1.96351 11.7697 1.98112C11.7344 2.2347 11.7132 2.3157 11.7767 2.60098C11.8261 2.82639 11.8931 2.88978 11.9708 3.09053L11.9813 3.09405ZM12.7645 2.05508C12.7645 2.05508 12.761 2.08326 12.7645 2.09382V2.08678C12.7645 2.07621 12.7645 2.06565 12.7681 2.05508H12.7645Z" fill="#20293F"/>
<path d="M19.5979 3.67163L19.5767 3.75968C19.5979 3.76672 19.7002 3.92873 19.8448 3.84773C19.8801 3.70685 19.679 3.77025 19.5979 3.67163Z" fill="#20293F"/>
<path d="M25.183 11.8461L25.2148 11.825C25.2112 11.7862 25.1936 11.751 25.183 11.7123C24.9149 11.7581 25.1759 11.832 25.183 11.8461Z" fill="#20293F"/>
<path d="M8.22761 2.03049C8.22055 2.00584 8.18175 1.96005 8.18175 1.94244C7.9489 1.99527 7.99829 2.3369 8.22761 2.03049Z" fill="#20293F"/>
<path d="M18.5078 2.16072H18.7301L18.6842 1.98463C18.7583 1.94941 18.8359 2.09381 18.8606 2.07268C18.8783 2.05859 18.8254 1.96702 18.9065 1.98463C18.9171 2.05154 18.8924 2.14664 18.9065 2.20651C18.9171 2.24525 18.9771 2.29808 18.9947 2.34034C18.8042 2.30865 18.7936 2.34739 18.6842 2.47418C18.6878 2.34386 18.7089 2.34386 18.596 2.34034C18.4479 2.34034 18.529 2.36852 18.5078 2.47418C18.5149 2.48122 18.5396 2.46713 18.5537 2.47418C18.5502 2.51644 18.5608 2.56927 18.5537 2.60801C18.5502 2.63619 18.4973 2.63619 18.5255 2.73832C18.5431 2.80524 18.6772 3.07995 18.7301 3.09756C18.7301 3.27366 18.7795 3.29479 18.9065 3.36523C18.9947 3.41453 19.0617 3.46384 19.1746 3.45328L19.1288 3.58711C19.3263 3.49554 19.3687 3.62585 19.3969 3.6329C19.4251 3.63994 19.598 3.63994 19.6191 3.6329C19.6615 3.61881 19.6191 3.51667 19.8414 3.4568C19.8767 3.44623 19.9684 3.40749 19.9755 3.41101C20.0566 3.4885 19.8873 3.50963 19.8837 3.52371C19.859 3.69629 20.0601 3.7139 20.0637 3.65755C20.0637 3.62585 20.0249 3.55189 20.0707 3.50963C20.1166 3.46384 20.6176 3.56246 20.2859 3.34762C20.3388 3.22083 20.3671 3.22083 20.5082 3.23492C20.4094 3.06586 20.5611 2.95668 20.7305 2.92498C20.7234 2.74537 20.7163 2.66436 20.7305 2.48122C20.734 2.40374 20.7305 2.27695 20.7305 2.25934C20.7446 2.15016 20.8292 1.97758 20.8222 1.88953C20.8222 1.88249 20.7375 1.77683 20.7305 1.76979C20.7199 1.75922 20.6423 1.79092 20.6387 1.74866C20.6387 1.65709 20.7551 1.62891 20.7587 1.57256C20.7587 1.56552 20.7163 1.51621 20.7163 1.42816C20.7163 1.31194 20.6246 1.39294 20.5505 1.37181C20.547 1.37181 20.5047 1.37533 20.5082 1.35068C20.6705 1.22389 20.7022 1.10766 20.4623 1.10766C20.4623 1.09358 20.4623 1.07597 20.4623 1.06188C20.5294 0.885781 20.5505 0.73786 20.4588 0.565285C20.4341 0.5195 20.3882 0.505412 20.3741 0.48428C20.3388 0.258876 20.0601 0.0651693 19.8414 0.082779C19.7885 0.0933448 19.7215 0.082779 19.665 0.082779C19.5592 0.082779 19.3898 0.142652 19.4427 0.258876C19.3863 0.2307 19.2381 0.184915 19.1746 0.170828C19.1605 0.170828 19.1429 0.170828 19.1288 0.170828C19.1252 0.213091 19.1358 0.262398 19.1288 0.304661C19.1252 0.332837 19.1358 0.368056 19.1288 0.39271C19.1182 0.449061 19.097 0.48428 19.0829 0.526544C19.0829 0.537109 19.0406 0.554719 19.0264 0.582895C19.0018 0.642768 19.0476 0.716728 18.9982 0.773079C18.9065 0.878738 18.7407 0.780123 18.7266 0.970308C18.723 1.01962 18.716 1.08301 18.7724 1.10414C18.7654 1.11823 18.7865 1.16754 18.7654 1.18515C18.7372 1.20628 18.6525 1.18515 18.6419 1.19219C18.596 1.23798 18.7336 1.39998 18.6243 1.44929C18.6137 1.44929 18.6066 1.45634 18.596 1.45634H18.5502C18.5502 1.45634 18.5502 1.48451 18.5502 1.50212C18.5466 1.54438 18.5502 1.59017 18.5502 1.63595C18.5431 1.79092 18.4655 1.99167 18.5043 2.16777L18.5078 2.16072ZM18.7301 2.69606C18.7266 2.67845 18.7266 2.66436 18.7301 2.65027C18.7372 2.64323 18.7407 2.63619 18.7477 2.62914C18.7407 2.65027 18.7372 2.67141 18.7336 2.69254L18.7301 2.69606ZM20.3777 1.98463C20.3565 1.97406 20.3353 1.97758 20.3177 1.99519C20.3777 1.92475 20.3988 1.92123 20.3777 1.98463ZM19.5309 1.13936H19.4427C19.471 1.13936 19.5027 1.13936 19.5309 1.13936Z" fill="#20293F"/>
<path d="M4.88648 1.64309C4.89353 1.68183 4.96056 1.69592 4.9782 1.72057C4.90059 1.66422 4.88648 1.69592 4.93234 1.80862C4.93234 1.82271 4.93234 1.8368 4.93234 1.8544C4.93234 1.89667 4.88295 1.94598 4.91117 1.98824C4.91823 1.9988 5.08051 2.13968 5.11227 2.16434C5.16518 2.21012 5.31689 2.21012 5.24633 2.29817C5.23574 2.31226 5.17224 2.27352 5.15813 2.32282C5.12638 2.43553 5.26397 2.34748 5.24633 2.432C5.09463 2.41439 5.20046 2.51653 5.17224 2.60106C5.15107 2.66093 4.9394 2.69615 5.20046 2.79124C5.21458 2.88281 5.07699 2.79829 5.06287 2.85816C5.04523 2.94268 5.04171 3.154 5.1546 3.18922C5.1546 3.20331 5.15107 3.22092 5.1546 3.23501C5.21458 3.45337 5.2181 3.40054 5.46506 3.45689C5.43684 3.54846 5.38745 3.44984 5.37686 3.59072C5.35922 3.8126 5.68379 3.81613 5.75435 4.03096C5.93428 4.03096 6.01189 3.79147 6.06834 3.76682C6.09304 3.75625 6.12832 3.957 6.22357 3.90065C6.23415 3.89361 6.17418 3.8126 6.22004 3.78795C6.27296 3.75977 6.6187 3.78443 6.5305 3.64003C6.52345 3.62946 6.38938 3.64003 6.44936 3.45689C6.52697 3.44984 6.50228 3.61538 6.60459 3.59072C6.62929 3.58368 6.78099 3.2984 6.75982 3.28079C6.51992 3.23148 6.73512 3.52733 6.44936 3.36884C6.54461 3.33714 6.5305 3.2174 6.58342 3.17161C6.62929 3.13287 6.7316 3.14696 6.75629 3.07652C6.7951 2.96734 6.68221 2.88986 6.66809 2.79124C6.7704 2.65036 6.82332 2.57288 6.84449 2.38974C6.84802 2.34748 6.84449 2.30169 6.84449 2.25591C6.84802 2.20308 6.83744 2.15377 6.84449 2.07981H6.89035C6.89035 2.07981 6.91858 2.07981 6.93622 2.07981C6.89388 1.75227 7.07381 1.60787 6.98208 1.28033C6.90447 1.01266 6.84449 1.11128 6.80568 1.05845C6.77393 1.01266 6.92563 0.910525 6.88683 0.780213C6.8833 0.762604 6.71748 0.50198 6.70337 0.491414C6.66457 0.463239 6.59401 0.491414 6.58342 0.480848C6.57637 0.473804 6.51286 0.322361 6.48817 0.311795C6.46347 0.304751 6.38586 0.354058 6.30824 0.336449C6.2024 0.315317 5.90606 0.213181 5.84961 0.216703C5.80727 0.216703 5.70496 0.28362 5.60618 0.301229C5.50387 0.167396 5.40509 0.206137 5.33805 0.347015C5.31336 0.343493 5.22163 0.339971 5.20399 0.347015C5.18988 0.354058 5.16871 0.343493 5.16166 0.371668C5.14402 0.470282 5.17577 0.575941 5.14754 0.671033C5.12638 0.752038 5.04171 0.762603 5.02407 0.790779C4.99584 0.82952 4.99231 0.861218 4.9782 0.878828C4.96762 0.896437 4.9394 0.910525 4.93234 0.924613C4.93234 1.10423 5.11227 1.05492 5.2428 1.05845C5.22869 1.07253 5.21458 1.09014 5.19694 1.10423C5.14402 1.14649 5.03112 1.19228 4.97467 1.28033H4.92881V1.32611C4.92881 1.32611 4.90059 1.32611 4.88295 1.32611C4.86531 1.38247 4.92881 1.47051 4.92881 1.50221C4.92881 1.52686 4.87236 1.58674 4.88295 1.64661L4.88648 1.64309ZM6.62576 2.02698C6.62576 2.02698 6.62576 2.02698 6.62576 2.0305V2.02698ZM6.67515 1.72409C6.67515 1.72409 6.6434 1.74875 6.62576 1.76283C6.63634 1.74875 6.65398 1.73466 6.67515 1.72409ZM5.57443 2.74546C5.57443 2.76659 5.5709 2.79476 5.56032 2.82998C5.56737 2.80181 5.5709 2.77363 5.57443 2.74546ZM5.51445 0.339971C5.51445 0.339971 5.52151 0.350536 5.52151 0.354058C5.5074 0.361102 5.50034 0.364624 5.49328 0.371668C5.48623 0.371668 5.47917 0.371668 5.47212 0.371668C5.48976 0.364624 5.50387 0.354058 5.51092 0.343493L5.51445 0.339971ZM5.17224 1.53391C5.17224 1.53391 5.15813 1.54095 5.1546 1.54095C5.16166 1.54095 5.16518 1.53743 5.17224 1.53391Z" fill="#20293F"/>
<path d="M1.64066 17.9742C1.67947 17.9742 1.76414 17.9953 1.77473 17.9531C1.66536 17.8368 1.46427 17.7629 1.59833 17.9742C1.61244 17.9742 1.63008 17.9742 1.64419 17.9742H1.64066Z" fill="#20293F"/>
</svg>
