<svg width="70" height="20" viewBox="0 0 70 20" fill="none" xmlns="http://www.w3.org/2000/svg">
<path d="M8.23667 2.20013C8.20802 2.39526 8.18117 2.5331 8.18117 2.72823C8.18117 3.47832 8.4318 3.78445 8.9599 3.78445C9.21053 3.78445 9.48801 3.75759 9.73864 3.75759C10.2667 3.75759 10.5442 3.72895 10.768 4.00822C10.8521 4.09057 10.9345 4.25885 10.9345 4.48083C10.9345 4.67596 10.9058 4.81381 10.879 5.03758C10.879 5.25956 10.8503 5.3992 10.8503 5.62118C10.8503 5.84317 10.8503 5.76082 10.879 6.06694C10.9076 6.26207 10.9345 6.42856 10.9345 6.51091C10.9345 6.78839 10.8235 6.98352 10.8235 7.26279C10.8235 7.56891 10.9076 7.79089 10.9076 8.09702C10.9076 8.3745 10.8521 8.51413 10.768 8.62512C10.6302 8.82025 10.324 8.98674 9.87827 9.01538C9.60079 9.01538 9.29467 8.95989 9.0154 8.95989C8.4318 8.95989 8.23667 9.12638 8.23667 9.70998V10.6283C8.20802 10.8235 8.18117 10.9613 8.18117 11.1582C8.18117 11.4644 8.23667 11.6595 8.23667 11.9638C8.23667 12.3541 8.20802 12.6029 8.20802 12.9932C8.20802 13.6323 8.26352 14.0225 8.76477 14.0225C9.0154 14.0225 9.18189 13.9671 9.43251 13.9671C9.57036 13.9671 9.6545 13.9957 9.76549 13.9957C10.043 13.9957 9.96062 13.9402 10.1826 13.9957C10.5442 14.0798 10.879 14.3287 10.879 14.7189C10.879 14.8854 10.8503 14.9964 10.8235 15.1629C10.7948 15.4135 10.7948 15.58 10.7948 15.691C10.7948 16.0526 10.8235 16.2478 10.8503 16.4142C10.9058 16.7204 10.9345 16.8869 10.9058 17.0265C10.9058 17.2771 10.8217 17.5546 10.8217 17.8052C10.8503 17.9449 10.8772 18.0827 10.8772 18.2223V18.2778C10.8772 18.8346 10.6266 19.1962 10.3204 19.3895C10.2095 19.4737 9.98747 19.5274 9.87469 19.5847C9.65271 19.6402 9.43072 19.7243 9.37344 19.7243C9.06732 19.7798 8.84533 19.7798 8.51057 19.8067C8.09345 19.8353 7.81418 19.8908 7.39886 19.8908C7.14823 19.9194 6.98174 19.8908 6.73112 19.9194C6.53598 19.9481 6.39814 19.9749 6.20301 19.9749C6.00788 19.9749 5.47977 19.9463 5.31329 19.8908C5.22915 19.8908 5.06266 19.8353 4.86753 19.8067C4.6169 19.7798 4.45041 19.7798 4.19979 19.7512C4.11565 19.7225 3.08629 19.4737 3.03079 19.445C2.8643 19.3609 2.78017 19.3054 2.61368 19.2213C2.58503 19.2213 2.44719 19.1658 2.3362 19.0834C2.16971 18.9724 2.08557 18.8614 1.91908 18.7218C1.72395 18.5267 1.66846 18.4998 1.53061 18.2778C1.33548 17.9162 1.25313 16.9978 1.25313 15.9416C1.25313 15.6087 1.25313 15.3849 1.27999 15.0519C1.30863 14.8013 1.30863 14.6348 1.30863 14.3842C1.30863 13.7164 1.22628 13.2438 1.22628 12.5474C1.22628 11.6291 1.33727 10.99 1.33727 10.0716C1.33727 9.90511 1.36591 9.70998 1.30863 9.40386C1.22628 9.01359 1.14214 8.87396 0.891515 8.79161C0.725028 8.73611 0.585392 8.73611 0.390262 8.65198C0.112782 8.48549 0.028643 8.17937 0.028643 7.95559C0.028643 7.7891 0.028643 7.67811 0.057286 7.51162C0.0841389 7.34514 0.0841392 7.23414 0.0841392 7.06587C0.0841392 6.70425 0.028643 6.45362 0.028643 6.12065V5.48155C0.028643 5.31506 0 5.20407 0 5.03579C0 4.89795 0.028643 4.78516 0.028643 4.64732C0.028643 4.3412 0.0572866 4.09057 0.334766 3.81309C0.696385 3.48012 1.058 3.50697 1.80809 3.08985C2.55818 2.67274 2.9198 2.25563 3.25457 1.97815C3.53205 1.78302 3.75582 1.67202 4.00466 1.4214C4.28214 1.14392 4.47727 0.948786 4.72789 0.671306C5.00537 0.42068 5.06087 0.338331 5.22915 0.225549C5.53527 0.0304185 6.03473 0.0877045 6.06338 0.0877045H7.17687C7.70498 0.0877045 8.0666 0.171843 8.15074 0.531672C8.20623 0.698159 8.17938 0.698159 8.20623 0.864647C8.20623 0.975639 8.23488 1.05978 8.23488 1.14213V2.20013H8.23667Z" fill="#FEFFEE"/>
<path d="M13.4389 19.8066C13.0218 19.7798 12.1589 19.6956 11.8528 19.0279C11.7687 18.8328 11.7132 18.3315 11.7132 18.1382C11.7132 17.7479 11.7687 17.6656 11.7973 17.2753C11.826 16.9978 11.826 16.7741 11.8528 16.4966C11.8528 16.2459 11.9083 16.0508 11.9083 15.8002V15.1038C11.9369 14.7153 11.8797 14.4361 11.8797 14.0476C11.8797 13.7146 11.851 13.464 11.851 13.1292C11.8224 12.7676 11.7955 12.4901 11.7955 12.0999C11.7669 11.6273 11.8242 11.2943 11.851 10.8217C11.8797 10.4314 11.8797 10.1539 11.8797 9.73681C11.8797 8.76295 11.7955 8.097 11.74 7.12314C11.7114 6.81701 11.7114 6.59503 11.7114 6.26027C11.7114 6.00964 11.6827 5.84315 11.6827 5.56388C11.6827 4.89614 11.8224 4.1729 12.4615 3.92407C12.6835 3.81307 12.7944 3.81308 13.0451 3.81308C13.6573 3.81308 14.0744 3.84172 14.6849 3.86857C15.3526 3.86857 16.049 3.81307 16.2155 3.78443C16.3551 3.78443 16.4661 3.75758 16.7168 3.75758C16.8832 3.75758 16.9942 3.78443 17.1607 3.78443C17.2449 3.81307 17.3004 3.81308 17.3827 3.81308C17.4937 3.84172 17.4114 3.81307 17.4937 3.84172C17.6315 3.89721 17.884 4.17469 17.9377 4.50946C17.9663 4.64909 17.9932 4.89972 18.1328 5.03756C18.1883 5.1217 18.2438 5.1217 18.2706 5.1217C18.3816 5.15035 18.4658 5.03757 18.6878 4.81558C19.1604 4.31433 19.2445 4.23198 19.8281 4.01C20.5513 3.70387 21.2746 3.75937 21.5252 3.75937C21.8313 3.73073 22.0551 3.67523 22.3881 3.70387C22.3881 3.70387 22.7783 3.73252 22.9717 3.78622C23.1668 3.84172 23.3047 3.95271 23.4443 4.14784C23.7504 4.5381 23.7218 4.76009 23.7218 4.95522C23.7218 5.1772 23.7504 5.34369 23.7504 5.56567C23.7504 5.73216 23.7218 5.84494 23.6949 6.01143V6.37305C23.6663 6.59503 23.6394 6.73467 23.6394 6.95665C23.6394 7.5134 23.7504 7.93051 23.7504 8.48726C23.7504 9.29285 23.4998 10.0447 23.2778 10.2954C22.8893 10.7393 22.3881 10.6838 22.3039 10.6838C21.8027 10.6838 21.2459 10.5728 21.1349 10.546C21.024 10.546 20.6051 10.4063 20.2721 10.4063C20.2166 10.4063 19.6598 10.3777 19.2714 10.7125C19.1872 10.7966 19.0762 10.879 18.9939 11.0741C18.9097 11.2961 18.9097 11.6022 18.9097 11.6308C18.9097 11.9083 18.9384 12.1034 18.9384 12.3809C18.9384 12.7425 18.8829 12.9932 18.8829 13.3548C18.8829 13.4389 18.9384 13.8005 18.9384 13.8829C18.9384 13.9115 18.967 14.1604 18.967 14.3287C18.967 14.7726 18.8829 15.1074 18.8829 15.5531C18.8829 16.416 19.078 16.9996 19.078 17.8607C19.078 18.7218 18.8829 19.3913 18.3548 19.6401C18.1042 19.7511 17.687 19.7511 17.687 19.7511C16.9083 19.7225 16.1851 19.6115 15.435 19.6115C15.0447 19.6115 14.7117 19.6401 14.5721 19.667C14.3483 19.6956 14.044 19.8048 13.5141 19.8048H13.4318L13.4389 19.8066Z" fill="#FEFFEE"/>
<path d="M31.5753 10.8235C31.5753 11.4357 31.5753 11.8528 31.5198 12.4365C31.4912 12.8267 31.4912 13.1042 31.4912 13.4658C31.4912 13.7988 31.5467 14.0494 31.5467 14.3842C31.5467 14.5793 31.518 14.7172 31.518 14.9123C31.518 15.2739 31.5467 15.5245 31.5467 15.8862C31.518 16.1081 31.4912 16.2746 31.4912 16.5252C31.4912 17.1089 31.6022 17.4991 31.6022 18.0827C31.6022 18.6663 31.4071 19.7512 29.9606 19.7512C29.3215 19.7512 28.9044 19.6402 28.2635 19.6402C27.5402 19.6688 27.0121 19.7512 26.2603 19.7512C25.5639 19.7512 25.0089 19.556 24.7583 19.2213C24.5918 18.9993 24.4808 18.4425 24.4808 17.8034C24.4808 17.3022 24.5649 16.7741 24.5649 16.2728C24.5649 15.8844 24.5095 15.5782 24.4808 15.188V14.019C24.4808 13.7684 24.4522 13.6019 24.4808 13.3512C24.5095 12.9073 24.5649 12.6012 24.5649 12.1554C24.5649 11.7096 24.5918 11.4053 24.5918 10.9309C24.5918 10.4296 24.4808 10.068 24.4808 9.53993C24.4808 8.76119 24.4808 8.20444 24.5095 7.42571C24.5095 7.0086 24.5381 6.70247 24.5381 6.28536C24.5381 6.06338 24.5095 5.92374 24.5095 5.70176C24.5095 5.61762 24.5381 5.53527 24.5381 5.42428C24.5381 5.17365 24.4826 5.00716 24.4826 4.75654C24.5667 3.86681 25.4833 3.81132 26.0401 3.81132C26.2352 3.81132 26.4017 3.83996 26.6237 3.83996H27.0676C27.4293 3.83996 27.6799 3.89545 28.0415 3.89545C28.319 3.89545 28.4855 3.86681 28.7647 3.86681C28.9599 3.86681 29.0977 3.86681 29.2946 3.83817C29.6276 3.80953 29.8514 3.75582 30.1844 3.75582C30.7411 3.75582 30.9899 3.83817 31.2406 4.11744C31.5467 4.47906 31.5735 5.1468 31.5735 6.09202C31.5735 6.8976 31.4894 7.483 31.4894 8.31722C31.4894 9.06911 31.5735 9.59721 31.5735 10.3473V10.8199L31.5753 10.8235ZM30.0179 0.00358046C30.6301 0.00358046 30.8235 0.00358076 31.1296 0.225564C31.1582 0.225564 31.2961 0.309703 31.3802 0.420695C31.518 0.671321 31.518 1.31042 31.518 1.56105C31.518 1.75618 31.4894 1.89402 31.4894 2.08915C31.4894 2.25564 31.518 2.36663 31.518 2.53491C31.518 2.86789 31.3229 3.31364 30.6283 3.31364C30.3777 3.31364 30.1002 3.285 29.8782 3.285C29.4611 3.25636 29.1818 3.31364 28.7934 3.31364C28.5159 3.31364 28.3208 3.285 28.0701 3.285C27.8195 3.285 27.653 3.31364 27.431 3.285C27.2091 3.285 27.0694 3.25636 26.8743 3.25636C26.4285 3.25636 26.1224 3.31185 25.6784 3.31185C24.6491 3.31185 24.6204 2.83924 24.6204 2.06051C24.6204 1.83853 24.6491 1.67204 24.6491 1.44826C24.6491 1.28178 24.6204 1.14214 24.6204 0.975653C24.6204 0.864661 24.6204 0.614035 24.7601 0.363408C24.9266 0.0859289 25.1503 0.057286 25.5657 0.057286C25.7608 0.057286 25.8986 0.0572861 26.0938 0.028643H26.706C27.2073 0.028643 27.5689 0.0841392 28.0701 0.0841392C28.3208 0.0841392 28.4873 0.0554962 28.7379 0.0554962H29.3215C29.5166 0.0268531 29.6545 0 29.8782 0H30.0161L30.0179 0.00358046Z" fill="#FEFFEE"/>
<path d="M39.5471 1.19943C39.5471 1.5324 39.4916 1.78303 39.4916 2.14465C39.4916 2.50627 39.5203 2.7569 39.4916 3.11851C39.4916 3.3405 39.4361 3.48013 39.4361 3.73076C39.4361 3.84175 39.4648 4.14787 39.6312 4.25887C39.6867 4.28751 39.7709 4.31436 39.7977 4.31436C40.1039 4.31436 40.4368 4.03688 41.0777 3.8686C41.3552 3.81311 41.579 3.73076 41.8565 3.67347C42.0516 3.64483 41.912 3.67347 42.0784 3.64483C42.2181 3.64483 42.3291 3.64483 42.4401 3.61619C42.6352 3.58754 42.7175 3.58754 42.9127 3.58754H43.1633C43.3853 3.58754 43.4408 3.5589 43.6359 3.58754C43.8579 3.61619 43.9975 3.67168 44.1927 3.69854C44.5543 3.72718 44.8049 3.69854 45.1665 3.75403C45.444 3.80953 45.6391 3.86502 45.9453 3.92052C46.1959 3.94916 46.391 3.97601 46.6416 4.03151C46.7526 4.06015 46.8636 4.11386 47.0587 4.22664C47.1142 4.25529 47.7551 4.6169 47.8375 4.64376C47.9198 4.69925 47.9485 4.75475 48.0326 4.81024C48.1991 4.94988 48.3101 5.06087 48.5052 5.17186C48.9492 5.47798 48.8382 5.30971 49.3394 5.81096C49.7279 6.19943 49.8962 6.5342 50.0072 6.75618C50.7304 7.95203 50.4798 7.59041 50.8969 8.78805C51.2872 9.95704 51.4537 9.98389 51.536 11.1242C51.5647 11.3462 51.5915 11.4859 51.5915 11.7078C51.5915 12.4024 51.4805 12.6531 51.3695 13.0147C51.3695 13.0988 51.3409 13.1812 51.314 13.2653C51.2854 13.3763 51.2585 13.4604 51.2299 13.5714C51.1744 13.8776 51.1475 14.1013 51.0348 14.4057C50.9238 14.7386 50.8396 14.8783 50.7573 15.0448C50.5353 15.4619 50.3957 15.546 50.1182 15.9631C50.0072 16.1296 49.9517 16.2693 49.8407 16.4644C49.7566 16.6022 49.6742 16.715 49.5632 16.8529C49.4522 17.0193 49.3967 17.159 49.2571 17.3255C49.0351 17.6316 48.729 17.9091 48.6735 17.9377C48.4229 18.1597 48.1722 18.2438 47.9216 18.439C47.7551 18.55 47.671 18.6609 47.5045 18.7719C47.1715 18.9671 46.9209 19.0494 46.5593 19.2159C46.3087 19.3269 46.058 19.4934 45.836 19.5775C45.5854 19.633 45.4189 19.6617 45.1683 19.6885C44.9732 19.744 44.8067 19.7727 44.6116 19.7995C43.9993 19.9105 43.5536 19.9946 43.3047 19.9946C42.8876 19.9946 42.4705 19.9105 42.3309 19.9105C42.0802 19.8819 41.8869 19.8819 41.6076 19.855C41.468 19.8264 40.1611 19.7727 39.2159 19.0494C39.0494 18.9098 38.9653 18.7988 38.8829 18.7164C38.7988 18.6609 38.7165 18.6323 38.7165 18.6323C38.4927 18.6037 38.4658 18.8561 38.4372 19.0781C38.4372 19.1067 38.3817 19.4683 38.1597 19.6348C38.0774 19.719 37.9377 19.7744 37.6585 19.7744C37.4365 19.7744 37.2682 19.7458 37.0194 19.7458C36.6309 19.7172 36.3516 19.6903 35.9631 19.6903C35.2954 19.6903 34.8514 19.719 34.1837 19.7458C33.8776 19.7744 33.6824 19.7744 33.3781 19.7744C33.3495 19.7744 32.6549 19.8299 32.4329 19.2732C32.3488 19.1067 32.3219 18.5786 32.3219 18.4103C32.3219 18.0773 32.3774 17.8267 32.406 17.5206C32.4347 17.1035 32.406 16.8529 32.406 16.4644C32.406 16.2138 32.4347 16.0473 32.4347 15.7966C32.4347 15.3509 32.406 15.0734 32.406 14.6276C32.406 14.0995 32.4615 13.7093 32.4902 13.1812C32.517 12.7354 32.517 12.4293 32.517 12.0122C32.517 11.6506 32.5457 11.4286 32.5457 11.067C32.5457 9.9821 32.3505 9.23022 32.3505 8.14716V6.75618C32.3505 6.33907 32.406 6.06159 32.4347 5.64447C32.4633 5.39385 32.4633 5.22736 32.4633 4.97673C32.4633 4.11386 32.4633 3.53026 32.4078 2.66918C32.3792 2.19657 32.3523 1.86359 32.3523 1.39098C32.4078 0.166489 32.9646 0.0268555 33.6037 0.0268555H34.2714C34.5489 0.0268555 34.966 0.0823509 34.9947 0.0823509C35.2453 0.110994 35.4959 0.16649 35.9685 0.16649C36.0527 0.16649 36.4698 0.16649 36.8314 0.110994C37.1644 0.0554981 37.193 0.0268555 37.5278 0.0268555C37.8053 0.0268555 37.9717 0.0554985 38.251 0.0554985C38.9474 0.0841415 39.5578 0.195133 39.5578 1.11171V1.19585L39.5471 1.19943ZM39.4916 11.6022C39.5203 12.4365 39.6581 12.6316 40.1594 12.9932C40.5478 13.2707 40.8271 13.3262 41.1887 13.3262C41.4662 13.3262 41.7455 13.2975 42.0229 13.2975C42.6352 13.2975 42.9413 13.3817 43.5536 13.0756C43.9993 12.8536 44.1103 12.6853 44.2213 12.4365C44.3323 12.2145 44.4988 11.8529 44.4988 11.6309C44.4988 11.4644 44.4146 11.2979 44.3878 11.1296C44.1658 10.3777 43.8597 10.3509 43.4981 10.1558C43.3029 10.0448 43.0809 9.87827 42.6925 9.87827C42.4973 9.87827 42.3595 9.90692 42.1644 9.87827C41.7741 9.84963 41.7186 9.82278 41.4966 9.82278C41.3588 9.85142 41.1905 9.87827 41.0795 9.90692C40.9399 9.96241 40.8844 10.0179 40.7465 10.0448C40.691 10.0734 40.2453 10.1558 39.9392 10.4619C39.8282 10.5729 39.7727 10.657 39.6617 10.879C39.5507 11.0455 39.4952 11.1565 39.4952 11.323V11.6004L39.4916 11.6022Z" fill="#FEFFEE"/>
<path d="M63.7862 19.7798C63.7039 19.7798 62.8697 19.8622 62.6172 19.0834C62.5617 18.9993 62.4508 18.4157 62.2288 18.4157C62.0891 18.387 61.9227 18.6108 61.8117 18.7218C61.7562 18.8059 61.7007 18.8614 61.6452 18.9438C61.5897 18.9993 61.5342 19.0279 61.5055 19.0548C60.8933 19.5829 60.9488 19.4164 60.3097 19.6384C59.9767 19.7494 60.0036 19.778 59.6974 19.8604C59.309 19.9445 58.7522 20 57.8894 20C57.1661 20 56.8331 19.8335 56.4715 19.778C56.305 19.7494 56.194 19.7225 56.0275 19.6939C55.9166 19.6652 55.7769 19.6097 55.6946 19.5829C55.4171 19.4719 55.2488 19.3609 54.9982 19.2499C54.6652 19.1389 54.5542 19.0834 54.2481 18.8614C53.831 18.5285 53.5517 18.1096 53.4694 17.9717C53.1078 17.4705 52.9968 17.3881 52.8303 16.5521C52.7193 15.8575 52.7193 15.1611 52.6924 14.9391C52.6924 14.4379 52.6369 14.0763 52.5814 13.575C52.5528 13.1579 52.5528 12.8518 52.5528 12.406V12.2395C52.5528 12.1285 52.5528 11.7383 52.6083 11.3766C52.6638 10.9309 52.6924 10.793 52.6924 10.5424C52.6924 10.2094 52.6638 9.95882 52.6638 9.5972C52.6638 9.26422 52.6638 9.0136 52.6351 8.67883C52.6351 8.40135 52.6065 8.20622 52.6065 7.9556C52.6065 7.42749 52.662 7.03723 52.662 6.50912C52.6334 6.203 52.6334 6.00787 52.6334 5.73039C52.6334 5.39741 52.6888 4.59004 52.9108 4.25706C53.0773 4.03508 53.2438 3.95094 53.6072 3.8668C53.8578 3.8113 53.8847 3.8113 54.0243 3.8113C54.164 3.8113 54.275 3.8113 54.4414 3.83995C55.0537 3.86859 55.6373 3.95094 55.8593 3.92409C56.2495 3.92409 56.527 3.83995 56.9173 3.83995C57.2234 3.83995 57.4454 3.86859 57.7515 3.86859C57.9735 3.83995 58.14 3.81309 58.3638 3.81309C58.9205 3.78445 59.42 4.06372 59.6151 4.25885C59.7261 4.3967 59.7816 4.48083 59.8389 4.59183C59.8675 4.64732 59.9212 4.84245 59.9212 5.03579V5.64804C59.9212 5.87002 59.8657 6.00966 59.8657 6.23164C59.8371 6.59326 59.8371 6.81524 59.8371 7.17686C59.8371 7.56712 59.8926 7.81596 59.8926 8.20622C59.8926 8.56784 59.8371 8.73433 59.7816 9.1228C59.7261 9.56856 59.7261 9.84604 59.7261 10.0412C59.7261 10.5424 59.7816 11.8206 60.0877 12.3219C60.1987 12.517 60.3938 12.628 60.4493 12.6835C60.6158 12.7676 60.7823 12.7676 60.8109 12.7676C61.3677 12.7676 61.6452 12.0175 61.7007 11.6828C61.7562 11.3212 61.7293 11.0705 61.7848 10.7376C61.7848 10.5156 61.8403 10.3759 61.8403 10.1539C61.8403 9.93197 61.8117 9.76369 61.7848 9.5417V8.92946C61.7848 8.73433 61.7562 8.59648 61.7562 8.40135C61.7275 8.09523 61.8117 7.64947 61.8403 7.3165C61.8689 7.06587 61.8958 6.98352 61.8958 6.56462C61.8958 5.98101 61.8117 5.5639 61.8117 4.97851C61.8117 4.08878 62.2574 3.75581 62.8124 3.75581C63.174 3.75581 63.396 3.8668 63.7576 3.8668C64.2302 3.8668 64.5632 3.78266 65.0358 3.78266C65.4815 3.78266 65.7877 3.8113 66.2316 3.8113C66.3981 3.8113 66.5378 3.8113 66.8152 3.78266C67.261 3.72716 67.9842 3.61617 68.4014 3.8668C68.5965 3.95094 68.7916 4.17292 68.7916 4.19977C69.1532 4.64553 69.1532 4.95166 69.1532 5.11814C69.1532 5.47976 69.0154 6.00787 69.0154 6.06336C69.0154 6.11886 68.9312 7.11958 68.9312 7.17507C68.9312 7.31471 68.9599 7.45255 68.9599 7.59219C68.9599 7.89831 68.9044 8.12029 68.9044 8.42641V9.53812C68.933 9.76011 68.933 9.92838 68.9599 10.1504V10.5406C68.9885 10.8736 69.0154 11.0974 69.0154 11.4304C69.044 12.1249 68.9044 12.6262 68.9044 13.3494C68.9044 13.9885 68.9885 14.4611 68.933 15.102C68.9044 15.5746 68.8775 15.9363 68.8775 16.4089C68.8775 16.9925 68.9062 17.3541 68.9617 17.5779C68.9903 17.7157 69.1013 18.0218 69.1013 18.3566C69.1013 18.3852 69.1013 19.0798 68.6842 19.4415C68.4067 19.6921 67.9878 19.7189 67.3487 19.7189C66.8206 19.7189 66.459 19.6903 65.9309 19.6903C65.4296 19.6903 65.068 19.7458 64.5399 19.7744H63.788L63.7862 19.7798Z" fill="#FEFFEE"/>
</svg>
