<svg width="86" height="101" viewBox="0 0 86 101" fill="none" xmlns="http://www.w3.org/2000/svg">
<path d="M76.9026 68.8269C76.884 68.6059 77.0379 68.5887 77.0845 68.49C77.1498 68.181 77.0286 68.0394 76.7207 68.0694C77.0519 67.872 77.1125 67.5909 76.9026 67.2261C76.8653 67.0931 76.744 66.8913 76.7207 66.7197C76.7021 66.4514 76.5761 66.3398 76.3569 66.3828C76.217 66.2905 75.9838 66.1252 75.7226 66.1274C75.6246 66.1274 74.953 66.2969 74.9297 66.3141C74.6032 66.5759 75.1955 66.5566 75.6246 66.636L74.897 66.8034C74.939 66.6982 74.8177 66.6338 74.7105 66.5501C74.5705 66.4407 74.356 66.3527 74.3467 66.2132C74.6825 66.3012 75.4427 66.0566 75.606 65.9493C75.6526 65.9192 75.3821 65.7325 75.3541 65.6338C75.3308 65.5351 75.4614 65.4085 75.4427 65.372C75.3588 65.1982 74.8784 65.1059 74.5286 65.2025C74.4586 65.1853 74.3887 65.1231 74.3467 65.1188C74.3327 65.0373 74.4493 65.0029 74.5286 64.9493C74.5985 65.0222 74.6592 65.0222 74.7105 64.9493C75.6013 64.7089 74.5706 64.1746 74.398 63.9557C74.2674 63.7883 74.0808 63.3613 73.9782 63.2647C73.8429 63.3098 73.661 63.254 73.4278 63.0952C73.3672 63.0759 73.106 63.1167 73.0594 63.0952C73.0221 63.0759 73.4745 62.7304 73.4278 62.5909C73.1946 62.5029 72.9474 62.445 72.6956 62.4214C72.3178 62.1532 72.2571 62.1403 71.7814 62.0008C71.7674 61.8356 71.7021 61.6682 71.5995 61.4944C71.5575 61.4836 71.4782 61.503 71.4176 61.4944V61.4107C71.0864 61.2648 70.8999 61.0952 70.8672 60.9042C70.8392 60.8828 70.6247 60.8399 70.5034 60.7347L70.1396 60.651C70.4661 61.0695 70.2655 60.8656 69.7711 60.8184C70.4894 60.3141 70.0603 60.4794 69.5286 60.3141C69.2907 60.2412 69.5286 60.0158 68.6704 60.2283C68.9596 59.8871 67.8588 59.9171 67.5697 60.1424C67.537 60.0952 67.4064 59.8978 67.3878 59.8892C67.3551 59.8764 66.3617 59.9128 66.8374 59.7218C67.2758 59.5459 67.3505 59.8785 67.3878 59.8892C67.4857 59.9193 67.7656 59.7347 67.9381 59.6897C68.1527 59.6317 68.5725 59.8785 68.12 59.3849C68.0921 59.357 67.9801 59.3313 67.9381 59.3012C67.8215 59.2133 67.7749 58.9343 67.3225 58.9708C67.1825 58.9815 66.1191 59.4214 67.024 59.3849C66.996 59.4643 67.0426 59.5545 67.024 59.6382C66.8094 59.7304 65.9605 59.297 65.7413 59.2176L67.0286 58.9214L66.8701 58.7219L66.2917 58.4601C65.9745 58.0373 65.76 57.9558 64.8272 57.7862V57.7025C64.5986 57.6468 64.3281 57.5867 64.0949 57.533C63.829 57.5974 63.7684 57.7369 63.913 57.9536C63.7777 57.8485 63.1294 57.6532 63.0128 57.415C63.0175 57.3935 63.0128 57.3742 62.9988 57.3635V57.2798C62.7283 57.2219 62.3925 57.1747 62.0846 57.1103C61.7208 57.0352 61.3617 56.93 60.9886 56.8571L60.163 57.1103C59.7059 56.7154 58.1528 56.9322 57.3272 57.0266C57.7796 56.7133 57.1733 56.5523 56.4877 56.5223C56.1798 56.5094 56.0073 56.5974 55.8673 56.6038C55.7694 56.6017 55.6901 56.6038 55.6201 56.6146C55.261 56.6274 55.1351 56.6146 54.7666 56.6038V56.5201C54.552 56.5287 54.2209 56.4965 53.8524 56.5201C53.5959 56.5352 53.1108 56.4901 52.9383 56.5201C52.8356 56.4386 52.6537 56.3828 52.3879 56.3506C52.1547 56.342 51.8935 56.3485 51.6556 56.3506C51.4737 56.342 51.4457 56.3871 51.4644 56.4365C51.2871 56.3764 50.9933 56.3335 50.7414 56.4365C49.6034 56.3399 49.7526 56.5201 49.6454 56.5201C49.5241 56.533 49.4448 56.5609 49.3982 56.5995C49.3469 56.5674 49.2536 56.5609 49.095 56.6038C48.9551 56.6553 47.7377 56.4644 47.4486 56.4343C47.1734 56.415 46.707 56.3871 46.8982 56.518C46.7862 56.5266 46.651 56.5137 46.5344 56.518C46.4411 56.4236 46.3245 56.4515 46.1706 56.518C46.1099 56.5223 46.0446 56.5137 45.9887 56.518C45.9047 56.3935 45.6342 56.385 45.6249 56.518C45.2191 56.5459 44.818 56.6682 44.5288 56.6875C43.9924 56.6017 43.4234 56.6446 42.8824 56.6875C42.5232 56.7283 42.1361 56.797 41.7863 56.8571C41.6277 56.8892 41.6277 56.9171 41.7863 56.9407C41.735 56.9579 41.6324 57.2648 40.8721 57.2777C40.9001 57.2412 40.1911 57.091 39.9393 57.1103L38.6753 57.3613C38.61 57.385 38.5447 57.4171 38.4934 57.445V57.5287C38.61 57.5695 38.5494 57.5974 38.3115 57.6124C38.1576 57.5953 37.9244 57.6274 37.7611 57.6124C37.7518 57.6103 37.7425 57.6081 37.7378 57.606C37.6818 57.5867 37.5886 57.5309 37.4626 57.5287C36.8003 57.5073 36.4039 57.6983 35.9328 57.8656C36.0867 58.0266 36.2826 58.0952 36.6651 58.1189V58.2025C36.6277 58.2025 36.138 58.2712 35.9328 58.2862C35.0932 58.3485 34.8041 58.3334 34.2863 58.7068C34.2117 58.6918 34.0391 58.7133 33.9179 58.7068C34.0018 58.4729 33.75 58.4987 33.3675 58.6231C33.2322 58.606 32.8078 58.6146 32.6352 58.6231C32.514 58.6296 32.388 58.6189 32.2714 58.6231L32.6352 59.297C32.5513 59.2862 32.374 59.2927 32.2714 59.297C32.0709 59.3034 32.0056 59.3613 31.9076 59.3806C31.6977 59.4214 31.4412 59.3935 31.3573 59.5502C31.0448 59.445 30.9608 59.3055 30.3545 59.297L30.2612 59.3399C30.3265 59.4 30.6063 59.5158 30.625 59.5502C30.639 59.5738 30.6203 59.606 30.625 59.6339C30.3871 59.6424 30.1306 59.621 29.8927 59.6339C29.8321 59.6382 29.7668 59.6274 29.7108 59.6339C29.4683 59.6575 29.0438 59.7497 28.7966 59.8034C28.5448 59.9043 28.666 60.2819 28.6101 60.3077C28.5494 60.3356 27.4347 60.2412 27.3321 60.5609L25.4664 61.563C25.4385 61.5673 25.4198 61.5781 25.3965 61.5995L25.1353 61.7411C25.1073 61.739 24.8414 61.8463 24.5896 61.7411L24.7715 62.0781C24.4217 61.9944 24.2025 62.033 23.8573 62.0781C23.6707 62.1038 23.6054 62.1381 23.4888 62.1617C23.279 62.2476 23.1577 62.3313 23.125 62.415C22.7099 62.4514 22.3415 62.5931 22.029 62.8356C21.9683 62.8356 21.9077 62.8356 21.8471 62.8356C22.2668 63.2562 21.8144 63.1124 21.4973 63.3055C21.3527 63.3935 21.3387 63.5716 21.3014 63.5931C21.2454 63.621 20.7463 63.5094 21.1195 63.7605H20.5691C20.3359 63.9944 20.9329 64.0201 20.9469 64.0652C20.9609 64.1167 20.7696 64.4944 20.7323 64.5094C20.3266 64.6596 19.2911 64.2497 19.8415 65.1939C19.7855 65.2004 19.7156 65.1875 19.6596 65.1939C19.6269 65.1982 19.459 65.063 19.0579 65.1875C18.8527 65.2519 18.8574 65.3613 18.7454 65.445C18.6708 65.5029 18.4749 65.6939 18.3816 65.7819C18.3116 65.8463 18.0085 65.8785 18.0178 66.1188C18.0178 66.1467 18.0131 66.1746 18.0178 66.2025C18.0178 66.2197 18.1764 66.5094 18.1997 66.5394L17.6493 66.4557C17.4768 66.7089 17.9618 66.8935 18.3816 67.0458C18.5728 67.3012 17.9665 67.3441 17.8965 67.4021C17.8079 67.4772 17.7986 67.7905 17.5934 67.8699C17.2529 68.0029 17.127 67.6918 17.099 68.1832C17.0896 68.342 16.9311 68.5265 17.4674 68.4772C17.4441 68.5587 17.4814 68.6467 17.4674 68.7304C17.4488 68.7261 17.2342 68.8184 17.0943 68.7733C16.8891 68.7068 17.0663 68.4943 16.5533 68.563C16.5859 68.8806 17.2855 69.1789 17.6493 69.4471C17.4021 69.5372 17.2389 69.5051 17.1036 69.4385C17.057 69.3999 16.9964 69.3613 16.9171 69.3205C16.7492 69.2046 16.7118 68.8763 16.2687 69.1531C16.0962 69.2604 16.3667 69.5501 16.334 69.6166C16.3061 69.6681 15.9982 69.651 15.9936 69.7046C15.9749 69.8677 16.2874 70.0265 16.1335 70.3505C15.9469 70.7583 15.6857 70.6016 15.266 70.5823C15.3219 70.7475 15.182 70.9664 15.266 71.1166C15.3173 71.2175 15.7137 71.1166 15.6344 71.254C14.3378 71.2003 15.793 71.6724 15.7977 71.7132C15.8163 72.0329 15.2846 72.1145 15.2706 72.1402C15.0747 72.4643 15.5225 72.2904 15.7277 72.3076C15.9469 72.3269 16.0449 72.4085 16.1848 72.4342C16.1988 72.4364 16.2501 72.4922 16.3667 72.5179C16.3574 72.5737 16.376 72.6316 16.3667 72.6874C16.3247 72.8977 16.1801 72.8419 15.8163 72.9407C15.5738 73.005 15.2053 72.9922 15.266 73.108C15.5598 73.1252 15.9049 73.1445 16.1801 73.1939L15.4479 73.3205C17.085 73.8419 15.7044 73.7497 15.6298 73.784C15.2613 73.9643 16.2687 74.0716 15.9982 74.2046C15.9702 74.2196 15.1307 74.2046 15.266 74.4149C15.3499 74.5479 16.0635 74.4256 15.6344 74.8784L16.1801 75.1316C16.1382 75.1402 16.0589 75.1252 15.9982 75.1316C15.8396 75.1467 15.6251 75.1209 15.4479 75.1316V75.7218C15.2613 75.7818 14.6037 75.8076 14.8975 75.9728C14.9255 75.99 15.2613 75.9836 15.3639 76.0565C15.5318 76.1724 15.2706 76.314 15.3546 76.402C15.4852 76.5372 15.9982 76.5029 15.9936 76.6488C15.4665 76.7003 15.126 76.6896 15.266 76.9878C15.8863 76.6917 16.0449 77.0136 16.7305 77.0715C16.6979 77.0994 16.7538 77.1874 16.7305 77.2411C16.7305 77.2496 16.6139 77.2582 16.5812 77.2861L16.7305 77.3248C16.7305 77.3248 16.5066 77.4235 16.3667 77.4084C16.334 77.3763 16.39 77.3033 16.2781 77.2389C16.1288 77.1531 15.9376 77.181 15.8163 77.1552C15.807 77.1531 15.821 77.0544 15.6344 77.0715C15.4105 77.2454 15.6438 77.49 15.6344 77.5758C15.6298 77.6316 15.6344 77.6874 15.6344 77.7453C14.7016 78.0565 15.5318 78.7668 16.3667 78.5029C16.4087 78.5629 16.2921 78.6638 16.1848 78.6724C16.0915 78.6788 15.8723 78.5544 15.821 78.5887V78.9256C15.8676 78.9986 15.9796 79.1338 16.0029 79.1788C16.0029 79.1874 15.9563 79.2453 16.0029 79.3483C16.2035 79.3977 16.7025 79.2153 16.7352 79.3076C16.8331 79.5629 16.0076 79.2904 16.1848 79.6016C16.6046 79.6273 17.0103 79.4213 17.2809 79.6016C16.2268 79.696 17.0756 79.9041 17.099 79.9385C17.1643 80.0501 17.0803 80.3162 16.9777 80.4277C16.8564 80.5565 16.5673 80.52 16.5533 80.5307C16.2921 80.7153 16.9217 80.696 16.9077 80.7367C16.8704 80.7582 16.8284 80.7861 16.7818 80.8204C16.7538 80.8376 16.7305 80.8526 16.7305 80.8655C16.7212 80.9213 16.7305 80.9771 16.7305 81.035C16.6605 81.0801 16.6605 81.138 16.7305 81.2046C16.7305 81.2325 16.7258 81.2604 16.7305 81.2882L16.9124 81.7088C17.029 81.8977 17.127 81.9685 17.2762 82.1294C17.4908 82.3312 17.5607 82.3633 17.64 82.1294C17.6913 82.1874 17.7659 82.241 17.8219 82.299C17.57 82.3505 17.6447 82.4449 18.0458 82.5801C17.4954 82.6745 17.4861 82.8376 18.0271 83.0694C17.9105 83.2732 17.9012 83.4384 18.0038 83.5608C18.0038 83.5887 18.0038 83.6166 18.0038 83.6445C18.0738 83.7174 18.1344 83.7174 18.1857 83.6445C18.1717 83.7239 18.1717 83.8075 18.1857 83.8977C18.223 83.9685 18.1251 84.0887 18.1857 84.1745C18.2557 84.2732 18.5075 84.2196 18.5542 84.2346C18.5402 84.2882 18.5775 84.3548 18.5542 84.4041C18.6008 84.6831 18.7827 84.8247 19.1045 84.8247C19.1559 84.8784 19.0532 85.0243 19.1045 85.0779C19.1465 85.123 19.2305 85.1359 19.2865 85.1616C19.1978 85.3719 19.3191 85.623 19.6549 85.9191C19.6689 85.932 19.7948 85.9062 19.8368 85.9191C20.2519 86.0436 20.3965 85.8397 20.5691 85.8354C20.9236 86.0264 20.8629 86.1938 20.3965 86.3333L20.3872 86.5093V86.5929C20.4525 86.6187 20.5085 86.6509 20.5691 86.6766L20.7557 87.0972C21.0728 87.1573 21.1988 87.0307 21.3014 87.0135C21.418 86.9942 21.5579 86.9577 21.6652 86.9298C21.7398 86.9685 21.7724 87.05 21.8471 87.0994C21.4086 87.1723 21.5019 87.2024 21.2967 87.2689C21.1661 87.3097 20.653 87.2861 20.751 87.4771C21.4506 87.7474 21.6418 87.8891 21.8471 88.2796C21.8611 88.3075 21.8284 88.3397 21.8471 88.3633C21.9963 88.5629 21.7538 88.6273 22.5793 88.447C22.5933 88.4513 22.8825 88.3504 22.9245 88.3719L23.1297 88.6165V88.7002C23.1297 88.7002 22.8079 88.771 22.7612 88.7839C22.3415 88.9062 22.598 88.9191 22.5047 89.0178C22.4767 89.0457 22.1922 89.0178 22.2109 89.0779C22.2855 89.2796 23.1064 89.5264 23.4935 89.6273C22.5514 89.8912 23.7034 89.917 23.6754 90.3848C23.6754 90.4127 23.6847 90.4427 23.6754 90.4685C23.6661 90.4921 23.5075 90.5264 23.4935 90.5521C23.4655 90.5994 23.5215 90.6723 23.4935 90.7217C23.5588 90.7431 23.6474 90.771 23.6754 90.8054C23.9646 90.9148 24.2071 91.0285 24.4077 91.1423C24.4683 91.168 24.5289 91.2002 24.5896 91.226C24.6829 91.389 24.8041 91.4749 24.9534 91.4792C24.7948 91.7302 25.1073 91.9899 25.597 92.1294L25.6857 92.3225C25.7323 92.3547 25.8069 92.3805 25.8676 92.4062C25.8536 92.432 25.8769 92.462 25.8676 92.4899C26.0588 92.5199 26.1567 92.5736 26.2314 92.6594C26.4366 92.8912 26.2034 93.1101 27.0289 92.9363C27.0709 92.9384 27.1175 92.9405 27.1642 92.9405L27.3321 93.1659C26.9123 93.2152 26.8144 93.3483 27.0849 93.3998C26.7864 93.3847 26.8424 93.4362 27.1502 93.5886C26.987 93.8826 27.2575 93.7603 27.3321 93.8418L27.6959 94.1787C27.9664 94.3869 28.167 94.5414 28.4282 94.7689C28.4748 94.8096 28.7313 95.1358 28.792 95.1895C28.8993 95.5199 29.7854 95.9856 29.5242 95.4427C29.5382 95.4598 29.8507 95.4963 29.8787 95.5779C29.9114 95.6873 29.5802 95.7624 29.5662 95.8246C29.5522 95.889 29.8787 95.9319 29.8927 95.947C29.9067 95.9727 29.8787 96.0028 29.8927 96.0307C29.9067 96.0586 29.8787 96.0886 29.8927 96.1143C29.9627 96.241 29.9207 96.2796 30.0746 96.4513C30.1726 96.6143 30.1726 96.756 30.0746 96.8719C29.9907 97.0156 30.4291 97.11 30.4384 97.1251C30.4151 97.2152 30.4851 97.2646 30.597 97.286C30.4384 97.3611 30.5084 97.5585 30.8022 97.8847C30.8582 98.0435 30.8022 98.2066 31.166 98.3053C31.222 98.58 31.4086 98.7195 31.7164 98.7259C31.7164 98.7538 31.7304 98.7903 31.7164 98.8096H31.8983C32.2155 98.9212 32.3787 98.9555 32.4487 99.1465C32.2061 99.1766 32.2061 99.2602 32.4487 99.3997C33.055 99.6487 33.9738 99.7839 34.277 100.157C34.207 100.177 33.9459 100.136 33.9132 100.157C33.4934 100.402 35.2658 100.55 35.3777 100.578C36.0354 100.541 36.5531 100.483 37.2108 100.578L37.3927 100.831C37.4813 100.762 37.4206 100.616 37.7565 100.578V100.494C37.8497 100.488 38.0923 100.361 38.4141 100.353C39.1044 100.331 39.5522 100.638 39.4029 100.074C39.1324 100.05 38.8292 100.157 38.596 100.14C38.3908 100.125 38.3768 100.018 38.3068 99.9899C38.8292 100.031 38.6053 99.9255 38.6706 99.8203C38.694 99.7839 38.7732 99.7517 38.8525 99.7366C38.9318 99.8096 39.1744 99.9598 39.3096 99.9899C39.3749 100.005 40.1865 99.6336 39.2163 99.4856C39.2443 99.477 39.0251 99.4341 39.5801 99.316C39.5801 99.5671 40.2471 99.6165 40.3124 99.653C40.3497 99.5585 40.6016 99.5285 40.6762 99.4834V99.1465C40.6762 99.1465 40.6716 99.0135 40.8628 98.9405C41.0074 98.8869 41.5764 98.8568 41.5857 98.7667C41.5904 98.7173 41.2592 98.6701 41.2219 98.6401C41.2079 98.6294 41.2126 98.5714 41.2219 98.5564C41.2546 98.5027 41.9215 98.2796 41.9542 98.1358V98.0521C42.0428 98.0564 42.276 98.0628 42.318 98.0521C42.5699 97.9942 42.4439 97.8461 42.5186 97.8053C42.5419 97.7924 43.2835 97.9555 43.2322 97.7581C43.2088 97.6701 42.6538 97.6573 42.6911 97.5907C42.7098 97.5585 43.0409 97.1551 43.0736 97.1358C43.0922 97.1251 43.3348 97.183 43.4234 97.1573C43.6286 97.0929 43.7546 96.9641 43.7872 96.9577C43.8338 96.947 44.0531 96.9577 44.151 96.9577C44.2163 96.9577 44.2863 96.9513 44.3329 96.9577C44.8506 96.8397 44.109 96.6744 43.7825 96.6208C44.4355 96.5113 44.4542 96.4641 44.8786 96.2839C45.4476 96.2452 45.8721 96.1315 46.1613 95.947C46.1892 95.9277 46.1333 95.8826 46.1613 95.8633C46.012 95.6873 45.5083 95.741 45.6109 95.5693C45.6808 95.4513 46.2918 95.653 46.1613 95.3568C46.1286 95.2796 45.8021 95.1744 45.7974 95.1036C46.4971 95.0392 46.5997 95.1251 47.262 95.1873L46.8982 94.977C47.5558 94.9019 47.0614 94.8032 47.1314 94.6551C47.2153 94.4792 47.6771 94.4727 47.262 94.2603C47.0848 94.168 46.7909 94.2066 46.8982 94.05L47.0801 94.0071C47.3366 94.0457 47.3506 94.1186 47.8124 94.0908C47.6538 94.1229 47.6538 94.1508 47.8124 94.1744L47.6305 94.4277C47.859 94.447 48.0036 94.3998 48.1808 94.344C48.6519 94.344 49.1416 94.2603 49.6454 94.0908C49.9345 93.8654 49.4728 93.6702 49.8273 93.4169C50.5969 93.5221 50.9607 93.2968 50.928 92.7431C50.9886 92.7152 51.0493 92.6873 51.1099 92.6594C51.6183 92.4663 51.2545 92.3139 50.7461 92.2388C50.8534 92.2324 50.9793 92.3011 51.4784 92.2388C51.6416 92.2174 51.9075 92.2024 52.0287 92.1551C52.1593 91.8848 51.8842 91.9255 51.4784 91.8182C51.8562 91.6358 51.9075 91.5865 52.2106 91.3976C52.2246 91.3891 52.4532 91.4341 52.5745 91.3397C52.7237 91.2238 52.8636 90.8976 52.5745 90.8075V90.7238C53.1202 90.6315 54.6127 90.52 53.6705 90.2174C53.6938 90.1723 53.6192 90.0736 53.6752 90.0543C53.7871 90.0178 54.4168 90.0972 54.58 89.9212C54.7339 89.7603 54.2675 89.8054 54.2396 89.7882C53.8384 89.5479 55.4102 89.4384 55.4849 89.4148C55.5642 89.3912 56.0539 89.1208 56.2265 89.0371C56.4737 88.917 56.567 88.7968 56.5903 88.7839C56.7302 88.7152 56.9727 88.5607 57.1406 88.5307C57.5371 88.4599 57.4765 88.638 58.0548 88.3612C58.1155 88.3333 58.1808 88.3054 58.2367 88.2775C58.33 88.1702 58.33 88.0865 58.2367 88.0243C58.5072 88.0607 58.6891 87.9213 58.7871 87.6037C58.7684 87.5522 58.8011 87.4899 58.7871 87.4341C58.7404 87.4449 58.6612 87.4256 58.6052 87.4341C58.5865 87.3826 58.6332 87.3097 58.6052 87.2646C59.2162 87.2625 59.1602 87.0865 59.3375 86.9277C59.4634 86.814 59.51 86.638 59.5567 86.6101C59.7106 86.5157 60.2563 86.5693 60.4522 86.4492C60.7134 86.2925 60.4289 86.1165 60.4335 85.9985C60.4335 85.9706 60.4335 85.9427 60.4335 85.9148L60.7973 85.9985C60.7227 85.8741 60.9559 85.7453 60.9839 85.6616C61.1705 85.6659 61.2404 85.6402 61.3524 85.5779C61.7488 85.6058 61.8654 85.432 61.7255 85.3226C61.7815 85.314 61.8421 85.2882 61.9027 85.241C61.8001 85.0093 62.1686 85.1015 62.6677 85.0178C62.7283 85.0114 62.7796 85.0028 62.8169 84.9878C62.8869 84.9706 63.0641 84.8655 63.1807 84.8183L63.3626 84.5651C63.2973 84.5307 62.9802 84.7131 62.8169 84.7324C62.7749 84.7367 62.6723 84.7367 62.635 84.7324C62.8122 84.6187 62.9941 84.5028 63.1854 84.3955C63.3113 84.3247 63.4932 84.2625 63.5492 84.226C63.6798 84.1445 63.7871 84.0543 63.913 83.9728C64.3374 84.2067 64.8925 83.756 65.1956 83.5522C65.2469 83.4084 65.1816 83.2968 65.0137 83.2153C65.3309 83.0415 65.4848 83.1616 65.5641 82.7947C65.8066 82.8354 65.9979 82.7239 66.1145 82.6251C66.1564 82.6123 66.2544 82.638 66.2964 82.6251L66.4456 82.3934C67.0939 82.0994 67.2945 81.9106 67.0473 81.8247C67.1919 81.8397 67.2059 81.7925 67.0286 81.7003C67.0566 81.6809 67.0006 81.6337 67.0286 81.6166C67.8402 81.4213 68.0874 81.226 67.7609 81.0264C67.9755 80.8355 67.6676 80.8076 68.3113 80.6058C68.3532 80.593 68.5818 80.6359 68.6471 80.5951C68.8383 80.4814 68.3906 80.3333 69.0435 80.0157C69.37 79.8569 69.7572 79.741 69.9577 79.5093C69.9997 79.52 70.079 79.5029 70.1396 79.5093H70.3215C70.3728 79.4771 70.4708 79.4513 70.5034 79.4256C70.62 79.3183 70.3075 79.0265 70.3215 79.005C70.3308 78.9878 70.9139 78.872 70.6853 78.7518C70.648 78.7325 69.8598 78.902 69.9997 78.6509C70.0463 78.6295 70.093 78.578 70.1396 78.4986C70.3122 78.4578 70.4661 78.4299 70.5034 78.329C70.5127 78.3097 70.5174 78.2625 70.5034 78.2453C70.6294 78.1295 71.2823 78.2346 71.4036 78.1531C71.4829 78.1016 71.3803 77.9707 71.4176 77.9084C71.4409 77.872 71.4036 77.8269 71.4689 77.7625C71.5015 77.7303 71.6974 77.6917 71.7861 77.6552C71.912 77.6037 72.1265 77.5823 72.1499 77.5715C72.425 77.4385 72.2991 77.3033 72.4344 77.1552C72.5976 76.9793 73.3392 76.6981 72.5137 76.7282C72.5137 76.7153 72.2851 76.711 72.3271 76.6445C73.1806 76.7046 72.7609 76.5157 72.8775 76.3913C73.0967 76.1509 73.661 76.02 72.8775 75.8012C72.8588 75.7153 72.9008 75.6767 73.0594 75.6316C73.1946 75.593 73.4418 75.6166 73.6237 75.5115C73.8383 75.387 73.731 75.2754 73.7916 75.2089C73.9176 75.0715 74.0295 74.9921 74.1554 74.872C74.356 74.6874 74.9017 74.3076 75.0696 74.1145C75.3075 73.8398 75.4427 73.6574 75.4334 73.357C75.4334 73.284 75.4707 73.1552 75.4334 73.1037C75.3868 73.0372 75.2002 72.8999 75.0696 72.6831C75.051 72.6552 75.0929 72.6209 75.0696 72.5995C75.1069 72.5651 75.2375 72.5372 75.2515 72.5158C75.494 72.6016 75.7366 72.5973 75.9838 72.5158H76.1657C76.3243 72.2819 76.4968 71.9171 76.5295 71.6724C76.6134 71.6381 76.6181 71.6102 76.5295 71.5887C76.5248 71.5351 76.5575 71.4578 76.5295 71.4192C76.4455 71.3033 76.2123 71.2196 75.9791 71.166C75.8858 71.0866 75.7319 71.0351 75.7972 70.9128C75.9232 71.0523 76.3616 71.2389 76.5295 71.0823C76.5248 71.0673 76.7767 70.9063 76.5295 70.8291C76.1564 70.7862 76.231 70.739 76.7627 70.6917L76.7161 70.5759C76.7487 70.5265 76.4409 69.7733 75.9838 69.902C75.9838 69.8935 75.7319 69.8248 75.8718 69.7368C76.1284 69.5802 76.3056 69.7003 76.7114 69.3956C76.8513 69.3978 76.9166 69.342 76.8933 69.2261C76.9073 69.2025 77.0705 69.1767 77.0752 69.0566C76.73 68.9235 76.6694 68.8398 76.8933 68.8033L76.9026 68.8269ZM29.1231 64.0566C29.0998 64.078 29.0765 64.1017 29.0672 64.1253C29.0438 64.0909 29.0672 64.0695 29.1231 64.0566ZM70.6014 71.3591C70.6014 71.3591 70.648 71.3527 70.6807 71.3548C70.6573 71.3591 70.6294 71.3591 70.6014 71.3591ZM59.8785 77.0823C59.8785 77.0823 59.8878 77.093 59.8972 77.0994C59.9018 77.1123 59.9018 77.1273 59.8972 77.1466C59.8878 77.1273 59.8785 77.1059 59.8785 77.0823ZM65.1863 71.3548C65.2329 71.357 65.2796 71.3613 65.3216 71.3634C65.2609 71.3634 65.2143 71.3634 65.1863 71.3548ZM28.139 67.6467H28.0271C28.0597 67.6424 28.1017 67.6467 28.139 67.6467ZM37.7285 67.3956C37.7331 67.1939 37.7705 66.9965 37.9104 66.8055C38.4514 66.8398 38.6287 66.636 38.0923 66.5523C38.1389 66.5609 38.2135 66.5458 38.2742 66.5523C38.7406 66.6016 39.1557 66.6982 39.7387 66.636C39.6035 66.445 39.6221 66.3634 39.9206 66.2154C40.1678 66.239 40.4757 66.2862 40.6529 66.2991C40.7135 66.3034 40.7742 66.2948 40.8348 66.2991C41.4645 66.3334 41.8003 66.3613 42.4812 66.2154C42.5745 66.2154 42.6445 66.2154 42.7051 66.2154H42.7331C43.0083 66.5072 42.9523 66.3034 43.0316 66.2991C43.1016 66.2948 43.2741 66.2948 43.3534 66.2969C43.3674 66.2969 43.3814 66.2991 43.3954 66.2991C43.4141 66.3076 43.3394 66.4128 43.4327 66.445C43.596 66.5051 44.2163 66.4471 44.4915 66.5501C44.4822 66.4664 44.5101 66.3806 44.4915 66.2969C44.4868 66.269 44.5055 66.239 44.4915 66.2132C44.6128 66.2175 44.7387 66.2068 44.8553 66.2132C44.8973 66.2197 44.9346 66.224 44.9719 66.2261C45.4057 66.2948 45.1585 66.5458 45.7695 66.1295L45.2191 66.0437V65.96C45.8954 65.9707 45.8068 65.9278 45.9514 65.6231C46.5251 65.578 46.4458 65.4021 46.5017 65.3699C46.679 65.2669 46.8236 65.0501 47.234 65.1596C47.6584 65.2712 46.8982 65.3634 47.0521 65.5394C47.0708 65.5609 47.5605 65.3248 47.4159 65.6231C46.1333 65.5609 47.6025 66.033 47.6025 66.2969C47.9569 66.3098 47.7284 66.063 47.7844 65.96C47.8077 65.9493 47.817 65.9343 47.817 65.9192C47.8963 65.8398 48.0549 65.7454 47.9663 65.6252H48.1435C48.0642 65.887 48.6472 65.784 49.0623 65.7926C49.1836 65.7948 49.3095 65.7948 49.4262 65.7926C49.4868 65.8613 49.5941 66.0458 49.7013 66.0458L49.9765 65.7926C50.0372 65.7883 50.1025 65.7991 50.1584 65.7926C51.4038 65.96 50.1584 66.1467 50.1584 66.2561C50.1584 66.3549 51.1985 66.5501 51.4364 66.636C51.4131 66.5287 51.4737 66.3999 51.4364 66.2991C51.4364 66.4364 51.6743 66.5051 51.9868 66.4686C52.0054 66.5158 52.136 66.5802 52.1687 66.6381C52.1687 66.6424 52.0008 66.666 52.0054 66.7068L52.9009 66.975L52.719 67.563C53.5213 67.4986 53.1528 67.6982 53.2787 67.8119C53.2927 67.8227 53.5306 67.7733 53.8151 67.8162C53.8897 67.827 53.997 67.8763 54.1789 67.8999C54.1882 67.99 54.8179 67.9428 54.3608 68.2368C54.6313 68.2154 54.7992 68.1488 54.8739 68.1617C54.8972 68.2132 54.9112 68.2669 54.9112 68.3227C54.8039 68.9214 55.942 68.7175 55.9979 68.7454C56.0352 68.7626 55.9886 68.9128 56.1099 68.9879C56.2871 69.0995 56.8655 69.1789 56.8841 69.2883C56.9541 69.6402 56.2405 69.3613 55.8254 69.5008C55.816 69.4943 55.6295 69.5115 55.5222 69.4686C55.4149 69.4257 55.4662 69.3355 55.4522 69.3334C55.4009 69.3184 54.8132 69.5973 54.3562 69.4171C55.1631 69.6789 54.2116 70.0394 54.3562 70.1746C54.3701 70.1875 54.8692 70.0523 54.9019 70.2561C54.4448 70.2196 54.58 70.4643 54.3515 70.5523C54.1416 70.6338 53.5819 70.5158 53.8011 70.8055C53.8338 70.8484 54.5147 70.8312 53.9923 71.0608L54.3562 71.1853C54.3235 71.2025 54.2582 71.2969 54.1743 71.3548C54.0763 71.4192 54.0483 71.4857 53.9923 71.5244C53.8757 71.6059 53.7312 71.7969 53.6379 71.8226C53.5073 71.8613 53.2088 71.7518 53.1155 71.7904C53.0315 71.8248 53.1108 71.9299 53.0782 71.945C53.0642 71.9535 52.831 71.857 52.6211 71.9385C52.1967 72.1016 52.4159 72.3033 52.7097 72.2819C52.7377 72.2797 52.7703 71.8999 53.2601 72.1982C53.1481 72.2862 53.0035 72.3634 52.8963 72.4514C52.7843 72.4492 52.6397 72.445 52.5325 72.4514C52.1453 72.4771 51.6276 72.7518 51.6929 72.9149C51.7396 73.0265 52.0754 73.0565 51.9774 73.2089C51.5577 73.1209 51.6883 72.9943 51.2452 73.1252C51.0166 73.1917 50.6295 73.3012 51.0633 73.3784C51.0073 73.3956 51.2732 73.6724 50.331 73.4621H50.1491C50.1817 73.3913 50.6901 73.4063 50.5129 73.2089C49.5521 73.1982 49.8599 73.6638 49.4028 73.7904C48.9924 73.9063 49.0344 73.6424 48.8758 73.5844C48.6193 73.49 48.3161 73.6316 48.3208 73.6703C48.3208 73.7067 49.2396 74.0887 49.3235 74.2175C49.748 73.8033 49.664 74.093 49.7806 74.3012C49.7993 74.3312 49.7573 74.372 49.7806 74.3849C49.5428 74.4149 49.137 74.5458 48.8758 74.5308C48.8198 74.5115 48.7545 74.49 48.6799 74.4685C48.6892 74.4643 48.8944 74.4793 48.8618 74.3849C48.8431 74.3355 47.7097 74.2153 47.5791 74.2153H47.5558C47.5558 74.2153 47.5745 74.2153 47.5791 74.2153C47.3459 74.2025 47.0614 74.2346 46.8469 74.2153C46.7443 74.2067 46.5764 74.1488 46.2965 74.1316C45.9234 74.1059 45.6342 73.9814 45.387 74.1746L45.7508 74.4685C45.6435 74.4771 45.5036 74.5351 45.387 74.5522C45.3777 74.5501 45.345 74.5115 45.2051 74.4685C44.706 74.3183 44.762 74.4278 44.2909 74.5522C44.2303 74.3934 44.3516 74.2733 44.4728 74.1316C44.5008 74.1016 44.6267 74.0758 44.6547 74.0479C44.9812 73.7475 44.7247 73.5694 44.0297 73.6402C43.8572 73.6574 43.5167 73.9578 43.3161 74.0158C43.0549 74.0909 42.5465 74.0651 42.2807 74.2153C42.2807 73.8376 41.7023 74.0994 41.3525 74.0093C41.1846 73.9643 41.3758 73.7518 41.0913 73.711C40.9327 73.6874 41.0587 73.8827 40.9001 73.8849C39.4309 73.8956 40.4057 73.284 40.2704 73.2067C40.0839 73.2239 39.9253 73.2904 39.7247 73.2904C39.6361 73.2904 39.4495 73.2067 39.3609 73.2067L38.8106 72.9535C38.8572 72.9256 38.7732 72.7668 38.8106 72.7003L39.3609 72.9514C40.2984 72.9213 39.4216 72.4986 38.8059 72.6145C39.1744 72.2368 38.7313 72.4085 38.624 72.3613C38.3441 72.2411 37.6585 71.8462 37.3414 71.6874C37.0382 71.5351 36.7863 71.3462 36.4925 71.1896C36.3805 71.1295 36.11 71.1059 36.082 71.0844C36.0587 71.0673 36.2126 70.6939 36.2453 70.6789C36.5718 70.5115 36.5998 70.8355 36.7024 70.8484C37.0662 70.8935 37.0428 70.7239 36.9776 70.6381C36.8236 70.4321 35.7789 70.7862 36.0634 70.342C36.0494 70.1896 35.8069 70.0115 35.8815 69.8355C36.068 69.7969 36.3059 69.7797 36.4318 69.7518C36.6604 69.6982 36.7397 69.5995 36.7957 69.5823C37.1268 69.4922 37.6492 69.5759 37.5279 69.3291L36.9776 69.3699C37.346 69.0093 37.0149 68.8312 36.2499 68.9922C36.194 69.0029 36.1007 68.9793 36.068 68.9922C35.6529 68.8935 36.2266 68.548 36.068 68.4021C35.6809 68.4042 36.1333 68.6918 35.5223 68.4857C35.6063 68.2819 35.8488 68.2197 36.0727 68.0651C36.208 68.1124 36.3479 68.2111 36.4365 68.2347C36.7863 68.3248 36.847 68.4342 37.4486 68.4106C37.9011 68.3935 37.6585 68.2604 37.7145 68.2347C37.7611 68.2261 37.7891 68.2154 37.8078 68.2068C38.0503 68.1596 38.5214 68.1853 38.6287 67.9385C38.7359 67.6918 38.2555 67.9664 37.9011 67.8141C38.2509 67.5051 38.0316 67.4986 38.8152 67.3506C38.8246 67.2776 38.5727 67.3055 38.4514 67.3098C38.1669 67.3184 37.9757 67.3355 37.7192 67.3935L37.7285 67.3956ZM41.5577 65.5244C41.5577 65.5244 41.5671 65.5351 41.5717 65.5416L41.5484 65.5287C41.5484 65.5287 41.5577 65.5265 41.5624 65.5244H41.5577ZM37.8078 76.1981C37.8078 76.1981 37.7984 76.2024 37.7938 76.2024C37.7938 76.2024 37.8031 76.2003 37.8031 76.1981H37.8078ZM38.2788 79.2732C38.2182 79.2711 38.1576 79.2754 38.0969 79.2732H38.2788ZM37.2854 78.3462H37.3647C37.3414 78.3462 37.3134 78.3462 37.2854 78.3462ZM43.0363 79.7775C43.0363 79.7775 43.0176 79.7647 43.0223 79.7582C43.0363 79.7625 43.0503 79.7689 43.0643 79.7732C43.0549 79.7732 43.0456 79.7754 43.0363 79.7775ZM36.8376 79.2732C36.8376 79.2732 36.8143 79.2732 36.8096 79.2732C36.819 79.2732 36.8283 79.2732 36.8376 79.2732ZM35.5317 79.8612C35.5317 79.8612 35.527 79.8591 35.5177 79.8569C35.5177 79.8569 35.527 79.8591 35.5317 79.8612ZM41.3898 78.1359C41.3945 78.1509 41.3992 78.1659 41.3898 78.1767V78.1359ZM43.0083 81.5586C43.0083 81.5586 42.999 81.5586 42.9943 81.5586C42.999 81.5586 43.0036 81.5586 43.013 81.5586H43.0083ZM32.6026 75.3977H32.4207C32.4813 75.3977 32.5419 75.3977 32.6026 75.3977ZM56.1892 71.548C56.1892 71.548 56.2032 71.5329 56.2171 71.5222C56.2171 71.5222 56.2078 71.5329 56.1892 71.548ZM31.3199 70.9321C31.264 70.9299 31.2173 70.9256 31.1707 70.9214C31.2127 70.9149 31.264 70.9171 31.3199 70.9321ZM28.2603 72.3634C28.2603 72.3634 28.3069 72.3634 28.3349 72.3634H28.2136C28.2136 72.3634 28.2463 72.3634 28.2649 72.3634H28.2603ZM45.8021 76.0909C45.8021 76.0909 45.7881 76.078 45.7835 76.0715C45.7928 76.078 45.7928 76.0844 45.8021 76.0909ZM54.8459 65.8785C54.8785 65.8763 54.9112 65.872 54.9392 65.8785H54.8459ZM54.2349 72.6445C54.2349 72.6445 54.2116 72.6252 54.2069 72.6188C54.2256 72.6274 54.2349 72.6359 54.2349 72.6445ZM57.1313 66.4321C57.1313 66.4428 57.136 66.4557 57.1313 66.4664V66.4321ZM56.2171 64.3635C56.2171 64.3635 56.1985 64.3635 56.1752 64.3635C56.1892 64.3635 56.2032 64.3635 56.2171 64.3635ZM40.5503 63.6038C40.5876 63.6038 40.6249 63.6017 40.6576 63.6038H40.5503ZM27.7659 80.8526C27.7659 80.8526 27.7332 80.8612 27.7192 80.8634C27.7006 80.8676 27.6819 80.8698 27.6586 80.8741C27.6959 80.8634 27.7286 80.8569 27.7612 80.8526H27.7659ZM64.454 67.2712C64.454 67.2561 64.4447 67.239 64.454 67.2261V67.2712ZM55.6714 79.4406C55.6714 79.4406 55.6854 79.4513 55.6854 79.4599C55.6621 79.4513 55.6341 79.4428 55.6061 79.432C55.6388 79.432 55.6621 79.4342 55.6714 79.4406ZM53.1062 63.1832C53.1808 63.1725 53.2181 63.1746 53.2274 63.1832C53.1668 63.1875 53.1202 63.1896 53.1062 63.1832ZM36.3059 89.9727C36.3059 89.9727 36.3246 89.9792 36.3339 89.9813C36.3246 89.9813 36.3152 89.9813 36.3106 89.9792C36.3106 89.9792 36.3106 89.9749 36.3059 89.9727ZM56.8934 63.0866C56.8515 63.0909 56.8095 63.0931 56.7675 63.0995C56.8095 63.0909 56.8515 63.0866 56.8934 63.0866ZM53.6565 83.1488C53.6565 83.1488 53.6938 83.1445 53.7125 83.1423C53.6938 83.1509 53.6799 83.1573 53.6612 83.1659C53.6612 83.1595 53.6565 83.1552 53.6519 83.1488H53.6565ZM64.9951 71.4214C64.9951 71.4214 65.0044 71.4321 65.0044 71.4385C65.0044 71.4321 64.9951 71.4278 64.9951 71.4214ZM65.5874 67.6145C65.5874 67.6145 65.5734 67.636 65.5548 67.6467C65.5548 67.6403 65.5688 67.6274 65.5874 67.6145ZM59.524 65.6961C59.524 65.6961 59.5334 65.681 59.5427 65.6746C59.5567 65.6832 59.5707 65.6896 59.5847 65.6982C59.566 65.6982 59.5473 65.6982 59.5287 65.6982L59.524 65.6961ZM29.4823 66.6896C29.4823 66.6746 29.4823 66.6574 29.4916 66.636C29.4916 66.6531 29.4869 66.6725 29.4823 66.6896ZM24.9161 80.1144L24.7761 80.0994C24.8181 80.0994 24.8601 80.1037 24.9161 80.1144ZM50.5409 83.0179C50.5409 83.005 50.5316 82.99 50.5409 82.9792V83.0179ZM60.7927 63.6875C60.8813 63.7004 60.9606 63.7175 61.0305 63.7368C60.9559 63.7368 60.8766 63.724 60.7927 63.6875ZM22.7193 70.0909C22.7193 70.0802 22.7193 70.0673 22.7193 70.0566C22.7193 70.0651 22.7239 70.0759 22.7193 70.0909ZM41.2779 91.241C41.2779 91.241 41.3385 91.2324 41.3898 91.2345C41.3852 91.2388 41.3339 91.241 41.2779 91.241ZM50.8534 85.6251C50.8161 85.6037 50.8534 85.5801 50.9233 85.5522C50.9 85.5758 50.8767 85.5994 50.8534 85.6251ZM70.6294 71.4857C70.6294 71.4857 70.6667 71.5072 70.676 71.5222C70.6573 71.5093 70.6433 71.4965 70.6294 71.4857ZM52.7144 60.3206C52.7843 60.3206 52.8543 60.3184 52.9243 60.3206C52.831 60.3356 52.7657 60.3334 52.7144 60.3206ZM51.0913 60.5716C51.0913 60.5716 51.0726 60.5716 51.0633 60.5716C51.0679 60.5695 51.0773 60.5652 51.0819 60.563C51.0819 60.5652 51.0866 60.5695 51.0913 60.5716ZM26.5625 65.8398C26.5625 65.8248 26.5532 65.8098 26.5625 65.7948V65.8398ZM55.4149 84.1595C55.3869 84.1595 55.3543 84.1616 55.303 84.1595C55.345 84.1595 55.3823 84.1595 55.4149 84.1595ZM45.6155 59.9H45.6016L45.6109 59.8957C45.6109 59.8957 45.6109 59.8978 45.6109 59.9H45.6155ZM20.7044 74.2175C20.6857 74.2025 20.667 74.1896 20.6484 74.1767C20.6717 74.1874 20.6904 74.2025 20.7044 74.2175ZM64.9857 62.2583C64.9857 62.2283 64.9857 62.2004 65.0044 62.1725C65.0044 62.2025 64.9951 62.2304 64.9857 62.2583ZM21.2547 70.975V70.9321C21.2547 70.9321 21.264 70.9578 21.2547 70.975ZM41.3898 91.8247C41.3152 91.7968 41.2406 91.771 41.166 91.7474C41.2359 91.7667 41.3059 91.7903 41.3898 91.8247ZM55.1211 59.3914C55.1211 59.3699 55.1397 59.3442 55.163 59.3184C55.1491 59.342 55.1351 59.3656 55.1211 59.3914ZM68.8523 75.5115V75.4814C68.8523 75.4814 68.9083 75.475 68.9643 75.4793C68.9269 75.49 68.8896 75.5007 68.8523 75.5115ZM58.0455 83.8633L58.1015 83.859C58.1015 83.859 58.1015 83.8612 58.1015 83.8633C58.0828 83.8633 58.0641 83.8633 58.0455 83.8633ZM36.4878 98.3997V98.404H36.4785C36.4785 98.404 36.4832 98.3997 36.4878 98.3976V98.3997ZM55.4849 87.0243C55.4849 87.0243 55.4942 87.0243 55.4989 87.0264C55.4989 87.0264 55.4989 87.0264 55.4942 87.0264L55.4849 87.0221V87.0243ZM45.2331 93.3397C45.2331 93.3397 45.2751 93.3397 45.2984 93.3397H45.2331ZM67.8402 60.4879C67.8075 60.4901 67.7749 60.4922 67.7516 60.4879H67.8402ZM17.9199 78.0887L17.9525 78.093C17.9525 78.093 17.9292 78.0908 17.9152 78.0887H17.9199ZM21.0682 84.7475C21.0075 84.7517 20.9469 84.7453 20.8863 84.7475H21.0682ZM72.6956 74.8913H72.8775C72.8168 74.8913 72.7562 74.8913 72.6956 74.8913ZM31.138 97.2152C31.1614 97.2388 31.1101 97.2796 31.138 97.2989C31.0774 97.2882 31.0168 97.2796 30.9655 97.271C31.0308 97.256 31.0914 97.2367 31.138 97.213V97.2152ZM58.414 86.7689C58.414 86.8226 58.4886 86.8698 58.6472 86.9084C58.2181 86.814 58.1388 86.7689 58.414 86.7689ZM25.2799 61.7519H25.1726C25.2146 61.7497 25.2519 61.7454 25.2799 61.7519ZM17.2436 67.9815C17.2436 67.9815 17.2202 67.9943 17.2156 67.9986C17.2156 67.9922 17.2156 67.9857 17.2249 67.9836C17.2249 67.9836 17.2342 67.9815 17.2436 67.9815ZM24.0719 89.55H23.8153C23.8853 89.5414 23.9786 89.5479 24.0719 89.55ZM27.8498 94.2646C27.8498 94.2646 27.8498 94.2646 27.8545 94.2667C27.8545 94.2667 27.8498 94.2667 27.8452 94.2667C27.8452 94.2667 27.8452 94.2667 27.8452 94.2646H27.8498ZM61.343 85.2539C61.329 85.2174 61.413 85.153 61.5249 85.1702C61.5156 85.2067 61.5203 85.2389 61.5343 85.2646C61.4783 85.256 61.4177 85.2517 61.343 85.2539Z" fill="#D9F855"/>
<path d="M85.7155 35.8994C86.0861 35.7732 86.0358 35.1741 85.894 34.8363C85.9351 34.1516 85.8711 33.4444 85.7155 32.7147C85.6789 32.3363 85.4684 32.0075 85.3586 31.6517C85.322 31.5346 85.2121 31.4129 85.1801 31.2958C84.9925 30.6021 85.2076 30.458 85.1801 30.0571C85.1801 29.9985 85.1801 29.94 85.1801 29.8814C85.1755 29.7643 85.1847 29.6472 85.1801 29.5256C84.814 29.5526 84.718 29.404 85.0017 29.1697C84.9925 29.0436 85.0291 28.8859 85.0017 28.6382C85.2579 27.7103 84.1826 27.2238 84.6447 28.2824C84.4434 27.931 84.1505 27.7869 83.7479 27.7508C83.6884 27.5661 83.2308 27.2373 83.3909 27.0436C83.6884 26.6923 83.7799 27.4085 83.8348 27.3995C83.9584 27.2373 84.2832 27.1968 84.3839 27.0526C84.6036 26.7283 83.7662 25.386 83.7479 26.3364C83.2079 25.922 83.7479 25.0301 82.6725 24.7464C82.7274 24.7283 82.8052 24.7689 82.851 24.7464C83.1255 24.6247 83.4413 24.3139 83.5694 24.0392C83.1576 23.868 82.8281 24.3455 82.6725 24.3905C82.4986 24.4446 82.1646 24.3545 81.9541 24.3905C81.9541 24.377 81.7574 24.2824 81.9267 24.1248C82.2424 23.8275 82.8922 23.8905 82.851 23.332L82.0456 23.859C81.2769 23.0572 82.1463 23.2194 82.6725 22.8005C82.7229 22.7599 82.8235 22.6653 82.851 22.6248C82.7366 21.5843 82.4163 22.7059 82.2195 22.8005C82.1188 22.7374 82.0319 22.5617 81.9495 22.4491C81.9084 22.3905 81.7848 22.3365 81.7711 22.2734C82.4117 22.805 82.5353 21.8861 82.5993 21.377L82.668 21.0347C82.6588 20.9762 82.6771 20.9131 82.668 20.859C82.0136 20.4401 82.0228 19.4041 81.5103 18.9041C81.2632 18.6609 80.4029 18.2465 80.0597 18.0303L80.5127 17.6744C80.4075 17.6429 79.8309 17.4987 79.7943 17.4987C79.7577 17.4987 79.1125 17.6609 79.0896 17.6879C78.8928 17.8771 79.5106 18.6203 78.3575 18.3816C78.3346 18.1699 78.6595 18.1158 78.7144 18.0303C78.934 17.6969 79.0301 17.3591 79.0713 16.9717C78.362 16.8096 78.5908 17.2735 78.5313 17.3231C78.5085 17.3411 78.417 17.3186 78.3529 17.3231L77.9914 16.6159C77.9411 16.6789 77.8678 16.733 77.8129 16.7915C77.6985 16.9132 77.5658 17.0213 77.456 17.1474C77.3965 17.1384 77.3325 17.1609 77.2776 17.1474C76.2114 16.9177 76.8062 17.0032 76.3807 16.6159C76.2525 16.4987 76.0055 16.3681 75.8407 16.26C74.8569 16.224 76.0741 17.269 76.0192 17.3186C75.6074 17.2195 74.9942 17.769 74.9438 18.2059C74.1522 18.1744 74.5869 18.3275 74.2254 18.5618C73.4292 18.296 73.2553 18.0843 73.7038 17.9357C73.7175 17.8951 73.7312 17.8501 73.7404 17.8095C73.9372 18.0573 74.3261 18.2014 74.5778 17.769C74.4771 17.5753 74.0561 17.287 73.8136 17.2825C73.809 16.8546 73.5894 16.5663 72.9625 16.796C73.1181 16.7285 73.1181 16.6699 72.9625 16.6204C72.7978 16.6204 72.6376 16.4447 72.6056 16.4447C72.4912 16.4447 72.3539 16.4312 72.2486 16.4447C71.5028 16.5483 71.7819 17.0573 71.7087 17.1519C71.6904 17.1744 71.338 16.9897 71.1733 16.9762C70.9994 16.9627 70.5876 16.9402 70.4549 16.9762C69.9332 16.9132 69.947 16.4762 69.9149 16.4447H69.375C69.6038 17.3456 69.1416 17.269 68.4781 17.1519C68.4507 17.1429 68.4278 17.1384 68.4049 17.1339C68.1624 17.0573 67.7963 16.8276 67.4028 16.9762C67.2838 17.242 67.5767 17.4447 67.5812 17.5077C67.5858 17.5663 67.5767 17.6249 67.5812 17.6834C67.6224 18.0843 67.5492 18.3321 67.1328 18.2194C66.9864 18.1789 66.9269 17.4627 66.3229 17.6834L66.8628 18.2149C66.9726 18.3861 66.451 18.5302 66.3229 18.5663C66.2039 18.5978 65.6411 18.742 65.6045 18.742C65.4443 18.742 64.6984 18.323 64.5291 18.2104C64.433 18.1474 64.3873 17.8366 64.1722 17.8546L63.9937 18.5618C63.948 17.7104 62.6622 18.4582 62.9138 17.5032L62.4654 17.8591C62.3784 17.8591 62.2595 17.5888 62.1954 17.5032C62.1451 17.2014 62.2503 16.9041 61.8385 16.796H61.66C62.1176 15.8997 62.1176 15.6024 61.8385 14.6745C61.7836 14.4943 61.7607 14.3051 61.66 14.1429C61.6783 14.0799 61.7882 13.9627 61.8385 13.7871C61.8568 13.733 61.8248 13.6655 61.8385 13.6114L61.4816 13.0799C61.7882 13.224 61.8156 13.0033 61.8385 12.724C61.8293 12.6655 61.8522 12.5979 61.8385 12.5484C61.9758 12.188 61.9392 11.3096 61.4816 11.6655C61.445 11.6475 61.3672 11.67 61.3031 11.6655C61.3992 11.3006 61.3718 10.8502 61.8431 10.9583C61.9117 11.1114 61.9712 11.1114 62.0215 10.9583C62.0307 10.5484 62.0215 10.134 62.0215 9.71957C62.0215 9.66101 62.0215 9.60246 62.0215 9.5439C62.1863 8.58896 62.1863 7.64303 62.0215 6.71511C61.9163 6.48989 61.8888 6.28269 61.8431 6.18359C61.7195 5.92233 61.3123 5.76468 61.3031 5.12054C61.2985 4.52596 61.8202 3.37733 60.6716 4.76469C60.4978 4.1656 60.333 4.50794 59.8663 4.58902C59.7519 4.60704 59.6009 4.56199 59.5094 4.58902C59.3995 4.0575 59.7702 4.25569 60.2278 4.23317C60.2781 4.04398 60.0539 3.81426 60.0493 3.70165C60.0493 3.59804 60.4474 3.47642 59.9761 2.98094C59.6009 2.58455 59.1707 2.65662 58.736 2.46743C58.6171 2.41338 58.6125 1.86384 58.1091 2.15212C58.0725 2.17464 57.5921 2.7422 57.5372 2.81878C57.5051 2.86382 57.3724 2.89986 57.3587 2.99445C57.0704 2.48094 55.9722 2.47644 55.3819 2.46293C55.359 2.35932 55.4185 2.17014 55.3819 2.10707C55.2629 1.89987 55.0479 1.93591 54.842 1.9269C54.7733 1.58006 55.2675 1.9269 55.1989 1.57555C54.9014 1.58006 54.5994 1.55753 54.302 1.57555C54.183 1.58006 54.0549 1.55753 53.9451 1.57555C53.8719 1.58456 53.2587 1.73771 53.2267 1.75122C53.2404 1.64762 53.5058 1.3188 53.4051 1.22421C53.3502 1.17015 52.1696 0.755744 51.9683 0.692682C51.648 0.593585 51.5244 0.381876 51.0074 0.539531C50.5406 0.683673 50.8472 0.881868 50.893 1.04403C50.9067 1.09808 50.8838 1.16565 50.893 1.2197L50.1745 0.336832C50.1151 0.341336 50.051 0.327823 49.9961 0.336832C49.932 0.350345 49.8542 0.318814 49.8176 0.336832C49.7856 0.354849 49.296 0.83232 49.2777 0.868355C49.1267 0.94493 49.1221 1.00349 49.2777 1.04403C49.2319 1.16565 49.3097 1.41339 49.2777 1.57555H49.1038C49.1953 1.09358 48.9757 1.017 48.5638 0.868355C49.0489 0.269265 48.5776 0.138637 47.1499 0.480974L45.3058 0.00800789C45.1914 0.00800789 45.0541 -0.0100099 44.9489 0.00800789C44.6606 0.0530522 44.0474 0.228725 44.2305 0.539531C43.0545 0.521514 43.3702 0.539531 42.4367 0.715204C42.0981 0.778266 41.7 0.841329 41.3614 0.890877C40.8123 0.971957 40.1442 0.989975 39.5676 1.06655C39.2976 1.10259 39.0917 1.23321 39.0277 1.24222C38.5289 1.30979 37.9203 1.18367 37.4124 1.24222C37.2934 1.25574 37.1607 1.2197 37.0555 1.24222C37.028 1.24673 36.9594 1.38186 36.877 1.4179C36.4652 1.60708 36.2226 1.53501 36.337 2.12509C35.7239 2.07104 35.5088 2.21068 35.6186 1.59357C35.0283 1.36384 34.6623 2.28725 35.2617 2.38635L34.8087 3.00796C34.2779 2.035 32.5024 3.4539 34.7172 3.18814C34.7721 3.52147 34.2779 3.25571 34.1772 3.53949C33.5 3.67462 33.6052 3.7602 32.9189 3.53949C32.8868 3.53048 32.8685 3.34579 32.6901 3.38633C31.4271 3.66561 32.0037 4.35028 31.8252 4.59352C31.7795 4.65659 31.5324 4.5665 31.482 4.60253C31.2441 4.75118 30.9192 5.42234 31.1251 5.4854C31.2532 5.52594 31.5507 5.40432 31.6422 5.51243C31.9122 5.82323 31.3127 5.72864 32.3789 6.1926C32.5802 6.28269 33.2758 6.51241 33.2712 6.63403C33.1202 6.82322 33.0378 6.89529 32.8365 6.89979C32.8045 6.89979 32.7724 6.89979 32.7358 6.89979C32.6946 6.89979 32.594 6.71061 32.4887 6.71061C32.3057 6.71061 32.3514 7.48988 31.6605 7.07547V7.96284L32.5574 7.87726L31.6559 8.67004C31.4912 8.64301 31.2898 8.68806 31.116 8.67004V8.84571C32.1867 9.04841 31.116 10.152 32.3697 9.55291C32.5024 10.0889 32.0723 9.83218 31.8435 9.99885C31.4637 10.2736 31.6925 10.4808 32.0128 10.616C31.9762 10.616 31.6651 10.8817 31.4729 10.7916C31.482 10.8277 31.482 10.9313 31.4729 10.9673C31.0976 11.4583 31.5369 11.706 32.0128 11.6745C31.9899 11.6925 31.9625 11.9222 31.8344 12.0303C31.6834 12.1565 31.5781 12.3006 31.4774 12.3862C31.4683 12.5619 31.4912 12.742 31.4774 12.9177C31.4683 13.0348 31.4866 13.1565 31.4774 13.2736C32.3926 13.5393 31.7932 13.7375 31.8344 14.5123C31.7337 14.5844 31.6788 14.6744 31.6559 14.688C31.0107 15.1474 30.3243 15.4762 29.6791 15.9267C29.6196 15.9222 29.5601 15.9267 29.5007 15.9267C29.4412 15.9267 29.3817 15.9267 29.3222 15.9267C29.8255 15.2465 29.1941 15.4492 29.1437 15.3952C28.9058 15.2645 28.8966 15.3276 28.9653 15.5708L28.2469 15.215C28.1874 15.2195 28.1187 15.2015 28.0684 15.215C27.9815 15.233 27.9174 15.3096 27.8899 15.3907C28.2926 15.8906 28.5489 16.1924 27.7115 16.0979C26.3708 15.7465 27.4552 16.3636 26.9016 16.4492C26.6407 16.3501 26.3753 16.3051 26.0962 16.2735C25.9177 16.0573 25.2725 15.4627 25.0712 15.4087C24.4168 15.2375 24.609 16.233 23.4056 15.5663C22.9937 15.3366 23.1814 15.5618 23.0487 15.5663C22.8885 15.706 22.8885 15.8816 23.0487 16.0979C22.98 16.0618 22.9251 15.9492 22.8702 15.9222C22.9343 15.6519 22.2845 15.3952 22.3302 15.7465C22.2204 15.7465 22.0465 15.724 21.9733 15.7465C21.3144 15.9672 21.1954 16.0258 20.5228 16.0843C20.477 16.0843 20.4221 16.0843 20.3535 16.0979C19.7494 16.1474 19.15 16.0979 18.5551 16.278L18.7382 16.6294C18.1708 16.76 17.4798 16.724 16.9398 16.8096C16.8804 16.8186 16.8163 16.8005 16.7614 16.8096C16.2855 16.8861 15.773 16.9267 15.503 17.3411C15.2285 17.76 15.4389 17.5888 15.503 17.6969L15.2788 17.6249C15.2879 16.9267 14.9264 17.278 14.6061 17.6969C14.3682 17.6789 14.1257 17.5663 13.8877 17.5213C13.6315 17.1429 13.2013 17.1879 12.5836 17.6609L12.0894 17.5213C12.0528 17.5077 11.9704 17.5213 11.9109 17.5213C11.8514 17.5213 11.7554 17.5077 11.7325 17.5213C11.5815 17.4987 11.284 17.4987 10.8356 17.5213C10.3231 17.6519 9.5635 17.814 9.04185 17.8771L8.86339 18.4086C8.45156 18.3501 8.31428 18.3951 7.96651 18.4086C7.50435 18.4266 7.73315 18.1068 7.2481 18.5843C7.16116 18.6699 7.06049 18.805 7.06506 18.9356C6.76306 19.0212 6.99643 18.6474 6.77678 18.5843C6.41986 18.4807 5.49553 19.1068 5.12946 19.2465C4.96473 19.3095 4.69018 19.1203 4.54375 19.2104C4.39732 19.3005 4.4019 19.823 3.83449 19.6473C3.80703 19.8455 4.00837 19.814 4.01294 19.823C4.06786 19.9041 4.22344 20.1338 4.1914 20.1744C3.27623 20.1744 3.24419 20.9491 4.01294 21.0617C4.03582 21.1653 3.97634 21.35 4.01294 21.4176L3.47299 21.5933C3.52332 21.4852 3.69721 21.2825 3.65145 21.2419C2.8644 21.6924 3.22132 20.7554 2.39308 20.8861C2.39308 20.8996 2.24207 20.9897 2.21462 21.0617C1.94922 21.1338 2.06819 21.3725 2.57154 21.7689V21.9446C2.77745 22.0482 3.09319 22.5707 3.46841 22.6518C3.2442 22.7599 2.81864 22.7014 2.51205 22.9986C2.32902 23.1788 2.41138 23.5932 2.03158 23.7103C1.38638 23.8725 0.965401 24.4671 1.28114 25.0617C1.12098 25.2058 0.951673 25.3995 0.773213 25.6518C0.869307 25.8184 0.892186 26.0076 0.951673 26.1833C0.855579 26.3049 0.663392 26.4175 0.594754 26.5391C0.388838 26.8905 0.315624 27.0076 0.594754 27.422C0.681695 27.5661 0.741182 27.5752 0.773213 27.422C0.93337 27.431 1.58772 27.7013 1.30859 27.9535C1.2308 28.0211 0.809821 27.7283 0.773213 27.7733C0.750334 27.8004 0.796093 28.1157 0.67712 28.3004C0.530691 28.5256 0.0914055 28.3499 0.233258 28.8364L0.947097 28.4851L0.411718 29.2778L1.12556 29.3679C0.645088 29.4535 0.34308 29.8048 0.228682 30.431C0.128013 30.467 0.105133 30.5436 0.0502225 30.6066C-0.141965 31.4084 0.256138 31.4355 0.590178 31.8454C0.375111 31.949 0.443749 32.3363 0.411718 32.3769C0.384263 32.4084 0.0822537 32.3093 0.0776778 32.4535C0.068526 32.9039 0.182923 33.2507 0.590178 33.2598C0.649664 33.2598 0.709151 33.2598 0.768637 33.2598V33.4354C0.00446357 34.3363 0.3202 34.1111 0.590178 35.0255C0.672544 35.3138 0.49866 35.7462 0.947097 35.9984C0.599329 36.3588 0.269865 35.9489 0.233258 36.6156C0.201227 37.2192 0.603905 37.4489 0.759486 37.9624C1.02031 38.8272 0.333928 40.1921 1.84855 38.7371C1.89431 38.7507 1.96752 38.7371 2.02701 38.7371C2.06819 38.7371 2.13683 38.6876 2.20089 38.638C2.26038 38.611 2.31986 38.5885 2.37935 38.5705C2.03616 39.2732 2.58527 39.111 2.70424 39.3002C2.85982 39.5434 2.56239 40.0029 2.91931 39.9714C3.07946 39.593 2.92846 38.8948 2.74085 38.557L3.09777 38.3813C3.12065 38.4263 3.23047 38.4804 3.27623 38.557L3.50502 39.6425C3.81618 40.2146 3.98091 39.6741 4.1731 40.3272C4.24174 40.5569 4.20056 40.575 4.35156 40.8587C4.82288 41.3677 5.24386 41.5434 5.60993 41.3903V41.2146C5.62823 41.1605 5.64196 41.111 5.64196 41.0614C5.67857 41.0885 5.72433 41.12 5.79297 41.1425C5.82957 41.156 5.89821 41.1065 5.96685 41.0344C6.03549 41.0344 6.28716 40.8993 6.32377 40.8587C6.59375 40.8002 6.84085 40.9984 7.04219 41.0344C7.0971 41.0434 7.16116 41.0344 7.22064 41.0344C7.32131 40.7686 7.44029 40.7686 7.57756 41.0344C7.60044 41.0975 7.73772 41.156 7.75602 41.2101C7.82466 40.7371 8.23649 40.6695 8.47444 40.3272C8.5385 40.3362 8.60714 40.3092 8.6529 40.3272C8.84051 40.3903 9.03727 40.2191 9.0327 40.6741C9.13794 40.6966 9.17913 40.5029 9.19285 40.5074C9.25234 40.5119 9.3164 40.4939 9.37131 40.5074C9.62756 40.5614 9.84263 40.9443 9.72823 41.2146C9.78772 41.2146 9.84721 41.2146 9.90669 41.2146C10.1401 41.0479 10.7075 40.9038 10.982 40.8587C11.1788 40.8317 11.3801 40.7011 11.586 40.7281C12.245 40.8182 12.2221 41.4488 12.6019 40.1515H12.7804C12.6705 40.2461 12.5973 40.6921 12.6705 40.7732C12.7758 40.8858 14.5741 40.8858 14.7571 40.8587C14.812 40.8768 14.8853 40.8407 14.9356 40.8587C15.1278 40.8407 15.2468 40.7822 15.2925 40.6831C15.6677 40.62 15.9972 40.584 16.3724 40.6831L16.1894 40.3317L17.0908 40.1515C17.3151 40.1876 17.4706 40.2912 17.6308 40.3272C17.6857 40.3407 17.7498 40.3182 17.8093 40.3272C17.8321 40.3272 17.9008 40.4759 18.0655 40.4849C18.7519 40.5254 18.9853 39.9939 19.5161 41.0344C20.0926 39.9488 20.3901 40.4308 20.9987 40.2146C21.2137 40.138 21.2503 39.8137 21.3144 39.7957C22.0786 39.602 21.5935 40.1831 21.5844 40.6831C21.7033 40.6831 22.106 40.1876 22.1197 40.1515L22.8336 40.0615L22.6551 40.5029H23.3735L23.1905 40.8542H23.7305C23.3918 39.8452 23.5383 40.138 24.2704 39.62C24.998 39.7506 25.0254 39.9443 25.7072 39.7957C25.7118 39.7371 25.6981 39.6786 25.7072 39.62V39.7957C26.1511 39.7011 26.5218 39.4939 26.961 39.4443L26.7826 39.9714C27.35 39.7101 27.4461 40.2461 27.8579 39.9714C28.1691 39.7642 28.1965 39.4939 28.2377 39.4624C28.2652 39.4398 28.7045 39.611 28.9333 39.62C29.6608 39.647 30.3701 39.6155 31.0885 39.62C31.3264 39.62 31.569 39.611 31.8069 39.62C31.8252 39.6245 31.8435 39.629 31.8572 39.6335C31.9808 39.6786 32.1913 39.8452 32.4109 39.8092C32.507 39.7912 32.5802 39.2281 33.0653 39.4443C33.0424 39.4939 33.0882 39.5705 33.0653 39.62C32.9921 39.7867 32.8319 39.9263 32.7084 40.0615C33.0607 40.5795 33.2254 40.0389 33.4222 39.62C33.4817 39.62 33.5458 39.629 33.6007 39.62C33.8981 39.7912 34.0354 40.1155 34.2733 40.3362C34.5433 40.5885 34.5433 40.2101 34.859 40.8587C34.9414 41.0299 35.0421 41.1921 35.0421 41.3903C35.1748 41.4218 35.1931 41.2146 35.2205 41.2146C35.3395 41.2011 35.463 41.2146 35.5774 41.2146C35.399 41.9533 36.0167 41.7281 36.2593 41.9488C36.2913 41.9803 36.0671 42.4263 36.4743 42.4488C36.4286 42.2056 36.7626 41.5029 36.6528 41.3903C36.607 41.3407 35.3807 41.9128 35.9344 40.8587C35.9664 40.8362 36.0945 40.7101 36.1128 40.6831C36.6757 40.5029 36.3599 41.1695 36.5613 41.2146C37.0372 41.3182 36.9868 41.12 37.0097 40.6831C37.5359 40.7461 37.3071 40.6245 37.3666 40.3272C37.3895 40.2281 37.3575 40.0885 37.3666 39.9714C37.9203 40.1335 37.632 39.5705 37.7373 39.4624C37.8151 39.3813 38.2543 39.4579 38.442 39.4398C38.5014 39.4398 38.5609 39.4398 38.6204 39.4398C38.8584 39.4443 39.1055 39.4173 39.3388 39.4398H39.7598C39.6912 39.4624 39.563 39.4624 39.3388 39.4398C39.4029 39.4443 40.1716 39.5975 40.2357 39.6155C40.5926 39.9984 40.1442 40.2326 40.0618 40.602C39.8834 41.4218 40.3043 41.129 40.4142 41.2056C40.492 41.2596 40.556 41.5164 40.6841 41.5569C41.1051 41.7011 41.0548 41.1605 40.5926 41.0299C40.7574 40.1786 40.858 40.629 40.9495 40.4984H41.128C41.2104 41.0975 41.3476 40.7506 41.4895 40.8542C41.6085 40.9443 41.7229 41.3903 42.0295 41.2056C42.0569 41.1876 41.8373 41.0885 42.2079 40.6786C42.876 40.9398 43.6722 41.1245 43.8232 40.3227L43.9193 40.1515C44.354 40.0434 44.7338 40.6425 44.8985 41.0299C45.1456 41.611 44.9992 41.2641 45.617 41.5614C45.8229 41.6605 45.9693 42.0209 46.3354 41.9128C45.5849 41.2146 46.3857 41.0209 46.4818 40.5479C46.5459 40.2416 46.1523 39.8137 46.5138 39.6155C46.6374 39.6606 46.7518 39.7416 46.8707 39.7912C47.2094 41.0795 47.8363 39.6921 47.9507 39.6155C48.5959 39.2101 47.882 40.0795 48.3945 39.9624C48.6187 39.5254 49.5522 39.5885 49.7444 39.4353C49.9137 39.5119 49.8771 39.6741 49.9229 39.7912C50.1288 40.2732 50.4171 40.3182 50.4354 40.3542C50.5406 40.5975 50.0876 40.8317 50.4628 41.0299C51.1858 41.4083 50.9158 41.0704 51.0028 40.8542C51.2728 40.1831 51.4192 40.4263 51.5427 40.3227C51.5199 40.593 51.6343 40.7822 51.8997 40.8542C52.4122 40.9894 52.2245 40.5299 52.2566 40.4984C52.3984 40.3723 52.7187 40.3813 52.7965 40.3227C53.0711 40.1065 53.0436 39.8362 53.2129 39.6696C54.032 38.8362 54.2288 39.7056 54.6864 39.7867C54.8145 39.8092 54.8008 39.5344 54.9518 39.4398L55.5787 39.611L55.3133 40.3227C55.7937 40.2011 55.6656 39.4038 56.1873 39.3452C57.0887 39.2416 56.7043 39.9443 56.7501 39.9669C57.3084 40.2732 57.5372 39.62 57.5875 39.6065C58.1595 39.5029 58.7132 39.7597 58.5484 40.3858C58.5347 40.4308 57.5921 40.7641 58.5484 40.8542C58.585 41.0749 58.5347 41.0344 58.3151 41.0299C57.7248 41.5074 59.0747 42.111 59.2668 41.9128C59.1845 41.4128 59.5414 41.1695 59.546 40.6786C59.546 40.3272 59.2348 40.1741 59.8068 40.4984C59.8434 40.7777 59.7931 41.138 60.1637 41.2056C60.1866 40.8362 60.2141 40.4398 59.8068 40.3227C59.88 39.6876 61.143 39.602 61.7836 39.4398C61.8385 39.4263 61.9071 39.4534 61.962 39.4398C62.1405 39.9173 62.3144 40.1515 62.6805 40.5029C62.8315 40.647 63.376 41.0614 63.5773 41.2101C63.6322 41.2506 63.861 41.2371 64.0075 41.3677C64.0395 41.4263 64.0761 41.4939 64.1173 41.5614C64.2454 42.2776 63.9571 42.5839 64.6572 42.4443C64.5611 42.0254 64.6252 41.7371 64.2957 41.3858C64.4147 41.3722 64.5383 41.3948 64.6527 41.3858C64.7716 41.3722 64.8952 41.3948 65.0096 41.3858L64.8311 40.5029C64.8586 40.4263 65.0004 40.3587 65.0096 40.3272C65.124 40.3452 65.2658 40.3047 65.3711 40.3272C65.458 40.3452 65.5267 40.4218 65.5495 40.5029C65.4397 40.638 65.4168 40.8632 65.3711 41.0344C65.3345 41.174 64.9409 41.3182 65.5495 41.5659C65.5816 41.4083 65.5038 41.147 65.5495 41.0344C65.6319 40.8317 65.7783 40.6921 65.9065 40.3272C65.9248 40.2732 65.8882 40.2056 65.9065 40.1515C66.03 40.1966 66.1444 40.2912 66.2634 40.3272C66.5517 40.4173 66.6752 40.4623 66.9818 40.3272C66.9818 40.3858 67.2426 40.6515 67.174 40.8587C67.2563 40.8587 67.3296 40.6786 67.3387 40.6831C67.9427 40.8047 68.0388 41.611 68.2356 41.9218C68.5422 42.4083 68.501 42.1425 68.7755 42.8047C68.7847 42.8407 68.7893 42.8767 68.7984 42.9083C68.771 43.1515 68.4552 43.6695 68.4186 43.6875C68.3088 43.7326 67.9565 43.629 67.8787 43.6875C67.8421 43.7145 68.1486 44.2821 67.8604 44.5479C67.81 44.5974 66.7713 44.3992 66.8033 45.2731C66.6661 45.4578 67.0596 45.9578 65.9065 45.9803C65.7097 45.9397 65.4123 45.9893 65.188 45.9803C64.9867 45.3812 63.8976 46.0298 63.5682 45.8001C63.8382 45.5253 63.6963 45.2551 63.3943 45.4533C63.376 45.4668 63.4812 45.7055 63.1472 45.8361C62.6393 46.0343 61.779 46.0839 61.2345 45.9803L61.143 46.5118C60.5939 45.5073 60.5115 45.9803 59.7015 46.0028C59.1662 46.0163 58.521 45.4803 58.8962 46.5118C58.5942 46.5073 58.8413 46.0298 57.9993 45.9803C57.3999 45.9487 57.2672 45.8902 57.1024 46.5118C56.9972 46.3271 56.7684 45.8361 56.7455 45.8046C56.2879 45.2461 55.7846 45.4578 55.3087 45.4488C54.5949 45.4352 53.7209 45.6424 53.4372 45.6334C52.943 45.6109 52.2978 44.8226 51.7166 45.6289C51.6571 45.6199 51.5976 45.6379 51.5382 45.6289C51.4192 45.5929 51.3094 45.5794 51.2041 45.5749C50.9707 45.5343 50.7191 45.4848 50.4628 45.4533C50.1654 45.4127 49.8863 45.228 49.5659 45.2776C49.9732 45.9217 49.4973 46.0433 49.2045 46.5118C49.1541 46.5929 48.9894 46.8181 49.026 46.8586C49.3188 46.9622 49.6483 47.0794 49.9229 47.219C49.7581 47.6154 49.8725 48.0568 49.7444 48.4577L49.209 48.282C49.1541 48.3541 49.3417 48.8271 49.3875 48.9892C49.3875 48.9983 49.2731 48.9262 49.3875 49.1649C49.4516 49.3 49.9091 49.2865 49.749 49.782C49.7215 49.8721 49.3738 49.8586 49.3783 49.9622C49.3875 50.2595 49.8588 50.5298 49.7444 50.9352C49.6895 51.1063 49.781 51.4352 49.7444 51.6424C49.6483 51.8225 49.6071 51.9757 49.5659 52.1739C49.0855 52.327 48.5089 52.4667 48.6691 53.0567C48.5821 53.0567 48.4174 53.2009 48.3122 53.2324C48.0513 52.273 47.6212 53.3585 47.4839 53.3991C46.9257 53.5703 46.7106 52.8405 46.1569 53.7639C45.8778 53.4847 45.7634 53.7775 45.4385 53.0567C45.3607 52.8811 45.2051 52.7504 45.26 52.5252L46.3308 52.6153L44.8985 52.3496L45.077 53.4081C45.0084 53.4576 44.958 53.5432 44.8985 53.5838C44.8207 53.6423 44.4181 53.4351 44.537 53.9396C44.5142 53.9306 44.2488 54.2549 44.2122 53.854C44.203 53.7369 44.537 53.1423 44.084 53.0522C43.4663 52.9306 43.3702 53.6018 43.2787 53.9351C43.1322 53.8991 42.7387 53.9171 42.5603 53.9351C42.5008 53.9396 42.4367 53.9261 42.3818 53.9351C42.2903 53.9036 42.2079 53.8721 42.1301 53.8495C41.5124 53.5838 41.8601 53.1694 41.8098 53.0793C41.7824 53.0297 40.858 52.5162 40.7665 52.7865L41.4849 53.7594C41.3065 53.7684 41.128 53.7504 40.945 53.7594C40.8306 53.7639 40.6933 53.773 40.588 53.7594V53.5838C40.0435 52.6829 40.7665 52.4982 40.7757 52.4306C40.858 51.8541 39.9291 51.6784 40.4096 50.9307C39.4395 51.0072 40.2494 52.1063 40.2311 52.4306C39.2976 52.6559 39.3526 51.836 39.4258 51.1018H38.4374C38.2498 50.6018 38.7211 50.818 38.7943 50.7505C39.0322 50.5298 39.0826 50.255 39.1558 49.9577C38.6662 49.6018 38.7897 50.219 38.7943 50.5748C38.6341 50.4622 38.4282 50.4622 38.2543 50.3991C38.1949 50.3766 38.1399 50.255 38.0759 50.2235C38.2406 49.6514 38.2086 49.2055 38.0759 48.6334C38.9819 48.5703 38.2818 49.201 38.9728 49.1649C38.9499 48.7505 39.0231 48.3181 39.3297 48.0118C39.0826 47.9712 38.6479 47.7595 38.4328 47.746C38.323 47.7415 38.1628 47.728 38.0759 47.746C37.1287 47.755 38.1811 46.9217 38.236 46.737C38.3321 46.4082 38.0484 46.0073 38.0759 45.9803C38.1125 45.9442 38.8538 45.9307 38.9728 45.5343C38.4237 44.7731 38.204 45.9578 37.9889 45.9713C37.8974 45.9758 37.6778 45.4938 37.362 45.6244C37.8013 46.3541 37.2293 46.0929 37.1836 46.1514C36.6711 46.3136 36.6985 45.8767 36.392 45.7641C35.9206 45.5974 34.8316 45.7055 34.4884 46.1514C33.4359 46.1424 32.0815 46.0749 31.0748 46.1514C30.91 45.7596 29.9811 45.8947 29.6105 45.8947C28.6633 45.8992 28.0638 45.7235 27.3912 45.683C27.0571 45.6605 26.7139 46.3812 26.4989 45.6154C26.2792 45.5163 26.2838 45.7686 26.2289 45.7956C26.0733 45.8857 25.8171 46.1199 25.6889 46.1514L25.5974 45.2686H25.332V46.1514C24.8607 46.0839 24.6411 45.6605 24.5267 45.6605C24.4306 45.6605 23.9593 46.165 23.7167 45.9713C23.671 45.9352 23.7579 45.674 23.7167 45.6199C23.4285 45.201 23.4147 45.1244 22.9983 45.4443C22.5499 45.7866 22.7283 45.9217 21.923 45.9758V46.1514C21.7674 46.156 21.6164 46.1605 21.5661 46.3271C20.3672 46.237 19.722 46.255 18.5139 46.3271C18.4407 46.3136 18.3721 46.3091 18.308 46.3091C18.1204 46.2731 17.9191 46.192 17.7315 46.2055L15.8187 46.683C15.1873 46.6334 13.8282 46.3857 13.485 46.8586C13.3066 46.8586 13.119 46.8406 12.9451 46.8586C12.8993 46.8496 12.849 46.8406 12.7941 46.8361C12.6431 46.7866 12.4692 46.6785 12.4051 46.683V46.5073C12.2312 46.5253 12.0436 46.4893 11.8652 46.5073C11.6364 46.4352 11.3984 46.4938 11.1468 46.683C10.8539 46.6965 10.5427 46.6965 10.2499 46.683C9.91584 46.6379 9.73738 46.755 9.70993 47.0388C9.59553 47.0794 9.30725 46.9622 9.19285 47.0658C9.11049 47.1424 9.19285 47.3676 9.16997 47.3947C7.98024 47.0794 7.63247 47.2866 8.1221 48.0163C8.08549 48.0838 8.05346 48.1469 8.026 48.21C8.05803 47.5433 7.66908 47.2685 7.37622 48.4577C7.26183 48.5974 6.96897 49.2055 6.79051 49.2865C6.49308 49.4172 6.25056 49.246 5.9394 49.5208C5.92567 50.0388 6.43359 50.4937 6.47935 50.9352C6.53426 51.4892 6.7173 53.1243 6.65781 53.5883C6.49308 54.9036 6.01261 54.6603 6.4885 56.2864C6.53426 56.4351 6.79966 56.408 6.83169 56.5432C6.95524 57.0432 6.99643 58.4621 6.83169 58.9485C6.7539 59.1828 6.39241 58.9621 6.47935 59.2458C6.94609 59.1738 6.77221 59.6107 7.01473 59.9575C7.05134 60.0071 7.02846 60.1332 7.19319 60.1332C6.31004 61.0161 7.50893 60.8179 7.55011 61.5476C7.09252 61.4755 6.74933 62.4125 6.68069 62.7503C6.63035 62.9935 6.82712 63.1061 6.83169 63.1377C6.85915 63.7323 7.03303 63.9485 6.47477 64.3764C6.48393 64.4349 6.4702 64.4935 6.47477 64.5521C6.63493 64.7142 6.68069 64.8584 6.65323 65.0836C6.65323 65.1061 6.62578 65.2412 6.65323 65.4394C6.72645 65.7412 6.72645 66.034 6.65323 66.3223C6.68527 66.4124 6.77678 66.6061 6.83169 66.6782C6.78594 66.7953 6.81339 66.8718 6.87288 66.9079C6.50223 67.079 6.4885 67.6511 6.83169 68.6196C6.82254 68.8538 6.83169 69.0925 6.83169 69.3268C7.10625 70.6511 7.50893 71.9258 8.04431 73.151C8.6529 73.0609 8.79018 73.0835 8.9366 73.7186C8.60256 74.6916 9.22489 74.9348 10.0714 75.133C8.73069 75.6195 9.97991 76.4393 10.9317 76.2906C11.673 76.151 12.3319 76.2591 12.9131 76.6194C13.4667 76.5834 14.0662 76.687 14.7068 76.9212C14.812 76.3222 15.0591 76.0879 15.4527 76.2231C15.8782 76.3807 16.6744 76.4933 17.068 76.2231C17.2235 76.1555 17.2235 76.0969 17.068 76.0474C17.6949 76.1195 18.2485 76.4032 18.5872 76.4122C19.1042 76.4258 19.8593 76.0564 20.4816 76.2276C20.779 76.8266 21.3373 76.7411 21.9184 76.7591C22.3165 76.7681 22.1747 76.8987 22.8153 76.7591C23.0349 77.4032 23.5474 76.9303 23.8906 76.9348C24.0691 76.9348 24.2521 76.9348 24.4306 76.9348C24.6365 76.8672 24.8744 76.8672 25.149 76.9348C25.2085 76.9348 25.268 76.9348 25.3274 76.9348L26.0459 76.7591C26.2518 76.669 26.4302 76.669 26.5858 76.7591C26.7872 76.7501 27.1349 76.7231 27.3042 76.7591C27.5742 76.9888 27.8122 76.8717 28.0226 76.4032C28.073 76.4212 28.1462 76.3852 28.2011 76.4032C28.4482 76.3447 28.6862 76.3447 28.9195 76.4032C28.9378 76.4077 28.9516 76.696 29.098 76.7591C29.217 76.9573 29.4458 76.8582 29.6379 76.7591C29.8759 76.7456 30.1184 76.7591 30.3564 76.7591C30.5119 76.6915 30.5119 76.633 30.3564 76.5834C30.3747 76.5834 30.3426 76.4303 30.7133 76.4077C30.7453 76.5924 30.8643 76.7095 31.0702 76.7636C31.2212 76.9257 31.3859 77.0699 31.6101 77.1194C31.6651 77.1285 31.7337 77.1194 31.7886 77.1194C32.1867 76.9573 32.3652 76.7816 32.3286 76.5879C32.3881 76.5879 32.4613 76.5744 32.507 76.5879C32.6992 76.651 32.8502 76.669 32.9417 76.642C33.1385 76.7681 33.5183 76.7546 33.7654 76.5879C33.8844 76.5924 34.0033 76.5879 34.1223 76.5879C34.5204 76.7005 35.0421 76.8131 35.3807 76.5879C35.6049 76.5113 35.8657 76.4753 36.0991 76.4122C36.5155 76.5744 37.1332 76.4393 37.5359 76.2366H37.7144C37.7739 76.2276 37.8334 76.2411 37.8928 76.2366C38.8172 76.4077 39.9337 76.2996 40.7665 76.0609C40.826 76.0609 40.8855 76.0609 40.945 76.0609C41.6039 76.3312 41.9608 76.2726 42.0203 75.8852C42.0844 75.8942 42.606 76.3987 43.0956 76.0609V75.8852C43.146 75.9032 43.2238 75.8672 43.2741 75.8852C43.329 75.9032 43.4022 75.8672 43.4526 75.8852C43.75 75.9978 43.8964 76.3762 44.2625 76.4213C44.5096 76.4528 44.5416 76.3176 44.537 76.205C44.6835 76.3762 45.2646 76.5249 45.3058 76.5158C45.6764 75.9258 46.5276 76.205 47.0492 76.4167H47.2277C47.7036 76.3897 48.0056 76.2681 48.1245 76.0609C48.9116 76.0113 49.749 76.0609 50.623 75.9573C50.893 75.9258 51.1721 75.9798 51.3597 75.705C51.2819 76.0609 51.6846 76.3582 52.0781 76.4122C52.1925 76.4303 52.3298 76.3897 52.435 76.4122C52.4396 76.5294 52.4579 76.633 52.5174 76.669C52.6592 76.7546 54.9243 77.0969 55.1302 76.7681C55.3087 76.7681 55.4917 76.7681 55.6702 76.7681C55.8166 76.6915 55.8212 76.6285 55.6702 76.5924C55.6793 76.5699 55.8029 76.4528 55.8486 76.4167C55.8669 76.4032 55.8807 76.3942 55.899 76.3807C55.8853 76.3897 55.8715 76.4032 55.8486 76.4167C56.2651 76.3176 56.2422 76.9348 56.654 76.8762C57.0338 76.8221 58.1274 76.2501 58.2739 76.9483C58.3837 76.9077 58.6171 76.5068 58.7223 76.5969C58.736 76.6104 58.6628 76.9393 58.8276 76.9663C58.9786 76.9888 59.6329 76.7996 59.9761 76.7771C60.3925 76.7501 60.8181 76.7996 61.2345 76.7771L60.6991 76.2501C60.9645 76.3086 61.3534 76.5834 61.596 76.6014C61.6555 76.6059 61.7149 76.6014 61.7744 76.6014C62.5981 76.6645 64.2225 76.705 64.1081 75.7186C64.1676 75.7186 64.2408 75.705 64.2866 75.7186C64.1036 76.1825 64.1768 76.169 64.6481 76.0744C64.8815 76.0068 65.1286 75.9483 65.3665 75.8987C65.5953 76.0609 65.9019 75.9123 66.0849 75.7231C66.634 75.6375 67.3479 75.4933 67.8787 75.5474C68.4644 75.3222 68.835 75.2636 69.5946 75.5204L69.677 75.3672C69.7365 75.3717 69.8005 75.3582 69.8555 75.3672L70.5739 75.187C70.3588 74.5834 69.8417 74.7546 69.3155 74.8357L69.8555 74.4798C69.796 74.4843 69.7365 74.4798 69.677 74.4798H69.8555C70.0888 74.4618 70.3359 74.3312 70.5739 74.3042C70.8393 74.2726 71.5119 74.0744 71.6492 74.1285C71.6721 74.1375 71.7316 74.3988 71.9558 74.4438C72.4271 74.5384 73.1455 74.5879 73.626 74.4798C73.6626 74.1195 73.1501 74.4168 72.935 74.2816C72.6788 74.1195 72.7566 73.651 72.9076 73.4213C73.2187 73.7006 73.7999 74.0519 74.2163 74.0744C75.6073 74.1465 75.3008 73.3177 75.4243 73.2456C75.5845 73.1555 76.4768 73.3898 76.6827 72.8898C76.7101 72.9168 77.3645 73.1015 77.4011 73.0655C77.6985 72.1916 76.9161 71.9528 77.7626 71.4754C78.211 71.2231 78.6915 71.6015 78.3026 70.4123C78.5039 70.2952 78.6686 70.3808 78.7922 70.6691L79.1994 70.588C79.3275 70.2772 79.4145 70.0475 79.7394 69.8808C79.9499 69.1691 80.3205 68.5925 80.8422 68.1556C81.2265 66.998 81.5194 65.8043 81.7116 64.5791C81.7116 64.5205 81.7116 64.462 81.7116 64.4034V64.0476C81.7253 63.6422 81.7207 63.0881 81.7116 62.6332C81.8443 62.4395 81.8443 62.2053 81.7116 61.926C81.6979 61.4575 81.7299 60.98 81.7116 60.5116C81.4187 60.2683 81.3592 59.9756 81.5331 59.6287C81.4919 59.1197 81.5423 58.8179 81.5331 58.39C81.5331 58.2368 81.5697 57.9576 81.5331 57.8585C81.4416 57.5837 81.2586 57.5251 81.0984 57.5792C81.1625 57.3134 81.2448 57.0927 81.3501 56.9756C81.373 56.7098 81.2448 56.5252 80.9932 56.4441C81.2677 56.0207 81.3455 55.5162 81.3501 55.0297C81.3272 54.6468 81.1716 54.282 80.9428 54.1738C81.1625 54.1288 81.2403 54.0027 81.1716 53.791C81.1488 53.5928 80.9932 53.4576 80.9932 53.4351C80.92 53.2324 80.92 52.9982 80.9932 52.7279C80.9932 52.6694 80.9932 52.6108 80.9932 52.5522C80.9383 52.4892 80.8696 52.4396 80.8147 52.3766C80.5951 52.1243 80.4624 51.9261 80.0963 51.8451C80.046 51.6378 79.8995 51.7369 79.9178 51.3135C80.4441 51.1153 81.0298 51.0207 81.0115 50.3406C81.0115 50.255 80.6363 49.1559 80.5813 49.0658C80.4944 48.9127 80.1649 49.0073 80.0871 48.5748C80.0231 48.2235 81.7802 47.5658 80.0963 47.4262C80.0826 47.3902 80.0094 47.4127 79.9178 47.0704L80.8147 46.8046L80.2793 46.719C80.3068 46.2055 80.3892 45.692 79.7394 45.656C79.8492 45.0569 80.5402 45.5569 80.6363 45.4803C80.6729 45.4533 80.348 44.7551 80.8147 44.5974C80.8239 44.5344 80.801 44.4713 80.8147 44.4217L80.9428 44.1785C80.3617 43.8947 80.4532 42.8182 80.9794 42.4533C80.9337 42.2281 80.8788 42.0029 80.8239 41.7731C81.1213 41.9038 81.4325 41.602 81.5331 41.593C81.7574 41.5704 82.4483 41.5434 82.6085 41.593C82.9059 41.2236 83.5877 41.2236 83.8668 41.0614C84.2787 41.3047 84.718 40.665 84.5853 40.3542C84.9101 39.8092 84.5761 39.6696 84.5853 39.4714C84.933 39.2642 84.9925 39.0885 84.7637 38.9398C84.7637 38.8813 84.7637 38.8227 84.7637 38.7642C84.901 38.7371 84.9284 38.6651 84.9101 38.584C84.9834 38.6426 85.0657 38.6651 85.1206 38.584C85.1755 38.557 85.3815 38.6471 85.4547 38.5615C85.5599 38.4308 85.4409 38.057 85.4775 37.8768C85.5233 37.7822 85.5462 37.6966 85.5553 37.62C85.6102 37.4669 85.6652 37.3273 85.656 36.9939C85.4684 36.7011 85.4043 36.4489 85.4775 36.1111C85.537 36.0615 85.5782 35.9894 85.656 35.9354L85.7155 35.8994ZM7.58672 49.6919C7.42198 49.809 7.3625 49.8045 7.40826 49.6739C7.45402 49.6874 7.50893 49.7009 7.58672 49.6919ZM21.502 76.0159C21.502 76.0159 21.502 76.0114 21.502 76.0068C21.502 76.0068 21.5066 76.0113 21.5112 76.0159H21.502ZM61.1841 8.5304C61.1841 8.5304 61.1475 8.54842 61.1292 8.56193C61.1475 8.52139 61.1567 8.48986 61.1567 8.45383L61.1841 8.5304ZM54.8465 7.32772C54.8465 7.35925 54.8465 7.39078 54.8236 7.43132C54.8236 7.39528 54.8328 7.35925 54.8465 7.32772ZM42.2491 58.1783C42.2216 58.1873 42.1988 58.1918 42.1713 58.1918C42.2033 58.1873 42.2308 58.1738 42.2582 58.1648C42.2582 58.1693 42.2537 58.1738 42.2491 58.1783ZM4.06786 27.6697C4.04498 27.7013 4.01752 27.7328 3.99464 27.7688C4.03125 27.7193 4.0587 27.6697 4.08158 27.6157C4.08158 27.6337 4.07701 27.6517 4.06786 27.6697ZM62.804 34.5841C62.804 34.5841 62.8498 34.6156 62.8772 34.6246C62.8498 34.6111 62.8269 34.5976 62.8086 34.5841H62.804ZM18.9029 33.2507C18.8617 33.2012 18.8251 33.1607 18.7931 33.1246C18.88 33.1246 18.9807 33.1111 19.0859 33.0751C19.0173 33.1111 18.9532 33.2372 18.9075 33.2507H18.9029ZM57.3358 10.2601C57.5005 10.5619 57.4273 10.5619 57.1162 10.2601H57.3358ZM58.2556 52.4306C58.2464 52.4036 58.2373 52.3766 58.2373 52.345C58.251 52.3766 58.2556 52.4036 58.2556 52.4306ZM33.8112 33.6021C33.8112 33.6021 33.8203 33.6336 33.8249 33.6471C33.8249 33.6606 33.8249 33.6787 33.8249 33.7012C33.8157 33.6652 33.8066 33.6336 33.8112 33.6021ZM45.8412 70.9123C45.8778 70.9123 45.9098 70.9123 45.9464 70.9213C45.9007 70.9213 45.8641 70.9213 45.8412 70.9123ZM60.571 60.3044C60.6442 60.4575 60.7403 60.5701 60.8684 60.6377C60.7494 60.5972 60.6442 60.4981 60.571 60.3044ZM61.4587 60.1197H61.4678C61.4678 60.1197 61.4633 60.1197 61.4587 60.1197ZM66.3595 58.944C66.3366 58.908 66.3229 58.8675 66.3183 58.8224V58.7098C66.3229 58.7864 66.3412 58.8675 66.3595 58.944ZM67.9336 66.4935C67.9336 66.4935 67.9473 66.5475 67.9427 66.5836C67.9153 66.5701 67.9061 66.543 67.9336 66.4935ZM50.5177 61.6782C50.5177 61.6782 50.5177 61.7008 50.5132 61.7188C50.504 61.7143 50.4949 61.7098 50.4811 61.7053C50.4949 61.6963 50.5086 61.6872 50.5177 61.6782ZM63.8107 65.4034C63.8107 65.4034 63.8107 65.4214 63.8061 65.4304C63.8061 65.4214 63.8061 65.4124 63.8107 65.4034ZM63.797 65.8584C63.7466 65.8989 63.6917 65.9349 63.6277 65.962C63.6872 65.9304 63.7421 65.8944 63.797 65.8584ZM35.5454 63.9485C35.5637 63.9169 35.5866 63.8809 35.6095 63.8404C35.5912 63.8944 35.5683 63.9305 35.5454 63.9485ZM38.2269 62.5476C38.3642 62.5701 38.4648 62.5926 38.4831 62.6016C38.3916 62.5881 38.3047 62.5701 38.2269 62.5476ZM37.5863 66.7007C37.5863 66.7007 37.5771 66.6691 37.5817 66.6691C37.5954 66.6601 37.6137 66.6556 37.6412 66.6511C37.6229 66.6691 37.6091 66.6872 37.5908 66.7007H37.5863ZM43.7774 62.962C43.7774 62.962 43.7774 62.962 43.7774 62.9575C43.7774 62.9575 43.7774 62.9575 43.7774 62.962ZM16.6973 61.8719L16.5692 61.8944C16.6195 61.8809 16.6607 61.8764 16.6973 61.8719ZM64.5337 66.9259C64.5337 66.9259 64.5337 66.9349 64.5383 66.9394H64.52L64.5337 66.9259ZM30.4021 32.2147C30.4021 32.2147 30.4021 32.1967 30.4021 32.1877C30.4158 32.1922 30.4296 32.1967 30.4433 32.2057C30.4296 32.2057 30.4204 32.2102 30.4067 32.2147H30.4021ZM74.5091 33.9624C74.5778 34.057 74.5412 34.1336 74.3993 34.3093C74.4542 34.1742 74.4908 34.057 74.5091 33.9624ZM70.9903 32.5526C70.9903 32.5526 70.9811 32.5481 70.972 32.5435C70.9765 32.5435 70.9811 32.5435 70.9857 32.5435V32.5526H70.9903ZM46.0425 24.5031C46.0425 24.4716 46.0334 24.4401 46.0242 24.4085C46.0471 24.4356 46.0517 24.4716 46.0425 24.5031ZM42.4321 25.2914C42.3726 25.3139 42.304 25.3004 42.2354 25.2734C42.304 25.2779 42.3681 25.2869 42.4321 25.2914ZM39.5997 20.868C39.5997 20.868 39.5722 20.8726 39.5585 20.8726C39.5722 20.8726 39.5859 20.8726 39.5997 20.868ZM47.818 26.1743C47.7722 26.1472 47.7264 26.1292 47.6807 26.1157C47.7219 26.1157 47.7676 26.1337 47.818 26.1743ZM28.0638 30.7778C28.0638 30.7778 28.1004 30.7778 28.1233 30.7778C28.1233 30.7823 28.1233 30.7868 28.1187 30.7913L28.0684 30.7733L28.0638 30.7778ZM58.9557 29.8904C58.9557 29.8904 58.9557 29.8994 58.9557 29.9039C58.9557 29.8994 58.9557 29.8949 58.9511 29.8904H58.9557ZM48.001 27.0616C48.001 27.0616 48.0422 27.0707 48.0605 27.0752L48.001 27.0616ZM52.3069 19.1023L52.3481 19.0618C52.3481 19.0618 52.3252 19.0888 52.3069 19.1023ZM20.3168 22.2329C20.3168 22.2329 20.3306 22.2644 20.3397 22.2869C20.326 22.2734 20.3214 22.2554 20.3168 22.2329ZM17.1091 24.5842C17.1091 24.5302 17.1229 24.4806 17.1458 24.4401C17.132 24.4896 17.1183 24.5347 17.1091 24.5842ZM9.74196 26.5301H9.5635C9.62299 26.5256 9.68247 26.5301 9.74196 26.5301ZM6.4702 32.4895C6.45189 32.539 6.41529 32.5841 6.3558 32.6246L6.14989 32.7192C6.25971 32.6336 6.36495 32.5571 6.4702 32.4895ZM20.7012 65.962C20.7012 65.962 20.7012 65.971 20.7012 65.98C20.7012 65.9755 20.6921 65.971 20.6875 65.962H20.6966H20.7012ZM73.8594 65.0791H74.0378C73.9783 65.0836 73.9188 65.0791 73.8594 65.0791ZM58.7726 22.4626V22.2869C58.7726 22.3455 58.7726 22.4041 58.7726 22.4626ZM57.5143 14.5033C57.5143 14.5033 57.4914 14.4943 57.4822 14.4898C57.4822 14.4898 57.4868 14.4808 57.4914 14.4808L57.5188 14.5078L57.5143 14.5033ZM45.6627 18.9266C45.6627 18.9266 45.6764 18.8906 45.6902 18.8681C45.681 18.8861 45.6719 18.9041 45.6627 18.9266ZM35.9664 32.8949H35.8749C35.9069 32.8949 35.9389 32.8859 35.9664 32.8949ZM46.1844 71.0835C46.1844 71.0835 46.2027 71.0835 46.2072 71.088C46.2072 71.088 46.2072 71.1015 46.2072 71.115C46.1981 71.106 46.1935 71.0925 46.1844 71.0835ZM40.9633 31.1427L40.9953 31.1787C40.9953 31.1787 40.9724 31.1562 40.9587 31.1427C40.9587 31.1427 40.9587 31.1427 40.9633 31.1427ZM65.4123 54.291C65.4763 54.291 65.5404 54.2865 65.5999 54.291H65.4123ZM46.372 71.4484C46.3765 71.5024 46.3811 71.5565 46.3811 71.6195C46.3674 71.5745 46.3674 71.5159 46.372 71.4484ZM56.082 9.55291C56.1369 9.43129 56.1781 9.40876 56.2147 9.48534C56.1827 9.46282 56.1415 9.48534 56.082 9.55291ZM55.3636 9.55291C55.3224 9.62948 55.2904 9.70155 55.2858 9.7511C54.2196 9.65651 54.1235 11.5304 55.5421 10.9673C56.352 10.8051 56.0225 11.4493 56.2605 12.0303V12.206C55.9356 11.8096 55.7068 11.9087 55.9036 12.3817C55.4872 12.215 55.3544 12.661 55.2767 11.8502L54.4667 12.4673C54.874 12.4042 55.4139 12.4312 55.5421 12.9087C54.8465 13.0619 54.7092 13.6745 55.3636 13.6159C55.0479 14.0168 54.9518 13.8231 54.8236 14.3231C54.7092 14.7645 54.6132 15.5258 54.1098 15.8141C53.9634 15.8952 53.6431 15.6609 53.4692 15.9042C53.3411 16.0798 53.428 16.3681 53.3868 16.4447C53.3411 16.5213 53.245 16.5663 53.2084 16.6204C52.7187 17.3591 51.8402 17.1429 52.3115 17.8546C51.3688 17.9942 51.4649 17.3005 50.6962 16.9717C50.623 16.9402 49.8863 16.4447 49.8405 16.3996C49.7307 16.296 49.8954 15.9807 49.6895 15.9042C48.9711 15.6429 47.4382 15.76 48.3625 16.6204C48.6508 16.8861 48.8292 17.0258 49.2594 16.9717L49.1587 16.4537C49.6163 16.5438 49.5888 16.8951 49.7947 17.1519C50.2386 17.7059 50.8747 17.3906 51.0485 17.7735C51.2361 18.1834 50.687 17.9717 50.5132 18.0348C49.8542 17.7645 49.9229 18.3816 50.2798 18.7194C50.1471 18.6879 50.1013 18.7555 50.1562 18.9176C49.9778 18.0663 49.4744 18.26 49.0809 18.0348C48.4128 17.6564 47.8271 16.8005 47.2872 17.8591C46.8067 17.76 46.6145 17.5708 46.4589 18.0122C46.3903 18.0032 46.3079 18.0122 46.2072 18.0348C46.1203 17.9447 45.8137 17.8681 45.6673 17.8591C45.3515 17.4222 44.9031 17.3996 44.4089 17.3276C44.3998 17.2915 44.3906 17.26 44.3815 17.233C44.4181 17.0168 45.0816 16.8186 44.4959 16.6249C44.1252 16.5033 44.3082 17.0888 43.782 17.0798C43.1597 17.0663 42.9858 16.4942 42.2537 16.4492C42.0752 16.4357 41.8922 16.4537 41.7137 16.4492L41.8922 17.1564C41.9379 17.1699 42.0111 17.1519 42.0706 17.1564C42.1805 17.6879 41.8052 17.4897 41.3522 17.5122C41.0868 17.3366 40.7619 17.3276 40.4553 17.3366C40.437 17.251 40.3593 17.1744 40.2769 17.1609C40.5469 16.9222 40.3226 16.4177 40.1076 16.215C39.8651 15.9852 39.6134 16.1384 39.5585 16.0979C39.3114 15.9267 39.1741 15.6654 39.0185 15.5663C38.7302 15.3862 38.6021 15.4492 38.3001 15.5663C38.4145 13.733 38.5838 12.2376 39.5539 10.616C39.5813 10.5709 39.6042 10.5259 39.6225 10.4808C39.6088 10.5214 39.5859 10.5664 39.5539 10.616C40.0161 10.8051 40.1579 10.7151 39.9108 10.2601C40.5606 9.38174 39.8056 9.33669 39.9108 9.20156C39.9337 9.17453 40.3272 9.20156 40.4142 8.91778C40.4691 8.74661 40.2677 8.10248 40.3181 7.87726C40.3547 7.71059 40.5697 7.68807 40.6247 7.60249C40.8626 7.62501 41.0273 7.53042 40.9816 7.24664C41.6817 7.33672 41.4437 8.27365 42.4184 7.77366L42.2354 7.42231L42.9538 7.59798L43.0453 7.06646C43.4388 7.18357 43.4617 7.91329 43.4983 7.94933C43.6539 8.09797 43.9879 7.78266 44.0337 7.77366C44.1298 8.11149 44.2899 8.11599 44.3906 7.77366C44.6697 8.11599 45.1411 8.0214 45.5026 8.14752C45.6856 8.21059 45.7817 8.46734 45.8274 8.48085C45.951 8.52139 46.1981 8.46283 46.3674 8.48085C46.5413 8.50337 46.7289 8.46283 46.9074 8.48085L46.7243 8.8322C47.3924 8.67454 47.7859 9.01688 48.3442 9.18805C48.4494 9.83669 48.9345 9.63399 49.3783 9.35021C49.8817 9.7466 51.4695 9.72858 51.6251 9.28264C51.982 9.55291 53.4097 9.38624 53.4097 8.81418C53.6293 9.35922 54.9426 9.82317 55.3499 9.53939L55.3636 9.55291ZM51.41 8.84571C51.5382 8.3232 51.5976 8.39076 51.5931 9.04841C51.5519 8.98535 51.497 8.91778 51.41 8.84571ZM22.4263 21.2689C22.5316 21.3185 22.6185 21.3816 22.7055 21.4536C22.5819 21.3861 22.4538 21.314 22.3165 21.2239C22.3577 21.2419 22.3897 21.2554 22.4263 21.2689ZM4.5346 30.7733C4.52087 30.7418 4.50257 30.7102 4.48426 30.6832C4.50257 30.7102 4.52087 30.7373 4.5346 30.7733ZM15.9103 33.7417C15.9423 33.7327 15.9835 33.7282 16.0247 33.7282C16.0796 33.7507 16.1391 33.7688 16.2077 33.7778C16.1025 33.7688 16.0064 33.7552 15.9103 33.7372V33.7417ZM79.9819 36.4399C80.0414 36.4354 80.1009 36.4264 80.1466 36.4354C80.0414 36.4714 79.9911 36.4714 79.9819 36.4399ZM57.8803 14.233C57.8758 14.206 57.8712 14.179 57.8803 14.1519C57.8803 14.179 57.8803 14.206 57.8803 14.233ZM5.42232 25.5707C5.42232 25.5707 5.42232 25.5482 5.42232 25.5346C5.42232 25.5166 5.43147 25.4941 5.4452 25.4806C5.44977 25.4761 5.4635 25.4671 5.48181 25.4536C5.4635 25.4896 5.4452 25.5301 5.4269 25.5707H5.42232ZM17.4661 33.2507C17.4569 33.1516 17.6354 33.03 17.4661 32.5435C17.4478 32.4895 17.4889 32.4129 17.4661 32.3679C18.1753 32.494 18.2623 32.1922 18.5414 31.6607L18.7199 32.0165C18.1433 32.2598 18.1341 32.8138 18.4636 33.0345C18.4041 33.0976 18.3675 33.2282 18.3584 33.4309C18.0289 32.8634 17.5347 33.1832 17.4615 33.7868C17.4432 33.6787 17.4615 33.548 17.4615 33.4309C17.4615 33.3724 17.4615 33.3138 17.4615 33.2552L17.4661 33.2507ZM48.637 32.7192H48.5364C48.5638 32.7102 48.6004 32.7192 48.637 32.7192ZM10.1035 67.6376V67.7322C10.0943 67.7052 10.1035 67.6691 10.1035 67.6376ZM24.7692 72.4664C24.7692 72.4664 24.8104 72.4889 24.8287 72.5024C24.8104 72.4889 24.7875 72.4799 24.7692 72.4664ZM59.7244 9.05742C59.7702 9.08445 59.8114 9.11147 59.8388 9.1385C59.7976 9.1385 59.7427 9.16102 59.6695 9.20607C59.6924 9.15201 59.7107 9.10697 59.7244 9.06192V9.05742ZM59.9166 9.21958C59.9578 9.28264 59.9349 9.33669 59.848 9.37723C59.8892 9.30967 59.9075 9.26012 59.9166 9.21958ZM37.9432 58.1828C37.9432 58.1828 37.9615 58.1558 37.9752 58.1423C37.9661 58.1558 37.9569 58.1693 37.9432 58.1828ZM18.4545 51.0162L18.546 51.1063C18.5139 51.0928 18.4865 51.0568 18.4545 51.0162ZM41.8922 72.1465C41.8922 72.1465 41.8922 72.1465 41.8922 72.151H41.8784C41.8784 72.151 41.8876 72.151 41.8876 72.1465H41.8922ZM59.4911 8.31869C59.4911 8.26013 59.4819 8.19707 59.4911 8.14302V8.31869ZM50.8289 3.7602C50.8289 3.7602 50.8563 3.72867 50.8701 3.71966C50.8563 3.73318 50.8426 3.74669 50.8289 3.7602ZM34.3511 15.3907C34.3511 15.4357 34.3557 15.4807 34.3557 15.5213V15.5663L34.3511 15.3907ZM21.7766 19.4582C21.8269 19.4582 21.8772 19.4627 21.9276 19.4717C21.8864 19.4717 21.836 19.4717 21.7766 19.4582ZM18.5414 37.4939V37.5029C18.5414 37.5029 18.5002 37.5029 18.4819 37.5029C18.5094 37.4894 18.5322 37.4849 18.5414 37.4984V37.4939ZM61.1155 37.1291C61.1155 37.1291 61.1155 37.1336 61.1109 37.1381V37.1291H61.1155ZM42.0706 72.4303C42.0706 72.4573 42.0752 72.4799 42.0706 72.5024V72.4303ZM51.7715 72.6826C51.8493 72.6781 51.9042 72.6826 51.9363 72.6826C51.8676 72.6916 51.8036 72.6961 51.7715 72.6826ZM55.899 72.6826C55.9722 72.6736 56.0454 72.6646 56.1186 72.66C56.0454 72.6691 55.9768 72.6781 55.899 72.6826ZM79.4877 56.845C79.3687 56.7189 79.3047 56.5387 79.4282 56.2369C79.4511 56.4576 79.4694 56.6603 79.4877 56.845ZM14.4139 19.9852C14.5055 19.9852 14.5878 19.9897 14.6702 19.9942C14.5833 20.0077 14.4963 20.0077 14.4139 19.9852ZM29.5007 74.7141C29.4961 74.6825 29.4869 74.651 29.5007 74.6285V74.7141ZM61.5136 9.4448C61.5228 9.48084 61.5319 9.51687 61.5411 9.55291C61.4999 9.55291 61.4724 9.55291 61.4678 9.55291C61.4541 9.53489 61.477 9.49435 61.5136 9.4448ZM19.0814 18.5708C19.0814 18.5708 19.0859 18.5708 19.0905 18.5708H19.0814ZM21.7811 48.2911C21.7811 48.255 21.836 48.246 21.9596 48.2775C21.8864 48.2775 21.8315 48.2865 21.7811 48.2911ZM7.58672 65.2548C7.58672 65.2548 7.56841 65.2412 7.55468 65.2367C7.56384 65.2322 7.57756 65.2232 7.58672 65.2187C7.58672 65.2322 7.58672 65.2412 7.58672 65.2548ZM55.6839 75.7501C55.6839 75.696 55.6473 75.6555 55.5787 75.651C55.6931 75.615 55.8075 75.5564 55.9036 75.5114C55.812 75.5969 55.7434 75.678 55.6885 75.7546L55.6839 75.7501ZM66.1398 47.0433H66.3183C66.2588 47.0523 66.1993 47.0343 66.1398 47.0433ZM19.0859 47.9217C19.0859 47.9217 19.0859 47.9037 19.0814 47.8947C19.0905 47.8992 19.0997 47.9082 19.1042 47.9127C19.0997 47.9127 19.0905 47.9127 19.0859 47.9217ZM7.30301 66.0385C7.3625 66.1151 7.41283 66.2457 7.40826 66.489C7.35335 66.3223 7.32131 66.1737 7.30301 66.0385ZM58.3379 76.0744C58.3379 76.0744 58.37 76.0519 58.4157 76.0429C58.4157 76.0474 58.3791 76.0564 58.3379 76.0744ZM68.263 74.3447C68.263 74.3447 68.263 74.3312 68.263 74.3222C68.2722 74.3087 68.2814 74.2907 68.2859 74.2681C68.2768 74.2952 68.2676 74.3177 68.2585 74.3447H68.263ZM80.5081 54.291C80.4349 54.2414 80.3754 54.1378 80.3297 54.1153C80.4669 54.1378 80.5813 54.1513 80.6912 54.1603C80.6317 54.1874 80.5722 54.2324 80.5127 54.2955L80.5081 54.291ZM67.325 19.1203C67.2884 19.1203 67.2518 19.1113 67.2152 19.1023C67.2518 19.1068 67.2884 19.1113 67.325 19.1203ZM33.0927 39.2597C33.0927 39.2597 33.1156 39.2281 33.1248 39.2101C33.1248 39.2101 33.1248 39.2056 33.1293 39.2011C33.1293 39.2146 33.111 39.2371 33.0927 39.2552V39.2597ZM7.8933 48.9127C7.89788 49.0028 7.91618 49.0838 7.94821 49.1604C7.8933 49.1784 7.82009 49.1424 7.76975 49.1604C7.82009 49.0793 7.85669 48.9937 7.8933 48.9127ZM52.522 74.9573C52.522 74.9573 52.554 74.9663 52.5723 74.9708C52.6135 74.9843 52.6364 75.0204 52.6547 75.0744C52.6089 75.0384 52.5632 75.0024 52.522 74.9573ZM67.2152 74.7366C67.1053 74.7096 66.9864 74.6735 66.8582 74.624C67.0825 74.624 67.1786 74.669 67.2152 74.7366ZM80.865 41.7011C80.8147 41.5029 80.7598 41.3002 80.7049 41.102C80.7324 41.111 80.7644 41.12 80.7918 41.1245C80.92 41.2867 80.865 41.5029 80.865 41.7011Z" fill="#D9F855"/>
</svg>
