<svg width="29" height="34" viewBox="0 0 29 34" fill="none" xmlns="http://www.w3.org/2000/svg">
<path d="M25.9311 23.208C25.9248 23.1335 25.9767 23.1277 25.9925 23.0944C26.0145 22.9902 25.9736 22.9425 25.8698 22.9526C25.9814 22.886 26.0019 22.7913 25.9311 22.6682C25.9185 22.6234 25.8776 22.5554 25.8698 22.4975C25.8635 22.407 25.821 22.3694 25.7471 22.3839C25.6999 22.3528 25.6213 22.297 25.5332 22.2978C25.5002 22.2978 25.2737 22.3549 25.2659 22.3607C25.1558 22.449 25.3555 22.4425 25.5002 22.4693L25.2548 22.5257C25.269 22.4902 25.2281 22.4685 25.1919 22.4403C25.1448 22.4034 25.0724 22.3737 25.0693 22.3267C25.1825 22.3564 25.4389 22.2739 25.4939 22.2377C25.5096 22.2276 25.4184 22.1646 25.409 22.1313C25.4011 22.0981 25.4451 22.0554 25.4389 22.0431C25.4105 21.9845 25.2486 21.9533 25.1306 21.9859C25.107 21.9801 25.0834 21.9591 25.0693 21.9577C25.0645 21.9302 25.1039 21.9186 25.1306 21.9005C25.1542 21.9251 25.1746 21.9251 25.1919 21.9005C25.4923 21.8195 25.1448 21.6393 25.0866 21.5655C25.0425 21.5091 24.9796 21.3651 24.945 21.3325C24.8994 21.3477 24.8381 21.3289 24.7594 21.2753C24.739 21.2688 24.6509 21.2826 24.6352 21.2753C24.6226 21.2688 24.7752 21.1523 24.7594 21.1053C24.6808 21.0756 24.5974 21.0561 24.5125 21.0481C24.3851 20.9577 24.3647 20.9533 24.2043 20.9063C24.1995 20.8506 24.1775 20.7941 24.1429 20.7355C24.1288 20.7319 24.102 20.7384 24.0816 20.7355V20.7073C23.9699 20.6581 23.907 20.601 23.896 20.5366C23.8866 20.5293 23.8142 20.5148 23.7733 20.4794L23.6507 20.4512C23.7608 20.5923 23.6931 20.5235 23.5264 20.5076C23.7686 20.3376 23.6239 20.3933 23.4446 20.3376C23.3644 20.313 23.4446 20.237 23.1553 20.3086C23.2528 20.1936 22.8816 20.2037 22.7841 20.2797C22.7731 20.2638 22.7291 20.1972 22.7228 20.1943C22.7118 20.19 22.3768 20.2023 22.5372 20.1379C22.685 20.0785 22.7102 20.1907 22.7228 20.1943C22.7558 20.2044 22.8502 20.1422 22.9083 20.127C22.9807 20.1075 23.1222 20.1907 22.9697 20.0243C22.9602 20.0148 22.9225 20.0062 22.9083 19.996C22.869 19.9664 22.8533 19.8723 22.7007 19.8846C22.6536 19.8882 22.295 20.0366 22.6001 20.0243C22.5907 20.051 22.6064 20.0814 22.6001 20.1096C22.5277 20.1407 22.2415 19.9946 22.1676 19.9678L22.6017 19.868L22.5482 19.8007L22.3532 19.7124C22.2462 19.5698 22.1739 19.5423 21.8593 19.4852V19.457C21.7823 19.4381 21.6911 19.4179 21.6124 19.3998C21.5228 19.4215 21.5023 19.4685 21.5511 19.5416C21.5055 19.5062 21.2869 19.4403 21.2475 19.36C21.2491 19.3528 21.2475 19.3462 21.2428 19.3426V19.3144C21.1516 19.2949 21.0384 19.279 20.9346 19.2572C20.8119 19.2319 20.6908 19.1965 20.565 19.1719L20.2866 19.2572C20.1325 19.1241 19.6088 19.1972 19.3304 19.229C19.483 19.1234 19.2785 19.0691 19.0473 19.059C18.9435 19.0546 18.8853 19.0843 18.8381 19.0865C18.8051 19.0858 18.7784 19.0865 18.7548 19.0901C18.6337 19.0944 18.5912 19.0901 18.467 19.0865V19.0583C18.3946 19.0612 18.283 19.0503 18.1587 19.0583C18.0722 19.0633 17.9087 19.0481 17.8505 19.0583C17.8159 19.0308 17.7545 19.012 17.6649 19.0011C17.5863 18.9982 17.4982 19.0004 17.418 19.0011C17.3566 18.9982 17.3472 19.0134 17.3535 19.03C17.2937 19.0098 17.1946 18.9953 17.1097 19.03C16.726 18.9975 16.7763 19.0583 16.7401 19.0583C16.6992 19.0626 16.6725 19.072 16.6568 19.085C16.6395 19.0742 16.608 19.072 16.5545 19.0865C16.5074 19.1038 16.0969 19.0394 15.9994 19.0293C15.9066 19.0228 15.7493 19.0134 15.8138 19.0575C15.776 19.0604 15.7304 19.0561 15.6911 19.0575C15.6597 19.0257 15.6203 19.0351 15.5684 19.0575C15.548 19.059 15.526 19.0561 15.5071 19.0575C15.4788 19.0156 15.3876 19.0127 15.3844 19.0575C15.2476 19.0669 15.1124 19.1082 15.0149 19.1147C14.834 19.0858 14.6421 19.1002 14.4597 19.1147C14.3386 19.1284 14.208 19.1516 14.0901 19.1719C14.0366 19.1827 14.0366 19.1921 14.0901 19.2001C14.0728 19.2059 14.0382 19.3093 13.7818 19.3137C13.7913 19.3014 13.5522 19.2507 13.4673 19.2572L13.0411 19.3419C13.0191 19.3499 12.997 19.3607 12.9797 19.3701V19.3983C13.0191 19.4121 12.9986 19.4215 12.9184 19.4266C12.8665 19.4208 12.7879 19.4316 12.7328 19.4266C12.7297 19.4258 12.7265 19.4251 12.725 19.4244C12.7061 19.4179 12.6746 19.3991 12.6322 19.3983C12.4089 19.3911 12.2752 19.4555 12.1163 19.5119C12.1682 19.5662 12.2343 19.5894 12.3632 19.5973V19.6256C12.3507 19.6256 12.1855 19.6487 12.1163 19.6538C11.8332 19.6748 11.7357 19.6697 11.5612 19.7956C11.536 19.7905 11.4778 19.7978 11.4369 19.7956C11.4652 19.7167 11.3803 19.7254 11.2513 19.7674C11.2057 19.7616 11.0626 19.7645 11.0044 19.7674C10.9635 19.7695 10.9211 19.7659 10.8817 19.7674L11.0044 19.9946C10.9761 19.991 10.9163 19.9931 10.8817 19.9946C10.8141 19.9968 10.7921 20.0163 10.7591 20.0228C10.6883 20.0366 10.6018 20.0271 10.5735 20.08C10.4681 20.0445 10.4398 19.9975 10.2353 19.9946L10.2039 20.0091C10.2259 20.0293 10.3203 20.0684 10.3266 20.08C10.3313 20.0879 10.325 20.0988 10.3266 20.1082C10.2464 20.1111 10.1599 20.1038 10.0796 20.1082C10.0592 20.1096 10.0372 20.106 10.0183 20.1082C9.93653 20.1161 9.79341 20.1473 9.71006 20.1653C9.62513 20.1994 9.66602 20.3267 9.64715 20.3354C9.62671 20.3448 9.25083 20.313 9.21623 20.4208L8.58714 20.7587C8.5777 20.7601 8.57141 20.7638 8.56355 20.771L8.47547 20.8188C8.46604 20.818 8.37639 20.8542 8.29146 20.8188L8.3528 20.9324C8.23485 20.9041 8.16093 20.9172 8.04455 20.9324C7.98164 20.941 7.95962 20.9526 7.9203 20.9606C7.84953 20.9895 7.80864 21.0177 7.79763 21.046C7.65766 21.0583 7.53341 21.106 7.42804 21.1878C7.4076 21.1878 7.38715 21.1878 7.3667 21.1878C7.50825 21.3296 7.3557 21.2811 7.24875 21.3462C7.2 21.3759 7.19528 21.436 7.1827 21.4432C7.16382 21.4526 6.99554 21.415 7.12136 21.4996H6.93578C6.85714 21.5785 7.05845 21.5872 7.06317 21.6024C7.06789 21.6198 7.00341 21.7471 6.99082 21.7522C6.854 21.8028 6.50485 21.6646 6.69043 21.983C6.67156 21.9852 6.64797 21.9808 6.6291 21.983C6.61809 21.9845 6.56147 21.9389 6.42622 21.9808C6.35702 22.0025 6.35859 22.0394 6.32084 22.0677C6.29568 22.0872 6.22963 22.1516 6.19817 22.1813C6.17458 22.203 6.07235 22.2138 6.0755 22.2949C6.0755 22.3043 6.07393 22.3137 6.0755 22.3231C6.0755 22.3289 6.12897 22.4266 6.13684 22.4367L5.95125 22.4085C5.89306 22.4939 6.05663 22.5561 6.19817 22.6075C6.26265 22.6936 6.0582 22.708 6.03461 22.7276C6.00473 22.7529 6.00158 22.8585 5.93238 22.8853C5.81757 22.9302 5.77511 22.8253 5.76567 22.991C5.76253 23.0445 5.70906 23.1067 5.88992 23.0901C5.88205 23.1176 5.89464 23.1473 5.88992 23.1755C5.88363 23.174 5.81128 23.2051 5.7641 23.1899C5.6949 23.1675 5.75466 23.0959 5.58166 23.119C5.59267 23.2261 5.82858 23.3267 5.95125 23.4172C5.8679 23.4475 5.81286 23.4367 5.76725 23.4143C5.75152 23.4012 5.73107 23.3882 5.70434 23.3745C5.64772 23.3354 5.63514 23.2247 5.48573 23.318C5.42754 23.3542 5.51876 23.4519 5.50775 23.4743C5.49831 23.4917 5.39451 23.4859 5.39294 23.504C5.38665 23.559 5.49202 23.6125 5.44012 23.7218C5.37721 23.8593 5.28914 23.8064 5.14759 23.7999C5.16647 23.8557 5.11928 23.9295 5.14759 23.9801C5.16489 24.0141 5.29858 23.9801 5.27184 24.0264C4.83462 24.0083 5.32531 24.1675 5.32688 24.1813C5.33317 24.2891 5.15388 24.3166 5.14917 24.3253C5.08311 24.4345 5.23409 24.3759 5.30329 24.3817C5.37721 24.3882 5.41024 24.4157 5.45742 24.4244C5.46214 24.4251 5.47944 24.4439 5.51876 24.4526C5.51561 24.4714 5.5219 24.491 5.51876 24.5098C5.5046 24.5807 5.45585 24.5619 5.33317 24.5952C5.25139 24.6169 5.12715 24.6125 5.14759 24.6516C5.24668 24.6574 5.36306 24.6639 5.45585 24.6805L5.20893 24.7232C5.76096 24.8991 5.29543 24.8679 5.27027 24.8795C5.14602 24.9403 5.48573 24.9765 5.39451 25.0214C5.38507 25.0264 5.10198 25.0214 5.14759 25.0923C5.1759 25.1371 5.41653 25.0959 5.27184 25.2486L5.45585 25.3339C5.44169 25.3368 5.41496 25.3318 5.39451 25.3339C5.34104 25.339 5.26869 25.3303 5.20893 25.3339V25.5329C5.14602 25.5532 4.92427 25.5619 5.02335 25.6176C5.03279 25.6234 5.14602 25.6212 5.18062 25.6458C5.23724 25.6849 5.14917 25.7326 5.17748 25.7623C5.22151 25.8079 5.39451 25.7963 5.39294 25.8455C5.21522 25.8629 5.10041 25.8593 5.14759 25.9598C5.35677 25.86 5.41024 25.9685 5.64143 25.9881C5.63042 25.9975 5.64929 26.0271 5.64143 26.0452C5.64143 26.0481 5.60211 26.051 5.5911 26.0604L5.64143 26.0734C5.64143 26.0734 5.56594 26.1067 5.51876 26.1017C5.50775 26.0908 5.52662 26.0662 5.48887 26.0445C5.43855 26.0156 5.37407 26.025 5.33317 26.0163C5.33003 26.0156 5.33475 25.9823 5.27184 25.9881C5.19635 26.0467 5.27498 26.1292 5.27184 26.1581C5.27027 26.1769 5.27184 26.1957 5.27184 26.2153C4.95729 26.3202 5.23724 26.5597 5.51876 26.4707C5.53291 26.491 5.49359 26.525 5.45742 26.5279C5.42597 26.53 5.35205 26.4881 5.33475 26.4996V26.6132C5.35047 26.6378 5.38822 26.6834 5.39608 26.6986C5.39608 26.7015 5.38036 26.7211 5.39608 26.7558C5.46371 26.7724 5.63199 26.7109 5.643 26.742C5.67603 26.8282 5.39766 26.7363 5.45742 26.8412C5.59896 26.8499 5.73579 26.7804 5.82701 26.8412C5.47157 26.873 5.75781 26.9432 5.76567 26.9548C5.78769 26.9924 5.75938 27.0821 5.72478 27.1198C5.68389 27.1632 5.58638 27.1509 5.58166 27.1545C5.49359 27.2167 5.70591 27.2102 5.70119 27.224C5.68861 27.2312 5.67446 27.2406 5.65873 27.2522C5.64929 27.258 5.64143 27.263 5.64143 27.2674C5.63828 27.2862 5.64143 27.305 5.64143 27.3245C5.61784 27.3397 5.61784 27.3593 5.64143 27.3817C5.64143 27.3911 5.63986 27.4005 5.64143 27.4099L5.70276 27.5517C5.74208 27.6154 5.77511 27.6393 5.82544 27.6936C5.89778 27.7616 5.92137 27.7724 5.94811 27.6936C5.96541 27.7131 5.99057 27.7312 6.00945 27.7507C5.92452 27.7681 5.94968 27.7999 6.08494 27.8455C5.89935 27.8774 5.89621 27.9323 6.07865 28.0105C6.03933 28.0792 6.03618 28.135 6.07078 28.1762C6.07078 28.1856 6.07078 28.195 6.07078 28.2044C6.09437 28.229 6.11482 28.229 6.13212 28.2044C6.1274 28.2312 6.1274 28.2594 6.13212 28.2898C6.1447 28.3137 6.11167 28.3542 6.13212 28.3831C6.15571 28.4164 6.24064 28.3983 6.25636 28.4034C6.25164 28.4215 6.26423 28.4439 6.25636 28.4606C6.27209 28.5546 6.33343 28.6024 6.44194 28.6024C6.45924 28.6205 6.42464 28.6697 6.44194 28.6878C6.4561 28.703 6.48441 28.7073 6.50328 28.716C6.4734 28.7869 6.51429 28.8716 6.62753 28.9714C6.63224 28.9758 6.67471 28.9671 6.68886 28.9714C6.82883 29.0134 6.87759 28.9446 6.93578 28.9432C7.05531 29.0076 7.03486 29.064 6.87759 29.1111L6.87444 29.1704V29.1986C6.89646 29.2073 6.91533 29.2182 6.93578 29.2268L6.99869 29.3687C7.10563 29.3889 7.1481 29.3462 7.1827 29.3404C7.22201 29.3339 7.2692 29.3216 7.30537 29.3122C7.33053 29.3253 7.34154 29.3528 7.3667 29.3694C7.21887 29.394 7.25032 29.4041 7.18112 29.4266C7.13709 29.4403 6.96409 29.4323 6.99711 29.4967C7.23302 29.5879 7.2975 29.6357 7.3667 29.7674C7.37142 29.7768 7.36041 29.7876 7.3667 29.7956C7.41703 29.8629 7.33525 29.8846 7.61362 29.8238C7.61834 29.8253 7.71585 29.7912 7.73 29.7985L7.7992 29.881V29.9092C7.7992 29.9092 7.69069 29.9331 7.67496 29.9374C7.53341 29.9787 7.61991 29.983 7.58846 30.0163C7.57902 30.0257 7.48309 30.0163 7.48938 30.0365C7.51454 30.1046 7.79134 30.1878 7.92188 30.2218C7.60419 30.3108 7.99265 30.3195 7.98321 30.4772C7.98321 30.4866 7.98636 30.4967 7.98321 30.5054C7.98007 30.5134 7.92659 30.525 7.92188 30.5336C7.91244 30.5496 7.93131 30.5742 7.92188 30.5908C7.94389 30.598 7.97378 30.6075 7.98321 30.619C8.08072 30.6559 8.1625 30.6943 8.23013 30.7326C8.25057 30.7413 8.27102 30.7522 8.29146 30.7609C8.32292 30.8158 8.36381 30.8448 8.41414 30.8462C8.36066 30.9309 8.46604 31.0185 8.63117 31.0655L8.66105 31.1306C8.67678 31.1415 8.70195 31.1501 8.72239 31.1588C8.71767 31.1675 8.72554 31.1776 8.72239 31.187C8.78687 31.1972 8.8199 31.2153 8.84506 31.2442C8.91426 31.3224 8.83563 31.3962 9.114 31.3376C9.12815 31.3383 9.14388 31.339 9.15961 31.339L9.21623 31.415C9.07468 31.4316 9.04165 31.4765 9.13287 31.4938C9.03222 31.4888 9.05109 31.5061 9.15489 31.5575C9.09984 31.6567 9.19106 31.6154 9.21623 31.6429L9.3389 31.7565C9.43012 31.8267 9.49774 31.8788 9.58581 31.9555C9.60154 31.9692 9.68804 32.0792 9.70849 32.0973C9.74466 32.2088 10.0435 32.3658 9.9554 32.1827C9.96012 32.1885 10.0655 32.2008 10.0749 32.2283C10.0859 32.2652 9.97428 32.2905 9.96956 32.3115C9.96484 32.3332 10.0749 32.3477 10.0796 32.3527C10.0844 32.3614 10.0749 32.3716 10.0796 32.381C10.0844 32.3904 10.0749 32.4005 10.0796 32.4092C10.1032 32.4519 10.0891 32.4649 10.141 32.5228C10.174 32.5778 10.174 32.6255 10.141 32.6646C10.1127 32.7131 10.2605 32.7449 10.2637 32.75C10.2558 32.7804 10.2794 32.797 10.3171 32.8043C10.2637 32.8296 10.2872 32.8962 10.3863 33.0061C10.4052 33.0597 10.3863 33.1147 10.509 33.148C10.5279 33.2406 10.5908 33.2876 10.6946 33.2898C10.6946 33.2992 10.6993 33.3115 10.6946 33.318H10.7559C10.8629 33.3556 10.9179 33.3672 10.9415 33.4316C10.8597 33.4417 10.8597 33.47 10.9415 33.517C11.146 33.6009 11.4558 33.6465 11.558 33.7724C11.5344 33.7789 11.4463 33.7652 11.4353 33.7724C11.2938 33.8549 11.8914 33.9048 11.9292 33.9143C12.1509 33.9019 12.3255 33.8824 12.5473 33.9143L12.6086 33.9996C12.6385 33.9765 12.618 33.9273 12.7313 33.9143V33.886C12.7627 33.8839 12.8445 33.8412 12.953 33.8383C13.1858 33.831 13.3368 33.9345 13.2864 33.7442C13.1952 33.7362 13.093 33.7724 13.0143 33.7666C12.9451 33.7616 12.9404 33.7254 12.9168 33.716C13.093 33.7297 13.0175 33.6943 13.0395 33.6588C13.0474 33.6465 13.0741 33.6357 13.1008 33.6306C13.1276 33.6552 13.2094 33.7059 13.255 33.716C13.277 33.7211 13.5506 33.5959 13.2235 33.5459C13.233 33.5431 13.159 33.5286 13.3462 33.4888C13.3462 33.5734 13.5711 33.5901 13.5931 33.6024C13.6057 33.5705 13.6906 33.5604 13.7158 33.5452V33.4316C13.7158 33.4316 13.7142 33.3868 13.7787 33.3622C13.8274 33.3441 14.0193 33.3339 14.0225 33.3035C14.024 33.2869 13.9124 33.271 13.8998 33.2609C13.8951 33.2572 13.8966 33.2377 13.8998 33.2326C13.9108 33.2145 14.1357 33.1393 14.1467 33.0908V33.0626C14.1766 33.064 14.2552 33.0662 14.2694 33.0626C14.3543 33.0431 14.3118 32.9931 14.337 32.9794C14.3449 32.975 14.5949 33.03 14.5776 32.9635C14.5698 32.9338 14.3826 32.9294 14.3952 32.907C14.4015 32.8962 14.5132 32.7601 14.5242 32.7536C14.5305 32.75 14.6122 32.7695 14.6421 32.7609C14.7113 32.7391 14.7538 32.6957 14.7648 32.6936C14.7805 32.6899 14.8544 32.6936 14.8875 32.6936C14.9095 32.6936 14.9331 32.6914 14.9488 32.6936C15.1234 32.6538 14.8733 32.598 14.7632 32.58C14.9834 32.5431 14.9897 32.5271 15.1328 32.4664C15.3247 32.4533 15.4678 32.415 15.5653 32.3527C15.5747 32.3462 15.5559 32.331 15.5653 32.3245C15.515 32.2652 15.3451 32.2833 15.3797 32.2254C15.4033 32.1856 15.6093 32.2536 15.5653 32.1538C15.5543 32.1277 15.4442 32.0923 15.4426 32.0684C15.6785 32.0467 15.7131 32.0756 15.9365 32.0966L15.8138 32.0257C16.0355 32.0004 15.8688 31.9671 15.8924 31.9171C15.9207 31.8578 16.0764 31.8556 15.9365 31.784C15.8767 31.7529 15.7776 31.7659 15.8138 31.7131L15.8751 31.6986C15.9616 31.7116 15.9663 31.7363 16.122 31.7268C16.0686 31.7377 16.0686 31.7471 16.122 31.7551L16.0607 31.8404C16.1378 31.847 16.1865 31.831 16.2463 31.8122C16.4051 31.8122 16.5703 31.784 16.7401 31.7268C16.8376 31.6509 16.6819 31.585 16.8015 31.4996C17.061 31.5351 17.1836 31.4591 17.1726 31.2724C17.1931 31.263 17.2135 31.2536 17.234 31.2442C17.4054 31.1791 17.2827 31.1277 17.1113 31.1024C17.1475 31.1002 17.1899 31.1234 17.3582 31.1024C17.4133 31.0952 17.5029 31.0901 17.5438 31.0742C17.5878 30.983 17.495 30.9967 17.3582 30.9606C17.4856 30.8991 17.5029 30.8824 17.6051 30.8187C17.6098 30.8158 17.6869 30.831 17.7278 30.7992C17.7781 30.7601 17.8253 30.6501 17.7278 30.6198V30.5915C17.9118 30.5604 18.4151 30.5228 18.0974 30.4208C18.1053 30.4056 18.0801 30.3723 18.099 30.3658C18.1367 30.3535 18.349 30.3802 18.4041 30.3209C18.456 30.2666 18.2987 30.2818 18.2893 30.276C18.154 30.195 18.684 30.1581 18.7092 30.1501C18.7359 30.1422 18.901 30.051 18.9592 30.0228C19.0426 29.9823 19.074 29.9418 19.0819 29.9374C19.1291 29.9143 19.2109 29.8622 19.2675 29.852C19.4012 29.8281 19.3807 29.8882 19.5757 29.7949C19.5962 29.7855 19.6182 29.776 19.6371 29.7666C19.6685 29.7305 19.6685 29.7022 19.6371 29.6813C19.7283 29.6936 19.7896 29.6465 19.8227 29.5394C19.8164 29.5221 19.8274 29.5011 19.8227 29.4823C19.8069 29.4859 19.7802 29.4794 19.7613 29.4823C19.755 29.4649 19.7708 29.4403 19.7613 29.4251C19.9674 29.4244 19.9485 29.3651 20.0082 29.3115C20.0507 29.2732 20.0664 29.2138 20.0822 29.2044C20.1341 29.1726 20.3181 29.1907 20.3841 29.1501C20.4722 29.0973 20.3763 29.038 20.3778 28.9982C20.3778 28.9888 20.3778 28.9794 20.3778 28.97L20.5005 28.9982C20.4753 28.9562 20.554 28.9128 20.5634 28.8846C20.6263 28.886 20.6499 28.8774 20.6877 28.8564C20.8213 28.8658 20.8607 28.8072 20.8135 28.7703C20.8323 28.7674 20.8528 28.7587 20.8732 28.7428C20.8386 28.6646 20.9629 28.6957 21.1312 28.6675C21.1516 28.6653 21.1689 28.6624 21.1815 28.6574C21.2051 28.6516 21.2648 28.6161 21.3042 28.6002L21.3655 28.5148C21.3435 28.5033 21.2365 28.5648 21.1815 28.5713C21.1673 28.5727 21.1327 28.5727 21.1202 28.5713C21.1799 28.5329 21.2413 28.4939 21.3057 28.4577C21.3482 28.4338 21.4095 28.4128 21.4284 28.4005C21.4724 28.373 21.5086 28.3426 21.5511 28.3151C21.6942 28.394 21.8814 28.242 21.9836 28.1733C22.0009 28.1248 21.9789 28.0872 21.9222 28.0597C22.0292 28.0011 22.0811 28.0416 22.1078 27.9179C22.1896 27.9316 22.2541 27.894 22.2934 27.8607C22.3076 27.8564 22.3406 27.8651 22.3547 27.8607L22.4051 27.7826C22.6237 27.6834 22.6913 27.6198 22.608 27.5908C22.6567 27.5959 22.6614 27.58 22.6017 27.5488C22.6111 27.5423 22.5922 27.5264 22.6017 27.5206C22.8753 27.4548 22.9587 27.3889 22.8486 27.3216C22.9209 27.2572 22.8171 27.2478 23.0342 27.1798C23.0483 27.1755 23.1254 27.1899 23.1474 27.1762C23.2119 27.1378 23.0609 27.0879 23.2811 26.9808C23.3912 26.9273 23.5217 26.8882 23.5893 26.8101C23.6035 26.8137 23.6302 26.8079 23.6507 26.8101H23.712C23.7293 26.7992 23.7623 26.7905 23.7733 26.7818C23.8127 26.7457 23.7073 26.6473 23.712 26.64C23.7151 26.6342 23.9117 26.5952 23.8347 26.5546C23.8221 26.5481 23.5563 26.6053 23.6035 26.5206C23.6192 26.5134 23.6349 26.496 23.6507 26.4693C23.7089 26.4555 23.7608 26.4461 23.7733 26.4121C23.7765 26.4056 23.7781 26.3897 23.7733 26.3839C23.8158 26.3448 24.036 26.3802 24.0769 26.3528C24.1036 26.3354 24.069 26.2912 24.0816 26.2703C24.0895 26.258 24.0769 26.2428 24.0989 26.2211C24.1099 26.2102 24.176 26.1972 24.2058 26.1849C24.2483 26.1675 24.3206 26.1603 24.3285 26.1567C24.4213 26.1118 24.3788 26.0662 24.4244 26.0163C24.4795 25.957 24.7296 25.8622 24.4512 25.8723C24.4512 25.8679 24.3741 25.8665 24.3883 25.8441C24.6761 25.8643 24.5345 25.8007 24.5739 25.7587C24.6478 25.6776 24.8381 25.6335 24.5739 25.5597C24.5676 25.5308 24.5817 25.5177 24.6352 25.5025C24.6808 25.4895 24.7642 25.4975 24.8255 25.462C24.8978 25.42 24.8617 25.3824 24.8821 25.36C24.9246 25.3137 24.9623 25.2869 25.0048 25.2464C25.0724 25.1842 25.2564 25.0561 25.313 24.991C25.3932 24.8983 25.4389 24.8368 25.4357 24.7355C25.4357 24.7109 25.4483 24.6675 25.4357 24.6502C25.42 24.6277 25.3571 24.5814 25.313 24.5083C25.3067 24.4989 25.3209 24.4873 25.313 24.4801C25.3256 24.4685 25.3696 24.4591 25.3744 24.4519C25.4562 24.4808 25.5379 24.4794 25.6213 24.4519H25.6826C25.7361 24.373 25.7943 24.25 25.8053 24.1675C25.8336 24.1559 25.8352 24.1465 25.8053 24.1393C25.8037 24.1212 25.8147 24.0952 25.8053 24.0821C25.777 24.0431 25.6983 24.0148 25.6197 23.9967C25.5883 23.97 25.5364 23.9526 25.5584 23.9114C25.6008 23.9584 25.7487 24.0214 25.8053 23.9685C25.8037 23.9635 25.8886 23.9092 25.8053 23.8831C25.6795 23.8687 25.7046 23.8528 25.8839 23.8368L25.8682 23.7978C25.8792 23.7811 25.7754 23.5271 25.6213 23.5706C25.6213 23.5677 25.5364 23.5445 25.5835 23.5148C25.67 23.462 25.7298 23.5025 25.8666 23.3998C25.9138 23.4005 25.9358 23.3817 25.928 23.3426C25.9327 23.3347 25.9877 23.326 25.9893 23.2855C25.8729 23.2406 25.8525 23.2124 25.928 23.2001L25.9311 23.208ZM9.82015 21.5995C9.81229 21.6067 9.80442 21.6147 9.80128 21.6227C9.79341 21.6111 9.80128 21.6038 9.82015 21.5995ZM23.8064 24.0619C23.8064 24.0619 23.8221 24.0597 23.8331 24.0604C23.8252 24.0619 23.8158 24.0619 23.8064 24.0619ZM20.1907 25.9917C20.1907 25.9917 20.1938 25.9953 20.197 25.9975C20.1985 26.0018 20.1985 26.0069 20.197 26.0134C20.1938 26.0069 20.1907 25.9996 20.1907 25.9917ZM21.9804 24.0604C21.9962 24.0611 22.0119 24.0626 22.026 24.0633C22.0056 24.0633 21.9899 24.0633 21.9804 24.0604ZM9.48831 22.8101H9.45056C9.46157 22.8086 9.47572 22.8101 9.48831 22.8101ZM12.7218 22.7254C12.7234 22.6574 12.736 22.5908 12.7832 22.5264C12.9656 22.538 13.0254 22.4693 12.8445 22.441C12.8602 22.4439 12.8854 22.4389 12.9058 22.441C13.0631 22.4577 13.2031 22.4902 13.3997 22.4693C13.3541 22.4049 13.3603 22.3774 13.461 22.3274C13.5444 22.3354 13.6482 22.3513 13.7079 22.3557C13.7284 22.3571 13.7488 22.3542 13.7693 22.3557C13.9816 22.3672 14.0948 22.3766 14.3244 22.3274C14.3559 22.3274 14.3795 22.3274 14.3999 22.3274H14.4094C14.5021 22.4258 14.4833 22.3571 14.51 22.3557C14.5336 22.3542 14.5918 22.3542 14.6185 22.3549C14.6232 22.3549 14.628 22.3557 14.6327 22.3557C14.639 22.3585 14.6138 22.394 14.6453 22.4049C14.7003 22.4251 14.9095 22.4056 15.0023 22.4403C14.9991 22.4121 15.0086 22.3831 15.0023 22.3549C15.0007 22.3455 15.007 22.3354 15.0023 22.3267C15.0432 22.3282 15.0856 22.3245 15.1249 22.3267C15.1391 22.3289 15.1517 22.3303 15.1643 22.331C15.3105 22.3542 15.2272 22.4389 15.4332 22.2985L15.2476 22.2695V22.2413C15.4757 22.2449 15.4458 22.2305 15.4945 22.1277C15.688 22.1125 15.6612 22.0532 15.6801 22.0423C15.7399 22.0076 15.7886 21.9345 15.927 21.9714C16.0701 22.0091 15.8138 22.0402 15.8657 22.0995C15.872 22.1067 16.0371 22.0271 15.9884 22.1277C15.5559 22.1067 16.0513 22.2659 16.0513 22.3549C16.1708 22.3593 16.0937 22.2761 16.1126 22.2413C16.1205 22.2377 16.1236 22.2326 16.1236 22.2276C16.1504 22.2008 16.2038 22.169 16.1739 22.1284H16.2337C16.207 22.2167 16.4036 22.182 16.5435 22.1849C16.5844 22.1856 16.6269 22.1856 16.6662 22.1849C16.6867 22.208 16.7228 22.2703 16.759 22.2703L16.8518 22.1849C16.8722 22.1834 16.8943 22.1871 16.9131 22.1849C17.333 22.2413 16.9131 22.3043 16.9131 22.3412C16.9131 22.3745 17.2638 22.4403 17.3441 22.4693C17.3362 22.4331 17.3566 22.3897 17.3441 22.3557C17.3441 22.402 17.4243 22.4251 17.5296 22.4128C17.5359 22.4287 17.58 22.4504 17.591 22.47C17.591 22.4714 17.5344 22.4794 17.5359 22.4931L17.8379 22.5836L17.7766 22.7818C18.0471 22.7601 17.9228 22.8274 17.9653 22.8658C17.97 22.8694 18.0502 22.8528 18.1461 22.8672C18.1713 22.8708 18.2075 22.8875 18.2688 22.8954C18.272 22.9258 18.4843 22.9099 18.3301 23.0091C18.4214 23.0018 18.478 22.9794 18.5031 22.9837C18.511 23.0011 18.5157 23.0192 18.5157 23.038C18.4796 23.2399 18.8633 23.1711 18.8822 23.1805C18.8948 23.1863 18.879 23.237 18.9199 23.2623C18.9797 23.2999 19.1747 23.3267 19.181 23.3636C19.2046 23.4823 18.964 23.3882 18.824 23.4352C18.8208 23.4331 18.7579 23.4389 18.7218 23.4244C18.6856 23.4099 18.7029 23.3795 18.6982 23.3788C18.6809 23.3737 18.4827 23.4678 18.3286 23.407C18.6007 23.4953 18.2798 23.6169 18.3286 23.6625C18.3333 23.6668 18.5016 23.6212 18.5126 23.6899C18.3585 23.6776 18.4041 23.7601 18.327 23.7898C18.2562 23.8173 18.0675 23.7775 18.1414 23.8752C18.1524 23.8897 18.382 23.8839 18.2059 23.9613L18.3286 24.0033C18.3176 24.0091 18.2955 24.0409 18.2672 24.0604C18.2342 24.0821 18.2248 24.1046 18.2059 24.1176C18.1666 24.1451 18.1178 24.2095 18.0864 24.2182C18.0423 24.2312 17.9417 24.1943 17.9102 24.2073C17.8819 24.2189 17.9087 24.2543 17.8976 24.2594C17.8929 24.2623 17.8143 24.2297 17.7435 24.2572C17.6004 24.3122 17.6743 24.3803 17.7734 24.373C17.7828 24.3723 17.7938 24.2442 17.959 24.3448C17.9212 24.3745 17.8725 24.4005 17.8363 24.4302C17.7986 24.4295 17.7498 24.428 17.7136 24.4302C17.5831 24.4389 17.4085 24.5315 17.4306 24.5865C17.4463 24.6241 17.5595 24.6342 17.5265 24.6856C17.3849 24.6559 17.429 24.6132 17.2796 24.6574C17.2025 24.6798 17.072 24.7167 17.2182 24.7428C17.1994 24.7486 17.289 24.8419 16.9713 24.771H16.91C16.921 24.7471 17.0924 24.7522 17.0327 24.6856C16.7087 24.682 16.8125 24.839 16.6583 24.8817C16.5199 24.9208 16.5341 24.8318 16.4806 24.8122C16.3941 24.7804 16.2919 24.8282 16.2935 24.8412C16.2935 24.8535 16.6033 24.9823 16.6316 25.0257C16.7747 24.886 16.7464 24.9837 16.7857 25.0539C16.792 25.064 16.7779 25.0778 16.7857 25.0821C16.7055 25.0923 16.5687 25.1364 16.4806 25.1313C16.4618 25.1248 16.4397 25.1176 16.4146 25.1104C16.4177 25.1089 16.4869 25.114 16.4759 25.0821C16.4696 25.0655 16.0874 25.025 16.0434 25.025H16.0355C16.0355 25.025 16.0418 25.025 16.0434 25.025C15.9648 25.0206 15.8688 25.0315 15.7965 25.025C15.7619 25.0221 15.7053 25.0025 15.6109 24.9967C15.4851 24.9881 15.3876 24.9461 15.3042 25.0112L15.4269 25.1104C15.3907 25.1132 15.3435 25.1328 15.3042 25.1386C15.3011 25.1378 15.2901 25.1248 15.2429 25.1104C15.0746 25.0597 15.0935 25.0966 14.9346 25.1386C14.9142 25.085 14.9551 25.0445 14.996 24.9967C15.0054 24.9866 15.0479 24.9779 15.0573 24.9685C15.1674 24.8672 15.0809 24.8072 14.8466 24.831C14.7884 24.8368 14.6736 24.9381 14.6059 24.9577C14.5179 24.983 14.3464 24.9743 14.2568 25.025C14.2568 24.8976 14.0618 24.9859 13.9438 24.9555C13.8872 24.9403 13.9517 24.8687 13.8558 24.8549C13.8023 24.847 13.8447 24.9128 13.7913 24.9135C13.2959 24.9172 13.6246 24.7109 13.579 24.6849C13.516 24.6907 13.4626 24.7131 13.3949 24.7131C13.3651 24.7131 13.3022 24.6849 13.2723 24.6849L13.0867 24.5995C13.1024 24.5901 13.0741 24.5365 13.0867 24.5141L13.2723 24.5988C13.5884 24.5886 13.2927 24.4461 13.0851 24.4852C13.2094 24.3578 13.06 24.4157 13.0238 24.3998C12.9294 24.3593 12.6982 24.2261 12.5913 24.1726C12.4891 24.1212 12.4041 24.0575 12.3051 24.0047C12.2673 23.9844 12.1761 23.9765 12.1667 23.9693C12.1588 23.9635 12.2107 23.8376 12.2217 23.8325C12.3318 23.7761 12.3412 23.8853 12.3758 23.8897C12.4985 23.9049 12.4906 23.8477 12.4686 23.8187C12.4167 23.7493 12.0644 23.8687 12.1604 23.7189C12.1556 23.6675 12.0739 23.6075 12.099 23.5481C12.1619 23.5351 12.2421 23.5293 12.2846 23.5199C12.3617 23.5018 12.3884 23.4685 12.4073 23.4627C12.5189 23.4324 12.6951 23.4606 12.6542 23.3774L12.4686 23.3911C12.5929 23.2695 12.4812 23.2095 12.2233 23.2638C12.2044 23.2674 12.1729 23.2594 12.1619 23.2638C12.022 23.2305 12.2154 23.114 12.1619 23.0648C12.0314 23.0655 12.184 23.1625 11.9779 23.093C12.0062 23.0242 12.088 23.0033 12.1635 22.9512C12.2091 22.9671 12.2563 23.0004 12.2862 23.0083C12.4041 23.0387 12.4246 23.0756 12.6275 23.0677C12.78 23.0619 12.6982 23.017 12.7171 23.0083C12.7328 23.0054 12.7423 23.0018 12.7486 22.9989C12.8303 22.983 12.9892 22.9917 13.0254 22.9085C13.0615 22.8253 12.8995 22.9179 12.78 22.8665C12.898 22.7623 12.824 22.7601 13.0883 22.7102C13.0914 22.6856 13.0065 22.695 12.9656 22.6965C12.8697 22.6994 12.8052 22.7051 12.7187 22.7247L12.7218 22.7254ZM14.013 22.0944C14.013 22.0944 14.0162 22.0981 14.0177 22.1002L14.0099 22.0959C14.0099 22.0959 14.013 22.0952 14.0146 22.0944H14.013ZM12.7486 25.6936C12.7486 25.6936 12.7454 25.695 12.7438 25.695C12.7438 25.695 12.747 25.6943 12.747 25.6936H12.7486ZM12.9074 26.7305C12.887 26.7297 12.8665 26.7312 12.8461 26.7305H12.9074ZM12.5724 26.4179H12.5992C12.5913 26.4179 12.5819 26.4179 12.5724 26.4179ZM14.5116 26.9005C14.5116 26.9005 14.5053 26.8962 14.5069 26.894C14.5116 26.8954 14.5163 26.8976 14.521 26.8991C14.5179 26.8991 14.5147 26.8998 14.5116 26.9005ZM12.4214 26.7305C12.4214 26.7305 12.4136 26.7305 12.412 26.7305C12.4151 26.7305 12.4183 26.7305 12.4214 26.7305ZM11.9811 26.9287C11.9811 26.9287 11.9795 26.928 11.9764 26.9273C11.9764 26.9273 11.9795 26.928 11.9811 26.9287ZM13.9564 26.347C13.958 26.352 13.9596 26.3571 13.9564 26.3607V26.347ZM14.5021 27.5011C14.5021 27.5011 14.499 27.5011 14.4974 27.5011C14.499 27.5011 14.5006 27.5011 14.5037 27.5011H14.5021ZM10.9934 25.4237H10.9321C10.9525 25.4237 10.973 25.4237 10.9934 25.4237ZM18.9467 24.1255C18.9467 24.1255 18.9514 24.1205 18.9561 24.1169C18.9561 24.1169 18.9529 24.1205 18.9467 24.1255ZM10.5609 23.9179C10.542 23.9172 10.5263 23.9157 10.5106 23.9143C10.5247 23.9121 10.542 23.9128 10.5609 23.9179ZM9.5292 24.4005C9.5292 24.4005 9.54492 24.4005 9.55436 24.4005H9.51347C9.51347 24.4005 9.52448 24.4005 9.53077 24.4005H9.5292ZM15.4442 25.6574C15.4442 25.6574 15.4395 25.653 15.4379 25.6509C15.4411 25.653 15.4411 25.6552 15.4442 25.6574ZM18.4937 22.2138C18.5047 22.2131 18.5157 22.2117 18.5252 22.2138H18.4937ZM18.2877 24.4953C18.2877 24.4953 18.2798 24.4888 18.2782 24.4866C18.2845 24.4895 18.2877 24.4924 18.2877 24.4953ZM19.2643 22.4005C19.2643 22.4041 19.2659 22.4085 19.2643 22.4121V22.4005ZM18.9561 21.703C18.9561 21.703 18.9498 21.703 18.9419 21.703C18.9467 21.703 18.9514 21.703 18.9561 21.703ZM13.6733 21.4468C13.6859 21.4468 13.6985 21.4461 13.7095 21.4468H13.6733ZM9.36249 27.263C9.36249 27.263 9.35148 27.2659 9.34676 27.2666C9.34047 27.2681 9.33418 27.2688 9.32632 27.2703C9.3389 27.2666 9.34991 27.2645 9.36092 27.263H9.36249ZM21.7335 22.6834C21.7335 22.6784 21.7304 22.6726 21.7335 22.6682V22.6834ZM18.7721 26.7869C18.7721 26.7869 18.7768 26.7905 18.7768 26.7934C18.7689 26.7905 18.7595 26.7876 18.7501 26.784C18.7611 26.784 18.7689 26.7847 18.7721 26.7869ZM17.9071 21.305C17.9323 21.3014 17.9448 21.3021 17.948 21.305C17.9275 21.3064 17.9118 21.3072 17.9071 21.305ZM12.2421 30.3383C12.2421 30.3383 12.2484 30.3404 12.2516 30.3412C12.2484 30.3412 12.2453 30.3412 12.2437 30.3404C12.2437 30.3404 12.2437 30.339 12.2421 30.3383ZM19.1841 21.2724C19.17 21.2739 19.1558 21.2746 19.1417 21.2768C19.1558 21.2739 19.17 21.2724 19.1841 21.2724ZM18.0927 28.0373C18.0927 28.0373 18.1052 28.0358 18.1115 28.0351C18.1052 28.038 18.1005 28.0402 18.0942 28.0431C18.0942 28.0409 18.0927 28.0394 18.0911 28.0373H18.0927ZM21.916 24.0829C21.916 24.0829 21.9191 24.0865 21.9191 24.0886C21.9191 24.0865 21.916 24.085 21.916 24.0829ZM22.1157 22.7992C22.1157 22.7992 22.111 22.8064 22.1047 22.8101C22.1047 22.8079 22.1094 22.8036 22.1157 22.7992ZM20.0712 22.1523C20.0712 22.1523 20.0743 22.1473 20.0774 22.1451C20.0822 22.148 20.0869 22.1502 20.0916 22.153C20.0853 22.153 20.079 22.153 20.0727 22.153L20.0712 22.1523ZM9.94125 22.4873C9.94125 22.4823 9.94125 22.4765 9.9444 22.4693C9.9444 22.475 9.94282 22.4816 9.94125 22.4873ZM8.40156 27.0141L8.35437 27.009C8.36853 27.009 8.38268 27.0105 8.40156 27.0141ZM17.0421 27.9931C17.0421 27.9888 17.0389 27.9837 17.0421 27.9801V27.9931ZM20.4989 21.475C20.5288 21.4794 20.5556 21.4852 20.5791 21.4917C20.554 21.4917 20.5272 21.4873 20.4989 21.475ZM7.6608 23.6342C7.6608 23.6306 7.6608 23.6263 7.6608 23.6227C7.6608 23.6255 7.66238 23.6292 7.6608 23.6342ZM13.9187 30.7659C13.9187 30.7659 13.9391 30.763 13.9564 30.7637C13.9548 30.7652 13.9375 30.7659 13.9187 30.7659ZM17.1475 28.8723C17.1349 28.8651 17.1475 28.8571 17.1711 28.8477C17.1632 28.8556 17.1553 28.8636 17.1475 28.8723ZM23.8158 24.1046C23.8158 24.1046 23.8284 24.1118 23.8315 24.1169C23.8252 24.1125 23.8205 24.1082 23.8158 24.1046ZM17.775 20.3397C17.7986 20.3397 17.8222 20.339 17.8458 20.3397C17.8143 20.3448 17.7923 20.3441 17.775 20.3397ZM17.2277 20.4244C17.2277 20.4244 17.2214 20.4244 17.2182 20.4244C17.2198 20.4237 17.223 20.4222 17.2245 20.4215C17.2245 20.4222 17.2261 20.4237 17.2277 20.4244ZM8.95673 22.2008C8.95673 22.1957 8.95358 22.1907 8.95673 22.1856V22.2008ZM18.6856 28.3781C18.6761 28.3781 18.6651 28.3788 18.6478 28.3781C18.662 28.3781 18.6746 28.3781 18.6856 28.3781ZM15.3813 20.1979H15.3766L15.3797 20.1965C15.3797 20.1965 15.3797 20.1972 15.3797 20.1979H15.3813ZM6.98139 25.0257C6.9751 25.0206 6.96881 25.0163 6.96251 25.0119C6.97038 25.0156 6.97667 25.0206 6.98139 25.0257ZM21.9128 20.9931C21.9128 20.983 21.9128 20.9736 21.9191 20.9642C21.9191 20.9743 21.916 20.9837 21.9128 20.9931ZM7.16697 23.9324V23.9179C7.16697 23.9179 7.17011 23.9266 7.16697 23.9324ZM13.9564 30.9627C13.9312 30.9533 13.9061 30.9446 13.8809 30.9367C13.9045 30.9432 13.9281 30.9512 13.9564 30.9627ZM18.5865 20.0264C18.5865 20.0192 18.5928 20.0105 18.6007 20.0018C18.5959 20.0098 18.5912 20.0177 18.5865 20.0264ZM23.2166 25.462V25.4519C23.2166 25.4519 23.2355 25.4497 23.2543 25.4512C23.2418 25.4548 23.2292 25.4584 23.2166 25.462ZM19.5726 28.2782L19.5915 28.2768C19.5915 28.2768 19.5915 28.2775 19.5915 28.2782C19.5852 28.2782 19.5789 28.2782 19.5726 28.2782ZM12.3035 33.1798V33.1813H12.3003C12.3003 33.1813 12.3019 33.1798 12.3035 33.1791V33.1798ZM18.7092 29.3441C18.7092 29.3441 18.7123 29.3441 18.7139 29.3448C18.7139 29.3448 18.7139 29.3448 18.7123 29.3448L18.7092 29.3433V29.3441ZM15.2523 31.4736C15.2523 31.4736 15.2665 31.4736 15.2744 31.4736H15.2523ZM22.8753 20.3962C22.8643 20.3969 22.8533 20.3976 22.8454 20.3962H22.8753ZM6.04247 26.331L6.05348 26.3325C6.05348 26.3325 6.04562 26.3318 6.0409 26.331H6.04247ZM7.10406 28.5763C7.08361 28.5778 7.06317 28.5756 7.04272 28.5763H7.10406ZM24.5125 25.2529H24.5739C24.5534 25.2529 24.533 25.2529 24.5125 25.2529ZM10.4996 32.7804C10.5074 32.7883 10.4901 32.8021 10.4996 32.8086C10.4791 32.805 10.4587 32.8021 10.4414 32.7992C10.4634 32.7941 10.4838 32.7876 10.4996 32.7797V32.7804ZM19.6968 29.258C19.6968 29.276 19.722 29.292 19.7755 29.305C19.6308 29.2732 19.6041 29.258 19.6968 29.258ZM8.52423 20.8224H8.48805C8.50221 20.8216 8.51479 20.8202 8.52423 20.8224ZM5.81443 22.9229C5.81443 22.9229 5.80656 22.9273 5.80499 22.9287C5.80499 22.9266 5.80499 22.9244 5.80814 22.9237C5.80814 22.9237 5.81128 22.9229 5.81443 22.9229ZM8.11689 30.1957H8.03039C8.05398 30.1928 8.08544 30.195 8.11689 30.1957ZM9.3908 31.7855C9.3908 31.7855 9.3908 31.7855 9.39237 31.7862C9.39237 31.7862 9.3908 31.7862 9.38923 31.7862C9.38923 31.7862 9.38923 31.7862 9.38923 31.7855H9.3908ZM20.6845 28.7471C20.6798 28.7348 20.7081 28.7131 20.7458 28.7189C20.7427 28.7312 20.7443 28.742 20.749 28.7507C20.7301 28.7478 20.7097 28.7464 20.6845 28.7471Z" fill="#7162F0"/>
<path d="M28.9028 12.105C29.0277 12.0625 29.0108 11.8605 28.9629 11.7466C28.9768 11.5157 28.9552 11.2773 28.9028 11.0312C28.8904 10.9036 28.8194 10.7927 28.7824 10.6728C28.7701 10.6333 28.733 10.5923 28.7222 10.5528C28.659 10.3189 28.7315 10.2703 28.7222 10.1351C28.7222 10.1153 28.7222 10.0956 28.7222 10.0758C28.7207 10.0363 28.7238 9.99686 28.7222 9.95585C28.5988 9.96496 28.5664 9.91484 28.6621 9.83586C28.659 9.79333 28.6713 9.74017 28.6621 9.65663C28.7485 9.34375 28.3859 9.17971 28.5417 9.53664C28.4738 9.41817 28.3751 9.36957 28.2393 9.35742C28.2192 9.29514 28.0649 9.18426 28.1189 9.11895C28.2192 9.00048 28.2501 9.24198 28.2686 9.23894C28.3103 9.18426 28.4198 9.17059 28.4538 9.12199C28.5278 9.01263 28.2455 8.56001 28.2393 8.88049C28.0572 8.74075 28.2393 8.44002 27.8767 8.34433C27.8952 8.33825 27.9214 8.35192 27.9369 8.34433C28.0294 8.30332 28.1359 8.19852 28.1791 8.10587C28.0402 8.04815 27.9291 8.20915 27.8767 8.22434C27.8181 8.24257 27.7054 8.21219 27.6344 8.22434C27.6344 8.21978 27.5681 8.18789 27.6252 8.13473C27.7316 8.03448 27.9508 8.05574 27.9369 7.8674L27.6653 8.04511C27.4061 7.77475 27.6992 7.82943 27.8767 7.68818C27.8937 7.67451 27.9276 7.64261 27.9369 7.62894C27.8983 7.27808 27.7903 7.65628 27.7239 7.68818C27.69 7.66691 27.6607 7.60768 27.6329 7.56971C27.619 7.54996 27.5774 7.53173 27.5727 7.51047C27.7887 7.6897 27.8304 7.37985 27.852 7.20821L27.8751 7.09278C27.8721 7.07304 27.8782 7.05177 27.8751 7.03355C27.6545 6.89229 27.6576 6.54295 27.4848 6.37436C27.4015 6.29234 27.1114 6.1526 26.9957 6.0797L27.1484 5.9597C27.1129 5.94907 26.9185 5.90047 26.9062 5.90047C26.8938 5.90047 26.6763 5.95515 26.6685 5.96426C26.6022 6.02805 26.8105 6.27867 26.4217 6.19817C26.414 6.12678 26.5235 6.10855 26.542 6.0797C26.6161 5.9673 26.6485 5.85338 26.6624 5.72276C26.4232 5.66808 26.5004 5.82452 26.4803 5.84123C26.4726 5.84731 26.4417 5.83971 26.4201 5.84123L26.2982 5.60277C26.2813 5.62403 26.2566 5.64226 26.2381 5.66201C26.1995 5.70302 26.1547 5.73947 26.1177 5.782C26.0977 5.77896 26.076 5.78655 26.0575 5.782C25.698 5.70453 25.8986 5.73339 25.7551 5.60277C25.7119 5.56328 25.6286 5.51923 25.573 5.48278C25.2413 5.47063 25.6517 5.82301 25.6332 5.83971C25.4944 5.8063 25.2876 5.9916 25.2706 6.13893C25.0037 6.1283 25.1503 6.17994 25.0284 6.25892C24.7599 6.16931 24.7013 6.09792 24.8525 6.0478C24.8571 6.03413 24.8617 6.01894 24.8648 6.00527C24.9312 6.08881 25.0623 6.13741 25.1472 5.9916C25.1132 5.92629 24.9713 5.82908 24.8895 5.82756C24.888 5.68327 24.8139 5.58606 24.6025 5.66353C24.655 5.64074 24.655 5.621 24.6025 5.60429C24.547 5.60429 24.493 5.54505 24.4822 5.54505C24.4436 5.54505 24.3973 5.5405 24.3618 5.54505C24.1103 5.57999 24.2044 5.75162 24.1797 5.78352C24.1736 5.79111 24.0548 5.72884 23.9992 5.72428C23.9406 5.71972 23.8017 5.71213 23.757 5.72428C23.5811 5.70302 23.5857 5.55569 23.5749 5.54505H23.3928C23.47 5.84883 23.3141 5.82301 23.0904 5.78352C23.0812 5.78048 23.0734 5.77896 23.0657 5.77744C22.9839 5.75162 22.8605 5.67416 22.7278 5.72428C22.6877 5.81389 22.7865 5.88224 22.788 5.90351C22.7895 5.92325 22.7865 5.943 22.788 5.96274C22.8019 6.09792 22.7772 6.18146 22.6368 6.14349C22.5874 6.12982 22.5674 5.88832 22.3637 5.96274L22.5457 6.14197C22.5828 6.19969 22.4069 6.24829 22.3637 6.26044C22.3236 6.27107 22.1338 6.31968 22.1214 6.31968C22.0674 6.31968 21.8159 6.17842 21.7588 6.14045C21.7264 6.11919 21.711 6.01438 21.6385 6.02046L21.5783 6.25892C21.5629 5.97186 21.1293 6.22399 21.2142 5.90199L21.063 6.02198C21.0336 6.02198 20.9935 5.93085 20.9719 5.90199C20.955 5.80022 20.9904 5.69998 20.8516 5.66353H20.7914C20.9457 5.36127 20.9457 5.26102 20.8516 4.94814C20.8331 4.88738 20.8253 4.82359 20.7914 4.76891C20.7976 4.74765 20.8346 4.70816 20.8516 4.64892C20.8577 4.63069 20.8469 4.60791 20.8516 4.58968L20.7312 4.41046C20.8346 4.45906 20.8439 4.38464 20.8516 4.29047C20.8485 4.27072 20.8562 4.24794 20.8516 4.23123C20.8979 4.10972 20.8855 3.81354 20.7312 3.93353C20.7189 3.92746 20.6926 3.93505 20.671 3.93353C20.7034 3.8105 20.6942 3.65862 20.8531 3.69507C20.8763 3.74671 20.8963 3.74671 20.9133 3.69507C20.9164 3.55685 20.9133 3.41712 20.9133 3.27738C20.9133 3.25764 20.9133 3.23789 20.9133 3.21815C20.9688 2.89615 20.9688 2.57718 20.9133 2.2643C20.8778 2.18835 20.8685 2.11848 20.8531 2.08507C20.8115 1.99698 20.6741 1.94381 20.671 1.72662C20.6695 1.52613 20.8454 1.13881 20.4581 1.60663C20.3995 1.40462 20.3439 1.52005 20.1866 1.54739C20.148 1.55347 20.0971 1.53828 20.0662 1.54739C20.0292 1.36816 20.1542 1.43499 20.3085 1.4274C20.3254 1.36361 20.2498 1.28614 20.2483 1.24817C20.2483 1.21324 20.3825 1.17223 20.2236 1.00515C20.0971 0.871493 19.952 0.895795 19.8054 0.832003C19.7653 0.813776 19.7638 0.628474 19.5941 0.725682C19.5817 0.733276 19.4197 0.924654 19.4012 0.950475C19.3904 0.965663 19.3456 0.977814 19.341 1.00971C19.2438 0.836559 18.8735 0.83504 18.6745 0.830484C18.6667 0.79555 18.6868 0.731757 18.6745 0.710493C18.6343 0.640625 18.5618 0.652776 18.4924 0.649738C18.4692 0.532786 18.6359 0.649738 18.6127 0.531267C18.5124 0.532786 18.4106 0.525191 18.3103 0.531267C18.2702 0.532786 18.227 0.525191 18.19 0.531267C18.1653 0.534304 17.9585 0.585946 17.9477 0.590503C17.9523 0.555569 18.0418 0.444691 18.0079 0.412795C17.9894 0.394568 17.5913 0.254832 17.5234 0.233568C17.4154 0.200153 17.3737 0.128766 17.1994 0.181927C17.042 0.230531 17.1454 0.297361 17.1608 0.35204C17.1654 0.370267 17.1577 0.39305 17.1608 0.411276L16.9186 0.113578C16.8985 0.115097 16.8769 0.11054 16.8584 0.113578C16.8368 0.118134 16.8106 0.107502 16.7982 0.113578C16.7874 0.119653 16.6223 0.280653 16.6161 0.292804C16.5652 0.318625 16.5637 0.33837 16.6161 0.35204C16.6007 0.39305 16.6269 0.476587 16.6161 0.531267H16.5575C16.5884 0.368748 16.5143 0.342927 16.3754 0.292804C16.539 0.0907946 16.3801 0.0467474 15.8987 0.162181L15.2768 0.00270021C15.2383 0.00270021 15.192 -0.00337526 15.1565 0.00270021C15.0593 0.0178889 14.8525 0.0771248 14.9142 0.181927C14.5177 0.175851 14.6242 0.181927 14.3094 0.241163C14.1952 0.262427 14.061 0.283691 13.9468 0.300399C13.7617 0.327738 13.5364 0.333814 13.342 0.359634C13.2509 0.371785 13.1815 0.415833 13.1599 0.41887C12.9917 0.441653 12.7865 0.399125 12.6152 0.41887C12.5751 0.423427 12.5304 0.411276 12.4949 0.41887C12.4856 0.420389 12.4625 0.465955 12.4347 0.478106C12.2958 0.541899 12.2141 0.517597 12.2526 0.716569C12.0459 0.698342 11.9734 0.745427 12.0104 0.537342C11.8113 0.45988 11.6879 0.771248 11.89 0.804663L11.7373 1.01427C11.5583 0.686191 10.9596 1.16464 11.7064 1.07502C11.7249 1.18742 11.5583 1.0978 11.5244 1.19349C11.296 1.23906 11.3315 1.26792 11.1 1.19349C11.0892 1.19046 11.0831 1.12818 11.0229 1.14185C10.597 1.23602 10.7914 1.46689 10.7313 1.54891C10.7158 1.57017 10.6325 1.5398 10.6156 1.55195C10.5353 1.60207 10.4258 1.82838 10.4952 1.84965C10.5384 1.86331 10.6387 1.82231 10.6696 1.85876C10.7606 1.96356 10.5585 1.93166 10.918 2.08811C10.9859 2.11848 11.2204 2.19595 11.2189 2.23696C11.1679 2.30075 11.1402 2.32505 11.0723 2.32657C11.0615 2.32657 11.0507 2.32657 11.0383 2.32657C11.0244 2.32657 10.9905 2.26278 10.955 2.26278C10.8933 2.26278 10.9087 2.52554 10.6757 2.38581V2.68502L10.9781 2.65616L10.6742 2.92349C10.6186 2.91437 10.5507 2.92956 10.4921 2.92349V2.98272C10.8532 3.05107 10.4921 3.42319 10.9149 3.22118C10.9596 3.40193 10.8146 3.31535 10.7374 3.37155C10.6094 3.4642 10.6865 3.53407 10.7945 3.57964C10.7822 3.57964 10.6773 3.66925 10.6125 3.63887C10.6156 3.65102 10.6156 3.68596 10.6125 3.69811C10.4859 3.86367 10.6341 3.9472 10.7945 3.93657C10.7868 3.94265 10.7776 4.02011 10.7344 4.05656C10.6834 4.09909 10.648 4.14769 10.614 4.17655C10.6109 4.23579 10.6186 4.29654 10.614 4.35578C10.6109 4.39527 10.6171 4.43628 10.614 4.47577C10.9226 4.56538 10.7205 4.63221 10.7344 4.89346C10.7004 4.91776 10.6819 4.94814 10.6742 4.95269C10.4566 5.10762 10.2252 5.2185 10.0076 5.37038C9.98757 5.36886 9.96751 5.37038 9.94745 5.37038C9.92739 5.37038 9.90733 5.37038 9.88727 5.37038C10.057 5.14103 9.84407 5.20938 9.8271 5.19116C9.74686 5.14711 9.74378 5.16837 9.76692 5.25039L9.52468 5.1304C9.50462 5.13192 9.48147 5.12585 9.4645 5.1304C9.43518 5.13648 9.41358 5.1623 9.40433 5.18964C9.54011 5.35823 9.62651 5.46 9.34415 5.4281C8.89206 5.30963 9.25774 5.51771 9.07104 5.54657C8.9831 5.51316 8.89361 5.49797 8.79948 5.48734C8.73931 5.41443 8.52175 5.21394 8.45386 5.19571C8.23322 5.138 8.29802 5.47367 7.89222 5.24887C7.75335 5.17141 7.81662 5.24735 7.77187 5.24887C7.71787 5.29596 7.71787 5.3552 7.77187 5.4281C7.74873 5.41595 7.73021 5.37798 7.71169 5.36886C7.7333 5.27773 7.5142 5.19116 7.52962 5.30963C7.49259 5.30963 7.43396 5.30203 7.40927 5.30963C7.18709 5.38405 7.14697 5.4038 6.92015 5.42354C6.90472 5.42354 6.88621 5.42354 6.86306 5.4281C6.65939 5.44481 6.45727 5.4281 6.25668 5.48885L6.3184 5.60733C6.12707 5.65137 5.89408 5.63922 5.71201 5.66808C5.69195 5.67112 5.67035 5.66504 5.65184 5.66808C5.49137 5.6939 5.31856 5.70757 5.22752 5.84731C5.13494 5.98856 5.20592 5.93085 5.22752 5.9673L5.15192 5.943C5.155 5.70757 5.03311 5.82604 4.9251 5.9673C4.84487 5.96122 4.76309 5.92325 4.68286 5.90806C4.59645 5.78048 4.45141 5.79567 4.24311 5.95515L4.07647 5.90806C4.06413 5.90351 4.03636 5.90806 4.0163 5.90806C3.99624 5.90806 3.96384 5.90351 3.95612 5.90806C3.9052 5.90047 3.80491 5.90047 3.6537 5.90806C3.48089 5.95211 3.22476 6.00679 3.04886 6.02805L2.98868 6.20728C2.84982 6.18753 2.80353 6.20272 2.68626 6.20728C2.53042 6.21336 2.60757 6.10552 2.44402 6.26652C2.4147 6.29537 2.38076 6.34094 2.3823 6.38499C2.28046 6.41385 2.35915 6.28778 2.28509 6.26652C2.16474 6.23158 1.85306 6.4427 1.72962 6.48979C1.67408 6.51105 1.5815 6.44726 1.53212 6.47764C1.48275 6.50802 1.48429 6.68421 1.29297 6.62497C1.28371 6.6918 1.3516 6.68117 1.35314 6.68421C1.37166 6.71154 1.42412 6.78901 1.41332 6.80268C1.10472 6.80268 1.09392 7.06392 1.35314 7.10189C1.36086 7.13683 1.3408 7.1991 1.35314 7.22188L1.17107 7.28112C1.18804 7.24467 1.24668 7.17632 1.23125 7.16265C0.965857 7.31454 1.08621 6.99861 0.806932 7.04266C0.806932 7.04721 0.756014 7.07759 0.746757 7.10189C0.657265 7.1262 0.697382 7.2067 0.867108 7.34036V7.39959C0.936541 7.43453 1.04301 7.61072 1.16953 7.63805C1.09392 7.67451 0.950428 7.65476 0.847049 7.75501C0.785331 7.81576 0.813104 7.9555 0.685038 7.99499C0.46748 8.04967 0.325527 8.25016 0.431992 8.45065C0.377988 8.49925 0.320899 8.56457 0.260723 8.64962C0.293125 8.70582 0.30084 8.76961 0.320899 8.82885C0.288496 8.86986 0.223692 8.90783 0.200547 8.94884C0.131114 9.06731 0.106427 9.1068 0.200547 9.24654C0.229864 9.29514 0.249922 9.29818 0.260723 9.24654C0.314727 9.24958 0.53537 9.34071 0.44125 9.42576C0.415019 9.44855 0.273067 9.34982 0.260723 9.36501C0.253008 9.37412 0.268438 9.48044 0.228321 9.54272C0.178946 9.61866 0.0308214 9.55942 0.0786533 9.72346L0.319356 9.60499L0.138829 9.87231L0.379531 9.90269C0.21752 9.93155 0.115684 10.05 0.0771103 10.2611C0.0431651 10.2733 0.0354503 10.2991 0.0169347 10.3204C-0.0478698 10.5907 0.0863681 10.5998 0.199004 10.7381C0.126485 10.773 0.14963 10.9036 0.138829 10.9173C0.129571 10.9279 0.0277355 10.8945 0.0261925 10.9431C0.0231066 11.095 0.0616807 11.212 0.199004 11.215C0.219063 11.215 0.239121 11.215 0.25918 11.215V11.2742C0.00150509 11.578 0.10797 11.5021 0.199004 11.8104C0.226778 11.9076 0.168145 12.0534 0.319356 12.1385C0.20209 12.26 0.090997 12.1218 0.0786533 12.3465C0.0678525 12.5501 0.203633 12.6275 0.256094 12.8007C0.344043 13.0923 0.112599 13.5525 0.62332 13.0619C0.638749 13.0665 0.663437 13.0619 0.683495 13.0619C0.697382 13.0619 0.720526 13.0452 0.742128 13.0285C0.762186 13.0194 0.782245 13.0118 0.802303 13.0057C0.686581 13.2427 0.871737 13.188 0.911854 13.2518C0.964314 13.3338 0.864022 13.4887 0.984373 13.4781C1.03838 13.3505 0.987459 13.1151 0.924197 13.0012L1.04455 12.9419C1.05226 12.9571 1.08929 12.9754 1.10472 13.0012L1.18187 13.3672C1.28679 13.5601 1.34234 13.3779 1.40715 13.5981C1.43029 13.6756 1.4164 13.6816 1.46732 13.7773C1.62625 13.949 1.7682 14.0082 1.89164 13.9566V13.8973C1.89781 13.8791 1.90244 13.8624 1.90244 13.8457C1.91478 13.8548 1.93021 13.8654 1.95335 13.873C1.9657 13.8776 1.98884 13.8609 2.01199 13.8366C2.03513 13.8366 2.11999 13.791 2.13234 13.7773C2.22337 13.7576 2.30669 13.8244 2.37458 13.8366C2.3931 13.8396 2.4147 13.8366 2.43476 13.8366C2.4687 13.7469 2.50882 13.7469 2.55511 13.8366C2.56282 13.8578 2.60911 13.8776 2.61529 13.8958C2.63843 13.7363 2.7773 13.7135 2.85753 13.5981C2.87913 13.6011 2.90228 13.592 2.91771 13.5981C2.98097 13.6194 3.04732 13.5616 3.04577 13.7151C3.08126 13.7226 3.09515 13.6573 3.09978 13.6589C3.11983 13.6604 3.14144 13.6543 3.15995 13.6589C3.24636 13.6771 3.31888 13.8062 3.2803 13.8973C3.30036 13.8973 3.32042 13.8973 3.34048 13.8973C3.41917 13.8411 3.6105 13.7925 3.70307 13.7773C3.76942 13.7682 3.83731 13.7242 3.90675 13.7333C4.12893 13.7637 4.12122 13.9763 4.24928 13.5389H4.30946C4.27243 13.5708 4.24774 13.7211 4.27243 13.7485C4.30792 13.7864 4.9143 13.7864 4.97602 13.7773C4.99453 13.7834 5.01922 13.7712 5.0362 13.7773C5.101 13.7712 5.14112 13.7515 5.15655 13.7181C5.28307 13.6968 5.39416 13.6847 5.52069 13.7181L5.45897 13.5996L5.76293 13.5389C5.83854 13.551 5.891 13.5859 5.945 13.5981C5.96352 13.6027 5.98512 13.5951 6.00518 13.5981C6.01289 13.5981 6.03604 13.6482 6.09158 13.6513C6.32303 13.6649 6.40172 13.4857 6.5807 13.8366C6.77512 13.4705 6.87541 13.633 7.08062 13.5601C7.15314 13.5343 7.16549 13.4249 7.18709 13.4189C7.44476 13.3536 7.28121 13.5495 7.27812 13.7181C7.31824 13.7181 7.45402 13.551 7.45865 13.5389L7.69935 13.5085L7.63918 13.6573H7.88142L7.8197 13.7758H8.00177C7.88759 13.4356 7.93697 13.5343 8.18384 13.3596C8.42917 13.4037 8.43843 13.469 8.66833 13.4189C8.66988 13.3991 8.66525 13.3794 8.66833 13.3596V13.4189C8.818 13.387 8.94298 13.3171 9.0911 13.3004L9.03093 13.4781C9.22226 13.39 9.25466 13.5708 9.39353 13.4781C9.49845 13.4082 9.5077 13.3171 9.52159 13.3065C9.53085 13.2989 9.67897 13.3566 9.75612 13.3596C10.0015 13.3687 10.2406 13.3581 10.4829 13.3596C10.5631 13.3596 10.6449 13.3566 10.7251 13.3596C10.7313 13.3612 10.7374 13.3627 10.7421 13.3642C10.7837 13.3794 10.8547 13.4356 10.9288 13.4234C10.9612 13.4174 10.9859 13.2275 11.1494 13.3004C11.1417 13.3171 11.1571 13.3429 11.1494 13.3596C11.1247 13.4158 11.0707 13.4629 11.0291 13.5085C11.1479 13.6832 11.2034 13.5009 11.2698 13.3596C11.2898 13.3596 11.3114 13.3627 11.3299 13.3596C11.4302 13.4174 11.4765 13.5267 11.5568 13.6011C11.6478 13.6862 11.6478 13.5586 11.7543 13.7773C11.782 13.835 11.816 13.8897 11.816 13.9566C11.8607 13.9672 11.8669 13.8973 11.8762 13.8973C11.9163 13.8928 11.9579 13.8973 11.9965 13.8973C11.9363 14.1464 12.1446 14.0705 12.2264 14.1449C12.2372 14.1555 12.1616 14.3059 12.2989 14.3135C12.2835 14.2315 12.3961 13.9945 12.3591 13.9566C12.3437 13.9398 11.9302 14.1327 12.1169 13.7773C12.1277 13.7697 12.1709 13.7272 12.177 13.7181C12.3668 13.6573 12.2604 13.8821 12.3282 13.8973C12.4887 13.9322 12.4717 13.8654 12.4795 13.7181C12.6569 13.7394 12.5797 13.6983 12.5998 13.5981C12.6075 13.5647 12.5967 13.5176 12.5998 13.4781C12.7865 13.5328 12.6893 13.3429 12.7248 13.3065C12.751 13.2791 12.8991 13.305 12.9624 13.2989C12.9825 13.2989 13.0025 13.2989 13.0226 13.2989C13.1028 13.3004 13.1861 13.2913 13.2648 13.2989H13.4068C13.3836 13.3065 13.3404 13.3065 13.2648 13.2989C13.2864 13.3004 13.5456 13.352 13.5672 13.3581C13.6876 13.4872 13.5364 13.5662 13.5086 13.6907C13.4484 13.9672 13.5904 13.8685 13.6274 13.8943C13.6536 13.9125 13.6752 13.9991 13.7185 14.0127C13.8604 14.0614 13.8434 13.8791 13.6876 13.835C13.7431 13.548 13.7771 13.6999 13.8079 13.6558H13.8681C13.8959 13.8578 13.9422 13.7409 13.99 13.7758C14.0301 13.8062 14.0687 13.9566 14.1721 13.8943C14.1813 13.8882 14.1073 13.8548 14.2323 13.7166C14.4575 13.8047 14.726 13.8669 14.7769 13.5966L14.8093 13.5389C14.9559 13.5024 15.084 13.7044 15.1395 13.835C15.2228 14.031 15.1735 13.914 15.3818 14.0143C15.4512 14.0477 15.5006 14.1692 15.624 14.1327C15.371 13.8973 15.641 13.832 15.6734 13.6725C15.695 13.5692 15.5623 13.4249 15.6842 13.3581C15.7258 13.3733 15.7644 13.4006 15.8045 13.4174C15.9187 13.8517 16.1301 13.3839 16.1687 13.3581C16.3862 13.2214 16.1455 13.5146 16.3183 13.4751C16.394 13.3277 16.7087 13.349 16.7735 13.2974C16.8306 13.3232 16.8183 13.3779 16.8337 13.4174C16.9031 13.5799 17.0003 13.5951 17.0065 13.6072C17.042 13.6892 16.8892 13.7682 17.0158 13.835C17.2596 13.9626 17.1685 13.8487 17.1978 13.7758C17.2889 13.5495 17.3382 13.6315 17.3799 13.5966C17.3722 13.6877 17.4108 13.7515 17.5003 13.7758C17.6731 13.8214 17.6098 13.6664 17.6206 13.6558C17.6684 13.6133 17.7764 13.6163 17.8027 13.5966C17.8953 13.5237 17.886 13.4325 17.9431 13.3763C18.2193 13.0954 18.2856 13.3885 18.4399 13.4158C18.4831 13.4234 18.4785 13.3308 18.5294 13.2989L18.7408 13.3566L18.6513 13.5966C18.8133 13.5556 18.7701 13.2867 18.946 13.267C19.25 13.232 19.1204 13.469 19.1358 13.4766C19.324 13.5799 19.4012 13.3596 19.4182 13.3551C19.611 13.3201 19.7977 13.4067 19.7422 13.6178C19.7376 13.633 19.4197 13.7454 19.7422 13.7758C19.7545 13.8502 19.7376 13.8366 19.6635 13.835C19.4644 13.996 19.9196 14.1996 19.9844 14.1327C19.9567 13.9641 20.077 13.8821 20.0786 13.7166C20.0786 13.5981 19.9736 13.5465 20.1665 13.6558C20.1788 13.75 20.1619 13.8715 20.2868 13.8943C20.2946 13.7697 20.3038 13.6361 20.1665 13.5966C20.1912 13.3824 20.617 13.3536 20.8331 13.2989C20.8516 13.2943 20.8747 13.3034 20.8932 13.2989C20.9534 13.4599 21.012 13.5389 21.1355 13.6573C21.1864 13.7059 21.37 13.8457 21.4379 13.8958C21.4564 13.9095 21.5336 13.9049 21.5829 13.949C21.5937 13.9687 21.6061 13.9915 21.62 14.0143C21.6632 14.2558 21.566 14.3591 21.802 14.312C21.7696 14.1707 21.7912 14.0735 21.6801 13.955C21.7203 13.9505 21.7619 13.9581 21.8005 13.955C21.8406 13.9505 21.8823 13.9581 21.9208 13.955L21.8607 13.6573C21.8699 13.6315 21.9178 13.6087 21.9208 13.5981C21.9594 13.6042 22.0073 13.5905 22.0427 13.5981C22.0721 13.6042 22.0952 13.63 22.1029 13.6573C22.0659 13.7029 22.0582 13.7788 22.0427 13.8366C22.0304 13.8836 21.8977 13.9322 22.1029 14.0158C22.1137 13.9626 22.0875 13.8745 22.1029 13.8366C22.1307 13.7682 22.1801 13.7211 22.2233 13.5981C22.2294 13.5799 22.2171 13.5571 22.2233 13.5389C22.2649 13.5541 22.3035 13.5859 22.3436 13.5981C22.4408 13.6285 22.4825 13.6437 22.5859 13.5981C22.5859 13.6178 22.6738 13.7075 22.6507 13.7773C22.6784 13.7773 22.7031 13.7166 22.7062 13.7181C22.9099 13.7591 22.9423 14.031 23.0086 14.1358C23.112 14.2998 23.0981 14.2102 23.1907 14.4335C23.1938 14.4456 23.1953 14.4578 23.1984 14.4684C23.1892 14.5504 23.0827 14.7251 23.0704 14.7312C23.0333 14.7464 22.9145 14.7114 22.8883 14.7312C22.8759 14.7403 22.9793 14.9317 22.8821 15.0213C22.8651 15.038 22.5149 14.9712 22.5257 15.2658C22.4794 15.3281 22.6121 15.4967 22.2233 15.5043C22.1569 15.4906 22.0566 15.5073 21.981 15.5043C21.9131 15.3023 21.5459 15.521 21.4348 15.4435C21.5258 15.3509 21.478 15.2597 21.3762 15.3266C21.37 15.3311 21.4055 15.4116 21.2929 15.4557C21.1216 15.5225 20.8315 15.5392 20.6479 15.5043L20.617 15.6835C20.4319 15.3448 20.4041 15.5043 20.131 15.5119C19.9505 15.5164 19.7329 15.3357 19.8594 15.6835C19.7576 15.682 19.8409 15.521 19.557 15.5043C19.3549 15.4936 19.3102 15.4739 19.2546 15.6835C19.2191 15.6212 19.142 15.4557 19.1343 15.445C18.98 15.2567 18.8102 15.3281 18.6498 15.3251C18.4091 15.3205 18.1144 15.3904 18.0187 15.3873C17.8521 15.3797 17.6345 15.1139 17.4385 15.3858C17.4185 15.3828 17.3984 15.3888 17.3784 15.3858C17.3382 15.3737 17.3012 15.3691 17.2657 15.3676C17.187 15.3539 17.1022 15.3372 17.0158 15.3266C16.9155 15.3129 16.8214 15.2506 16.7133 15.2673C16.8507 15.4845 16.6902 15.5255 16.5914 15.6835C16.5745 15.7108 16.5189 15.7868 16.5313 15.8005C16.63 15.8354 16.7411 15.8749 16.8337 15.922C16.7781 16.0556 16.8167 16.2045 16.7735 16.3397L16.593 16.2804C16.5745 16.3047 16.6377 16.4642 16.6532 16.5189C16.6532 16.5219 16.6146 16.4976 16.6532 16.5781C16.6748 16.6237 16.8291 16.6191 16.7751 16.7862C16.7658 16.8166 16.6485 16.812 16.6501 16.847C16.6532 16.9472 16.8121 17.0383 16.7735 17.175C16.755 17.2328 16.7859 17.3436 16.7735 17.4135C16.7411 17.4743 16.7272 17.5259 16.7133 17.5927C16.5513 17.6444 16.3569 17.6915 16.4109 17.8904C16.3816 17.8904 16.3261 17.939 16.2906 17.9497C16.2026 17.6261 16.0576 17.9922 16.0113 18.0059C15.8231 18.0636 15.7505 17.8175 15.5638 18.1289C15.4697 18.0347 15.4311 18.1334 15.3216 17.8904C15.2954 17.8312 15.2429 17.7871 15.2614 17.7112L15.6225 17.7416L15.1395 17.652L15.1997 18.0089C15.1766 18.0256 15.1596 18.0545 15.1395 18.0681C15.1133 18.0879 14.9775 18.018 15.0176 18.1881C15.0099 18.1851 14.9204 18.2944 14.9081 18.1593C14.905 18.1198 15.0176 17.9193 14.8649 17.8889C14.6566 17.8479 14.6242 18.0742 14.5933 18.1866C14.5439 18.1744 14.4112 18.1805 14.3511 18.1866C14.331 18.1881 14.3094 18.1836 14.2909 18.1866C14.26 18.176 14.2323 18.1653 14.206 18.1577C13.9977 18.0681 14.115 17.9284 14.098 17.898C14.0888 17.8813 13.7771 17.7082 13.7462 17.7993L13.9885 18.1274C13.9283 18.1304 13.8681 18.1243 13.8064 18.1274C13.7678 18.1289 13.7215 18.1319 13.686 18.1274V18.0681C13.5024 17.7644 13.7462 17.7021 13.7493 17.6793C13.7771 17.4849 13.4639 17.4256 13.6259 17.1735C13.2988 17.1993 13.5719 17.5699 13.5657 17.6793C13.2509 17.7552 13.2694 17.4788 13.2941 17.2312H12.9609C12.8976 17.0626 13.0565 17.1355 13.0812 17.1128C13.1614 17.0383 13.1784 16.9457 13.2031 16.8454C13.038 16.7255 13.0797 16.9335 13.0812 17.0535C13.0272 17.0156 12.9578 17.0156 12.8991 16.9943C12.8791 16.9867 12.8606 16.9457 12.839 16.9351C12.8945 16.7422 12.8837 16.5918 12.839 16.3989C13.1445 16.3776 12.9084 16.5903 13.1414 16.5781C13.1337 16.4384 13.1584 16.2926 13.2617 16.1893C13.1784 16.1756 13.0318 16.1042 12.9593 16.0997C12.9223 16.0982 12.8683 16.0936 12.839 16.0997C12.5196 16.1027 12.8745 15.8217 12.893 15.7594C12.9254 15.6486 12.8297 15.5134 12.839 15.5043C12.8513 15.4921 13.1013 15.4876 13.1414 15.3539C12.9562 15.0972 12.8822 15.4967 12.8096 15.5012C12.7788 15.5028 12.7047 15.3402 12.5983 15.3843C12.7464 15.6303 12.5535 15.5423 12.5381 15.562C12.3653 15.6167 12.3745 15.4693 12.2712 15.4314C12.1122 15.3752 11.745 15.4116 11.6293 15.562C11.2744 15.559 10.8177 15.5362 10.4782 15.562C10.4227 15.4299 10.1095 15.4754 9.98448 15.4754C9.66509 15.4769 9.46296 15.4177 9.23614 15.404C9.12351 15.3964 9.00778 15.6395 8.93526 15.3812C8.8612 15.3478 8.86275 15.4329 8.84423 15.442C8.79177 15.4724 8.70536 15.5514 8.66216 15.562L8.6313 15.2643H8.54181V15.562C8.38288 15.5392 8.30882 15.3964 8.27025 15.3964C8.23785 15.3964 8.07892 15.5666 7.99714 15.5012C7.98171 15.4891 8.01103 15.401 7.99714 15.3828C7.89994 15.2415 7.89531 15.2157 7.7549 15.3235C7.60369 15.439 7.66386 15.4845 7.3923 15.5028V15.562C7.33984 15.5635 7.28892 15.565 7.27195 15.6212C6.86769 15.5909 6.65014 15.5969 6.24279 15.6212C6.21811 15.6167 6.19496 15.6152 6.17336 15.6152C6.1101 15.603 6.04221 15.5757 5.97895 15.5802L5.33399 15.7412C5.12106 15.7245 4.6628 15.641 4.54708 15.8005C4.4869 15.8005 4.42364 15.7944 4.36501 15.8005C4.34958 15.7974 4.3326 15.7944 4.31409 15.7929C4.26317 15.7762 4.20454 15.7397 4.18294 15.7412V15.682C4.1243 15.6881 4.06104 15.6759 4.00087 15.682C3.92372 15.6577 3.84348 15.6774 3.75862 15.7412C3.65987 15.7458 3.55495 15.7458 3.4562 15.7412C3.34356 15.726 3.28339 15.7655 3.27413 15.8612C3.23556 15.8749 3.13835 15.8354 3.09978 15.8703C3.072 15.8961 3.09978 15.9721 3.09206 15.9812C2.69089 15.8749 2.57363 15.9448 2.73872 16.1908C2.72638 16.2136 2.71558 16.2349 2.70632 16.2561C2.71712 16.0313 2.58597 15.9387 2.48722 16.3397C2.44865 16.3867 2.3499 16.5918 2.28972 16.6191C2.18943 16.6632 2.10765 16.6055 2.00273 16.6981C1.9981 16.8728 2.16937 17.0262 2.1848 17.175C2.20331 17.3619 2.26503 17.9132 2.24497 18.0696C2.18943 18.5132 2.02742 18.4311 2.18788 18.9795C2.20331 19.0296 2.29281 19.0205 2.30361 19.066C2.34527 19.2346 2.35915 19.7131 2.30361 19.8771C2.27738 19.9561 2.15548 19.8817 2.1848 19.9773C2.34218 19.953 2.28355 20.1004 2.36533 20.2173C2.37767 20.234 2.36995 20.2766 2.4255 20.2766C2.12771 20.5743 2.53197 20.5074 2.54585 20.7535C2.39156 20.7292 2.27583 21.0451 2.25269 21.159C2.23572 21.241 2.30206 21.279 2.30361 21.2896C2.31286 21.4901 2.3715 21.563 2.18326 21.7073C2.18634 21.7271 2.18171 21.7468 2.18326 21.7666C2.23726 21.8213 2.25269 21.8699 2.24343 21.9458C2.24343 21.9534 2.23417 21.999 2.24343 22.0658C2.26812 22.1676 2.26812 22.2663 2.24343 22.3635C2.25423 22.3939 2.28509 22.4592 2.30361 22.4835C2.28818 22.523 2.29744 22.5488 2.31749 22.5609C2.19251 22.6187 2.18788 22.8116 2.30361 23.1381C2.30052 23.2171 2.30361 23.2976 2.30361 23.3766C2.39618 23.8231 2.53197 24.253 2.71249 24.6661C2.91771 24.6357 2.964 24.6433 3.01337 24.8575C2.90073 25.1855 3.11058 25.2676 3.39603 25.3344C2.94394 25.4984 3.36517 25.7749 3.6861 25.7247C3.93606 25.6777 4.15825 25.7141 4.35421 25.8356C4.5409 25.8235 4.74303 25.8584 4.95905 25.9374C4.99454 25.7354 5.07786 25.6564 5.21055 25.702C5.35405 25.7551 5.62252 25.7931 5.75522 25.702C5.80768 25.6792 5.80768 25.6594 5.75522 25.6427C5.9666 25.667 6.1533 25.7627 6.26748 25.7658C6.44184 25.7703 6.69642 25.6458 6.90627 25.7035C7.00656 25.9055 7.1948 25.8766 7.39076 25.8827C7.525 25.8857 7.47716 25.9298 7.69318 25.8827C7.76724 26.0999 7.94005 25.9404 8.05578 25.9419C8.11595 25.9419 8.17767 25.9419 8.23785 25.9419C8.30728 25.9192 8.38751 25.9192 8.48009 25.9419C8.50015 25.9419 8.52021 25.9419 8.54027 25.9419L8.78251 25.8827C8.85194 25.8523 8.91212 25.8523 8.96458 25.8827C9.03247 25.8797 9.14974 25.8706 9.20683 25.8827C9.29786 25.9602 9.3781 25.9207 9.44907 25.7627C9.46604 25.7688 9.49073 25.7566 9.50925 25.7627C9.59257 25.743 9.6728 25.743 9.75149 25.7627C9.75766 25.7642 9.76229 25.8614 9.81167 25.8827C9.85178 25.9495 9.92893 25.9161 9.99374 25.8827C10.074 25.8782 10.1557 25.8827 10.236 25.8827C10.2884 25.8599 10.2884 25.8402 10.236 25.8235C10.2422 25.8235 10.2314 25.7718 10.3563 25.7642C10.3671 25.8265 10.4073 25.866 10.4767 25.8842C10.5276 25.9389 10.5831 25.9875 10.6588 26.0042C10.6773 26.0073 10.7004 26.0042 10.7189 26.0042C10.8532 25.9495 10.9133 25.8903 10.901 25.825C10.9211 25.825 10.9457 25.8204 10.9612 25.825C11.026 25.8463 11.0769 25.8523 11.1078 25.8432C11.1741 25.8857 11.3022 25.8812 11.3855 25.825C11.4256 25.8265 11.4657 25.825 11.5058 25.825C11.6401 25.863 11.816 25.9009 11.9302 25.825C12.0058 25.7992 12.0937 25.787 12.1724 25.7658C12.3128 25.8204 12.5211 25.7749 12.6569 25.7065H12.7171C12.7371 25.7035 12.7572 25.708 12.7772 25.7065C13.0889 25.7642 13.4654 25.7278 13.7462 25.6473C13.7663 25.6473 13.7863 25.6473 13.8064 25.6473C14.0286 25.7384 14.1489 25.7187 14.169 25.588C14.1906 25.5911 14.3665 25.7612 14.5316 25.6473V25.588C14.5486 25.5941 14.5748 25.582 14.5918 25.588C14.6103 25.5941 14.635 25.582 14.6519 25.588C14.7522 25.626 14.8016 25.7536 14.925 25.7688C15.0084 25.7794 15.0192 25.7339 15.0176 25.6959C15.067 25.7536 15.263 25.8037 15.2768 25.8007C15.4018 25.6017 15.6888 25.6959 15.8647 25.7673H15.9249C16.0854 25.7582 16.1872 25.7172 16.2273 25.6473C16.4927 25.6306 16.7751 25.6473 17.0698 25.6124C17.1608 25.6017 17.2549 25.6199 17.3182 25.5273C17.292 25.6473 17.4277 25.7475 17.5604 25.7658C17.599 25.7718 17.6453 25.7582 17.6808 25.7658C17.6823 25.8052 17.6885 25.8402 17.7086 25.8523C17.7564 25.8812 18.5202 25.9966 18.5896 25.8857C18.6498 25.8857 18.7115 25.8857 18.7717 25.8857C18.821 25.8599 18.8226 25.8387 18.7717 25.8265C18.7747 25.8189 18.8164 25.7794 18.8318 25.7673C18.838 25.7627 18.8426 25.7597 18.8488 25.7551C18.8442 25.7582 18.8395 25.7627 18.8318 25.7673C18.9722 25.7339 18.9645 25.9419 19.1034 25.9222C19.2315 25.904 19.6002 25.7111 19.6496 25.9465C19.6866 25.9328 19.7653 25.7977 19.8008 25.828C19.8054 25.8326 19.7808 25.9435 19.8363 25.9526C19.8872 25.9602 20.1079 25.8964 20.2236 25.8888C20.364 25.8797 20.5075 25.8964 20.6479 25.8888L20.4674 25.7111C20.5569 25.7308 20.688 25.8235 20.7698 25.8295C20.7899 25.8311 20.8099 25.8295 20.83 25.8295C21.1077 25.8508 21.6555 25.8645 21.6169 25.5319C21.6369 25.5319 21.6616 25.5273 21.6771 25.5319C21.6153 25.6883 21.64 25.6837 21.799 25.6518C21.8776 25.6291 21.961 25.6093 22.0412 25.5926C22.1183 25.6473 22.2217 25.5972 22.2834 25.5334C22.4686 25.5045 22.7093 25.4559 22.8883 25.4741C23.0858 25.3982 23.2108 25.3784 23.4669 25.465L23.4947 25.4134C23.5147 25.4149 23.5363 25.4103 23.5548 25.4134L23.7971 25.3526C23.7246 25.1491 23.5502 25.2068 23.3728 25.2342L23.5548 25.1142C23.5348 25.1157 23.5147 25.1142 23.4947 25.1142H23.5548C23.6335 25.1081 23.7169 25.064 23.7971 25.0549C23.8866 25.0443 24.1134 24.9775 24.1597 24.9957C24.1674 24.9987 24.1875 25.0868 24.2631 25.102C24.422 25.1339 24.6642 25.1506 24.8263 25.1142C24.8386 24.9927 24.6658 25.0929 24.5933 25.0473C24.5069 24.9927 24.5331 24.8347 24.584 24.7572C24.6889 24.8514 24.8849 24.9699 25.0253 24.9775C25.4944 25.0018 25.391 24.7223 25.4326 24.698C25.4866 24.6676 25.7875 24.7466 25.8569 24.578C25.8662 24.5871 26.0869 24.6494 26.0992 24.6372C26.1995 24.3426 25.9356 24.2621 26.2211 24.1011C26.3723 24.016 26.5343 24.1436 26.4032 23.7426C26.471 23.7031 26.5266 23.732 26.5683 23.8292L26.7056 23.8019C26.7488 23.6971 26.7781 23.6196 26.8876 23.5634C26.9586 23.3234 27.0836 23.129 27.2595 22.9817C27.3891 22.5913 27.4879 22.1888 27.5527 21.7757C27.5527 21.7559 27.5527 21.7362 27.5527 21.7165V21.5965C27.5573 21.4598 27.5558 21.2729 27.5527 21.1195C27.5974 21.0542 27.5974 20.9752 27.5527 20.8811C27.548 20.7231 27.5588 20.5621 27.5527 20.4041C27.4539 20.3221 27.4339 20.2234 27.4925 20.1065C27.4786 19.9348 27.4956 19.8331 27.4925 19.6888C27.4925 19.6371 27.5048 19.5429 27.4925 19.5095C27.4616 19.4169 27.3999 19.3971 27.3459 19.4154C27.3675 19.3258 27.3953 19.2513 27.4308 19.2118C27.4385 19.1222 27.3953 19.0599 27.3104 19.0326C27.403 18.8898 27.4292 18.7197 27.4308 18.5557C27.4231 18.4266 27.3706 18.3036 27.2934 18.2671C27.3675 18.2519 27.3937 18.2094 27.3706 18.138C27.3629 18.0712 27.3104 18.0256 27.3104 18.018C27.2857 17.9497 27.2857 17.8707 27.3104 17.7795C27.3104 17.7598 27.3104 17.7401 27.3104 17.7203C27.2919 17.699 27.2688 17.6823 27.2502 17.6611C27.1762 17.576 27.1314 17.5092 27.008 17.4818C26.991 17.412 26.9417 17.4454 26.9478 17.3026C27.1253 17.2358 27.3228 17.2039 27.3166 16.9745C27.3166 16.9457 27.1901 16.5751 27.1716 16.5447C27.1422 16.4931 27.0311 16.525 27.0049 16.3791C26.9833 16.2607 27.5758 16.0389 27.008 15.9918C27.0034 15.9797 26.9787 15.9873 26.9478 15.8718L27.2502 15.7822L27.0697 15.7534C27.079 15.5802 27.1068 15.4071 26.8876 15.3949C26.9247 15.1929 27.1577 15.3615 27.1901 15.3357C27.2024 15.3266 27.0929 15.0911 27.2502 15.038C27.2533 15.0167 27.2456 14.9955 27.2502 14.9788L27.2934 14.8967C27.0975 14.801 27.1283 14.438 27.3058 14.315C27.2904 14.2391 27.2718 14.1631 27.2533 14.0857C27.3536 14.1297 27.4585 14.0279 27.4925 14.0249C27.5681 14.0173 27.8011 14.0082 27.8551 14.0249C27.9554 13.9004 28.1853 13.9004 28.2794 13.8457C28.4183 13.9277 28.5664 13.712 28.5216 13.6072C28.6312 13.4234 28.5186 13.3763 28.5216 13.3095C28.6389 13.2396 28.659 13.1804 28.5818 13.1303C28.5818 13.1105 28.5818 13.0908 28.5818 13.071C28.6281 13.0619 28.6374 13.0376 28.6312 13.0103C28.6559 13.03 28.6837 13.0376 28.7022 13.0103C28.7207 13.0012 28.7901 13.0316 28.8148 13.0027C28.8503 12.9587 28.8102 12.8326 28.8225 12.7718C28.838 12.7399 28.8457 12.7111 28.8488 12.6853C28.8673 12.6336 28.8858 12.5865 28.8827 12.4741C28.8194 12.3754 28.7978 12.2904 28.8225 12.1764C28.8426 12.1597 28.8565 12.1354 28.8827 12.1172L28.9028 12.105ZM2.5582 16.7558C2.50265 16.7953 2.48259 16.7938 2.49802 16.7498C2.51345 16.7543 2.53197 16.7589 2.5582 16.7558ZM7.25035 25.6321C7.25035 25.6321 7.25035 25.6306 7.25035 25.6291C7.25035 25.6291 7.25189 25.6306 7.25343 25.6321H7.25035ZM20.6309 2.8764C20.6309 2.8764 20.6186 2.88248 20.6124 2.88703C20.6186 2.87336 20.6217 2.86273 20.6217 2.85058L20.6309 2.8764ZM18.4939 2.47086C18.4939 2.48149 18.4939 2.49213 18.4862 2.5058C18.4862 2.49365 18.4893 2.48149 18.4939 2.47086ZM14.2461 19.6174C14.2369 19.6204 14.2292 19.6219 14.2199 19.6219C14.2307 19.6204 14.24 19.6159 14.2492 19.6128C14.2492 19.6143 14.2477 19.6159 14.2461 19.6174ZM1.37166 9.33008C1.36394 9.34071 1.35468 9.35134 1.34697 9.36349C1.35931 9.34678 1.36857 9.33008 1.37629 9.31185C1.37629 9.31792 1.37474 9.324 1.37166 9.33008ZM21.1771 11.6615C21.1771 11.6615 21.1926 11.6722 21.2018 11.6752C21.1926 11.6707 21.1849 11.6661 21.1787 11.6615H21.1771ZM6.37394 11.212C6.36006 11.1952 6.34771 11.1816 6.33691 11.1694C6.36623 11.1694 6.40018 11.1649 6.43566 11.1527C6.41252 11.1649 6.39092 11.2074 6.37549 11.212H6.37394ZM19.3333 3.45965C19.3888 3.56141 19.3642 3.56141 19.2592 3.45965H19.3333ZM19.6434 17.6793C19.6403 17.6702 19.6373 17.6611 19.6373 17.6504C19.6419 17.6611 19.6434 17.6702 19.6434 17.6793ZM11.4009 11.3304C11.4009 11.3304 11.404 11.3411 11.4056 11.3456C11.4056 11.3502 11.4056 11.3562 11.4056 11.3638C11.4025 11.3517 11.3994 11.3411 11.4009 11.3304ZM15.4574 23.9112C15.4697 23.9112 15.4805 23.9112 15.4929 23.9143C15.4774 23.9143 15.4651 23.9143 15.4574 23.9112ZM20.4242 20.3343C20.4489 20.3859 20.4813 20.4239 20.5245 20.4467C20.4843 20.433 20.4489 20.3996 20.4242 20.3343ZM20.7235 20.272H20.7266C20.7266 20.272 20.7251 20.272 20.7235 20.272ZM22.376 19.8756C22.3683 19.8634 22.3637 19.8498 22.3621 19.8346V19.7966C22.3637 19.8224 22.3699 19.8498 22.376 19.8756ZM22.9068 22.4212C22.9068 22.4212 22.9114 22.4394 22.9099 22.4516C22.9006 22.447 22.8975 22.4379 22.9068 22.4212ZM17.0343 20.7975C17.0343 20.7975 17.0343 20.8051 17.0327 20.8112C17.0297 20.8097 17.0266 20.8082 17.0219 20.8067C17.0266 20.8036 17.0312 20.8006 17.0343 20.7975ZM21.5166 22.0536C21.5166 22.0536 21.5166 22.0597 21.515 22.0628C21.515 22.0597 21.515 22.0567 21.5166 22.0536ZM21.512 22.207C21.495 22.2207 21.4765 22.2329 21.4549 22.242C21.4749 22.2313 21.4934 22.2192 21.512 22.207ZM11.9857 21.563C11.9919 21.5524 11.9996 21.5403 12.0073 21.5266C12.0011 21.5448 11.9934 21.557 11.9857 21.563ZM12.8899 21.0907C12.9362 21.0983 12.9701 21.1059 12.9763 21.1089C12.9454 21.1043 12.9161 21.0983 12.8899 21.0907ZM12.6739 22.4911C12.6739 22.4911 12.6708 22.4804 12.6723 22.4804C12.677 22.4774 12.6831 22.4759 12.6924 22.4744C12.6862 22.4804 12.6816 22.4865 12.6754 22.4911H12.6739ZM14.7615 21.2304C14.7615 21.2304 14.7615 21.2304 14.7615 21.2289C14.7615 21.2289 14.7615 21.2289 14.7615 21.2304ZM5.63024 20.8628L5.58703 20.8704C5.60401 20.8659 5.61789 20.8644 5.63024 20.8628ZM21.7604 22.567C21.7604 22.567 21.7604 22.5701 21.7619 22.5716H21.7558L21.7604 22.567ZM10.2514 10.8626C10.2514 10.8626 10.2514 10.8565 10.2514 10.8535C10.256 10.855 10.2607 10.8565 10.2653 10.8596C10.2607 10.8596 10.2576 10.8611 10.253 10.8626H10.2514ZM25.124 11.4519C25.1472 11.4838 25.1348 11.5097 25.087 11.5689C25.1055 11.5233 25.1179 11.4838 25.124 11.4519ZM23.9375 10.9765C23.9375 10.9765 23.9344 10.975 23.9313 10.9735C23.9329 10.9735 23.9344 10.9735 23.936 10.9735V10.9765H23.9375ZM15.5253 8.26231C15.5253 8.25168 15.5222 8.24105 15.5191 8.23041C15.5268 8.23953 15.5283 8.25168 15.5253 8.26231ZM14.3079 8.52811C14.2878 8.53571 14.2647 8.53115 14.2415 8.52204C14.2647 8.52356 14.2863 8.52659 14.3079 8.52811ZM13.3528 7.03658C13.3528 7.03658 13.3435 7.0381 13.3389 7.0381C13.3435 7.0381 13.3481 7.0381 13.3528 7.03658ZM16.1239 8.82581C16.1085 8.8167 16.0931 8.81062 16.0776 8.80607C16.0915 8.80607 16.107 8.81214 16.1239 8.82581ZM9.46296 10.3781C9.46296 10.3781 9.4753 10.3781 9.48302 10.3781C9.48302 10.3796 9.48302 10.3811 9.48147 10.3827L9.4645 10.3766L9.46296 10.3781ZM19.8795 10.0789C19.8795 10.0789 19.8795 10.0819 19.8795 10.0834C19.8795 10.0819 19.8795 10.0804 19.878 10.0789H19.8795ZM16.1857 9.12503C16.1857 9.12503 16.1995 9.12807 16.2057 9.12958L16.1857 9.12503ZM17.6376 6.44119L17.6515 6.42752C17.6515 6.42752 17.6438 6.43663 17.6376 6.44119ZM6.85072 7.4968C6.85072 7.4968 6.85535 7.50743 6.85844 7.51503C6.85381 7.51047 6.85226 7.50439 6.85072 7.4968ZM5.7691 8.28965C5.7691 8.27142 5.77373 8.25472 5.78145 8.24105C5.77682 8.25775 5.77219 8.27294 5.7691 8.28965ZM3.28493 8.9458H3.22476C3.24481 8.94428 3.26487 8.9458 3.28493 8.9458ZM2.18171 10.9553C2.17554 10.972 2.1632 10.9872 2.14314 11.0008L2.07371 11.0327C2.11074 11.0039 2.14622 10.978 2.18171 10.9553ZM6.98033 22.242C6.98033 22.242 6.98033 22.245 6.98033 22.2481C6.98033 22.2465 6.97724 22.245 6.9757 22.242H6.97879H6.98033ZM24.9049 21.9443H24.9651C24.9451 21.9458 24.925 21.9443 24.9049 21.9443ZM19.8178 7.57426V7.51503C19.8178 7.53477 19.8178 7.55452 19.8178 7.57426ZM19.3935 4.89042C19.3935 4.89042 19.3858 4.88738 19.3827 4.88586C19.3827 4.88586 19.3842 4.88283 19.3858 4.88283L19.395 4.89194L19.3935 4.89042ZM15.3972 6.38195C15.3972 6.38195 15.4018 6.3698 15.4065 6.3622C15.4034 6.36828 15.4003 6.37436 15.3972 6.38195ZM12.1277 11.092H12.0968C12.1076 11.092 12.1184 11.0889 12.1277 11.092ZM15.5731 23.9689C15.5731 23.9689 15.5793 23.9689 15.5808 23.9705C15.5808 23.9705 15.5808 23.975 15.5808 23.9796C15.5777 23.9765 15.5762 23.972 15.5731 23.9689ZM13.8126 10.5011L13.8234 10.5133C13.8234 10.5133 13.8157 10.5057 13.811 10.5011C13.811 10.5011 13.811 10.5011 13.8126 10.5011ZM22.0566 18.3066C22.0782 18.3066 22.0998 18.3051 22.1199 18.3066H22.0566ZM15.6364 24.092C15.6379 24.1102 15.6394 24.1284 15.6394 24.1497C15.6348 24.1345 15.6348 24.1147 15.6364 24.092ZM18.9105 3.22118C18.929 3.18017 18.9429 3.17258 18.9553 3.1984C18.9445 3.19081 18.9306 3.1984 18.9105 3.22118ZM18.6683 3.22118C18.6544 3.247 18.6436 3.27131 18.642 3.28801C18.2825 3.25612 18.2501 3.88797 18.7285 3.69811C19.0016 3.64343 18.8905 3.86063 18.9707 4.05656V4.1158C18.8612 3.98214 18.784 4.01555 18.8503 4.17503C18.7099 4.11884 18.6652 4.2692 18.639 3.99581L18.3659 4.20389C18.5032 4.18263 18.6853 4.19174 18.7285 4.35274C18.4939 4.40438 18.4476 4.61095 18.6683 4.5912C18.5618 4.72638 18.5294 4.66107 18.4862 4.82967C18.4476 4.97852 18.4152 5.2352 18.2455 5.33241C18.1961 5.35975 18.0881 5.28077 18.0295 5.36279C17.9863 5.42203 18.0156 5.51923 18.0017 5.54505C17.9863 5.57087 17.9539 5.58606 17.9415 5.60429C17.7764 5.85338 17.4802 5.78048 17.6391 6.02046C17.3213 6.06754 17.3537 5.83364 17.0945 5.72276C17.0698 5.71213 16.8214 5.54505 16.8059 5.52986C16.7689 5.49493 16.8244 5.38861 16.755 5.36279C16.5128 5.27469 15.9959 5.31419 16.3075 5.60429C16.4048 5.6939 16.4649 5.74099 16.61 5.72276L16.576 5.54809C16.7303 5.57847 16.7211 5.69694 16.7905 5.78352C16.9402 5.97034 17.1546 5.86402 17.2133 5.99312C17.2765 6.13134 17.0914 6.05995 17.0327 6.08121C16.8106 5.99008 16.8337 6.19817 16.954 6.31208C16.9093 6.30145 16.8939 6.32423 16.9124 6.37891C16.8522 6.09185 16.6825 6.15716 16.5498 6.08121C16.3245 5.95363 16.127 5.66504 15.9449 6.02198C15.7829 5.98856 15.7181 5.92477 15.6657 6.07362C15.6425 6.07058 15.6148 6.07362 15.5808 6.08121C15.5515 6.05084 15.4481 6.02502 15.3987 6.02198C15.2923 5.87465 15.1411 5.86705 14.9744 5.84275C14.9713 5.8306 14.9683 5.81997 14.9652 5.81085C14.9775 5.73795 15.2012 5.67112 15.0037 5.60581C14.8788 5.5648 14.9405 5.76225 14.763 5.75921C14.5532 5.75466 14.4946 5.56176 14.2477 5.54657C14.1875 5.54202 14.1258 5.54809 14.0656 5.54657L14.1258 5.78503C14.1412 5.78959 14.1659 5.78352 14.186 5.78503C14.223 5.96426 14.0965 5.89743 13.9437 5.90503C13.8542 5.84579 13.7447 5.84275 13.6413 5.84579C13.6351 5.81693 13.6089 5.79111 13.5811 5.78655C13.6722 5.70605 13.5966 5.53594 13.524 5.46759C13.4423 5.39013 13.3574 5.44177 13.3389 5.4281C13.2556 5.37038 13.2093 5.28229 13.1568 5.24887C13.0596 5.18812 13.0164 5.20938 12.9146 5.24887C12.9531 4.63069 13.0102 4.12643 13.3373 3.57964C13.3466 3.56445 13.3543 3.54926 13.3605 3.53407C13.3559 3.54774 13.3481 3.56293 13.3373 3.57964C13.4932 3.64343 13.541 3.61305 13.4577 3.45965C13.6768 3.16347 13.4222 3.14828 13.4577 3.10271C13.4654 3.0936 13.5981 3.10271 13.6274 3.00702C13.6459 2.94931 13.578 2.73211 13.595 2.65616C13.6074 2.59997 13.6799 2.59237 13.6984 2.56351C13.7786 2.57111 13.8342 2.53921 13.8187 2.44352C14.0548 2.4739 13.9746 2.78982 14.3032 2.62123L14.2415 2.50276L14.4838 2.56199L14.5146 2.38277C14.6473 2.42226 14.655 2.66832 14.6674 2.68047C14.7198 2.73059 14.8325 2.62427 14.8479 2.62123C14.8803 2.73515 14.9343 2.73666 14.9683 2.62123C15.0624 2.73666 15.2213 2.70477 15.3432 2.7473C15.4049 2.76856 15.4373 2.85514 15.4527 2.85969C15.4944 2.87336 15.5777 2.85362 15.6348 2.85969C15.6934 2.86729 15.7567 2.85362 15.8169 2.85969L15.7552 2.97816C15.9804 2.925 16.1131 3.04044 16.3014 3.09816C16.3369 3.31687 16.5004 3.24852 16.6501 3.15283C16.8198 3.2865 17.3552 3.28042 17.4077 3.13005C17.528 3.22118 18.0094 3.16499 18.0094 2.97209C18.0835 3.15587 18.5263 3.31232 18.6637 3.21663L18.6683 3.22118ZM17.3352 2.98272C17.3784 2.80653 17.3984 2.82932 17.3969 3.05107C17.383 3.02981 17.3645 3.00702 17.3352 2.98272ZM7.56203 7.17176C7.59752 7.18847 7.62683 7.20973 7.65615 7.23404C7.61449 7.21125 7.57128 7.18695 7.525 7.15657C7.53888 7.16265 7.54968 7.16721 7.56203 7.17176ZM1.52904 10.3766C1.52441 10.3659 1.51824 10.3553 1.51207 10.3462C1.51824 10.3553 1.52441 10.3644 1.52904 10.3766ZM5.36485 11.3775C5.37565 11.3745 5.38953 11.373 5.40342 11.373C5.42194 11.3805 5.442 11.3866 5.46514 11.3897C5.42965 11.3866 5.39725 11.3821 5.36485 11.376V11.3775ZM26.9694 12.2873C26.9895 12.2858 27.0095 12.2828 27.025 12.2858C26.9895 12.2979 26.9725 12.2979 26.9694 12.2873ZM19.5169 4.79929C19.5154 4.79018 19.5138 4.78106 19.5169 4.77195C19.5169 4.78106 19.5169 4.79018 19.5169 4.79929ZM1.82837 8.62228C1.82837 8.62228 1.82837 8.61469 1.82837 8.61013C1.82837 8.60406 1.83146 8.59646 1.83609 8.5919C1.83763 8.59039 1.84226 8.58735 1.84843 8.58279C1.84226 8.59494 1.83609 8.60861 1.82992 8.62228H1.82837ZM5.88945 11.212C5.88637 11.1785 5.94654 11.1375 5.88945 10.9735C5.88328 10.9553 5.89717 10.9294 5.88945 10.9143C6.12861 10.9568 6.15793 10.855 6.25205 10.6758L6.31223 10.7958C6.11781 10.8778 6.11473 11.0646 6.22582 11.139C6.20576 11.1603 6.19342 11.2044 6.19033 11.2727C6.07924 11.0813 5.9126 11.1892 5.88791 11.3927C5.88174 11.3562 5.88791 11.3122 5.88791 11.2727C5.88791 11.253 5.88791 11.2332 5.88791 11.2135L5.88945 11.212ZM16.4001 11.0327H16.3662C16.3754 11.0297 16.3878 11.0327 16.4001 11.0327ZM3.40683 22.807V22.8389C3.40374 22.8298 3.40683 22.8176 3.40683 22.807ZM8.35202 24.4352C8.35202 24.4352 8.36591 24.4428 8.37208 24.4474C8.36591 24.4428 8.3582 24.4398 8.35202 24.4352ZM20.1387 3.05411C20.1542 3.06322 20.168 3.07233 20.1773 3.08145C20.1634 3.08145 20.1449 3.08904 20.1202 3.10423C20.1279 3.086 20.1341 3.07082 20.1387 3.05563V3.05411ZM20.2035 3.10879C20.2174 3.13005 20.2097 3.14828 20.1804 3.16195C20.1943 3.13916 20.2004 3.12246 20.2035 3.10879ZM12.7942 19.6189C12.7942 19.6189 12.8004 19.6098 12.805 19.6052C12.8019 19.6098 12.7988 19.6143 12.7942 19.6189ZM6.22273 17.2024L6.25359 17.2328C6.24279 17.2282 6.23354 17.216 6.22273 17.2024ZM14.1258 24.3274C14.1258 24.3274 14.1258 24.3274 14.1258 24.3289H14.1212C14.1212 24.3289 14.1243 24.3289 14.1243 24.3274H14.1258ZM20.06 2.80501C20.06 2.78527 20.0569 2.764 20.06 2.74578V2.80501ZM17.1392 1.26792C17.1392 1.26792 17.1485 1.25729 17.1531 1.25425C17.1485 1.25881 17.1438 1.26336 17.1392 1.26792ZM11.583 5.18964C11.583 5.20483 11.5845 5.22002 11.5845 5.23369V5.24887L11.583 5.18964ZM7.34293 6.56118C7.3599 6.56118 7.37687 6.5627 7.39384 6.56573C7.37996 6.56573 7.36298 6.56573 7.34293 6.56118ZM6.25205 12.6427V12.6458C6.25205 12.6458 6.23816 12.6458 6.23199 12.6458C6.24125 12.6412 6.24896 12.6397 6.25205 12.6442V12.6427ZM20.6078 12.5197C20.6078 12.5197 20.6078 12.5212 20.6062 12.5227V12.5197H20.6078ZM14.186 24.4231C14.186 24.4322 14.1875 24.4398 14.186 24.4474V24.4231ZM17.4571 24.5081C17.4833 24.5066 17.5018 24.5081 17.5126 24.5081C17.4895 24.5112 17.4679 24.5127 17.4571 24.5081ZM18.8488 24.5081C18.8735 24.5051 18.8982 24.5021 18.9229 24.5005C18.8982 24.5036 18.875 24.5066 18.8488 24.5081ZM26.8028 19.1678C26.7627 19.1253 26.7411 19.0645 26.7827 18.9627C26.7904 19.0372 26.7966 19.1055 26.8028 19.1678ZM4.8603 6.73888C4.89116 6.73888 4.91893 6.7404 4.9467 6.74192C4.91739 6.74648 4.88807 6.74648 4.8603 6.73888ZM9.94745 25.1931C9.94591 25.1825 9.94282 25.1719 9.94745 25.1643V25.1931ZM20.742 3.18473C20.7451 3.19688 20.7482 3.20903 20.7513 3.22118C20.7374 3.22118 20.7281 3.22118 20.7266 3.22118C20.722 3.21511 20.7297 3.20144 20.742 3.18473ZM6.43412 6.26196C6.43412 6.26196 6.43566 6.26196 6.43721 6.26196H6.43412ZM7.34447 16.2835C7.34447 16.2713 7.36298 16.2683 7.40464 16.2789C7.37996 16.2789 7.36144 16.2819 7.34447 16.2835ZM2.5582 22.0035C2.5582 22.0035 2.55202 21.999 2.5474 21.9974C2.55048 21.9959 2.55511 21.9929 2.5582 21.9914C2.5582 21.9959 2.5582 21.999 2.5582 22.0035ZM18.7763 25.5425C18.7763 25.5243 18.7639 25.5106 18.7408 25.5091C18.7794 25.4969 18.8179 25.4772 18.8503 25.462C18.8195 25.4908 18.7963 25.5182 18.7778 25.544L18.7763 25.5425ZM22.302 15.8627H22.3621C22.3421 15.8658 22.322 15.8597 22.302 15.8627ZM6.43566 16.1589C6.43566 16.1589 6.43566 16.1528 6.43412 16.1498C6.43721 16.1513 6.44029 16.1544 6.44183 16.1559C6.44029 16.1559 6.43721 16.1559 6.43566 16.1589ZM2.46253 22.2678C2.48259 22.2936 2.49956 22.3377 2.49802 22.4197C2.4795 22.3635 2.4687 22.3134 2.46253 22.2678ZM19.6712 25.6518C19.6712 25.6518 19.682 25.6442 19.6974 25.6412C19.6974 25.6427 19.6851 25.6458 19.6712 25.6518ZM23.0179 25.0686C23.0179 25.0686 23.0179 25.064 23.0179 25.061C23.021 25.0564 23.0241 25.0504 23.0256 25.0428C23.0225 25.0519 23.0194 25.0595 23.0164 25.0686H23.0179ZM27.1469 18.3066C27.1222 18.2899 27.1021 18.2549 27.0867 18.2474C27.133 18.2549 27.1716 18.2595 27.2086 18.2625C27.1885 18.2717 27.1685 18.2868 27.1484 18.3081L27.1469 18.3066ZM22.7016 6.44726C22.6892 6.44726 22.6769 6.44422 22.6646 6.44119C22.6769 6.4427 22.6892 6.44422 22.7016 6.44726ZM11.1587 13.2381C11.1587 13.2381 11.1664 13.2275 11.1695 13.2214C11.1695 13.2214 11.1695 13.2199 11.171 13.2184C11.171 13.2229 11.1648 13.2305 11.1587 13.2366V13.2381ZM2.66157 16.4931C2.66312 16.5234 2.66929 16.5508 2.68009 16.5766C2.66157 16.5827 2.63689 16.5705 2.61991 16.5766C2.63689 16.5493 2.64923 16.5204 2.66157 16.4931ZM17.7101 25.2752C17.7101 25.2752 17.7209 25.2782 17.7271 25.2797C17.741 25.2843 17.7487 25.2964 17.7548 25.3147C17.7394 25.3025 17.724 25.2904 17.7101 25.2752ZM22.6646 25.2007C22.6275 25.1916 22.5874 25.1795 22.5442 25.1628C22.6198 25.1628 22.6522 25.178 22.6646 25.2007ZM27.2672 14.0614C27.2502 13.9945 27.2317 13.9262 27.2132 13.8593C27.2225 13.8624 27.2333 13.8654 27.2425 13.8669C27.2857 13.9216 27.2672 13.9945 27.2672 14.0614Z" fill="#7162F0"/>
</svg>
