<svg width="50" height="77" viewBox="0 0 50 77" fill="none" xmlns="http://www.w3.org/2000/svg">
<path d="M49.8104 21.4877C49.7954 21.1071 49.9189 21.0776 49.9563 20.9076C50.0087 20.3756 49.9114 20.1318 49.6644 20.1835C49.9301 19.8436 49.9788 19.3596 49.8104 18.7315C49.7804 18.5024 49.6831 18.1552 49.6644 17.8596C49.6494 17.3978 49.5484 17.2057 49.3725 17.2795C49.2602 17.1207 49.0731 16.8362 48.8635 16.8399C48.785 16.8399 48.2461 17.1318 48.2274 17.1613C47.9654 17.6121 48.4407 17.5788 48.785 17.7155L48.2012 18.0037C48.2348 17.8226 48.1375 17.7118 48.0515 17.5677C47.9392 17.3793 47.767 17.2278 47.7596 16.9877C48.029 17.1392 48.639 16.718 48.77 16.5332C48.8074 16.4815 48.5904 16.1601 48.5679 15.9901C48.5492 15.8202 48.654 15.6022 48.639 15.5394C48.5716 15.2401 48.1862 15.0813 47.9055 15.2475C47.8494 15.218 47.7932 15.1108 47.7596 15.1034C47.7483 14.9631 47.8419 14.9039 47.9055 14.8116C47.9616 14.9372 48.0103 14.9372 48.0515 14.8116C48.7662 14.3978 47.9392 13.4778 47.8007 13.101C47.6959 12.8128 47.5463 12.0776 47.4639 11.9113C47.3554 11.9889 47.2094 11.8929 47.0223 11.6195C46.9737 11.5862 46.7641 11.6564 46.7267 11.6195C46.6967 11.5862 47.0597 10.9914 47.0223 10.7513C46.8352 10.5998 46.6369 10.5 46.4348 10.4594C46.1316 9.99757 46.083 9.9754 45.7013 9.73525C45.6901 9.45077 45.6377 9.16259 45.5553 8.86333C45.5216 8.84486 45.458 8.87811 45.4094 8.86333V8.71925C45.1437 8.46802 44.994 8.17615 44.9678 7.84733C44.9453 7.81038 44.7732 7.73649 44.6759 7.55546L44.384 7.41137C44.6459 8.13181 44.485 7.78083 44.0883 7.69955C44.6647 6.83132 44.3204 7.11581 43.8937 6.83133C43.7029 6.70571 43.8937 6.31778 43.2051 6.68354C43.4372 6.09611 42.554 6.14783 42.322 6.53576C42.2958 6.45448 42.191 6.11458 42.176 6.0998C42.1498 6.07763 41.3527 6.14044 41.7344 5.81163C42.0862 5.50867 42.1461 6.08133 42.176 6.0998C42.2546 6.15153 42.4791 5.83379 42.6176 5.75621C42.7897 5.65645 43.1266 6.08133 42.7635 5.23158C42.7411 5.18355 42.6513 5.13922 42.6176 5.08749C42.524 4.93601 42.4866 4.45572 42.1236 4.51853C42.0113 4.537 41.1581 5.29439 41.8841 5.23158C41.8616 5.36828 41.8991 5.52345 41.8841 5.66754C41.712 5.8264 41.0308 5.0801 40.855 4.9434L41.8878 4.43355L41.7606 4.08996L41.2966 3.63922C41.0421 2.91139 40.8699 2.771 40.1215 2.47913V2.33504C39.9381 2.23898 39.721 2.13554 39.5339 2.04317C39.3206 2.15401 39.2719 2.39416 39.388 2.76731C39.2794 2.58627 38.7593 2.25007 38.6657 1.83997C38.6694 1.80303 38.6657 1.76977 38.6545 1.7513V1.60721C38.4374 1.50746 38.168 1.42618 37.921 1.31534C37.6291 1.18603 37.3409 1.005 37.0415 0.879385L36.3791 1.31534C36.0124 0.635544 34.7662 1.0087 34.1038 1.17126C34.4668 0.63185 33.9803 0.354758 33.4302 0.303034C33.1832 0.280866 33.0447 0.432343 32.9324 0.443427C32.8538 0.439732 32.7902 0.443427 32.7341 0.4619C32.4459 0.484067 32.3449 0.4619 32.0492 0.443427V0.299339C31.8771 0.314117 31.6114 0.258699 31.3157 0.299339C31.1099 0.325201 30.7207 0.247615 30.5823 0.299339C30.4999 0.158946 30.354 0.0628871 30.1407 0.00746869C29.9535 -0.00730956 29.744 0.00377412 29.5531 0.00746869C29.4072 -0.00730956 29.3847 0.0702762 29.3997 0.155251C29.2575 0.0518034 29.0217 -0.0220878 28.8196 0.155251C27.9065 -0.0110041 28.0262 0.299339 27.9402 0.299339C27.8429 0.321506 27.7792 0.369536 27.7418 0.436038C27.7007 0.380619 27.6258 0.369536 27.4986 0.443427C27.3863 0.532097 26.4095 0.20328 26.1775 0.151557C25.9567 0.118306 25.5825 0.0702762 25.7359 0.295645C25.6461 0.310423 25.5376 0.288255 25.444 0.295645C25.3692 0.133084 25.2756 0.181113 25.1521 0.295645C25.1035 0.303034 25.0511 0.288255 25.0062 0.295645C24.9388 0.0813599 24.7218 0.0665817 24.7143 0.295645C24.3887 0.343674 24.0668 0.554264 23.8348 0.587515C23.4045 0.439732 22.9479 0.513624 22.5138 0.587515C22.2256 0.657712 21.915 0.775938 21.6343 0.879385C21.5071 0.934804 21.5071 0.982833 21.6343 1.02347C21.5932 1.05303 21.5108 1.58135 20.9008 1.60352C20.9233 1.54071 20.3545 1.28209 20.1524 1.31534L19.1382 1.74761C19.0858 1.78825 19.0334 1.84367 18.9922 1.8917V2.03578C19.0858 2.10598 19.0371 2.15401 18.8463 2.17987C18.7228 2.15032 18.5357 2.20573 18.4047 2.17987C18.3972 2.17618 18.3897 2.17248 18.386 2.16879C18.3411 2.13554 18.2662 2.03948 18.1652 2.03578C17.6338 1.99884 17.3157 2.32765 16.9377 2.61583C17.0612 2.89292 17.2184 3.01115 17.5252 3.05179V3.19588C17.4953 3.19588 17.1024 3.3141 16.9377 3.33996C16.2641 3.44711 16.0321 3.42124 15.6167 4.0641C15.5568 4.03824 15.4183 4.07518 15.321 4.0641C15.3884 3.66139 15.1863 3.70573 14.8794 3.92001C14.7709 3.89045 14.4303 3.90523 14.2919 3.92001C14.1946 3.93109 14.0935 3.91262 14 3.92001L14.2919 5.0801C14.2245 5.06163 14.0823 5.07271 14 5.0801C13.839 5.09119 13.7867 5.19094 13.7081 5.22419C13.5397 5.29439 13.3338 5.24636 13.2665 5.51606C13.0157 5.33503 12.9484 5.09488 12.4619 5.0801L12.387 5.15399C12.4394 5.25744 12.664 5.45695 12.6789 5.51606C12.6902 5.5567 12.6752 5.61212 12.6789 5.66015C12.4881 5.67493 12.2822 5.63798 12.0914 5.66015C12.0427 5.66754 11.9903 5.64907 11.9454 5.66015C11.7508 5.70079 11.4103 5.85965 11.2119 5.95202C11.0098 6.12566 11.1071 6.77591 11.0622 6.82024C11.0136 6.86827 10.1192 6.70571 10.0368 7.2562L8.5399 8.98156C8.51745 8.98895 8.50248 9.00742 8.48377 9.04437L8.27419 9.28821C8.25174 9.28451 8.03843 9.46924 7.83634 9.28821L7.98229 9.86826C7.70162 9.72417 7.52573 9.79067 7.24879 9.86826C7.0991 9.91259 7.04671 9.9717 6.95315 10.0123C6.78475 10.1601 6.68744 10.3042 6.66125 10.4483C6.32818 10.5111 6.03254 10.755 5.7818 11.1724C5.73315 11.1724 5.6845 11.1724 5.63585 11.1724C5.97266 11.8966 5.60965 11.649 5.35517 11.9815C5.23916 12.133 5.22793 12.4397 5.198 12.4766C5.15309 12.5246 4.75266 12.3325 5.05204 12.7648H4.61045C4.42333 13.1675 4.90235 13.2118 4.91358 13.2894C4.92481 13.3781 4.77137 14.0283 4.74143 14.0542C4.41585 14.3128 3.58505 13.6072 4.02665 15.2328C3.98174 15.2438 3.9256 15.2217 3.88069 15.2328C3.8545 15.2401 3.71977 15.0074 3.39793 15.2217C3.23327 15.3325 3.23701 15.5209 3.1472 15.665C3.08732 15.7648 2.93014 16.0936 2.85529 16.2451C2.79916 16.3559 2.55591 16.4113 2.56339 16.8251C2.56339 16.8731 2.55965 16.9212 2.56339 16.9692C2.56339 16.9988 2.69063 17.4975 2.70934 17.5492L2.26775 17.4052C2.12928 17.8411 2.51848 18.1589 2.85529 18.4212C3.00873 18.8608 2.52223 18.9347 2.46609 19.0345C2.39499 19.1638 2.3875 19.7032 2.22284 19.8399C1.94965 20.0689 1.84861 19.5332 1.82615 20.3793C1.81867 20.6527 1.69143 20.9704 2.1218 20.8854C2.10309 21.0258 2.13302 21.1773 2.1218 21.3214C2.10683 21.314 1.93468 21.4729 1.82241 21.3953C1.65775 21.2808 1.79996 20.915 1.3883 21.0332C1.4145 21.58 1.97585 22.0936 2.26775 22.5554C2.0694 22.7106 1.93842 22.6551 1.82989 22.5406C1.79247 22.4741 1.74382 22.4076 1.6802 22.3374C1.54548 22.1379 1.51554 21.5726 1.16002 22.0492C1.02155 22.234 1.23861 22.7327 1.21241 22.8473C1.18996 22.9359 0.942962 22.9064 0.939219 22.9987C0.92425 23.2795 1.17499 23.5529 1.05149 24.1108C0.901796 24.8128 0.692225 24.5431 0.355415 24.5098C0.400323 24.7943 0.288053 25.1711 0.355415 25.4298C0.396581 25.6034 0.714679 25.4298 0.65106 25.6662C-0.389309 25.5738 0.778299 26.3866 0.782041 26.4568C0.797011 27.0073 0.370385 27.1477 0.359158 27.1921C0.20198 27.7499 0.561244 27.4507 0.725906 27.4802C0.901796 27.5135 0.980385 27.6539 1.09266 27.6982C1.10388 27.7019 1.14505 27.798 1.23861 27.8423C1.23112 27.9384 1.24609 28.0381 1.23861 28.1342C1.20493 28.4962 1.08891 28.4002 0.797011 28.5701C0.602409 28.681 0.306765 28.6588 0.355415 28.8583C0.591182 28.8879 0.868115 28.9211 1.08891 29.0061L0.501366 29.2241C1.81493 30.1218 0.707195 29.963 0.647317 30.0221C0.351673 30.3324 1.16002 30.5172 0.942962 30.7462C0.920508 30.7721 0.246887 30.7462 0.355415 31.1083C0.422777 31.3374 0.995354 31.1268 0.65106 31.9063L1.08891 32.3423C1.05523 32.3571 0.991612 32.3312 0.942962 32.3423C0.815722 32.3681 0.643575 32.3238 0.501366 32.3423V33.3583C0.351673 33.4617 -0.175996 33.5061 0.0597708 33.7905C0.0822248 33.8201 0.351673 33.809 0.434004 33.9346C0.568728 34.1341 0.359158 34.378 0.42652 34.5295C0.531305 34.7622 0.942962 34.7031 0.939219 34.9543C0.516335 35.043 0.243145 35.0245 0.355415 35.5381C0.853146 35.0282 0.980385 35.5824 1.53051 35.6822C1.50431 35.7302 1.54922 35.8817 1.53051 35.974C1.53051 35.9888 1.43695 36.0036 1.41075 36.0516L1.53051 36.1181C1.53051 36.1181 1.35088 36.2881 1.23861 36.2622C1.21241 36.2068 1.25732 36.0812 1.1675 35.9703C1.04775 35.8226 0.894311 35.8706 0.797011 35.8263C0.789526 35.8226 0.800753 35.6526 0.65106 35.6822C0.471428 35.9814 0.658544 36.4026 0.65106 36.5504C0.647317 36.6464 0.65106 36.7425 0.65106 36.8423C-0.0974073 37.378 0.568728 38.6009 1.23861 38.1464C1.27229 38.2499 1.17873 38.4235 1.09266 38.4383C1.01781 38.4494 0.841919 38.2351 0.800753 38.2942V38.8743C0.838176 38.9999 0.927992 39.2326 0.946704 39.3102C0.946704 39.325 0.909281 39.4248 0.946704 39.6021C1.10762 39.6871 1.50805 39.373 1.53425 39.5319C1.61284 39.9715 0.950446 39.5023 1.09266 40.0381C1.42947 40.0824 1.75505 39.7277 1.9721 40.0381C1.12634 40.2006 1.80744 40.559 1.82615 40.6181C1.87855 40.8102 1.81118 41.2683 1.72885 41.4605C1.63155 41.6821 1.39953 41.6193 1.3883 41.6378C1.17873 41.9555 1.68394 41.9223 1.67272 41.9925C1.64278 42.0294 1.6091 42.0774 1.57167 42.1366C1.54922 42.1661 1.53051 42.192 1.53051 42.2141C1.52302 42.3102 1.53051 42.4063 1.53051 42.506C1.47437 42.5836 1.47437 42.6834 1.53051 42.7979C1.53051 42.8459 1.52677 42.8939 1.53051 42.942L1.67646 43.6661C1.77002 43.9912 1.84861 44.1132 1.96836 44.3902C2.14051 44.7375 2.19664 44.793 2.26026 44.3902C2.30143 44.49 2.36131 44.5824 2.40621 44.6821C2.20413 44.7708 2.26401 44.9333 2.58585 45.1661C2.14425 45.3287 2.13677 45.6095 2.57088 46.0085C2.47732 46.3594 2.46983 46.6439 2.55217 46.8545C2.55217 46.9025 2.55217 46.9506 2.55217 46.9986C2.6083 47.1242 2.65695 47.1242 2.69812 46.9986C2.68689 47.1353 2.68689 47.2794 2.69812 47.4346C2.72806 47.5565 2.64947 47.7634 2.69812 47.9112C2.75425 48.0811 2.95634 47.9888 2.99376 48.0146C2.98253 48.107 3.01247 48.2215 2.99376 48.3065C3.03118 48.7868 3.17714 49.0306 3.43536 49.0306C3.47652 49.123 3.39419 49.3742 3.43536 49.4666C3.46904 49.5442 3.5364 49.5663 3.58131 49.6107C3.5102 49.9727 3.6075 50.405 3.87695 50.9148C3.88818 50.937 3.98922 50.8927 4.0229 50.9148C4.35597 51.1291 4.47198 50.7781 4.61045 50.7708C4.89487 51.0996 4.84622 51.3877 4.47198 51.6279L4.4645 51.9309V52.0749C4.51689 52.1193 4.5618 52.1747 4.61045 52.219L4.76014 52.9432C5.01462 53.0466 5.11566 52.8286 5.198 52.7991C5.29155 52.7658 5.40382 52.703 5.4899 52.655C5.54978 52.7215 5.57597 52.8619 5.63585 52.9469C5.28407 53.0725 5.35892 53.1242 5.19425 53.2387C5.08947 53.3089 4.67781 53.2683 4.7564 53.5971C5.31775 54.0626 5.47119 54.3065 5.63585 54.9789C5.64708 55.0269 5.62088 55.0823 5.63585 55.123C5.7556 55.4665 5.561 55.5774 6.2234 55.267C6.23462 55.2744 6.46665 55.1008 6.50033 55.1377L6.66499 55.5589V55.703C6.66499 55.703 6.40677 55.8249 6.36935 55.8471C6.03254 56.0577 6.23836 56.0798 6.16352 56.2498C6.14106 56.2978 5.91278 56.2498 5.92775 56.3532C5.98763 56.7005 6.64628 57.1254 6.95689 57.299C6.20094 57.7535 7.1253 57.7978 7.10284 58.6032C7.10284 58.6513 7.11033 58.703 7.10284 58.7473C7.09536 58.788 6.96812 58.8471 6.95689 58.8914C6.93444 58.9727 6.97935 59.0983 6.95689 59.1833C7.00929 59.2202 7.08039 59.2682 7.10284 59.3274C7.33487 59.5158 7.52947 59.7116 7.69039 59.9074C7.73904 59.9517 7.78769 60.0072 7.83634 60.0515C7.91119 60.3323 8.00849 60.4801 8.12824 60.4875C8.001 60.9197 8.25174 61.3668 8.64468 61.6069L8.71579 61.9394C8.75321 61.9948 8.81309 62.0392 8.86174 62.0835C8.85051 62.1278 8.86923 62.1796 8.86174 62.2276C9.01518 62.2793 9.09377 62.3717 9.15364 62.5195C9.31831 62.9185 9.13119 63.2953 9.79358 62.9961C9.82726 62.9998 9.86469 63.0035 9.90211 63.0035L10.0368 63.3914C9.70002 63.4764 9.62143 63.7054 9.83849 63.7941C9.59898 63.7682 9.64389 63.8569 9.89088 64.1192C9.7599 64.6254 9.97696 64.4148 10.0368 64.5552L10.3287 65.1352C10.5458 65.4936 10.7067 65.7596 10.9163 66.1512C10.9537 66.2214 11.1595 66.783 11.2082 66.8754C11.2943 67.4443 12.0053 68.246 11.7957 67.3113C11.807 67.3409 12.0577 67.4037 12.0801 67.5441C12.1063 67.7325 11.8406 67.8618 11.8294 67.9689C11.8182 68.0798 12.0801 68.1537 12.0914 68.1795C12.1026 68.2239 12.0801 68.2756 12.0914 68.3236C12.1026 68.3717 12.0801 68.4234 12.0914 68.4677C12.1475 68.6857 12.1138 68.7522 12.2373 69.0478C12.3159 69.3285 12.3159 69.5724 12.2373 69.7719C12.17 70.0194 12.5217 70.182 12.5292 70.2079C12.5105 70.363 12.5667 70.448 12.6565 70.4849C12.5292 70.6143 12.5854 70.9541 12.8211 71.5157C12.866 71.7891 12.8211 72.0699 13.113 72.2399C13.1579 72.7128 13.3076 72.9529 13.5546 72.964C13.5546 73.012 13.5659 73.0748 13.5546 73.1081H13.7006C13.9551 73.3002 14.086 73.3593 14.1422 73.6881C13.9476 73.7399 13.9476 73.8839 14.1422 74.1241C14.6287 74.5527 15.3659 74.7854 15.6092 75.4283C15.553 75.4615 15.3435 75.3913 15.3173 75.4283C14.9805 75.8494 16.4025 76.1044 16.4924 76.1524C17.02 76.0896 17.4354 75.9898 17.9631 76.1524L18.109 76.5884C18.1802 76.4701 18.1315 76.2189 18.401 76.1524V76.0083C18.4758 75.9972 18.6704 75.7793 18.9286 75.7645C19.4825 75.7275 19.8418 76.2558 19.722 75.2842C19.5049 75.2435 19.2617 75.4283 19.0746 75.3987C18.9099 75.3728 18.8987 75.1881 18.8425 75.1401C19.2617 75.2103 19.0821 75.0293 19.1344 74.8482C19.1532 74.7854 19.2168 74.73 19.2804 74.7041C19.344 74.8298 19.5386 75.0884 19.6472 75.1401C19.6995 75.166 20.3507 74.5268 19.5723 74.2719C19.5948 74.2571 19.4189 74.1832 19.8642 73.98C19.8642 74.4123 20.3994 74.4972 20.4517 74.56C20.4817 74.3975 20.6838 74.3458 20.7437 74.2682V73.6881C20.7437 73.6881 20.7399 73.4591 20.8933 73.3335C21.0094 73.2411 21.4659 73.1894 21.4734 73.0342C21.4772 72.9492 21.2114 72.8679 21.1815 72.8162C21.1703 72.7977 21.174 72.698 21.1815 72.6721C21.2077 72.5798 21.7429 72.1955 21.7691 71.948V71.8039C21.8402 71.8113 22.0273 71.8224 22.061 71.8039C22.263 71.7041 22.162 71.4492 22.2219 71.379C22.2406 71.3569 22.8356 71.6376 22.7945 71.2977C22.7757 71.1463 22.3304 71.1241 22.3603 71.0096C22.3753 70.9542 22.641 70.2596 22.6672 70.2263C22.6822 70.2078 22.8768 70.3076 22.9479 70.2633C23.1126 70.1524 23.2136 69.9308 23.2398 69.9197C23.2772 69.9012 23.4531 69.9197 23.5317 69.9197C23.5841 69.9197 23.6402 69.9086 23.6776 69.9197C24.093 69.7165 23.498 69.432 23.236 69.3396C23.76 69.1512 23.7749 69.0699 24.1155 68.7596C24.5721 68.6931 24.9126 68.4973 25.1446 68.1795C25.1671 68.1463 25.1222 68.0687 25.1446 68.0354C25.0249 67.7325 24.6207 67.8249 24.703 67.5293C24.7592 67.3261 25.2494 67.6734 25.1446 67.1635C25.1184 67.0305 24.8565 66.8495 24.8527 66.7276C25.4141 66.6167 25.4964 66.7645 26.0278 66.8717L25.7359 66.5096C26.2636 66.3803 25.8669 66.2103 25.923 65.9554C25.9904 65.6525 26.3609 65.6414 26.0278 65.2756C25.8856 65.1167 25.6499 65.1832 25.7359 64.9135L25.8819 64.8397C26.0877 64.9062 26.0989 65.0318 26.4694 64.9837C26.3422 65.0392 26.3422 65.0872 26.4694 65.1278L26.3235 65.5638C26.5068 65.597 26.6229 65.5158 26.7651 65.4197C27.143 65.4197 27.536 65.2756 27.9402 64.9837C28.1722 64.5958 27.8017 64.2596 28.0861 63.8237C28.7036 64.0047 28.9955 63.6168 28.9693 62.6636C29.018 62.6155 29.0666 62.5675 29.1153 62.5195C29.5232 62.187 29.2313 61.9246 28.8234 61.7953C28.9094 61.7842 29.0105 61.9025 29.4109 61.7953C29.5419 61.7584 29.7552 61.7325 29.8525 61.6512C29.9573 61.1857 29.7365 61.2559 29.4109 61.0712C29.714 60.7572 29.7552 60.6722 29.9984 60.3471C30.0097 60.3323 30.193 60.4099 30.2903 60.2473C30.4101 60.0478 30.5224 59.4862 30.2903 59.3311V59.187C30.7282 59.0281 31.9257 58.836 31.1698 58.3151C31.1885 58.2375 31.1286 58.0675 31.1735 58.0343C31.2634 57.9715 31.7686 58.1082 31.8996 57.8052C32.023 57.5281 31.6488 57.6057 31.6264 57.5761C31.3045 57.1623 32.5657 56.9739 32.6256 56.9333C32.6892 56.8926 33.0821 56.4271 33.2206 56.283C33.4189 56.0761 33.4938 55.8693 33.5125 55.8471C33.6248 55.7289 33.8194 55.4629 33.9541 55.4111C34.2722 55.2892 34.2235 55.5959 34.6876 55.1193C34.7362 55.0712 34.7886 55.0232 34.8335 54.9752C34.9084 54.7904 34.9084 54.6464 34.8335 54.5392C35.0506 54.602 35.1965 54.3619 35.2751 53.8151C35.2602 53.7264 35.2864 53.6193 35.2751 53.5232C35.2377 53.5417 35.1741 53.5084 35.1292 53.5232C35.1142 53.4345 35.1516 53.3089 35.1292 53.2313C35.6194 53.2276 35.5745 52.9247 35.7167 52.6513C35.8178 52.4555 35.8552 52.1525 35.8926 52.1045C36.0161 51.9419 36.454 52.0343 36.6112 51.8274C36.8207 51.5577 36.5924 51.2547 36.5962 51.0515C36.5962 51.0035 36.5962 50.9555 36.5962 50.9075L36.8881 51.0515C36.8282 50.8373 37.0153 50.6156 37.0378 50.4715C37.1875 50.4789 37.2436 50.4346 37.3334 50.3274C37.6515 50.3754 37.7451 50.0762 37.6328 49.8878C37.6777 49.873 37.7264 49.8286 37.775 49.7474C37.6927 49.3484 37.9883 49.5072 38.3888 49.3631C38.4374 49.352 38.4786 49.3373 38.5085 49.3114C38.5646 49.2818 38.7069 49.1008 38.8004 49.0195L38.9464 48.5836C38.894 48.5245 38.6395 48.8385 38.5085 48.8718C38.4748 48.8791 38.3925 48.8791 38.3626 48.8718C38.5048 48.6759 38.6507 48.4764 38.8042 48.2917C38.9052 48.1698 39.0512 48.0626 39.0961 47.9998C39.2008 47.8594 39.2869 47.7043 39.388 47.5639C39.7285 47.9666 40.1739 47.1907 40.4171 46.8397C40.4583 46.5922 40.4059 46.4001 40.2712 46.2597C40.5256 45.9604 40.6491 46.1673 40.7127 45.5356C40.9073 45.6058 41.0608 45.4136 41.1543 45.2437C41.188 45.2215 41.2666 45.2659 41.3003 45.2437L41.4201 44.8447C41.9402 44.3385 42.1012 44.0134 41.9028 43.8656C42.0188 43.8915 42.0301 43.8102 41.8878 43.6513C41.9103 43.6181 41.8654 43.5368 41.8878 43.5072C42.539 43.171 42.7374 42.8348 42.4754 42.4912C42.6475 42.1624 42.4005 42.1144 42.917 41.7671C42.9507 41.7449 43.134 41.8188 43.1864 41.7486C43.3399 41.5528 42.9806 41.2979 43.5045 40.7511C43.7665 40.4777 44.0771 40.2782 44.238 39.8792C44.2717 39.8977 44.3353 39.8681 44.384 39.8792H44.5299C44.5711 39.8238 44.6497 39.7794 44.6759 39.7351C44.7694 39.5504 44.5187 39.0479 44.5299 39.011C44.5374 38.9814 45.0052 38.7819 44.8218 38.575C44.7919 38.5418 44.1594 38.8336 44.2717 38.4014C44.3091 38.3644 44.3466 38.2757 44.384 38.139C44.5224 38.0689 44.6459 38.0208 44.6759 37.8472C44.6834 37.8139 44.6871 37.7326 44.6759 37.7031C44.7769 37.5036 45.3008 37.6846 45.3982 37.5442C45.4618 37.4556 45.3794 37.2302 45.4094 37.123C45.4281 37.0602 45.3982 36.9826 45.4505 36.8718C45.4767 36.8164 45.6339 36.7499 45.705 36.6871C45.8061 36.5984 45.9782 36.5615 45.9969 36.543C46.2177 36.3139 46.1167 36.0812 46.2252 35.8263C46.3562 35.5233 46.9512 35.0393 46.2888 35.091C46.2888 35.0689 46.1055 35.0615 46.1391 34.9469C46.824 35.0504 46.4872 34.7253 46.5807 34.511C46.7566 34.0972 47.2094 33.8718 46.5807 33.495C46.5658 33.3472 46.5994 33.2807 46.7267 33.2031C46.8352 33.1366 47.0336 33.1772 47.1795 32.9962C47.3517 32.7819 47.2656 32.5898 47.3142 32.4753C47.4153 32.2388 47.5051 32.1021 47.6061 31.8952C47.767 31.5775 48.2049 30.9236 48.3396 30.5911C48.5305 30.1182 48.639 29.8041 48.6315 29.2869C48.6315 29.1613 48.6615 28.9396 48.6315 28.8509C48.5941 28.7364 48.4444 28.4999 48.3396 28.1268C48.3247 28.0788 48.3583 28.0196 48.3396 27.9827C48.3696 27.9236 48.4743 27.8756 48.4856 27.8386C48.6802 27.9864 48.8748 27.979 49.0731 27.8386H49.2191C49.3463 27.4359 49.4848 26.8078 49.511 26.3866C49.5783 26.3275 49.5821 26.2795 49.511 26.2426C49.5072 26.1502 49.5334 26.0172 49.511 25.9507C49.4436 25.7512 49.2565 25.6071 49.0694 25.5147C48.9945 25.378 48.871 25.2894 48.9234 25.0788C49.0245 25.3189 49.3763 25.6403 49.511 25.3706C49.5072 25.3448 49.7093 25.0677 49.511 24.9347C49.2116 24.8608 49.2715 24.7795 49.6981 24.6982L49.6607 24.4987C49.6869 24.4137 49.4399 23.117 49.0731 23.3386C49.0731 23.3239 48.871 23.2056 48.9833 23.0541C49.1891 22.7844 49.3313 22.9913 49.6569 22.4667C49.7692 22.4704 49.8216 22.3743 49.8029 22.1748C49.8141 22.1342 49.9451 22.0899 49.9488 21.883C49.6719 21.6539 49.6232 21.5098 49.8029 21.447L49.8104 21.4877ZM11.4739 13.2746C11.4552 13.3116 11.4365 13.3522 11.429 13.3929C11.4103 13.3338 11.429 13.2968 11.4739 13.2746ZM44.7545 25.8472C44.7545 25.8472 44.7919 25.8362 44.8181 25.8398C44.7994 25.8472 44.7769 25.8472 44.7545 25.8472ZM36.1508 35.7006C36.1508 35.7006 36.1583 35.7191 36.1658 35.7302C36.1696 35.7524 36.1696 35.7782 36.1658 35.8115C36.1583 35.7782 36.1508 35.7413 36.1508 35.7006ZM40.4096 25.8398C40.447 25.8435 40.4845 25.8509 40.5181 25.8546C40.4695 25.8546 40.4321 25.8546 40.4096 25.8398ZM10.6843 19.4556H10.5944C10.6206 19.4483 10.6543 19.4556 10.6843 19.4556ZM18.3785 19.0234C18.3822 18.6761 18.4122 18.3362 18.5244 18.0074C18.9586 18.0665 19.1008 17.7155 18.6704 17.5714C18.7078 17.5862 18.7677 17.5603 18.8164 17.5714C19.1906 17.6564 19.5237 17.8226 19.9914 17.7155C19.8829 17.3867 19.8979 17.2463 20.1374 16.9914C20.3357 17.032 20.5827 17.1133 20.7249 17.1355C20.7736 17.1428 20.8222 17.1281 20.8709 17.1355C21.3761 17.1946 21.6456 17.2426 22.1919 16.9914C22.2668 16.9914 22.3229 16.9914 22.3716 16.9914H22.394C22.6148 17.4938 22.5699 17.1428 22.6335 17.1355C22.6897 17.1281 22.8281 17.1281 22.8918 17.1318C22.903 17.1318 22.9142 17.1355 22.9254 17.1355C22.9404 17.1502 22.8805 17.3313 22.9554 17.3867C23.0864 17.4901 23.5841 17.3904 23.8049 17.5677C23.7974 17.4236 23.8199 17.2759 23.8049 17.1318C23.8011 17.0837 23.8161 17.032 23.8049 16.9877C23.9022 16.9951 24.0032 16.9766 24.0968 16.9877C24.1305 16.9988 24.1604 17.0061 24.1903 17.0098C24.5384 17.1281 24.34 17.5603 24.8303 16.8436L24.3887 16.6958V16.5517C24.9313 16.5702 24.8602 16.4963 24.9762 15.9717C25.4365 15.8941 25.3729 15.5911 25.4178 15.5357C25.56 15.3584 25.676 14.9852 26.0054 15.1736C26.3459 15.3658 25.7359 15.5246 25.8594 15.8276C25.8744 15.8645 26.2673 15.4581 26.1513 15.9717C25.1222 15.8645 26.301 16.6773 26.301 17.1318C26.5854 17.1539 26.4021 16.7291 26.447 16.5517C26.4657 16.5332 26.4732 16.5074 26.4732 16.4815C26.5368 16.3448 26.664 16.1823 26.5929 15.9754H26.7351C26.6715 16.4261 27.1393 16.2488 27.4724 16.2635C27.5697 16.2672 27.6707 16.2672 27.7643 16.2635C27.8129 16.3818 27.899 16.6995 27.9851 16.6995L28.2059 16.2635C28.2545 16.2562 28.3069 16.2746 28.3518 16.2635C29.351 16.5517 28.3518 16.8731 28.3518 17.0616C28.3518 17.2315 29.1864 17.5677 29.3772 17.7155C29.3585 17.5308 29.4072 17.3091 29.3772 17.1355C29.3772 17.3719 29.5681 17.4901 29.8188 17.4273C29.8338 17.5086 29.9386 17.6194 29.9648 17.7192C29.9648 17.7266 29.83 17.7672 29.8338 17.8374L30.5523 18.2992L30.4064 19.3116C31.05 19.2007 30.7544 19.5443 30.8554 19.7401C30.8667 19.7586 31.0575 19.6736 31.2858 19.7475C31.3457 19.766 31.4318 19.851 31.5777 19.8916C31.5852 20.0468 32.0904 19.9655 31.7237 20.4716C31.9407 20.4347 32.0754 20.3202 32.1353 20.3423C32.154 20.431 32.1653 20.5234 32.1653 20.6194C32.0792 21.6502 32.9923 21.2992 33.0372 21.3473C33.0672 21.3768 33.0297 21.6354 33.127 21.7647C33.2692 21.9569 33.7333 22.0936 33.7483 22.282C33.8044 22.8879 33.2318 22.4076 32.8988 22.6477C32.8913 22.6367 32.7416 22.6662 32.6555 22.5923C32.5694 22.5184 32.6106 22.3633 32.5994 22.3596C32.5582 22.3337 32.0867 22.814 31.7199 22.5037C32.3673 22.9544 31.6039 23.5751 31.7199 23.8078C31.7311 23.83 32.1316 23.5972 32.1578 23.9482C31.791 23.8854 31.8996 24.3066 31.7162 24.4581C31.5478 24.5985 31.0987 24.3953 31.2746 24.894C31.3008 24.9679 31.8472 24.9384 31.428 25.3337L31.7199 25.548C31.6937 25.5775 31.6413 25.7401 31.574 25.8398C31.4954 25.9507 31.4729 26.0652 31.428 26.1317C31.3345 26.2721 31.2184 26.6009 31.1436 26.6453C31.0388 26.7118 30.7993 26.5233 30.7245 26.5898C30.6571 26.649 30.7207 26.83 30.6945 26.8559C30.6833 26.8706 30.4962 26.7044 30.3278 26.8448C29.9872 27.1256 30.1631 27.4728 30.3989 27.4359C30.4213 27.4322 30.4475 26.7783 30.8405 27.2918C30.7507 27.4433 30.6346 27.5763 30.5486 27.7278C30.4588 27.7241 30.3427 27.7167 30.2567 27.7278C29.9461 27.7721 29.5307 28.245 29.583 28.5258C29.6205 28.7179 29.8899 28.7696 29.8113 29.0319C29.4745 28.8805 29.5793 28.6625 29.2238 28.8879C29.0404 29.0024 28.7298 29.1908 29.0778 29.3238C29.0329 29.3534 29.2462 29.83 28.4903 29.4679H28.3443C28.3705 29.346 28.7784 29.3719 28.6362 29.0319C27.8653 29.0135 28.1123 29.8152 27.7456 30.0332C27.4162 30.2327 27.4499 29.7783 27.3227 29.6785C27.1168 29.5159 26.8736 29.7598 26.8773 29.8263C26.8773 29.8891 27.6146 30.5467 27.6819 30.7684C28.0225 30.0553 27.9551 30.5541 28.0487 30.9125C28.0637 30.9642 28.03 31.0344 28.0487 31.0566C27.8578 31.1083 27.5322 31.3337 27.3227 31.3078C27.2778 31.2745 27.2254 31.2376 27.1655 31.2007C27.173 31.1933 27.3376 31.2191 27.3114 31.0566C27.2965 30.9716 26.3871 30.7647 26.2823 30.7647H26.2636C26.2636 30.7647 26.2786 30.7647 26.2823 30.7647C26.0952 30.7425 25.8669 30.798 25.6948 30.7647C25.6124 30.7499 25.4777 30.6502 25.2532 30.6206C24.9538 30.5763 24.7218 30.362 24.5234 30.6945L24.8153 31.2007C24.7292 31.2154 24.617 31.3152 24.5234 31.3447C24.5159 31.3411 24.4897 31.2746 24.3775 31.2007C23.977 30.942 24.0219 31.1305 23.644 31.3447C23.5953 31.0714 23.6926 30.8645 23.7899 30.6206C23.8124 30.5689 23.9134 30.5246 23.9359 30.4765C24.1978 29.9593 23.992 29.6526 23.4344 29.7746C23.2959 29.8041 23.0227 30.3214 22.8618 30.4211C22.6522 30.5504 22.2443 30.5061 22.031 30.7647C22.031 30.1145 21.567 30.5652 21.2863 30.41C21.1516 30.3324 21.305 29.9667 21.0767 29.8965C20.9495 29.8558 21.0505 30.192 20.9233 30.1957C19.7444 30.2142 20.5266 29.1613 20.4181 29.0283C20.2684 29.0578 20.1411 29.1723 19.9802 29.1723C19.9091 29.1723 19.7594 29.0283 19.6883 29.0283L19.2467 28.5923C19.2841 28.5443 19.2168 28.2709 19.2467 28.1563L19.6883 28.5886C20.4405 28.5369 19.737 27.809 19.243 28.0086C19.5386 27.3583 19.1831 27.6539 19.097 27.5726C18.8725 27.3657 18.3224 26.6859 18.0679 26.4125C17.8246 26.1502 17.6225 25.8251 17.3868 25.5554C17.297 25.4519 17.0799 25.4113 17.0575 25.3743C17.0387 25.3448 17.1622 24.7019 17.1884 24.6761C17.4504 24.3879 17.4729 24.9458 17.5552 24.9679C17.8471 25.0455 17.8284 24.7536 17.776 24.6059C17.6525 24.2512 16.8142 24.8608 17.0425 24.096C17.0313 23.8337 16.8367 23.5271 16.8965 23.2241C17.0462 23.1576 17.2371 23.128 17.3381 23.08C17.5215 22.9876 17.5851 22.8177 17.63 22.7881C17.8957 22.633 18.3149 22.7771 18.2176 22.3522L17.776 22.4224C18.0716 21.8017 17.8059 21.495 17.1922 21.7721C17.1473 21.7906 17.0724 21.75 17.0462 21.7721C16.7132 21.6022 17.1735 21.0074 17.0462 20.7561C16.7356 20.7598 17.0986 21.2549 16.6084 20.9002C16.6757 20.5492 16.8703 20.4421 17.05 20.1761C17.1585 20.2574 17.2708 20.4273 17.3419 20.468C17.6225 20.6231 17.6712 20.8115 18.154 20.7709C18.517 20.7414 18.3224 20.5123 18.3673 20.468C18.4047 20.4532 18.4271 20.4347 18.4421 20.4199C18.6367 20.3386 19.0147 20.383 19.1008 19.9581C19.1868 19.5332 18.8014 20.0061 18.517 19.7438C18.7976 19.2118 18.6217 19.2007 19.2505 18.9458C19.2579 18.8202 19.0559 18.8682 18.9586 18.8756C18.7303 18.8904 18.5768 18.9199 18.371 19.0197L18.3785 19.0234ZM21.451 15.8017C21.451 15.8017 21.4584 15.8202 21.4622 15.8313L21.4435 15.8091C21.4435 15.8091 21.451 15.8054 21.4547 15.8017H21.451ZM18.4421 34.1785C18.4421 34.1785 18.4346 34.1859 18.4309 34.1859C18.4309 34.1859 18.4384 34.1822 18.4384 34.1785H18.4421ZM18.8201 39.4728C18.7714 39.4691 18.7228 39.4765 18.6741 39.4728H18.8201ZM18.023 37.8767H18.0866C18.0679 37.8767 18.0454 37.8767 18.023 37.8767ZM22.6373 40.341C22.6373 40.341 22.6223 40.3188 22.626 40.3078C22.6373 40.3151 22.6485 40.3262 22.6597 40.3336C22.6522 40.3336 22.6448 40.3373 22.6373 40.341ZM17.6637 39.4728C17.6637 39.4728 17.645 39.4728 17.6413 39.4728C17.6487 39.4728 17.6562 39.4728 17.6637 39.4728ZM16.6159 40.4851C16.6159 40.4851 16.6121 40.4814 16.6046 40.4777C16.6046 40.4777 16.6121 40.4814 16.6159 40.4851ZM21.3162 37.5147C21.32 37.5405 21.3237 37.5664 21.3162 37.5849V37.5147ZM22.6148 43.4075C22.6148 43.4075 22.6073 43.4075 22.6036 43.4075C22.6073 43.4075 22.6111 43.4075 22.6186 43.4075H22.6148ZM14.2657 32.8004H14.1197C14.1684 32.8004 14.217 32.8004 14.2657 32.8004ZM33.1907 26.1724C33.1907 26.1724 33.2019 26.1465 33.2131 26.128C33.2131 26.128 33.2056 26.1465 33.1907 26.1724ZM13.2365 25.112C13.1916 25.1083 13.1542 25.1009 13.1168 25.0935C13.1505 25.0825 13.1916 25.0862 13.2365 25.112ZM10.7816 27.5763C10.7816 27.5763 10.819 27.5763 10.8414 27.5763H10.7441C10.7441 27.5763 10.7703 27.5763 10.7853 27.5763H10.7816ZM24.8565 33.9937C24.8565 33.9937 24.8453 33.9716 24.8415 33.9605C24.849 33.9716 24.849 33.9827 24.8565 33.9937ZM32.1129 16.4113C32.1391 16.4076 32.1653 16.4002 32.1877 16.4113H32.1129ZM31.6226 28.0603C31.6226 28.0603 31.6039 28.027 31.6002 28.0159C31.6151 28.0307 31.6226 28.0455 31.6226 28.0603ZM33.9466 17.3645C33.9466 17.383 33.9504 17.4052 33.9466 17.4236V17.3645ZM33.2131 13.803C33.2131 13.803 33.1981 13.803 33.1794 13.803C33.1907 13.803 33.2019 13.803 33.2131 13.803ZM20.6426 12.4951C20.6725 12.4951 20.7025 12.4914 20.7287 12.4951H20.6426ZM10.3849 42.192C10.3849 42.192 10.3587 42.2068 10.3474 42.2105C10.3325 42.2178 10.3175 42.2215 10.2988 42.2289C10.3287 42.2105 10.3549 42.1994 10.3811 42.192H10.3849ZM39.8221 18.8091C39.8221 18.7832 39.8146 18.7537 39.8221 18.7315V18.8091ZM32.7753 39.761C32.7753 39.761 32.7865 39.7794 32.7865 39.7942C32.7678 39.7794 32.7453 39.7647 32.7229 39.7462C32.7491 39.7462 32.7678 39.7499 32.7753 39.761ZM30.717 11.771C30.7769 11.7525 30.8068 11.7562 30.8143 11.771C30.7656 11.7783 30.7282 11.782 30.717 11.771ZM17.2371 57.8939C17.2371 57.8939 17.2521 57.905 17.2595 57.9086C17.2521 57.9086 17.2446 57.9087 17.2408 57.905C17.2408 57.905 17.2408 57.8976 17.2371 57.8939ZM33.7557 11.6047C33.7221 11.6121 33.6884 11.6158 33.6547 11.6269C33.6884 11.6121 33.7221 11.6047 33.7557 11.6047ZM31.1586 46.1452C31.1586 46.1452 31.1885 46.1378 31.2035 46.1341C31.1885 46.1489 31.1773 46.1599 31.1623 46.1747C31.1623 46.1636 31.1586 46.1562 31.1548 46.1452H31.1586ZM40.2562 25.9544C40.2562 25.9544 40.2637 25.9729 40.2637 25.9839C40.2637 25.9729 40.2562 25.9655 40.2562 25.9544ZM40.7315 19.4002C40.7315 19.4002 40.7202 19.4372 40.7053 19.4556C40.7053 19.4446 40.7165 19.4224 40.7315 19.4002ZM35.8664 16.0973C35.8664 16.0973 35.8739 16.0714 35.8814 16.0603C35.8926 16.0751 35.9039 16.0862 35.9151 16.101C35.9001 16.101 35.8851 16.101 35.8702 16.101L35.8664 16.0973ZM11.7621 17.8079C11.7621 17.782 11.762 17.7525 11.7695 17.7155C11.7695 17.7451 11.7658 17.7783 11.7621 17.8079ZM8.0983 40.9211L7.98603 40.8952C8.01972 40.8952 8.0534 40.9026 8.0983 40.9211ZM28.6587 45.9198C28.6587 45.8976 28.6512 45.8718 28.6587 45.8533V45.9198ZM36.8843 12.6392C36.9554 12.6613 37.0191 12.6909 37.0752 12.7242C37.0153 12.7242 36.9517 12.702 36.8843 12.6392ZM6.33567 23.6638C6.33567 23.6453 6.33567 23.6231 6.33567 23.6046C6.33567 23.6194 6.33941 23.6379 6.33567 23.6638ZM21.2264 60.0774C21.2264 60.0774 21.2751 60.0626 21.3162 60.0663C21.3125 60.0737 21.2713 60.0774 21.2264 60.0774ZM28.9094 50.4087C28.8795 50.3717 28.9094 50.3311 28.9656 50.2831C28.9468 50.3237 28.9281 50.3644 28.9094 50.4087ZM44.7769 26.0652C44.7769 26.0652 44.8069 26.1022 44.8143 26.128C44.7994 26.1059 44.7882 26.0837 44.7769 26.0652ZM30.4026 6.84241C30.4588 6.84241 30.5149 6.83871 30.571 6.84241C30.4962 6.86827 30.4438 6.86458 30.4026 6.84241ZM29.1003 7.27467C29.1003 7.27467 29.0853 7.27467 29.0778 7.27467C29.0816 7.27098 29.0891 7.26359 29.0928 7.25989C29.0928 7.26359 29.0965 7.27098 29.1003 7.27467ZM9.41935 16.3448C9.41935 16.319 9.41186 16.2931 9.41935 16.2672V16.3448ZM32.5694 47.8853C32.547 47.8853 32.5208 47.889 32.4796 47.8853C32.5133 47.8853 32.5432 47.8853 32.5694 47.8853ZM24.7068 6.11827H24.6956L24.703 6.11089C24.703 6.11089 24.703 6.11458 24.703 6.11827H24.7068ZM4.71898 30.7684C4.70401 30.7425 4.68904 30.7204 4.67407 30.6982C4.69278 30.7167 4.70775 30.7425 4.71898 30.7684ZM40.2487 10.1786C40.2487 10.1269 40.2487 10.0788 40.2637 10.0308C40.2637 10.0825 40.2562 10.1306 40.2487 10.1786ZM5.16057 25.1859V25.112C5.16057 25.112 5.16806 25.1564 5.16057 25.1859ZM21.3162 61.0823C21.2564 61.0342 21.1965 60.9899 21.1366 60.9493C21.1927 60.9825 21.2489 61.0232 21.3162 61.0823ZM32.3337 5.24266C32.3337 5.20572 32.3486 5.16138 32.3673 5.11705C32.3561 5.15769 32.3449 5.19833 32.3337 5.24266ZM43.3511 32.9962V32.9445C43.3511 32.9445 43.396 32.9334 43.4409 32.9408C43.411 32.9593 43.381 32.9777 43.3511 32.9962ZM34.6801 47.3755L34.725 47.3681C34.725 47.3681 34.725 47.3718 34.725 47.3755C34.71 47.3755 34.6951 47.3755 34.6801 47.3755ZM17.383 72.4024V72.4098H17.3756C17.3756 72.4098 17.3793 72.4024 17.383 72.3987V72.4024ZM32.6256 52.8175C32.6256 52.8175 32.633 52.8175 32.6368 52.8212C32.6368 52.8212 32.6368 52.8212 32.633 52.8212L32.6256 52.8139V52.8175ZM24.3999 63.6906C24.3999 63.6906 24.4336 63.6906 24.4523 63.6906H24.3999ZM42.539 7.13058C42.5128 7.13428 42.4866 7.13797 42.4679 7.13058H42.539ZM2.4848 37.4334L2.511 37.4408C2.511 37.4408 2.49229 37.4371 2.48106 37.4334H2.4848ZM5.01088 48.8976C4.96223 48.905 4.91358 48.8939 4.86493 48.8976H5.01088ZM46.4348 31.9285H46.5807C46.5321 31.9285 46.4834 31.9285 46.4348 31.9285ZM13.0906 70.363C13.1093 70.4037 13.0681 70.4739 13.0906 70.5071C13.0419 70.4886 12.9933 70.4739 12.9521 70.4591C13.0045 70.4332 13.0532 70.4 13.0906 70.3593V70.363ZM34.9757 52.3779C34.9757 52.4703 35.0356 52.5515 35.1629 52.618C34.8186 52.4555 34.755 52.3779 34.9757 52.3779ZM8.39021 9.30668H8.30413C8.33781 9.30299 8.36775 9.2956 8.39021 9.30668ZM1.94217 20.032C1.94217 20.032 1.92345 20.0542 1.91971 20.0616C1.91971 20.0505 1.91971 20.0394 1.9272 20.0357C1.9272 20.0357 1.93468 20.032 1.94217 20.032ZM7.42094 57.166H7.21511C7.27125 57.1513 7.3461 57.1623 7.42094 57.166ZM10.4522 65.283C10.4522 65.283 10.4522 65.283 10.456 65.2867C10.456 65.2867 10.4522 65.2867 10.4485 65.2867C10.4485 65.2867 10.4485 65.2867 10.4485 65.283H10.4522ZM37.3259 49.7695C37.3147 49.7067 37.3821 49.5959 37.4719 49.6254C37.4644 49.6883 37.4681 49.7437 37.4794 49.788C37.4345 49.7732 37.3858 49.7658 37.3259 49.7695Z" fill="#7162F0"/>
</svg>
