<svg width="16" height="20" viewBox="0 0 16 20" fill="none" xmlns="http://www.w3.org/2000/svg">
<g clip-path="url(#clip0_61_4288)">
<path d="M11.7583 19.5613C11.7505 19.5626 11.7438 19.5637 11.7374 19.5651C11.7433 19.5654 11.7502 19.5646 11.7583 19.5613Z" fill="#20293F"/>
<path d="M15.9373 6.39361C15.9345 6.38539 15.9401 6.37416 15.9373 6.36622C15.8729 6.18981 15.7787 6.21885 15.7427 6.15366C15.6923 6.06217 15.7416 5.93178 15.6585 5.87344C15.6477 5.86577 15.6326 5.84632 15.6307 5.84604V5.81865C15.6254 5.74661 15.5989 5.72196 15.5471 5.68169C15.5055 5.64964 15.5395 5.71155 15.4913 5.62691C15.3765 5.42558 15.2109 5.30012 14.9899 5.24369C14.9812 5.2415 14.9709 5.24561 14.962 5.24369C14.9439 5.23986 14.8555 5.21931 14.8505 5.2163C14.8466 5.21384 14.8706 5.15577 14.8109 5.16015C14.7563 5.16398 14.7304 5.20206 14.6836 5.22972C14.6755 5.23027 14.666 5.23465 14.6557 5.24369C14.5983 5.2667 14.5208 5.27766 14.4606 5.29848C14.4762 5.18316 14.3781 5.32313 14.3067 5.31409C14.2822 5.31108 14.2591 5.27246 14.2518 5.27273C14.2312 5.27382 14.2086 5.3434 14.1824 5.36422C14.1687 5.37518 14.1264 5.36696 14.0988 5.38038C14.0871 5.38613 14.0784 5.39764 14.0709 5.40777C13.989 5.43434 13.8549 5.47187 13.8201 5.54473C13.7691 5.54857 13.7409 5.56719 13.7086 5.57212C13.5227 5.60116 13.5519 5.61129 13.402 5.68169C13.3741 5.69484 13.3473 5.72086 13.3184 5.73648C13.2849 5.75455 13.2411 5.7247 13.179 5.79126C13.1709 5.79975 13.1528 5.81235 13.1511 5.81865C13.1085 5.83947 12.9895 5.85837 12.9627 5.88028C12.9354 5.90275 12.9415 5.95479 12.9281 5.983C12.9159 6.00903 12.8306 6.01834 12.9003 6.11969H12.7888L12.8169 6.31143C12.808 6.31061 12.7983 6.31143 12.7891 6.31143C12.7113 6.31006 12.6416 6.32486 12.5661 6.33883C12.5374 6.34403 12.4822 6.32513 12.4599 6.34321C12.422 6.37389 12.4195 6.52482 12.4131 6.53221C12.3637 6.59083 12.3712 6.51277 12.2854 6.67246C12.2729 6.69574 12.2349 6.71191 12.2319 6.72204C12.209 6.79408 12.2963 6.75217 12.2873 6.81736C12.2556 6.90228 12.1039 6.74204 12.1485 6.9409C12.1533 6.94775 12.1881 6.92063 12.204 6.91351C12.2531 6.91871 12.172 7.00856 12.1653 7.01404C12.1427 7.03321 11.9813 7.10799 11.9788 7.12169C11.9732 7.15511 12.0136 7.22907 12.012 7.28385C12.0111 7.30768 11.8244 7.4997 12.0081 7.51531L12.1201 7.43341C12.131 7.43971 12.1391 7.45615 12.148 7.4608C12.1327 7.46382 12.1276 7.48244 12.1201 7.48819C12.0947 7.50709 12.0131 7.54024 12.0097 7.56024C11.9824 7.72486 12.1051 7.69309 12.1201 7.70733C12.1274 7.71445 12.0906 7.80622 12.092 7.84402C12.0936 7.88675 12.1087 7.88127 12.1198 7.8988C12.1268 7.90976 12.1625 7.91743 12.1689 7.93249C12.1831 7.96673 12.1683 8.02398 12.1767 8.03467C12.1856 8.0459 12.2408 8.02891 12.2589 8.03576C12.3785 8.08041 12.3991 8.07411 12.5098 8.09054L12.4262 8.1456C12.4557 8.20833 12.6667 8.20121 12.742 8.19765C12.8484 8.19244 12.9535 8.133 13.0672 8.17245L13.0533 8.11766C13.2141 8.21956 13.2292 8.17464 13.3178 8.03576C13.3563 8.04562 13.4508 7.92701 13.4151 8.09027C13.4594 8.07767 13.48 7.98454 13.4853 7.98098C13.4948 7.97468 13.5441 8.05603 13.6539 8.02426C13.7345 8.00097 13.6949 7.95112 13.713 7.93331C13.7192 7.92729 13.8312 7.89277 13.875 7.87141C13.926 7.84648 14.0163 7.84073 13.9586 7.76184C14.0514 7.75253 14.0804 7.70569 14.1816 7.67966C14.3304 7.64132 14.3814 7.68021 14.5436 7.62488C14.5955 7.60735 14.7273 7.55174 14.768 7.52654C14.8238 7.49203 14.7808 7.46573 14.8781 7.43314C14.9601 7.40574 15.0336 7.44163 14.9339 7.32357C15.059 7.37972 15.0456 7.297 15.0615 7.29426C15.098 7.28741 15.1426 7.32439 15.1566 7.32357C15.3009 7.31727 15.3807 7.16223 15.4991 7.08964C15.5482 7.05951 15.6535 7.02965 15.7137 6.99514C15.7405 6.9798 15.8021 6.95432 15.813 6.94118C15.8288 6.92173 15.7976 6.89516 15.7973 6.88557C15.7957 6.84037 15.8506 6.86503 15.881 6.85818C15.8969 6.85462 15.9186 6.86064 15.9364 6.85818L15.9088 6.77628C15.9047 6.74998 15.9239 6.75491 15.9367 6.74888C15.947 6.74423 15.9816 6.75765 15.9897 6.74724C16.024 6.70396 15.9596 6.46154 15.9367 6.39279L15.9373 6.39361ZM15.9537 6.5418C15.9529 6.53879 15.952 6.53577 15.9509 6.53276C15.9554 6.53221 15.9601 6.53167 15.9649 6.53112C15.9607 6.53495 15.9573 6.53824 15.9537 6.5418ZM13.2027 6.29664C13.1949 6.30404 13.1874 6.31143 13.1801 6.3191C13.1801 6.31746 13.1804 6.31582 13.1809 6.31445C13.1882 6.30842 13.1954 6.30267 13.2027 6.29692V6.29664ZM15.0456 6.44839C15.0506 6.4473 15.0554 6.44648 15.0604 6.44565C15.0551 6.44702 15.0501 6.44812 15.0456 6.44839ZM12.6776 7.02335C12.6776 7.02609 12.6765 7.0302 12.6745 7.03458C12.6756 7.03075 12.6767 7.02691 12.6776 7.02335ZM13.7102 5.88193C13.7089 5.89124 13.7052 5.89781 13.6971 5.90138C13.7016 5.89562 13.7058 5.88905 13.7102 5.88193ZM13.2512 7.97632C13.249 7.97687 13.2467 7.97714 13.2445 7.97769C13.2462 7.97605 13.2484 7.9755 13.2512 7.97632ZM15.4052 5.52282C15.4035 5.52145 15.4018 5.5198 15.4002 5.51816C15.4027 5.51816 15.4052 5.51816 15.4077 5.51761L15.4052 5.52254V5.52282ZM15.2402 5.35682C15.2385 5.35518 15.2366 5.35354 15.2349 5.35217C15.2368 5.35271 15.2385 5.35299 15.2407 5.35354V5.35655L15.2402 5.35682Z" fill="#20293F"/>
<path d="M15.3882 13.1361C15.3684 13.0972 15.1817 12.9633 15.1345 12.9375C15.098 12.9176 15.0378 12.9367 15.0169 12.9206C14.996 12.9041 14.9985 12.8532 14.9726 12.8521C14.9542 12.8513 14.9389 12.8814 14.9344 12.8817C14.9074 12.8833 14.8751 12.8773 14.8508 12.8817C14.748 12.8132 14.7251 12.7789 14.5999 12.7447C14.5849 12.7406 14.5615 12.748 14.5442 12.7447C14.5205 12.7403 14.4938 12.7195 14.4606 12.7173C14.4517 12.7168 14.4416 12.7165 14.4327 12.7173C14.3561 12.7244 14.3817 12.7705 14.3644 12.7691C14.2028 12.7573 14.2981 12.777 14.2379 12.7995C14.2242 12.8047 14.1975 12.7948 14.1821 12.7995C14.1604 12.8063 14.1189 12.7926 14.0985 12.7995C14.0907 12.8022 14.0096 12.8614 13.9592 12.8817C13.8337 12.9323 13.856 12.8992 13.7362 12.9912C13.7033 13.0164 13.6807 13.0523 13.6526 13.0734C13.6002 13.1123 13.4427 13.1665 13.4028 13.1959C13.3552 13.2309 13.361 13.2539 13.3518 13.2799C13.3499 13.283 13.3479 13.2871 13.346 13.2925C13.3421 13.2994 13.3501 13.3131 13.346 13.3199C13.3106 13.324 13.2676 13.3139 13.2345 13.3199C13.1174 13.3408 13.0957 13.4213 13.0672 13.4295C13.033 13.4394 12.9725 13.4133 12.9343 13.4364C12.9215 13.444 12.9167 13.4851 12.8983 13.4952C12.8429 13.5265 12.7475 13.5131 12.7606 13.5939C12.7512 13.6018 12.742 13.6125 12.7328 13.6213C12.6124 13.6265 12.6335 13.7366 12.5934 13.813C12.5862 13.827 12.5678 13.8656 12.5655 13.8678C12.4989 13.9341 12.352 13.9269 12.369 14.099C12.371 14.1195 12.4563 14.114 12.4259 14.1412C12.4122 14.1535 12.3648 14.1439 12.335 14.2022C12.3169 14.2378 12.2929 14.3671 12.2868 14.4151C12.2804 14.4668 12.2851 14.4584 12.2868 14.4972C12.291 14.5997 12.2837 14.5427 12.2589 14.6068C12.049 14.7019 12.2049 14.7399 12.2274 14.7758C12.2347 14.7873 12.2023 14.9489 12.209 14.9585C12.2305 14.9889 12.3531 14.9985 12.3152 15.1273C12.3983 15.0785 12.4476 15.1462 12.5204 15.1596C12.5722 15.1692 12.6547 15.1763 12.7049 15.1818C12.8142 15.1936 12.8621 15.2423 12.9418 15.1275C12.9928 15.1552 12.9541 15.1788 12.9557 15.1818C12.9485 15.3168 13.3206 15.3382 13.3457 15.2092C13.3605 15.2081 13.3839 15.1873 13.4014 15.1818C13.4137 15.1968 13.4173 15.1979 13.4293 15.2092C13.4731 15.1637 13.5149 15.1659 13.5687 15.1544C13.5714 15.1538 13.5932 15.1779 13.6261 15.1692C13.7016 15.1492 13.8368 15.0785 13.7914 14.99C13.8006 14.99 13.81 14.99 13.8192 14.99C13.8421 15.124 13.8828 15.0465 13.9402 15.0024C13.9463 14.9985 13.9522 14.9947 13.9586 14.99C13.9895 14.9728 14.0865 14.9128 14.098 14.9079C14.1802 14.8728 14.3418 14.8238 14.4322 14.7983C14.4606 14.7903 14.5099 14.804 14.5436 14.7983C14.5481 14.7953 14.5138 14.7462 14.5155 14.7438C14.5183 14.7399 14.5386 14.729 14.5712 14.689C14.5852 14.6975 14.5944 14.7378 14.617 14.7438C14.6766 14.7594 14.8182 14.5939 14.8709 14.5518C14.9213 14.5115 15.0495 14.492 15.0451 14.388L14.9893 14.3334L14.9054 14.4153C14.8873 14.4058 14.8502 14.4011 14.8218 14.388C14.8229 14.3789 14.8424 14.3414 14.8497 14.3332C14.853 14.3293 14.9286 14.2798 14.9333 14.2784C14.9481 14.2743 14.9712 14.2811 14.9891 14.2784C15.0063 14.2756 15.09 14.3028 15.1284 14.2784L15.1 14.2242C15.202 14.2318 15.1711 14.2272 15.1839 14.1691C15.1892 14.1458 15.1803 14.1129 15.1839 14.0869C15.2115 14.079 15.2341 14.0653 15.2675 14.0595C15.2848 14.0565 15.3051 14.0614 15.3232 14.0595C15.2837 13.982 15.3232 13.9823 15.3232 13.95C15.3232 13.9135 15.3238 13.8768 15.3232 13.8404C15.3232 13.8313 15.3232 13.822 15.3232 13.813L15.4088 13.4229C15.4986 13.3903 15.4236 13.323 15.3965 13.24C15.3874 13.2115 15.4049 13.172 15.3868 13.1367L15.3882 13.1361ZM13.3487 14.2398C13.3487 14.2447 13.3479 14.2485 13.3462 14.2507C13.3454 14.2515 13.3409 14.2521 13.334 14.2526C13.3396 14.2491 13.3443 14.2447 13.3487 14.24V14.2398ZM12.7891 14.2778C12.7882 14.2737 12.7885 14.2696 12.7891 14.2655V14.2778ZM14.2658 14.4419C14.2688 14.4463 14.2708 14.4501 14.2722 14.4537C14.2694 14.4493 14.2672 14.4452 14.2658 14.4419ZM14.4213 13.1441L14.4327 13.1553C14.4288 13.1537 14.4252 13.149 14.4213 13.1441ZM12.8011 13.7853C12.805 13.7848 12.81 13.7845 12.8169 13.7853C12.8111 13.7853 12.8058 13.7853 12.8011 13.7853ZM14.7951 13.0457C14.8017 13.0452 14.8079 13.0449 14.814 13.0447C14.809 13.0455 14.8031 13.0457 14.7951 13.0457ZM13.7604 15.0725C13.7624 15.0703 13.7643 15.0684 13.766 15.0662C13.7657 15.0686 13.7652 15.0708 13.7638 15.0717C13.7629 15.0722 13.7615 15.0722 13.7604 15.0722V15.0725Z" fill="#20293F"/>
<path d="M15.6845 8.05195C15.6555 8.03113 15.6009 8.03552 15.5602 8.01004C15.468 7.95307 15.2514 7.80077 15.1399 7.79091C14.9844 7.77748 14.7709 7.87007 14.6031 7.79255L14.5585 7.87144L14.5161 7.78981H14.4894C14.4972 7.88678 14.3726 7.84213 14.3213 7.86295C14.1387 7.9369 14.0155 8.00484 13.848 8.09112C13.8204 8.10537 13.7934 8.13057 13.7644 8.14591C13.661 8.20069 13.5244 8.20754 13.4578 8.31026C13.3845 8.26177 13.2117 8.29875 13.234 8.40613C13.2395 8.4327 13.3048 8.4012 13.2903 8.4464C13.2716 8.4464 13.244 8.46064 13.2348 8.47434C13.1952 8.44366 13.1345 8.44119 13.0954 8.47434C13.0712 8.49488 13.0732 8.5398 13.0609 8.54884C13.0174 8.58116 12.8474 8.57925 12.8446 8.72059C12.8382 8.73045 12.8585 8.78359 12.8407 8.79811C12.8326 8.80468 12.7757 8.8066 12.7334 8.83016C12.674 8.86303 12.6185 8.90932 12.5661 8.93973C12.5592 8.94329 12.5522 8.9474 12.5455 8.95178C12.5057 8.97506 12.4669 8.99752 12.4268 9.0219C12.3471 9.07066 12.3674 9.0093 12.3153 9.10408C12.271 9.18488 12.2448 9.27637 12.2038 9.35033C12.1614 9.42703 12.0522 9.53934 12.0427 9.56152C12.0106 9.63494 11.9797 9.75573 12.0923 9.76094C11.9412 9.79025 12.0335 9.87078 12.0343 9.94118C12.0343 9.94994 11.8905 9.96446 12.0511 10.0351L12.07 9.985C12.0851 9.97131 12.0887 10.0072 12.0923 10.0072C12.0728 10.0896 12.1472 10.0439 12.1779 10.0792C12.2027 10.108 12.2161 10.1294 12.2303 10.1507C12.2303 10.157 12.2303 10.1639 12.2317 10.1713C12.2359 10.1718 12.24 10.1718 12.2445 10.1718C12.2601 10.194 12.2799 10.2187 12.3153 10.2534C12.3607 10.2978 12.3749 10.2904 12.3989 10.3082C12.4045 10.3123 12.4031 10.3836 12.4839 10.4036C12.5307 10.4151 12.5859 10.3849 12.5937 10.3901C12.6027 10.3962 12.6093 10.5065 12.6277 10.5219C12.6598 10.5487 12.89 10.5931 12.9424 10.5822C12.972 10.5761 12.9126 10.5033 12.9285 10.4726C12.9597 10.4803 13.0007 10.4898 13.04 10.5C13.0545 10.5044 13.0673 10.5074 13.0784 10.5098C13.1484 10.5274 13.2217 10.5444 13.2906 10.5548C13.5372 10.592 13.6827 10.5093 13.8477 10.5274V10.5548C13.8109 10.6504 13.7449 10.5605 13.7098 10.583C13.7034 10.5871 13.6989 10.6487 13.6808 10.6643C13.6746 10.6695 13.5517 10.7416 13.5414 10.7465C13.4678 10.7807 13.3889 10.7355 13.3753 10.7473C13.3697 10.7523 13.3134 10.8777 13.3184 10.8832C13.3271 10.8928 13.3859 10.8618 13.3742 10.9106L13.1236 10.9111L13.2348 10.9659C13.2423 11.0185 13.1757 10.9823 13.1515 10.993C13.1141 11.0092 13.1152 11.024 13.0957 11.0478C13.0879 11.0571 13.0732 11.0651 13.0679 11.0752C13.0414 11.0733 13.016 11.0215 13.0121 11.0204L13.0679 10.8837C12.9455 10.8525 13.0021 10.9456 12.9578 10.9818C12.9318 11.0029 12.8624 10.9602 12.8098 10.9695C12.7649 10.9774 12.7194 11.0254 12.6779 11.0478C12.606 11.0867 12.5059 11.1352 12.4544 11.1976C12.4128 11.2478 12.405 11.276 12.4831 11.267C12.4817 11.2749 12.4823 11.2861 12.4831 11.2943C12.4842 11.3042 12.4803 11.3168 12.4831 11.3217C12.3855 11.3661 12.3298 11.4614 12.2601 11.5409C12.2504 11.548 12.2414 11.5595 12.2322 11.5683C12.206 11.5926 12.0748 11.8071 12.0703 11.834C12.0561 11.9194 12.0987 11.9572 12.1486 12.0063H12.1207C12.0129 11.9783 12.0076 12.3919 12.1207 12.3621H12.1486C12.1495 12.3689 12.1687 12.3898 12.1759 12.4029C12.1754 12.4062 12.1748 12.4097 12.1745 12.4133C12.1678 12.4133 12.1522 12.407 12.121 12.3895C12.1143 12.398 12.1843 12.5609 12.2044 12.5812C12.2147 12.5916 12.2598 12.6026 12.2855 12.6237C12.3147 12.6475 12.3253 12.7034 12.3624 12.7157C12.4028 12.7294 12.434 12.6933 12.4552 12.6908C12.4993 12.7943 12.4884 12.8691 12.6224 12.8825C12.7233 12.8924 12.8028 12.851 12.8872 12.8529C12.9736 12.8549 13.0517 12.8828 13.152 12.8825C13.2323 12.8825 13.3477 12.9107 13.3471 12.8004C13.3717 12.7908 13.3995 12.7341 13.4444 12.7453L13.4308 12.8275C13.4726 12.7943 13.5972 12.8009 13.6069 12.7973C13.6189 12.793 13.7078 12.7039 13.7159 12.7004C13.7321 12.693 13.7686 12.7228 13.7939 12.7069C13.8226 12.6889 13.8126 12.6505 13.821 12.6363C13.831 12.6187 13.8377 12.5982 13.8488 12.5815C13.8558 12.5708 13.867 12.5626 13.8767 12.5541C13.9336 12.7374 13.9146 12.662 13.9966 12.5883C14.0342 12.5546 14.1028 12.6324 14.0437 12.4993C14.0702 12.4867 14.0891 12.4727 14.0994 12.4445C14.1086 12.4445 14.1181 12.444 14.1273 12.4445C14.1641 12.4467 14.2023 12.4407 14.2388 12.4445C14.2689 12.4475 14.3634 12.4604 14.3781 12.4725C14.3815 12.4752 14.3071 12.5483 14.4055 12.5267C14.425 12.3613 14.4662 12.4495 14.5178 12.4297C14.6407 12.3824 14.566 12.261 14.573 12.2533C14.6215 12.2024 14.6482 12.3322 14.6705 12.3347C14.7154 12.3399 14.6825 12.2572 14.6861 12.2553C14.7082 12.2435 14.7622 12.2599 14.8121 12.2281C14.8665 12.1936 15.017 12.0002 14.9911 11.9246L15.0741 11.9523C15.0616 11.8534 15.1385 11.8277 15.1672 11.7816C15.2065 11.7189 15.2567 11.5921 15.2974 11.5414C15.3701 11.4505 15.4289 11.4669 15.437 11.459C15.4412 11.4551 15.4008 11.396 15.4094 11.3661C15.4276 11.3031 15.5538 11.3642 15.4365 11.2404C15.5797 11.2639 15.5148 11.1497 15.5201 11.1031C15.5223 11.0853 15.5167 11.0645 15.5201 11.0484C15.5516 10.8909 15.6009 10.9196 15.5758 10.7199C15.57 10.6731 15.5619 10.6525 15.548 10.6104C15.5429 10.5953 15.5535 10.5676 15.548 10.5556C15.5212 10.497 15.1151 10.274 15.0187 10.3093C14.9827 10.2989 14.9442 10.2885 14.9072 10.2819C14.816 10.2655 14.7115 10.2625 14.6195 10.2652C14.5498 10.2674 14.2672 10.3414 14.2943 10.2411L14.4057 10.1724C14.4149 10.1718 14.4244 10.1724 14.4336 10.1724C14.5535 10.1702 14.5838 10.088 14.7121 10.0899L14.6566 10.0357C14.9013 10.094 14.8988 9.90968 15.0747 9.87078C15.0136 9.74039 15.0844 9.77327 15.0945 9.75601C15.1009 9.74505 15.0691 9.71136 15.0741 9.70698C15.0917 9.69218 15.267 9.77765 15.1859 9.6248C15.3933 9.69958 15.2926 9.59549 15.352 9.55495C15.3779 9.53715 15.4289 9.55139 15.4571 9.5355C15.5084 9.50647 15.4928 9.41361 15.4981 9.4095C15.6678 9.28761 15.7191 9.23857 15.7431 9.02245C15.7534 9.01862 15.7771 9.03231 15.793 9.01725C15.8094 9.00163 15.9028 8.74524 15.9078 8.70525C15.9343 8.4957 15.864 8.18152 15.6854 8.0525L15.6845 8.05195ZM12.9285 9.81572V9.78833C12.9285 9.7971 12.9302 9.80723 12.9285 9.81572ZM13.4023 10.1978L13.4032 10.1954C13.4032 10.1954 13.4059 10.197 13.4073 10.1978L13.4026 10.1987C13.4026 10.1987 13.4026 10.1981 13.4026 10.1978H13.4023ZM13.0957 10.363C13.1141 10.3619 13.1331 10.3641 13.1515 10.363H13.0957ZM12.7303 11.545C12.7303 11.545 12.7303 11.5422 12.7298 11.5411C12.7309 11.5411 12.732 11.5411 12.7331 11.5406C12.732 11.5422 12.7312 11.5436 12.7303 11.545ZM15.3523 10.7054C15.3523 10.7054 15.3523 10.7054 15.3523 10.7051C15.3523 10.7051 15.3523 10.7051 15.3523 10.7054ZM14.9498 7.89171C14.9665 7.88815 14.983 7.88568 14.9991 7.88376C14.9902 7.88842 14.981 7.89171 14.9713 7.89308C14.9638 7.89417 14.9565 7.89335 14.9498 7.89171ZM13.7365 10.3907C13.7365 10.3907 13.7374 10.391 13.7379 10.3912C13.7374 10.3921 13.7365 10.3929 13.736 10.3937C13.7362 10.3926 13.736 10.3915 13.7365 10.3907ZM15.5912 9.0786C15.5887 9.07093 15.5912 9.06189 15.602 9.05039C15.5981 9.05916 15.5945 9.06874 15.5912 9.0786ZM15.3623 7.94184C15.3498 7.93745 15.3372 7.9328 15.3244 7.92677C15.3378 7.9317 15.3503 7.93663 15.3623 7.94184ZM12.1737 11.7523C12.1821 11.7367 12.1915 11.7208 12.2038 11.7047C12.1954 11.7228 12.1846 11.7384 12.1737 11.7523ZM13.4968 12.6727C13.4977 12.6691 13.4979 12.6653 13.4982 12.6615C13.5116 12.6587 13.5258 12.6502 13.5381 12.639C13.535 12.6475 13.5356 12.656 13.5417 12.6626C13.5319 12.6711 13.5225 12.6804 13.5138 12.69C13.5068 12.6815 13.5016 12.676 13.4971 12.6727H13.4968ZM13.5626 12.6075C13.5673 12.5982 13.5701 12.5889 13.5693 12.5804C13.5894 12.5716 13.6097 12.5653 13.63 12.5607C13.6253 12.5656 13.6231 12.5719 13.625 12.5804C13.6075 12.5793 13.5818 12.5916 13.5626 12.6075ZM15.1572 10.3359L15.1519 10.3512C15.1424 10.3477 15.1327 10.3447 15.1232 10.3414C15.1338 10.3414 15.1449 10.34 15.1572 10.3359Z" fill="#20293F"/>
<path d="M12.6818 15.6091C12.6901 15.6127 12.6982 15.616 12.7055 15.6193C12.6971 15.6152 12.6893 15.6119 12.6818 15.6091Z" fill="#20293F"/>
<path d="M14.1074 16.9741C14.1055 16.953 14.1431 16.9218 14.1412 16.8758C14.1387 16.8149 14.0957 16.7514 14.0779 16.6933C14.0601 16.635 14.1166 16.6525 14.0428 16.5772C14.0347 16.569 14.0224 16.5528 14.0149 16.5498C14.016 16.5229 14.0166 16.4945 14.0149 16.4676C14.0132 16.4405 14.0166 16.4126 14.0149 16.3854C13.8884 16.4969 13.9603 16.3854 13.8758 16.358C13.8683 16.3556 13.8574 16.3597 13.8479 16.358L13.7643 16.3033C13.7632 16.2627 13.7451 16.2641 13.7365 16.2485C13.7284 16.2337 13.7161 16.1989 13.7086 16.1937C13.7091 16.1885 13.7089 16.1833 13.7083 16.1786V16.1562C13.7326 16.126 13.7749 16.1551 13.764 16.1121C13.7239 16.1126 13.6885 16.1006 13.6528 16.0844C13.6219 16.0704 13.5714 16.0455 13.5413 16.0296C13.5341 16.0258 13.5202 16.0335 13.5135 16.0296C13.4998 16.0217 13.4931 16.0072 13.4856 16.0022C13.46 15.9852 13.4312 15.9231 13.3741 15.9201C13.3688 15.9143 13.3482 15.8935 13.3462 15.8927C13.3206 15.845 13.2735 15.8518 13.2347 15.8379C13.1587 15.8102 13.181 15.8179 13.1233 15.7831C13.1107 15.782 13.0985 15.7804 13.0859 15.7787C13.0985 15.7798 13.1107 15.7812 13.1233 15.7831C13.0179 15.7193 12.8916 15.7091 12.7612 15.6461C12.7434 15.6376 12.7224 15.6264 12.7054 15.6187C12.6946 15.6144 12.6787 15.6086 12.6617 15.6026C12.6681 15.6039 12.6748 15.6059 12.6818 15.6083C12.5825 15.5667 12.4131 15.5073 12.3459 15.4656C12.2843 15.4275 12.2411 15.3434 12.1761 15.3174C12.1683 15.3144 12.1569 15.3202 12.1483 15.3174C12.1363 15.3125 12.1246 15.3065 12.1137 15.2991C12.0889 15.2739 12.121 15.2413 12.1182 15.238C12.1118 15.2298 12.0555 15.2254 12.0368 15.2079C12.0273 15.1991 12.017 15.1862 12.0089 15.1805C11.9668 15.1514 11.954 15.066 11.842 15.0986L11.8695 15.1805C11.8197 15.1843 11.7787 15.2024 11.7305 15.2076C11.7179 15.1731 11.7561 15.1424 11.7581 15.1257C11.7634 15.0821 11.7547 15.0331 11.7581 14.9887C11.7274 15.0153 11.6895 14.9874 11.6747 14.9887C11.6817 14.9189 11.6332 14.88 11.619 14.8518C11.5891 14.7929 11.5507 14.7751 11.5632 14.7148C11.5811 14.6828 11.6218 14.5335 11.619 14.4957C11.6179 14.4814 11.5964 14.4579 11.5911 14.4409C11.6137 14.4351 11.6485 14.4453 11.6747 14.4409C11.6906 14.3924 11.6616 14.3834 11.6468 14.359C11.6321 14.3343 11.6204 14.3146 11.5911 14.3042C11.5953 14.3009 11.5819 14.253 11.6036 14.2513C11.6128 14.2508 11.6482 14.2768 11.6747 14.2768C11.6912 14.2768 11.714 14.2831 11.7263 14.2735C11.7728 14.1845 11.7636 14.0949 11.7305 14.0032C11.7319 14.0021 11.7271 13.9711 11.7581 13.9758L11.7859 14.0303C11.8263 13.9522 11.8241 13.8509 11.842 13.784C11.8489 13.7583 11.8623 13.7325 11.8698 13.7018C11.886 13.6356 11.8863 13.5945 11.8977 13.5375C11.9033 13.509 11.9568 13.5274 11.9256 13.4279C11.9211 13.4134 11.9069 13.3855 11.8977 13.3731C11.8626 13.3255 11.8213 13.3326 11.8144 13.2912C11.9161 13.2507 11.9086 13.3948 11.9671 13.3729C12.0262 13.3507 11.9813 13.2225 11.9816 13.1814C11.9824 13.1789 11.9827 13.1767 11.9833 13.1746C11.9905 13.157 12.0173 13.125 12.0092 13.0995C11.9911 13.1003 11.971 13.0968 11.9534 13.0995C11.913 13.1058 11.8615 13.1187 11.8141 13.1269C11.8049 13.1285 11.7948 13.125 11.7862 13.1269C11.7765 13.1291 11.7622 13.1233 11.7583 13.1269C11.7486 13.1091 11.7419 13.0891 11.7305 13.0721C11.8027 13.0781 11.8584 13.0751 11.9256 13.0447C12.1115 12.9609 12.0284 12.8689 11.9256 12.7711C11.8946 12.7415 11.8612 12.7327 11.842 12.7163C11.7305 12.6207 11.799 12.6426 11.7717 12.5821C11.743 12.5185 11.7146 12.4859 11.6471 12.47C11.5236 12.4048 11.6457 12.4257 11.6485 12.398C11.6574 12.3098 11.5747 12.123 11.5359 12.032C11.5105 11.9726 11.4593 11.9175 11.4244 11.8403C11.384 11.7504 11.4439 11.7403 11.3408 11.7033C11.3433 11.6732 11.3745 11.6176 11.3687 11.5938C11.367 11.5875 11.3536 11.5812 11.3405 11.574C11.3402 11.574 11.34 11.5738 11.3394 11.5735C11.326 11.5664 11.3132 11.5584 11.3129 11.5494C11.3099 11.4647 11.3965 11.4658 11.2572 11.3752L11.3411 11.388C11.2867 11.3365 11.3731 11.2779 11.4241 11.2379C11.4339 11.2303 11.4417 11.2171 11.452 11.2105C11.4899 11.2327 11.5577 11.1829 11.5635 11.1832C11.5925 11.1845 11.6204 11.2475 11.6608 11.2382L11.6895 11.1558C11.8439 11.2199 11.7622 11.1558 11.7859 11.0654C11.7954 11.0289 11.8762 11.0634 11.8704 10.9095C11.8698 10.8914 11.8715 10.8731 11.8704 10.855C11.8213 10.8328 11.7801 10.8786 11.7592 10.8824C11.7503 10.884 11.7399 10.8805 11.7313 10.8824C11.7157 10.8427 11.7528 10.8186 11.7592 10.8002C11.7912 10.7884 11.9197 10.7539 11.8983 10.7049C11.8751 10.6526 11.8169 10.6945 11.8152 10.6909C11.8046 10.6682 11.8383 10.6183 11.8344 10.5931C11.8333 10.5863 11.7483 10.5142 11.7313 10.4992C11.6744 10.3767 11.5677 10.2726 11.5409 10.2217C11.5348 10.2102 11.539 10.0858 11.4804 9.979C11.4763 9.9716 11.4919 9.94394 11.474 9.92969C11.4398 9.90175 11.4096 9.96886 11.3968 9.86971C11.5058 9.89217 11.4219 9.74041 11.4247 9.65057C11.4278 9.55086 11.4991 9.41472 11.4247 9.32214C11.4325 9.25749 11.4442 9.19477 11.4526 9.13039C11.5225 9.06712 11.5047 8.90551 11.5365 8.81594C11.4846 8.79375 11.44 8.87921 11.4526 8.77457C11.5811 8.79676 11.5158 8.73157 11.5376 8.68692C11.5524 8.65624 11.5716 8.67678 11.5919 8.61049C11.6067 8.59105 11.6357 8.57434 11.6477 8.55571C11.6535 8.55078 11.6591 8.54585 11.6641 8.54119C11.7154 8.50887 11.835 8.50586 11.8414 8.49956C11.8528 8.4886 11.8392 8.43436 11.8406 8.40396C11.8414 8.39985 11.8422 8.39574 11.8425 8.39136C11.845 8.38451 11.9423 8.32534 11.9537 8.29549C11.9557 8.267 11.9033 8.28919 11.8983 8.28206C11.8971 8.27083 11.8955 8.26043 11.8938 8.25056C11.8977 8.20071 11.9245 8.12264 11.8425 8.14538C11.8417 8.14291 11.811 8.14291 11.8138 8.10456C11.8149 8.08868 11.9136 8.09662 11.8573 8.00787C11.8339 7.97089 11.6694 7.8983 11.6198 7.89912C11.6106 7.89912 11.5931 7.89748 11.5919 7.89912C11.5504 7.83119 11.5652 7.75395 11.5641 7.67999C11.5635 7.64767 11.6167 7.64328 11.5641 7.57042C11.5688 7.59261 11.5657 7.6074 11.5585 7.61726C11.5596 7.60356 11.5613 7.58795 11.5641 7.57042C11.5563 7.55946 11.5602 7.54632 11.5362 7.54303C11.5331 7.45784 11.6128 7.41894 11.4947 7.43373L11.4807 7.46085C11.4749 7.43428 11.4317 7.39319 11.4615 7.34608C11.4687 7.33841 11.4754 7.33074 11.4807 7.32389C11.4874 7.31814 11.5326 7.33978 11.5387 7.30828C11.5451 7.27431 11.5078 7.22802 11.5086 7.2146C11.5097 7.19625 11.5367 7.15954 11.5376 7.11845C11.5409 6.96232 11.5485 6.76893 11.4529 6.63991L11.5345 6.63827C11.5156 6.55582 11.5412 6.43666 11.5367 6.36599C11.5813 6.31696 11.5727 6.25889 11.6482 6.17425C11.6541 6.16795 11.6817 6.1674 11.69 6.14905C11.7015 6.12357 11.6677 6.07208 11.6758 6.06496C11.711 6.03318 11.8102 6.11727 11.8991 5.95539C11.9049 5.94443 11.9175 5.93621 11.927 5.928C11.9314 5.93265 11.9484 5.92361 11.9548 5.928C11.9679 5.93649 11.9668 5.97894 12.0217 5.98086C12.1065 5.98387 12.1516 5.94251 12.2057 5.9006C12.2391 5.87458 12.2121 5.83925 12.2893 5.84582C12.3005 5.84664 12.3467 5.9154 12.3729 5.84582C12.3796 5.82774 12.3643 5.78884 12.3857 5.76282C12.4075 5.73653 12.4565 5.75049 12.4841 5.71543C12.5062 5.68749 12.5329 5.60778 12.5393 5.5519C12.5469 5.55081 12.5471 5.5393 12.5402 5.51712C12.5474 5.51684 12.6748 5.48123 12.6809 5.47712C12.735 5.44042 12.6458 5.33879 12.825 5.41001C12.8685 5.42727 12.8236 5.49219 12.9022 5.43494C12.953 5.39796 12.9906 5.33551 12.9858 5.27059C13.0182 5.21526 13.1338 5.22594 13.1511 5.21361C13.1617 5.20594 13.1481 5.17252 13.1528 5.16129C13.1776 5.10267 13.2119 5.01639 13.2242 4.95585C13.2367 4.89395 13.1837 4.71836 13.2919 4.72275C13.3033 4.67509 13.2495 4.70549 13.2395 4.69371C13.235 4.68851 13.2596 4.59483 13.2646 4.55894C13.271 4.51155 13.2888 4.46198 13.2924 4.42198C13.2947 4.39651 13.2944 4.36556 13.2924 4.33981C13.3016 4.33351 13.3159 4.32173 13.3203 4.31241C13.3384 4.27516 13.3351 4.21052 13.3504 4.16915C13.3593 4.14532 13.4039 4.14752 13.4053 4.13081C13.4078 4.10013 13.3722 4.05137 13.3791 4.04178C13.3861 4.03192 13.441 4.03493 13.4544 3.99549C13.4725 3.94208 13.4126 3.75334 13.5154 3.69637C13.5177 3.66788 13.4714 3.68952 13.4597 3.68295C13.4586 3.68212 13.4577 3.66021 13.4597 3.65555C13.4614 3.65145 13.4948 3.65282 13.5032 3.59967C13.511 3.54982 13.4954 3.45066 13.4597 3.4093C13.4535 3.40218 13.4374 3.38547 13.4318 3.38191C13.4781 3.34109 13.4326 3.31069 13.4318 3.29973C13.431 3.29069 13.4324 3.28138 13.4318 3.27234C13.4806 3.26878 13.4842 3.11347 13.4828 3.0932C13.4817 3.07841 13.4371 3.08279 13.4335 3.0606C13.4109 2.91844 13.4064 2.86557 13.3802 2.77298C13.3802 2.77435 13.38 2.776 13.3797 2.77764C13.3788 2.77216 13.378 2.76696 13.3769 2.76148C13.378 2.76531 13.3791 2.76942 13.3802 2.77326C13.3828 2.74696 13.3808 2.7319 13.3688 2.72943C13.363 2.70998 13.356 2.69026 13.3482 2.67026C13.3214 2.59028 13.2874 2.5029 13.2646 2.42401C13.2543 2.3884 13.2094 2.26842 13.2088 2.25966C13.2041 2.17529 13.3064 2.03806 13.2643 1.95862C13.4028 1.98245 13.3287 1.89671 13.3482 1.82166C13.3538 1.79975 13.3931 1.74578 13.4039 1.71209C13.4067 1.70333 13.4388 1.68771 13.4455 1.66059C13.4541 1.62635 13.431 1.59677 13.4318 1.57513C13.434 1.52035 13.4541 1.52281 13.4318 1.43817C13.4457 1.3097 13.5146 1.19137 13.4039 1.08235C13.3953 1.07358 13.3802 1.06893 13.3761 1.05496C13.3761 0.982095 13.3744 0.86294 13.3426 0.799664C13.3161 0.747072 13.2724 0.761041 13.2646 0.75392C13.2635 0.753098 13.2629 0.73091 13.2646 0.726528C13.2682 0.716119 13.3139 0.692561 13.3161 0.65476C13.3167 0.644078 13.2509 0.476712 13.2367 0.452881C13.2314 0.443842 13.2166 0.435898 13.2088 0.425489C13.1821 0.389606 13.1564 0.371801 13.1252 0.343313C13.041 0.266342 12.9831 0.233471 12.8604 0.207175L12.8192 0.288529C12.7163 0.0425492 12.5937 0.188275 12.4415 0.182248C12.374 0.179783 12.4237 0.118425 12.3732 0.124451C12.369 0.139791 12.3777 0.175126 12.3732 0.179235C12.3654 0.186083 12.3119 0.173757 12.2896 0.179235C12.2132 0.0967853 12.192 0.172935 12.0945 0.179235C12.0761 0.180331 12.0571 0.17814 12.0387 0.179235C12.0217 0.180057 11.9682 0.177866 11.9272 0.179235C11.918 0.179509 11.9086 0.178961 11.8994 0.179235C11.8949 0.179235 11.869 0.147187 11.8158 0.151843L11.7851 0.15787C11.7971 0.154856 11.8077 0.152665 11.8158 0.151843C11.7712 0.153487 11.7004 0.13486 11.6764 0.179235C11.6494 0.181427 11.6268 0.206079 11.6206 0.206627C11.6114 0.207449 11.602 0.205532 11.5928 0.206627C11.5409 0.17047 11.4191 0.166087 11.3559 0.166909C11.2198 0.168826 10.8001 0.180879 10.6925 0.207175C10.6699 0.212654 10.6746 0.260042 10.656 0.262507C10.5526 0.276477 10.2518 0.192657 10.1303 0.191014C10.0826 0.190466 10.0118 0.197314 9.977 0.234019C9.9678 0.233471 9.95832 0.234293 9.94912 0.234019C9.8892 0.231828 9.68155 0.19841 9.67068 0.206901C9.66649 0.210188 9.67318 0.245798 9.67068 0.261411C9.66176 0.260316 9.652 0.261411 9.6428 0.261411C9.5001 0.186357 9.43013 0.26689 9.28492 0.273464C9.16395 0.279216 9.00145 0.268533 8.87659 0.261959C8.84007 0.260042 8.79575 0.243607 8.77931 0.288803C8.76091 0.287708 8.74224 0.289351 8.72356 0.288803C8.57417 0.285242 8.42811 0.293186 8.27788 0.288803C8.24081 0.287708 8.20346 0.289351 8.16639 0.288803C8.07357 0.28716 7.99414 0.263055 7.91554 0.261411C7.94229 0.270451 7.95679 0.278394 7.96348 0.285516C7.94759 0.278942 7.93142 0.271272 7.91554 0.261411C7.87847 0.26059 7.84112 0.261685 7.80405 0.261411C7.75778 0.261137 7.71095 0.260316 7.66468 0.261411C7.64629 0.261959 7.62733 0.260316 7.60894 0.261411C7.40909 0.263055 7.20897 0.259494 7.00884 0.260042C6.88536 0.260316 6.7814 0.26552 6.66183 0.261411C6.62476 0.260042 6.58741 0.262781 6.55034 0.261411C6.39731 0.255385 6.49571 0.181701 6.45278 0.178961L6.38366 0.261411C6.39007 0.205806 6.32708 0.195944 6.30784 0.169648C6.29028 0.145543 6.30338 0.101168 6.29948 0.0967853C6.29419 0.091033 6.25154 0.124177 6.22896 0.121164C6.20917 0.118699 6.08765 0.0954157 6.08096 0.0913069C6.05727 0.0770631 6.04417 -0.0604448 5.96975 0.0619975C5.94327 0.105551 5.98313 0.205806 5.92404 0.178687C5.91094 0.172661 5.80196 0.0899373 5.79833 0.0830893L5.88167 0.0151572C5.80697 0.00420036 5.75401 -0.0144262 5.68015 0.0165268C5.65897 0.0252922 5.65925 0.0611757 5.64838 0.0650106C5.64559 0.0650106 5.64252 0.0652845 5.63974 0.0655585C5.51598 0.0633671 5.38498 0.039536 5.25064 0.0918548C5.19879 0.112125 5.21552 0.149104 5.21245 0.151022C5.15447 0.188822 5.15782 0.108564 5.15141 0.104455C5.07838 0.0554234 4.96048 0.138969 4.89191 0.169374C4.87881 0.168826 4.86571 0.167183 4.85317 0.164718C4.84871 0.152117 4.84369 0.134586 4.82892 0.126917C4.70071 0.0595322 4.75171 0.137052 4.73945 0.151843C4.72468 0.169648 4.67869 0.171292 4.65583 0.179235C4.60455 0.119795 4.48302 0.160609 4.43285 0.206627C4.40637 0.210462 4.37599 0.20334 4.34923 0.206627C4.33307 0.169648 4.27091 0.174305 4.23774 0.179235C4.19984 0.184988 4.1296 0.208545 4.09838 0.234019C4.01616 0.221419 3.86815 0.197862 3.79206 0.206627C3.66524 0.221419 3.48463 0.315921 3.3815 0.338657C3.34108 0.347422 3.30485 0.297843 3.27586 0.343587C3.27029 0.352627 3.29426 0.395906 3.29035 0.398097C3.28004 0.404398 3.2413 0.379745 3.20729 0.388784C3.14458 0.405493 3.07323 0.459729 3.02222 0.477534C2.96592 0.497256 3.00159 0.407959 2.94473 0.427681C2.82683 0.468221 2.8547 0.550397 2.84439 0.562723C2.83854 0.569845 2.74071 0.500543 2.69026 0.618603C2.66907 0.668183 2.70336 0.702423 2.6975 0.736389C2.69444 0.754193 2.59716 0.977986 2.57932 1.0262C2.56985 1.05167 2.51968 1.07194 2.51772 1.09605C2.51689 1.10618 2.5587 1.27711 2.5941 1.2604C2.50212 1.31326 2.58518 1.35216 2.58239 1.39736C2.581 1.42009 2.55061 1.60252 2.54337 1.62033C2.52218 1.67292 2.48456 1.65484 2.48288 1.65813C2.47396 1.67374 2.52107 1.69511 2.52636 1.72551C2.53027 1.74798 2.50685 1.78002 2.50964 1.80386C2.51243 1.82549 2.56371 1.82522 2.56678 1.83536C2.58936 1.91452 2.51187 1.89973 2.50908 1.92082C2.50267 1.96958 2.57068 2.11311 2.56371 2.12051C2.44191 2.1353 2.55647 2.14954 2.55981 2.15365C2.56789 2.16351 2.54086 2.30842 2.54365 2.32923C2.54588 2.34567 2.58323 2.34129 2.58462 2.34676C2.59187 2.37635 2.55981 2.41771 2.5941 2.45113C2.58378 2.4588 2.57598 2.4703 2.56622 2.47852C2.54002 2.50043 2.52692 2.4388 2.49487 2.56124C2.47954 2.62068 2.47146 2.70204 2.56622 2.66999C2.56762 2.68615 2.56622 2.68807 2.56622 2.69738C2.45055 2.67985 2.54894 2.79928 2.54058 2.8453C2.53919 2.85352 2.38226 2.91378 2.53835 2.90282C2.47285 3.09238 2.47396 3.2833 2.56594 3.45039L2.51048 3.46408C2.49793 3.50956 2.55898 3.4797 2.56678 3.50462C2.59047 3.58187 2.51048 3.57009 2.5102 3.58899C2.5102 3.59967 2.52302 3.72897 2.52581 3.74157C2.53166 3.76896 2.56985 3.7958 2.5941 3.84702C2.57932 3.8651 2.56929 3.89934 2.56622 3.90181C2.52386 3.93851 2.41014 3.91222 2.56622 3.99741C2.41543 4.12094 2.53473 4.08451 2.53528 4.10506C2.4971 4.19545 2.52246 4.3409 2.50574 4.42828C2.49626 4.47704 2.44804 4.5184 2.43996 4.55785C2.43717 4.57154 2.4826 4.78219 2.48316 4.8167C2.48316 4.82382 2.40791 4.85587 2.39899 4.90162C2.39592 4.91805 2.46003 4.91038 2.45529 4.92791C2.43968 4.98598 2.40345 5.01995 2.39927 5.10651C2.38812 5.34482 2.36749 5.61956 2.42714 5.84555C2.44163 5.90033 2.47815 5.96141 2.48065 6.02825C2.48344 6.10029 2.42853 6.22903 2.48288 6.25615C2.48874 6.25916 2.50072 6.25478 2.51076 6.25615C2.47034 6.34983 2.46867 6.4342 2.45501 6.5298C2.44191 6.62238 2.45585 6.62266 2.45501 6.69415C2.45501 6.69963 2.41292 6.74674 2.42714 6.77633C2.41961 6.77523 2.40289 6.77441 2.39927 6.77633C2.32819 6.81276 2.39341 6.93273 2.39118 6.98752C2.38867 7.04778 2.36526 7.04805 2.37139 7.13215C2.27663 7.12338 2.33321 7.1516 2.34213 7.20145C2.3778 7.40086 2.35272 7.41867 2.42714 7.59754C2.40763 7.6 2.37 7.58521 2.37111 7.61206C2.38003 7.69807 2.39035 7.72162 2.42714 7.78928C2.44107 7.8153 2.4302 7.86078 2.48288 7.87146C2.48288 7.87283 2.484 7.88159 2.48288 7.89885C2.39954 7.88378 2.42574 7.94103 2.4277 7.99363C2.4355 8.20592 2.4146 8.4319 2.43662 8.64665C2.4408 8.68692 2.49264 8.71349 2.4826 8.80251C2.47592 8.8636 2.43801 8.87291 2.42686 8.89839C2.42519 8.90249 2.45473 8.90907 2.47424 8.92715C2.47424 8.94605 2.47675 8.96796 2.4826 8.99398C2.47759 9.02302 2.4826 9.02001 2.4826 9.02137C2.46532 9.15697 2.53222 9.25722 2.59465 9.37692C2.67214 9.38542 2.65792 9.25092 2.76105 9.3635L2.67771 9.40404C2.7159 9.4202 2.83547 9.36816 2.84467 9.37692C2.89428 9.42595 2.7998 9.4339 2.79757 9.43746C2.73429 9.54621 2.85972 9.4958 2.90209 9.52566C2.94975 9.55908 2.88453 9.68426 3.03978 9.59579C3.04703 9.66591 3.03476 9.66372 3.09552 9.70535C3.18165 9.76425 3.30429 9.78178 3.40184 9.81492C3.45731 9.83355 3.51055 9.8319 3.54121 9.84231C3.56852 9.85163 3.5989 9.86012 3.62483 9.86971C3.6527 9.87984 3.68057 9.91244 3.70844 9.92449C3.74635 9.94092 3.84892 10.0242 3.87568 9.95188C3.96961 10.0157 4.04821 10.0836 4.1544 10.1436C4.21266 10.1765 4.29377 10.2277 4.34951 10.2532C4.39996 10.2762 4.42533 10.2951 4.48888 10.2806C4.50504 10.3398 4.54685 10.4666 4.60037 10.3902H4.62824C4.63716 10.4019 4.64301 10.4093 4.65611 10.4175C4.69597 10.4427 4.72719 10.4197 4.7676 10.4175C4.70238 10.4929 4.72942 10.4786 4.73973 10.5268C4.76008 10.6222 4.77318 10.5956 4.79548 10.6364C4.80216 10.6487 4.79185 10.6898 4.81025 10.7167C4.85735 10.7846 4.98111 10.8849 5.01818 10.7734H5.04605C4.95937 10.9487 5.05859 10.8901 5.09427 10.9155C5.11768 10.9322 5.1149 11.0026 5.15754 11.0196C5.15141 11.0325 5.16395 11.0678 5.15754 11.0744C5.15224 11.0799 5.11016 11.064 5.10152 11.0876C5.13441 11.1462 5.13468 11.1722 5.21329 11.1566C5.22722 11.262 5.1305 11.2883 5.26903 11.3209C5.27377 11.4039 5.30359 11.4951 5.31837 11.5617C5.31391 11.5707 5.31474 11.5814 5.32478 11.5946C5.34261 11.72 5.29105 11.6663 5.38052 11.8408C5.40561 11.8899 5.46107 11.946 5.46414 11.9778C5.46498 11.9868 5.4633 11.9961 5.46414 12.0052C5.46414 12.0172 5.46525 12.0268 5.46693 12.0353C5.48839 12.2416 5.54692 12.2676 5.6311 12.4706C5.56922 12.5051 5.58901 12.5533 5.60322 12.6075C5.61326 12.6451 5.65785 12.7587 5.68684 12.7719C5.6913 12.7738 5.70802 12.773 5.71471 12.7719V12.7993C5.68656 12.9078 5.81283 12.8806 5.79833 12.9636C5.79053 13.0083 5.76656 12.9628 5.79833 13.0458C5.81115 13.0792 5.85018 13.128 5.85408 13.1554C5.85464 13.1589 5.81506 13.1874 5.82732 13.2197C5.85882 13.3025 5.9232 13.1773 5.88195 13.4019C5.86718 13.4816 5.82258 13.5339 5.90982 13.5523C5.81729 13.6402 5.83039 13.7155 5.96557 13.6756C5.99065 13.7295 6.11357 13.8002 6.04891 13.867C6.028 13.867 6.01351 13.8478 5.99344 13.8396C5.92933 13.8133 5.88529 13.8221 5.84376 13.8963C5.80391 13.9673 5.83066 13.99 5.82648 14.0311C5.82453 14.0489 5.82816 14.0678 5.82648 14.0859C5.82425 14.1114 5.79471 14.1645 5.79833 14.1675C5.82342 14.1886 5.95052 14.1429 5.88223 14.2774C5.84655 14.2883 5.84404 14.3132 5.82648 14.3321C5.80865 14.3513 5.7752 14.3458 5.76907 14.4012C5.7621 14.4644 5.79833 14.4655 5.79861 14.4691C5.80474 14.5507 5.77018 14.537 5.74287 14.6061C5.73032 14.6378 5.72475 14.6608 5.71499 14.6882C5.7005 14.729 5.66538 14.78 5.65925 14.8252C5.65674 14.8427 5.66036 14.8619 5.65925 14.8797C5.69632 14.8893 5.71722 14.8614 5.74259 14.8526C5.77966 14.8394 5.83039 14.829 5.85408 14.7978C5.85826 14.7923 5.85045 14.7786 5.85408 14.7704C5.9023 14.7649 5.91317 14.7666 5.91205 14.7989C5.90954 14.8063 5.90871 14.8151 5.90982 14.8252C5.87219 14.8531 5.80223 14.8981 5.78272 14.9372C5.76572 14.9715 5.79945 14.9868 5.79833 14.9893C5.79025 15.0074 5.77576 15.0268 5.77046 15.0441C5.70719 15.0386 5.6219 15.0369 5.58845 15.0994C5.57981 15.1158 5.6035 15.1246 5.60322 15.1262C5.59068 15.1791 5.5865 15.2372 5.57535 15.2906C5.57061 15.3136 5.58204 15.3626 5.57535 15.3728C5.56783 15.3837 5.54079 15.341 5.51961 15.4275C5.50734 15.4779 5.53298 15.4774 5.54748 15.5371C5.54023 15.5344 5.52908 15.5388 5.51961 15.5371C5.5171 15.5366 5.50957 15.5127 5.48393 15.516C5.44686 15.5207 5.3638 15.6133 5.35794 15.6335C5.35321 15.6497 5.37941 15.7061 5.37662 15.7154C5.37188 15.7305 5.22778 15.7417 5.40812 15.8105C5.38331 15.8247 5.38582 15.8798 5.3755 15.8869C5.32087 15.9244 5.24116 15.8269 5.26903 16.002C5.28743 16.0041 5.30638 16.0003 5.32478 16.002C5.34289 16.0036 5.36575 15.9981 5.38052 16.002C5.38944 16.0041 5.39947 16.0263 5.40839 16.0293C5.36659 16.1329 5.30276 16.0589 5.2537 16.063C5.21356 16.0663 5.20743 16.2378 5.13023 16.2622L5.24088 16.3304C5.15085 16.3643 5.12493 16.3244 5.04605 16.3033C5.05999 16.352 5.03044 16.3789 5.01818 16.4128C4.97079 16.3652 4.90585 16.4164 4.96243 16.4676C4.95881 16.4717 4.9641 16.5076 4.93651 16.5377C4.89331 16.5849 4.86711 16.5413 4.85122 16.6317C4.90418 16.6131 4.9616 16.6032 5.01846 16.6043C5.03323 16.629 5.0441 16.6495 5.0742 16.6591C5.07364 16.6681 5.07392 16.6774 5.0742 16.6865C5.07532 16.7204 5.06472 16.77 5.08619 16.7971C5.10681 16.8232 5.15141 16.8139 5.17315 16.8295C5.17622 16.836 5.1804 16.8432 5.18541 16.8506C5.06751 16.8234 4.96773 16.9788 4.90669 17.0697C4.89972 17.0798 4.88718 17.0878 4.87881 17.0971C4.79185 17.1028 4.76063 17.0524 4.68371 17.0971C4.64636 17.1187 4.62768 17.1305 4.62796 17.1793C4.61848 17.1793 4.60566 17.1768 4.60009 17.1793C4.53291 17.1313 4.6458 17.0913 4.65667 17.0292C4.66643 16.9725 4.61068 16.9755 4.60065 16.9875C4.59758 16.9914 4.60371 17.0387 4.5711 17.0809C4.51786 17.1502 4.42561 17.208 4.37739 17.2612C4.37042 17.2688 4.35286 17.3044 4.34951 17.3159C4.19844 17.2488 4.18702 17.3732 4.15134 17.3951C4.13545 17.405 4.05434 17.3206 4.07079 17.4255C4.02424 17.4378 4.05824 17.3735 4.02675 17.3685C3.91498 17.3513 3.88655 17.4732 3.86035 17.4795C3.82328 17.4882 3.77868 17.4258 3.72795 17.4315C3.67472 17.4376 3.60559 17.546 3.54149 17.5625V17.5899C3.42721 17.5685 3.2452 17.6636 3.15155 17.7268C3.14625 17.7197 3.12925 17.7022 3.12368 17.6994C3.08605 17.6803 3.06877 17.6573 3.01246 17.672C3.00717 17.6983 3.01748 17.7312 3.01218 17.7542C2.95616 17.7411 3.00354 17.6992 2.9701 17.6989C2.96201 17.6989 2.8561 17.7468 2.84495 17.7542C2.77722 17.7994 2.81847 17.8172 2.80844 17.8301C2.7499 17.9038 2.62699 17.8331 2.62225 17.9457C2.59131 17.9588 2.5665 17.9923 2.53556 18.0114C2.50992 18.0273 2.46142 18.0246 2.45613 18.0295C2.45306 18.0325 2.48205 18.0651 2.47452 18.0766C2.46923 18.0846 2.42825 18.0802 2.42574 18.0983C2.42212 18.1218 2.45167 18.1478 2.45501 18.1646C2.40038 18.1824 2.34157 18.1829 2.31565 18.2467C2.28164 18.2675 2.31063 18.3193 2.28778 18.3563C2.26269 18.3971 2.20667 18.4319 2.18771 18.4798C2.17684 18.507 2.1944 18.6423 2.17628 18.6847H2.20416C2.19747 18.7009 2.18827 18.7039 2.17628 18.7121C2.14395 18.7343 2.08932 18.7077 2.06507 18.7532L2.17628 18.8485C1.99288 18.8368 2.09322 18.8655 2.09462 18.9433C2.09518 18.9723 2.02215 18.94 2.0372 18.9852C2.15454 18.9907 2.10437 19.0866 2.12862 19.1559C2.15204 19.2227 2.18186 19.3293 2.20444 19.3821C2.21781 19.4134 2.25851 19.3602 2.28778 19.3693L2.20444 19.4509C2.34045 19.4323 2.25405 19.4898 2.26548 19.5021C2.27663 19.5142 2.3123 19.5013 2.31565 19.5059C2.31844 19.5095 2.34185 19.5793 2.34352 19.5881C2.3438 19.59 2.31732 19.6002 2.31537 19.6139C2.43327 19.6996 2.53919 19.5793 2.60775 19.5854C2.67883 19.5917 2.66378 19.6539 2.68078 19.6686C2.70029 19.6856 2.73067 19.6426 2.73346 19.6429C2.74238 19.6434 2.75241 19.644 2.76133 19.6429C2.85526 19.6319 2.82683 19.6191 2.84495 19.6155C2.84997 19.6144 2.88007 19.6267 2.92857 19.6155C2.974 19.6048 2.98097 19.6147 3.04006 19.5881C3.05734 19.5804 3.08298 19.5837 3.0958 19.5607C3.11141 19.5648 3.13427 19.5574 3.15155 19.5607C3.23712 19.7007 3.40073 19.6426 3.50971 19.6602C3.63542 19.6804 3.76029 19.7459 3.9186 19.7506C4.10396 19.756 4.35174 19.6769 4.50783 19.6752C4.55549 19.6747 4.58364 19.7341 4.59953 19.7245C4.60427 19.7218 4.59786 19.6434 4.67005 19.6528C4.71102 19.658 4.78544 19.7692 4.75367 19.6424C4.93707 19.71 4.97832 19.5895 5.10152 19.5331C5.11267 19.5279 5.12242 19.5076 5.12939 19.5057C5.145 19.5016 5.16869 19.5095 5.18513 19.5057C5.35711 19.4651 5.64921 19.4153 5.81422 19.3947C5.86383 19.3884 5.84711 19.4438 5.87247 19.4503C6.01964 19.4873 6.02494 19.3994 6.03999 19.3961C6.14367 19.3734 6.34213 19.4785 6.44832 19.5098C6.60079 19.5547 6.86613 19.5783 6.94083 19.7245L7.05176 19.67C7.08577 19.6854 7.12172 19.7059 7.16325 19.7248C7.28562 19.7804 7.51501 19.8519 7.61758 19.9226C7.66663 19.9563 7.66162 19.9957 7.66524 19.9984C7.67695 20.0075 7.72963 19.9379 7.76363 19.9431C7.93533 19.9768 8.10451 19.9486 8.27621 19.959C8.33502 19.9626 8.30352 19.9253 8.33307 19.8892C8.34227 19.8889 8.35174 19.8897 8.36094 19.8892L8.59842 19.9713C8.64859 19.842 8.72802 19.9431 8.79297 19.9713C8.81554 19.9812 8.79631 19.9234 8.82446 19.916C8.89414 19.8976 8.95073 19.9406 8.98975 19.9412C9.00145 19.9412 8.99867 19.9045 9.01037 19.8924C9.01678 19.8919 9.02319 19.8911 9.02988 19.89C9.065 19.8985 9.11545 19.9428 9.14082 19.8618C9.15002 19.8612 9.15949 19.862 9.16869 19.8618C9.14472 19.9174 9.242 19.9398 9.26792 19.9409C9.28157 19.9415 9.28046 19.9012 9.29997 19.8886C9.36798 19.8445 9.51543 19.9563 9.61186 19.9582C9.69102 19.9598 9.88167 19.8623 9.93491 19.999C9.93156 19.8785 10.1819 19.9546 10.1969 19.9401C10.2075 19.9302 10.1944 19.8938 10.1994 19.8892C10.2117 19.8779 10.2407 19.8733 10.2552 19.8618C10.353 19.8659 10.4377 19.8341 10.535 19.822C10.5729 19.8174 10.6228 19.8579 10.6451 19.7796C10.6724 19.7771 10.7017 19.7829 10.7287 19.7796C10.7633 19.7752 10.7357 19.8059 10.8123 19.7522C10.8277 19.7415 10.8633 19.7314 10.8681 19.7248L11.1251 19.6692L11.1886 19.5881C11.2276 19.7127 11.4024 19.5766 11.5086 19.6426C11.5103 19.6245 11.5072 19.6059 11.5086 19.5878C11.5178 19.5884 11.5273 19.5878 11.5365 19.5878C11.6691 19.5906 11.6549 19.5804 11.7383 19.5643C11.731 19.5637 11.7252 19.561 11.7204 19.5569C11.7332 19.5577 11.7461 19.5588 11.7592 19.5604C11.8146 19.5509 11.8712 19.5435 11.9264 19.5331C12.0106 19.5172 12.1193 19.5478 12.0936 19.4783C12.112 19.4796 12.131 19.4772 12.1494 19.4783C12.1586 19.4788 12.1681 19.478 12.1773 19.4783C12.2171 19.5489 12.2542 19.507 12.2888 19.5057C12.3813 19.5016 12.4655 19.5257 12.5396 19.4509C12.548 19.4586 12.5664 19.4695 12.5675 19.4783C12.5686 19.4862 12.4794 19.5492 12.638 19.5566C12.6692 19.558 12.6999 19.5325 12.7068 19.5331C12.7868 19.5396 12.7785 19.5435 12.8599 19.544C12.9357 19.5443 12.9357 19.6413 13.0134 19.5331C13.0179 19.527 13.0093 19.5125 13.0134 19.5057C13.116 19.5599 13.1556 19.5062 13.2364 19.4783C13.259 19.4703 13.3036 19.4898 13.32 19.4509C13.3474 19.4533 13.3761 19.4501 13.4037 19.4509C13.4129 19.4512 13.4223 19.4509 13.4315 19.4509C13.5377 19.4509 13.6445 19.4279 13.7518 19.4235L13.7103 19.3413C13.7181 19.3378 13.7911 19.2906 13.7939 19.2865C13.8931 19.3043 13.8268 19.206 13.8633 19.1496C13.8817 19.1214 13.948 19.1159 13.9566 19.0789C13.9622 19.0551 13.9321 19.011 13.936 18.9745C13.9486 18.8557 13.987 18.6875 13.989 18.5746C13.9898 18.5234 13.9848 18.4697 13.9332 18.4924C13.9344 18.4834 13.9321 18.4741 13.9332 18.465C13.9851 18.4472 13.9904 18.3996 14.0032 18.3557C14.0589 18.1659 14.0687 17.9194 14.0536 17.7197C14.0503 17.6742 14.0615 17.6553 14.0169 17.6162C14.0177 17.6071 14.016 17.5978 14.0169 17.5888C14.0249 17.5093 14.0645 17.4209 14.0447 17.3151C14.0431 17.3058 14.0478 17.2897 14.0447 17.2877C14.0534 17.2779 14.0637 17.2699 14.0726 17.2603C14.1958 17.1278 14.12 17.1779 14.1005 17.096C14.0977 17.0848 14.0985 17.0431 14.1005 17.0412C14.1063 17.0355 14.1501 17.0481 14.1562 17.0409C14.1685 17.0267 14.1119 16.9993 14.1094 16.9727L14.1074 16.9741ZM11.3391 11.2081C11.3383 11.1985 11.338 11.19 11.3402 11.1842C11.3402 11.1927 11.3397 11.2004 11.3391 11.2081ZM7.32743 0.619699C7.32631 0.62189 7.32547 0.624081 7.32464 0.626273C7.32436 0.624355 7.32519 0.622164 7.32743 0.619699ZM11.9874 4.79671L11.9813 4.77863C11.9855 4.77698 11.9897 4.77698 11.9939 4.7778C11.9916 4.78328 11.9897 4.78958 11.9874 4.79671ZM6.74349 14.7433C6.72872 14.7455 6.71534 14.7469 6.70308 14.7479C6.70419 14.7466 6.70503 14.7452 6.70586 14.7438L6.74321 14.7433H6.74349ZM6.91129 13.019C6.91268 13.0181 6.91575 13.016 6.91407 13.0206C6.91324 13.0201 6.9124 13.0195 6.91129 13.019ZM3.9855 8.14565H3.9986C3.99414 8.1462 3.98968 8.14675 3.9855 8.14565ZM4.79325 2.56124C4.78516 2.5533 4.7768 2.5459 4.76816 2.53823C4.77318 2.54125 4.77792 2.54481 4.78238 2.54892L4.79297 2.56124H4.79325ZM3.95735 7.51591L3.954 7.51098C3.954 7.51098 3.95456 7.51098 3.95484 7.51098C3.95567 7.51262 3.95623 7.51427 3.95707 7.51591H3.95735ZM6.9386 15.1544C6.9386 15.1544 6.9386 15.155 6.9386 15.1553C6.93665 15.1547 6.93442 15.1542 6.93219 15.1539H6.93581C6.93581 15.1539 6.93777 15.1542 6.9386 15.1544ZM6.7984 11.1881C6.79729 11.1864 6.79645 11.1848 6.79534 11.1832C6.79673 11.1837 6.79784 11.1837 6.79924 11.1842C6.79896 11.1856 6.79868 11.1867 6.7984 11.1878V11.1881ZM11.8977 16.9881C11.8977 16.9881 11.8985 16.9881 11.8988 16.9883C11.8985 16.9886 11.8983 16.9892 11.8977 16.9894C11.8977 16.9889 11.8977 16.9886 11.8977 16.9881ZM8.83645 15.3281C8.83478 15.3245 8.83338 15.321 8.8331 15.3182C8.83422 15.3215 8.83533 15.3248 8.83645 15.3281ZM8.72161 14.3187V14.3053C8.72329 14.3091 8.72245 14.3141 8.72161 14.3187ZM8.63855 15.5645C8.64747 15.5577 8.65555 15.5555 8.6628 15.5563C8.65472 15.5593 8.64636 15.5623 8.63827 15.5659C8.63827 15.5653 8.63827 15.5651 8.63827 15.5645H8.63855ZM9.1673 13.841C9.1673 13.841 9.1673 13.8405 9.1673 13.8402C9.16757 13.8402 9.16785 13.8402 9.16841 13.8402C9.16813 13.8402 9.16757 13.8407 9.1673 13.841ZM9.11155 13.2102C9.10904 13.217 9.10375 13.2214 9.09734 13.2247C9.10207 13.22 9.10626 13.2154 9.11155 13.2102ZM7.94146 14.4694C7.93839 14.4694 7.9356 14.4694 7.93282 14.4694C7.93616 14.4688 7.93895 14.4688 7.94146 14.4694ZM9.06974 12.6905C9.06974 12.6905 9.06974 12.69 9.06974 12.6897C9.06974 12.6897 9.06974 12.6903 9.06974 12.6905ZM7.83053 14.2752C7.83053 14.2752 7.83053 14.2768 7.82997 14.2776C7.82997 14.2776 7.82969 14.2776 7.82941 14.2776C7.82969 14.2768 7.82997 14.276 7.83025 14.2752H7.83053ZM7.50525 15.8261C7.50302 15.8302 7.50023 15.8343 7.49577 15.8382C7.49856 15.8338 7.50191 15.8299 7.50525 15.8261ZM9.12911 16.3857H9.11155C9.11629 16.3841 9.1227 16.3852 9.12911 16.3857ZM8.35258 12.4785C8.35258 12.4785 8.35202 12.4763 8.35174 12.4752C8.35453 12.4741 8.35732 12.4728 8.35927 12.4711C8.35704 12.4733 8.35481 12.4758 8.35258 12.4785ZM7.52365 15.9751H7.49577C7.50497 15.9757 7.51445 15.9746 7.52365 15.9751ZM10.4653 16.967C10.4653 16.967 10.4631 16.9675 10.462 16.9681C10.4631 16.9678 10.4642 16.9675 10.4653 16.967ZM9.76126 11.8567C9.76126 11.8567 9.76126 11.8567 9.76126 11.8564V11.8567ZM7.1613 11.8962C7.15545 11.8959 7.15015 11.8948 7.14458 11.8942C7.15015 11.8945 7.15573 11.8951 7.1613 11.8962ZM6.74349 17.3713C6.71451 17.379 6.70141 17.3757 6.69639 17.3672C6.71172 17.3674 6.72705 17.3685 6.74349 17.3713ZM6.35188 17.5033C6.3516 17.5063 6.35133 17.5091 6.35105 17.5121C6.35077 17.5088 6.35105 17.506 6.35188 17.5033ZM10.2239 17.3439C10.2212 17.3442 10.2181 17.3442 10.215 17.3444C10.2139 17.3444 10.2131 17.3444 10.212 17.3439H10.2239ZM10.1702 11.075H10.1423C10.1479 11.0722 10.1601 11.0758 10.1702 11.075ZM7.06459 14.0314C7.0618 14.0349 7.05901 14.0388 7.0565 14.0429L7.05957 14.0314H7.06459ZM6.76412 17.6989C6.76663 17.6989 6.76858 17.6994 6.77053 17.6997L6.76412 17.6989ZM10.3544 9.44814C10.3042 9.52731 10.3315 9.49334 10.3095 9.56949C10.3 9.60236 10.263 9.63632 10.2588 9.67084C10.2426 9.80533 10.2396 9.75603 10.2256 9.8067C10.2053 9.88094 10.2563 9.94668 10.2543 9.99187C10.2538 10.0028 10.1021 10.1039 10.2752 10.1297C10.2763 10.1313 10.2775 10.1329 10.2786 10.1346C10.2387 10.2022 10.1339 10.1264 10.1144 10.1442C10.1047 10.1529 10.0626 10.3521 10.0584 10.3907C10.0528 10.446 10.0545 10.5257 10.0584 10.5824C10.0386 10.6153 10.0327 10.6613 10.0297 10.6643C10.0249 10.669 9.9363 10.6213 9.9193 10.637C9.9115 10.6441 9.91596 10.7851 9.80781 10.7745L9.94689 10.8287C9.86829 10.8342 9.84042 10.8616 9.86328 10.9109C9.85937 10.9172 9.86662 10.9298 9.86328 10.9383L9.80753 11.0202C9.74008 11.0273 9.74314 10.9454 9.69576 11.0618L9.75151 11.0752C9.7621 11.113 9.71276 11.1015 9.68461 11.1319C9.66203 11.156 9.54804 11.2831 9.54246 11.2944C9.50344 11.3727 9.5511 11.3798 9.55668 11.4034C9.57117 11.4669 9.55668 11.4447 9.55668 11.4582C9.38777 11.2766 9.38498 11.499 9.3337 11.5403C9.17622 11.4669 9.03797 11.6466 8.90892 11.6863C8.8423 11.7069 8.75172 11.6861 8.68315 11.7099C8.62378 11.7307 8.67646 11.7995 8.60957 11.814C8.58225 11.7945 8.55326 11.7784 8.52595 11.7592C8.55689 11.7535 8.61625 11.7811 8.60929 11.7321C8.54323 11.7562 8.35537 11.6836 8.33084 11.7455C8.32331 11.7647 8.35955 11.7537 8.37794 11.7611C8.37181 11.765 8.36624 11.7693 8.36178 11.774C8.29265 11.7496 8.22659 11.803 8.20569 11.8033C8.18534 11.8033 8.03623 11.7315 7.92752 11.7315C7.87401 11.7315 7.81352 11.7039 7.82913 11.7863C7.7274 11.805 7.69061 11.6924 7.55041 11.7315C7.51389 11.7063 7.47599 11.6729 7.43892 11.6494C7.42219 11.639 7.40658 11.5946 7.3553 11.5672C7.3029 11.4475 7.14123 11.5214 7.13259 11.5127C7.09915 11.4776 7.21092 11.3806 6.98348 11.4773C6.98236 11.4752 6.98097 11.4732 6.97985 11.471L7.0211 11.4302L6.96536 11.4028C7.0055 11.3407 7.01776 11.3585 6.99323 11.2935C6.94445 11.1643 6.81067 11.0807 6.74238 10.9651C6.71562 10.9196 6.72315 10.9024 6.71451 10.8829C6.69416 10.838 6.65876 10.8062 6.65876 10.8008C6.6582 10.7616 6.66489 10.7156 6.65987 10.6556C6.6582 10.6342 6.61026 10.6227 6.60301 10.609C6.5835 10.5729 6.60385 10.5118 6.55702 10.5186L6.54727 10.4994C6.66796 10.4159 6.6189 10.4225 6.6058 10.3786C6.60524 10.3737 6.60469 10.3688 6.60301 10.3628C6.60218 10.345 6.6019 10.3258 6.60301 10.308C6.61054 10.174 6.64594 10.1455 6.60301 9.97955C6.59744 9.8897 6.6111 9.7952 6.60301 9.7059C6.59521 9.61934 6.55591 9.56182 6.55229 9.5232C6.54699 9.46513 6.63144 9.47526 6.57514 9.32269C6.57263 9.31584 6.55034 9.30707 6.54727 9.29529C6.5442 9.28352 6.5456 9.25503 6.54727 9.24051C6.54811 9.2375 6.54866 9.23448 6.54922 9.23175C6.55507 9.21093 6.5718 9.1808 6.57514 9.13122C6.58267 9.02028 6.57849 8.94687 6.57514 8.83018C6.57096 8.67541 6.54309 8.52585 6.54727 8.39218C6.55034 8.29083 6.57793 8.1525 6.57514 8.03636C6.57263 7.9383 6.58127 7.8616 6.54532 7.75586C6.53751 7.73313 6.49125 7.7345 6.49097 7.71943C6.49069 7.69725 6.5311 7.63644 6.5194 7.62603C6.51131 7.61863 6.36052 7.61726 6.32429 7.54385C6.32819 7.5181 6.32122 7.48852 6.32457 7.46195C6.3739 7.45674 6.35718 7.56083 6.42129 7.54385C6.45836 7.53399 6.45334 7.45483 6.47062 7.43976C6.52163 7.39539 6.56622 7.5003 6.51912 7.35238C6.55619 7.3028 6.56706 7.06969 6.51912 7.05134C6.55842 6.94588 6.52664 6.97218 6.51912 6.91438C6.51689 6.89658 6.52163 6.8774 6.51912 6.8596C6.51048 6.79769 6.47564 6.72182 6.47396 6.6495C6.47257 6.58486 6.52804 6.35339 6.51856 6.34079C6.51577 6.33723 6.44358 6.31313 6.4355 6.31203C6.43717 6.29587 6.4316 6.26108 6.4355 6.25725C6.44024 6.25286 6.47787 6.26464 6.4879 6.25341C6.50435 6.23506 6.46393 6.18959 6.46282 6.16357C6.46226 6.15343 6.54671 6.1296 6.54114 6.0781C6.53863 6.05427 6.49598 6.04633 6.49125 6.03839C6.46393 5.99264 6.43996 5.94525 6.40791 5.90197C6.53361 5.81815 6.68189 5.81213 6.79757 5.70968C6.83157 5.71516 6.87756 5.70283 6.90906 5.70968C6.92773 5.71379 6.94696 5.73214 6.9648 5.73707C6.96898 5.73817 6.97846 5.76638 7.0055 5.76529C7.0565 5.76337 7.07573 5.6979 7.13204 5.70968C7.11615 5.78419 7.15796 5.81541 7.23266 5.8198C7.23823 5.82007 7.32213 5.7683 7.32743 5.76447C7.33802 5.79323 7.35781 5.80473 7.38317 5.81925C7.40742 5.83322 7.41745 5.86225 7.46679 5.84691V5.76447C7.58079 5.88198 7.64657 5.75296 7.76948 5.76036C7.78147 5.72913 7.78008 5.6801 7.80126 5.65517C7.80572 5.64997 7.90272 5.5793 7.91275 5.57299C7.92139 5.56752 7.95233 5.57656 7.96849 5.57299C7.96376 5.60833 7.97156 5.64668 7.96849 5.68256C7.87763 5.79021 7.96654 5.88526 7.99637 6.01072C7.80767 6.01291 7.92947 6.12138 7.93087 6.22027C7.93226 6.30847 7.90021 6.4027 7.91275 6.50378C7.92195 6.57965 7.96989 6.55692 7.96822 6.57089C7.96543 6.59444 7.92139 6.64101 7.91944 6.68648C7.91749 6.73496 7.96822 6.77879 7.96961 6.84508C7.9724 6.98451 7.8938 7.0434 7.94062 7.24281C7.95735 7.31431 8.01058 7.44168 8.06689 7.48879C8.12235 7.53509 8.16026 7.5055 8.1912 7.51673C8.19315 7.5181 8.19566 7.5192 8.19844 7.52029C8.2252 7.53454 8.25168 7.57069 8.29042 7.57261C8.35258 7.5759 8.44707 7.48797 8.55326 7.54412C8.55772 7.50906 8.54769 7.46797 8.55326 7.43456C8.57249 7.32033 8.72133 7.31266 8.74865 7.21569C8.85484 7.28554 8.71743 7.33101 8.7205 7.33841C8.74726 7.40415 8.79102 7.36388 8.82418 7.35402C8.82669 7.35348 8.82892 7.3532 8.83171 7.35238C8.84091 7.35101 8.85038 7.35348 8.85958 7.35238C8.93456 7.45044 9.0664 7.3921 9.0271 7.54412C9.16953 7.4688 9.05413 7.59836 9.16618 7.59891C9.15754 7.72108 9.18095 7.67807 9.20827 7.65999C9.21245 7.65917 9.21691 7.65725 9.22193 7.65369C9.23112 7.65205 9.24116 7.65588 9.2498 7.65369C9.23475 7.76573 9.35794 7.80955 9.41703 7.87283C9.42595 7.88242 9.43599 7.89063 9.44491 7.90022C9.47389 7.93117 9.49926 7.98048 9.52852 8.00979C9.65061 8.13196 9.76126 8.23522 9.90481 8.33822L9.92738 8.26371C9.90174 8.36862 9.93993 8.38698 10.0422 8.31795L10.0857 8.33822C9.98508 8.32206 9.93156 8.42039 9.95191 8.50969C9.9586 8.539 9.99511 8.56365 10.0021 8.58475C10.0102 8.60913 10.0222 8.62227 10.03 8.63953C10.0425 8.66774 10.0355 8.74718 10.0617 8.77238C10.0656 8.77622 10.1557 8.75814 10.169 8.77676C10.1894 8.8047 10.0645 8.92852 10.1969 9.05041C10.2278 9.14464 10.2571 9.25119 10.2847 9.37035L10.3405 9.40431C10.3853 9.34789 10.4099 9.35145 10.4478 9.37911C10.3393 9.35884 10.3817 9.40514 10.3533 9.44951L10.3544 9.44814ZM6.47285 8.98166C6.48344 8.99919 6.49403 9.00658 6.50462 9.00439L6.4971 9.00932C6.52163 9.06685 6.51354 9.05781 6.47285 8.98166ZM6.35355 8.96714C6.35355 8.96714 6.35467 8.96796 6.35551 8.96823C6.35467 8.96796 6.35411 8.96741 6.35355 8.96714ZM5.43404 2.79408V2.8075C5.43236 2.80366 5.4332 2.79873 5.43404 2.79408ZM7.9972 4.69645C8.00278 4.69371 8.00696 4.69316 8.01058 4.69316L7.9972 4.69645ZM4.34756 3.93002C4.33641 3.93194 4.32917 3.93194 4.32554 3.93002C4.33418 3.92893 4.34255 3.92783 4.34756 3.93002ZM4.45989 4.3724C4.45989 4.3724 4.45989 4.37049 4.45961 4.36939C4.46017 4.36939 4.46073 4.36912 4.461 4.36884C4.46379 4.36994 4.46602 4.37103 4.46825 4.37213C4.46546 4.37213 4.46268 4.37213 4.45989 4.37213V4.3724ZM5.21663 6.09043C5.21384 6.08879 5.21161 6.08523 5.21078 6.07865V6.07756C5.21273 6.08221 5.21468 6.0866 5.21663 6.0907V6.09043ZM5.35042 4.34063H5.33648C5.3415 4.33981 5.34652 4.33899 5.35042 4.34063ZM5.23921 6.88644C5.23586 6.88918 5.23168 6.89 5.22694 6.89C5.23112 6.88863 5.23475 6.88781 5.23921 6.88644ZM5.97783 4.39541C5.98229 4.39459 5.98703 4.39404 5.99121 4.39541H5.97783ZM7.27307 3.59858C7.27307 3.59995 7.27307 3.60104 7.27307 3.60132C7.27307 3.60022 7.27307 3.5994 7.27307 3.59858ZM8.66782 4.42417C8.66782 4.42417 8.66587 4.42308 8.66587 4.4228C8.6667 4.42335 8.66726 4.42363 8.66782 4.42417ZM7.85951 3.68788C7.85896 3.68651 7.8584 3.68514 7.85812 3.68349C7.85895 3.68432 7.85951 3.68569 7.85951 3.68788ZM7.85617 3.57667C7.84641 3.57858 7.83749 3.57804 7.83025 3.57393C7.83917 3.57447 7.84781 3.57557 7.85617 3.57667ZM8.69374 5.95566C8.69374 5.97456 8.6929 5.99182 8.69179 6.00743C8.68872 5.99182 8.68872 5.97484 8.69374 5.95566ZM9.25091 5.23279C9.25008 5.22649 9.24868 5.22019 9.25091 5.21663V5.23279ZM5.07169 7.24281L5.07086 7.24363C5.07086 7.24363 5.07086 7.24363 5.07058 7.24336L5.07197 7.24281H5.07169ZM7.32854 4.69645C7.32854 4.69645 7.32631 4.69563 7.32519 4.69508C7.32631 4.69481 7.3277 4.69508 7.32854 4.69645ZM4.54936 3.51805C4.54936 3.51805 4.54908 3.5175 4.5488 3.5175C4.54936 3.51805 4.5502 3.51887 4.55075 3.51942C4.5502 3.51914 4.54964 3.51859 4.54908 3.51832L4.54936 3.51805ZM4.10897 5.60066C4.10479 5.60066 4.10089 5.60066 4.09699 5.59984C4.10089 5.59984 4.10507 5.60039 4.10897 5.60066ZM3.82913 5.76912L3.83052 5.77323C3.83052 5.77323 3.83052 5.77433 3.83052 5.77515C3.82997 5.77323 3.82969 5.77104 3.82913 5.76912ZM6.27049 8.59652C6.26854 8.5894 6.26799 8.58475 6.26994 8.58392C6.26994 8.58831 6.27049 8.59242 6.27049 8.59652ZM7.70148 2.94446H7.69061C7.69423 2.94391 7.69785 2.94418 7.70148 2.94446ZM3.93114 5.43384C3.93421 5.43384 3.93728 5.43439 3.94006 5.43494C3.92752 5.43576 3.91498 5.43631 3.9016 5.43549C3.91108 5.43521 3.92111 5.43439 3.93114 5.43384ZM4.51452 3.2181C4.51452 3.2181 4.5109 3.2181 4.50699 3.21646C4.51229 3.2129 4.51731 3.20907 4.52204 3.20523C4.52065 3.20934 4.51842 3.21372 4.51452 3.21783V3.2181ZM6.01908 9.35035C6.01992 9.34844 6.02243 9.34679 6.02522 9.34487C6.02326 9.34679 6.02159 9.34844 6.01908 9.35035ZM8.04403 6.79167C8.04487 6.76016 8.04765 6.72784 8.05267 6.6947C8.05128 6.72702 8.04765 6.75934 8.04403 6.79167ZM10.1813 7.49126C10.1891 7.48633 10.2028 7.48414 10.2253 7.48578L10.2535 7.48879C10.2259 7.49044 10.2019 7.49153 10.181 7.49126H10.1813ZM11.4793 2.0408C11.4793 2.0408 11.4793 2.0397 11.4791 2.03915C11.4799 2.03997 11.481 2.04052 11.4821 2.04107C11.4813 2.04107 11.4802 2.04107 11.4796 2.04107L11.4793 2.0408ZM9.00006 2.42428C8.99811 2.42072 8.99727 2.41634 8.99644 2.41168C8.99755 2.41607 8.99867 2.42018 9.00006 2.42428ZM8.03372 6.66922C8.03483 6.67196 8.03623 6.67443 8.0379 6.67717C8.03316 6.67717 8.02898 6.68292 8.02508 6.69497L8.03372 6.66922ZM3.58915 5.87349C3.57939 5.87486 3.57047 5.87622 3.56769 5.87349C3.578 5.87184 3.58497 5.87184 3.58915 5.87349ZM6.3254 7.24637C6.3254 7.24637 6.3254 7.24363 6.32568 7.24254L6.32708 7.24528C6.32708 7.24528 6.32596 7.2461 6.3254 7.24665V7.24637ZM6.54838 5.79158C6.5417 5.79323 6.53473 5.7946 6.52804 5.79597C6.53528 5.79323 6.54225 5.79158 6.54838 5.79158ZM9.72391 8.1651C9.72781 8.16811 9.73144 8.17085 9.73534 8.17387C9.72949 8.17441 9.72586 8.17441 9.72475 8.17332C9.72391 8.17222 9.72363 8.16921 9.72391 8.16537V8.1651ZM10.644 4.25845C10.6387 4.26037 10.634 4.26201 10.6289 4.26393C10.6345 4.26147 10.6398 4.25955 10.644 4.25845ZM10.2334 2.1342C10.2298 2.12982 10.2273 2.12626 10.2259 2.12325C10.2287 2.12708 10.2309 2.13064 10.2334 2.1342ZM6.4093 11.4308C6.40986 11.4343 6.40958 11.4382 6.4093 11.442V11.4308ZM9.95916 18.0331C9.9639 18.0402 9.96891 18.0476 9.97532 18.0558C9.96808 18.0495 9.96306 18.0416 9.95916 18.0331ZM10.5046 13.205C10.5032 13.1954 10.5018 13.1863 10.5046 13.1828C10.506 13.1929 10.5057 13.2 10.5046 13.205ZM10.4639 5.29907C10.467 5.29771 10.4712 5.29771 10.4768 5.2988C10.4728 5.29962 10.4684 5.29935 10.4639 5.29907ZM11.0339 4.94298V4.96243C11.0336 4.95558 11.0325 4.94873 11.0339 4.94298ZM7.78203 1.74195C7.77952 1.73209 7.77673 1.7225 7.77422 1.71264C7.77952 1.7236 7.78175 1.73346 7.78203 1.74195ZM3.28896 3.95741V3.98481C3.28729 3.97604 3.2898 3.96645 3.28896 3.95741ZM13.0692 17.8567C13.0706 17.8534 13.0725 17.8504 13.0748 17.8479C13.072 17.855 13.0689 17.8621 13.0653 17.8698C13.0664 17.8652 13.0675 17.8608 13.0692 17.8567ZM11.5546 16.6681L11.5632 16.6596C11.5607 16.6626 11.5577 16.6654 11.5546 16.6681ZM10.2727 11.6784C10.2752 11.6776 10.278 11.677 10.2816 11.6773C10.2805 11.6787 10.2769 11.6789 10.2727 11.6784ZM10.5442 8.91208C10.5442 8.91208 10.5456 8.91098 10.5464 8.91126C10.547 8.91126 10.5475 8.91126 10.5478 8.91153C10.5467 8.91153 10.5453 8.91181 10.5442 8.91208ZM10.7307 8.06265C10.7343 8.06156 10.7379 8.06046 10.7415 8.05909C10.7382 8.06074 10.7346 8.06183 10.7307 8.06265ZM5.27349 1.01524C5.27711 1.01031 5.2838 1.00565 5.29467 1.00072C5.28687 1.00593 5.2799 1.01086 5.27349 1.01524ZM9.99985 1.33244C9.99985 1.33244 10.0021 1.33025 10.0029 1.32943C10.0018 1.33052 10.001 1.33134 9.99985 1.33244ZM5.92961 10.5156C5.93156 10.5164 5.93324 10.517 5.93519 10.5178V10.5548C5.93296 10.5419 5.93101 10.5288 5.92961 10.5156ZM6.07483 10.5961C6.07566 10.6008 6.07622 10.6055 6.07483 10.6096V10.5961ZM6.60301 14.6595C6.60301 14.6595 6.60385 14.6603 6.60413 14.6611C6.60385 14.6611 6.60329 14.6606 6.60301 14.6595ZM7.8414 18.2473C7.8414 18.2473 7.84167 18.2478 7.84167 18.2484C7.84112 18.2484 7.84084 18.2478 7.84028 18.2478C7.84056 18.2478 7.84084 18.2478 7.8414 18.2475V18.2473ZM12.6776 1.59924V1.63046C12.6742 1.62444 12.6762 1.61184 12.6776 1.59924ZM5.30917 0.973603C5.30415 0.973877 5.29941 0.974425 5.29467 0.973603H5.30917ZM10.6144 11.4623C10.615 11.4609 10.6153 11.4595 10.6158 11.4582C10.6158 11.4584 10.6153 11.4601 10.6144 11.4623ZM3.12451 3.51969C3.12451 3.51969 3.12284 3.51969 3.122 3.51914V3.51805C3.122 3.51805 3.12395 3.51914 3.12451 3.51942V3.51969ZM3.15211 4.62304C3.15211 4.62304 3.15155 4.62523 3.15127 4.62633C3.15127 4.62687 3.14988 4.62797 3.14848 4.62934C3.14988 4.62742 3.15099 4.62523 3.15238 4.62304H3.15211ZM6.04696 10.938C6.04974 10.9506 6.04835 10.9605 6.04528 10.9687C6.04696 10.9583 6.04751 10.9481 6.04696 10.938ZM6.42463 15.4275H6.40902C6.41376 15.4264 6.41906 15.427 6.42463 15.4275ZM5.86885 16.532C5.86328 16.529 5.85798 16.526 5.85213 16.5227C5.85798 16.5251 5.86355 16.5284 5.86885 16.532ZM5.78077 18.6184L5.76851 18.6305C5.77102 18.6261 5.77576 18.6223 5.78077 18.6184ZM3.17245 5.43521C3.15517 5.43357 3.12758 5.44014 3.12172 5.43549C3.15517 5.4322 3.17189 5.4322 3.17245 5.43521ZM9.72447 18.8083C9.72363 18.8036 9.7228 18.7987 9.72447 18.7948V18.8083ZM12.2043 4.4502L12.2076 4.45184C12.2076 4.45184 12.2051 4.45403 12.204 4.45513C12.204 4.45348 12.2043 4.45157 12.2046 4.4502H12.2043ZM12.4214 1.02976C12.4234 1.02921 12.4248 1.02866 12.427 1.02811C12.4259 1.02894 12.4239 1.02948 12.4214 1.02976ZM7.46623 1.0892L7.46762 1.08317L7.47069 1.08481C7.46902 1.08618 7.46762 1.08783 7.46595 1.0892H7.46623ZM3.06598 1.38421C3.06598 1.38421 3.0657 1.38421 3.06542 1.38421C3.06542 1.38421 3.0657 1.38421 3.06598 1.38421ZM2.84328 4.12177C2.8416 4.11793 2.84244 4.11273 2.84328 4.1078V4.12177ZM7.57939 18.8767C7.58859 18.8776 7.59835 18.8754 7.60727 18.8767H7.57939ZM3.98968 9.16162C3.98828 9.16053 3.98689 9.15971 3.9855 9.15861C3.98689 9.15916 3.98828 9.16025 3.98968 9.16162ZM5.74064 10.4307V10.4178C5.74175 10.4219 5.74119 10.4263 5.74064 10.4307ZM8.49863 19.4243C8.49696 19.426 8.49334 19.4265 8.48888 19.4265C8.49166 19.4257 8.49473 19.4249 8.49863 19.4243ZM9.66315 18.9603C9.6651 18.9597 9.6665 18.9592 9.66873 18.9589C9.66705 18.9597 9.6651 18.96 9.66315 18.9603ZM10.1559 18.8217L10.1487 18.8291C10.1473 18.8277 10.1456 18.8266 10.1437 18.8255C10.1479 18.8244 10.152 18.8231 10.1559 18.8217ZM11.7302 5.05255C11.7319 5.05255 11.7332 5.05309 11.7349 5.05337C11.7338 5.05419 11.733 5.05529 11.7319 5.05611C11.7313 5.05474 11.731 5.05392 11.7302 5.05255ZM2.9347 1.3549C2.93219 1.35545 2.92996 1.35627 2.92662 1.35682C2.92829 1.35545 2.93108 1.3549 2.9347 1.3549ZM2.843 4.42253C2.83157 4.42308 2.82181 4.42417 2.81345 4.42582C2.81429 4.42472 2.81429 4.4239 2.81513 4.4228C2.81791 4.41924 2.83018 4.42116 2.84272 4.4228L2.843 4.42253ZM5.99539 18.9584C5.99316 18.954 5.99177 18.9493 5.99233 18.9447C5.9926 18.9408 5.99428 18.9365 5.99623 18.9321C5.99623 18.9408 5.99595 18.9493 5.99539 18.9586V18.9584ZM13.0341 16.3819C13.0433 16.378 13.0572 16.3769 13.077 16.3797C13.0633 16.3811 13.0488 16.3816 13.0341 16.3819ZM12.9284 4.20367C12.9265 4.20011 12.9279 4.19353 12.9284 4.18669V4.20367ZM13.0957 1.21986C13.099 1.21794 13.1043 1.21876 13.1096 1.21986H13.0957ZM4.87157 0.837191C4.87324 0.837191 4.87519 0.836917 4.87686 0.836643C4.87603 0.837191 4.87435 0.837191 4.87157 0.837191ZM2.74962 5.27716C2.74405 5.27552 2.73792 5.27387 2.73179 5.27141C2.73764 5.27333 2.74377 5.27524 2.74962 5.27716ZM2.73179 6.47584C2.73123 6.47227 2.73151 6.46871 2.73179 6.46515V6.47584ZM5.87972 11.2393H5.85185C5.86105 11.2396 5.87052 11.2388 5.87972 11.2393ZM6.43717 13.7029C6.43327 13.7043 6.42853 13.7038 6.42379 13.7029H6.43717ZM8.61598 0.619699C8.61291 0.618877 8.61068 0.618329 8.61012 0.617781C8.61235 0.618329 8.61402 0.619151 8.61598 0.619699ZM6.46505 0.781859L6.45975 0.77912C6.46226 0.780216 6.46421 0.781038 6.46505 0.781859ZM3.76252 0.727075C3.75806 0.727623 3.75388 0.727349 3.74969 0.726801C3.75415 0.726801 3.75833 0.727075 3.76252 0.727075ZM2.70391 18.4935C2.6989 18.4954 2.69416 18.4968 2.68942 18.4982C2.69499 18.4954 2.70001 18.4938 2.70391 18.4935ZM3.80934 19.4427L3.76252 19.3969C3.78844 19.4188 3.80377 19.4339 3.80934 19.4427ZM13.0887 4.91285C13.0887 4.9186 13.089 4.9238 13.0901 4.92873C13.0842 4.92408 13.0845 4.9186 13.0887 4.91285ZM5.37829 11.0202C5.38498 11.0243 5.39028 11.0265 5.39446 11.0276C5.36993 11.098 5.36436 11.0955 5.37829 11.0202ZM5.43404 11.2664C5.42986 11.2681 5.42428 11.2672 5.41843 11.2664H5.43404ZM5.72614 15.4275H5.74064C5.73618 15.4289 5.73116 15.4281 5.72614 15.4275ZM3.33718 17.9301C3.33077 17.9265 3.32408 17.9227 3.31683 17.9186V17.946C3.31683 17.9367 3.31488 17.9257 3.31683 17.9186C3.32436 17.9219 3.33105 17.9257 3.33718 17.9301ZM6.05142 19.2586L6.04696 19.26C6.04696 19.26 6.04919 19.2591 6.05142 19.2586ZM13.3457 1.33381C13.3457 1.33244 13.3457 1.33052 13.3462 1.32943C13.3462 1.3308 13.3462 1.33244 13.3457 1.33381ZM5.00368 0.153487C5.01929 0.143352 5.03685 0.135956 5.05581 0.133765C5.03797 0.141434 5.02069 0.148282 5.00368 0.153487ZM3.93951 17.5649C3.93393 17.5658 3.92836 17.5649 3.9225 17.5636C3.9317 17.5608 3.9409 17.5586 3.9501 17.5562C3.94648 17.5611 3.94313 17.5644 3.93979 17.5649H3.93951ZM2.99881 19.4084C3.01051 19.4128 3.00522 19.4183 2.98236 19.4243L2.99881 19.4084ZM6.68747 19.4788V19.481C6.68747 19.481 6.6858 19.4802 6.68496 19.4799C6.6858 19.4794 6.68663 19.4791 6.68747 19.4788ZM10.4402 19.7793C10.4402 19.7793 10.4425 19.779 10.4436 19.7788C10.443 19.7788 10.4419 19.779 10.4411 19.7793C10.4408 19.7793 10.4405 19.7793 10.4402 19.7793ZM5.57006 0.0721325C5.53159 0.0762413 5.49787 0.0817197 5.47835 0.0885677C5.51849 0.0674759 5.5472 0.0650106 5.57006 0.0721325ZM2.56455 6.77715C2.57737 6.79879 2.5495 6.80783 2.48093 6.80454C2.51131 6.80728 2.54142 6.7966 2.56455 6.77715ZM4.34756 10.1716C4.35676 10.1721 4.36624 10.1707 4.37543 10.1716H4.34756ZM7.09162 19.5613C7.09636 19.5607 7.10138 19.5602 7.10584 19.5613H7.09162ZM13.186 19.4802C13.1918 19.4775 13.1974 19.4747 13.2024 19.4717C13.2038 19.4742 13.2052 19.4766 13.2072 19.4788C13.2005 19.4796 13.1935 19.4802 13.186 19.4802Z" fill="#20293F"/>
<path d="M2.6764 17.6721C2.60003 17.52 2.75249 17.6066 2.78148 17.5861C2.79765 17.5746 2.79904 17.5211 2.84364 17.4951C2.91778 17.4518 3.06634 17.4403 3.17727 17.371C3.19427 17.3603 3.21741 17.3549 3.23302 17.3436C3.29211 17.3012 3.31719 17.2393 3.34395 17.2226C3.35231 17.2171 3.48303 17.2124 3.51146 17.1787C3.56721 17.113 3.45628 17.1393 3.41614 17.1272C3.4075 17.1245 3.40778 17.1012 3.40025 17.0974C3.53293 17.0714 3.50199 17.0095 3.59536 16.933C3.61515 16.9169 3.64247 16.9095 3.65111 16.8782C3.66198 16.8826 3.71493 16.8799 3.73472 16.8782C3.83339 16.8706 3.76761 16.8336 3.79632 16.8035C3.81277 16.7862 3.86684 16.7955 3.89025 16.7698C3.9159 16.7416 3.87102 16.6471 3.87938 16.6369C3.90391 16.6065 4.03603 16.5986 3.95798 16.495C3.98279 16.4978 3.99951 16.4734 4.01373 16.4676C4.06362 16.4471 4.34012 16.3682 4.2643 16.2762C4.21887 16.2211 4.20605 16.3315 4.19183 16.3334C4.15309 16.3386 4.13665 16.3063 4.12494 16.3036C4.14083 16.234 4.25734 16.2014 4.27908 16.1674C4.2919 16.1474 4.26765 16.1102 4.2643 16.0847C4.31057 16.1269 4.33956 16.0916 4.37579 16.0847C4.4006 16.08 4.43265 16.088 4.45941 16.0844C4.44548 15.9973 4.40311 16.0181 4.37579 16.0025C4.34904 15.9875 4.29496 15.9779 4.29218 15.9749C4.28326 15.9653 4.32005 15.9313 4.32005 15.9206C4.46192 15.8565 4.37997 15.9499 4.40367 15.9754C4.47502 16.0521 4.43823 15.891 4.45941 15.8658C4.58484 15.8798 4.59571 15.7609 4.62665 15.6741C4.63222 15.6582 4.62358 15.6188 4.63334 15.5859C4.67515 15.4437 4.8198 15.4147 4.54331 15.3183C4.56923 15.2994 4.66651 15.3073 4.70274 15.2194C4.73842 15.1331 4.61745 15.0118 4.76629 15.0444C4.78357 14.9162 4.59543 14.9175 4.59905 14.7707C4.62581 14.7061 4.62414 14.728 4.6548 14.6885C4.67013 14.6998 4.69912 14.705 4.71054 14.7159C4.5355 14.8375 4.77632 14.7756 4.81813 14.8017C4.85019 14.8217 4.81367 14.9463 4.93325 14.9074C4.88447 14.8318 4.92767 14.745 4.84935 14.7296C4.94885 14.7006 5.04836 14.6324 4.93325 14.5516C4.96279 14.5373 4.98676 14.4688 4.98899 14.442H5.01686C5.07428 14.3806 5.03387 14.2681 5.04613 14.1832C5.05226 14.141 5.09324 14.11 5.10048 14.0588C5.1094 13.9961 5.07205 13.8679 5.07261 13.8125C5.07289 13.7802 5.07177 13.7295 5.07261 13.703C5.07428 13.6471 5.11804 13.577 5.1002 13.5112H5.01686C5.02411 13.4392 5.0871 13.4529 5.09017 13.3573C5.09184 13.3082 5.08013 13.2206 5.04474 13.1828C5.04641 13.174 5.0439 13.1644 5.04474 13.1554C5.05003 13.0998 5.05505 12.953 5.04557 12.902C5.04111 12.8785 4.99596 12.8705 4.98927 12.8544C5.09128 12.8831 5.04223 12.6171 5.01937 12.538C5.01073 12.5081 4.91708 12.3931 4.91318 12.3838C4.89701 12.3476 4.99735 12.2846 4.84991 12.252C4.84099 12.2501 4.83068 12.2542 4.82203 12.252C4.79193 12.2276 4.82343 12.1737 4.82203 12.1698C4.86524 12.1564 4.87443 12.1296 4.87778 12.0877C4.88335 12.0159 4.82287 12.0395 4.82064 12.0159C4.81534 11.9641 4.86775 11.928 4.83012 11.8485C4.79806 11.7809 4.76322 11.8028 4.73842 11.7863C4.72894 11.78 4.71277 11.7891 4.68267 11.759C4.80085 11.7075 4.62386 11.4801 4.57118 11.4305C4.48004 11.3445 4.50791 11.4453 4.45997 11.4576C4.4608 11.4059 4.46777 11.3379 4.40394 11.321C4.36799 11.2555 4.34513 11.2823 4.32033 11.2662C4.31615 11.2076 4.24312 11.0717 4.20939 11.0328C4.17455 10.9925 4.11937 10.9862 4.09735 10.9651C4.07979 10.9482 4.06139 10.9312 4.04299 10.9139C4.04216 10.9125 4.04132 10.9114 4.04049 10.9109C4.03993 10.9106 4.03937 10.9104 4.03881 10.9101C4.01038 10.8835 3.98251 10.8564 3.95826 10.8282C3.90725 10.7693 3.88301 10.6915 3.84677 10.6638C3.80385 10.631 3.7927 10.6583 3.76315 10.6638C3.73166 10.6696 3.69682 10.7055 3.65166 10.6909L3.67954 10.5816C3.69403 10.5827 3.74169 10.6403 3.76287 10.5953C3.7102 10.491 3.64135 10.4704 3.56804 10.4173C3.51007 10.3751 3.48192 10.3661 3.42868 10.3351C3.40053 10.3187 3.32304 10.2269 3.28932 10.2529C3.22967 10.2883 3.19678 10.3518 3.2057 10.2529C3.25058 10.2239 3.19567 10.2151 3.17783 10.1982C3.12292 10.1458 2.97213 10.0634 2.8991 10.0612C2.88879 10.0541 2.88098 10.0398 2.87123 10.0338C2.75946 9.9656 2.80461 10.0396 2.75918 10.0771C2.72936 10.1017 2.70678 10.0609 2.70399 10.0612C2.69368 10.0437 2.68727 10.0234 2.67612 10.0064C2.61842 9.91931 2.58386 9.93109 2.48129 9.92451C2.55097 10.0609 2.46819 10.0535 2.45342 10.0886C2.379 10.0305 2.35642 10.1437 2.31155 10.1817C2.25608 10.2286 2.19838 10.1875 2.17497 10.3075H2.11923C2.14348 10.2179 2.12619 10.1239 2.11923 10.0338C2.11477 9.97875 2.10278 9.66593 2.09135 9.65032C2.08884 9.64703 2.05205 9.65142 2.03561 9.65032C2.00801 9.64868 1.97986 9.65169 1.95227 9.65032C1.94028 9.58074 2.0292 9.53966 2.02892 9.47803C2.02836 9.39914 1.96509 9.18493 1.89624 9.13042C1.89429 9.09344 1.90126 9.07427 1.89624 9.02085C1.88482 8.90142 1.91687 8.93292 1.92412 8.8565C1.92802 8.81486 1.87701 8.64257 1.86837 8.55546C1.85444 8.41412 1.87869 8.29661 1.86837 8.17225C1.86698 8.15417 1.87172 8.13335 1.86837 8.11746C1.86949 8.11034 1.86893 8.10212 1.86837 8.09418C1.86837 8.08569 1.86809 8.07775 1.86781 8.07008C1.86781 8.06761 1.86781 8.06487 1.86865 8.06268C1.94112 8.07912 1.92913 8.02543 1.93276 7.97667C1.94223 7.85423 2.01749 7.38966 2.00997 7.33981C2.00718 7.32145 1.95115 7.32282 1.95227 7.31077C1.96565 7.18422 2.00383 7.07383 2.00801 6.91276C2.00857 6.88537 2.00746 6.85798 2.00801 6.83059C2.00941 6.73115 2.01247 6.62871 2.00801 6.52955C2.00606 6.486 2.0147 6.43231 2.00801 6.39259C1.99714 6.32877 1.96955 6.32575 1.95673 6.31562C1.95506 6.31397 1.95394 6.31233 1.95227 6.31041C1.9506 6.3074 1.9506 6.28576 1.95227 6.28302C2.00997 6.18304 2.01331 6.05649 2.00801 5.9272C2.00551 5.86831 1.98154 5.83352 1.98014 5.81763C1.97791 5.79106 1.98404 5.7612 1.98014 5.73546C1.97568 5.70642 1.9584 5.52563 1.95227 5.51632C1.94335 5.43798 1.95896 5.46975 2.00801 5.46154C2.03366 5.45743 2.0646 5.46455 2.09135 5.46126V5.43442C1.99408 5.44757 2.04787 5.33389 2.03589 5.26979C2.02446 5.20898 2.0122 5.21829 2.00801 5.13283C2.10278 5.14214 2.04453 5.11201 2.03867 5.06106C2.03003 4.98464 1.98404 4.85727 2.06348 4.84576C1.98181 4.74606 2.01192 4.53075 2.00774 4.39379C2.0069 4.3664 2.00885 4.33901 2.00774 4.31162C2.00634 4.27546 2.00969 4.24423 2.00774 4.20205C2.0069 4.18644 2.00774 4.17603 2.00774 4.17466C2.11086 4.06399 2.01442 3.93909 1.99464 3.84952C1.98293 3.7972 2.04676 3.70954 1.95227 3.68188L1.9244 3.73639L1.85416 3.62709C1.8313 3.61942 1.84384 3.68681 1.82712 3.68215C1.68609 3.64435 1.80705 3.58737 1.81263 3.49013C1.73598 3.53779 1.65682 3.4537 1.60971 3.46521C1.5916 3.46959 1.29587 3.62764 1.28333 3.64106C1.21838 3.71009 1.31761 3.71036 1.17211 3.73611C1.11916 3.74543 1.11414 3.74433 1.06062 3.7635C0.972267 3.79501 0.905652 3.85116 0.865515 3.92786C0.851021 3.9558 0.865515 3.97881 0.863285 3.9799C0.817296 4.00154 0.771306 3.97826 0.69828 4.03742C0.662881 4.06619 0.594872 4.16261 0.575361 4.20178C0.559753 4.23328 0.551948 4.38339 0.54721 4.39352C0.526305 4.43762 0.451049 4.44392 0.447705 4.44858C0.439343 4.46036 0.546374 4.63868 0.475298 4.72168C0.466379 4.72305 0.456624 4.72058 0.447426 4.72168C0.452164 4.73346 0.444639 4.75893 0.447426 4.77646C0.43767 4.797 0.430145 4.81481 0.42457 4.83015C0.401157 4.88192 0.410913 4.83289 0.350429 4.8307C0.314752 4.82933 0.319769 4.95341 0.419832 4.91342C0.401715 5.04079 0.371891 5.26322 0.447426 5.37854C0.447426 5.38758 0.447426 5.39689 0.447426 5.40593C0.347921 5.40703 0.40283 5.43661 0.432653 5.48509C0.435441 5.50208 0.4399 5.52125 0.447426 5.54289C0.447426 5.55193 0.447426 5.56124 0.447426 5.57028C0.450771 5.58973 0.419275 5.62123 0.419553 5.62507C0.421226 5.65602 0.451328 5.70094 0.44882 5.71929C0.447705 5.72751 0.294963 5.77161 0.447147 5.78942C0.460526 5.83598 0.396976 5.8001 0.391402 5.8327C0.412306 5.94993 0.409798 6.1184 0.335935 6.21372L0.446868 6.24139C0.465543 6.29343 0.398091 6.27426 0.391402 6.30028C0.381089 6.34027 0.393353 6.40026 0.391402 6.446C0.390566 6.46189 0.364087 6.49531 0.391402 6.52818V6.55557C0.381647 6.55585 0.371055 6.57968 0.363529 6.58296C0.33705 6.59392 0.298865 6.58817 0.28019 6.62433C0.257892 6.67582 0.331476 6.65994 0.336493 6.68103C0.370776 6.81799 0.25399 6.76786 0.2342 6.8136C0.206606 6.87743 0.232528 6.93632 0.307784 6.93879V6.96618C0.303046 6.96481 0.265139 6.99932 0.255384 6.98919C0.241447 6.97494 0.271828 6.92783 0.224445 6.93906L0.195736 7.03438L0.279911 7.04863L0.252039 7.13053L0.307505 7.18504C0.277682 7.19298 0.286043 7.23243 0.279633 7.23982C0.254826 7.26859 0.1949 7.30337 0.195179 7.30885C0.197687 7.35597 0.266533 7.38528 0.251481 7.45869L0.168978 7.44499C0.19267 7.45786 0.190998 7.50443 0.199917 7.51101C0.213575 7.52114 0.257056 7.51374 0.279633 7.51374C0.228068 7.59017 0.23643 7.58825 0.25176 7.6507C0.167864 7.69042 0.175947 7.74466 0.25176 7.78766C0.229741 7.88162 0.26932 7.85204 0.279633 7.89723C0.13358 8.00023 0.259007 8.1791 0.266533 8.27798C0.269599 8.31852 0.226953 8.45959 0.227232 8.5152C0.227232 8.53026 0.280748 8.52643 0.279911 8.53958C0.278239 8.56286 0.221658 8.6538 0.196572 8.67763C0.217477 8.72831 0.277124 8.68777 0.278797 8.6916C0.294405 8.72639 0.242841 8.81432 0.334821 8.80144C0.239775 8.87047 0.171208 8.97566 0.307227 9.04742C0.30639 9.05646 0.308063 9.06578 0.307227 9.07481C0.215247 9.05509 0.14668 9.23259 0.279354 9.26656C0.278518 9.27615 0.281026 9.29614 0.279354 9.32134L0.251203 9.43091L0.196294 9.40352C0.182357 9.48405 0.119644 9.55691 0.223887 9.58157L0.167864 9.59554L0.223609 9.62293C0.191834 9.65881 0.155878 9.75359 0.168978 9.79714C0.17734 9.82508 0.233085 9.80454 0.22333 9.82782C0.208836 9.86343 0.138597 9.90068 0.167864 9.97875L0.223051 9.95109C0.176783 10.0626 0.276288 10.0913 0.275452 10.1001C0.26932 10.1875 0.241169 10.2056 0.306669 10.3069C0.243677 10.4135 0.301931 10.4017 0.334542 10.4713C0.336493 10.4784 0.338444 10.485 0.340674 10.491C0.350987 10.5433 0.323671 10.5992 0.446032 10.5534C0.442966 10.6238 0.386385 10.6542 0.362414 10.6904C0.318097 10.6896 0.274337 10.6764 0.250924 10.7178C0.246743 10.7255 0.188489 10.8761 0.1949 10.8816C0.205213 10.8904 0.251203 10.866 0.306669 10.9366C0.114069 10.9238 0.102084 11.1213 0.223051 11.2103C0.233085 11.2177 0.240611 11.23 0.250924 11.2377C0.246186 11.2475 0.227232 11.256 0.223051 11.2651L0.0560943 11.2517L0.167306 11.2654C0.085918 11.333 0.149189 11.39 0.128563 11.4574C0.112954 11.5089 0.0285004 11.5513 0.0627837 11.6157C0.0694731 11.628 0.100133 11.5982 0.111282 11.676C0.112676 11.6847 0.110446 11.6943 0.111282 11.7034C0.021811 11.6836 0.0195811 11.8945 0.0279429 11.931C0.0301727 11.9406 0.180685 12.037 0.0279429 12.0594V12.0863C0.150582 12.063 0.0114981 12.1775 0.0279429 12.1959C0.0368622 12.206 0.0945585 12.1734 0.0834095 12.2233C-0.0882859 12.2065 0.0530283 12.2939 0.0566517 12.3764C0.0591603 12.435 -0.019998 12.5161 0.0282217 12.6065L0.0834095 12.552C0.121037 12.6369 0.00174267 12.6596 0.00257885 12.6733C0.0042512 12.701 0.0416005 12.7516 0.042158 12.7966C0.0427154 12.8311 0.0128917 12.8475 0.0173513 12.9015C0.0226471 12.9672 0.0449452 13.071 0.0839669 13.1266C0.0811796 13.1532 0.0839669 13.182 0.0839669 13.2088C-0.0431323 13.2863 0.102363 13.3819 0.0839669 13.44C0.0694731 13.4849 -0.0553962 13.4584 0.0293366 13.5726C0.0429941 13.5912 0.0850818 13.592 0.0861967 13.6079C0.0892627 13.6569 0.0477325 13.683 0.0432729 13.7158C0.0276642 13.8287 0.0909351 14.0829 0.102084 14.2404C0.112118 14.3817 0.140827 14.365 0.141663 14.3735C0.147516 14.4231 0.0990181 14.4516 0.0979032 14.4976C0.0956734 14.5921 0.162568 14.7028 0.180964 14.7929C0.193785 14.8564 0.126612 14.9455 0.223887 15.0024C0.103199 15.0359 0.206606 15.1005 0.21469 15.1704C0.221658 15.2303 0.200474 15.3503 0.210509 15.4122C0.22333 15.4906 0.336493 15.6451 0.26486 15.7267L0.362972 15.7549C0.350987 15.8439 0.192949 15.8034 0.390845 15.974C0.390845 15.9831 0.390566 15.9924 0.390845 16.0014H0.307227C0.300816 16.0069 0.334542 16.0584 0.335099 16.0836C0.334821 16.0847 0.334542 16.0858 0.334263 16.0869C0.326459 16.1052 0.267926 16.1625 0.362972 16.1932C0.363808 16.2022 0.362414 16.2115 0.362972 16.2206C0.268484 16.2014 0.324786 16.2723 0.362972 16.3301C0.36548 16.357 0.3613 16.3852 0.362972 16.4123C0.277682 16.5137 0.344297 16.526 0.362972 16.5906C0.369104 16.612 0.317261 16.5969 0.31085 16.6169C0.281026 16.7084 0.397534 16.8133 0.390566 16.8224C0.388893 16.8248 0.338723 16.8147 0.333427 16.8402C0.318933 16.9076 0.408683 17.0673 0.306948 17.0829L0.390845 17.0968C0.403387 17.1429 0.337329 17.1089 0.332869 17.1404C0.328689 17.1697 0.357397 17.2234 0.363251 17.2609C0.364365 17.2675 0.287437 17.3253 0.418717 17.3434V17.3699C0.320048 17.3636 0.387221 17.3927 0.391123 17.425C0.406174 17.5557 0.448262 17.5406 0.447983 17.5485C0.445754 17.5896 0.40283 17.6085 0.397534 17.6348C0.387779 17.6836 0.459132 17.7496 0.418717 17.8082C0.489792 17.7866 0.56031 17.8296 0.613826 17.8359V17.8633C0.669571 17.8983 0.714167 17.9131 0.781061 17.918C0.905931 17.9274 1.12473 17.9512 1.26995 17.9411C1.28695 17.94 1.28221 17.8885 1.29531 17.8907C1.34966 17.8994 1.39314 17.9479 1.49014 17.9463C1.74155 17.9422 1.96704 17.792 2.1825 17.8846L2.67584 17.6715L2.6764 17.6721ZM4.7635 14.5047C4.76378 14.5047 4.76434 14.505 4.76462 14.5053C4.76657 14.5066 4.76629 14.5113 4.76406 14.5192C4.76294 14.5151 4.76267 14.5102 4.76322 14.5047H4.7635ZM0.479479 16.7832C0.483939 16.7903 0.488399 16.7972 0.493137 16.8043C0.482824 16.7966 0.479201 16.7895 0.479479 16.7832ZM2.19225 16.8476C2.19225 16.8476 2.19309 16.8476 2.19365 16.8476C2.19615 16.8487 2.19894 16.85 2.20256 16.8511C2.19922 16.8495 2.19588 16.8487 2.19253 16.8476H2.19225ZM1.06926 6.13072C1.06703 6.13456 1.0648 6.1373 1.0623 6.13812C1.06453 6.13565 1.06703 6.13319 1.06926 6.13072ZM1.86809 16.2C1.86865 16.2074 1.86893 16.2145 1.86809 16.2214V16.2ZM1.69891 15.9138C1.7003 15.9195 1.70114 15.9258 1.70086 15.9327C1.70002 15.9535 1.69835 15.974 1.6964 15.9946C1.6964 15.9702 1.69723 15.9431 1.69891 15.9138ZM1.58965 12.9913C1.5902 12.9847 1.59411 12.9798 1.5994 12.9763C1.59745 12.9806 1.59466 12.9856 1.58965 12.9913ZM2.54177 14.7307C2.53202 14.7351 2.52115 14.7395 2.50889 14.7433C2.51948 14.7376 2.53063 14.7337 2.54177 14.7307ZM2.84782 15.0255C2.84642 15.0227 2.84503 15.0197 2.84336 15.0172L2.84865 15.0249C2.84865 15.0249 2.84809 15.0252 2.84782 15.0255ZM1.42074 14.6852L1.42241 14.6885L1.4199 14.6863C1.4199 14.6863 1.42046 14.6858 1.42102 14.6852H1.42074ZM3.78991 14.3607C3.78991 14.3607 3.78935 14.3601 3.78908 14.3598C3.78935 14.3598 3.78963 14.3598 3.79019 14.3598C3.79019 14.3598 3.79019 14.3601 3.79019 14.3604L3.78991 14.3607ZM3.75758 13.0968C3.75841 13.0987 3.75841 13.0998 3.75925 13.1017L3.70685 13.128C3.72859 13.1165 3.74504 13.1061 3.75758 13.0968ZM1.06007 13.763C1.06007 13.7613 1.06007 13.7594 1.06034 13.7578C1.06118 13.7578 1.06174 13.7578 1.0623 13.7572C1.06146 13.7588 1.06062 13.7608 1.05979 13.7627L1.06007 13.763ZM1.20082 16.5674C1.20082 16.5674 1.20277 16.5665 1.20389 16.566C1.20194 16.5791 1.20027 16.5923 1.19943 16.6049C1.20082 16.5895 1.20138 16.5772 1.20082 16.5674ZM3.70685 12.2243C3.70406 12.2241 3.70156 12.2238 3.69905 12.2238C3.70072 12.2219 3.70239 12.22 3.70378 12.218L3.70713 12.2243H3.70685ZM1.41767 5.92638C1.41851 5.91898 1.4199 5.91076 1.42241 5.90118C1.42102 5.90967 1.41934 5.91789 1.41767 5.92638ZM0.865237 8.20046V8.21251C0.864958 8.20841 0.8644 8.2043 0.865237 8.20046ZM0.600168 13.5389C0.604627 13.5389 0.609087 13.5389 0.614383 13.5389C0.60853 13.5394 0.60407 13.5394 0.600168 13.5389ZM0.753746 13.1828V13.2102C0.754025 13.2011 0.753189 13.1918 0.753746 13.1828ZM0.593479 13.7865C0.591249 13.7862 0.58874 13.7854 0.58651 13.7851C0.589019 13.7851 0.591249 13.786 0.593479 13.7865ZM3.69124 15.8672C3.69375 15.8626 3.69905 15.8617 3.70685 15.8656C3.70406 15.8675 3.69821 15.8675 3.69124 15.8672ZM0.690196 9.62074C0.694099 9.62183 0.697443 9.62293 0.698001 9.62402C0.69159 9.62512 0.68936 9.62375 0.690196 9.62074ZM0.559753 14.3349C0.559753 14.3349 0.55808 14.3357 0.557523 14.3363C0.557523 14.3357 0.557801 14.3352 0.55808 14.3349C0.558638 14.3349 0.559195 14.3349 0.560031 14.3349H0.559753ZM3.00697 16.7701L3.0092 16.7695C3.0092 16.7695 3.00976 16.7695 3.01003 16.7695C3.00948 16.7703 3.0092 16.7711 3.00864 16.772C3.00808 16.7714 3.00753 16.7706 3.00697 16.7701ZM0.670128 7.92682V7.94106C0.669292 7.93613 0.668735 7.9312 0.670128 7.92682ZM1.81235 10.3217V10.3357C1.81095 10.3313 1.81179 10.3266 1.81235 10.3217ZM1.55787 8.87458C1.56595 8.88307 1.5732 8.89321 1.57878 8.9006C1.57069 8.89156 1.56372 8.8828 1.55787 8.87458ZM0.4268 11.9803C0.4268 11.9817 0.427358 11.9833 0.427079 11.9847C0.425128 11.9743 0.422619 11.963 0.419553 11.951C0.422062 11.9614 0.42457 11.971 0.4268 11.9803ZM4.70971 12.6078C4.70636 12.5996 4.70302 12.5944 4.69967 12.5917C4.69577 12.5818 4.69661 12.5728 4.70023 12.5646C4.70441 12.5777 4.70776 12.5919 4.70943 12.6078H4.70971ZM1.14368 4.23081C1.14034 4.23109 1.13616 4.23136 1.1317 4.23136C1.13393 4.23026 1.13588 4.22862 1.13783 4.22753L1.14368 4.23081ZM4.25371 15.6738C4.24897 15.6741 4.2434 15.6741 4.23643 15.6738C4.24228 15.6738 4.24814 15.6738 4.25371 15.6738ZM4.57062 12.4711C4.58317 12.4714 4.59459 12.4731 4.60546 12.4755C4.59376 12.4742 4.58233 12.4728 4.57062 12.4711ZM1.86113 7.62824L1.86809 7.65317C1.86503 7.6444 1.8628 7.63619 1.86113 7.62824ZM2.26751 17.5976C2.26249 17.5976 2.25747 17.5967 2.25246 17.5959C2.2728 17.5943 2.29343 17.5924 2.31406 17.5902L2.26751 17.5976ZM1.87255 4.10344C1.87116 4.10043 1.87004 4.09769 1.86837 4.09467L1.87785 4.09659C1.87618 4.09878 1.87423 4.10125 1.87255 4.10344ZM0.1687 11.513C0.167585 11.5042 0.168978 11.4946 0.1687 11.4856V11.513ZM4.98983 12.8133C4.98955 12.8177 4.98927 12.8223 4.98843 12.827C4.98843 12.8229 4.98899 12.8182 4.98983 12.8133ZM1.84245 8.50616C1.84357 8.52451 1.84357 8.54177 1.84022 8.55656C1.84134 8.53985 1.84189 8.52314 1.84245 8.50616ZM0.420389 5.03805C0.420389 5.03805 0.420389 5.03888 0.420389 5.03915H0.419553C0.419553 5.03915 0.420111 5.03833 0.420389 5.03805ZM0.332591 8.1339C0.333706 8.1287 0.334542 8.12376 0.335935 8.11856C0.335935 8.12294 0.334542 8.12815 0.332591 8.1339Z" fill="#20293F"/>
<path d="M4.84894 16.714C4.85284 16.6874 4.84475 16.6565 4.84894 16.6318C4.73772 16.6707 4.71041 16.7192 4.84894 16.714Z" fill="#20293F"/>
<path d="M0.391612 4.68271C0.399695 4.70189 0.444292 4.71668 0.447079 4.7238C0.47746 4.61286 0.368757 4.61807 0.391612 4.68271Z" fill="#20293F"/>
<path d="M9.42967 9.70858C9.40765 9.70228 9.3848 9.70693 9.3625 9.70611C9.38034 9.6768 9.41044 9.66393 9.41824 9.65133C9.46005 9.58339 9.4673 9.54203 9.39037 9.59654C9.39149 9.58559 9.36752 9.55737 9.3625 9.54176C9.42661 9.46671 9.42744 9.40398 9.33463 9.45958C9.3363 9.45274 9.3062 9.33878 9.2931 9.32427C9.2616 9.28893 9.18579 9.26291 9.13952 9.24072C9.22648 9.13828 9.05701 9.11718 8.97228 9.13115C8.91849 9.07555 8.88894 9.06377 8.83292 9.02159C8.82288 9.01392 8.81536 9.00186 8.80505 8.99419C8.73202 8.94078 8.70498 8.93996 8.64589 8.90353C8.61774 8.88627 8.62471 8.80656 8.54193 8.83121C8.50346 8.84272 8.49176 8.95119 8.41483 8.93941C8.38584 8.71452 8.26348 8.80546 8.08092 8.77588C8.08956 8.90736 8.06949 8.82573 7.99869 8.84436C7.96274 8.85395 7.90615 8.89805 7.91284 8.93914H7.88609C7.81139 8.71534 7.75704 9.06377 7.74617 9.07664C7.74171 9.08185 7.68791 9.02871 7.65 9.07582C7.57196 9.17334 7.61795 9.26674 7.57893 9.37741C7.57809 9.38261 7.57698 9.38782 7.57614 9.39357C7.57614 9.38809 7.5767 9.38289 7.57893 9.37741C7.53824 9.49355 7.48277 9.80856 7.53378 9.91374C7.54716 9.94141 7.65474 9.97044 7.6068 10.0345C7.60346 10.0389 7.50172 9.98606 7.49643 10.0477C7.49085 10.1107 7.59733 10.1619 7.60179 10.2175C7.61238 10.3476 7.4981 10.3567 7.60708 10.527C7.64053 10.5796 7.67788 10.6311 7.74644 10.6372C7.75871 10.6536 7.67509 10.7065 7.6907 10.7185C7.77153 10.781 7.83954 10.5166 7.94155 10.6366C7.93514 10.6339 7.8911 10.6342 7.88581 10.6366C7.76623 10.6925 7.96636 10.7911 8.02517 10.664C8.03465 10.6703 8.04217 10.684 8.05304 10.6914C8.02461 10.7832 8.02461 10.8588 8.14642 10.8234C8.17819 10.8141 8.18795 10.7752 8.19241 10.7733C8.20021 10.77 8.23366 10.7722 8.24815 10.7733C8.23589 10.8369 8.26683 10.8349 8.31783 10.8404C8.38306 10.8473 8.51071 10.8599 8.56869 10.8582C8.67432 10.8552 8.78108 10.7659 8.8332 10.7733C8.87501 10.7793 8.89285 10.859 8.93131 10.8007C8.93661 10.7928 8.91514 10.7541 8.921 10.7497C8.94385 10.7317 9.07792 10.7248 9.08405 10.7182C9.10105 10.6991 9.00963 10.5188 9.16767 10.5542C9.17436 10.5317 9.14008 10.5295 9.13952 10.527C9.13645 10.5134 9.13868 10.4887 9.13952 10.4723C9.21812 10.5355 9.2747 10.375 9.30675 10.3079C9.32069 10.2786 9.32431 10.2518 9.33463 10.2257C9.35525 10.1731 9.35191 10.151 9.3625 10.1162C9.36278 10.1077 9.36361 10.0989 9.36417 10.0901C9.36584 10.0967 9.36584 10.1052 9.3625 10.1162C9.38703 10.0365 9.43051 9.94305 9.44389 9.8543C9.44863 9.82308 9.4542 9.75898 9.44584 9.73296C9.44222 9.722 9.44584 9.71104 9.42939 9.70803L9.42967 9.70858ZM9.25101 9.62394C9.24878 9.62476 9.24571 9.62503 9.24265 9.62531C9.24543 9.62503 9.24794 9.62448 9.25101 9.62394ZM7.60736 9.48698V9.45958C7.60875 9.46835 7.60708 9.47794 7.60736 9.48698ZM8.57928 10.8275C8.57928 10.8275 8.58123 10.8267 8.58207 10.8264C8.58207 10.827 8.58207 10.8275 8.58234 10.8281C8.58123 10.8281 8.58011 10.8278 8.57928 10.8275ZM9.40654 9.85896C9.40821 9.85293 9.40988 9.84691 9.41155 9.84061C9.41044 9.84691 9.40877 9.85293 9.40654 9.85896Z" fill="#20293F"/>
</g>
<defs>
<clipPath id="clip0_61_4288">
<rect width="16" height="20" fill="white"/>
</clipPath>
</defs>
</svg>
