<svg width="45" height="28" viewBox="0 0 45 28" fill="none" xmlns="http://www.w3.org/2000/svg">
<path d="M0.00640869 8.27505C0.0144196 8.42382 0.0624695 8.72135 0.0816917 8.93748C0.177792 9.1087 0.229042 9.32764 0.232246 9.59991C0.264282 9.70938 0.289909 9.71219 0.307526 9.59991C0.408436 9.9227 0.432461 10.2315 0.382809 10.5262C0.317139 10.5767 0.317139 10.6216 0.382809 10.6581C0.344368 10.9949 0.671116 11.1156 0.760815 10.922C1.11959 11.2279 0.880939 11.4468 1.28938 11.5844C1.00747 11.5451 0.762417 11.5591 0.986656 12.1149C1.02189 12.2833 1.07475 12.2384 1.13721 12.1149C1.23492 12.1766 1.19328 12.2889 1.2125 12.3787C1.33583 12.6005 1.4063 12.5443 1.36306 12.2468C1.45916 12.3619 1.52803 12.4545 1.496 12.6763L1.58889 12.6426H1.66417C1.85958 13.1113 2.08222 12.9401 2.26802 13.0384C2.3449 13.0805 2.42019 13.1338 2.49386 13.1703C2.63482 13.2405 2.77095 13.3555 2.91031 13.4341L2.94714 13.5661C2.89429 13.5604 2.82701 13.6334 2.79659 13.7008C2.57074 14.1864 2.86226 14.0713 2.87186 14.0966C2.88468 14.1274 2.84624 14.3239 2.89749 14.4446C2.95515 14.5765 3.15537 14.7506 3.16338 14.7758C3.1826 14.8516 3.09931 14.9695 3.09931 15.02C3.0961 15.1267 3.11533 15.152 3.17459 15.152C3.20502 15.152 3.32195 15.0341 3.32515 15.02C3.57181 14.9751 3.43887 15.093 3.40042 15.4158C3.44848 15.4298 3.50774 15.399 3.55099 15.4158C3.64709 15.4551 3.85211 15.5477 3.92899 15.5477C4.2189 15.6544 4.16925 15.8789 4.15643 16.3421C4.18046 16.3505 4.20769 16.3337 4.23171 16.3421C4.25574 16.3505 4.28297 16.3337 4.30699 16.3421C4.35344 16.3589 4.41751 16.3224 4.45755 16.3421C4.48318 16.3561 4.51521 16.3252 4.53283 16.3421C4.66417 16.46 4.93166 16.8108 5.13668 17.0045C5.31447 17.1729 5.49386 17.3498 5.66524 17.535C5.74212 17.6164 5.8158 17.7147 5.89108 17.7989C5.93753 17.8522 5.9968 17.8775 6.04165 17.9308C5.95195 18.1918 6.20822 18.7392 6.34437 18.4613C6.35398 18.4697 6.41164 18.4697 6.41965 18.4613C6.54138 18.5708 6.62787 18.4052 6.64548 18.1974V18.5932C6.69354 18.6101 6.748 18.6999 6.79605 18.7251C6.82488 19.0283 7.01548 19.1434 7.09877 18.8571C7.24453 18.9413 7.4079 19.0311 7.55206 19.1209C7.53444 19.3539 7.62093 19.4746 7.6882 19.3006C7.62733 19.4886 7.67378 19.5504 7.7795 19.3876C7.99092 19.5251 8.42819 19.8675 8.61078 19.9181C8.68766 20.0219 8.9039 20.0725 9.00801 20.0275C9 20.1903 9.1874 20.4373 9.32835 20.3307C9.61826 20.5384 9.89215 20.6956 10.1965 20.8472C10.2461 20.8528 10.2974 20.85 10.347 20.8472C10.3534 21.0268 10.5024 21.0885 10.5729 20.9791L10.6482 21.2429C10.6722 21.2485 10.6994 21.2373 10.7234 21.2429C10.7491 21.2485 10.7747 21.2373 10.7987 21.2429C10.9477 21.2738 11.1095 21.1924 11.252 21.3749C11.1863 21.4254 11.1863 21.4703 11.252 21.5068C11.3737 21.5657 11.5115 21.7257 11.63 21.7706C11.8607 21.9727 12.0144 22.0653 12.0913 22.0513C12.1201 22.0653 12.1666 22.0597 12.2338 22.0373C12.4132 22.2618 12.5398 22.3067 12.6119 22.1692C12.6631 22.1945 12.7224 22.3095 12.7944 22.2927L12.8185 22.2253C12.788 22.3404 12.8313 22.4302 12.913 22.4359C12.9306 22.419 12.9626 22.4499 12.9883 22.4359C13.1885 22.5734 13.4704 22.7081 13.6674 22.5678C13.6017 22.6183 13.6017 22.6632 13.6674 22.6997C13.685 22.7053 13.8852 22.8176 13.8932 22.8316C13.9349 22.8316 13.9653 22.8176 13.9861 22.8008C14.0422 22.9299 14.1351 23.0674 14.1959 22.9664C14.2216 22.9664 14.2456 22.9664 14.2712 22.9664C14.4474 23.0814 14.401 22.6997 14.4602 22.6997C14.4955 22.6997 14.4522 22.8457 14.6492 22.9664C14.7229 23.0113 14.803 23.0365 14.8751 23.1011C14.795 22.4331 15.1137 22.9158 15.4036 22.7025L15.2547 23.1657C15.4084 23.2892 15.6119 23.5586 15.7816 23.4969V23.6288C15.8281 23.6541 15.8889 23.713 15.9322 23.7607C16.3438 23.2807 16.2125 24.0302 16.7571 23.6793C16.9605 23.5502 17.0133 23.4632 17.292 23.3621C17.3497 23.626 17.5627 23.5755 17.67 23.626C17.7549 24.2912 18.2483 23.8477 18.2739 23.8898C18.2963 23.9263 18.2531 24.207 18.2739 24.2856C18.3219 24.4624 18.5398 24.5579 18.5766 24.8161C18.6006 24.8245 18.6279 24.8105 18.6519 24.8161C18.8521 24.9172 19.4367 25.021 19.2557 24.5523C19.275 24.5354 19.3102 24.5691 19.331 24.5523C19.3358 25.1642 19.7138 24.8863 19.9349 24.948C19.9909 24.9649 20.0934 25.1642 20.1607 25.2119C20.2264 25.1333 20.2376 25.1277 20.3113 25.08C20.3625 25.0463 20.4538 24.948 20.4618 24.948C20.5035 24.9424 20.5804 24.934 20.6124 24.948L20.6877 25.3438C20.9135 25.3999 21.1426 25.5347 21.3668 25.6077C21.3572 25.4505 21.4036 25.2596 21.4805 25.2119C21.5462 25.1698 21.4917 25.4729 21.559 25.4842C21.6455 25.4982 21.8361 25.2568 21.9706 25.3466L21.8938 25.6105C22.331 25.6413 22.3406 24.9368 22.5745 25.8771H22.6498C22.661 25.8603 22.7459 25.9248 22.7843 25.8434C22.8195 25.7676 22.7843 25.5459 22.8099 25.501C22.8259 25.4729 23.1943 25.3578 23.2552 25.3466C23.3433 25.3326 23.4698 25.3326 23.5579 25.3466C23.5531 25.8238 23.7966 25.5431 24.0288 25.748C24.1153 25.8238 24.1361 26.0764 24.2387 26.141V26.2729C24.2627 26.2841 24.2947 26.3992 24.3139 26.4048C24.3588 26.5564 24.4581 26.576 24.4645 26.4048C24.4885 26.4104 24.5157 26.4048 24.5398 26.4048C24.4741 26.4553 24.4741 26.5002 24.5398 26.5367C24.6086 26.882 24.6983 26.8848 24.7656 26.5367C25.0155 26.7164 25.2173 26.7164 25.3695 26.5367C25.3743 26.7978 25.7395 26.9437 25.874 26.809C25.8996 26.8567 25.9605 26.8483 26.0486 26.8006C26.0614 27.0083 26.1143 27.0139 26.1239 26.8006C26.1991 26.8736 26.2744 26.9157 26.3497 26.9325C26.3625 26.9325 26.5643 26.9325 26.5755 26.9325C26.6733 26.7023 26.7533 26.7332 26.8943 26.8258C27.0464 27.0588 27.5029 27.1374 27.6119 26.8708C27.591 26.983 27.6471 27.0504 27.7832 27.0644C27.8057 27.056 27.8361 27.0644 27.8585 27.0644C27.8841 27.0644 27.9146 27.056 27.9338 27.0644C27.9915 27.0953 28.0475 27.3311 28.2365 27.3283C28.4736 27.3283 28.725 27.303 28.9925 27.3283C29.1463 27.5079 29.3305 27.5135 29.5483 27.3423C29.6989 27.3816 29.8398 27.4209 29.9744 27.4602C30.181 27.6567 30.4597 27.5304 30.6535 27.5921C30.7224 27.4883 30.7368 27.3479 30.7288 27.1964C30.9066 27.2216 30.9899 26.9915 31.0812 26.9746C31.536 26.8932 31.717 27.289 32.1255 27.463C32.1927 27.4658 32.1639 27.2862 32.1639 27.1964C32.1239 27.2048 32.0358 27.3816 32.0133 27.3283V26.9325C32.0598 26.9185 32.1223 26.9522 32.1639 26.9325C32.1639 27.0195 32.1639 27.1093 32.1639 27.1964C32.4826 27.1346 32.6556 27.463 32.8062 27.4574C32.9439 27.4518 33.1698 26.9522 33.41 27.0953C33.4821 27.1374 33.5141 27.6202 33.9002 27.1964C33.9098 27.1851 34.0027 27.0055 34.0507 26.9325C34.4303 27.0364 34.1837 27.2328 34.0507 27.5949C34.2269 27.6904 34.2637 27.8532 34.2766 27.8588C34.323 27.9514 34.3983 27.9514 34.504 27.8588C34.5505 27.8728 34.6065 27.8476 34.6546 27.8588C34.6161 27.39 34.7619 27.6904 34.9557 27.7269L35.0326 27.1964C35.087 27.129 35.1303 26.9971 35.1831 26.9325C35.2376 26.8651 35.2808 26.7444 35.3337 26.6687C35.5451 26.3711 35.4602 26.5311 35.6364 26.4048C35.6861 26.5143 35.7197 26.6518 35.787 26.736C35.5051 26.8371 35.6348 27.1599 35.8398 27.1795C35.9471 27.1907 36.2387 26.2953 36.0897 27.0644C36.4004 27.0308 36.4309 27.4293 36.543 26.8006C36.6631 26.9101 36.7288 27.0672 36.7432 27.0729C36.9018 27.1093 37.1276 26.809 37.299 26.8006L36.8473 26.1382L37.1484 25.7424C37.2157 25.762 37.3006 25.7368 37.3759 25.7424C37.2926 25.9838 37.2637 26.068 37.3759 26.2729C37.4527 26.4132 37.4928 26.4301 37.6017 26.4048C37.6017 26.4245 37.653 26.7557 37.677 26.8006C37.7218 26.7837 37.7795 26.8118 37.8275 26.8006H37.9028C37.8564 27.0869 37.8436 27.3114 38.0534 27.3311C38.1543 27.3367 38.2552 27.3255 38.3561 27.3311C38.4698 27.2385 38.5707 27.1514 38.6588 27.0672C38.6668 27.3339 38.7934 27.4686 39.0368 27.463C39.1185 27.623 39.1746 27.9767 39.189 27.9935C39.221 28.0328 39.3476 27.7802 39.4148 27.7297C39.6903 27.9121 39.8361 27.9318 39.9883 27.4349C40.0043 27.5669 40.0924 27.5893 40.1708 27.5977C40.1805 27.6286 40.2237 27.6932 40.2461 27.7297C40.339 27.7493 40.4143 27.8391 40.472 27.9935C40.5136 28.016 40.5825 27.9711 40.6225 27.9935C40.85 27.2441 40.6337 27.3367 40.5088 27.0729C40.315 26.6659 40.7619 26.7529 40.7795 26.7332C40.8452 26.6602 40.8179 26.2841 40.9621 26.4076C41.0886 26.5171 41.063 26.9072 41.079 26.9353C41.0998 26.9746 41.6604 26.8399 41.6813 26.8006C41.8943 26.4076 41.2536 26.8146 41.3033 26.4076C41.7645 26.5339 41.5291 26.2083 41.6396 25.8659C41.6893 25.7143 41.8334 25.8968 41.9119 25.8182C41.9776 25.7508 41.9231 25.5543 41.9487 25.4701C42.008 25.2792 42.0513 25.4842 42.0577 25.4785C42.141 25.9052 42.5206 25.7396 42.6807 25.602C42.7448 25.5487 42.7304 25.3382 42.7752 25.341C42.9162 25.3494 42.9594 25.6666 43.1132 25.6105C43.1789 25.1698 42.929 25.4196 42.8873 25.3438C42.8777 25.327 42.8986 24.8638 42.9066 24.8442C42.929 24.7908 43.4207 24.3193 43.4544 24.3249C43.5825 24.3445 43.7859 25.2652 43.9429 24.0246C43.7186 24.4484 43.4159 23.8702 43.4912 23.7607C43.5152 23.727 43.9028 23.974 44.0582 23.4997C44.2424 22.9411 43.3695 22.7137 43.8676 22.5678L43.717 22.0401C43.8179 22.0036 43.9221 21.9615 44.0182 21.9054C44.3289 21.7285 44.1959 21.4534 44.0934 20.9791C44.2232 20.8949 44.582 20.2661 44.4714 20.0528C44.3785 19.8732 44.0294 20.8528 43.882 20.0893C43.7411 19.3567 44.1255 19.6963 44.3449 19.643C44.6044 19.5812 44.9279 19.4521 45 18.9272L44.6973 18.9918C44.6797 18.9665 44.5723 19.0283 44.5515 18.9834C44.4939 18.8571 44.6733 18.568 44.662 18.3181C44.6396 17.7961 44.4442 17.5462 44.3193 17.2038C44.1959 16.8642 44.5804 17.2824 44.4698 16.9428C44.3513 16.5779 44.2152 16.881 44.1687 16.8754C43.8532 16.8249 43.7651 16.7772 43.7539 16.2158L43.488 16.3477L43.6385 16.8754C43.5168 16.9428 43.3935 16.7294 43.3038 16.7379C43.2493 16.7407 43.2894 17.1084 43.1484 17.0101C43.0475 16.94 42.9899 16.561 43.0331 16.4824C43.0892 16.3842 43.4079 16.7687 43.1837 15.9519L43.6353 15.7526L43.3823 15.3597C43.5264 15.4607 43.834 14.9049 43.8532 14.8067C43.9365 14.3688 43.7603 14.1443 43.7122 13.8327C43.709 13.8131 43.8532 13.6783 43.7154 13.5043C43.6434 13.4145 43.3406 13.2657 43.2589 13.305C43.2029 13.3331 43.0956 13.6755 43.1084 13.7008C43.1324 13.7485 43.2894 13.5913 43.2589 13.8327C43.0779 13.8243 42.9162 13.6783 42.7304 13.7008C42.6647 13.2769 43.0347 13.5296 43.0331 13.1057C43.0331 13.0692 42.7464 12.6594 42.7304 12.6398C42.7128 12.6201 42.5942 12.6454 42.5109 12.5668C42.4357 12.4966 42.386 12.303 42.2995 12.2637C42.1858 12.2075 42.0737 12.3619 41.976 12.3759C41.5563 12.4293 41.3097 12.7464 40.9941 12.7717C40.8195 12.7857 40.8275 12.6538 40.5408 12.7717C40.496 12.7914 40.4255 12.7464 40.3903 12.7717C40.315 12.8222 40.267 12.9036 40.2397 13.0356C40.2317 13.0159 40.0251 12.7829 40.0123 12.7717C39.8169 12.5893 39.8089 12.6819 39.6343 12.6398C39.4293 12.5893 39.4004 12.6482 39.2563 12.6398C39.1986 12.637 39.0817 12.4798 38.8783 12.5079C38.9007 12.2103 38.7133 12.1402 38.6508 11.9774C38.59 11.8202 38.5755 11.6349 38.5755 11.4468C38.5243 11.4805 38.4154 11.4244 38.3497 11.4468C38.3481 11.4861 38.3433 11.5591 38.3497 11.5788C38.0566 11.7696 37.6466 11.997 37.4431 11.4468C37.3935 11.4497 37.3422 11.4468 37.2926 11.4468C37.3086 11.5423 37.2605 11.7696 37.3022 11.8342C37.3711 11.9437 37.5953 11.6293 37.5184 12.2412C37.5024 12.2833 37.4159 12.1345 37.3679 12.1093C37.0699 11.9521 37.2445 12.1514 37.1404 12.3731C37.1324 12.39 37.0892 12.3647 37.0651 12.3731H36.9899C36.9963 12.1093 36.9867 11.8426 36.9899 11.5788C36.9722 11.5423 36.7528 11.6742 36.6887 11.7107C36.6663 11.7247 36.6359 11.6967 36.6135 11.7107C36.519 11.7696 36.4725 11.9689 36.4629 11.9745C36.4437 11.9858 36.4132 11.9689 36.3876 11.9745C36.4052 11.4272 36.3876 11.5423 36.1618 11.7107C36.3107 11.6012 36.3107 11.5142 36.1618 11.4468C36.1618 11.4019 36.1618 11.3598 36.1618 11.3149C36.1682 10.8406 36.0048 10.8602 35.9359 11.3149C35.9215 11.3205 35.8751 11.4946 35.7854 11.4468C35.7629 10.8434 35.5771 10.9276 35.4074 11.3149C35.1767 11.4384 35.1191 11.3851 34.8788 11.5788L34.725 11.8005C34.6049 11.5647 34.1821 11.4525 34.275 11.8426C34.1196 11.823 34.1484 11.7921 34.0491 11.7107C33.9995 11.6686 33.9418 11.6293 33.8986 11.5788C33.7993 11.4525 33.7224 11.4525 33.6727 11.5788C33.6471 11.576 33.6231 11.5788 33.5974 11.5788C33.5318 11.6293 33.5318 11.6742 33.5974 11.7107C33.5334 11.7332 33.418 11.677 33.3716 11.7107C33.1874 11.3739 33.0865 11.3739 33.0689 11.7107H32.843C32.8174 11.7107 32.7934 11.7107 32.7678 11.7107C32.6845 11.5872 32.5211 11.5339 32.465 11.7107C32.3289 11.6967 32.1895 11.5816 32.087 11.5788C32.0982 11.6574 32.1655 11.7977 32.1495 11.8931C32.1319 11.9156 32.1127 11.9409 32.087 11.9745C32.031 11.6377 31.6482 11.8089 31.5585 11.9745C31.5024 11.7472 31.4415 11.7303 31.4079 11.9745C31.3582 11.9661 31.307 11.9802 31.2573 11.9745C31.094 11.5535 30.5382 11.4468 30.3508 11.8426H30.2755C30.1682 12.0363 30.0416 12.1261 29.8975 12.1065C30.0625 11.736 29.6877 11.9521 29.8975 11.3121C29.8238 11.2981 29.7453 11.3205 29.6716 11.3121C29.6604 11.3767 29.4618 11.8286 29.4458 11.8426C29.4298 11.8567 29.3257 11.8538 29.2952 11.8426C29.1543 11.7977 29.1815 11.4412 29.0694 11.1802C29.0406 11.1128 28.9349 11.0567 28.9188 10.9163H28.8436C28.8259 11.0062 28.7875 11.0904 28.7683 11.1802C28.488 11.0258 28.4768 10.7844 28.2397 10.7844C28.2525 10.8462 28.2301 10.9669 28.2397 11.0483C28.5168 11.27 28.3102 11.416 28.315 11.444L28.275 11.3093C28.1741 11.3009 28.0731 11.5535 28.0123 11.576C27.9466 11.5984 27.8585 11.5675 27.7864 11.576H27.7112C27.6407 11.5675 27.5382 11.604 27.4853 11.576C27.4501 11.5591 27.346 11.3121 27.2595 11.3121C27.2387 11.4047 27.2819 11.6518 27.2595 11.7107C27.2531 11.7275 27.1377 11.6854 27.0336 11.7107C26.9856 11.7219 26.9327 11.7023 26.8831 11.7107C26.8895 11.6658 26.8414 11.1886 26.771 11.1858C26.6877 11.1802 26.5307 11.5591 26.5067 11.5788C26.4939 11.59 26.4554 11.5788 26.4314 11.5788C26.4971 10.9837 26.3161 11.3149 26.1287 11.0483C26.1351 11.037 26.1895 10.8378 26.204 10.7844C26.3177 10.3746 26.204 10.5262 26.1287 10.2539C26.0294 11.1381 25.5809 10.0771 25.5248 10.9163H25.4495L25.2621 10.5206L25.0731 11.0483L25.3743 11.1802C24.9979 11.4468 24.9979 11.0735 24.9498 11.0483C24.5798 10.8574 24.7544 11.5395 24.4693 11.7107C24.527 11.3486 24.2659 11.183 24.2563 11.1493C24.229 11.0511 24.3123 10.8827 24.2803 10.776C24.2611 10.7086 23.9423 10.2932 24.0144 10.7816C24.0256 10.8153 24.0032 10.8799 24.0144 10.9135C24.0176 10.922 24.1025 10.8967 24.0897 11.0455C23.7694 10.9416 23.5884 11.1802 23.3337 11.444C23.3081 11.3991 23.2824 11.357 23.2584 11.3121C23.3673 11.1774 23.5115 11.082 23.4842 10.7844C23.4554 10.7395 22.7907 11.009 22.7298 11.0483L22.4287 10.7816L22.6546 10.4504C22.6145 9.91148 22.4079 10.2764 22.2461 10.2427C21.9963 10.1922 21.5686 9.7178 21.5206 10.3858H21.4469C21.4821 9.87218 21.2883 10.3072 21.1442 10.3858C21.1057 10.4055 21.04 10.3718 20.9936 10.3858C20.9952 10.3718 20.976 10.3072 20.9936 10.122C21.0016 10.0434 21.0641 9.93393 21.0689 9.85814C21.0833 9.62798 21.0625 9.39781 20.9936 9.19572C20.9632 9.22098 20.8879 9.17887 20.843 9.19572C20.835 9.29957 20.5275 9.42027 20.6909 9.85814L20.465 9.5943L20.3881 9.99007C20.1719 9.77955 20.1351 10.063 20.0101 10.122C19.9957 10.1304 19.9477 10.1304 19.9349 10.122C19.8131 10.0406 19.842 9.76833 19.7587 9.63079C19.7202 9.56903 19.6161 9.55781 19.5569 9.45957C19.5328 9.42027 19.496 9.37536 19.4816 9.32764C19.2782 9.4315 19.0379 9.55781 19.1036 9.99007C19.0779 9.99007 19.0507 9.98165 19.0283 9.99007C19.0283 9.90025 18.9674 9.88902 18.953 9.85814C18.8441 9.61956 18.7928 8.98801 18.6519 9.19852C18.6375 9.21817 18.6679 9.38378 18.6423 9.43711C18.607 9.51009 18.3716 9.07502 18.4245 9.59149C18.2867 9.4736 18.3123 9.10028 18.2354 9.05818C17.9552 8.97397 18.0977 9.40343 17.8206 9.45676C17.8062 9.24624 17.8318 9.01046 17.8206 8.79433L17.1415 9.32203C16.7939 8.92064 17.0726 7.77823 16.3855 8.52768C16.3326 8.4968 16.2269 8.55294 16.158 8.52768C16.3695 7.66876 15.9354 8.20769 15.8169 8.2133C15.7448 8.21611 15.6695 8.05612 15.5814 8.03366C15.5013 8.01401 15.3604 8.17681 15.3316 8.12629C15.3139 8.09541 15.346 7.85963 15.2515 7.73332C15.0913 7.51719 14.9455 7.84841 14.7982 7.86525C14.771 7.86806 14.6749 7.67999 14.6476 7.73332C14.6284 7.77262 14.6636 7.95788 14.6476 7.99717C14.5771 7.42456 14.3273 7.70245 14.1495 7.34878C14.0214 7.09616 14.071 6.75933 13.9301 6.5432C13.9221 6.9109 13.5505 6.99511 13.5152 7.20563C13.4656 7.20001 13.4143 7.20843 13.3647 7.20563C13.3518 7.16352 13.3727 7.05405 13.2894 7.0737C13.2493 6.58811 13.3967 6.99511 13.4976 6.91652C13.5136 6.90248 13.5152 6.76214 13.5473 6.73126C13.6113 6.6667 13.709 6.68635 13.7266 6.65547C13.7747 6.57969 13.7298 6.46741 13.7427 6.41408C13.7507 6.3804 13.8051 6.33829 13.8179 6.28216C13.7443 6.27654 13.6658 6.27654 13.5921 6.28216C13.3919 5.43167 13.3486 6.00427 13.1084 5.87796C12.9947 5.81902 13.0011 5.51026 12.9851 5.4878C12.8313 5.27167 12.8457 5.73481 12.7592 5.88358C12.6022 6.15865 12.4981 5.91726 12.3059 5.88358C12.3508 6.47864 12.221 6.2176 12.0032 6.28216C11.8062 6.10813 11.6572 5.88077 11.473 5.95375C11.465 5.36711 11.3545 5.71236 11.0966 5.61973C10.8532 5.53271 10.8067 5.35869 10.4928 5.4878C10.2381 5.40079 10.2013 5.18466 10.0395 4.9573C9.83289 4.66819 9.69834 4.40154 9.43566 4.16295C9.26428 4.00857 9.26108 3.98611 9.05766 3.8991C8.87026 3.8177 8.77576 3.90752 8.75494 3.8991C8.71169 3.88506 8.61559 3.68016 8.37693 3.63525C8.35291 3.62964 8.32568 3.63244 8.30165 3.63525C8.12387 3.58192 8.1623 3.1272 8.14949 3.10475C8.11746 3.04861 7.95889 3.23667 7.89322 3.23948C7.83236 3.23948 7.81794 3.02615 7.77309 2.97282C7.71062 2.89984 7.64175 2.86616 7.62253 2.8409C7.52002 2.71178 7.40149 2.62196 7.31981 2.44513C7.32782 2.43109 7.29738 2.27391 7.34063 2.21215C7.39829 2.12795 7.53123 2.20093 7.54725 2.17847C7.70101 1.94269 7.02189 1.30833 7.01868 2.31039C6.96903 2.31039 6.91778 2.30478 6.86812 2.31039C6.88895 1.88375 6.80566 0.918173 6.49012 1.51604C6.46129 1.3757 6.40683 1.32236 6.33956 1.25219C6.23545 1.14553 6.12814 1.11466 6.03684 0.988346H5.96156C5.96957 2.03813 5.8158 1.36447 5.43299 1.38412C5.15109 1.40096 5.18953 1.60306 5.13027 1.64797C4.9733 1.76866 4.90763 1.66481 4.75227 1.64797L4.82915 1.91182C4.48478 2.13356 4.62253 1.90059 4.52643 1.60867C4.37266 1.13992 4.18366 2.20373 3.99786 1.90901C3.95462 1.84164 4.22531 1.4992 4.22371 1.44587C4.2221 1.40657 3.9402 1.20448 3.99786 0.850807C4.15803 0.920979 4.79872 1.03325 4.82595 0.783442C4.83075 0.744144 4.74907 0.629063 4.75227 0.584152C4.75707 0.497139 4.74266 0.390474 4.75227 0.320303C4.81153 -0.0698566 4.77789 -0.0726624 4.60331 0.146276C4.48959 0.00593185 4.26535 0.126629 4.14842 0.258553C4.12119 0.704849 3.79925 0.769407 3.59263 0.6852C3.5638 1.11185 3.52056 1.2129 3.31874 1.3785C3.05606 1.2943 3.14576 1.07817 3.08169 0.988346C3.02723 0.91256 2.95195 1.11465 2.94234 1.11185C2.74373 1.13992 2.66845 1.27184 2.7165 1.50762C2.67806 1.53288 2.60438 1.48236 2.56594 1.50762C2.7149 1.20167 2.40577 0.589766 2.26322 0.845194C2.2488 0.833965 2.13828 0.833965 2.11266 0.845194C1.90924 0.73011 1.75867 0.556084 1.65937 0.31469C1.52643 0.303463 1.30059 0.53924 1.13081 0.449419C1.45756 0.794668 1.26695 0.904139 1.33583 1.20448C1.39829 1.47675 1.64495 1.61428 1.55045 1.90901C1.48158 2.12514 1.36626 1.97918 1.28137 2.4339C1.29899 2.52091 1.3166 2.57705 1.33583 2.60231C1.30219 2.95879 1.15804 3.25632 0.904964 3.4921C0.879337 3.5342 0.855312 3.59315 0.829685 3.62402C0.613457 3.90752 0.538174 4.12646 0.603844 4.28645C0.576614 4.43522 0.717564 4.16014 0.528564 4.5503C0.506138 4.59802 0.584625 4.85064 0.400429 4.83941C0.378006 4.81976 0.34597 4.81134 0.301125 4.81415C0.328354 4.67942 0.302727 4.65415 0.225842 4.68222C0.0512581 4.84222 0.278698 5.24641 0.301125 5.47658C0.334759 5.50184 0.360386 5.51026 0.379604 5.50464C0.34597 5.57201 0.320343 5.65341 0.301125 5.74043C0.296318 5.89761 0.254673 6.00427 0.225842 6.1362C0.320343 6.15865 0.294716 6.24567 0.150562 6.40005C0.099308 6.40005 0.0736809 6.44215 0.0752831 6.53197C0.0784874 6.61898 0.0784874 6.71161 0.0752831 6.79582C0.219437 6.91652 0.219437 7.04844 0.0752831 7.19159C0.0752831 7.21124 0.0128136 7.3572 0 7.58736C0.0544586 7.79788 0.0528564 8.03927 0 8.24979L0.00640869 8.27505ZM39.7015 22.1411C39.7015 22.1411 39.7015 22.1411 39.6999 22.1411C39.7128 22.1524 39.7256 22.1636 39.7384 22.1748C39.7208 22.1608 39.7031 22.1467 39.6855 22.1355C39.6903 22.1355 39.6951 22.1411 39.6999 22.1439C39.6615 22.1103 39.6215 22.0794 39.5878 22.0457L39.7015 22.1467V22.1411ZM38.8318 26.6715C38.8382 26.6041 38.8318 26.5508 38.811 26.5087C38.8302 26.548 38.8382 26.6013 38.8318 26.6715ZM38.7565 15.82C38.7437 15.8256 38.7293 15.8228 38.7149 15.82H38.7565ZM37.9188 26.3431C37.906 26.2336 37.8884 26.141 37.8676 26.0652C37.8916 26.1269 37.9301 26.1634 37.9733 26.1831C37.9381 26.2168 37.9172 26.2701 37.9188 26.3459V26.3431ZM38.1559 26.1382C38.1559 26.1382 38.1559 26.1382 38.1559 26.141C38.1559 26.141 38.1559 26.141 38.1543 26.141C38.1543 26.141 38.1559 26.141 38.1575 26.1382H38.1559ZM37.85 12.3787C37.8612 12.4461 37.8948 12.491 37.9333 12.5135C37.9172 12.5696 37.9621 12.6201 38.0774 12.6454C37.9445 12.6398 37.8163 12.6454 37.6994 12.7773C37.7379 12.6454 37.7443 12.5612 37.7282 12.5359C37.7427 12.4798 37.709 12.4237 37.6241 12.3787C37.6994 12.3703 37.7763 12.3928 37.85 12.3787ZM37.5489 14.8937H37.4736C37.4976 14.8881 37.5248 14.8937 37.5489 14.8937ZM37.2734 16.0782C37.2734 16.0782 37.2686 16.0782 37.267 16.081C37.2637 16.081 37.2589 16.081 37.2557 16.0782C37.2621 16.0782 37.267 16.0782 37.2734 16.0782ZM34.4511 22.172C34.4367 22.1832 34.4271 22.1945 34.4191 22.2029C34.4143 22.186 34.4079 22.1692 34.4031 22.1524C34.4175 22.1636 34.4335 22.1692 34.4527 22.1692L34.4511 22.172ZM34.2333 21.5769C34.2381 21.6331 34.2429 21.6892 34.2509 21.7454C34.2173 21.664 34.1837 21.5854 34.1484 21.5096C34.1869 21.5489 34.2141 21.5685 34.2333 21.5741V21.5769ZM33.1666 22.172C33.1746 22.186 33.1698 22.2338 33.1666 22.2815C33.1618 22.2618 33.1618 22.2281 33.1666 22.172ZM32.9712 14.9218C32.9616 14.919 32.9519 14.9106 32.9407 14.8909C32.9487 14.8965 32.96 14.9078 32.9712 14.9218ZM32.7902 15.9519C32.7966 15.9744 32.7918 15.9912 32.7822 16.0053C32.7854 15.9884 32.787 15.9716 32.7902 15.9519ZM30.3716 13.4369V13.4987C30.37 13.479 30.3684 13.4622 30.3684 13.451C30.3684 13.4454 30.37 13.4426 30.3716 13.4369ZM29.6973 14.8095C29.6973 14.8432 29.6957 14.8713 29.6925 14.8909C29.6925 14.8628 29.6957 14.8348 29.6973 14.8095ZM28.2974 22.9664C28.283 22.9692 28.2686 22.9748 28.2573 22.9664H28.2974ZM28.1821 24.0246C28.1708 24.0246 28.1596 24.0218 28.1484 24.0189C28.1612 24.0189 28.1725 24.0189 28.1821 24.0246ZM27.9594 23.6877C27.9594 23.6681 27.9562 23.6484 27.9562 23.626C27.9594 23.64 27.961 23.6625 27.9594 23.6877ZM23.9135 14.0095C23.9023 14.0376 23.8895 14.0657 23.8767 14.0994C23.8895 14.0545 23.9007 14.0264 23.9135 14.0095ZM20.9247 16.4712L20.9295 16.4796L20.9167 16.4852C20.9167 16.4852 20.9215 16.4768 20.9231 16.4712H20.9247ZM18.1169 23.4969C18.1169 23.4969 18.1153 23.5137 18.1153 23.5249C18.0961 23.5418 18.0753 23.5783 18.0609 23.6288C18.0657 23.5951 18.0849 23.5502 18.1185 23.4969H18.1169ZM18.0096 23.9488C17.9936 23.9628 17.9712 23.9628 17.9423 23.9291C17.9664 23.9375 17.9888 23.946 18.0096 23.9488ZM12.7608 20.1426C12.7368 20.123 12.7144 20.0949 12.6967 20.0556C12.7192 20.0837 12.74 20.1146 12.7608 20.1426ZM12.1682 21.7762C12.1586 21.7903 12.1506 21.8015 12.1426 21.8155C12.1313 21.765 12.1153 21.7089 12.0929 21.6443C12.1201 21.6808 12.1522 21.7229 12.1682 21.7762ZM5.21836 3.90752L5.44741 3.95804C5.38174 3.95804 5.30486 3.94401 5.21836 3.90752ZM5.75654 3.48087C5.75654 3.48087 5.76615 3.4921 5.77095 3.50052C5.76455 3.50052 5.75974 3.4921 5.75654 3.48087ZM4.9701 14.8151C4.98131 14.8432 4.99092 14.8713 4.99252 14.8937C4.97971 14.8628 4.9717 14.8376 4.9701 14.8151ZM5.14309 7.4807V7.41334C5.14629 7.44141 5.14949 7.47228 5.14309 7.4807ZM6.55259 9.2715C6.5606 9.29115 6.5686 9.3108 6.57822 9.33325C6.567 9.3108 6.55899 9.29115 6.55259 9.2715ZM7.66738 15.2277C7.65296 15.2221 7.66738 15.1548 7.71062 15.0228C7.6898 15.1099 7.67538 15.1772 7.66738 15.2277ZM8.84464 12.3787C8.83182 12.3142 8.83182 12.2749 8.84464 12.2608C8.84784 12.3142 8.85104 12.3619 8.84464 12.3787ZM8.88948 13.771C8.89268 13.7541 8.90229 13.7317 8.91991 13.7036C8.91991 13.712 8.9055 13.7401 8.88948 13.771ZM10.0523 12.9064L10.1821 12.6791C10.15 12.7408 10.1068 12.8166 10.0523 12.9064ZM10.2493 12.5275L10.0523 12.6426C10.2013 12.4938 10.2669 12.4573 10.2493 12.5275ZM10.2718 15.9716C10.2718 15.9716 10.2766 15.9547 10.2798 15.9519C10.2766 15.9603 10.275 15.966 10.2718 15.9716ZM7.12119 2.72862C7.12119 2.72862 7.11319 2.72862 7.10838 2.72862C7.10838 2.72581 7.10838 2.7202 7.10838 2.71739L7.12119 2.72862ZM0.63908 10.6946C0.621464 10.6778 0.624668 10.675 0.647095 10.6862L0.63908 10.6946ZM2.26482 7.71648C2.26482 7.71648 2.26482 7.7221 2.26642 7.7221C2.26642 7.72771 2.26642 7.73613 2.26642 7.74174H2.2472C2.2472 7.74174 2.25841 7.7221 2.26322 7.71367L2.26482 7.71648ZM3.17779 3.57911C3.17779 3.57911 3.17779 3.59876 3.17619 3.60718C3.17619 3.59595 3.17459 3.58473 3.17138 3.5735L3.17779 3.57911ZM0.534973 5.3643C0.486919 5.38395 0.446877 5.42324 0.413239 5.47658C0.413239 5.44851 0.405231 5.41202 0.384411 5.3643C0.424454 5.34465 0.488522 5.37833 0.534973 5.3643Z" fill="#D9F855"/>
</svg>
