<svg width="16" height="15" viewBox="0 0 16 15" fill="none" xmlns="http://www.w3.org/2000/svg">
<g clip-path="url(#clip0_61_4200)">
<path d="M15.8292 2.12981C15.8091 2.10146 15.7739 2.04142 15.7588 2.02641C15.8241 1.93134 15.7337 1.88798 15.7237 1.85296C15.7103 1.82294 15.6986 1.82294 15.6885 1.85296C15.6751 1.8246 15.6634 1.82294 15.6533 1.85296C15.6366 1.84795 15.6249 1.83461 15.6182 1.81793C15.7823 1.85796 15.6366 1.62114 15.583 1.54108C15.5244 1.4677 15.5077 1.49105 15.4792 1.36763C15.4792 1.3226 15.4508 1.2659 15.4089 1.29759C15.3905 1.27591 15.3587 1.26923 15.3386 1.22754C15.3235 1.18251 15.3135 1.14915 15.2683 1.12414C15.2448 1.11413 15.2197 1.10246 15.1979 1.08911C15.0975 0.892316 15.0422 0.827272 14.8497 0.707192C14.8279 0.69385 14.8028 0.685511 14.7793 0.672169C14.7643 0.668834 14.7559 0.672169 14.7492 0.685511C14.7459 0.612129 14.6973 0.550421 14.6052 0.500388C14.5952 0.500388 14.5818 0.500388 14.57 0.500388C14.5232 0.462029 14.4461 0.460361 14.4662 0.535411C14.4562 0.525405 14.4344 0.502056 14.4311 0.500388C14.4512 0.48371 14.4378 0.478707 14.4311 0.465365C14.4495 0.442016 14.4378 0.418667 14.3959 0.395318C14.3792 0.385311 14.3675 0.36363 14.3608 0.360295C14.3155 0.341949 14.2436 0.3186 14.2218 0.360295C14.2218 0.350288 14.2251 0.33361 14.2218 0.325271C14.1933 0.235211 14.1163 0.216866 14.0477 0.186846C14.0376 0.191849 14.0292 0.201856 14.0225 0.211862C14.0242 0.190181 14.0225 0.1685 14.0142 0.151822C14.0024 0.148487 13.9907 0.155158 13.979 0.151822L13.7178 0.0767721L13.6994 0.118467C13.6877 0.115131 13.676 0.121802 13.6642 0.118467C13.6324 0.110128 13.5906 0.0567588 13.5604 0.0484199C13.5906 0.0350777 13.5906 0.0234032 13.5604 0.0133965C13.5152 0.0133965 13.4633 0.00839319 13.4215 0.0133965C13.3478 0.0133965 13.2825 0.025071 13.2239 0.0500877C13.1686 -0.0483113 12.9928 0.010061 12.9342 0.0834432C12.9225 0.0634299 12.9108 0.0634299 12.8991 0.0834432C12.889 0.0834432 12.8739 0.0817754 12.8639 0.0834432C12.7785 0.0884466 12.7132 0.0984532 12.7015 0.128473C12.6697 0.0984532 12.6312 0.0817754 12.586 0.0834432C12.4537 0.0667654 12.4085 0.0834432 12.308 0.15349C12.2611 0.185178 12.236 0.233543 12.2042 0.256892C12.1657 0.235211 12.1238 0.24355 12.1339 0.291916C12.082 0.320268 12.0451 0.336946 11.9949 0.361962C11.9313 0.395318 11.8945 0.428673 11.8844 0.463697C11.8643 0.45369 11.8258 0.473703 11.7856 0.500388C11.7722 0.448687 11.722 0.448687 11.7153 0.500388C11.6969 0.665498 11.5964 0.602122 11.6115 0.742216C11.5998 0.747219 11.588 0.765565 11.5763 0.777239C11.4692 0.823937 11.3938 0.908994 11.5412 0.950688H11.506C11.4943 0.94902 11.4826 0.954024 11.4708 0.950688C11.4508 0.944017 11.424 0.893984 11.367 0.915665C11.3704 0.977373 11.3804 1.02073 11.3319 1.02407C11.3202 1.02073 11.3084 1.01907 11.2967 1.02073C11.2816 0.999054 11.2699 0.999054 11.2616 1.02073C11.1443 1.02407 11.1644 1.11913 11.1577 1.12414C11.2364 1.14749 11.2331 1.23087 11.2281 1.29759C11.2163 1.29592 11.1946 1.30092 11.1929 1.29759C11.1812 1.27591 11.223 1.20252 11.1427 1.22921C11.1243 1.23588 11.1008 1.2759 11.0606 1.28925C11.0154 1.30426 10.9434 1.28591 10.9183 1.30426C10.9016 1.31593 10.9183 1.36263 10.9133 1.36763C10.8865 1.39265 10.8346 1.411 10.8095 1.43768C10.7844 1.4627 10.781 1.50106 10.7743 1.50773C10.7392 1.54108 10.704 1.57944 10.6705 1.61113C10.7392 1.67951 10.7944 1.67784 10.8798 1.64615C10.8898 1.64282 10.9049 1.65116 10.915 1.64615V1.7162C10.8932 1.71953 10.8664 1.71286 10.8446 1.7162C10.7124 1.73955 10.7592 1.69785 10.6353 1.78625C10.6153 1.80126 10.5885 1.83461 10.565 1.85629C10.5031 1.91466 10.5081 1.82294 10.4612 1.99472C10.4294 2.00806 10.406 2.03141 10.3909 2.06476C10.3825 2.09645 10.3608 2.12647 10.3557 2.16817L10.3909 2.27157C10.3122 2.38331 10.3591 2.40166 10.3557 2.40999C10.4076 2.43334 10.3909 2.50339 10.3909 2.54842C10.3909 2.71853 10.3574 2.75356 10.3206 2.89532C10.3022 2.97037 10.2603 3.03708 10.2854 3.13715V3.17217L10.3206 3.21053C10.1649 3.21553 10.1481 3.3623 10.2687 3.44569C10.1732 3.52407 10.1079 3.77257 10.2569 3.83761C10.2469 3.88765 10.2335 3.94602 10.2871 3.9677C10.2988 3.97771 10.3089 3.99438 10.3222 4.00272C10.344 4.01607 10.3691 4.0244 10.3926 4.03775C10.3725 4.05609 10.4478 4.12114 10.2888 4.08945C10.3624 4.1645 10.4612 4.15116 10.4964 4.2629L10.3926 4.27957C10.3624 4.36963 10.4897 4.37297 10.4964 4.38464C10.5114 4.40799 10.4294 4.45136 10.4277 4.47137C10.4261 4.48805 10.4612 4.48638 10.4612 4.48805C10.4696 4.49972 10.5232 4.55309 10.5315 4.55809C10.5349 4.58645 10.5483 4.60646 10.5667 4.62814C10.6236 4.68985 10.6873 4.73321 10.776 4.73321C10.7341 4.76323 10.6705 4.90666 10.7593 4.90499C10.7659 4.90499 10.771 4.86496 10.8815 4.87164C10.9049 4.87164 10.9284 4.87164 10.9518 4.87164C10.9418 4.925 10.9551 4.94001 10.987 4.97504C10.9769 4.98671 10.9669 5.00339 10.9518 5.01006C10.92 5.0234 10.8714 5.0134 10.848 5.06176C10.8781 5.16016 11.0054 5.20853 11.0556 5.25189C11.1142 5.30526 11.079 5.3753 11.0924 5.38865C11.1092 5.40532 11.2163 5.3753 11.2297 5.38865C11.2398 5.39865 11.2197 5.46703 11.2314 5.49872C11.2415 5.52707 11.2766 5.52707 11.285 5.54208C11.3285 5.6138 11.2582 5.61546 11.3687 5.63047C11.3871 5.63381 11.4223 5.63381 11.439 5.63047C11.4223 5.79058 11.4625 5.72721 11.5613 5.6655C11.6366 5.73388 11.5529 5.79892 11.65 5.88898C11.6734 5.91066 11.8275 6.0124 11.8576 5.94235C11.9447 6.00239 11.9129 6.00072 11.9614 6.04575C11.9748 6.05743 12.2729 6.13581 12.2913 6.13581C12.4386 6.14082 12.4855 6.1208 12.6831 6.14081C12.7467 6.14749 12.817 6.10412 12.8656 6.11413L12.9007 5.97571C12.9443 5.97737 13.0447 5.924 13.0045 5.8723C13.0129 5.87897 13.167 5.91567 13.2138 5.94235C13.2256 5.94902 13.2356 5.9707 13.249 5.97737C13.2607 5.98738 13.2741 5.99572 13.2875 6.00406C13.3294 6.04075 13.3511 6.08078 13.4583 6.08244C13.547 6.08244 13.6425 6.02907 13.7362 6.04742C13.7865 6.03241 13.8551 5.99905 13.9104 5.97737C14.0309 5.96236 14.1464 5.92734 14.2586 5.87397C14.2955 5.85563 14.3641 5.8256 14.3976 5.80392C14.4528 5.73388 14.4646 5.68885 14.4328 5.6655C14.4562 5.62714 14.4629 5.6188 14.5031 5.59545C14.5751 5.65549 14.5868 5.65049 14.5734 5.56043C14.6136 5.55209 14.6722 5.56877 14.7124 5.56043C14.8162 5.51373 14.8982 5.44535 14.9551 5.35196C14.9702 5.34362 15.0104 5.36029 15.0255 5.35196C15.069 5.28191 15.0807 5.24021 15.064 5.22187C15.1092 5.22187 15.1661 5.18351 15.2331 5.10846C15.2549 5.08511 15.2766 5.07844 15.3034 5.03841C15.3168 5.02007 15.3084 5.00172 15.2917 4.99005C15.3252 4.99005 15.3553 4.98338 15.3721 4.97003C15.3855 4.87497 15.3503 4.92834 15.4072 4.79659C15.4139 4.78158 15.4022 4.74822 15.4072 4.72654C15.4189 4.7182 15.4575 4.72821 15.4926 4.69318C15.5043 4.67984 15.6785 4.41466 15.6852 4.39799C15.7203 4.30292 15.5361 4.39632 15.5814 4.27791L15.7203 4.31293C15.6768 4.22954 15.6768 4.18618 15.7203 4.10446C15.8978 4.10446 15.8158 4.05776 15.8459 3.9677C15.8543 3.93935 15.8928 3.90933 15.8945 3.89599C15.9078 3.80092 15.8827 3.70919 15.8593 3.61913L15.7906 3.65249L15.7555 3.47904C15.7689 3.4607 15.8593 3.61246 15.948 3.5124C15.9631 3.49572 15.9279 3.48071 15.9279 3.47904C15.9698 3.34729 15.9263 3.32727 15.9279 3.30559C15.9681 3.30226 15.9815 3.28558 15.9832 3.25222C16.0083 2.85029 15.9966 2.50172 15.8241 2.12647L15.8292 2.12981ZM10.5064 2.96203C10.5198 2.97537 10.5332 2.98371 10.5466 2.98705C10.5366 2.99705 10.5282 3.00706 10.5215 3.01707C10.5215 3.00039 10.5165 2.98037 10.5064 2.96203ZM11.8359 4.22787C11.8359 4.22787 11.8308 4.22287 11.8292 4.21953C11.8191 4.20119 11.8275 4.17284 11.8292 4.15449C11.8292 4.17784 11.8325 4.20286 11.8359 4.22787ZM15.0472 3.1655C15.0556 3.16717 15.0623 3.16883 15.064 3.1705C15.0573 3.1705 15.0523 3.16717 15.0472 3.1655ZM13.4633 2.19985C13.4633 2.19985 13.475 2.19819 13.4834 2.19985C13.4784 2.19985 13.4717 2.19985 13.4633 2.19985ZM11.9681 2.49839C11.9681 2.49839 11.9681 2.49672 11.9681 2.49505C11.9681 2.50005 11.9681 2.50673 11.9681 2.51173C11.9681 2.50673 11.9681 2.50339 11.9681 2.49839ZM12.0719 3.13548C12.0636 3.13548 12.0552 3.13548 12.0468 3.13214C12.0552 3.13214 12.0636 3.13214 12.0719 3.13548ZM12.0368 1.69785C12.0368 1.69785 12.0368 1.69785 12.0368 1.69952C12.0368 1.70286 12.0368 1.70619 12.0368 1.70953C12.0368 1.7112 12.0368 1.71286 12.0368 1.71453V1.69785ZM11.3068 2.89198C11.3068 2.89198 11.3068 2.89198 11.3051 2.89198C11.3051 2.89198 11.3051 2.89031 11.3051 2.88865C11.3051 2.88865 11.3051 2.89031 11.3051 2.89198H11.3068ZM11.5847 2.18818V2.19152C11.5847 2.19152 11.5847 2.18985 11.5847 2.18818ZM15.2733 3.4657C15.2733 3.4657 15.2716 3.4707 15.2699 3.47404C15.2699 3.4707 15.2699 3.46737 15.2733 3.4657ZM13.8116 0.605458C13.8116 0.605458 13.8116 0.605458 13.8149 0.602122C13.8149 0.602122 13.8132 0.60379 13.8116 0.605458ZM13.7764 0.570435C13.7764 0.570435 13.7798 0.570435 13.7814 0.570435C13.7781 0.570435 13.7764 0.570435 13.7764 0.570435ZM12.7266 0.500388C12.7266 0.500388 12.7366 0.500388 12.7417 0.500388C12.75 0.500388 12.7601 0.500388 12.7685 0.500388H12.7266ZM12.6194 0.475371C12.6194 0.475371 12.6228 0.4687 12.6295 0.465365L12.6194 0.475371ZM12.1071 5.59545C12.1071 5.59545 12.0987 5.59545 12.0937 5.59545C12.097 5.58211 12.1004 5.56877 12.1037 5.55543C12.1088 5.57711 12.1104 5.59378 12.1071 5.59712V5.59545ZM12.9761 5.38865H12.9409C12.9526 5.38865 12.9644 5.38865 12.9761 5.38865ZM13.7764 5.76723C13.7764 5.76723 13.7781 5.76723 13.7798 5.76723H13.7781H13.7764ZM12.1155 1.0174C12.1155 1.0174 12.1104 1.01907 12.1071 1.02073C12.1104 1.02073 12.1121 1.01907 12.1155 1.0174ZM14.0108 0.266899C14.0091 0.28858 14.0108 0.310261 14.0192 0.326939C14.0041 0.316932 13.9924 0.296919 13.984 0.291916C13.9941 0.286912 14.0024 0.276906 14.0091 0.266899H14.0108ZM15.1678 5.00673L15.0975 4.93668C15.1142 4.93668 15.1443 4.90999 15.1678 4.90166C15.1527 4.93001 15.1678 4.95336 15.1946 4.96837C15.1745 4.9717 15.1611 4.98338 15.1678 5.00673Z" fill="#20293F"/>
<path d="M14.5083 13.117C14.4916 13.0003 14.4731 13.0353 14.438 12.9436C14.4966 12.8985 14.51 12.8468 14.4731 12.7701C14.4531 12.6851 14.4731 12.6867 14.4731 12.6317C14.4664 12.5633 14.4497 12.5083 14.4263 12.4883C14.4715 12.4432 14.4849 12.3698 14.438 12.2848C14.4129 12.2414 14.4045 12.1931 14.4028 12.1464C14.3911 12.0847 14.3442 12.0847 14.2639 12.1464C14.2639 12.1347 14.2639 12.123 14.2639 12.1113C14.3961 12.0713 14.3693 11.8612 14.2639 11.8111V11.7644C14.3325 11.7444 14.3559 11.6644 14.3325 11.5226C14.3291 11.4909 14.3325 11.4893 14.3325 11.4876C14.3275 11.4542 14.3392 11.4109 14.3325 11.3692C14.3107 11.2624 14.2203 11.2124 14.299 11.054C14.2957 11.0373 14.2756 11.0406 14.2639 11.0356C14.2488 11.0289 14.2153 11.0406 14.1935 11.0356C14.2371 10.9606 14.2253 10.8372 14.1935 10.7588C14.1935 10.7321 14.1935 10.7037 14.1868 10.677C14.2086 10.627 14.2705 10.6003 14.2655 10.5686C14.2505 10.4953 14.1919 10.4819 14.1768 10.4452C14.1533 10.3919 14.2304 10.3085 14.1249 10.2734C14.1684 10.1734 14.232 9.90987 14.0897 9.87485C14.2873 9.73642 14.1215 9.70807 14.0897 9.57965C14.088 9.57298 14.0897 9.56464 14.0897 9.55463V9.57965C14.2069 9.59633 14.1483 9.52962 14.1466 9.46791C14.1466 9.37284 14.1366 9.2044 14.1584 9.12101C14.1667 9.08932 14.3258 8.99259 14.3308 8.96591C14.3425 8.9092 14.304 8.75577 14.3308 8.67905C14.3225 8.59232 14.3375 8.4489 14.3308 8.4022C14.3744 8.34549 14.3174 8.25377 14.2605 8.26377C14.294 8.23876 14.3174 8.19206 14.3308 8.12535C14.3225 8.08198 14.3074 8.02862 14.2957 7.98692C14.2789 7.73509 14.2705 7.47825 14.2722 7.21474C14.2605 7.18305 14.0261 6.93789 13.9826 6.94623V6.9112C13.9608 6.90453 13.8838 6.87785 13.8788 6.87618C13.852 6.86117 13.8168 6.84616 13.8084 6.87618C13.7766 6.87284 13.7214 6.87952 13.6695 6.87618C13.6996 6.86284 13.6996 6.85116 13.6695 6.84116C13.564 6.83115 13.4635 6.8078 13.3564 6.80613C13.2676 6.82448 13.2073 6.80613 13.1471 6.73609C13.1136 6.72441 13.0734 6.72441 13.0433 6.70106C13.0483 6.69773 13.0382 6.66938 13.0433 6.66604C13.0332 6.63602 12.998 6.62435 12.9394 6.63102C12.9277 6.63102 12.916 6.63102 12.9043 6.63102C12.8926 6.63102 12.8808 6.63102 12.8691 6.63102C12.8189 6.55263 12.618 6.55597 12.5728 6.63102C12.5075 6.57264 12.3752 6.54429 12.3434 6.57431C12.2865 6.52094 12.1893 6.49593 12.1743 6.5593C12.1508 6.5593 12.1274 6.5593 12.1039 6.5593C12.1324 6.54429 12.1341 6.53262 12.1039 6.52428C12.0805 6.51427 12.0587 6.49926 12.0336 6.48926C11.893 6.43255 11.9382 6.46591 11.8243 6.52428L11.5816 6.4559C11.5682 6.51761 11.6234 6.54262 11.6502 6.59433C11.5698 6.59433 11.4577 6.6527 11.3371 6.59433C11.3153 6.65603 11.394 6.67938 11.394 6.71441C11.394 6.7561 11.2919 6.86284 11.2484 6.87118L11.1797 6.76778C11.1512 6.87285 11.0859 6.83615 10.9888 6.83782L11.1278 6.88952C11.0391 7.04796 10.962 6.90453 10.9202 6.92288C10.808 6.96958 10.6523 7.2064 10.5719 7.30647C10.5468 7.33816 10.4849 7.34983 10.4748 7.36484C10.4447 7.41654 10.4849 7.52828 10.4664 7.56497C10.4648 7.56998 10.3894 7.51828 10.3626 7.58332C10.3559 7.59833 10.505 7.61 10.4313 7.67004C10.3928 7.70173 10.3308 7.60834 10.3091 7.60834C10.2906 7.60834 10.2421 7.67505 10.1952 7.69506C10.155 7.71174 10.0227 7.72842 10.0144 7.74176C10.0077 7.7501 10.0378 7.80513 10.0261 7.84349C10.0194 7.87018 9.98591 7.89186 9.97754 7.91187C9.97084 7.92855 9.98089 7.96024 9.97754 7.98192C9.79838 8.05864 9.73978 8.1487 9.62927 8.25877C9.59579 8.29212 9.55895 8.35216 9.55393 8.3555C9.53384 8.36717 9.5104 8.31381 9.45514 8.36384C9.42166 8.39386 9.39319 8.45723 9.38482 8.50226C9.3731 8.50226 9.36138 8.50393 9.34966 8.50226C9.23078 8.48058 9.16046 8.46224 9.05498 8.39886C8.96791 8.44389 9.04828 8.51894 9.01981 8.57231C9.00809 8.59232 8.95619 8.61567 8.93275 8.64236C8.89926 8.64403 8.76866 8.66737 8.75862 8.67738C8.75025 8.68572 8.7921 8.73242 8.79378 8.74576C8.79378 8.75243 8.77034 8.77244 8.77536 8.79579C8.78875 8.86417 8.8641 8.91421 8.79378 9.02261C8.77369 9.03595 8.7402 9.04262 8.72346 9.05763C8.60123 9.16938 8.64811 9.29112 8.48068 9.23108C8.31826 9.17271 8.40868 9.23442 8.32999 9.28946C8.30655 9.30613 8.27641 9.29613 8.27138 9.29946C8.34171 9.22608 8.0487 9.15937 8.01019 9.16104L8.06209 9.29946C8.03028 9.29946 7.92479 9.34282 7.95828 9.38619L7.99344 9.40453C7.99344 9.40453 7.95828 9.48959 7.90805 9.47458L7.9248 9.37118C7.86117 9.3595 7.81261 9.40453 7.78582 9.4062C7.76238 9.4062 7.73894 9.4062 7.7155 9.4062C7.69876 9.4062 7.66527 9.37284 7.64518 9.37118C7.63848 9.3128 7.67364 9.22108 7.61169 9.23275C7.62509 9.33115 7.51123 9.29613 7.43756 9.33615V9.23275C7.36724 9.27945 7.33878 9.28779 7.28352 9.27945C7.2718 9.27111 7.25338 9.26611 7.22827 9.26777C7.2065 9.26277 7.17971 9.21107 7.12446 9.23275L7.15962 9.33615C6.99721 9.38118 7.0106 9.29613 6.94196 9.2561C6.86326 9.2094 6.78122 9.28445 6.81136 9.12768L6.88168 9.09266C6.86159 9.0543 6.8214 8.99759 6.77787 8.98926C6.66402 8.96591 6.61044 9.05763 6.55184 9.05763C6.54179 9.05763 6.3777 9.02094 6.36933 9.01427C6.36264 9.00927 6.31575 8.87251 6.25548 9.02428C6.11818 8.96424 6.15502 8.97091 6.08135 8.92088L6.11651 8.90253C6.11316 8.87751 6.12488 8.82748 6.11651 8.81581C6.11316 8.81247 6.06795 8.81581 6.04786 8.81581L5.94405 8.78078C5.91391 8.65403 5.85196 8.5623 5.80508 8.43389C5.80173 8.42388 5.80843 8.41054 5.80508 8.39886C6.02274 8.36217 5.78164 8.31381 5.74145 8.29713C5.73978 8.29713 5.73811 8.29546 5.73643 8.29379C5.72304 8.27711 5.77159 8.2054 5.68453 8.22375C5.65439 8.23042 5.6795 8.28379 5.64434 8.29379C5.5623 8.31547 5.44677 8.27044 5.37143 8.36217C5.33459 8.36551 5.36305 8.3038 5.35468 8.29379C5.36473 8.28045 5.3798 8.27211 5.38984 8.25877C5.40659 8.23709 5.42668 8.2004 5.45012 8.18872C5.51542 8.15703 5.6209 8.17872 5.6343 8.12034C5.56732 8.09366 5.48528 8.15036 5.44007 8.15036C5.42333 8.15036 5.43003 8.09366 5.40324 8.08699C5.34966 8.07365 5.23078 8.14202 5.18223 8.01527C5.17888 8.0036 5.18725 7.98692 5.18223 7.98025C5.1119 7.87351 5.09348 7.9519 5.04995 7.93355C5.04325 7.93188 5.04325 7.88852 5.01479 7.87852C4.88252 7.83515 4.67657 7.80847 4.54598 7.87518C4.51584 7.89019 4.52588 7.94022 4.50244 7.94356C4.43212 7.9569 4.45389 7.9102 4.41538 7.87351C4.36515 7.82681 4.31827 7.74009 4.31157 7.73509C4.41873 7.69006 4.3618 7.6567 4.31157 7.56164C4.27976 7.5016 4.25966 7.48659 4.24125 7.45824C4.23455 7.44823 4.21613 7.43822 4.20608 7.42321C4.17762 7.37818 4.17595 7.28979 4.17092 7.28479C4.16255 7.27645 4.02023 7.33315 3.95158 7.31981C3.94154 7.31814 3.84443 7.19473 3.79755 7.16804V7.16137C3.86619 7.15303 4.09055 7.26144 4.1006 7.24976C4.13409 7.21808 4.02526 7.09966 3.97335 7.13469L4.06544 7.04296C4.02023 7.03796 3.97168 7.04796 3.92647 7.04296C3.7875 7.02461 3.74062 6.95623 3.69541 6.94623C3.65355 6.93789 3.57486 6.98959 3.54305 6.97291C3.52965 6.96624 3.57318 6.71274 3.40408 6.76611C3.39738 6.71274 3.31701 6.62768 3.2785 6.59433C3.18641 6.5126 3.12279 6.601 3.15962 6.34916C3.05079 6.43255 3.00223 6.32415 2.952 6.31414C2.92354 6.30914 2.85657 6.35417 2.81303 6.31414V6.26744C2.92354 6.21908 2.86661 6.24242 2.84819 6.17571L2.79796 6.109C2.84819 5.99226 2.77117 5.85216 2.6389 5.93222C2.62383 5.90053 2.61379 5.90053 2.60374 5.93222C2.56356 5.94389 2.54012 5.99559 2.49993 6.00226C2.49993 5.99059 2.50328 5.97558 2.49993 5.96724C2.47984 5.91554 2.39612 5.91888 2.36933 5.88719C2.33082 5.84216 2.40617 5.82214 2.25715 5.75877C2.18348 5.607 1.98926 5.47191 1.90889 5.34349C1.89549 5.32181 1.88545 5.29679 1.87373 5.27345C1.8687 5.26511 1.90554 5.16004 1.80341 5.1C1.79168 5.1 1.77829 5.10333 1.76824 5.1C1.74815 5.09333 1.71969 5.07665 1.69792 5.06497C1.68453 5.0583 1.67616 5.03662 1.66276 5.02995C1.6276 5.00994 1.59244 4.98325 1.55895 4.9599C1.62593 4.94489 1.60751 4.92988 1.55895 4.88986C1.58072 4.86484 1.569 4.84149 1.52379 4.81981C1.51877 4.8098 1.52881 4.79479 1.52379 4.78479C1.57737 4.74309 1.54891 4.70473 1.48863 4.71474C1.46519 4.68472 1.31115 4.62801 1.27934 4.61134C1.2358 4.58799 1.18892 4.56964 1.14037 4.54129C1.08176 4.46124 1.03656 4.43455 1.0014 4.33282C1.03991 4.30113 1.02986 4.26777 1.0014 4.22942C1.06 4.12268 0.835636 4.02761 0.758617 4.09099C0.746896 4.08432 0.73685 4.06597 0.723455 4.05597H0.688294C0.676574 4.04096 0.668202 4.03429 0.653133 4.02094C0.587834 3.96924 0.713409 3.88585 0.688294 3.84749C0.684946 3.84249 0.616298 3.82915 0.584485 3.81247C0.494071 3.76577 0.368495 3.74409 0.30487 3.71574C0.298173 3.7074 0.291476 3.69906 0.283104 3.69239C0.26636 3.64736 0.234548 3.53729 0.0687882 3.59399C0.00851191 3.61567 0.0302783 3.64069 0.028604 3.66571C0.028604 3.66904 0.0269297 3.67238 0.0269297 3.67405C-0.0366953 3.83749 0.0553935 3.75076 0.0637652 3.8008C0.092229 3.9559 -0.0651591 3.9092 0.1659 3.98759C0.129064 4.03429 0.159203 4.07932 0.1659 4.12601H0.130739C-0.110366 4.09099 0.0754855 4.44456 0.0955776 4.57631C0.105624 4.63802 0.124041 4.67972 0.130739 4.71474C0.134087 4.73642 0.12739 4.76144 0.130739 4.78479C0.132413 4.79646 0.130739 4.80814 0.130739 4.81981C0.157528 5.02828 0.189341 5.15337 0.201061 5.3535C0.201061 5.36851 0.417051 5.46858 0.130739 5.51361C0.259663 5.7104 0.110647 5.83882 0.1659 6.06731C0.103949 6.14403 0.135762 6.25076 0.130739 6.34416C0.130739 6.35083 0.0855316 6.38252 0.0922289 6.42588C0.0922289 6.43255 0.132413 6.45257 0.164226 6.51761C0.174272 6.53762 0.15418 6.56097 0.199387 6.62101C0.217805 6.64436 0.269709 6.64936 0.268035 6.67104C0.257989 6.80113 0.105624 6.74943 0.0955776 6.75944C0.0654395 6.87284 0.199387 7.06798 0.252966 6.89786L0.269709 7.00293C0.256314 7.01294 0.246268 7.02628 0.234548 7.03796C0.206084 7.02795 0.155854 6.96791 0.130739 7.02128C0.13911 7.16637 0.407005 7.21474 0.0955776 7.19473C0.15418 7.34149 0.0101862 7.49159 0.234548 7.48826C0.246268 7.48826 0.261337 7.49159 0.269709 7.48826L0.236222 7.55663C0.299847 7.55163 0.311568 7.60333 0.340031 7.62668C0.329985 7.63836 0.311568 7.64836 0.30487 7.6617C0.199387 7.70173 0.107298 7.76511 0.169249 7.87685C0.199387 7.93188 0.257989 7.86851 0.199387 8.00693C0.0671138 7.93188 0.152505 8.01861 0.1659 8.07698C0.17762 8.12535 0.185992 8.16704 0.201061 8.21541C0.214456 8.2621 0.180969 8.28545 0.236222 8.35383C0.246268 8.36717 0.257989 8.37885 0.271383 8.38886C0.264686 8.4022 0.283104 8.44389 0.271383 8.46724C0.244594 8.51394 0.157528 8.47224 0.249617 8.58565C0.263012 8.60066 0.30487 8.59399 0.306545 8.59733C0.313242 8.60733 0.328311 8.67071 0.341706 8.70073L0.237897 8.75243C0.231199 8.76911 0.390262 8.78912 0.306545 8.9092C0.294824 8.90753 0.274732 8.87418 0.273058 8.87418C0.108972 8.90753 0.231199 9.03095 0.237897 9.11601C0.192689 9.15603 0.191015 9.21274 0.237897 9.25443C0.237897 9.26611 0.237897 9.27778 0.237897 9.28946C0.241245 9.34616 0.236222 9.40453 0.237897 9.4629C0.251291 9.49293 0.263012 9.49293 0.273058 9.4629L0.308219 9.73976C0.294824 9.70974 0.283104 9.70974 0.273058 9.73976C0.273058 9.77978 0.273058 9.83982 0.273058 9.87818C0.273058 9.91654 0.24292 10.0099 0.237897 10.0867C0.26636 10.14 0.301522 10.175 0.341706 10.1901C0.311568 10.1834 0.269709 10.1951 0.237897 10.1901C0.237897 10.2134 0.239571 10.2368 0.237897 10.2601C0.30487 10.2768 0.328311 10.2534 0.376867 10.2251C0.485699 10.1634 0.433794 10.1534 0.412028 10.0516C0.477327 10.0383 0.485699 10.08 0.515837 10.1217C0.525883 10.135 0.539278 10.145 0.550998 10.1567C0.545975 10.16 0.540952 10.2401 0.515837 10.2601C0.507465 10.2668 0.422074 10.2384 0.412028 10.3635C0.400308 10.3635 0.386913 10.3618 0.376867 10.3635C0.122367 10.4252 0.323288 10.6954 0.306545 10.7104C0.167574 10.6904 0.202735 10.7354 0.202735 10.8488C0.202735 10.8722 0.202735 10.8955 0.202735 10.9189V10.9539C0.236222 10.9572 0.273058 10.9506 0.306545 10.9539V10.9873C0.284778 10.9906 0.25464 10.9823 0.237897 10.9873C0.221153 10.9923 0.180969 10.9772 0.170923 10.9889C0.157528 11.0039 0.172597 11.0623 0.169249 11.0907C0.211107 11.0973 0.209433 11.1624 0.20441 11.1941C0.199387 11.2324 0.150831 11.2774 0.169249 11.3325L0.34338 11.2624C0.378541 11.3225 0.408679 11.3425 0.48235 11.3325L0.447189 11.4009C0.417051 11.3959 0.385239 11.3775 0.353426 11.3758C0.324962 11.3758 0.314916 11.3992 0.308219 11.4009C0.261337 11.4109 0.256314 11.3959 0.20441 11.4359C0.117344 11.5009 0.162551 11.551 0.169249 11.6444C0.291476 11.671 0.196038 11.5793 0.202735 11.576C0.284778 11.5293 0.273058 11.656 0.328311 11.676C0.383564 11.6961 0.468956 11.7061 0.447189 11.611C0.45891 11.611 0.47063 11.611 0.48235 11.611L0.465607 11.7845C0.353426 11.6844 0.386913 11.8595 0.34338 11.9579C0.239571 11.9179 0.328311 11.7794 0.169249 11.8195L0.308219 11.9913C0.102275 12.053 0.211107 11.8578 0.0654395 11.8528C0.0520448 11.8228 0.0403244 11.8228 0.0302783 11.8528C0.0403244 11.9062 0.0587421 11.9329 0.0654395 11.9562C0.0587421 12.058 0.0704625 12.1497 0.100601 12.2331C0.0671138 12.2214 0.0671138 12.2348 0.0654395 12.2681C0.0671138 12.2798 0.0620908 12.2915 0.0654395 12.3031C0.0101863 12.3965 0.023581 12.5483 0.135762 12.4416C0.187666 12.535 0.172597 12.6 0.0654395 12.615C0.0453474 12.5483 0.0152093 12.5483 -0.00488281 12.615C0.00014021 12.6283 0.0269297 12.64 0.0302783 12.65C0.0202323 12.7751 0.0436731 12.8452 0.100601 12.8585C0.110647 13.037 0.0838572 13.0203 0.135762 13.2404C0.137436 13.2471 0.0922289 13.2888 0.117344 13.3422C0.142459 13.3955 0.221153 13.4222 0.239571 13.4472C0.264686 13.4839 0.232874 13.5273 0.274732 13.5857C0.284778 13.599 0.296499 13.609 0.309893 13.6207C0.351752 13.6557 0.410354 13.6524 0.413702 13.6557C0.422074 13.6657 0.333334 13.6974 0.413702 13.8975C0.385239 13.9392 0.361798 13.9859 0.34338 14.036C0.348403 14.0443 0.348403 14.0877 0.378541 14.1394C0.494071 14.2544 0.611275 14.3362 0.726804 14.3812C0.740199 14.4095 0.750245 14.4095 0.761965 14.3812C0.790429 14.5013 0.849031 14.5713 0.936097 14.5897C0.974607 14.6297 0.999722 14.6347 1.03991 14.6597C1.00307 14.7364 1.15711 14.8448 1.22073 14.8782C1.46184 14.9015 1.70294 14.9215 1.94405 14.9366C1.95577 14.9432 1.96582 14.9632 1.97921 14.9716L2.05623 14.9833C2.06963 14.9716 2.17678 14.7764 2.1885 14.7281C2.32078 14.8949 2.30738 14.7514 2.32747 14.7281C2.41621 14.7848 2.5083 14.6847 2.57025 14.6931C2.59704 14.6964 2.62048 14.7498 2.64058 14.7631C2.68913 14.7931 2.78959 14.8532 2.84987 14.7981C2.86159 14.7865 2.8214 14.7114 2.88503 14.7297C2.86159 14.8798 3.02735 14.7364 3.05916 14.7648C3.03572 14.8298 2.97377 14.9249 3.09432 14.9032C3.02567 14.8031 3.18641 14.7915 3.19813 14.7464C3.21487 14.6797 3.10604 14.648 3.09432 14.6247C3.08762 14.613 3.09935 14.5763 3.09432 14.5546C3.11944 14.563 3.22157 14.6013 3.23329 14.5897V14.4512C3.28352 14.5146 3.33208 14.4512 3.3371 14.4512C3.37226 14.4529 3.40742 14.4479 3.44091 14.4512C3.46937 14.4546 3.54974 14.5179 3.61504 14.4863C3.60332 14.6163 3.49282 14.5763 3.47607 14.5897C3.47105 14.593 3.51291 14.6847 3.51793 14.6881C3.54137 14.7047 3.64518 14.6964 3.68536 14.6947L3.75569 14.7648C3.88126 14.7648 4.03363 14.7398 4.1726 14.7297C4.40198 14.6714 4.64476 14.648 4.90261 14.6597C4.91433 14.6614 4.92605 14.6564 4.93777 14.6597C4.94949 14.663 4.96121 14.6564 4.97293 14.6597C5.02651 14.6647 5.06 14.663 5.07507 14.653C5.11693 14.6981 5.19897 14.7247 5.3212 14.7281C5.43673 14.7264 5.55393 14.7331 5.66946 14.7281C5.6862 14.6147 5.48695 14.648 5.42835 14.5296V14.4846C5.4451 14.4696 5.51877 14.5246 5.49533 14.4145C5.56565 14.4679 5.56063 14.4496 5.59914 14.3795C5.59244 14.4296 5.59746 14.4479 5.6343 14.4829C5.63932 14.4879 5.6343 14.5113 5.65606 14.5163C5.72806 14.5296 5.87708 14.4162 5.9474 14.3795C6.04284 14.3612 6.10646 14.4245 6.19018 14.4496C6.22367 14.4596 6.26887 14.4796 6.29399 14.4846C6.31575 14.4879 6.34087 14.4813 6.36431 14.4846L6.66234 14.588C6.82308 14.5246 6.81471 14.6263 6.85154 14.7631C6.85489 14.7781 6.88503 14.7915 6.8867 14.7981C7.07423 14.7214 6.81303 14.6414 6.85154 14.6247C6.92019 14.623 6.99051 14.6263 7.06083 14.6247C7.07256 14.6247 7.08428 14.6247 7.096 14.6247C7.10437 14.668 7.11274 14.7047 7.12446 14.7448C7.12446 14.7498 7.12781 14.7564 7.12948 14.7631C7.03572 14.8198 7.0759 14.8932 7.16464 14.8332C7.17302 14.8281 7.18976 14.8382 7.19981 14.8332C7.2132 14.8632 7.22492 14.8632 7.23497 14.8332C7.28352 14.8648 7.32873 14.8515 7.3438 14.8298C7.3505 14.8332 7.36054 14.8348 7.37394 14.8332C7.38566 14.8632 7.39738 14.8632 7.4091 14.8332C7.41914 14.9399 7.45431 14.9349 7.52463 14.8615L7.68704 14.7981C7.82266 14.7564 7.82601 14.7848 7.82601 14.6597C8.07883 14.633 7.89298 14.4979 7.93149 14.4512C8.00181 14.4829 8.07381 14.5546 8.13911 14.5897C8.3032 14.678 8.25464 14.5363 8.27808 14.4162C8.31826 14.4079 8.35008 14.4412 8.38189 14.4512C8.39361 14.4546 8.40701 14.4479 8.41705 14.4512L8.45221 14.3812C8.46561 14.4129 8.4271 14.4913 8.53928 14.4496C8.57611 14.4362 8.59621 14.2694 8.59118 14.2428C8.6029 14.2428 8.61797 14.2394 8.62634 14.2428C8.62802 14.2428 8.65983 14.2744 8.6615 14.2778C8.6615 14.2845 8.63137 14.3111 8.63639 14.3312C8.64811 14.3662 8.69332 14.3762 8.69499 14.3812C8.69499 14.3879 8.69499 14.3945 8.69499 14.4012C8.68495 14.4479 8.60625 14.4863 8.81889 14.553C8.87582 14.5713 8.85908 14.5029 8.87247 14.4546C8.88084 14.4462 8.89089 14.4346 8.90428 14.4162C8.90763 14.3945 8.89759 14.3628 8.90428 14.3462C8.95284 14.3612 9.00474 14.3545 9.00809 14.4496C9.00809 14.4546 8.96121 14.4863 8.97293 14.5179C9.05163 14.4946 9.27264 14.5863 9.31952 14.5496C9.32789 14.543 9.32287 14.5213 9.31952 14.5029C9.31952 14.4963 9.31952 14.4896 9.31952 14.4829C9.32454 14.4679 9.33961 14.4546 9.35468 14.4479C9.3731 14.4746 9.38315 14.5096 9.38984 14.5179C9.43505 14.5796 9.47691 14.7331 9.54723 14.623C9.58407 14.5663 9.52714 14.4362 9.56397 14.3628L9.45849 14.4145C9.45849 14.4029 9.46184 14.3895 9.45849 14.3795C9.45849 14.3695 9.45849 14.3595 9.45849 14.3512C9.46854 14.2828 9.57737 14.2761 9.65104 14.2761C9.65439 14.2828 9.66109 14.2845 9.66778 14.2761C9.68453 14.2761 9.73476 14.3145 9.73811 14.3111C9.71634 14.3312 9.71132 14.4095 9.70294 14.4145C9.69625 14.4195 9.59579 14.3979 9.60583 14.5013C9.61588 14.5913 9.8888 14.538 9.64937 14.6564L9.73643 14.7264C9.75987 14.7264 9.78331 14.7298 9.80675 14.7264C9.94238 14.7714 10.0813 14.7598 10.2237 14.6914C10.2655 14.6864 10.3258 14.7214 10.3476 14.7164C10.3693 14.7114 10.3643 14.658 10.5016 14.6213C10.4715 14.6347 10.4715 14.6464 10.5016 14.6564C10.5987 14.7348 10.6356 14.653 10.7109 14.6213C10.7762 14.593 10.8499 14.5696 10.9018 14.5179C10.9771 14.5513 10.9235 14.6347 10.9353 14.6564C10.9771 14.7281 11.014 14.6564 11.024 14.6564C11.2216 14.6464 11.2032 14.5863 11.2132 14.588C11.25 14.5913 11.4928 14.7531 11.4761 14.588C11.4878 14.588 11.5029 14.5847 11.5112 14.588C11.5179 14.5897 11.528 14.6447 11.5665 14.6497C11.6033 14.6547 11.6485 14.613 11.677 14.6297C11.6904 14.638 11.677 14.7464 11.754 14.658C11.754 14.663 11.8227 14.6847 11.8243 14.7281C11.8327 14.7231 11.8511 14.7331 11.8595 14.7281L11.9298 14.7631C11.9968 14.7664 12.4606 14.7381 12.4857 14.7281C12.5242 14.7164 12.5577 14.7047 12.5895 14.6931C12.69 14.7314 12.7017 14.7764 12.6933 14.623C12.7235 14.6097 12.7235 14.598 12.6933 14.588C12.7235 14.588 12.7586 14.5596 12.8005 14.5713C12.8641 14.588 12.9143 14.6814 13.0064 14.658V14.5196C13.0399 14.538 13.0751 14.543 13.1102 14.5546C13.0935 14.6097 13.1387 14.6213 13.2492 14.5897C13.2844 14.5813 13.3145 14.5546 13.3195 14.5546C13.3614 14.5496 13.4066 14.5263 13.4585 14.4846C13.5539 14.5229 13.5389 14.4829 13.5623 14.4846C13.574 14.4846 13.5857 14.4846 13.5975 14.4846C13.6309 14.4946 13.6544 14.4712 13.6678 14.4145C13.7364 14.3995 13.7482 14.4262 13.8419 14.3795C13.8503 14.3762 13.8553 14.3362 13.8754 14.3261C13.9089 14.3111 13.9725 14.3562 13.9809 14.3445C13.9893 14.3345 13.9708 14.2661 13.9809 14.2311C14.0077 14.141 14.0378 14.2794 14.0144 14.0326C14.0144 14.0209 14.0144 14.0093 14.0144 13.9976C14.1416 14.0076 14.0981 13.8959 14.1182 13.8592C14.2772 14.046 14.4011 13.6524 14.4212 13.5023C14.5033 13.5023 14.5234 13.4255 14.4798 13.2771L14.5016 13.097L14.5083 13.117ZM9.91559 8.12535C9.91559 8.12535 9.91559 8.11701 9.91559 8.11367C9.91559 8.11701 9.91559 8.12201 9.91559 8.12535ZM2.5803 6.1607C2.5803 6.1607 2.57695 6.16904 2.57528 6.17405C2.57528 6.16904 2.57528 6.16404 2.57862 6.1607C2.57862 6.1607 2.57862 6.1607 2.5803 6.1607ZM11.0407 14.2277C11.0407 14.2277 11.0525 14.2244 11.0625 14.2277C11.0558 14.2277 11.0491 14.2277 11.0407 14.2277ZM9.56732 9.02761L9.44007 8.97925C9.43338 8.96924 9.47691 8.98592 9.56732 9.02761ZM9.56732 9.06097C9.50705 9.02595 9.46854 9.00093 9.45012 8.98759L9.56732 9.06097ZM8.05372 13.9826C8.05372 13.9826 8.06711 13.9809 8.07214 13.9826H8.05372ZM13.271 8.09199H13.2542C13.2542 8.09199 13.2626 8.09199 13.271 8.09199ZM2.40952 7.82348C2.40952 7.82348 2.40449 7.81681 2.40114 7.81514C2.40282 7.81514 2.40617 7.82014 2.40952 7.82348ZM4.56439 12.4199C4.56439 12.4199 4.55937 12.4115 4.55937 12.4065C4.56439 12.4132 4.56774 12.4199 4.57276 12.4249C4.57109 12.4249 4.56942 12.4249 4.56774 12.4232C4.56774 12.4232 4.56439 12.4232 4.56272 12.4199H4.56439ZM5.44845 12.4949C5.44845 12.4949 5.45682 12.4949 5.46184 12.4933C5.45849 12.4933 5.45347 12.4949 5.44845 12.4949ZM2.54346 11.084C2.54346 11.084 2.54346 11.0857 2.54346 11.0873C2.54346 11.0907 2.54346 11.094 2.54012 11.0973C2.54012 11.0973 2.53844 11.0973 2.53677 11.0973C2.53677 11.0923 2.54012 11.0873 2.54179 11.0823L2.54346 11.084ZM1.8821 9.51961C1.8821 9.51961 1.88042 9.51461 1.87875 9.51294C1.8821 9.51627 1.8821 9.51794 1.8821 9.51961ZM4.00181 10.7254V10.7287H4.00349V10.7254H4.00181ZM4.8708 11.0023V10.9672C4.8708 10.9789 4.8708 10.9906 4.8708 11.0023ZM5.72136 12.4616C5.72136 12.4616 5.72973 12.4632 5.73643 12.4666C5.72973 12.4666 5.72304 12.4666 5.71634 12.4666C5.71801 12.4632 5.71969 12.4599 5.72136 12.4599V12.4616ZM1.76824 13.3455C1.75987 13.3255 1.75317 13.3071 1.74815 13.2905C1.76155 13.2988 1.76992 13.3171 1.77327 13.3605C1.77327 13.3555 1.76992 13.3505 1.76824 13.3472V13.3455ZM11.7942 9.61634H11.759C11.7708 9.61634 11.7892 9.613 11.7942 9.61634ZM11.6184 11.0473C11.6184 11.0473 11.6184 11.0406 11.6184 11.0373C11.6184 11.0406 11.6184 11.044 11.6184 11.0473ZM11.4962 10.7604H11.4811C11.4811 10.7604 11.4911 10.7604 11.4962 10.7604ZM11.1898 10.7504C11.1898 10.7504 11.1914 10.7354 11.2032 10.7254C11.2032 10.7321 11.1965 10.7404 11.1898 10.7504ZM11.9382 10.2117C11.9382 10.2117 11.9348 10.2084 11.9332 10.2051C11.9348 10.2067 11.9365 10.2084 11.9382 10.2117ZM12.0453 9.57798C12.0453 9.57798 12.037 9.56964 12.0387 9.56464V9.5613C12.0403 9.56631 12.0437 9.57298 12.0453 9.57798ZM12.4204 11.9729L12.4254 11.9629C12.4254 11.9629 12.4288 11.9712 12.4288 11.9746C12.4254 11.9746 12.4237 11.9729 12.4204 11.9712V11.9729ZM11.1814 9.5613C11.1814 9.5613 11.168 9.54796 11.168 9.54629C11.1747 9.5513 11.1797 9.5563 11.1814 9.5613ZM10.4547 10.8238C10.4547 10.8238 10.4464 10.8305 10.443 10.8338C10.4447 10.8305 10.448 10.8288 10.4497 10.8255C10.4497 10.8255 10.453 10.8255 10.4547 10.8255V10.8238ZM9.66276 12.3215C9.66276 12.3215 9.66778 12.3198 9.67113 12.3181C9.66946 12.3181 9.66611 12.3198 9.66276 12.3215ZM9.7582 10.8021C9.7582 10.8021 9.7515 10.8105 9.74146 10.7938C9.74648 10.7938 9.7515 10.7971 9.7582 10.8021ZM13.07 10.5019C13.07 10.5019 13.055 10.5019 13.0466 10.5003C13.0516 10.4953 13.0566 10.4919 13.0633 10.4869C13.065 10.4919 13.0684 10.4969 13.07 10.5019ZM10.5066 10.7254C10.5066 10.7254 10.4983 10.7321 10.4932 10.7338C10.4983 10.7304 10.5016 10.7271 10.5066 10.7254ZM8.07214 11.4876C8.06042 11.4959 8.04702 11.5009 8.03363 11.5076L8.07214 11.4876ZM7.75234 10.8322C7.76238 10.8205 7.77243 10.8071 7.7808 10.7955C7.77745 10.8055 7.77076 10.8171 7.75736 10.8305C7.75736 10.8305 7.75401 10.8322 7.75066 10.8338L7.75234 10.8322ZM2.77955 8.46557C2.77955 8.46557 2.77955 8.46891 2.77955 8.47224C2.77955 8.47224 2.7762 8.46891 2.77452 8.46891C2.7762 8.46891 2.77787 8.46891 2.77955 8.46724V8.46557ZM1.14874 9.88485C1.14874 9.88485 1.14874 9.88986 1.14874 9.89319C1.14874 9.89152 1.14874 9.88819 1.14874 9.88485ZM13.1153 8.70073C13.1153 8.70073 13.1153 8.68739 13.1153 8.68072V8.70073ZM5.91559 10.2217C5.91559 10.2217 5.91391 10.2134 5.91559 10.2067C5.91559 10.2117 5.91559 10.2167 5.91559 10.2217ZM0.800475 7.08632C0.800475 7.098 0.800475 7.10967 0.800475 7.12134V7.08632ZM7.58825 10.637C7.58825 10.632 7.58658 10.627 7.5849 10.622C7.5849 10.627 7.58658 10.632 7.58825 10.637ZM3.62174 7.8585C3.62174 7.8585 3.61839 7.85183 3.61839 7.8485C3.61839 7.85183 3.62006 7.85517 3.62174 7.8585ZM0.730153 6.87785C0.730153 6.87785 0.720107 6.88452 0.715084 6.88452C0.720107 6.88118 0.72513 6.87785 0.730153 6.87785ZM1.97921 13.9009C1.99261 13.9009 2.00433 13.9009 2.01605 13.8975C2.00433 13.9059 1.99261 13.9059 1.97921 13.9009ZM12.1944 13.8442C12.1944 13.8442 12.2061 13.8425 12.2111 13.8442H12.1944ZM8.17595 10.1017C8.19771 10.0983 8.22115 10.0967 8.24627 10.0967C8.2245 10.1 8.20274 10.1017 8.17595 10.1017ZM1.21739 13.7057C1.21739 13.7057 1.21739 13.7074 1.21739 13.7091C1.21739 13.7074 1.21404 13.7041 1.21236 13.7024L1.21739 13.7057ZM1.21739 14.0526C1.21739 14.041 1.21739 14.0293 1.21739 14.0176V14.0526ZM4.65983 13.6157C4.65983 13.6157 4.65983 13.6057 4.66151 13.6023C4.66151 13.6073 4.66151 13.6107 4.65983 13.6157ZM13.8536 10.7738C13.8536 10.7738 13.8536 10.7738 13.8536 10.7754C13.8536 10.7754 13.8536 10.7738 13.8536 10.7721V10.7738ZM6.94531 10.3518C6.95033 10.3602 6.95368 10.3685 6.9587 10.3785C6.95368 10.3718 6.94865 10.3618 6.94531 10.3518ZM14.16 12.9786C14.16 12.9786 14.1667 12.9786 14.1701 12.9786C14.1667 12.9786 14.1634 12.9786 14.16 12.9786ZM8.60793 9.71974H8.62802C8.62802 9.71974 8.6163 9.71974 8.60793 9.71974ZM10.2287 14.2261C10.2287 14.2261 10.2186 14.2328 10.2119 14.2361C10.2186 14.2311 10.2253 14.2277 10.2287 14.2261ZM9.68285 8.87918C9.69792 8.87918 9.70964 8.88752 9.71969 8.89586C9.69792 8.89586 9.66946 8.89252 9.63597 8.88752C9.65271 8.88585 9.66778 8.88252 9.68285 8.87751V8.87918ZM4.20943 7.98692C4.20943 7.98692 4.21111 7.98692 4.21278 7.98692C4.21278 7.98692 4.21111 7.98692 4.20943 7.98692ZM2.88838 14.3295C2.9001 14.3245 2.9068 14.3261 2.9068 14.3312C2.9001 14.3312 2.8934 14.3312 2.88838 14.3295ZM12.0035 6.86784C12.0035 6.86784 12.0035 6.87451 12.0018 6.87618C12.0018 6.87952 11.9918 6.87952 11.98 6.87785C11.9884 6.87451 11.9951 6.87118 12.0035 6.86784ZM5.70797 8.71407C5.70797 8.71407 5.70629 8.71407 5.70462 8.71407H5.70797ZM0.450538 5.52528H0.452212C0.452212 5.52528 0.452212 5.52528 0.450538 5.52528ZM1.22073 14.673C1.22073 14.673 1.22241 14.6697 1.22408 14.6697C1.23748 14.673 1.25087 14.6747 1.26427 14.6764C1.25422 14.6764 1.24418 14.678 1.23413 14.678C1.23078 14.678 1.22576 14.6747 1.22241 14.673H1.22073ZM14.3509 12.5299C14.3459 12.54 14.3392 12.55 14.3342 12.5633C14.2973 12.5566 14.2588 12.5716 14.2304 12.5283C14.2739 12.54 14.3158 12.54 14.3509 12.5299ZM4.76866 8.05196C4.79713 8.0603 4.83229 8.07365 4.8708 8.09199C4.83731 8.07698 4.77201 8.05697 4.76866 8.05363V8.05196ZM0.24292 3.6557V3.6607C0.24292 3.6607 0.237897 3.65737 0.236222 3.6557H0.24292Z" fill="#20293F"/>
<path d="M0.800171 2.66673C0.81524 2.7351 0.897283 2.75679 0.919049 2.79014C0.996069 2.90522 0.893934 2.86853 1.07811 2.99695C1.0982 3.01029 1.12834 3.01696 1.14843 3.03197C1.15346 3.05198 1.14174 3.08701 1.14843 3.10202C1.11997 3.16206 1.15178 3.25045 1.18359 3.31049C1.19197 3.31382 1.20704 3.31049 1.21876 3.31049C1.24555 3.36386 1.26899 3.35218 1.28908 3.27547C1.32257 3.38054 1.40796 3.3822 1.49837 3.34551C1.50172 3.35552 1.49502 3.37053 1.49837 3.38054H1.39456C1.36945 3.48561 1.43977 3.43057 1.46991 3.45225C1.52349 3.49228 1.49502 3.48727 1.56869 3.51896C1.59046 3.52897 1.63064 3.53731 1.6725 3.55398C1.66748 3.59068 1.6725 3.61236 1.68757 3.61736C1.66413 3.63737 1.65743 3.66239 1.6725 3.69241C1.6859 3.69575 1.71436 3.7291 1.74282 3.72743C1.77296 3.82416 1.83994 3.80749 1.88179 3.72743C1.89017 3.7291 1.99063 3.80915 2.02077 3.83084C2.04086 3.84585 2.071 3.85085 2.09109 3.86586C2.09946 3.87253 2.1815 3.96092 2.23006 4.00428C2.34224 4.10268 2.35396 4.20108 2.508 4.24611C2.70055 4.30282 2.57162 4.29114 2.68046 4.40455C2.71227 4.43791 2.7558 4.44458 2.77589 4.44958C2.77924 4.44958 2.78259 4.45292 2.78594 4.45292C2.86296 4.52463 2.94835 4.65805 3.02872 4.69474C3.02872 4.71809 3.11746 4.86653 3.16769 4.83317C3.28824 5.06332 3.28489 4.98494 3.44563 5.11002C3.57623 5.21009 3.55446 5.27013 3.72357 5.31849C3.72692 5.35352 3.78887 5.3802 3.79389 5.38854C3.80394 5.41022 3.78385 5.48194 3.79389 5.49361C3.79724 5.49695 3.84747 5.46026 3.89435 5.47527C3.91277 5.48194 4.16727 5.65038 4.17564 5.66539C4.18401 5.68374 4.16225 5.74044 4.17899 5.76546C4.18401 5.77213 4.31461 5.75212 4.34642 5.80882C4.36652 5.84551 4.31963 5.89721 4.32131 5.92557C4.32131 5.94058 4.56409 6.04064 4.59255 6.04565C4.6026 6.04731 4.61599 6.04565 4.62771 6.04565C4.6545 6.16072 4.75329 6.17573 4.80185 6.21909C4.82529 6.23911 4.83701 6.26246 4.87217 6.28914C4.9157 6.32083 4.93579 6.36919 4.96928 6.39088C5.0463 6.43924 5.20536 6.46593 5.28908 6.53264C5.32424 6.59268 5.38954 6.62937 5.39289 6.70609C5.40628 6.71276 5.44479 6.69941 5.46321 6.70609C5.50172 6.79615 5.45986 6.86619 5.63734 6.87953C5.63902 6.88621 5.60385 6.91456 5.6072 6.93124C5.62395 7.01296 5.69762 6.94958 5.74115 6.94791C5.76124 7.0313 5.86338 7.0263 5.90691 7.04798C5.91026 7.04798 5.91193 7.05132 5.91528 7.05298C5.93035 7.06299 5.97723 7.12303 6.01909 7.15639L6.08941 7.36486C6.13964 7.36486 6.1162 7.30982 6.13127 7.30148C6.14969 7.31482 6.17146 7.32483 6.19322 7.32983C6.23341 7.3732 6.25685 7.4249 6.29703 7.46826C6.31545 7.48827 6.43265 7.59835 6.4427 7.60335C6.47451 7.61669 6.53479 7.55999 6.54149 7.57166C6.55153 7.59001 6.52139 7.64838 6.56325 7.68007C6.59506 7.70508 6.76752 7.69675 6.8211 7.71009C6.83282 7.71342 6.84454 7.70675 6.85626 7.71009C6.86966 7.7301 6.88305 7.74678 6.89645 7.76179C6.91989 7.81683 6.91654 7.89021 6.93328 7.91189C6.94835 7.93023 6.99021 7.91189 6.99523 7.91856C7.02035 7.94024 7.04379 7.96192 7.06555 7.98861V8.02363C7.08732 8.02863 7.03709 8.072 7.16936 8.05865C7.25978 8.05031 7.24303 8.05699 7.20285 8.12703C7.30498 8.11202 7.32173 8.1287 7.30833 8.2321C7.45065 8.10702 7.4674 8.17707 7.58627 8.2321C7.59632 8.23711 7.60637 8.25879 7.62144 8.26713C7.66999 8.29715 7.71017 8.29715 7.76041 8.37053C7.891 8.30715 7.77547 8.31382 7.76041 8.19708C7.85752 8.18207 7.97305 8.17873 8.07351 8.16206C8.0802 8.1754 8.06848 8.21042 8.07351 8.23043H8.10699C8.09862 8.1804 8.14885 8.09368 8.14216 8.05699C8.2309 8.01196 8.24596 8.01196 8.28113 7.91856C8.28615 7.90355 8.31629 7.82016 8.31629 7.81516C8.33973 7.79681 8.36149 7.76012 8.38661 7.74511C8.50214 7.67506 8.5306 7.65005 8.62939 7.57166C8.70808 7.50995 8.94416 7.28814 9.00277 7.25812C9.07811 7.21976 9.13504 7.26979 9.18694 7.25812C9.24387 7.24645 9.31587 7.1714 9.39624 7.18807L9.36107 7.11969C9.36107 7.11969 9.3527 7.06633 9.36442 7.05632C9.38117 7.04131 9.51344 7.16139 9.53353 6.98294C9.50172 6.9846 9.48498 6.96459 9.46488 6.94625L9.50005 6.84284C9.52014 6.84451 9.58544 6.79448 9.63902 6.84284C9.56032 6.53597 9.79975 6.65272 9.84831 6.59935C9.85166 6.59601 9.8165 6.54765 9.82152 6.51763C9.82822 6.47593 9.88012 6.46759 9.88179 6.46259C9.92031 6.55265 9.95881 6.45925 9.9856 6.42757C10.0107 6.39755 10.0208 6.35252 10.0559 6.32416C10.1145 6.44591 10.1966 6.30582 10.2234 6.29248C10.2568 6.2758 10.3121 6.28914 10.3556 6.25745C10.446 6.19074 10.3674 6.11569 10.3774 6.08567C10.3807 6.07733 10.4996 6.01396 10.5097 5.95892C10.3037 5.98894 10.4494 5.93057 10.4745 5.81883C10.5415 5.52863 10.3623 5.79381 10.2669 5.6287C10.2669 5.61703 10.2686 5.60535 10.2669 5.59368C10.3741 5.61369 10.3255 5.54031 10.3406 5.4786C10.364 5.3802 10.4494 5.21342 10.3372 5.1784L10.2669 5.31683C10.2317 5.22843 10.3255 5.14004 10.3305 5.085C10.3355 5.03164 10.2753 4.99995 10.2669 4.96993C10.2619 4.94991 10.2736 4.91656 10.2669 4.89988C10.2167 4.85485 10.1363 4.8782 10.0928 4.86486C10.0844 4.86152 9.9856 4.80982 9.95379 4.79481L9.98895 4.55298C9.89352 4.56966 9.79473 4.55465 9.74617 4.65639C9.7445 4.65305 9.71269 4.65972 9.71101 4.65639C9.68255 4.51462 9.79975 4.55132 9.81315 4.49795C9.82319 4.45959 9.76794 4.39454 9.76459 4.34951C9.75957 4.29615 9.79305 4.23444 9.78301 4.19608C9.78133 4.18607 9.71771 4.1227 9.67585 4.03264C9.76794 3.92757 9.6859 3.78247 9.63734 3.67907C9.62395 3.65238 9.58041 3.64738 9.58041 3.64404C9.57204 3.61736 9.61223 3.57233 9.60888 3.53397C9.6072 3.51062 9.56032 3.51229 9.55028 3.49895C9.53353 3.4756 9.53856 3.44391 9.53688 3.44224V3.40722C9.4967 3.35552 9.49 3.28881 9.46656 3.23377C9.62562 3.15705 9.3728 3.08534 9.57037 2.9736L9.50172 2.95692C9.59046 2.85352 9.42805 2.68674 9.57204 2.71509C9.56869 2.69341 9.57539 2.66839 9.57204 2.64504L9.39791 2.71509C9.37949 2.6734 9.44814 2.55832 9.43307 2.54164C9.42805 2.53664 9.34433 2.53497 9.30415 2.51496C9.20536 2.46659 9.13504 2.38154 9.01449 2.40322L8.97933 2.4716C8.96091 2.45492 8.89393 2.40822 8.87552 2.40155C8.72985 2.35652 8.43182 2.36152 8.33638 2.50495C8.33303 2.41156 8.20745 2.43991 8.1455 2.46993C8.12541 2.47993 8.09695 2.57333 8.07686 2.53831C8.07016 2.52663 8.0936 2.47493 8.05341 2.46826C7.96467 2.45158 7.79557 2.47827 7.71018 2.47326C7.64153 2.46993 7.54776 2.37653 7.48414 2.4349L7.41382 2.36653C7.25141 2.41156 7.17271 2.26979 7.24136 2.50495C7.22964 2.50495 7.21792 2.50495 7.2062 2.50495C7.16434 2.50328 7.12248 2.47827 7.06723 2.50495L7.17104 2.36653C7.0689 2.37486 6.97179 2.31983 6.945 2.43657C6.86128 2.24144 6.64529 2.38821 6.52809 2.39655C6.48791 2.39988 6.44437 2.36986 6.40586 2.36653C6.27024 2.35152 6.37238 2.40989 6.36568 2.45325C6.35396 2.53497 6.27359 2.47326 6.23173 2.46993C6.13629 2.29981 6.07434 2.36819 5.95379 2.4349C5.92198 2.45158 5.85333 2.46492 5.84998 2.46993C5.76124 2.43657 5.56032 2.2748 5.57204 2.4349H5.53856C5.56869 2.32316 5.33261 2.37653 5.25894 2.39988C5.25392 2.39154 5.26396 2.3732 5.25894 2.36486C5.23717 2.33484 5.25057 2.3215 5.18862 2.32983C5.18025 2.32983 5.15011 2.36152 5.1049 2.36653C4.91737 2.38154 4.89393 2.42156 4.80687 2.4349C4.79515 2.43657 4.78343 2.43324 4.77171 2.4349C4.71143 2.35485 4.60092 2.4249 4.52893 2.4349L4.56409 2.50328L4.36819 2.53664C4.36819 2.53664 4.35982 2.53164 4.35647 2.5283C4.35982 2.43824 4.37321 2.43824 4.28615 2.4349C4.15388 2.43157 3.87761 2.54831 3.83408 2.53831C3.94458 2.39154 3.76208 2.44158 3.67836 2.39988L3.73027 2.53831C3.71855 2.54998 3.7085 2.56332 3.69511 2.57333C3.60302 2.36152 3.41047 2.60502 3.382 2.39988L3.34684 2.50328C3.24973 2.53164 3.28322 2.44158 3.24471 2.41823C3.21959 2.40322 3.11913 2.44324 3.08565 2.36486C3.02872 2.38654 3.06723 2.45659 3.05886 2.46159C3.04211 2.47493 3.00193 2.46159 2.99858 2.46659C2.97681 2.46993 2.94835 2.46159 2.92826 2.46659C2.92491 2.4349 2.94668 2.40655 2.90649 2.39655C2.83617 2.37987 2.56325 2.36986 2.61516 2.46659C2.55823 2.45825 2.3121 2.38487 2.30205 2.39655C2.27359 2.42823 2.36735 2.45325 2.23173 2.49995C2.16308 2.39154 2.01072 2.58167 1.98895 2.56833C1.98226 2.56499 1.94375 2.45325 1.91026 2.44158C1.8751 2.4299 1.68925 2.39821 1.65241 2.39821C1.5486 2.39821 1.51511 2.48327 1.44479 2.49161C1.38117 2.49828 1.30582 2.44491 1.23885 2.44658C1.16685 2.44658 1.09318 2.51496 1.01281 2.49995L0.977651 2.43157C0.965931 2.43157 0.95421 2.43157 0.94249 2.43157C0.875516 2.41156 0.793474 2.43157 0.838681 2.50162C0.875516 2.61002 1.00444 2.61669 0.80352 2.65672L0.800171 2.66673ZM10.1748 5.18841C10.1748 5.18841 10.1681 5.20342 10.1597 5.21176C10.1664 5.20342 10.1715 5.19508 10.1748 5.18841ZM8.14048 7.64004C8.15388 7.64004 8.16225 7.64004 8.16894 7.64004C8.15722 7.64004 8.1455 7.64171 8.14048 7.64004ZM6.6972 5.73377C6.70222 5.73377 6.70724 5.73377 6.71227 5.73377H6.69552H6.6972ZM7.47912 5.91556C7.47912 5.91556 7.47577 5.91222 7.47242 5.91055C7.47577 5.91055 7.47744 5.91222 7.47912 5.91556ZM7.55781 4.93991C7.55781 4.93991 7.55111 4.93824 7.54944 4.93657C7.55279 4.93657 7.55446 4.93824 7.55781 4.93991ZM7.96635 3.89755C7.96635 3.89755 7.97305 3.89755 7.97807 3.89755H7.96635ZM5.88682 4.74645C5.88682 4.74645 5.88347 4.74144 5.88347 4.73977C5.88347 4.73644 5.88179 4.7331 5.88012 4.72977C5.88347 4.73644 5.88682 4.74144 5.88682 4.74645ZM7.40879 6.6744C7.3954 6.6744 7.38535 6.6744 7.37531 6.67106C7.38703 6.67106 7.39707 6.67273 7.40879 6.6744ZM5.02621 3.86252C5.02621 3.86252 5.01449 3.86252 5.00946 3.86252H5.02621ZM9.39289 4.27446V4.2778C9.39289 4.2778 9.39289 4.2778 9.39121 4.2778C9.39121 4.2778 9.39121 4.27613 9.39289 4.27446ZM9.81147 5.075C9.81147 5.075 9.81147 5.07333 9.81147 5.07166C9.81147 5.07166 9.81482 5.07333 9.8165 5.075H9.81147ZM4.69804 5.66206C4.69804 5.66206 4.70138 5.66706 4.70138 5.67373C4.69971 5.68207 4.69804 5.69041 4.69636 5.70042C4.69636 5.68707 4.69636 5.67373 4.69636 5.66206H4.69804ZM7.72357 8.19541C7.72357 8.19541 7.73529 8.19541 7.74031 8.19541H7.72357ZM2.83617 2.51162H2.85291C2.85291 2.51162 2.84287 2.51162 2.83617 2.51162ZM1.49502 2.58H1.45986C1.46991 2.57833 1.4833 2.58 1.49502 2.58Z" fill="#20293F"/>
<path d="M5.32255 6.96465C5.3912 7.10475 5.50505 7.02469 5.49668 6.87793C5.47491 6.89628 5.29576 6.90795 5.32255 6.96465Z" fill="#20293F"/>
<path d="M7.09766 8.26394C7.10435 8.28562 7.13114 8.31564 7.13282 8.33399L7.27179 8.28229C7.20816 8.18389 7.14956 8.26061 7.09766 8.26561V8.26394Z" fill="#20293F"/>
<path d="M4.69659 7.6418C4.69659 7.6418 4.56934 7.59844 4.55762 7.60678L4.59278 7.7452L4.69659 7.71018C4.69491 7.6885 4.70161 7.64847 4.69659 7.6418Z" fill="#20293F"/>
<path d="M6.08806 8.57581C6.06629 8.50243 5.97253 8.50577 5.91393 8.47241C5.90388 8.57915 6.00099 8.58415 6.08806 8.57581Z" fill="#20293F"/>
<path d="M4.27942 7.32813C4.25598 7.34981 4.32295 7.4332 4.31458 7.46656C4.46025 7.42319 4.32463 7.28477 4.27942 7.32813Z" fill="#20293F"/>
<path d="M9.60222 7.29315C9.63571 7.3265 9.74119 7.23144 9.70603 7.18975C9.70101 7.18307 9.54864 7.23978 9.60222 7.29315Z" fill="#20293F"/>
<path d="M6.22673 7.46826H6.15808V7.57166H6.22673V7.46826Z" fill="#20293F"/>
<path d="M4.93919 7.71021H4.73157V7.74356H4.93919V7.71021Z" fill="#20293F"/>
<path d="M6.22672 14.6413H6.36569V14.5729C6.34727 14.5546 6.18486 14.623 6.22672 14.6413Z" fill="#20293F"/>
<path d="M0.80022 2.75355L0.765059 2.65015L0.696411 2.72019C0.696411 2.73187 0.696411 2.74354 0.696411 2.75522C0.731572 2.75688 0.766733 2.75522 0.80022 2.75522V2.75355Z" fill="#20293F"/>
</g>
<defs>
<clipPath id="clip0_61_4200">
<rect width="16" height="15" fill="white"/>
</clipPath>
</defs>
</svg>
