<svg width="17" height="15" viewBox="0 0 17 15" fill="none" xmlns="http://www.w3.org/2000/svg">
<g clip-path="url(#clip0_61_4251)">
<path d="M17 12.6884C16.9802 12.6349 16.9667 12.5804 16.9594 12.5237C16.9688 12.3989 16.9459 12.3118 16.9189 12.1943C16.9574 12.1156 16.9335 12.0704 16.9064 12.061C16.9345 12.0295 16.9532 11.9897 16.9594 11.9477C16.9594 11.934 16.9594 11.9204 16.9594 11.9068C16.9875 11.8407 16.9355 11.762 16.8784 11.8239L16.9189 11.741C16.9075 11.7189 16.8784 11.6749 16.8784 11.6581C16.7921 11.6486 16.7869 11.6528 16.7973 11.741C16.7713 11.7315 16.7401 11.6801 16.7162 11.6581C16.7162 11.6308 16.7173 11.6025 16.7162 11.5752C16.8701 11.5563 16.9064 11.4189 16.7162 11.4514C16.7142 11.4346 16.6799 11.294 16.6757 11.2867C16.6528 11.2164 16.709 11.1114 16.7006 11.0579C16.6944 11.0149 16.3992 10.6634 16.7578 10.7505C16.7578 10.7369 16.7578 10.7232 16.7578 10.7096C16.7297 10.6172 16.7152 10.5207 16.7173 10.421C16.7173 10.3948 16.7214 10.3633 16.7173 10.3381C16.7131 10.314 16.6851 10.2825 16.6767 10.2553C16.7152 10.272 16.7204 10.2532 16.7173 10.2143C16.7173 10.2007 16.7183 10.187 16.7173 10.1734C16.6913 10.1514 16.6632 10.1052 16.6362 10.0905C16.6362 10.0632 16.6362 10.036 16.6362 10.0076C16.632 9.84395 16.5198 9.86598 16.5302 9.78204C16.5354 9.74112 16.5967 9.66558 16.6113 9.58793C16.6404 9.42845 16.4689 9.29309 16.3514 9.43054C16.3452 9.43789 16.3576 9.46097 16.3514 9.47147C16.3389 9.49245 16.3119 9.50924 16.3109 9.51239C16.0968 9.39067 16.3504 9.36864 16.3514 9.32667C16.3192 9.27736 16.2381 9.26267 16.2069 9.22279C16.1903 9.20076 16.2298 9.18502 16.2298 9.18292H16.2703C16.2839 9.18397 16.2974 9.18082 16.3109 9.18292C16.4159 9.39382 16.5198 9.25637 16.5967 9.10003C16.5915 9.08849 16.6029 9.06646 16.5967 9.05911C16.5801 9.04023 16.499 9.03918 16.4709 8.99091C16.4273 8.91642 16.4418 8.80519 16.421 8.71916C16.4096 8.67299 16.3576 8.63417 16.3514 8.60584C16.6684 8.59325 16.6061 8.29631 16.3919 8.19349C16.3961 8.18194 16.3878 8.16411 16.3919 8.15256C16.4294 8.13997 16.499 8.1704 16.5375 8.11269C16.5676 8.06758 16.4439 7.95531 16.5957 7.90599H16.6362C16.6466 7.74126 16.7038 7.60801 16.7173 7.49364C16.5177 7.36248 16.8638 7.25651 16.6362 7.04037C16.6289 7.03407 16.6019 7.04771 16.5957 7.04037C16.5977 7.02882 16.5988 7.01728 16.5998 7.00574C16.6248 6.93124 16.7422 6.88927 16.7495 6.85675C16.7547 6.83366 16.7183 6.80534 16.7183 6.79379C16.7183 6.76756 16.7235 6.73084 16.7183 6.7109C16.7017 6.65319 16.5842 6.51469 16.5957 6.50525C16.6102 6.49266 16.6965 6.52414 16.7183 6.46328C16.7297 6.4318 16.6944 6.372 16.6778 6.33947C16.7017 6.29435 16.7038 6.25448 16.7183 6.21566C16.789 6.03729 16.7485 6.00686 16.7588 5.8862C16.7609 5.85892 16.7568 5.83059 16.7588 5.80331C16.7921 5.33324 16.7713 5.01952 16.7588 4.5673C16.7588 4.55366 16.7588 4.54002 16.7588 4.52638C16.7568 4.44873 16.7557 4.31548 16.7588 4.23783C16.7588 4.22209 16.7464 4.23364 16.7588 4.15494C16.8389 4.15075 16.8212 4.01749 16.8056 3.94614C16.7297 3.9388 16.7277 3.89893 16.7994 3.82548C16.7911 3.75938 16.7672 3.69328 16.7588 3.61983C16.7973 3.55897 16.7973 3.517 16.7588 3.49602C16.7557 3.46874 16.7599 3.44041 16.7588 3.41313C16.7464 3.18124 16.6757 3.15606 16.6747 3.14032C16.6705 3.09206 16.7142 3.04484 16.7152 3.01861C16.7152 2.99972 16.5759 3.00707 16.6383 2.91893C16.6476 2.90529 16.7412 2.95146 16.7183 2.85703C16.709 2.81611 16.5936 2.81191 16.5551 2.79512C16.5822 2.63878 16.6778 2.74686 16.7131 2.64613C16.7401 2.56849 16.7121 2.39956 16.7183 2.30093C16.7204 2.2726 16.7588 2.18026 16.7588 2.1362C16.7744 2.17187 16.7879 2.17187 16.7994 2.1362C16.7994 2.10892 16.7994 2.08164 16.7994 2.05331C16.764 1.86234 16.7703 1.66718 16.7994 1.47622C16.7983 1.46258 16.8004 1.44894 16.7994 1.4353C16.8472 1.17089 16.8056 1.06177 16.6767 1.10584C16.6892 1.08276 16.6705 1.04813 16.7152 1.00721C16.7256 0.997766 16.9262 0.945304 16.9626 0.941107C16.9678 0.787918 16.9262 0.765883 16.8815 0.652565C16.7724 0.485735 16.6643 0.321004 16.5551 0.158371C16.5416 0.143681 16.526 0.134238 16.5146 0.11745C16.4314 0.0377077 16.2558 0.069185 16.3109 0.200341C16.2901 0.217129 16.2755 0.274837 16.2288 0.283231C16.1591 0.216079 16.1581 0.234966 16.1061 0.200341C16.0905 0.189848 16.0781 0.165716 16.0656 0.15942C16.0105 0.130041 15.9284 0.0628896 15.8619 0.0765298C15.8317 0.0828252 15.8068 0.147878 15.7735 0.183553C15.7558 0.190897 15.7403 0.199291 15.7267 0.206636C15.7184 0.206636 15.7101 0.202439 15.7008 0.196144C15.6956 0.192996 15.7049 0.120598 15.6727 0.114303C15.6145 0.10381 15.548 0.152075 15.5054 0.146829C15.3827 0.13214 15.2195 -0.0304932 15.1676 0.199291C15.1468 0.167814 15.1343 0.11745 15.0865 0.116401C15.1094 0.189848 15.0605 0.233916 15.0449 0.281132C14.9399 0.27064 14.8984 0.200341 14.8412 0.157322C14.7518 0.0912192 14.7341 0.0198706 14.6988 0.157322C14.6177 -0.0420349 14.5585 0.069185 14.4275 0.0513479C14.3454 0.0398062 14.2467 -0.00216358 14.1885 -0.0074098C14.175 -0.00845905 14.1615 -0.00636056 14.1479 -0.0074098C14.0606 -0.0147545 13.9702 -0.00426207 13.8829 -0.0074098L13.8621 0.0335107C13.8091 0.0335107 13.6334 0.0230183 13.6168 0.0335107C13.6064 0.0408554 13.6813 0.183553 13.4942 0.198242C13.4973 0.157322 13.4942 0.115352 13.4942 0.0744313C13.4859 0.0670865 13.2769 0.0838745 13.2666 0.0891207C13.1772 0.134238 13.253 0.28428 13.1065 0.115352L13.0462 0.280083H12.9651C12.9672 0.266443 12.9475 0.229719 12.9246 0.239163C12.9579 0.222375 13.0556 0.175159 12.9662 0.135287C12.8362 0.077579 12.7417 0.226572 12.7614 0.0744313C12.6897 0.0660373 12.7385 0.149977 12.6803 0.197193C12.6648 0.209784 12.5858 0.209784 12.5577 0.238113C12.5556 0.233916 12.5296 0.240212 12.5172 0.238113C12.5483 0.106958 12.3592 0.115352 12.3945 0.238113C12.3862 0.233916 12.3685 0.238113 12.354 0.238113V0.197193C12.2438 0.180405 12.011 0.0670866 11.9247 0.069185C11.801 0.0723328 11.7719 0.200341 11.5994 0.0723328C11.5651 0.0681358 11.5713 0.140534 11.5786 0.155223C11.5526 0.155223 11.5162 0.149977 11.4975 0.155223C11.5838 -0.0304932 11.4071 0.0586926 11.2938 0.114303C11.2772 0.0975147 11.2335 0.0901699 11.2127 0.073382C11.1899 0.0544956 11.14 -0.00636056 11.1317 -0.00950829C11.1223 -0.012656 11.1026 -0.0105575 11.0911 -0.00950829C11.0589 -0.00636056 11.007 0.0366585 10.9093 0.0356092C10.743 0.03456 10.6037 -0.0923986 10.6421 0.113253L10.5611 0.154174C10.5611 0.154174 10.5195 0.188799 10.48 0.195094C10.2014 0.240212 10.3158 0.350383 10.0726 0.400746L9.94991 0.29792L10.0726 0.154174C9.98213 0.113253 9.77737 0.202439 9.72852 0.190897C9.63394 0.168863 9.74827 0.0114766 9.54247 0.030363C9.52896 0.0314122 9.51545 0.030363 9.50194 0.030363C9.41047 -0.00111434 9.30757 -0.00216358 9.21611 0.030363C9.18909 0.0293138 9.16206 0.030363 9.13504 0.030363C9.0997 0.0461017 9.0997 0.0597418 9.13504 0.0712835C9.12465 0.0996131 9.10386 0.125844 9.0945 0.154174C9.06332 0.157322 9.04357 0.157322 9.0311 0.155223C9.0259 0.153125 9.02175 0.149977 9.01655 0.146829C9.00823 0.130041 9.0415 0.0933177 9.05293 0.030363L8.76814 0.112204C8.75463 0.114303 8.73904 0.109056 8.7276 0.112204C8.79724 0.0618403 8.75671 0.0482002 8.68707 0.0293138C8.67356 0.0293138 8.66005 0.0293138 8.64653 0.0293138C8.56858 -0.00531132 8.46776 -0.0315424 8.40228 0.0293138C8.36174 0.0293138 8.32017 0.0293138 8.27963 0.0293138C8.17258 0.0272153 8.08423 -0.00950829 8.03538 -0.0116068C7.86596 -0.00216358 7.70278 -0.00216358 7.54584 -0.0116068C7.51985 -0.0158038 7.49075 -0.00845905 7.46477 -0.0116068C7.42943 0.00413189 7.42943 0.0177721 7.46477 0.0293138L7.42423 0.194045C7.4024 0.168863 7.19765 0.0744313 7.15607 0.0712835C7.01783 0.0618403 6.87232 0.197193 6.79333 0.196144C6.76942 0.196144 6.79333 0.121647 6.68939 0.111155C6.75591 0.0670866 6.71434 -0.0095083 6.64886 0.0282645C6.63534 0.026166 6.62079 0.030363 6.60832 0.0282645C6.51374 -0.00845905 6.53556 0.116401 6.50646 0.111155C6.46697 0.10381 6.5075 0.0377077 6.45969 0.026166C6.42019 0.0167228 5.86101 0.0293138 5.79761 0.0366585C5.72485 0.0450524 5.71342 0.0146243 5.67081 0.110106C5.34236 0.0943669 5.49203 0.122697 5.31326 0.188799C5.21556 0.225522 5.07628 0.211882 4.97754 0.274837C4.9817 0.10381 5.11994 0.274837 5.10019 0.110106C4.8892 0.0954162 4.68756 0.174109 4.488 0.233916C4.61792 0.0597418 4.40277 0.119549 4.30507 0.0681358L4.36535 0.233916C4.34976 0.24231 4.33833 0.267492 4.32482 0.274837C4.28532 0.232867 4.25518 0.180405 4.20217 0.151026C4.09927 0.0933177 4.09304 0.151026 4.02548 0.136337C3.90075 0.110106 3.86853 0.102761 3.73549 0.0880714C3.65858 0.0796775 3.52242 -0.0892509 3.54944 0.151026C3.53801 0.141583 3.4954 0.126893 3.46837 0.110106C3.4268 0.0838745 3.38626 0.0555449 3.34573 0.0272153C3.31974 0.0314122 3.28752 0.021969 3.26465 0.0272153C3.04119 0.0954162 2.91127 0.125844 2.67845 0.0555449C2.65974 0.110106 2.63791 0.155223 2.61193 0.191947L2.58698 0.157322C2.54853 0.146829 2.51423 0.18775 2.49032 0.191947C2.26997 0.0933177 2.04547 0.0523971 1.81473 0.0681358L1.79602 0.109056C1.78355 0.113253 1.76692 0.104859 1.75548 0.109056C1.54761 0.0996131 1.34389 0.0996131 1.14329 0.109056C1.12354 0.121647 1.10691 0.148928 1.10276 0.149977V0.190897C0.958284 0.170962 1.05079 0.259098 1.06222 0.355629L0.939575 0.376614C1.1277 0.468947 1.06846 0.556034 1.14329 0.686141C1.18695 0.760637 1.21293 0.750145 1.24411 0.758539C1.25035 0.761686 1.25762 0.765883 1.26594 0.767982C1.29088 0.783721 1.3231 0.792114 1.34701 0.808902C1.37507 0.850872 1.49668 1.06912 1.50915 1.07856C1.52474 1.09115 1.70351 1.07331 1.75444 1.17929V1.26218C1.71703 1.23804 1.67441 1.23175 1.6318 1.22126V1.26218C1.6318 1.27582 1.6318 1.28946 1.6318 1.3031C1.67129 1.30834 1.71807 1.29575 1.75444 1.3031C1.7981 1.31149 1.88541 1.39123 1.91763 1.3031C1.92698 1.31779 1.94777 1.32933 1.95816 1.34402C2.00182 1.40802 1.9883 1.45943 2.08081 1.50875L1.97895 1.59164C2.02364 1.66089 2.11511 1.59584 2.165 1.61472C2.17955 1.61997 2.38534 1.7784 2.40821 1.79729C2.45914 1.84136 2.52878 1.90956 2.57139 1.96202C2.61816 2.02078 2.68468 2.19705 2.69404 2.20964C2.71275 2.23483 2.77095 2.16872 2.77511 2.16872C2.83331 2.16138 2.84994 2.20859 2.85618 2.20964C2.89672 2.21909 3.04431 2.25266 3.05366 2.25791C3.08276 2.27575 3.11706 2.52337 3.26465 2.49819L3.71366 2.95146C3.83111 3.22112 3.86541 3.14347 4.04003 3.28092C4.19178 3.40054 4.16683 3.47084 4.36639 3.52854C4.37575 3.57366 4.42979 3.5894 4.44746 3.61143C4.45266 3.61773 4.43603 3.66495 4.45786 3.68173C4.51294 3.72475 4.69587 3.78876 4.77383 3.81709C4.77798 3.82968 4.76967 3.84542 4.77383 3.85801C4.85594 4.11927 4.90167 3.99231 4.96819 4.0731C5.00353 4.11612 4.97339 4.21265 5.05965 4.26931C5.0742 4.27875 5.36835 4.38892 5.38602 4.39312C5.39849 4.39627 5.41304 4.39312 5.42655 4.39312C5.4858 4.54002 5.59701 4.59143 5.71238 4.68166C5.8527 4.79183 5.96079 4.89256 6.16139 4.92929C6.19257 4.9744 6.22375 4.98804 6.2435 5.01218C6.3464 5.14123 6.44514 5.27029 6.6104 5.34164C6.6156 5.35108 6.6052 5.36997 6.6104 5.38256C6.57298 5.40669 6.47632 5.45496 6.52933 5.50637C6.56571 5.54204 6.64158 5.46755 6.65197 5.46545C6.67588 5.4602 6.70706 5.46965 6.73305 5.46545C6.74448 5.54204 6.83179 5.52945 6.85569 5.54834C6.89519 5.57877 6.91701 5.68579 7.01887 5.67215C7.12073 5.83793 7.16127 5.84318 7.3047 5.96069C7.19141 5.96699 7.17894 5.91348 7.20076 6.04568C7.25377 6.3636 7.31302 6.12333 7.41903 6.17369C7.42735 6.17789 7.42839 6.23664 7.45437 6.25028C7.55831 6.30484 7.66329 6.24084 7.63106 6.41397H7.67056C7.67056 6.38669 7.68927 6.33842 7.71214 6.33213C7.77034 6.31534 8.00524 6.38773 8.07903 6.41502C8.01667 6.54302 8.08631 6.62906 7.91585 6.53883C7.88363 6.6511 8.00004 6.61857 8.05825 6.70356C8.08735 6.55666 8.16842 6.67943 8.28275 6.70356C8.27859 6.72244 8.26093 6.74238 8.24222 6.74448C8.19545 6.74868 7.98445 6.72769 8.07903 6.82632C8.09151 6.83891 8.17985 6.81478 8.20168 6.82632C8.22455 6.83891 8.22663 6.95223 8.263 6.95013C8.27444 6.88823 8.4054 6.7875 8.44593 6.82632C8.4979 6.87668 8.32329 6.98161 8.32329 7.03197C8.32433 7.11171 8.43242 7.13165 8.48647 7.07289C8.49374 7.08758 8.474 7.13899 8.48855 7.15054C8.51973 7.17572 8.67252 7.14319 8.73072 7.15473C8.77022 7.02673 8.66836 7.10962 8.64965 7.09073C8.48751 6.93334 8.71825 6.9302 8.85337 6.94908L8.73176 7.03092L8.93548 7.07289L8.89494 7.19565C8.98121 7.19356 9.05605 7.14739 9.1392 7.1306C9.1974 7.11906 9.40943 7.18306 9.18077 7.05191L9.4666 6.90711C9.47388 6.9239 9.4614 6.96377 9.4666 6.98895H9.50609C9.5009 6.9281 9.52792 6.87878 9.54767 6.82422C9.57781 6.73923 9.74931 6.62382 9.8231 6.52519C9.84389 6.49791 9.82934 6.47482 9.83246 6.45279C9.83454 6.4402 9.83246 6.42446 9.83246 6.41187C9.87923 6.38144 9.9551 6.36255 9.99564 6.32898C10.1214 6.39613 10.2243 6.36046 10.296 6.24504C10.3293 6.19153 10.2513 6.16844 10.2399 6.12333C10.2919 6.08031 10.5611 5.85577 10.5663 5.83478C10.587 5.82639 10.6037 5.81695 10.6172 5.8054C10.6577 5.79701 10.6889 5.82534 10.7294 5.83478C10.7887 5.84737 10.8646 5.79596 10.8521 5.91662H10.8916C10.8895 5.87675 10.8957 5.83373 10.8916 5.79386C11.1556 5.8075 11.0683 5.74455 10.9321 5.62913C11.1629 5.66166 11.2502 5.55778 11.0548 5.42243C11.0631 5.41194 11.0548 5.38885 11.0537 5.36892C11.0776 5.36262 11.1057 5.35423 11.1369 5.33954C11.1535 5.34059 11.2273 5.27554 11.2554 5.30177C11.2741 5.31855 11.2294 5.3983 11.299 5.38046C11.2159 5.02372 11.4736 5.11395 11.5443 5.051C11.5485 5.0468 11.4996 4.97545 11.5235 4.92719C11.5433 4.91355 11.5641 4.89991 11.5848 4.88732C11.7023 4.95866 11.7044 4.86843 11.748 4.7635C11.7678 4.75721 11.7834 4.75196 11.7969 4.74567C11.854 4.73832 11.9133 4.76665 11.9517 4.7635C12.0349 4.75616 12.1128 4.72783 12.196 4.72153C12.2085 4.70999 12.1253 4.64284 12.1191 4.59667C12.1295 4.58828 12.1419 4.57569 12.1555 4.55785C12.1794 4.5631 12.2116 4.55366 12.2365 4.55785C12.2791 4.5652 12.3186 4.58199 12.3581 4.59982L12.3997 4.45608L12.2365 4.51798C12.17 4.47601 12.2313 4.45503 12.2365 4.43509L12.4402 4.35325L12.5016 4.5589C12.539 4.54002 12.539 4.47496 12.5629 4.43509C12.5722 4.41935 12.5982 4.40676 12.6034 4.39417C12.7063 4.16229 12.5057 4.24203 12.4787 4.04162C12.4704 3.97867 12.5276 3.97133 12.5619 3.94195C12.593 3.91467 12.6564 3.90627 12.672 3.88948C12.6959 3.86115 12.6803 3.82443 12.6845 3.81918C12.7365 3.75308 12.8186 3.66809 12.7656 3.61353C12.804 3.61668 13.042 3.66495 13.0483 3.65235C13.0618 3.62717 13.0368 3.55058 13.0524 3.53484C13.0763 3.51071 13.199 3.54533 13.2135 3.53169C13.2873 3.46139 13.1605 3.35962 13.0504 3.40788C13.068 3.31345 13.2811 3.28827 13.2946 3.22112C13.305 3.17075 13.2021 3.10885 13.2135 3.0375C13.3944 3.01337 13.3798 2.91054 13.3965 2.91369C13.4453 2.92523 13.5784 3.07842 13.621 3.0375C13.57 2.91579 13.7831 2.83604 13.7842 2.81086C13.7842 2.80142 13.6917 2.73951 13.7031 2.6881C13.7093 2.65872 13.9359 2.52127 13.9858 2.47615C14.0388 2.42789 14.045 2.36388 14.07 2.3366C14.0783 2.32821 14.1084 2.29673 14.1105 2.29568C14.1209 2.29253 14.1375 2.29568 14.1511 2.29568C14.2467 2.29044 14.4119 2.30408 14.518 2.26735C14.5554 2.25476 14.6707 2.2002 14.6811 2.17187C14.6915 2.14459 14.6739 2.08373 14.6811 2.04806C14.6946 2.04911 14.7082 2.04701 14.7217 2.04806C14.73 2.04806 14.7643 2.08583 14.8027 2.08898C14.8246 2.16243 14.9451 2.17922 14.9628 2.24007C14.9774 2.28939 14.9212 2.37123 14.9254 2.37752C14.9576 2.42684 15.1946 2.37752 15.2757 2.4132C15.391 2.46251 15.3474 2.50448 15.3744 2.54225C15.3661 2.56534 15.3619 2.58527 15.3609 2.60206C15.2632 2.64403 15.3058 2.71013 15.2809 2.79617C15.2684 2.83814 15.2258 2.87277 15.2175 2.90634C15.2019 2.97035 15.2507 2.98713 15.2518 2.99553C15.2549 3.02176 15.2455 3.05953 15.2518 3.07842C15.1218 3.10675 15.02 3.25469 15.1904 3.28407L15.2923 3.16026C15.3172 3.19069 15.3318 3.20538 15.3744 3.20118C15.3661 3.2484 15.3391 3.29141 15.3339 3.32499C15.2528 3.32814 15.2019 3.37745 15.1707 3.4488C15.1146 3.44146 14.7778 3.517 14.7622 3.53169C14.7435 3.54953 14.7934 3.69432 14.8038 3.73734C14.7892 3.74889 14.7695 3.77617 14.7632 3.77826C14.7508 3.78246 14.7331 3.77302 14.7227 3.77826C14.7071 3.78561 14.6604 3.76567 14.6281 3.77826C14.5969 3.79085 14.6021 3.86011 14.5751 3.86325C14.5263 3.8685 14.413 3.80135 14.3974 3.81918C14.3912 3.82653 14.4036 3.9325 14.3776 3.98392C14.3402 4.05841 14.2363 4.03428 14.2342 4.10668C14.2498 4.06366 14.6593 4.02484 14.519 4.14865C14.5034 4.16229 14.441 4.09094 14.3953 4.12347C14.3589 4.1497 14.3652 4.22209 14.3558 4.23049C14.335 4.24937 14.1854 4.24518 14.1521 4.31338C14.1323 4.31128 14.0804 4.30918 14.071 4.31338C14.0128 4.34066 14.0398 4.42565 14.0294 4.43719C14.017 4.45188 13.8715 4.31862 13.9078 4.47811C14.0398 4.52638 14.0741 4.4162 14.1116 4.39627C14.1469 4.37738 14.1698 4.35325 14.2082 4.35325C14.2155 4.35325 14.2238 4.35535 14.2332 4.35535L14.2737 4.52008C14.202 4.55995 13.9806 4.625 13.9473 4.68481C13.9369 4.7037 13.9567 4.7656 13.9255 4.79603C13.9193 4.79813 13.913 4.80233 13.9068 4.80757C13.8829 4.79288 13.8465 4.76246 13.8257 4.76665C13.8081 4.77085 13.7914 4.82856 13.7727 4.83485C13.7052 4.85899 13.6813 4.83066 13.622 4.89046H13.8257C13.8382 5.01323 13.728 5.02582 13.622 5.01427V4.89046C13.5524 4.95971 13.6012 4.99329 13.5711 5.0447C13.5524 5.07618 13.3383 5.1874 13.3071 5.23252C13.2115 5.37102 13.3601 5.44446 13.1314 5.46755C13.0815 5.19579 13.2031 5.29337 13.2426 5.2535C13.2676 5.22832 13.2634 5.14123 13.2946 5.09716C13.1938 5.06883 13.2031 5.18215 13.1595 5.20943C13.0992 5.24826 13.0431 5.16327 13.0493 5.34374H12.9267C13.0213 5.43082 12.9651 5.4665 12.9672 5.50847L12.8789 5.65117C12.8695 5.65746 12.8612 5.66376 12.8529 5.67005C12.7947 5.65431 12.7531 5.55254 12.7448 5.55359C12.5837 5.56513 12.619 5.65536 12.5743 5.70887C12.5151 5.78022 12.5265 5.7456 12.4777 5.83793C12.4725 5.84842 12.4829 5.86731 12.4777 5.87885C12.2875 5.89459 12.3425 6.0226 12.3145 6.12647C12.3041 6.1653 12.2802 6.21776 12.2739 6.25028C12.2147 6.40347 12.1409 6.27861 12.0546 6.28911C12.0307 6.29225 12.0307 6.35311 12.0162 6.36045C11.8353 6.4381 11.7719 6.40242 11.7023 6.62172C11.6961 6.6427 11.7064 6.67838 11.7023 6.70461C11.5661 6.713 11.4851 6.84626 11.3978 6.93544L11.1306 7.11696C11.1182 7.0666 11.1005 7.05296 11.1306 6.9942C11.0038 6.91655 11.0672 7.23028 11.008 7.32366C10.9945 7.32156 10.9799 7.32576 10.9675 7.32366C10.8573 7.30373 10.6401 7.1967 10.6213 7.19985C10.4769 7.22608 10.6484 7.39606 10.6411 7.4055C10.6349 7.41285 10.5205 7.46531 10.4779 7.48839C10.4031 7.52826 10.3729 7.42859 10.3147 7.6122C10.2856 7.70244 10.3428 7.77169 10.3553 7.90075C10.2783 7.97839 10.2368 8.01092 10.1515 8.1064C10.0913 8.1746 10.0632 8.24805 9.95303 8.23021C9.95303 8.22077 9.95095 8.21027 9.94887 8.19978C9.94887 8.19558 9.94887 8.19139 9.94783 8.18929C9.8574 8.04869 9.81063 8.23231 9.77217 8.25959C9.74515 8.27847 9.70877 8.26798 9.70358 8.27218C9.75347 8.21447 9.62874 8.14732 9.58093 8.14837L9.56014 8.10745C9.46452 8.09905 9.44477 8.09171 9.45828 8.18929C9.45101 8.19454 9.46244 8.24909 9.45828 8.27218C9.40632 8.27742 9.36266 8.30995 9.33564 8.3131C9.23274 8.32674 9.09346 8.33513 9.00927 8.39599C8.99576 8.39179 8.98017 8.35717 8.96874 8.35507V8.31415C8.96874 8.31415 8.95731 8.22811 8.99161 8.22916L9.13192 8.27218L9.09035 8.10745C9.07475 8.09066 8.89494 8.21552 8.85649 8.22182C8.84194 8.22496 8.59249 8.23126 8.56131 8.23126C8.48335 8.23126 8.43138 8.18929 8.35759 8.19034L8.43866 8.3131H8.23494L8.27548 8.39599V8.43691C8.2682 8.43691 8.24637 8.47678 8.21311 8.47678C8.10814 8.47783 8.04162 8.31205 7.98965 8.23126C7.98029 8.21657 7.95743 8.20608 7.94911 8.19034C7.92833 8.15152 7.88155 8.06233 7.867 8.02561C7.85661 7.99937 7.87428 7.93852 7.867 7.90179C7.78489 7.86927 7.71006 8.02561 7.68407 8.02456C7.6664 8.02456 7.62483 7.94377 7.58325 7.92698C7.55519 7.91544 7.51777 7.93327 7.48867 7.92488C7.42423 7.90809 7.37746 7.80317 7.33796 7.94167C7.33484 7.95321 7.339 7.96895 7.33796 7.98259C7.02303 7.94691 7.20908 7.73916 7.17478 7.69405C7.16646 7.6825 7.11138 7.70244 7.09371 7.69405C7.08539 7.6888 7.07812 7.68565 7.07084 7.68145C6.95651 7.60696 6.80061 7.35619 6.80892 7.24182C6.80892 7.22818 6.8058 7.203 6.80892 7.2009C6.82347 7.19146 6.88168 7.21139 6.88999 7.2009C6.94924 7.12955 6.78501 7.08129 6.72681 7.03617C6.70498 7.01938 6.69459 6.94908 6.64574 6.95328C6.71745 7.11801 6.38901 7.12116 6.2778 7.07709C6.29131 7.06345 6.30378 7.04771 6.31834 7.03617C6.3412 7.01833 6.35679 6.96797 6.38797 6.95328C6.46489 6.91655 6.58857 6.94174 6.60312 6.87144C6.5023 6.9218 6.37654 6.80429 6.33704 6.80219C6.30586 6.80114 6.26325 6.86514 6.23623 6.87039C6.02315 6.91236 6.09591 6.8494 6.07304 6.74658C6.02835 6.55037 5.96495 6.67523 5.91714 6.65214C5.90674 6.6469 5.93481 6.61752 5.82775 6.58185C5.78929 6.56925 5.7394 6.54932 5.7051 6.54093C5.73213 6.50525 5.73005 6.45279 5.74564 6.41711C5.74668 6.41397 5.79345 6.42236 5.78618 6.37619H5.54192C5.53361 6.3678 5.54192 6.32373 5.50139 6.2933C5.49619 6.28911 5.3829 6.24714 5.37874 6.25238L5.33821 6.27337C5.28936 6.44859 5.52633 6.54407 5.41928 6.37619C5.43487 6.38459 5.47644 6.37095 5.50035 6.37619C5.51282 6.43075 5.54608 6.48112 5.54088 6.54093H5.17398C5.17398 6.54093 5.14072 6.50525 5.13345 6.5C5.11786 6.30799 5.06381 6.10129 4.84762 6.04673C4.91414 5.78337 4.77798 5.95125 4.63143 5.92397C4.61792 5.92187 4.48904 5.75399 4.44019 5.73825L4.80709 5.84108C4.84554 5.71097 4.67405 5.74875 4.6439 5.71727C4.5462 5.61444 4.79253 5.66166 4.76551 5.59451C4.70003 5.58611 4.62416 5.60395 4.56179 5.59451C4.49839 5.58401 4.50255 5.605 4.43915 5.55359C4.41836 5.53575 4.41004 5.48538 4.356 5.45286C4.30507 5.42243 4.20633 5.43502 4.16995 5.3899C4.13253 5.34269 4.21256 5.23986 4.19489 5.22307C4.17723 5.20838 3.8228 5.20104 3.9496 5.05939C3.8124 5.03841 3.75004 5.03106 3.70535 4.89361C3.69496 4.86318 3.71678 4.78239 3.70535 4.7698C3.69911 4.7635 3.60349 4.82226 3.54217 4.81072C3.52866 4.80862 3.32286 4.73832 3.29791 4.72783C3.25946 4.63864 3.39042 4.64914 3.37899 4.625C3.35508 4.57464 3.14305 4.44034 3.2158 4.35745C3.23347 4.33751 3.37899 4.40991 3.33741 4.27456C3.25738 4.31653 3.08172 4.30289 3.00169 4.27351C2.94557 4.25252 2.94141 4.15389 2.90919 4.15179C2.89983 4.15179 2.84371 4.22419 2.80733 4.23364C2.75952 3.95559 2.73457 4.08569 2.62128 3.99021C2.55268 3.9325 2.58698 3.79085 2.44043 3.78036C2.41133 3.73839 2.28452 3.62507 2.23671 3.57471C2.21801 3.55477 2.21073 3.50756 2.19618 3.49182C2.2866 3.40368 2.03404 3.26623 1.95193 3.20328C1.89476 3.15921 1.82512 3.14767 1.78874 3.12039C1.61413 2.98818 1.60893 2.8203 1.33973 2.62619L1.13602 2.33765C1.12874 2.30198 1.14225 2.25161 1.13602 2.21384C1.10276 2.01868 1.04559 2.14249 0.890724 2.13095C0.874094 2.10997 0.86474 2.07429 0.850189 2.04806C0.842913 2.03652 0.783669 2.02708 0.774315 1.97986C0.760803 1.91586 0.824205 1.83297 0.806535 1.80673C0.773275 1.75847 0.485369 1.61892 0.402219 1.63571C0.398061 1.63151 0.351289 1.64725 0.330502 1.62417C0.293084 1.5801 0.376234 1.44265 0.113273 1.52763C-0.0997989 1.59584 0.0675403 1.74588 0.0727372 1.81932C0.074816 1.86129 0.0197291 1.95048 0.0353197 1.96517C0.0446741 1.97461 0.157966 1.96097 0.198501 1.96517C0.226565 2.14984 0.0363591 2.17292 0.0457135 2.32296C0.049871 2.38592 0.105997 2.42369 0.115352 2.4814C0.133021 2.59682 0.0789734 2.69125 0.157966 2.78883C0.170438 2.80352 0.18395 2.81716 0.198501 2.82975C0.192265 2.93887 0.163163 3.03015 0.157966 3.11829C0.15173 3.20852 0.196423 3.2484 0.239037 3.32394C0.170438 3.3145 0.143415 3.31345 0.157966 3.3848C0.20162 3.39739 0.227604 3.41313 0.243195 3.43201C0.247352 3.45195 0.253588 3.47398 0.260864 3.49497C0.255667 3.55897 0.206816 3.62088 0.321148 3.61248V3.6534C0.336738 3.794 0.175635 3.76253 0.157966 3.77721C0.15069 3.78351 0.21825 3.88739 0.227604 3.95349C0.246313 4.08884 0.156926 4.21475 0.199541 4.43509C0.198501 4.44349 0.197462 4.45083 0.196423 4.45817C0.177714 4.57989 0.1008 4.8338 0.116391 4.90305C0.122627 4.93138 0.187068 4.92929 0.190186 4.93558C0.206816 4.9744 0.0935247 5.07408 0.241116 5.13494C0.260864 5.14333 0.313872 5.12549 0.323226 5.13494C0.327384 5.14018 0.279573 5.24826 0.274376 5.2514C0.210974 5.29442 0.0155716 5.1853 0.160045 5.42243C0.219289 5.52001 0.308675 5.47699 0.281651 5.58716C0.15069 5.51476 0.105997 5.55568 0.20058 5.67005C0.219289 5.69209 0.344014 5.73301 0.281651 5.79386C0.272297 5.80331 0.16732 5.73196 0.119509 5.75294C0.16836 5.83583 0.110155 6.00686 0.123667 6.05512C0.149651 6.14641 0.240076 6.10654 0.282691 6.12333C0.295163 6.12752 0.312833 6.11808 0.323226 6.12333L0.160045 6.16425C0.169399 6.42656 0.23488 6.27127 0.311793 6.25448C0.345053 6.24714 0.358565 6.28596 0.364801 6.28701C0.338817 6.32898 0.309714 6.36885 0.282691 6.41082C0.10184 6.25763 0.112233 6.61857 0.239037 6.63641C0.239037 6.63641 0.240076 6.63641 0.241116 6.63745L0.161084 6.65739C0.149651 6.67943 0.242155 7.11801 0.261903 7.15473C0.295163 7.21664 0.359604 7.15054 0.364801 7.15263C0.389746 7.15893 0.421967 7.17991 0.445872 7.19355C0.469778 7.2072 0.489526 7.23762 0.526944 7.23448C0.520707 7.25546 0.531101 7.29113 0.526944 7.31737C0.455227 7.31422 0.391825 7.34989 0.323226 7.35934C0.367919 7.42859 0.436518 7.57233 0.445872 7.64683C0.457306 7.74126 0.357526 7.91124 0.405337 7.95426C0.646472 8.17565 0.477054 7.83359 0.691165 7.81156C0.693243 7.81995 0.724425 7.83674 0.7317 7.85248C0.629842 7.87556 0.656865 8.00777 0.650629 8.01721C0.645432 8.02456 0.500959 8.06338 0.487447 8.1001L0.445872 8.01826H0.406376V8.22391C0.33362 8.27533 0.323226 8.26588 0.322187 8.36661C0.321148 8.52924 0.352329 8.44635 0.406376 8.47049C0.371038 8.57751 0.336738 8.69817 0.406376 8.79995C0.390786 8.79155 0.349211 8.80519 0.325305 8.79995C0.323226 8.8629 0.326344 8.91537 0.325305 8.96468C0.33362 8.97832 0.341935 8.98357 0.35025 8.98147C0.314911 9.01819 0.292045 9.06646 0.284769 9.12941C0.28373 9.16299 0.284769 9.17873 0.284769 9.2123C0.299321 9.25217 0.312833 9.29414 0.325305 9.33611C0.309714 9.30044 0.296203 9.30044 0.284769 9.33611C0.285809 9.36339 0.282691 9.39172 0.284769 9.419L0.447951 9.45992C0.454187 9.43369 0.441715 9.39697 0.447951 9.37703C0.478093 9.29204 0.486408 9.26581 0.488487 9.17138C0.564361 9.15459 0.574755 9.20601 0.611133 9.25427C0.622566 9.27001 0.638157 9.2826 0.651668 9.29519C0.645432 9.29939 0.655826 9.355 0.651668 9.37808C0.592424 9.38018 0.472896 9.46727 0.488487 9.54281C0.473936 9.54386 0.458345 9.53967 0.447951 9.54281C0.261903 9.59842 0.337778 9.63515 0.309714 9.72119C0.295163 9.76525 0.23488 9.81562 0.243195 9.83031C0.247352 9.8366 0.368959 9.84709 0.365841 9.9132C0.213053 9.92474 0.255667 10.0171 0.243195 10.1199C0.240076 10.1419 0.245273 10.1671 0.243195 10.1891C0.243195 10.1933 0.242155 10.1975 0.243195 10.2017C0.241116 10.2154 0.245273 10.229 0.243195 10.2427C0.241116 10.2563 0.245273 10.2699 0.243195 10.2836C0.231761 10.357 0.215131 10.4504 0.202659 10.5312C0.20058 10.5448 0.204738 10.5595 0.202659 10.5721V10.6959L0.406376 10.6141C0.362723 10.6865 0.387668 10.7127 0.446912 10.655C0.474975 10.7967 0.367919 10.7138 0.28373 10.7379C0.231761 10.7253 0.176675 10.7799 0.120548 10.9026C0.11847 10.9163 0.122627 10.9299 0.120548 10.9436C0.209935 10.9509 0.192265 11.0978 0.202659 11.1083C0.219289 11.1261 0.328423 11.06 0.365841 11.0663C0.380392 11.0684 0.430282 11.145 0.468739 11.1419C0.500959 11.1398 0.521747 11.0684 0.529022 11.0663C0.540455 11.0632 0.556046 11.0684 0.569558 11.0663L0.446912 11.1901C0.520707 11.2951 0.352329 11.2688 0.405337 11.4367C0.284769 11.3895 0.387668 11.2248 0.20162 11.272L0.364801 11.4766C0.128863 11.5448 0.259825 11.3276 0.0789734 11.3118C0.0737766 11.3769 0.0800128 11.4115 0.0789734 11.4357C0.0935247 11.5626 0.107037 11.6728 0.119509 11.7651C0.11847 11.7788 0.121588 11.7934 0.119509 11.806C0.0342804 11.7871 0.0467529 11.8616 0.0789734 11.9298C0.105997 11.9676 0.154848 12.0033 0.160045 12.0127L0.166281 12.1156C-0.0415939 12.1502 0.0405166 12.6633 0.11847 12.8364C0.126785 12.9067 0.15069 12.9266 0.159005 12.9602C0.161084 12.9675 0.108076 13.0179 0.137178 13.0819C0.159005 13.1291 0.21721 13.1585 0.254628 13.1847C0.262943 13.1921 0.271258 13.1994 0.281651 13.2078C0.339856 13.2886 0.253588 13.3138 0.363762 13.4135C0.398061 13.4439 0.456266 13.4628 0.486408 13.4964C0.362722 13.5289 0.441715 13.7513 0.526944 13.7849C0.429242 13.766 0.365841 13.808 0.404298 13.9087C0.418849 13.9496 0.41677 13.9727 0.444833 14.0325C0.508235 14.0818 0.562282 14.1228 0.608015 14.1563C0.639196 14.1994 0.671417 14.2161 0.689086 14.2392C0.717149 14.3211 0.850189 14.3211 0.892803 14.2802C0.894882 14.2938 0.889685 14.3085 0.892803 14.3211C0.89904 14.3473 0.930221 14.3546 0.933339 14.362C0.933339 14.4354 0.945811 14.49 0.973874 14.5267C1.01129 14.5477 1.04039 14.5823 1.09652 14.6096C1.29712 14.7051 1.41249 14.7135 1.58607 14.8572C1.68585 14.9401 1.90931 14.8415 2.04443 14.8646C2.10367 14.8751 2.36664 15.0125 2.40197 14.98C2.29908 14.8174 2.429 14.8027 2.52462 14.6925H2.56516C2.56723 14.7576 2.58698 14.7911 2.64623 14.8163C2.65038 14.8562 2.70131 14.9233 2.6878 14.981L2.72834 14.7345C2.75952 14.6946 3.00065 14.9034 2.89048 14.9601L3.0547 14.9401C3.05782 14.9296 3.05574 14.9097 3.0547 14.8992C3.07445 14.8793 3.08276 14.8488 3.08069 14.81C3.11602 14.8342 3.17527 14.8509 3.25842 14.8583C3.27089 14.8551 3.28544 14.8604 3.29895 14.8583C3.39562 14.8551 3.47773 14.8824 3.54321 14.9412C3.54736 14.9412 3.5827 14.9978 3.62428 14.9821C3.5827 14.7722 3.68352 14.8363 3.70639 14.8174C3.79577 14.7429 3.71159 14.6495 3.62532 14.6117C3.63363 14.6002 3.62012 14.553 3.62532 14.5288C3.65442 14.5393 3.77395 14.5855 3.7885 14.5697V14.405C3.84151 14.4795 3.90387 14.405 3.91115 14.405C3.95168 14.404 3.99326 14.4071 4.03379 14.405C3.92881 14.576 4.07745 14.5771 4.07641 14.5907C4.07537 14.6107 4.04626 14.681 4.03379 14.7345C4.05978 14.7303 4.09304 14.7408 4.11486 14.7345C4.1793 14.7187 4.23855 14.6642 4.27804 14.6516C4.29052 14.6474 4.30611 14.6558 4.31858 14.6516L4.48176 14.7754C4.53373 14.5865 4.56075 14.6065 4.44123 14.4869C4.58674 14.3798 4.56595 14.5655 4.72705 14.6107C4.73433 14.6128 4.74472 14.6421 4.77902 14.6421C4.80813 14.6421 4.82995 14.6149 4.84866 14.6107C4.93181 14.5928 5.07628 14.5299 5.11474 14.5299C5.17398 14.5299 5.26545 14.6358 5.37874 14.5687L5.25713 14.363C5.33613 14.3641 5.3829 14.4627 5.42032 14.4869C5.45358 14.5078 5.46189 14.5141 5.50139 14.5278C5.61468 14.5676 5.71446 14.5687 5.78722 14.4459C5.74148 14.448 5.7051 14.4187 5.66457 14.404L5.62403 14.1983C5.66353 14.2445 5.71134 14.2823 5.74668 14.3221C5.83399 14.4218 5.7051 14.4124 5.9504 14.4459C5.96391 14.448 5.97742 14.4438 5.99093 14.4459C6.00444 14.448 6.019 14.4428 6.03147 14.4459C6.02003 14.5771 6.02211 14.5855 6.15411 14.5697C6.27572 14.5551 6.30171 14.4785 6.35783 14.4459C6.37342 14.4365 6.42123 14.4554 6.4389 14.4459C6.45345 14.4113 6.46904 14.3798 6.48671 14.3505L6.4389 14.4459C6.51686 14.4071 6.49815 14.3662 6.48983 14.3431C6.49399 14.3358 6.49815 14.3295 6.5023 14.3232C6.52413 14.3179 6.55635 14.3284 6.56155 14.3232C6.55323 14.383 6.56051 14.405 6.60208 14.447C6.72369 14.5676 6.71122 14.4302 6.75591 14.4092C6.83906 14.3704 7.03966 14.2592 7.09163 14.2413C7.10618 14.2361 7.15087 14.2392 7.17374 14.2413C7.17374 14.4302 7.37642 14.3819 7.45957 14.447C7.45229 14.4218 7.4814 14.404 7.5001 14.4061C7.52609 14.4082 7.62275 14.4365 7.66329 14.447C7.67576 14.4501 7.69135 14.4449 7.70382 14.447C7.71421 14.4512 7.72357 14.4543 7.73292 14.4564C7.81296 14.4921 7.92937 14.5897 7.94911 14.405C7.98549 14.4438 8.0094 14.4942 8.06033 14.5204C8.17778 14.5813 8.25157 14.4984 8.31601 14.6107C8.36798 14.6054 8.43138 14.6201 8.47919 14.6107C8.59145 14.5886 8.58105 14.5383 8.60184 14.5278C8.61016 14.5236 8.62055 14.4931 8.64238 14.4869V14.5278C8.62782 14.6516 8.73488 14.7681 8.84609 14.6925C8.85545 14.6463 8.79828 14.6348 8.76502 14.6107L8.88767 14.5697C8.89183 14.5792 8.95003 14.5939 8.96874 14.6107C9.06124 14.6915 9.0259 14.7345 9.17246 14.6107C9.15167 14.6285 9.14959 14.6421 9.17246 14.6516C9.24105 14.7334 9.27847 14.7513 9.26912 14.6432C9.34915 14.6694 9.36994 14.6316 9.36474 14.5519L9.45828 14.5278C9.48323 14.554 9.52169 14.5813 9.53936 14.6107C9.63498 14.6484 9.70566 14.3935 9.662 14.3221C9.71917 14.3127 9.78881 14.2581 9.86572 14.2812C9.86988 14.2969 9.89898 14.3557 9.90625 14.3641C9.9998 14.4543 10.0674 14.3861 10.1505 14.3232C10.1536 14.3295 10.2326 14.4344 10.2389 14.4375C10.3438 14.5026 10.401 14.3557 10.4363 14.2822C10.4841 14.2854 10.5912 14.2812 10.5995 14.2822L10.559 14.4879C10.6775 14.4785 10.8105 14.553 10.9259 14.5288C10.9467 14.5246 10.9851 14.4659 11.007 14.4459C11.0132 14.4554 11.0007 14.4785 11.007 14.4869C11.0558 14.5561 11.0735 14.6768 11.1691 14.6516L11.2107 14.3022L11.088 14.363C11.0859 14.3494 11.0911 14.3337 11.088 14.3221C11.0984 14.1375 11.1899 14.2382 11.272 14.2329C11.3084 14.2308 11.3281 14.1994 11.3323 14.1994C11.3447 14.1994 11.3676 14.1962 11.3728 14.1994C11.377 14.2015 11.4071 14.2665 11.4133 14.2822C11.3167 14.3609 11.2949 14.3672 11.2907 14.4879C11.2886 14.5676 11.3312 14.7019 11.4133 14.7355C11.5152 14.7502 11.6139 14.7303 11.6576 14.7355C11.641 14.661 11.6389 14.5561 11.6171 14.4879H11.6576C11.669 14.5162 11.6867 14.5425 11.6981 14.5708C11.7148 14.6086 11.6836 14.6967 11.7595 14.7355L11.8208 14.6117C11.8967 14.6799 11.9372 14.6757 12.0245 14.6946C12.0598 14.7019 12.118 14.7376 12.1482 14.7166C12.2064 14.6747 12.1513 14.5341 12.3509 14.6537C12.3665 14.6631 12.381 14.724 12.4122 14.7355C12.5109 14.7733 12.4434 14.6484 12.4974 14.6075C12.5504 14.5676 12.6346 14.6149 12.6772 14.6117C12.7167 14.6096 12.8581 14.4848 12.7583 14.6526C12.7853 14.6547 12.8134 14.6505 12.8404 14.6526C13.1138 14.6747 13.1273 14.5687 13.1449 14.5708C13.1803 14.575 13.2894 14.6558 13.33 14.6526C13.3445 14.6526 13.4287 14.5855 13.4931 14.5697C13.5014 14.6243 13.6698 14.6705 13.7249 14.6799C13.7571 14.6852 13.7758 14.6526 13.779 14.6526C13.833 14.6579 13.885 14.6988 13.9421 14.6936C13.9557 14.6841 13.8403 14.5802 13.9827 14.6117C13.9889 14.6275 14.0191 14.6411 14.0232 14.6526C14.0336 14.6799 14.0159 14.7397 14.0232 14.7764C14.0897 14.7722 14.1885 14.7827 14.2675 14.7764C14.3621 14.788 14.4431 14.7743 14.5117 14.7355C14.5523 14.7313 14.5938 14.7376 14.6344 14.7355C14.6728 14.7019 14.7134 14.6883 14.757 14.6946C14.7653 14.6946 14.8246 14.7607 14.8797 14.7355L14.8391 14.6128C14.8921 14.5834 14.9306 14.6117 14.9618 14.6128C15.0241 14.7051 15.1832 14.6862 15.2881 14.6537C15.2964 14.6463 15.2964 14.5855 15.3287 14.5708C15.3349 14.5771 15.3588 14.5645 15.3692 14.5708C15.4555 14.6243 15.4773 14.5708 15.5729 14.5708C15.6155 14.5509 15.6935 14.4166 15.7028 14.4124C15.7517 14.3935 15.7756 14.4648 15.8993 14.4061C15.9502 14.3819 15.9928 14.3232 16.0625 14.3232C16.0271 14.3389 16.0271 14.3525 16.0625 14.3641C16.0812 14.3557 16.1851 14.3337 16.2256 14.3232C16.235 14.3074 16.261 14.2938 16.2662 14.2822C16.3483 14.3358 16.4917 14.1427 16.5063 14.0881C16.5291 14 16.4429 13.9622 16.4294 13.9119C16.5364 14.0115 16.6331 13.8877 16.657 13.765C16.7776 13.7524 16.8077 13.6401 16.8056 13.5257C17.0187 13.3327 17.0093 13.0452 16.9771 12.85L17.001 12.7997C16.9979 12.7587 17.0031 12.7168 17.001 12.6759L17 12.6884ZM16.8617 12.0977C16.8617 12.1124 16.8659 12.1303 16.8773 12.1533C16.8171 12.1638 16.7381 12.146 16.6736 12.1533C16.6715 12.1124 16.6684 12.1271 16.6736 12.0704C16.737 12.1323 16.8077 12.1313 16.8628 12.0977H16.8617ZM13.1242 14.2371C13.1242 14.2298 13.1242 14.2214 13.1242 14.213C13.1262 14.2245 13.1262 14.2319 13.1242 14.2371ZM6.33497 13.9664C6.32665 13.9664 6.31834 13.9664 6.31106 13.9654C6.32249 13.9612 6.32977 13.9622 6.33497 13.9664ZM2.19098 14.5414C2.19618 14.5414 2.20034 14.5414 2.20449 14.5425C2.1993 14.5425 2.19514 14.5425 2.19098 14.5414ZM11.2065 7.99308C11.1358 7.95111 11.0911 7.92278 11.0704 7.90704L11.2065 7.99308ZM12.8383 2.55589C12.8383 2.54225 12.8362 2.52756 12.8383 2.51497V2.55589ZM7.33173 3.7919V3.81709C7.33173 3.80869 7.32965 3.79925 7.33173 3.7919ZM7.4128 3.66809C7.42735 3.66809 7.45021 3.66495 7.45333 3.66809H7.4128ZM8.51973 4.17278C8.51973 4.17278 8.51453 4.16648 8.51453 4.16229C8.51765 4.16544 8.51869 4.16858 8.51973 4.17278ZM9.28471 3.86011C9.28471 3.86011 9.28783 3.8685 9.28887 3.87375C9.28679 3.86955 9.28471 3.86535 9.28471 3.86011ZM6.76007 3.37955C6.76007 3.37955 6.76319 3.3827 6.76423 3.3848C6.75799 3.3827 6.75175 3.3806 6.74552 3.37955C6.75175 3.3764 6.75695 3.3764 6.76007 3.37955ZM7.0459 1.19712L6.92325 1.1562L7.00536 1.17929C7.02095 1.18558 7.0355 1.19293 7.0459 1.19712ZM4.59817 2.43208C4.59817 2.43838 4.59297 2.44677 4.5857 2.45727C4.58674 2.45097 4.5909 2.44258 4.59817 2.43208ZM5.04718 2.51497H5.00665C5.02016 2.51602 5.03367 2.51288 5.04718 2.51497ZM3.70119 1.73224C3.7147 1.73329 3.72822 1.73014 3.74173 1.73224H3.70119ZM8.92197 5.89249C8.92509 5.90298 8.92197 5.91977 8.92197 5.93341V5.89249ZM11.9382 3.59884C11.9382 3.59884 11.9403 3.59045 11.9413 3.58625C11.9413 3.59045 11.9393 3.59465 11.9382 3.59884ZM8.65069 9.29729C8.65069 9.29729 8.65069 9.29729 8.65069 9.29834C8.64861 9.29834 8.64757 9.29834 8.64549 9.29834H8.65069V9.29729ZM6.54284 9.0014C6.54284 9.01085 6.54076 9.01924 6.53868 9.02763C6.5366 9.02029 6.53764 9.0119 6.54284 9.0014ZM2.13901 7.60906C2.13901 7.60906 2.13901 7.6164 2.13901 7.6206L2.11823 7.61745C2.1255 7.61535 2.13278 7.6122 2.13901 7.60906ZM12.248 12.4031C12.2552 12.4125 12.2625 12.424 12.2677 12.4408C12.2615 12.4282 12.2552 12.4156 12.248 12.4031ZM12.5535 12.1943C12.5535 12.1943 12.5556 12.2068 12.5546 12.2142C12.5546 12.2089 12.5535 12.2016 12.5535 12.1943ZM13.3279 10.5879C13.3279 10.5774 13.331 10.5679 13.3362 10.5595C13.3403 10.5669 13.3383 10.5763 13.3279 10.5879ZM13.1242 9.96986C13.1242 9.9772 13.1179 9.98664 13.1096 9.99714C13.1075 9.98979 13.1117 9.9814 13.1242 9.96986ZM13.859 9.31093C13.8528 9.31303 13.8465 9.31303 13.8392 9.31093C13.8455 9.31093 13.8517 9.31093 13.859 9.31093ZM12.1659 11.3286H12.1461C12.1513 11.3265 12.1586 11.3276 12.1659 11.3286ZM2.10887 8.69293L2.10679 8.69607C2.10679 8.69607 2.10679 8.69607 2.10575 8.69607C2.10679 8.69607 2.10783 8.69397 2.10887 8.69293ZM13.8195 12.4272C13.8185 12.4209 13.8174 12.4125 13.8174 12.3999C13.8216 12.4052 13.8216 12.4156 13.8195 12.4272ZM15.5792 12.1156L15.5864 12.1198C15.5864 12.1198 15.5812 12.1177 15.5781 12.1166L15.5792 12.1156ZM1.38027 4.66278C1.38027 4.66278 1.37611 4.65753 1.37507 4.65648C1.37715 4.65858 1.37819 4.66068 1.38027 4.66278ZM1.29088 5.58611C1.29088 5.59241 1.29296 5.59765 1.294 5.60395C1.29192 5.59765 1.29088 5.59241 1.29088 5.58611ZM1.69832 7.02568C1.69832 7.01938 1.7004 7.01204 1.70144 7.00574C1.70144 7.01308 1.70144 7.02043 1.69832 7.02568ZM3.70119 12.3181L3.72614 12.3118C3.73965 12.3107 3.75004 12.3118 3.75836 12.3181C3.73965 12.3181 3.72094 12.3181 3.70015 12.3181H3.70119ZM15.7766 10.9173C15.7766 10.9173 15.7777 10.9173 15.7787 10.9173C15.7787 10.9173 15.7777 10.9173 15.7766 10.9173C15.7766 10.9173 15.7766 10.9173 15.7766 10.9163V10.9173ZM1.49772 4.63655C1.49772 4.6292 1.49564 4.62186 1.49772 4.61556V4.63655ZM9.04461 12.977C9.04461 12.977 9.03734 12.9791 9.02902 12.9791C9.03318 12.978 9.03838 12.977 9.04461 12.977ZM15.4783 6.55876C15.4825 6.56401 15.4856 6.5703 15.4867 6.5766C15.4867 6.5787 15.4846 6.58394 15.4804 6.59129C15.4804 6.57975 15.4804 6.56925 15.4783 6.55876ZM11.5121 8.85451C11.5183 8.85451 11.5235 8.85451 11.5287 8.85241C11.5256 8.85556 11.5204 8.85766 11.5131 8.85766C11.5131 8.85661 11.5131 8.85556 11.5121 8.85451ZM1.59334 7.05086C1.59334 7.05086 1.58399 7.04771 1.57879 7.04561C1.58295 7.04561 1.58711 7.04771 1.59334 7.05086ZM1.37507 13.6768C1.38131 13.6611 1.38651 13.6475 1.39066 13.6338C1.38755 13.6464 1.38339 13.66 1.37507 13.6768ZM15.8151 5.10661C15.8151 5.10661 15.8161 5.10766 15.8172 5.10976C15.8172 5.10976 15.8161 5.10871 15.8151 5.10661ZM15.1728 5.2556C15.1728 5.2556 15.1832 5.24616 15.1904 5.24301C15.1842 5.24721 15.179 5.2514 15.1728 5.2556ZM12.512 13.4712C12.512 13.4712 12.5068 13.4764 12.5036 13.4796C12.5047 13.4764 12.5078 13.4743 12.512 13.4712ZM13.7997 13.0179H13.8185C13.8122 13.02 13.806 13.0179 13.7997 13.0179ZM7.45437 9.5575C7.46061 9.55855 7.46684 9.56065 7.47412 9.56275C7.46788 9.56065 7.46165 9.55855 7.45437 9.5575ZM6.67588 12.8228L6.679 12.8123C6.679 12.8123 6.68212 12.8144 6.6842 12.8144C6.68108 12.8165 6.67796 12.8196 6.67588 12.8217V12.8228ZM16.0874 7.17991C16.0916 7.16313 16.0968 7.14529 16.102 7.12745C16.0988 7.14529 16.0936 7.16313 16.0874 7.17991ZM7.4128 9.02239C7.41903 9.00875 7.42527 8.99511 7.4315 8.98147C7.4315 8.99196 7.42631 9.00455 7.4128 9.02239ZM16.3473 1.40277H16.368C16.3608 1.40382 16.3525 1.40592 16.3473 1.40277ZM16.5832 5.64487C16.5832 5.64487 16.5894 5.63543 16.5925 5.63018C16.5925 5.63438 16.5925 5.63857 16.5925 5.64067C16.5894 5.64172 16.5863 5.64382 16.5832 5.64487ZM3.15552 0.746997C3.14824 0.746997 3.13993 0.746997 3.12954 0.743849C3.13681 0.743849 3.14617 0.743849 3.15552 0.746997ZM2.47681 1.23804C2.47681 1.23804 2.47369 1.2286 2.47577 1.22126C2.48305 1.2265 2.49032 1.23175 2.4976 1.23699C2.48616 1.23909 2.47889 1.23909 2.47681 1.23699V1.23804ZM11.0579 7.89445C11.0506 7.88396 11.1005 7.9018 11.2076 7.95111L11.0579 7.89445ZM3.0308 4.53267H3.00793C3.0152 4.53162 3.02352 4.53267 3.0308 4.53267ZM0.518629 2.55589C0.518629 2.55589 0.526944 2.55904 0.531101 2.56114C0.526944 2.55904 0.522786 2.55799 0.518629 2.55589ZM5.29247 14.1091C5.29247 14.1091 5.29559 14.107 5.29767 14.106C5.29767 14.1091 5.29975 14.1133 5.30079 14.1165C5.29767 14.1133 5.29559 14.1112 5.29247 14.1091ZM12.9381 14.1312C12.9433 14.1291 12.9506 14.128 12.961 14.1301C12.9537 14.1312 12.9464 14.1312 12.9381 14.1312ZM14.8173 14.3903C14.8235 14.3861 14.8308 14.3819 14.8381 14.3777C14.8298 14.383 14.8225 14.3882 14.8142 14.3935C14.8152 14.3935 14.8163 14.3914 14.8173 14.3903ZM11.3427 7.77589C11.3603 7.77798 11.3749 7.78638 11.3863 7.79687C11.3603 7.79477 11.3281 7.79162 11.2886 7.78743C11.3094 7.78428 11.3271 7.78113 11.3427 7.77589ZM0.517589 3.78876C0.517589 3.78876 0.517589 3.78876 0.517589 3.78771V3.78876ZM0.437557 5.46125V5.43922C0.439636 5.44551 0.437557 5.45391 0.437557 5.46125ZM2.80317 14.4596C2.81045 14.4627 2.81772 14.4648 2.825 14.468C2.81772 14.4659 2.81045 14.4638 2.80317 14.4596ZM15.7756 0.414387C15.7714 0.403894 15.7704 0.3955 15.7694 0.388155C15.7714 0.396549 15.7735 0.404943 15.7756 0.414387ZM3.41536 2.22643V2.22853C3.41536 2.22853 3.41536 2.22748 3.41536 2.22643ZM12.1908 4.12452C12.1908 4.12452 12.1908 4.12451 12.1908 4.12556C12.1908 4.12556 12.1908 4.12556 12.1908 4.12452ZM11.8405 6.67523C11.8333 6.67523 11.827 6.67523 11.8187 6.67523C11.827 6.67523 11.8343 6.67523 11.8405 6.67523ZM8.55195 8.35717C8.55195 8.35717 8.55507 8.36136 8.55507 8.36346C8.55403 8.36136 8.55299 8.35927 8.55195 8.35717ZM7.23298 14.1301H7.20908C7.21635 14.128 7.22467 14.1301 7.23298 14.1301ZM16.7578 5.42348C16.7547 5.41089 16.7505 5.40144 16.7443 5.39515C16.7495 5.39515 16.7526 5.39515 16.7547 5.3983C16.7588 5.40354 16.7599 5.41299 16.7578 5.42453V5.42348ZM9.04461 8.40438H9.02279C9.03006 8.40438 9.03734 8.40228 9.04461 8.40438ZM8.53948 8.28162C8.53948 8.28162 8.54883 8.28057 8.55611 8.28162C8.54987 8.28162 8.54571 8.28162 8.53948 8.28162Z" fill="#20293F"/>
<path d="M6.43374 5.39828C6.38593 5.34687 6.17702 5.54623 6.33189 5.60393C6.34228 5.60813 6.47428 5.44235 6.43374 5.39828Z" fill="#20293F"/>
<path d="M7.29126 14.6034L7.41391 14.6653C7.42742 14.6653 7.44093 14.6653 7.45444 14.6653C7.47315 14.6307 7.49913 14.5803 7.49498 14.5415C7.42534 14.5541 7.34323 14.5195 7.29126 14.6034Z" fill="#20293F"/>
<path d="M6.92427 7.29234C6.84528 7.36474 7.10616 7.43608 7.12695 7.45707C7.19763 7.38887 6.93363 7.2829 6.92427 7.29234Z" fill="#20293F"/>
<path d="M8.10606 8.07489L7.94288 7.91016C7.93249 7.992 8.01771 8.08328 8.10606 8.07489Z" fill="#20293F"/>
<path d="M13.0836 3.87477C12.8861 3.8202 12.9111 3.96815 12.8799 3.99753C12.9277 3.94716 13.014 3.91673 13.0836 3.91464V3.87477Z" fill="#20293F"/>
<path d="M12.88 3.99756C12.8706 4.007 12.6856 4.04477 12.7573 4.12137C12.8332 4.20111 12.8529 4.02589 12.88 3.99756Z" fill="#20293F"/>
<path d="M0.804417 0.455479C0.804417 0.469119 0.803378 0.482759 0.804417 0.4964C1.00709 0.505843 0.810653 0.224645 0.804417 0.455479Z" fill="#20293F"/>
<path d="M14.0222 3.09204H13.8995V3.17388C13.9557 3.18647 14.0076 3.15185 14.0222 3.09204Z" fill="#20293F"/>
<path d="M13.1253 3.87393L13.2469 3.75116C13.1699 3.73752 13.1107 3.79943 13.1253 3.87393Z" fill="#20293F"/>
</g>
<defs>
<clipPath id="clip0_61_4251">
<rect width="17" height="15" fill="white"/>
</clipPath>
</defs>
</svg>
