<svg width="50" height="79" viewBox="0 0 50 79" fill="none" xmlns="http://www.w3.org/2000/svg">
<g clip-path="url(#clip0_11_176)">
<path d="M18.5048 78.3414C18.4347 78.2844 17.677 78.639 17.5305 78.4997C17.4859 78.4553 17.6005 77.5498 16.7091 78.0184C16.6963 78.1894 16.3779 78.3984 16.7791 78.6833C16.9638 78.81 17.5687 78.9303 17.8553 78.9936C18.2692 79.0443 18.4857 78.9366 18.5111 78.6707C18.4984 78.563 18.5239 78.4554 18.5111 78.3477L18.5048 78.3414Z" fill="#7162F0"/>
<path d="M49.9992 18.599C49.5789 18.0481 49.8846 18.6307 49.5534 18.6877C49.0376 17.8961 50.1456 18.4787 49.8782 17.7948C49.8273 17.6618 49.1077 17.5415 49.0631 17.5478V17.3831C50.5022 17.0538 49.5662 16.7499 49.3879 16.3256C49.3306 16.1863 49.6617 16.3129 49.7126 16.1356C49.7636 15.952 49.7126 15.6543 49.7126 15.4327C49.7126 15.325 49.7254 15.211 49.7126 15.1097C49.6681 14.6791 49.5725 13.9508 49.2223 13.6469C49.3115 12.8806 48.6938 12.3613 48.8976 11.5318C48.7893 11.3038 48.5473 10.9745 48.4072 10.7212C48.369 10.6578 48.4454 10.4615 48.4072 10.3982C47.7896 10.0626 47.4075 9.63195 47.261 9.10001C47.2356 8.97336 47.1337 8.54274 47.0955 8.44775C47.0318 8.31476 46.9808 8.31476 46.9299 8.44775C46.7198 8.2831 46.2231 8.44775 46.1021 8.37175C46.0448 8.34009 45.6945 7.2762 45.6181 7.14955L45.338 6.73159C44.8031 6.35163 44.6693 6.20598 44.4719 5.6867C44.0771 5.42706 43.7842 5.07877 43.4913 4.71147C43.3894 4.64815 43.2684 4.61015 43.1665 4.54682C43.1029 4.29352 42.829 4.18586 42.3515 4.22386C42.2114 4.10354 42.1732 4.16686 42.1859 3.90089C42.0776 3.67292 41.8357 3.61592 41.8611 3.90089C41.4026 3.30562 41.4663 3.41328 40.7149 3.57793C40.734 3.43861 40.6576 3.43861 40.5494 3.41328C40.5175 3.40694 39.9253 3.39428 39.8935 3.41328C39.8234 3.4576 40.1036 3.66025 39.5687 3.73624C39.4668 3.74891 39.3459 3.73624 39.244 3.73624C39.1803 3.40061 38.9192 3.40061 38.9192 3.73624C38.7473 3.64759 38.6772 3.72358 38.7536 3.90089C38.7282 3.94522 38.7791 4.02754 38.7536 4.06554C38.7218 4.10987 38.639 4.14787 38.5881 4.23019C38.4989 4.36951 38.2952 4.55949 38.0978 4.88245C37.6011 4.7368 37.4291 4.61015 36.9516 4.39484C36.9516 4.36951 36.8242 4.29985 36.8178 4.14787C36.8115 4.00221 36.9898 3.79324 36.9516 3.74257C36.9261 3.71091 36.7159 3.76791 36.6268 3.74257C37.219 3.34995 37.1553 3.07764 37.2827 2.44438C36.7032 2.27973 37.0598 2.99532 36.9579 3.09664C36.5631 3.10931 36.1874 3.00165 35.8117 2.93199L35.9773 2.60903C36.0664 2.75468 36.1237 2.76101 36.1428 2.60903C36.4676 1.99476 36.7924 1.93143 37.4482 1.95676C37.3973 1.9061 37.3464 1.83011 37.2827 1.79211C36.8178 1.79845 36.3848 1.74779 35.9773 1.62746C35.8881 1.5768 35.7417 1.50714 35.6525 1.46282L34.5063 1.95043C34.3153 1.98209 33.9969 1.89977 33.8504 1.95043C33.4493 0.778888 32.7424 1.60847 31.8892 1.29817C31.6281 1.20318 30.8257 0.968868 30.7748 0.930872C30.7366 0.899208 30.7366 0.816884 30.7366 0.753557C30.7366 0.734559 30.7429 0.715561 30.7366 0.69023C30.7366 0.6649 30.7366 0.652234 30.7366 0.645902C30.8767 0.582575 30.8767 0.531914 30.7366 0.481252C30.0552 0.335601 28.9154 0.0569637 28.285 -0.00636292C27.8583 0.113958 27.3998 0.12029 26.9796 -0.00636292C26.7949 0.00630241 26.1645 0.107625 25.9989 0.158286C25.6869 0.240611 25.5022 0.202615 25.5086 0.645902C25.4004 0.658567 25.2921 0.645902 25.1839 0.645902C24.8846 0.462254 24.6872 0.417926 24.5916 0.512916C24.5725 0.506583 24.5534 0.493918 24.528 0.487585C24.5025 0.506583 24.1013 0.506583 23.8721 0.652234C23.7129 0.601573 23.5537 0.69023 23.3818 0.918206C23.0697 0.962535 22.8469 1.02586 22.7131 1.11452C22.7004 1.03853 22.6049 0.981533 22.4011 0.9752C22.2165 1.03219 22.0955 1.07019 21.9108 1.13985C21.7707 1.05119 21.6051 1.05119 21.4205 1.13985C21.1212 1.35516 20.1979 1.78578 20.6054 2.27973C20.6372 2.26706 20.8601 2.39372 20.9302 2.44438C21.0448 2.52037 21.1785 2.55837 21.2549 2.68502C21.1148 2.90033 20.9875 2.86867 20.771 2.76734V3.25496H20.6054C20.5672 3.2043 20.4844 3.12197 20.4398 3.09031C19.3573 2.40005 19.2427 3.23596 19.0517 3.24863C18.746 3.26763 19.1599 2.5837 18.6441 2.76734C18.5486 2.83067 18.383 2.86867 18.3194 2.93199C18.2621 2.98266 18.1984 3.02698 18.1538 3.09664C17.8099 3.07131 17.6762 3.26129 17.9882 3.41961C17.9118 3.58426 18.1729 3.77424 17.7399 3.75524C17.3578 3.73624 17.1031 3.39428 16.842 3.41961C17.0203 3.98955 16.5236 3.90089 16.3453 4.14153C16.2244 4.29985 16.2435 4.47083 16.1925 4.55949C15.9187 5.02177 16.0843 4.91412 15.9824 5.16109C15.8996 5.37007 15.2564 5.57905 15.0463 5.69304C14.8744 5.78803 14.7279 5.92734 14.556 6.016C14.3968 6.09833 14.244 6.16165 14.0657 6.18065C14.0466 6.09833 13.7919 6.035 13.7727 5.98434C13.7282 5.88302 13.8937 5.89568 13.9065 5.85769C14.5369 5.83235 14.505 5.25608 13.9065 5.53472C13.4798 5.73103 13.3206 6.19332 12.7603 6.50995C12.6584 6.56694 12.4355 6.57961 12.2699 6.6746C11.474 7.11789 11.7478 7.26987 11.4103 7.61183C11.1492 7.87147 10.4297 7.85247 10.4679 8.62506C10.2577 8.77071 10.4105 8.79604 9.97754 8.94803C9.86292 8.98602 9.62731 8.91636 9.48722 8.94803C9.46175 8.94803 9.41717 9.195 9.25798 9.20766C9.10515 9.22033 8.74218 9.04935 8.67214 9.10634C8.62119 9.15067 8.71671 9.49263 8.67214 9.59396C8.62756 9.63829 8.32828 10.4679 8.18182 10.7338C8.02899 11.0188 7.57688 11.3038 7.6915 11.8737C7.58961 11.9687 7.37947 12.317 7.20117 12.526C6.99104 12.773 6.78727 13.3999 6.3861 13.3366C6.44977 14.4258 5.97856 14.6538 5.57102 15.7746C5.35451 16.0153 4.43755 16.8195 4.59037 17.0728H5.23989C5.18895 17.1805 5.13164 17.2945 5.07433 17.3958C4.95971 17.6111 4.62221 17.8391 4.41844 18.0481C4.33566 18.1304 4.37387 17.9657 4.09369 18.371C3.93449 18.6053 3.7944 18.998 3.76256 19.0233C3.72435 19.0486 3.46964 18.8207 3.31045 18.884C3.25314 18.9093 3.19583 19.1246 3.11304 19.1816C3.02389 19.2513 2.8838 19.2766 2.78829 19.3463C2.58452 19.8845 2.3107 20.4101 1.99868 20.9484L2.1324 21.1384C2.1133 21.2334 2.14514 21.36 2.1324 21.4614C2.1324 21.7653 2.35528 21.9806 2.78829 22.1136C2.62909 22.1643 1.69939 21.8033 1.64208 22.7659C1.58477 22.7722 1.52109 22.7532 1.47652 22.7659C1.46378 22.7659 1.31732 22.9179 1.31096 22.9305C1.01804 22.9685 1.04988 23.2282 1.31096 23.2535L0.495876 23.5765C0.483141 23.6081 0.495876 23.6841 0.495876 23.7411C0.769692 23.9374 0.928887 24.1021 0.986197 24.2287C0.960726 24.2414 1.0053 24.3364 0.986197 24.3934C0.42583 24.3997 0.527715 24.9633 0.661439 25.3686C0.597761 25.4699 0.610497 25.7676 0.495876 25.8562C0.234796 26.2235 0.113808 26.6288 0.120176 27.0594L0.330313 27.1544C0.298474 27.7054 0.744221 28.0537 0.171118 28.2373V28.459C0.171118 28.459 0.298474 28.8453 0.330313 28.9466C0.323946 29.0922 0.381256 29.1936 0.476773 29.2695C0.451302 29.3202 0.457669 29.4279 0.489509 29.5988C0.432198 29.5988 0.36852 29.6115 0.323946 29.5988C-0.274628 29.5925 -0.0581226 30.2131 0.330313 30.4854C-0.0963295 31.239 0.0119232 31.6443 0.648704 31.714H0.814267C1.03714 31.771 1.25365 31.6633 1.47015 31.391C1.40647 31.4923 1.37463 31.619 1.30459 31.714C0.954358 32.2459 0.680543 32.0369 1.47015 32.6892C1.41921 32.6955 1.35553 32.6892 1.30459 32.6892C1.19633 32.6829 1.08171 32.7019 0.979829 32.6892C0.916151 32.6765 0.744221 32.4169 0.489509 32.5245L0.323946 33.6644C0.260268 33.5251 0.209325 33.5251 0.158383 33.6644C0.145647 33.9494 0.0373945 33.9431 0.158383 34.3167C0.470405 34.6776 0.635968 34.6776 0.648704 34.3167C0.731485 34.3863 0.413095 34.8106 1.13902 34.4813C0.763324 34.6523 0.712382 34.6903 0.897048 35.0829C0.470405 35.2919 0.508612 35.7669 0.973462 35.6212C0.928887 35.6972 0.820634 35.7605 0.807899 35.7859C0.706014 36.0772 0.807899 36.0962 0.807899 36.1088H1.13902C1.03714 36.1342 1.08171 36.2418 1.26001 36.4191C1.1645 36.4571 1.04351 37.8376 1.09445 37.92C1.17723 38.0593 1.22817 38.1353 1.28548 38.1733L1.46378 38.7052C1.51473 38.8382 1.5402 38.9902 1.62935 39.1928C1.73123 39.2245 1.86495 39.3448 1.9541 39.3575C2.00505 39.3575 2.06236 39.3512 2.11967 39.3575C2.16424 39.7501 2.28523 39.7564 2.44442 40.0097C2.54631 40.1617 2.46353 40.5164 2.93475 40.4974C3.01753 40.7697 2.62909 40.5797 2.62272 40.7253C2.60362 41.5739 3.15125 42.0615 3.91539 42.2832C2.85833 42.6631 3.65431 42.8405 3.73709 43.0558C3.81987 43.2711 4.01727 43.86 4.07458 44.069C4.11916 44.24 4.04274 44.5249 4.07458 44.7213C4.10642 44.7529 4.14463 44.9302 4.24015 45.0442L4.73047 45.2089C4.53943 45.6458 5.02339 45.6838 5.05522 45.8105C5.10617 46.0131 4.98518 46.3551 5.08706 46.4881C5.14437 46.5641 5.36725 46.4881 5.38635 46.5071C5.58375 46.7097 5.70474 47.0453 6.04223 47.1593C6.04223 47.267 6.0295 47.381 6.04223 47.4823C6.10591 48.1219 6.2269 48.2675 6.2078 48.9451C6.2078 49.0528 6.2078 49.1605 6.2078 49.2681H6.53256C6.6217 49.5531 7.22028 50.7056 7.39221 50.8449C7.67876 51.0792 8.54478 50.9589 8.11177 51.5035C8.09267 51.5289 7.5514 51.5605 8.00352 51.7885C8.04809 51.8075 8.20729 51.7125 8.24549 51.7378C8.32828 51.7885 8.39195 52.3205 8.65303 52.0291C8.72308 51.9468 8.44926 51.4085 8.97779 51.5415C9.0351 51.6049 9.22614 51.6365 9.30255 51.7062C9.36623 51.7632 9.39807 51.9468 9.46811 52.0291C9.10515 52.1368 9.05421 52.4218 8.65303 52.3584C8.56388 53.131 9.59547 53.1437 9.14335 53.9796C10.1622 54.1506 9.46175 53.5933 10.124 53.492C10.0922 53.7643 9.80561 53.9986 10.2896 54.3026L9.95843 55.1132L10.4488 55.2715C9.81197 55.3981 10.054 55.4615 10.124 55.7591C10.1431 55.8541 10.1113 55.9807 10.124 56.0821C10.2195 56.329 10.7799 57.4626 10.7799 57.5449C10.8436 57.6842 10.8945 57.6842 10.9454 57.5449C11.111 57.9249 11.2766 58.2478 11.4358 58.5201C11.4103 58.5581 11.4612 58.6531 11.4358 58.6848C11.4994 58.8241 11.5504 58.8241 11.6013 58.6848H11.9261C11.6141 59.584 11.8879 59.3117 12.4164 59.4954C11.9261 59.508 11.8751 59.5144 12.0916 59.983C12.1426 60.0716 12.1171 60.3883 12.2572 60.6352C12.3145 60.7429 12.3655 60.8506 12.4228 60.9582C12.4546 61.2875 12.7666 61.9461 13.0787 61.7688C13.1041 61.8258 13.2379 62.2311 13.2442 62.2564C13.3525 62.2627 13.3652 62.3641 13.4098 62.4211C13.397 62.7883 13.327 63.162 13.6518 63.3899L14.0593 62.9087C14.1676 62.9213 14.2822 62.9023 14.3841 62.9087C14.505 63.0037 14.6515 63.0227 14.7088 63.0733C14.8935 63.2126 15.3647 63.6306 15.3647 63.8016C15.3647 63.8902 15.2055 63.8776 15.1991 63.8839C15.0208 63.8396 14.4095 63.9852 14.4159 63.8079C14.435 63.0986 13.6072 63.4469 14.002 64.3398C14.1867 64.7578 14.1357 64.2512 14.2185 64.8591C14.2503 65.0681 14.3586 65.2138 14.3841 65.3467C14.3968 65.3974 14.3777 65.4544 14.3841 65.5114H14.8744C15.1164 66.075 14.5815 66.6639 14.7088 66.8096C14.7407 66.8412 15.3902 66.8856 15.5239 67.1389C15.5621 67.2592 15.5876 67.3732 15.6895 67.4619V67.6265C15.6385 67.6265 15.5812 67.6265 15.5239 67.6265C15.4475 67.6265 15.1546 67.2782 15.0336 67.5442L15.6831 70.7168H15.8487C15.8359 71.0968 15.855 71.4768 15.8487 71.8567L16.6637 71.6921H16.8293C16.6637 71.901 16.3963 72.2683 16.1734 72.5027C16.1225 72.5533 15.6831 72.5786 15.6831 73.1486C16.8675 73.1613 15.8678 73.8008 15.8678 73.8705C15.8741 74.1491 16.0524 74.5164 16.1734 74.7761C16.1861 74.9027 16.1352 74.9407 16.0078 74.9407V75.1054C15.9569 75.3207 15.9887 75.5487 16.0843 75.669C15.9505 75.7766 16.0078 76.0299 16.339 76.2453C16.4027 76.2959 16.4472 76.2959 16.5045 76.4099C16.5364 76.4732 16.4791 76.6379 16.5045 76.7329C17.0076 76.9482 16.7338 76.1693 16.9949 76.0806C17.1859 76.0173 17.084 76.5556 17.568 76.4099C17.7208 76.3656 17.5425 75.9983 17.8099 76.0806C17.6762 76.7329 18.0838 76.5176 18.1411 76.5682C18.4913 76.0679 18.434 76.7139 18.5677 76.7265C19.2682 76.8025 19.542 76.7329 19.612 76.0806C19.9495 76.0806 20.2615 76.2389 20.5927 76.2453C20.6372 76.2896 20.4717 76.4669 20.4271 76.5682C19.9049 76.3719 19.9304 77.5118 19.975 77.6258C20.1406 78.0627 20.3698 77.7904 20.5927 77.7081C20.6372 77.6891 20.65 77.4295 20.841 77.5434C20.9429 77.5561 20.8729 78.1577 21.4141 77.7081C21.4396 77.3218 21.6051 76.9609 21.5797 76.5682C21.6243 76.5556 21.6943 76.5682 21.7452 76.5682C21.9172 76.5809 22.2992 76.7899 22.3884 76.7265C22.4457 76.6885 22.7705 75.669 22.8914 75.4283C22.9424 75.3207 22.9997 75.2194 23.057 75.1054C23.2671 74.6368 23.3436 74.2695 23.5473 73.8072C23.5601 73.7755 23.7766 73.4905 23.8721 73.3196C23.9549 73.1676 24.0185 73.0473 24.1968 72.9966C24.1077 72.395 23.8721 72.4647 23.8721 72.433C23.8721 72.3887 24.0185 72.3823 24.0313 72.3507C24.1523 72.2937 24.2223 72.2303 24.2351 72.1734C24.286 72.205 24.3815 72.2113 24.5216 72.186C24.6235 72.2367 24.7572 72.2937 24.8464 72.3507L24.5216 71.5401C24.649 71.6477 24.789 71.6984 24.9419 71.6731C25.2412 71.0525 25.585 70.4699 25.9862 69.9189C26.0053 69.8746 25.9671 69.8049 25.9862 69.7543C26.19 69.387 26.018 69.1463 25.6614 69.4313C25.9544 68.7094 26.0562 68.9374 26.4765 68.779C26.8713 68.6334 26.8331 67.7658 26.1518 67.8038C26.1327 67.7025 26.1836 67.5505 26.1518 67.4809C26.1963 67.4555 26.5529 67.3922 26.9668 67.1579C27.0815 67.0946 27.3043 67.1072 27.4572 66.9932C27.4317 66.7083 27.4317 66.436 27.4572 66.1827C27.5081 66.151 27.559 66.0623 27.6227 66.018C28.0175 65.5557 27.3807 65.8217 27.4699 65.4607C27.5654 65.0554 28.2277 64.9604 27.9538 64.2322C28.4569 63.9852 28.8071 64.1815 28.6097 63.4216C28.5588 63.2253 28.3805 63.0227 28.285 62.611C28.4633 62.459 28.5461 62.2817 28.285 62.2881C28.285 62.1741 28.0621 62.3324 28.285 61.9651C28.5142 61.5915 29.2529 61.2115 28.9409 60.8252C29.0809 60.7746 29.1637 60.7049 29.2656 60.6606C29.342 60.6289 29.5585 60.7049 29.5904 60.6606C29.6795 60.5529 29.5649 60.3693 29.4885 60.2616C29.4758 60.2363 29.4567 60.2046 29.4312 60.173C29.4312 59.9766 29.5904 59.774 29.5967 59.6853H29.7623L30.2526 60.173C30.2717 59.8057 30.3418 59.8563 30.5774 59.6853C30.9658 59.4067 31.2842 59.47 31.3925 58.7101H31.558C31.609 58.6974 31.6726 58.7228 31.7236 58.7101C32.0101 58.5645 32.163 58.3681 32.2139 58.0578C32.2139 58.0009 32.2139 57.9502 32.2139 57.8932C32.1248 57.5829 32.1757 57.4246 32.3795 57.4056C32.4495 57.2219 32.4941 57.0509 32.545 56.918C32.6724 56.6583 32.8316 56.443 33.0354 56.2657C33.0417 56.215 33.0354 56.1517 33.0354 56.101C33.0354 56.0441 32.7806 55.8034 32.8698 55.6134C33.0672 55.2018 33.22 54.7775 33.2009 54.3152L33.5193 54.4736C33.5957 53.9669 33.774 53.625 34.3408 53.663C34.2261 53.34 33.9459 53.6693 34.016 53.017C34.5318 53.055 34.2516 52.7511 34.4363 52.5548C34.6591 52.3141 34.9775 52.1685 35.1558 51.8835C35.0412 51.2882 35.2514 51.5542 35.3214 51.3959C35.3405 51.3516 35.3023 51.2819 35.3214 51.2312C35.4233 50.9526 35.7035 50.674 35.6589 50.3447C35.6462 50.2687 35.315 50.1927 35.1558 50.0977C35.2386 50.0534 35.4615 50.161 35.8117 49.933C36.1619 49.7051 36.0728 49.5214 36.1365 49.4454C36.2638 49.3061 36.595 49.2871 36.7924 49.2808C36.907 49.0781 37.0662 48.7108 37.1171 48.6285L36.9516 48.3055C37.1299 48.0269 37.2954 48.0396 37.4419 47.495C37.531 47.1593 37.4801 46.6147 37.5883 46.4627C37.6456 46.3867 38.4416 46.0448 38.5371 45.8231C38.6263 45.6078 38.5499 45.3545 38.6199 45.1772C38.7091 44.9556 38.9383 44.8479 38.9829 44.7339C39.1039 44.4236 38.6963 44.5186 39.2376 44.0817C39.2631 44.0563 39.4541 44.145 39.5305 44.05C39.6069 43.955 39.7152 43.1634 39.8935 42.9418L40.3583 42.8848C39.9763 42.3845 40.6194 41.5233 41.027 41.2193C41.3581 40.9723 41.6892 41.1433 41.772 41.004C41.8548 40.871 42.0649 39.5918 42.014 39.5285C42.6826 39.5285 42.5298 38.8762 42.6698 38.5532C42.7208 38.4392 42.9118 38.2999 42.9946 38.0656H43.1602C43.1984 38.0023 43.3066 37.9516 43.3257 37.901C43.4658 37.5527 43.7333 37.0524 43.816 36.7611C44.5674 36.5014 44.0899 36.0265 44.1408 35.7859C44.1981 35.4946 44.5483 34.9563 44.6311 34.646H44.9559C44.9559 34.646 45.1278 34.6713 45.2297 34.589C45.3125 34.532 45.2679 34.323 45.2806 34.3167C45.9047 34.1837 45.7964 33.9114 44.9559 33.5061C44.9495 33.4554 44.9686 33.3984 44.9559 33.3414C45.0196 33.4808 45.0705 33.4808 45.1214 33.3414C45.3634 33.3035 45.7264 33.3984 45.9365 33.3414C45.8665 32.9552 45.0641 32.4865 46.1021 32.5309C46.1339 32.4929 45.962 31.9039 45.9365 31.8786C46.2549 31.752 46.395 31.4733 46.5924 31.2263C46.758 31.0174 47.1974 30.5804 47.2228 30.5424C47.2865 30.4348 47.0127 29.9915 47.2356 29.7002C47.3629 29.5292 48.369 29.6052 47.4139 29.1999C47.7386 28.9972 47.6749 28.7376 47.7386 28.4653C47.8278 28.1107 47.9933 27.9587 47.7386 27.4901C47.8214 27.5027 48.0124 27.5091 48.0634 27.4901V26.8378C47.6622 26.6478 47.2801 26.5972 46.9172 26.6732V26.5085C47 26.4895 47.1464 26.5085 47.2419 26.5085C47.5285 26.5148 48.1844 26.9328 48.057 26.4262C48.0252 26.2995 47.4393 26.2552 47.2419 26.1792C46.7261 25.9829 46.2995 25.8499 45.771 25.6916C45.7773 25.6219 45.892 25.4636 45.9365 25.3686C46.2422 25.5269 46.3759 25.5016 46.5924 25.204C46.2231 25.6536 47.1146 26.0905 47.4075 25.8562C47.6495 25.9892 48.1398 26.6668 48.2226 25.8562C48.2863 25.9956 48.3372 25.9956 48.3881 25.8562H48.8785C48.8785 25.6979 48.8912 25.5269 48.8785 25.3686C48.8594 25.1976 48.7893 25.033 48.7129 24.881C49.1905 24.7924 48.8848 25.4446 49.3688 25.0457C49.4325 24.653 49.3624 24.1211 49.3688 24.0704C49.3879 23.9628 49.5089 23.8425 49.5343 23.7475C49.7636 22.7786 49.3815 23.1712 49.3879 23.0255C49.407 22.6582 49.5152 22.2783 49.5343 21.797C49.5343 21.6703 49.5089 21.3411 49.5343 21.3094C49.5471 21.2967 49.8209 21.379 49.8655 21.2017C50.0692 20.3911 49.7763 19.4223 49.9801 18.618L49.9992 18.599ZM14.2567 52.8207C14.3204 52.7067 14.3395 52.6118 14.3331 52.5358C14.5114 52.5231 14.6006 52.3204 14.5241 51.9911C15.3138 51.5162 14.626 50.3193 14.0975 51.1996C13.7154 50.7246 14.2949 51.0539 14.2631 50.5473C14.3204 50.5346 14.3841 50.56 14.4286 50.5473C14.5878 49.9584 14.6133 49.3441 14.4286 48.7615C14.9444 48.8755 15.0399 48.5905 15.0845 48.1092C14.4414 47.9319 14.4032 48.2865 13.9383 48.4322C13.8746 48.3942 13.8301 48.3055 13.7727 48.2675L13.9383 47.6153C13.9956 47.6026 14.2312 47.6026 14.2631 47.6153C14.7534 47.6406 14.6324 47.5709 14.4286 47.2923C14.3968 47.4823 14.072 47.4886 13.9383 47.457C13.4989 47.3493 13.2697 47.0707 12.9577 46.8047C12.8239 46.716 12.7157 46.716 12.6329 46.8047C12.3591 46.6907 11.6395 46.6147 11.6523 46.9693C11.5886 46.83 11.5313 46.8237 11.4867 46.9693V46.4817C11.4485 46.4564 11.6395 46.1714 11.2511 46.1398C10.7162 46.1018 10.3851 46.4501 10.1813 46.4817C10.1304 46.4881 9.93296 46.3677 9.78014 46.3298C10.1686 46.3677 10.2514 46.2031 10.0157 45.8295C10.124 45.9055 10.1176 46.1334 10.2641 46.1588C10.678 46.2348 10.4424 45.8928 10.5061 45.8295C10.5315 45.8295 10.5506 45.8295 10.5697 45.8295C10.6844 45.8295 10.9263 45.8611 11.1619 45.8295C11.3912 45.3735 11.1619 45.0505 10.6716 45.1772C10.8181 44.9999 11.3148 44.9112 11.3211 44.7719C11.3339 44.3983 10.9327 44.6706 10.8372 44.6896C10.6207 44.297 10.245 43.7903 10.8372 43.5497C10.869 43.5687 10.869 43.6637 10.92 43.708L11.0028 43.5497C10.9773 43.4231 11.0601 43.2647 10.9645 43.1064C10.8436 42.9164 10.1367 42.5491 9.86292 42.5745C9.85655 42.4162 10.0603 42.1185 10.0285 42.0869C9.9839 42.0489 9.28981 42.1819 8.95232 41.8399C8.93322 41.8146 8.90775 41.7892 8.88227 41.7576C8.99053 41.5929 9.02237 41.2889 8.97142 40.8393C9.38533 40.814 9.05421 40.2187 8.88227 40.1301C8.87591 40.1111 8.57662 39.9528 8.55752 39.9654V39.8008C8.86954 39.4398 8.50021 39.1485 8.39195 38.8255C8.36012 38.7305 8.22002 38.5596 8.22639 38.5026C8.24549 38.3949 8.69761 38.2429 8.39195 37.806C7.96531 37.2044 8.3028 37.54 8.14998 37.0461C8.03536 36.6788 7.53867 36.3748 7.25212 36.1405C7.9271 35.9758 7.30306 35.9062 7.30306 35.6592C7.30306 35.5959 7.55777 35.3236 7.58961 35.0133C7.65329 34.4623 7.45589 34.2407 7.41768 33.9494C7.3349 33.3288 7.32216 30.9984 7.25212 30.859C7.23938 30.84 6.87005 31.0807 6.7618 30.7767C7.16934 30.6437 7.10566 30.3778 7.25212 30.0485C7.49409 29.4912 7.71697 28.9276 7.74244 28.2627C7.74244 28.155 7.74244 28.0473 7.74244 27.9397C7.74244 27.6357 7.61508 27.4964 7.57687 27.2874C8.22002 26.7618 7.57051 26.2679 7.56414 25.9132C7.56414 25.7802 7.95258 25.8119 8.04173 25.5586C8.23276 24.976 8.39195 24.0324 8.55752 23.3865C8.6785 22.9179 8.78676 23.1775 8.55752 22.5759C8.42379 22.2213 8.22639 22.1896 8.22002 22.158C8.14998 21.6703 8.62756 21.5057 8.96506 21.2777L8.55115 20.9484C8.69124 20.8851 8.69124 20.8281 8.55115 20.7838H9.20703C8.84407 20.2455 9.32165 20.2582 9.69735 19.8085C9.87565 19.5932 10.0157 19.3716 10.1877 19.1563C10.2896 19.0233 10.3278 18.7637 10.3978 18.713C10.6653 18.5167 11.0346 18.9156 10.678 18.3457C10.3978 17.8961 10.2832 17.9721 10.1877 18.5103C10.0794 18.523 9.97117 18.504 9.86292 18.5103C9.9457 18.3267 9.93933 18.0291 10.0285 17.8581C10.5379 17.8581 11.0473 18.2317 11.0155 17.4781C11.0155 17.3578 10.7289 17.3261 10.6844 17.2058C10.6716 17.1805 10.6716 17.0728 10.6844 17.0412C10.6907 17.0158 10.8563 16.9842 10.9072 16.8765C10.9709 16.7499 10.8308 16.5599 10.8436 16.5536C10.9263 16.5029 11.8624 16.5536 11.9834 16.3762C12.0025 16.3509 11.8369 16.1863 11.8751 16.0976C11.8942 16.0659 12.098 16.0786 12.1426 15.9456C12.2126 15.7556 12.0853 15.4517 12.2254 15.2364C12.2699 15.1667 14.0084 14.3308 12.6393 14.2738C12.6456 14.2295 12.652 14.1281 12.6393 14.1091C14.002 14.0648 13.1933 13.3366 13.3588 13.1276C13.4416 13.0199 14.0593 12.8679 14.2694 12.811C14.4286 12.7666 14.7343 12.8933 14.8935 12.7856C15.0017 12.7096 15.1164 12.0574 15.3392 11.8421C15.5175 11.6711 16.3071 11.1391 16.5618 11.1835L16.3963 10.8605C16.6574 10.8605 16.8484 10.9301 17.0522 10.6958C17.1286 10.6072 17.6953 9.67628 17.7081 9.55596C17.7081 9.5053 17.7208 9.42298 17.7081 9.39131H17.8736C18.2621 9.5053 18.8734 9.54963 19.23 9.35965L20.65 7.92847H20.4844C20.5354 7.92847 20.6118 7.9158 20.65 7.92847C20.771 7.96646 20.7773 8.38442 21.2167 8.25776C21.4905 8.18177 20.9174 7.96013 22.1209 8.09312C22.7705 8.16278 22.5094 7.80815 22.7259 7.77015C22.8532 7.74482 23.0634 7.88414 23.1844 7.85247C23.9421 7.65616 23.7065 7.17488 23.7638 7.11789C23.8275 7.04823 24.2796 7.30787 24.477 7.28887C24.598 7.2762 24.5853 7.01023 24.6935 6.95324C25.1647 6.71259 25.6296 6.68726 25.9735 6.14265C26.3173 6.58594 25.6105 6.68093 25.5659 7.11789C26.0244 7.2952 26.3937 6.47195 26.4893 6.45929C26.693 6.43396 26.9987 6.6556 27.2789 6.6366C27.5336 6.6176 27.7437 6.31997 27.852 6.31364C27.8647 6.31364 27.9793 6.45296 28.1194 6.45296C28.5461 6.45296 28.6416 6.33897 29.0746 6.6366C29.2274 5.71203 29.3611 6.31364 29.8069 6.39596C30.4691 6.51628 31.246 6.60494 31.8892 6.50995C31.9465 6.50995 32.0101 6.49728 32.0993 6.47195C32.2394 6.44029 32.4368 6.49095 32.5896 6.47195C32.4495 6.6556 32.1375 6.56061 32.2649 6.95957C32.9398 6.71893 33.0545 7.18754 33.2455 7.28253C33.7103 7.51684 34.1752 7.77648 34.7165 7.77015C34.882 7.77015 35.0603 7.68783 35.2068 7.6055C35.194 7.65616 35.194 7.71316 35.2068 7.77015C35.436 8.33376 36.0919 8.15011 36.5058 8.34642C36.9006 8.53007 36.9197 8.8657 37.6584 9.06835C38.0978 9.18867 38.6709 9.22033 39.1293 9.233L38.639 9.63829C39.6706 10.3665 38.8937 9.22033 39.7852 9.39131C40.3265 9.91059 39.7152 10.0942 40.7659 10.5312H40.8232C40.8232 10.5312 40.7722 10.5312 40.7659 10.5312C41.0461 10.6452 41.2116 10.7718 41.5555 10.7022C41.5555 10.7148 41.5682 10.7212 41.5682 10.7338C41.53 10.8035 41.4154 10.8478 41.4154 10.8542C40.5939 10.8605 41.4154 11.3798 41.7401 11.6647C41.8739 12.2093 42.2559 12.4817 42.5552 12.9629C42.6889 13.1782 42.9373 13.5772 43.0455 13.7735C43.2939 14.2295 43.3512 14.7044 43.7014 15.0717C43.2684 15.3947 43.5422 16.3762 44.0262 16.5346C44.0708 16.9082 43.7778 17.7821 44.3509 18.1621C44.3509 18.219 44.3509 18.2697 44.3509 18.3267C44.3509 18.39 44.5165 18.5357 44.4465 18.8207C44.3509 19.2133 44.0453 19.0233 44.0262 19.2956C44.6693 19.3843 44.2682 19.6819 44.6821 20.1125C44.733 20.1695 44.7903 20.2202 44.8476 20.2772L44.3573 20.8471L44.6821 21.1701C44.058 21.5437 44.5674 22.215 43.7014 22.3923C43.6314 22.6899 44.0326 22.4493 44.0326 22.6392C44.0326 22.9179 43.5295 23.2472 43.7014 23.6905C43.7078 23.7411 43.6823 23.8425 43.7014 23.8551C43.3512 24.1148 43.2557 24.5454 43.0455 24.8747C42.9691 24.995 42.7526 25.0013 42.7463 25.014C42.6316 25.3306 43.4276 25.413 42.5616 26.1285C42.4088 26.2552 41.9439 26.4452 41.9248 26.4832C41.8357 26.6352 42.0331 26.8948 41.9949 27.0215C41.9439 27.2114 41.7465 27.9967 41.7147 28.0473C41.6574 28.136 41.167 28.2563 41.0843 28.4906C41.0333 28.6363 41.3453 28.516 41.3899 28.6489C41.4027 28.6933 41.2753 29.5609 41.2562 29.6052C41.1734 29.7888 40.9123 29.6558 40.8041 29.7508C40.7404 29.8078 40.7659 30.0041 40.6895 30.1245C40.6449 30.2004 40.4857 30.2068 40.473 30.2384C40.3965 30.3968 40.5685 30.6691 40.5939 30.8907C40.5939 30.9287 40.5939 30.9667 40.5939 31.011C39.3076 32.0053 39.0784 33.2401 38.6327 34.7473C38.5753 34.7853 38.3843 34.722 38.2315 34.912C38.1169 35.0513 38.085 35.3679 37.9831 35.5579C37.8112 35.8935 37.0789 37.1157 37.0534 37.293C37.0216 37.502 37.2381 37.9136 37.1681 37.996C37.1362 38.034 36.4421 38.0086 36.2575 38.3253C36.1619 38.4836 36.353 38.7179 36.3148 38.7812C36.2829 38.8319 36.0473 38.8509 35.9582 38.9775C35.7035 39.3321 36.1365 39.6108 35.3723 39.2942C35.3596 39.5285 35.4806 39.7248 35.5315 39.9464C34.9457 40.1237 34.1497 41.156 35.366 40.9217C35.3787 41.8842 34.4617 41.5423 33.8886 41.9855C33.7486 42.0932 33.8759 42.2452 33.825 42.3402C33.8059 42.3782 33.0481 43.0178 33.895 43.0368V43.2014C33.5384 42.8848 33.1118 43.0621 33.2391 43.5244C33.0863 43.5307 32.6469 43.2901 32.5896 43.3597C32.5641 43.3914 32.6342 43.7903 32.5068 44.0057C32.3986 44.1956 32.0038 44.2526 31.7745 44.6579C31.6918 44.8036 31.6153 44.9746 31.609 45.1455C31.609 45.2785 31.7618 45.5382 31.7745 45.6142C31.7618 45.6205 31.7554 45.6332 31.7427 45.6395C31.6535 45.6522 31.367 45.6585 31.1887 45.7851C31.004 45.9181 30.6729 46.3741 30.4628 46.6084C30.2208 47.0327 30.0234 47.4696 29.8706 47.9066C29.7432 47.9066 29.6413 47.9129 29.6095 47.9699C29.3993 48.3309 28.8835 49.4454 29.4821 49.1478C29.4057 49.2111 29.3611 49.2808 29.342 49.3568C29.2019 49.2048 28.8835 49.2871 28.667 49.7051C28.6607 49.7177 28.3359 49.6544 28.3359 49.7874C28.3359 50.0787 28.7435 50.256 28.667 50.351C28.5779 50.4713 27.7756 50.8449 27.7373 50.8829C27.126 51.5099 27.9284 51.7505 27.9984 51.8392C28.0239 51.8708 27.8265 52.3521 27.8265 52.6497C27.8138 52.6814 27.8074 52.7131 27.801 52.7447L27.5272 52.4724C27.5781 52.9854 26.9159 52.9221 26.7822 53.1184C26.6612 53.2957 26.7694 53.6566 26.6803 53.7516C26.6039 53.834 26.2536 53.7326 26.2154 53.7706C25.6933 54.2709 27.1642 54.2202 26.7058 54.7459C26.5338 54.8662 25.7952 55.5628 25.7251 55.7211C25.5022 56.2277 25.9225 56.234 25.4004 56.861C25.4258 56.0884 24.6299 56.861 24.5789 57.1079C24.5598 57.2093 24.8846 57.1713 24.9037 57.1903C25.1584 57.5069 24.6808 57.5006 24.6299 57.5576C24.5025 57.7032 24.6171 57.9565 24.5853 58.0008C24.5471 58.0578 24.3178 58.0895 24.2605 58.1655C24.0568 58.4188 23.8402 58.6658 23.611 58.9001L24.1013 59.3054C24.044 59.3624 23.9994 59.413 23.9358 59.47C23.923 59.4764 23.7893 59.47 23.6683 59.527C23.5601 59.5777 23.4136 60.0273 22.7896 59.793C22.745 60.0843 23.2862 60.3186 23.2799 60.3566C23.1525 60.8949 22.4266 61.0722 22.6495 62.1234C22.7386 62.5604 22.9424 62.2247 22.9551 62.2247C23.057 62.2374 23.2289 62.1994 23.2799 62.2247C23.248 63.1366 23.1907 62.706 22.9551 62.877C22.9488 62.8897 22.936 62.896 22.9296 62.9087C22.936 62.896 22.9488 62.8833 22.9551 62.877C22.5285 62.6934 22.4584 63.1366 22.433 63.1493C22.1655 63.257 22.0063 63.2443 21.5224 63.4849C21.3886 63.5546 21.0894 63.4786 21.0193 63.5419C20.9493 63.6053 20.962 64.5488 20.6754 64.7451C21.4396 65.0174 20.5927 64.8211 20.6754 65.3087C20.3571 65.4227 20.3634 65.3087 20.3507 65.3087C20.4398 65.0744 20.2297 64.9351 20.1851 64.8211C20.2042 64.8655 20.2042 64.9035 20.1979 64.9415C20.1979 64.9035 20.1979 64.8655 20.1851 64.8211C20.0514 64.4538 20.0832 64.3145 20.0196 64.0106C20.0196 63.9852 20.1342 63.8839 20.1087 63.7762C19.9113 62.8643 19.3255 61.5661 18.2238 61.8954C18.1856 61.5535 18.7906 61.8195 18.8797 61.7308C18.9816 61.6358 18.8479 61.1102 18.555 61.0785C18.5804 61.0405 18.5231 60.9139 18.6059 60.7999C18.6632 60.7239 18.867 60.7682 18.8797 60.7492C19.2045 60.2996 18.4149 60.4833 18.2302 60.4263C19.0262 59.983 18.2939 59.7867 18.2429 59.6537C18.0965 59.261 18.1474 58.2668 17.5807 58.3112C17.6953 57.6272 16.9821 57.0003 16.9566 56.918C16.9248 56.8103 17.0203 56.5633 16.9248 56.2024C16.8229 55.8161 16.7784 55.8351 16.6001 55.5501C16.4281 55.2841 15.8232 54.6825 15.7149 54.4166C15.6321 54.2266 15.8041 53.9796 15.785 53.9289C15.7722 53.2577 14.919 52.4661 14.314 52.7891L14.2567 52.8207ZM11.9707 47.7799C11.9707 47.7799 11.9707 47.7799 11.9643 47.7799H11.9707ZM13.6581 53.8593C13.6581 53.8593 13.6199 53.9036 13.6008 53.9606C13.6263 53.8846 13.6454 53.8213 13.6645 53.7706C13.6645 53.8023 13.6645 53.834 13.6518 53.8656L13.6581 53.8593ZM13.5499 55.3411C13.5499 55.3411 13.5817 55.3918 13.6008 55.4235C13.5817 55.3981 13.5626 55.3728 13.5499 55.3411ZM30.1125 4.71147C30.1125 4.71147 30.0743 4.71147 30.0616 4.69881L30.1125 4.71147ZM24.0504 5.38907C24.0058 5.38274 23.9612 5.37007 23.9039 5.36374C23.9676 5.37007 24.0122 5.38274 24.0504 5.38907ZM29.3675 49.6987C29.4184 49.7811 29.5076 49.8507 29.6222 49.9014C29.6222 49.9584 29.6222 50.009 29.6222 50.066C29.5267 50.0027 29.3739 49.971 29.2975 49.9014C29.3357 49.8254 29.3548 49.7621 29.3675 49.6987ZM46.1085 17.2058C46.1085 17.2058 46.1085 17.1805 46.1085 17.1678C46.1085 17.1362 46.1148 17.0982 46.1212 17.0665C46.1212 17.1172 46.1148 17.1615 46.1085 17.2058ZM44.6566 17.0348C44.6566 17.0348 44.6693 17.0475 44.6757 17.0538L44.6566 17.0665C44.6566 17.0665 44.6566 17.0475 44.6566 17.0348ZM31.2842 50.0787C31.2842 50.0787 31.2906 50.0534 31.3033 50.0407C31.3352 49.9964 31.3734 49.952 31.4179 49.9014L31.2842 50.085V50.0787ZM17.8609 58.8748C17.8609 58.8748 17.8481 58.8494 17.8418 58.8368C17.8481 58.8368 17.8545 58.8368 17.8545 58.8368C17.8609 58.8494 17.8609 58.8621 17.8609 58.8748ZM31.9083 52.1748H31.9719C31.9719 52.1748 31.9465 52.1748 31.9337 52.1748C31.9274 52.1748 31.9146 52.1748 31.9083 52.1748ZM41.3644 6.50995C41.3262 6.52261 41.288 6.54795 41.2498 6.56694C41.2626 6.54161 41.2753 6.52262 41.3008 6.50362C41.3199 6.50362 41.3453 6.50362 41.3708 6.50362L41.3644 6.50995ZM12.9513 54.7712C12.9513 54.7712 12.9513 54.7712 12.9513 54.7775C12.9449 54.7775 12.9386 54.7775 12.9258 54.7775C12.9322 54.7775 12.9386 54.7775 12.9449 54.7775L12.9513 54.7712ZM37.9449 42.3908C37.9449 42.3908 37.9449 42.3528 37.9449 42.3338V42.4225C37.9449 42.4225 37.9449 42.4035 37.9449 42.3908ZM44.8285 28.7059C44.8285 28.7059 44.8285 28.7503 44.8158 28.7629C44.8031 28.7439 44.8094 28.7249 44.8285 28.7059ZM6.4052 17.4401C6.4052 17.4401 6.4052 17.4528 6.39883 17.4591C6.39883 17.4465 6.39883 17.4401 6.4052 17.4275C6.4052 17.4275 6.4052 17.4338 6.4052 17.4401ZM18.1793 70.0519C18.1793 70.1089 18.192 70.1659 18.1793 70.2166V70.0519ZM44.6502 8.77704C44.6502 8.77704 44.6757 8.80237 44.6884 8.81504C44.6693 8.80237 44.6566 8.78971 44.6502 8.77704ZM44.0007 6.99123C44.0007 6.99123 43.988 6.9659 43.988 6.9469C44.0262 6.9659 44.0771 6.97857 44.1281 6.99756C44.0708 7.01023 44.0198 7.01023 44.0007 6.99756V6.99123ZM22.7577 2.02642C22.7577 2.02642 22.7514 1.97576 22.7577 1.95043V2.02642ZM24.6935 70.2229C24.6935 70.2229 24.719 70.2229 24.719 70.2166C24.7126 70.2166 24.7063 70.2166 24.6935 70.2229ZM34.5191 51.5162C34.4617 51.5162 34.3981 51.5289 34.3535 51.5225C34.4235 51.5162 34.4808 51.5162 34.5191 51.5162ZM22.5985 1.35516C22.6049 1.43748 22.6622 1.52614 22.7577 1.62746C22.745 1.6148 22.4521 1.46915 22.433 1.46282C22.4966 1.43115 22.554 1.39316 22.5985 1.35516ZM6.57713 49.1351V49.0845C6.57713 49.0845 6.57713 49.1161 6.57713 49.1351ZM7.66602 50.218C7.66602 50.218 7.7106 50.218 7.72333 50.218C7.70423 50.218 7.68513 50.218 7.66602 50.218ZM16.53 75.65C16.53 75.65 16.5045 75.6373 16.4918 75.631C16.5109 75.612 16.53 75.593 16.5491 75.574C16.5427 75.5993 16.5364 75.6247 16.5364 75.65H16.53ZM24.0631 72.0024C24.1141 72.0214 24.1777 71.9834 24.2287 72.0024C24.2223 72.0214 24.2223 72.0404 24.2159 72.0594C24.1841 72.034 24.1332 72.015 24.0631 72.0024ZM44.8476 32.0306C44.8922 32.0306 44.9368 32.0179 44.9814 32.0179C44.9368 32.0243 44.8922 32.0306 44.8476 32.0306ZM48.7447 24.4884C48.7447 24.3807 48.7447 24.2921 48.7447 24.2161C48.7829 24.4441 49.0122 24.4061 49.0695 24.2161C49.044 24.2731 49.0313 24.3301 49.0504 24.3554C49.0759 24.3934 49.1586 24.3871 49.1777 24.3871C49.0122 24.3997 48.8594 24.4377 48.7447 24.4884Z" fill="#7162F0"/>
<path d="M18.995 78.3414C19.1733 77.9108 18.6511 78.0691 18.6575 77.9234C18.6575 77.7841 18.8358 77.7144 18.8358 77.6954C18.9186 77.0052 18.753 77.3028 18.511 77.2078C18.3391 77.3028 18.0462 77.3598 18.0271 77.3788C17.7915 77.6511 18.4856 78.525 19.0013 78.3414H18.995Z" fill="#7162F0"/>
<path d="M18.5107 77.2015C18.6699 77.1191 18.8036 77.0178 19.001 77.0368V76.8785C18.4279 77.0115 18.447 76.7772 18.186 76.5492C17.823 77.0685 18.135 77.0495 18.5107 77.2015Z" fill="#7162F0"/>
<path d="M37.4619 4.38849C37.8185 4.41382 38.035 4.09719 38.277 3.90088C38.3343 3.0903 37.7931 4.42649 37.4619 3.57791C37.4365 3.85655 37.3155 4.07186 37.4619 4.38849Z" fill="#7162F0"/>
<path d="M15.8939 34.133C16.1359 35.0576 16.6198 35.3932 17.1993 35.9188C17.2566 35.9695 17.3012 36.0391 17.3649 36.0835C17.4031 36.1151 17.4413 36.1405 17.4795 36.1658C17.8234 36.4318 17.7533 36.5331 17.5304 37.0524C17.6705 37.084 17.938 37.008 18.0208 37.0524C18.1481 37.1157 18.1991 37.6793 18.1863 37.8629L19.0014 37.6983C18.8167 38.4709 19.2752 38.2936 19.3262 38.3506C19.3453 38.3696 19.2561 38.6799 19.428 38.6925C19.6127 38.7052 19.7783 38.5405 19.9056 38.5342C19.9884 38.5279 20.9563 39.1168 21.383 39.1738C22.0898 39.2688 21.7459 38.8002 22.4337 39.3321C23.0195 39.7881 22.8476 39.3131 23.0768 39.0915C23.7836 38.4139 23.8537 39.3195 23.9747 39.3131C24.4268 39.3131 24.6942 39.2118 24.7197 38.8445C24.9553 39.0345 25.5093 39.4714 25.8659 39.1675C26.248 38.8382 25.5602 38.8698 25.5411 38.8445C25.5157 38.8192 25.2482 38.2746 25.2164 38.1922C25.6112 38.1922 26.0506 38.3316 26.4454 38.2112C26.8975 38.0719 26.4454 37.7173 27.5024 38.1922C27.5534 38.1543 27.3496 37.9706 27.3814 37.9009C27.4133 37.8313 28.3748 36.989 28.4894 36.7991L28.3175 36.2481L29.1326 36.5711L28.967 35.7605C29.3618 35.6465 29.8394 35.2666 30.1132 34.9499C30.2024 34.8423 30.3998 34.7093 30.438 34.627L31.0875 34.7916C31.0684 34.532 31.1957 34.114 30.9219 33.981C31.1957 33.2908 31.1384 33.6707 31.5778 33.4934C31.788 33.4111 31.8453 32.4549 32.2146 32.2459C32.2592 32.0622 32.0936 32.0749 32.0681 32.0306C32.8068 31.4986 32.6922 31.3593 32.8832 30.5677C32.9787 30.1688 32.9915 29.9788 33.0488 29.5925C33.0551 29.5418 33.0424 29.4848 33.0488 29.4278C33.0679 29.1682 33.6792 28.5476 33.6983 28.4969C33.7683 28.2246 33.6474 27.87 33.7047 27.642C34.3414 27.1038 34.3988 25.7042 34.5197 24.881C34.5771 24.4947 34.6598 24.1401 34.6853 23.7411C34.7171 23.2218 34.628 22.8545 34.5388 22.6012C34.5388 22.5822 34.5388 22.5632 34.5325 22.5442C34.5325 22.5126 34.5134 22.4936 34.4943 22.4746C34.4306 22.3226 34.3797 22.2339 34.3797 22.2023C34.3924 21.8856 34.6598 21.3917 34.5197 20.9737L33.3799 21.2967C33.2271 21.246 33.1698 21.227 33.2143 21.0497C33.1252 20.8471 33.329 20.8661 33.3799 20.8091L34.3414 20.6318C34.5898 20.1252 33.9848 19.8402 33.9339 19.5869C33.9084 19.4539 34.0549 19.2449 34.0358 19.1816C33.9339 18.8206 33.8129 18.105 33.3799 18.2064C33.3035 18.01 33.2653 17.8391 33.2143 17.7187C33.0551 17.3324 33.1188 17.4274 32.8896 17.0665C32.6412 16.6802 32.8514 16.4522 32.0745 16.5789C32.0108 16.5409 32.2273 16.3382 32.2401 16.2559C32.3356 16.2686 32.5203 16.4775 32.5648 16.4205C32.6221 16.0406 32.2019 15.3313 31.8262 15.3377C31.667 15.3377 31.546 15.705 31.2594 15.61C31.3231 15.3187 31.2021 15.1793 31.0939 14.9577C30.992 14.7487 30.8837 14.5017 30.7691 14.3054C30.4826 13.8305 30.2724 13.5328 29.7885 13.3302C29.209 13.0832 29.3873 13.0832 28.9734 12.8426C28.8078 12.7476 28.5849 12.5639 28.4831 12.5196C27.738 12.165 27.7189 12.393 27.1395 12.317C26.9866 12.298 26.8083 12.0637 26.5918 12.032C26.1015 11.956 25.2737 12.298 24.9744 12.2853C24.3249 12.2536 23.9619 11.6457 22.8921 12.0447C22.7329 12.1017 22.7393 12.3043 22.6438 12.3486C22.1917 12.5829 21.4212 12.6526 21.7841 13.3302L20.9691 13.0072C21.3893 13.7545 20.8353 13.3239 20.466 13.7228C20.3132 13.8938 20.1794 14.3878 20.1476 14.6284C20.1476 14.6791 20.1476 14.7424 20.1476 14.793H19.982C19.6891 15.078 19.2306 14.7487 19.0014 14.8627C18.9568 14.8817 18.3774 15.515 18.3519 15.5593C18.2882 15.6606 18.3837 15.8759 18.3519 15.9266C18.2755 16.0532 18.2373 16.1672 18.1863 16.2496C17.8743 16.7752 17.4095 16.7055 17.3712 16.7372C17.2948 16.8068 17.6005 17.2755 17.5304 17.3831C17.5177 17.4084 17.3076 17.2818 17.2057 17.3198C16.5816 17.5794 17.2184 17.953 17.2057 18.1937C17.1356 18.2507 16.7663 18.238 16.6262 18.5167C16.5498 18.6686 16.6517 18.9663 16.6963 19.2069C16.6963 19.2449 16.6963 19.2892 16.7154 19.3336C16.7472 19.6565 16.8682 19.8972 16.8809 20.1441C16.6708 20.0492 16.3715 20.5368 16.2824 20.6761C16.2441 20.7331 16.3779 20.8661 16.346 20.9231C16.1614 21.2714 15.9194 21.246 15.7347 22.0946C15.0916 22.0313 15.5118 22.4049 15.5692 22.5822C15.5819 22.6266 15.5564 22.6899 15.5692 22.7469C15.6456 23.2662 14.9515 23.5195 14.9196 23.5638C14.7541 23.7981 15.5437 24.0831 15.2444 24.5327L14.7541 24.0451C14.3784 24.8493 14.7923 24.596 14.9133 24.805C15.2508 25.3749 14.9706 25.5649 14.9133 25.9955C14.8496 26.5085 14.8942 26.5275 15.4036 26.4831C15.4927 26.7808 15.2508 26.7808 15.238 26.8061C14.4866 26.6541 14.9578 28.2816 14.9133 28.4336C14.9133 28.4526 14.6649 28.4779 14.6267 28.7122C14.5312 29.3265 14.3529 29.9218 14.423 30.5487C14.5758 30.5741 14.7732 30.5171 14.9133 30.5487C14.9706 30.5614 15.0406 30.5297 15.0788 30.5487C14.805 30.8337 15.1234 31.182 15.0916 31.4226C15.0788 31.5366 14.8114 31.524 14.7923 31.5556C14.7604 31.6253 15.0661 32.9741 15.1043 33.0375C15.3144 33.3858 15.7666 33.1768 15.4036 33.7087L15.7347 33.4681C15.7347 33.4997 15.8684 34.0064 15.9003 34.1203L15.8939 34.133ZM20.1412 32.0179C20.0903 32.0306 19.9884 32.0432 19.8674 32.0559C19.9566 32.0432 20.0457 32.0242 20.1412 32.0179ZM24.4713 16.2559C24.4713 16.2559 24.5287 16.2559 24.5541 16.2559H24.4713ZM17.6896 23.0762C18.0653 23.2218 18.4792 22.7405 18.7658 22.3163C18.7658 22.4556 18.804 22.5822 18.8677 22.6076C18.8549 22.6456 18.8422 22.6899 18.8295 22.7469C18.5047 22.8672 18.2373 22.8735 18.3392 23.2345C18.7913 22.8672 19.0969 23.2092 19.3198 23.2345C19.6382 23.2662 19.9757 23.2092 20.3004 23.2345C20.4405 23.3611 20.4724 23.5955 20.7908 23.5575C20.7908 23.4498 20.5679 23.2155 20.6125 23.0002C20.6761 22.8355 20.8481 22.9242 20.9563 22.9052C21.0964 23.3421 21.3002 23.3485 21.4466 22.9052L21.6122 23.2282C21.6695 23.1775 21.7205 23.1142 21.7778 23.0635C21.9943 22.8799 22.5483 22.9875 22.1853 22.4112L21.6186 22.5759C21.5549 22.2846 21.8223 22.2023 21.9051 21.9616C21.9688 21.778 21.8988 21.5373 21.9561 21.3917C22.0325 21.189 22.4846 21.3917 22.1089 20.7837C22.4464 20.7964 22.7839 20.8027 23.0895 20.6191C23.5034 20.3658 23.478 19.8149 23.6053 19.6755C23.6308 19.6439 23.8409 19.7642 23.9046 19.7072C24.0829 19.5615 24.1339 19.2259 24.3313 19.1816C24.4905 19.1436 24.7324 19.3779 25.0445 19.2449C25.7258 18.9536 24.9107 18.6686 24.8853 18.181C25.0508 18.1114 25.2227 17.9087 25.3756 17.8581C26.2034 17.5604 26.4326 18.1684 27.1713 17.8581C27.3241 18.1177 27.2604 18.447 27.4961 18.6686C27.4387 19.0423 27.6425 19.0929 28.0946 18.8143C27.6107 19.2639 27.9927 20.1695 28.6423 20.2961C28.5913 20.4671 28.2793 20.8914 28.3175 20.9421C28.3366 20.9674 28.6295 20.9611 28.725 21.1004C28.9479 21.436 28.5404 22.025 29.1326 21.9236C28.7187 22.1263 28.8715 22.3099 28.8078 22.5759C28.6868 23.0508 28.5722 22.8672 28.8078 23.3865C29.0625 23.9501 29.0689 23.8361 29.1326 24.5264C29.1326 24.539 29.1326 24.5517 29.1326 24.5644C29.1135 24.7417 28.8906 25.1216 29.4637 25.3433C29.451 25.3813 29.451 25.4129 29.4446 25.4446C29.4319 25.4636 29.4064 25.4763 29.3682 25.4699C29.1581 25.4573 28.7632 25.2736 28.6614 25.3559C28.5977 25.4066 28.6805 25.6346 28.6486 25.6662C28.5786 25.7549 28.3175 25.8119 28.2475 25.9829C28.171 26.1665 28.3239 26.3502 28.3239 26.4768C28.3239 26.5781 28.2602 26.5401 28.3239 26.7998C28.0055 26.9264 28.0946 27.4394 27.9545 27.5724C27.7699 27.7497 26.872 27.6864 27.5088 28.5856C27.5279 28.6109 27.7444 28.5666 27.8335 28.5856C27.8335 28.6363 28.0628 28.8706 27.9991 28.9086C27.9545 28.9339 27.7253 28.8579 27.5597 28.9529C27.4706 29.0035 27.5215 29.2252 27.5088 29.2315C27.4196 29.2822 27.0248 29.1935 26.8529 29.2315L27.184 29.6368C27.1713 29.8268 26.7701 29.6558 26.6937 29.7191C26.318 30.0358 28.2029 30.574 26.8593 30.859V30.3714C26.5218 30.3524 26.1843 30.4221 25.8786 30.5297C25.6367 30.612 25.401 30.7514 25.2227 30.935L25.5475 31.3403C24.4904 31.2136 24.9426 31.8026 24.8916 31.8279C24.7961 31.8786 24.414 31.7836 24.1784 31.8596C23.9747 31.9229 23.9365 32.1382 23.9046 32.1509C23.6053 32.2902 23.2105 32.3092 23.0895 32.6385C22.9813 32.6258 22.873 32.6448 22.7648 32.6385C22.7711 32.1762 22.1535 31.8849 21.7841 31.7709C21.504 31.6823 20.7207 31.9672 20.8035 31.334C21.8797 31.6759 21.2811 31.3593 21.2938 31.1693C21.2938 31.0807 21.6249 30.9983 21.6313 30.9097C21.6313 30.8274 21.1983 29.6621 21.1283 29.3835C21.0582 29.0859 20.8226 28.7312 20.8035 28.5729C20.7971 28.5033 21.0009 27.4837 20.9691 27.4394C20.7971 27.2241 20.0648 27.6547 20.154 27.1987C20.2559 26.8568 20.8863 26.8314 20.9436 26.7681C21.0327 26.6668 20.9563 25.7676 20.9691 25.4889C20.657 25.6219 20.7016 26.0779 20.3132 25.9765C20.1349 26.4262 20.0776 26.3692 20.1476 25.8119C20.033 25.6536 20.0075 25.4889 19.7401 25.4826C19.046 25.5839 20.1603 25.6536 19.8165 25.9765C19.7082 26.0779 19.1861 25.7866 19.167 25.8119C19.0651 26.2742 19.7019 26.6098 19.8165 26.8694C19.982 27.2367 19.549 26.9771 19.3262 27.1101C19.2816 26.9961 19.237 26.9771 19.1924 27.0468C19.5618 26.2742 18.8677 26.4388 18.3455 26.7808L18.6766 26.3755L18.441 26.4325C18.6448 26.3438 18.7658 26.0335 18.6448 25.8942C18.6257 25.8752 18.4283 25.7169 18.2436 25.5776C18.492 25.6916 18.8677 25.7359 19.0842 25.4826C19.167 25.3876 19.0014 25.2229 18.995 25.1533L19.3198 24.9886C19.3071 24.938 19.3198 24.8747 19.3198 24.824C19.6764 24.7227 19.6764 24.5833 19.3198 24.501C19.2115 24.5074 19.0842 24.482 18.995 24.501C18.8231 24.539 18.7276 24.6467 18.6703 24.6657C18.6703 24.7733 18.6766 24.881 18.6703 24.9886H18.18L18.3455 25.3116H18.0208C18.0208 25.3116 18.0017 25.3686 18.0208 25.4003C18.008 25.3939 18.0017 25.3876 17.9953 25.3813C18.0399 25.2229 18.008 25.033 17.8616 24.9886C17.7342 25.052 17.5432 25.0456 17.3712 25.1533C17.7852 24.862 17.6896 24.3237 17.2057 24.1781C17.938 24.1084 18.2182 23.4625 17.696 23.0382L17.6896 23.0762ZM17.5368 22.7152C17.5368 22.7152 17.5368 22.7405 17.5304 22.7532C17.5241 22.7469 17.5113 22.7405 17.4986 22.7342C17.5113 22.7279 17.5241 22.7215 17.5368 22.7089V22.7152ZM31.4186 16.4142C31.2658 16.3699 31.2085 16.4205 31.2531 16.5789C31.113 16.3509 31.1766 16.3066 31.4186 16.4142Z" fill="#7162F0"/>
<path d="M10.2522 41.4472L10.0103 41.9349C10.2713 42.1248 10.4114 42.3211 10.8253 42.2578C10.6661 42.0172 10.8126 41.5866 10.2522 41.4472Z" fill="#7162F0"/>
</g>
<defs>
<clipPath id="clip0_11_176">
<rect width="50" height="79" fill="white"/>
</clipPath>
</defs>
</svg>
