<svg width="17" height="23" viewBox="0 0 17 23" fill="none" xmlns="http://www.w3.org/2000/svg">
<path d="M16.7826 15.1647C16.744 15.1422 16.6973 15.1293 16.6555 15.1084C16.6603 15.0939 16.6491 14.8943 16.6555 14.8235C16.6989 14.8074 16.7392 14.7817 16.7826 14.7672C16.884 14.9201 16.9564 14.9668 16.9725 14.7672C16.9822 14.6417 16.9226 14.4759 16.9097 14.3681C16.9017 14.3005 16.847 14.2603 16.847 14.2539C16.8438 14.2346 16.847 14.2152 16.847 14.1975C16.8422 14.13 16.9258 13.9465 16.9097 13.8548C16.8888 13.7341 16.633 13.7791 16.5927 13.5973C16.5863 13.5651 17.0626 13.2932 16.9081 13.0566C16.8486 13.0807 16.6941 13.2433 16.6571 13.0856C16.6458 13.0389 16.8019 13.0614 16.8373 12.9649C16.9001 12.7959 16.8856 12.5899 16.6571 12.6575L16.7842 12.5722L16.6571 12.5143C16.9371 12.2327 16.8341 11.9076 16.781 11.5472C16.7681 11.4603 16.67 11.4007 16.6635 11.3186C16.6587 11.2494 16.7649 11.0402 16.7199 11.0016C16.5686 10.8697 16.5396 11.1062 16.53 11.1159C16.5107 11.1352 16.4865 11.1529 16.4672 11.1722C16.3852 11.1094 16.4576 10.86 16.4898 10.7908C16.5332 10.6991 16.781 10.6492 16.7875 10.6251C16.8084 10.5527 16.7842 10.3595 16.7842 10.2582C16.7842 10.2018 16.7891 10.1423 16.7842 10.0876C16.8438 9.92184 16.8229 9.86551 16.7215 9.91701C16.7006 9.6885 16.6442 9.46321 16.6587 9.23148C16.7344 9.13815 16.7762 9.00458 16.7858 8.83239C16.7858 8.81308 16.7858 8.79377 16.7858 8.77607C16.855 8.56526 16.855 8.37537 16.7858 8.20479C16.7842 8.16617 16.7858 8.12916 16.7858 8.09054C16.7472 7.92801 16.7006 7.84755 16.6442 7.84594C16.7311 7.80249 16.7585 7.69467 16.7215 7.52087C16.7183 7.51122 16.6748 7.43559 16.6587 7.40662C16.6362 7.34386 16.5927 7.31007 16.5236 7.31489C16.3337 7.51927 16.2275 7.45329 16.2017 7.11696C15.9523 6.97374 15.9443 6.93995 15.9008 6.72109C15.8863 6.71144 15.7238 6.46362 15.7142 6.44752C15.6594 6.34453 15.8236 6.22223 15.5211 6.26407C15.4728 6.19005 15.4647 6.10315 15.4583 6.09349C15.3617 6.00177 15.2781 5.88751 15.2057 5.75073C15.1783 5.72659 15.1027 5.71694 15.0801 5.69441C15.0544 5.67027 15.0447 5.60912 15.0174 5.58015C14.9257 5.45624 14.628 5.34199 14.5749 5.4659C14.5298 5.43693 14.5298 5.38865 14.5121 5.35164C14.6344 5.379 14.6151 5.26957 14.5749 5.18106C14.459 5.08129 14.3222 4.98635 14.1967 4.89623C14.1935 4.87692 14.2032 4.85439 14.1967 4.83991C14.0905 4.77715 13.9843 4.72083 13.8813 4.66933L13.9119 4.60335C13.7816 4.45691 13.6866 4.30725 13.6287 4.15599C13.6078 4.15921 13.5836 4.15116 13.5659 4.15599C13.3374 4.05139 13.1379 3.86955 12.9979 3.69897C12.9689 3.68609 12.8965 3.71184 12.8724 3.69897C12.6857 3.60402 12.5361 3.47046 12.3671 3.3562C12.372 3.3385 12.3639 3.31758 12.3671 3.29988C12.3703 3.28218 12.3671 3.26126 12.3671 3.24356C12.343 3.13252 12.3011 3.0939 12.2416 3.1293C12.0743 2.97321 11.9986 2.84125 11.8618 2.67228C11.82 2.67228 11.7782 2.67389 11.7363 2.67228C11.6945 2.67067 11.6462 2.67872 11.6108 2.67228C11.5738 2.66585 11.3694 2.62079 11.3582 2.61596C11.3952 2.66906 11.3598 2.7109 11.2954 2.73022C11.2069 2.53067 11.1619 2.4309 11.1619 2.4309C11.3775 2.344 11.4435 2.25389 11.3582 2.15894C11.1393 2.07365 11.1538 1.9771 11.1055 1.81618C11.0814 1.76629 11.0605 1.76629 11.0428 1.81618C11.0074 1.7325 10.9913 1.65364 10.9157 1.58767C10.8867 1.56192 10.7821 1.55709 10.7435 1.51686C10.6807 1.45249 10.6727 1.30927 10.663 1.30122C10.6309 1.2787 10.5729 1.3849 10.5086 1.38973C10.4361 1.39617 10.3251 1.35433 10.2221 1.35755V1.30122L10.5375 1.27226C10.4442 1.18375 10.2817 1.11616 10.1594 1.18697C10.1095 1.12421 10.0467 1.0534 9.96949 1.01639L9.90673 0.673627C9.76513 0.593166 9.75065 0.470865 9.59134 0.388795H9.40146C9.2679 0.282586 9.20836 0.192469 9.02331 0.103962C8.98308 0.0846513 8.93803 0.0605129 8.8978 0.0476391C8.60172 -0.0473051 8.70953 0.00419011 8.51804 0.161894L8.5808 0.390404C8.53252 0.406496 8.40862 0.355001 8.39253 0.417761C8.48425 0.575465 8.45206 0.781445 8.70792 0.789491H8.77067C8.76102 0.845814 8.71918 0.873171 8.70792 0.903746C8.65964 0.865125 8.55505 0.868343 8.51804 0.847423C8.50356 0.839377 8.43919 0.768571 8.39253 0.733169C8.27989 0.649489 8.16081 0.409715 8.04334 0.560982C8.0369 0.570637 8.00633 0.778227 8.01598 0.786273C8.02886 0.795928 8.22035 0.826504 8.32977 0.905356C8.3523 0.921448 8.37322 0.942368 8.39253 0.961678C8.18816 0.947195 8.18495 0.942368 8.20265 1.13226C8.18655 1.12421 8.15437 1.1403 8.13989 1.13226C8.09322 1.10651 8.053 0.964897 7.88725 1.018C7.94518 1.12743 7.88886 1.20628 7.8245 1.30283C7.80358 1.30283 7.78105 1.29962 7.76174 1.30283C7.65071 1.32214 7.52519 1.42835 7.44635 1.50238C7.43991 1.51686 7.76335 1.56836 7.44635 1.70192C7.19693 1.80652 7.33692 1.76146 7.25647 1.81618C7.10842 1.91756 6.93142 1.93526 6.87832 2.15894C6.86705 2.20722 6.88636 2.27641 6.87832 2.32952C6.83809 2.34239 6.78981 2.42446 6.7528 2.44377C6.73349 2.30377 6.69005 2.22331 6.56292 2.32952C6.49051 2.38906 6.46798 2.47918 6.43741 2.55803C6.24592 2.46469 6.09788 2.65297 5.93214 2.72861H5.86938C5.85329 2.74953 5.81145 2.76884 5.80662 2.78493C5.66824 2.80585 5.63445 2.87665 5.70686 2.99735C5.68111 3.007 5.65215 3.03114 5.61835 3.07137C5.59904 3.07137 5.57491 3.07137 5.5556 3.07137C5.43008 2.95712 5.10986 3.16631 5.17745 3.29988C5.11791 3.3739 5.07768 3.43988 5.05193 3.52839C5.00849 3.51391 4.88941 3.47368 4.86205 3.47207C4.78803 3.52839 4.67378 3.56057 4.5177 3.57023L4.54666 3.64265C4.57724 3.65391 4.61746 3.63943 4.60942 3.69897C4.3954 3.72632 4.29081 3.80196 4.29402 3.92748C4.2361 3.91782 4.16207 3.93713 4.10415 3.92748C3.99955 4.04495 4.19426 4.11254 4.1669 4.23967C4.12989 4.41668 3.76944 4.06104 3.91427 4.38289C3.80323 4.39576 3.70186 4.37001 3.66163 4.49714C3.62945 4.54381 3.72278 4.58726 3.53612 4.72565C3.52485 4.7337 3.45244 4.70312 3.42187 4.73853C3.38647 4.77715 3.42187 4.88497 3.4106 4.89784C3.37037 4.93646 3.14509 4.80129 3.03245 4.86566C3.01636 4.87531 2.78947 5.11187 2.77821 5.12635L2.65269 5.07003C2.64143 5.07807 2.56741 5.04911 2.53683 5.07968C2.49821 5.1183 2.54166 5.21647 2.52718 5.2406C2.50787 5.2744 2.40649 5.32589 2.40167 5.35486C2.38397 5.45785 2.59476 5.54958 2.40167 5.75395C2.34374 5.79257 2.28581 5.59142 2.24397 5.58176C1.96881 5.50935 2.14581 5.6767 2.14903 5.69762C2.1796 5.84889 2.05248 5.7974 2.03478 5.81993C1.99616 5.86981 2.18604 5.88751 1.95915 6.04039C1.92858 6.06131 1.87065 6.08384 1.83364 6.09671C1.95271 5.79579 1.88674 5.92131 1.77088 5.8682L1.51824 6.15303C1.54882 6.38798 1.57939 6.17878 1.70812 6.20936C1.71939 6.21258 1.77088 6.28016 1.898 6.32361C1.67916 6.69534 1.31549 5.98889 1.26722 6.43787C1.26561 6.45396 1.264 6.49419 1.26722 6.49419C1.20285 6.62615 1.18193 6.77902 1.20446 6.95121C1.21411 6.97213 1.25917 6.98983 1.26722 7.00753C1.45227 6.95443 1.57778 6.81764 1.77249 6.95121C1.59066 7.3503 1.83042 7.10891 1.98812 7.12018C2.04444 7.12501 2.04122 7.23765 2.08627 7.26662C2.22627 7.35352 2.43868 7.19742 2.59315 7.23604C2.65752 7.25213 2.81522 7.31972 2.9713 7.3503C3.10808 7.37765 3.10325 7.4388 3.22394 7.40662C3.33497 7.37765 3.38325 7.34547 3.47658 7.29237L3.53933 7.52087C3.50071 7.42593 3.82737 7.29397 3.8853 7.29076C3.94323 7.28754 3.91748 7.43398 4.04622 7.46455C4.16529 7.49352 4.17656 7.40662 4.23127 7.34225C4.25058 7.33099 4.2715 7.31489 4.29885 7.29237C4.39862 7.30524 4.51287 7.28432 4.61425 7.29237C4.75907 7.32133 4.77677 7.37122 4.92964 7.23604C5.15653 7.29558 5.18549 7.25053 5.37215 7.23604C5.49767 7.22639 5.57812 7.18455 5.62479 7.17972C5.77283 7.16363 6.0319 7.13466 6.16546 7.12983C6.19604 7.12983 6.18799 7.22156 6.23788 7.23604C6.29259 7.25213 6.35856 7.228 6.3827 7.23604C6.43258 7.25535 6.56453 7.28754 6.57258 7.29237C6.5758 7.30041 6.58062 7.30846 6.58384 7.3165C6.61442 7.39053 6.69005 7.58846 6.82521 7.23604C6.9459 7.23121 7.139 7.27466 7.26773 7.29237V7.52087C7.28704 7.52409 7.31118 7.52087 7.33049 7.52087C7.50106 7.51766 7.4383 7.41628 7.50106 7.40501C7.5268 7.40018 7.773 7.40501 7.83576 7.40501C7.85668 7.40501 7.92748 7.48708 8.04334 7.46455C8.08679 7.45651 8.29759 7.19581 8.43436 7.23282C8.48264 7.2457 8.48586 7.35513 8.5293 7.38087C8.59528 7.41949 9.09894 7.31329 9.09894 7.5772C9.22124 7.57237 9.26147 7.61099 9.35158 7.52087C9.36123 7.51122 9.34353 7.48225 9.35158 7.46455L9.60421 7.52087L9.4787 7.29237C9.52858 7.30202 9.5849 7.27466 9.65249 7.30685C9.68628 7.32294 9.70237 7.38409 9.73134 7.40662C9.83271 7.48225 10.2672 7.36639 10.3509 7.42271C10.3991 7.4549 10.4699 7.62547 10.4892 7.69306C10.4651 7.71237 10.4506 7.77674 10.4265 7.80732C10.4361 7.80732 10.5987 7.8572 10.6164 7.86364V7.63513C10.6373 7.62065 10.655 7.5949 10.6791 7.57881C10.6856 7.57559 10.6904 7.57237 10.6952 7.57076C10.7499 7.54501 10.8626 7.51927 10.9318 7.40823L10.9945 7.63674L11.0959 7.45651C11.1055 7.44363 11.1136 7.42915 11.1216 7.40984C11.1603 7.41628 11.2069 7.40662 11.2472 7.40984C11.3518 7.41788 11.6414 7.35673 11.7524 7.35352C11.8104 7.35191 11.9101 7.4034 12.0051 7.35352C12.0775 7.42915 11.791 7.77513 11.9745 7.86686C12.0437 7.64318 12.0566 7.65927 12.2577 7.58203C12.2368 7.66731 12.277 7.69467 12.3205 7.7526C12.4395 7.91192 12.4717 7.92157 12.5731 7.7526C12.5811 7.91674 12.6117 7.94732 12.763 7.98111C12.7598 8.10663 12.9673 8.24503 12.9529 8.34963C12.9529 8.34963 12.9529 8.35124 12.9529 8.35284C12.948 8.38664 12.9384 8.40756 12.9271 8.41882C12.9142 8.42043 12.8997 8.42365 12.8869 8.42687C12.8241 8.40434 12.7372 8.26434 12.7002 8.26756C12.6906 8.3448 12.6455 8.41721 12.6358 8.49607C12.6053 8.52664 12.5827 8.554 12.5667 8.58135C12.52 8.61193 12.4621 8.61998 12.3832 8.61193L12.5087 8.84044C12.4765 8.8517 12.4605 8.88711 12.3832 8.89676C12.071 8.93538 12.1579 8.81147 12.1241 8.79055C11.9841 8.70044 12.0244 9.01424 11.6671 9.0078C11.3324 9.00136 11.3357 8.974 11.3099 8.7648C11.2842 8.54756 11.0975 8.84366 11.083 8.84527C10.9237 8.86458 10.8915 8.66342 10.8046 8.95469C10.7934 8.95791 10.7741 9.04803 10.7113 9.05125C10.684 9.05125 10.3026 8.93056 10.3299 8.84044C10.2093 9.08665 10.1851 8.98205 9.98236 8.95469C9.96144 8.95148 9.94053 8.9563 9.91961 8.95469C9.86972 8.94987 9.80375 8.90964 9.75869 8.91607C9.69111 8.92573 9.68467 9.00297 9.66697 9.01263C9.63318 9.03033 9.64122 9.07378 9.54146 9.06895C9.54146 9.03033 9.54146 9.00136 9.53502 8.98044C9.5672 8.85331 9.7957 8.8855 9.54146 8.84044C9.52054 8.83722 9.49801 8.84366 9.4787 8.84044L9.41594 9.01102C9.32583 8.88228 9.17618 8.78572 9.04745 8.85653C9.0732 8.8163 9.08285 8.78251 9.03779 8.78251C9.02331 8.7809 8.99435 8.72779 8.97504 8.72618C8.85757 8.60227 8.78355 8.63124 8.84952 8.78251C8.68378 8.88389 8.51321 9.07217 8.34425 9.12527C8.26218 9.0609 8.16403 9.00941 8.15437 8.89676C8.01759 8.89354 8.12862 9.15102 8.09161 9.18159C8.02403 9.23953 7.6314 9.18964 7.61692 9.01102L7.52198 9.1832C7.41255 9.14297 7.30796 9.12688 7.20658 9.06895C7.11647 9.01745 7.02636 8.91446 6.95395 8.84044C6.92176 8.86136 6.84613 8.87584 6.82843 8.89676C6.77533 8.91929 6.77372 8.9386 6.82843 8.95308C6.79625 9.00941 6.78177 9.06251 6.76568 9.12366C6.75602 9.11883 6.71901 9.12205 6.70292 9.12366L6.57741 9.00941C6.57741 9.00941 6.51787 8.95308 6.51465 8.95308C6.4712 8.81469 6.39235 8.81147 6.38753 8.95308C6.3827 8.97239 6.39396 8.99492 6.38753 9.00941C6.26523 8.98527 6.16386 8.98688 6.19765 9.12366C5.98202 9.19286 6.08662 9.10274 5.94501 9.00941C5.78249 8.99171 5.75513 9.02872 5.88225 9.12366C5.68594 9.14619 5.67146 9.12688 5.69237 8.95148C5.62962 8.97561 5.57008 8.99331 5.5041 9.00941C5.47031 9.0786 5.44617 9.12366 5.43008 9.1478L5.5041 9.00941C5.48319 9.01423 5.45744 9.00297 5.44135 9.00941L5.41399 9.16711C5.39951 9.17516 5.40916 9.12366 5.44135 9.00941C5.38985 9.02711 5.2579 9.05929 5.25147 9.06573C5.2225 8.86619 5.08734 8.82113 4.99883 9.00941C5.00688 9.0255 4.98918 9.05447 4.99883 9.06573C5.00849 9.0786 4.98918 9.11079 4.99883 9.12205C4.87171 9.05608 4.72849 9.04642 4.66091 9.17677C4.64804 9.02389 4.52896 8.93056 4.30529 8.89354C4.27311 8.90159 4.21839 8.8855 4.17978 8.89354C4.17978 8.93056 4.17495 8.97079 4.17978 9.0078C4.12185 9.05125 4.08001 9.10918 4.05426 9.17838C4.02208 9.17516 3.95449 9.06412 3.86438 9.17838C3.85312 9.1655 3.75496 9.19125 3.73887 9.17838C3.70829 9.15263 3.71795 8.90964 3.51681 8.89354C3.43152 8.9209 3.44279 9.04159 3.42348 9.06412C3.33497 9.15746 3.15958 9.06251 3.04533 9.06412C3.02441 9.06412 3.00349 9.06412 2.98257 9.06412C2.92786 9.02067 2.84418 9.01906 2.79269 9.06412C2.73798 9.06734 2.72993 9.11562 2.54005 9.12044C2.32765 8.87906 2.08627 9.1655 2.35017 9.29102C2.33569 9.28137 2.26811 9.30389 2.19087 9.25723C2.18121 9.25079 2.17156 9.24275 2.16029 9.2347C2.11524 9.19608 2.08145 9.06251 2.03478 9.00619C2.0203 9.01423 1.99133 9.00619 1.97202 9.03515C1.96237 9.05125 1.97202 9.09148 1.97202 9.12044C1.9672 9.43746 2.07018 9.31838 2.09754 9.34895C2.12811 9.38275 2.09432 9.48735 2.22305 9.51953C2.30673 9.61769 2.27937 9.63379 2.23753 9.63379C2.22466 9.63218 2.21179 9.63057 2.1973 9.63057C2.1796 9.62896 2.16512 9.62735 2.16029 9.63379C2.05409 9.64022 1.92375 9.46965 1.90766 9.46321C1.99133 9.03998 1.48284 9.24596 1.8449 9.46321C1.89639 9.68689 1.74513 9.61609 1.71939 9.63379C1.55043 9.5662 1.53112 9.74 1.48606 9.74804C1.40078 9.76252 1.20768 9.69011 1.08699 9.74804C1.06446 9.76574 1.04515 9.78666 1.02424 9.80436C1.01297 9.81402 0.972742 9.79471 0.961478 9.80436C0.898722 9.97816 0.982397 10.226 0.771599 10.2035C0.834356 10.0425 0.506089 10.1294 0.581719 10.2598C0.581719 10.2775 0.581719 10.2984 0.581719 10.3161C0.27759 10.6154 0.242189 10.9711 0.773208 10.7602V10.8294C0.649304 10.8745 0.639649 10.9035 0.518963 10.9437C0.314601 11.0113 0.41115 11.0467 0.393449 11.0579H0.646085C0.528618 11.3621 0.753898 11.5327 0.898722 11.1722C0.872975 11.272 0.88263 11.3042 0.961478 11.2285C0.967915 11.2623 0.961478 11.3058 0.961478 11.3428C0.961478 11.3605 0.964697 11.383 0.961478 11.3991C0.818264 11.3894 0.649304 11.6518 0.520572 11.5697C0.436896 11.5182 0.581719 11.198 0.393449 11.1706L0.329083 11.6276C0.343565 11.6357 0.375748 11.6678 0.39184 11.6839C0.449769 11.7435 0.470688 11.7708 0.454597 11.8545C0.306555 11.972 0.197133 11.7998 0.329083 12.1393C0.420805 12.3775 0.531836 12.4708 0.707233 12.7106C0.744243 12.7621 0.892285 12.775 0.832747 12.9391C0.71206 12.9633 0.525399 12.6028 0.39184 12.7106C0.374139 12.7251 0.564019 12.8973 0.596202 12.9536C0.662177 13.0647 0.583329 13.2497 0.76999 13.224C0.797345 13.3173 0.689532 13.2513 0.657349 13.306C0.557582 13.4798 0.765162 13.5217 0.771599 13.5362C0.778036 13.5539 0.559191 13.578 0.644476 13.7357C0.636431 13.7437 0.657349 13.7952 0.626776 13.8339C0.583329 13.8902 0.449769 13.8677 0.454597 13.9916C0.454597 14.027 0.697578 14.0736 0.644476 14.1927C0.633212 14.1895 0.629994 14.2748 0.443333 14.1879C0.369312 14.1541 0.367703 14.072 0.20196 14.0221C0.22127 14.1348 0.325865 14.2104 0.325865 14.2217C0.327474 14.2555 0.219661 14.2844 0.20196 14.307C0.168168 14.3472 0.139204 14.3359 0.139204 14.4212C0.20196 14.4856 0.243798 14.5628 0.264717 14.6497C0.213224 14.7897 0.144031 14.7559 0.139204 14.8782C0.0989749 14.9153 0.116676 14.9507 0.139204 14.9925C0.135985 15.0118 0.140813 15.0311 0.139204 15.0488L0.176214 15.2661C0.0394364 15.2806 0.0442639 15.3675 0.155295 15.4318C0.0249541 15.7456 0.0716194 15.7504 0.39184 15.6764C0.24058 15.7939 0.303337 15.7408 0.139204 15.7907C-0.0490667 15.7488 -0.0217112 16.1431 0.0764468 16.2477C0.0764468 16.4199 0.0426547 16.6049 0.139204 16.761C0.160123 16.761 0.181041 16.761 0.20196 16.761C0.243798 16.761 0.285636 16.761 0.327474 16.761C0.35483 16.7884 0.171387 17.0169 0.359657 17.1022L0.517354 17.0169C0.509308 17.2599 0.155295 17.1456 0.137594 17.1601C0.119894 17.1746 0.208397 17.276 0.200351 17.3307C-0.0136655 17.3854 -0.0571125 17.4691 0.0861017 17.6445C0.0378273 17.7411 0.0555279 17.865 0.137594 18.0162C0.132767 18.0339 0.140813 18.0549 0.137594 18.0726C0.234143 18.1305 0.222879 18.1466 0.103802 18.1176L0.137594 18.2447C0.123112 18.2641 0.0861017 18.2801 0.0748377 18.3011C0.0603553 18.5087 0.123112 18.5843 0.264717 18.5296C0.300118 18.6615 0.427241 18.6615 0.642867 18.5296C0.639649 18.5875 0.46747 18.631 0.422414 18.7034C0.380576 18.7677 0.433678 18.9544 0.387012 19.0413C0.325865 19.051 0.263108 19.0494 0.20196 19.0445C0.197133 19.1572 0.144031 19.294 0.20196 19.4436L0.390231 19.3873L0.452988 19.7864C0.415977 19.8701 0.295291 19.9119 0.327474 20.0149H0.642867C0.647694 20.0342 0.63643 20.0567 0.642867 20.0728C0.626776 20.1163 0.617121 20.1501 0.615512 20.1758C0.570455 20.1694 0.481952 20.105 0.390231 20.1871C0.401495 20.1855 0.41115 20.1839 0.420805 20.1822C0.41115 20.1822 0.401495 20.1855 0.390231 20.1871C0.258281 20.3078 0.417586 20.3931 0.390231 20.4719C0.140813 20.3544 0.253453 20.6135 0.364484 20.7406C0.275981 20.945 0.218052 21.3699 0.517354 21.3843C0.518963 21.394 0.452988 21.4471 0.485171 21.5002C0.5431 21.5968 0.699187 21.6048 0.707233 21.6145C0.747462 21.6676 0.607466 21.7657 0.605857 21.814C0.602638 21.9637 0.63804 21.8832 0.581719 22.1262C0.576892 22.1439 0.586547 22.1648 0.581719 22.1825C0.591374 22.2823 0.612293 22.3595 0.644476 22.411C0.644476 22.4287 0.639649 22.4593 0.644476 22.4673C0.747462 22.5156 0.92125 22.5188 1.02263 22.4673C1.05803 22.4625 1.10791 22.4223 1.14814 22.411C1.14653 22.4094 1.14492 22.4046 1.14492 22.3998C1.14492 22.403 1.14653 22.4062 1.14814 22.411C1.22538 22.5591 1.35572 22.6106 1.53755 22.683C1.57939 22.9775 1.83846 22.971 1.78053 22.6959C1.80789 22.6685 1.81755 22.6041 1.84329 22.5816C1.86743 22.5607 1.93179 22.5414 1.96881 22.5253C2.09915 22.5462 2.1619 22.5253 2.15868 22.469C2.17799 22.4963 2.1957 22.5076 2.22144 22.5253C2.31799 22.5961 2.43063 22.5929 2.53683 22.6395L2.47408 22.5253C2.46442 22.4593 2.53362 22.4625 2.59959 22.469C2.50465 22.5977 2.55454 22.6814 2.74763 22.7168C2.69131 22.8182 2.71545 22.8198 2.85223 22.8117C2.87797 22.8697 2.86027 22.9437 2.91498 22.9823L3.03567 23C3.15636 22.8697 3.25452 22.7892 3.40899 22.9517C3.48462 22.7393 3.59405 22.6363 3.73565 22.6395C3.78232 22.6717 3.77749 22.7715 3.92553 22.7538C3.91427 22.7103 3.94162 22.6025 3.92553 22.5832C3.99633 22.5156 4.10093 22.5349 4.17817 22.469C4.2715 22.3885 4.23931 22.3386 4.24092 22.2404C4.34069 22.4609 4.5 22.2968 4.65608 22.3048C4.73171 22.3096 4.78481 22.3531 4.80895 22.3547C5.0101 22.3692 4.95699 22.3257 5.12435 22.2984C5.32066 22.2646 5.33032 22.4142 5.34641 22.4142C5.43974 22.4142 5.49123 22.3113 5.59743 22.3C5.66502 22.2936 5.73582 22.3563 5.75513 22.3547C5.77605 22.3547 5.79697 22.3547 5.81789 22.3547C5.94501 22.3547 5.95788 22.3386 6.13328 22.3547C6.1542 22.3563 6.17512 22.3515 6.19604 22.3547C6.42293 22.3837 6.52752 22.3434 6.63855 22.3547C6.65464 22.3563 6.82522 22.4432 6.95395 22.469C6.96038 22.4738 6.96843 22.4786 6.97487 22.4818C7.00222 22.506 7.03279 22.5494 7.14222 22.5011C7.32083 22.4207 7.18888 22.2565 7.20658 22.2421H7.45922C7.24038 22.514 7.49301 22.6572 7.71186 22.4126C7.78105 22.4142 7.95966 22.4609 8.09001 22.469C8.23161 22.5671 8.42149 22.5864 8.65804 22.5253C8.6693 22.5301 8.66608 22.5961 8.71918 22.5816C8.69987 22.3627 9.06998 22.5011 8.91067 22.2968C8.98791 22.3113 9.17296 22.3193 9.22606 22.3531C9.2325 22.3579 9.1971 22.4529 9.2679 22.469C9.33066 22.4834 9.81823 22.4834 9.88099 22.469C9.98236 22.4448 9.82145 22.308 10.0483 22.411C10.1368 22.4513 10.1368 22.5044 10.301 22.5253C10.3203 22.5285 10.3444 22.5253 10.3637 22.5253C10.6035 22.625 10.7194 22.6283 10.8722 22.4046C10.972 22.4963 11.0267 22.5752 11.0347 22.6428C11.2262 22.5752 11.3823 22.5172 11.5014 22.4673C11.6897 22.4175 11.5883 22.2453 11.6559 22.1294C11.6591 22.1294 11.6623 22.1326 11.6639 22.1326C11.7492 22.2404 11.8184 22.3756 11.8779 22.4947C11.8956 22.5285 11.6929 22.514 11.7524 22.6379C11.7959 22.6572 11.82 22.6765 11.8779 22.6942C11.9986 22.5221 12.2094 22.4673 12.3832 22.3515C12.4251 22.3547 12.4685 22.3467 12.5087 22.3515L12.7292 22.5237C12.808 22.5253 12.7404 22.3901 12.6986 22.3515C12.7195 22.3531 12.7404 22.3515 12.7614 22.3515C12.9191 22.3595 13.0124 22.3515 13.1395 22.3515C13.1604 22.3515 13.1814 22.3515 13.2023 22.3515C13.2103 22.3515 13.2682 22.4271 13.3278 22.4078C13.3728 22.3949 13.3777 22.2903 13.4211 22.2968C13.6239 22.3273 13.6464 22.4159 13.9602 22.4078C14.002 22.4078 14.0439 22.4078 14.0857 22.4078C14.1871 22.4754 14.2949 22.4561 14.4011 22.4078C14.4413 22.4078 14.4912 22.4142 14.5266 22.4078C14.5507 22.4255 14.57 22.4303 14.5861 22.4271C14.5636 22.448 14.5636 22.485 14.5894 22.5221C14.6312 22.5494 14.6183 22.58 14.7149 22.5784C14.7551 22.5205 14.8002 22.4641 14.8404 22.4078C14.8661 22.3724 14.908 22.3483 14.9031 22.2936C14.9466 22.2807 14.99 22.2453 15.0287 22.2372C15.0978 22.3611 15.225 22.3418 15.4068 22.1809C15.4277 22.1696 15.5162 22.1986 15.5307 22.1793C15.5532 22.1503 15.4873 22.0666 15.5323 21.9524C15.5532 21.9009 15.6256 21.8381 15.6578 21.7818C15.6852 21.7335 15.7045 21.5678 15.7238 21.5549C15.7866 21.5147 15.9153 21.6 15.9732 21.6112C15.9169 21.7963 16.1454 21.74 16.1631 21.6112C16.1631 21.6016 16.1116 21.4648 16.1003 21.4407C16.0955 21.4037 16.0891 21.3699 16.081 21.3425C16.081 21.2154 16.2098 21.2122 16.2516 21.151C16.3031 21.0754 16.3111 20.9901 16.353 20.9273C16.4254 20.8195 16.4833 20.8678 16.5429 20.6425C16.5557 20.5974 16.5284 20.488 16.5429 20.4719C16.5815 20.4317 16.6619 20.5282 16.6684 20.5282C16.9516 20.562 16.8261 20.451 16.8583 20.414C16.781 20.3641 16.7086 20.3013 16.6056 20.2997C16.5429 20.0728 16.7199 19.8041 16.7311 19.6142C16.7376 19.5225 16.7134 19.4645 16.6684 19.3857C16.596 19.2425 16.7054 19.0252 16.6619 18.9077C16.6378 18.8434 16.3626 18.7806 16.4801 18.6438C16.4946 18.6261 16.9114 18.8192 16.5429 18.4733C16.6056 18.4346 16.6587 18.2061 16.6684 18.1884C16.6909 18.1482 16.7987 18.1353 16.8357 17.9808C16.8422 17.9519 16.8679 17.6348 16.8566 17.6204C16.8422 17.6027 16.7633 17.6252 16.7327 17.6188C16.7167 17.6155 16.6941 17.5737 16.67 17.5624C16.6748 17.5576 16.6249 17.5061 16.6475 17.4466C16.7038 17.2889 16.8534 17.004 16.7344 16.8785C16.9516 16.51 16.8904 16.1785 16.8599 15.7939C16.8663 15.7842 16.9516 15.773 16.9741 15.7006C17.0369 15.5058 16.9886 15.2789 16.7955 15.1663L16.7826 15.1647ZM2.4258 22.1777C2.4258 22.1777 2.44029 22.1809 2.44511 22.1857V22.1889C2.43868 22.1841 2.43224 22.1809 2.4258 22.1761V22.1777ZM0.412759 18.2576L0.424023 18.2464C0.424023 18.2464 0.427241 18.2464 0.42885 18.248C0.422414 18.2512 0.417586 18.2544 0.41115 18.2576H0.412759ZM9.14078 1.12099C9.14078 1.12099 9.13756 1.11777 9.13595 1.11134C9.13756 1.11455 9.13917 1.11777 9.14078 1.12099ZM12.2674 4.20426H12.2995C12.2995 4.20426 12.2802 4.20587 12.2674 4.20426ZM14.7004 20.9257C14.7004 20.9257 14.702 20.9257 14.7036 20.9273C14.7036 20.9273 14.7004 20.9273 14.7004 20.9289V20.9257ZM3.83542 5.77326V5.7459C3.83864 5.75395 3.83703 5.7636 3.83542 5.77326ZM15.5854 12.9214C15.5854 12.9214 15.5886 12.9182 15.5886 12.9166L15.5822 12.9375C15.5822 12.9375 15.5822 12.9263 15.5838 12.9214H15.5854ZM2.25684 17.276C2.25684 17.276 2.26328 17.2696 2.2665 17.2663C2.26328 17.2696 2.26006 17.2728 2.25684 17.276ZM2.88763 18.3606C2.9005 18.3558 2.9182 18.3526 2.93751 18.3526C2.92142 18.3558 2.90372 18.359 2.88763 18.3606ZM3.45727 13.9658C3.43957 13.9658 3.42348 13.9642 3.40738 13.9626C3.40738 13.9626 3.4106 13.9626 3.41221 13.9626C3.4283 13.9626 3.44279 13.9658 3.45727 13.9658ZM9.601 17.5238C9.601 17.5238 9.601 17.5206 9.59939 17.5206L9.83593 17.3355C9.83915 17.3162 9.83271 17.2969 9.83593 17.2792L9.60904 17.5077C9.6364 17.4755 9.71203 17.3983 9.83593 17.2792V17.3355C9.69915 17.453 9.62031 17.5158 9.601 17.5254V17.5238ZM5.03584 13.1097C5.00205 13.1161 4.96987 13.1194 4.93768 13.121C4.95699 13.1001 4.98596 13.092 5.03584 13.1097ZM8.85757 15.9065C8.8463 15.9082 8.83343 15.9098 8.82539 15.9065H8.85757ZM5.73099 15.7923C5.73099 15.7923 5.71973 15.781 5.7149 15.7762C5.72295 15.7826 5.72938 15.7891 5.73099 15.7923ZM6.64177 16.6999C6.63373 16.7015 6.62407 16.7047 6.61442 16.7063C6.62246 16.7015 6.63051 16.6999 6.64177 16.6999ZM7.13578 15.6233C7.13578 15.6233 7.12613 15.6233 7.11969 15.6217C7.11969 15.6169 7.11969 15.6137 7.11969 15.6104C7.12452 15.6153 7.13095 15.6201 7.13578 15.6249V15.6233ZM13.3085 15.5702C13.3085 15.5702 13.3085 15.567 13.3085 15.5654C13.3085 15.5654 13.3085 15.5686 13.3085 15.5702ZM10.2479 15.1953C10.2607 15.2049 10.272 15.213 10.2784 15.2226L10.2479 15.1953ZM13.3197 16.9397L13.3101 16.9348C13.3149 16.9364 13.3165 16.9381 13.3197 16.9397ZM13.3728 15.9645C13.3728 15.9645 13.3857 15.9693 13.3905 15.9725C13.3841 15.9693 13.3777 15.9677 13.3728 15.9645ZM9.39342 14.0221C9.39342 14.0221 9.38376 14.0221 9.37893 14.0237C9.3725 14.0237 9.36445 14.0237 9.35641 14.0221H9.39342ZM9.13917 14.0865C9.13917 14.0865 9.13917 14.0833 9.13917 14.0817C9.14078 14.0817 9.144 14.0817 9.14561 14.0833C9.14239 14.0833 9.14078 14.0849 9.13756 14.0865H9.13917ZM6.72706 13.0582C6.72706 13.0582 6.73349 13.0534 6.73993 13.0518C6.73993 13.0534 6.73349 13.0566 6.72706 13.0582ZM2.82648 14.5725C2.82648 14.5725 2.82326 14.5838 2.81844 14.587C2.81844 14.587 2.81361 14.5886 2.80878 14.5902C2.81361 14.5854 2.82004 14.5789 2.82487 14.5725H2.82648ZM9.83593 12.5964C9.83593 12.5964 9.82306 12.5964 9.81984 12.5948C9.82628 12.5948 9.8311 12.5948 9.83593 12.5964ZM2.59798 14.5966C2.58672 14.5966 2.58028 14.5966 2.57545 14.5934C2.57545 14.587 2.57545 14.5805 2.57545 14.5741C2.5835 14.5821 2.58994 14.5886 2.59798 14.595V14.5966ZM9.88742 12.5433C9.88742 12.5433 9.89386 12.54 9.89869 12.5384C9.89547 12.54 9.89225 12.5417 9.88742 12.5433ZM11.2246 19.1604C11.2311 19.1781 11.2407 19.1942 11.2504 19.2119C11.2504 19.2199 11.2504 19.2264 11.2488 19.2344L11.2246 19.1604ZM14.8742 8.60227C14.8742 8.60227 14.8822 8.59906 14.8887 8.59906C14.8854 8.60066 14.8806 8.60227 14.8742 8.60227ZM15.0061 19.3294C15.0061 19.3294 15.011 19.331 15.0158 19.3326C15.0126 19.3326 15.0093 19.331 15.0061 19.3294ZM7.59278 20.5298H7.62496C7.61531 20.5331 7.60404 20.5298 7.59278 20.5298ZM11.6044 11.2832C11.6092 11.3042 11.6124 11.3235 11.6157 11.3428C11.6092 11.3219 11.606 11.3026 11.6044 11.2832ZM5.66663 10.6556H5.72938C5.70847 10.6573 5.68755 10.6556 5.66663 10.6556ZM3.20302 11.4538L3.19659 11.4506C3.19659 11.4506 3.1998 11.4474 3.20302 11.4474C3.20302 11.4506 3.20302 11.4522 3.20302 11.4554V11.4538ZM3.96415 20.7873C3.96415 20.797 3.96415 20.8066 3.96093 20.8163C3.96093 20.8066 3.96093 20.797 3.96415 20.7873ZM4.05587 21.0448H4.08805C4.0784 21.048 4.06713 21.0448 4.05587 21.0448ZM4.35356 20.6779C4.35356 20.6779 4.34713 20.6924 4.3423 20.702C4.3423 20.6956 4.34874 20.6875 4.35356 20.6779ZM15.8574 12.3614C15.8702 12.3614 15.8847 12.3646 15.8976 12.3662C15.8799 12.3711 15.867 12.3679 15.8574 12.3614ZM5.17423 5.12152C5.17423 5.12152 5.16618 5.11991 5.16136 5.1183C5.16457 5.1183 5.1694 5.1183 5.17423 5.12152ZM4.15081 6.03073C4.16207 6.02752 4.17656 6.03073 4.19104 6.03073H4.15081C4.22161 6.00338 4.29242 5.98568 4.36 5.97602L4.15081 6.03073ZM10.1899 10.3113C10.1899 10.3113 10.2044 10.3113 10.2141 10.3113C10.206 10.3113 10.198 10.3113 10.1899 10.3113ZM12.9947 5.50935L12.9899 5.51417C12.9899 5.51417 12.9899 5.50452 12.9899 5.49969C12.9915 5.50452 12.9931 5.50774 12.9931 5.51095L12.9947 5.50935ZM7.43508 5.63165C7.44956 5.63165 7.46405 5.63165 7.47692 5.63165H7.43508ZM10.6019 6.77902C10.5826 6.7742 10.5665 6.76454 10.5552 6.75328C10.5729 6.76132 10.5874 6.76937 10.6019 6.77902ZM10.9656 5.8505L10.972 5.85855C10.972 5.85855 10.9639 5.86016 10.9591 5.86177C10.9607 5.85855 10.9623 5.85372 10.9639 5.8505H10.9656ZM1.43618 19.5595H1.42009C1.42009 19.5595 1.43135 19.5595 1.43618 19.5595ZM7.71507 5.87464C7.70542 5.85211 7.69737 5.82797 7.68933 5.80222C7.70542 5.81993 7.71347 5.84567 7.71507 5.87464ZM13.3085 8.85653C13.3085 8.85653 13.3053 8.85814 13.3036 8.85975C13.3036 8.85975 13.3036 8.85653 13.302 8.85653C13.3036 8.85653 13.3069 8.85653 13.3085 8.85653ZM2.28581 10.5285C2.27615 10.5333 2.26489 10.5382 2.25523 10.5398C2.26489 10.5366 2.27454 10.5317 2.28581 10.5285ZM13.2715 4.93324C13.2795 4.93002 13.2876 4.93002 13.2956 4.93002C13.2876 4.93002 13.2795 4.93163 13.2715 4.93324ZM5.74869 6.88362C5.74869 6.88362 5.73743 6.88684 5.72938 6.88684C5.73421 6.88523 5.74065 6.88362 5.74869 6.88362ZM5.31262 21.74C5.26273 21.7384 5.21285 21.7352 5.16136 21.7303C5.23538 21.703 5.28204 21.7158 5.31262 21.74ZM14.0439 21.7866H14.1291C14.1002 21.7899 14.0696 21.7931 14.039 21.7947C14.039 21.7915 14.0406 21.7899 14.0422 21.7866H14.0439ZM16.4688 20.1517C16.4688 20.1517 16.4688 20.1533 16.4688 20.1549C16.4688 20.1645 16.4688 20.1758 16.4656 20.1871C16.4656 20.1742 16.4672 20.1629 16.4672 20.1517H16.4688ZM16.4769 13.7566C16.4737 13.7695 16.4705 13.7808 16.4672 13.7936C16.4705 13.7808 16.4737 13.7679 16.4769 13.7566ZM14.0696 5.58176C14.0696 5.58176 14.0696 5.57693 14.068 5.57532C14.068 5.57854 14.0696 5.58176 14.0712 5.58659C14.0712 5.58659 14.0712 5.58498 14.0712 5.58337L14.0696 5.58176ZM16.8357 14.3649C16.8229 14.373 16.81 14.3826 16.7955 14.3955C16.7955 14.3955 16.7955 14.3955 16.7955 14.3939C16.8003 14.3842 16.8052 14.3746 16.8084 14.3649H16.8357ZM12.0195 8.99492C12.0067 8.99492 11.9954 8.99814 11.9825 8.99975C11.9954 8.99653 12.0067 8.99653 12.0195 8.99492ZM14.5926 22.4207C14.6087 22.4062 14.6231 22.3837 14.6344 22.3579C14.6392 22.3724 14.6344 22.3949 14.6344 22.4142C14.6167 22.4142 14.6038 22.4159 14.5926 22.4207Z" fill="#20293F"/>
</svg>
