<svg width="16" height="18" viewBox="0 0 16 18" fill="none" xmlns="http://www.w3.org/2000/svg">
<g clip-path="url(#clip0_17_646)">
<path d="M15.8817 6.83277C15.8251 6.83277 15.8087 6.75297 15.7886 6.73587L15.8817 6.58956L15.9747 6.73587C16.0623 6.38434 15.9218 6.08792 15.5623 6.09172C15.4182 5.74399 15.1244 5.858 14.8506 5.95491C14.9145 5.69079 14.8269 5.67749 14.6171 5.71169C14.4364 5.74209 14.263 5.8029 14.1025 5.90741C13.9729 5.8561 14.0149 5.8865 13.9145 5.90741C13.8853 5.91311 13.8397 5.89791 13.8214 5.90741C13.8014 5.91691 13.7886 5.94541 13.774 5.95681L13.7266 5.93211C13.8707 5.69649 13.8689 5.57108 13.586 5.71359C13.5696 5.72119 13.5568 5.7535 13.5386 5.763C13.4985 5.782 13.4656 5.8257 13.4109 5.8466C13.2922 5.89411 13.2156 5.8029 13.1171 5.95681C13.0623 6.04232 13.159 6.14112 12.9766 6.15252C13.0623 6.00811 12.9674 5.95681 12.6882 5.99671C12.6043 5.877 12.2868 5.94921 12.3671 6.10312C12.3105 6.13922 12.1371 6.25893 12.1225 6.26653C12.0404 6.30453 11.9163 6.27033 11.8525 6.34824C11.7393 6.36534 11.8652 6.11452 11.8452 6.06512C11.8415 6.05562 11.7193 5.93781 11.712 5.93401C11.6791 5.91501 11.67 5.95871 11.6663 5.95871C11.5751 5.93401 11.3087 5.8713 11.2448 5.91121C11.2357 5.91691 11.3287 6.06322 11.1755 6.05752C11.0879 6.05372 10.9601 5.89981 10.8707 5.8618C10.659 5.51408 10.8397 5.59768 10.7758 5.31076C10.7722 5.29746 10.6937 5.19675 10.639 5.09605C10.6244 5.05804 10.6079 5.02194 10.5897 4.98204C10.5678 4.88893 10.586 4.87183 10.5897 4.78633C10.597 4.65142 10.5258 4.21438 10.4656 4.06807C10.4291 3.97877 10.3397 4.03387 10.3561 3.95977C10.3871 3.95597 10.4401 3.93696 10.4492 3.91036C10.5003 3.76405 10.3598 3.76215 10.3579 3.73365C10.3433 3.49613 10.2959 3.22821 10.2156 2.9831C10.1773 2.86529 10.1536 2.88619 10.1225 2.83678C10.0952 2.79118 10.1955 2.67717 9.98203 2.78738C9.93458 2.61827 10.1426 2.62967 10.1225 2.44536C10.0532 2.50236 9.83969 2.35605 9.83787 2.31615C9.83787 2.25914 9.88714 2.25534 9.88714 2.25154C10.1225 2.26864 9.87801 1.89052 9.79407 1.76321C9.81414 1.49909 9.4948 1.40408 9.41998 1.20267C9.41633 1.19127 9.48385 1.21787 9.51305 1.03165L9.39444 0.982251C9.45648 1.11906 9.2813 1.10386 9.18458 1.17796C9.06597 0.623125 9.46195 0.868243 9.50575 0.83024C9.52582 0.813139 9.50575 0.746634 9.51305 0.739033C9.49663 0.725732 9.48385 0.704831 9.4656 0.68963C9.15356 0.870143 9.07509 0.387508 9.04772 0.372307C8.96743 0.326704 8.81232 0.340005 8.7156 0.298202C8.79955 0.14049 8.7156 0.146191 8.55137 0.0568841C8.45466 0.00558039 8.42546 -0.055224 8.43641 0.104388C8.27947 0.0264819 8.35611 -0.00772057 8.15539 0.054984C8.11159 0.0682849 8.08422 0.0948868 8.06232 0.104388C8.02217 0.199394 8.06232 0.231697 8.15539 0.201294C8.12436 0.212695 8.08969 0.244998 8.06232 0.250698C8.024 0.153791 7.85429 0.203195 7.87436 0.300102C7.85612 0.258299 7.83969 0.256398 7.82692 0.300102L7.68641 0.250698C7.54772 0.326704 7.5094 0.381808 7.63896 0.493916V0.543319C7.64991 0.54902 7.65721 0.562321 7.66816 0.573721C7.60794 0.547119 7.47655 0.706731 7.4656 0.742834L7.4948 0.841641C7.36341 0.847341 7.33239 1.03925 7.40539 1.12666C7.39079 1.16276 7.36341 1.26727 7.35794 1.27297L7.16998 1.32238C7.11706 1.40978 7.16998 1.46299 7.15539 1.50669C7.15356 1.51429 7.10064 1.50289 7.07692 1.615C7.01122 1.6378 7.00575 1.75751 7.02947 1.81071C7.01487 1.80311 6.9656 1.81451 6.93641 1.81071C6.92181 1.84111 6.90539 1.87912 6.88896 1.90762C6.86524 2.01213 6.80684 2.14133 6.69918 2.14894L6.82692 2.36935C6.81597 2.35605 6.80502 2.36555 6.7959 2.39595C6.76487 2.41115 6.73385 2.43206 6.70283 2.44536C6.66816 2.57457 6.62436 2.56697 6.74845 2.62397V2.69047C6.64079 2.75508 6.61524 2.85009 6.56232 2.96029L6.70283 3.0325C6.52947 3.0743 6.57692 3.17691 6.51487 3.27572C6.50393 3.29472 6.451 3.31372 6.42181 3.37262C6.38166 3.45243 6.39261 3.52083 6.42181 3.61584H6.37436C6.34152 3.65384 6.2886 3.76975 6.2813 3.81155C6.27765 3.82676 6.2813 3.84386 6.2813 3.86096C6.26487 3.86096 6.25028 3.86096 6.23385 3.86096C6.13714 3.87806 6.14444 3.98067 6.18641 4.05667C6.17181 4.08897 6.15356 4.12128 6.13896 4.15358L6.18458 4.17828C6.18823 4.20298 6.18458 4.22768 6.18458 4.25049C6.18458 4.26949 6.16086 4.36639 6.15174 4.3968C6.13896 4.4443 6.0094 4.65902 5.99663 4.68942C5.92911 4.86423 5.94918 5.01054 5.92181 5.08085C5.83787 5.29936 5.78677 5.17585 5.85611 5.51788C5.85976 5.53308 5.85247 5.55208 5.85611 5.56728C5.80867 5.54828 5.76852 5.61478 5.76305 5.61668C5.73568 5.62429 5.68823 5.60718 5.66998 5.61668C5.59334 5.57678 5.56597 5.60148 5.62254 5.66609C5.60976 5.68509 5.62254 5.75349 5.57692 5.7915C5.51852 5.8409 5.4875 5.763 5.48203 5.763C5.44553 5.73829 5.41451 5.72499 5.38896 5.763C5.35247 5.71549 5.2959 5.73259 5.24845 5.763C5.22108 5.7668 5.18093 5.8086 5.15538 5.8124C4.9875 5.8314 4.62254 5.8219 4.45283 5.8124C4.31049 5.7896 4.10794 5.8314 4.31232 5.90931C4.10611 5.8865 3.89626 5.7592 3.77217 5.7573C3.68458 5.7573 3.74298 5.839 3.60976 5.8599C3.66451 5.7782 3.59882 5.73639 3.41816 5.73259L3.33057 5.66419C3.29955 5.65659 3.2667 5.62239 3.2375 5.61478L2.35429 5.57488C2.32874 5.70789 2.2083 5.72499 2.10794 5.64139C2.0532 5.64899 1.69736 5.8466 1.87801 5.90741C1.83057 5.90551 1.78312 5.91121 1.7375 5.90741C1.98933 5.64139 1.49845 5.66229 1.31597 5.7611C1.17728 5.763 1.03312 5.7687 0.894436 5.7611C0.629837 5.782 0.940056 5.91121 0.940056 5.93211C0.943706 6.07652 0.593341 6.00051 0.564144 6.02521C0.511224 6.06892 0.529472 6.19053 0.520348 6.20193C0.50575 6.21903 0.222903 6.00431 0.237502 6.36914C0.237502 6.40144 0.315969 6.39384 0.326918 6.42044C0.334217 6.43945 0.286772 6.55725 0.286772 6.59146C0.286772 6.60856 0.286772 6.62376 0.286772 6.64086C0.266699 6.67126 0.253925 6.69406 0.246626 6.71116C0.201005 6.74917 0.15356 6.67696 0.109764 6.69786C0.10064 6.70166 0.00574984 6.83277 0.0021002 6.85938C-0.0216224 7.05509 0.0805673 7.07029 0.239326 7.12729C0.208305 7.228 0.246626 7.29451 0.239326 7.34011C0.233852 7.36861 0.0604944 7.38761 0.148086 7.46742C0.15721 7.47692 0.314144 7.44842 0.336042 7.56433C0.339691 7.60803 0.361589 7.71634 0.383487 7.76004C0.430932 7.85315 0.478378 7.85505 0.523998 7.90635C0.591516 7.98046 0.536772 8.14957 0.80502 8.00326V8.14957C1.20465 7.96145 0.90721 8.44029 1.00393 8.5277C1.02947 8.5524 1.06962 8.5315 1.08604 8.5391C1.12254 8.5562 1.18458 8.6455 1.22655 8.5391C1.2302 8.72721 1.2594 8.86022 1.46013 8.73481C1.46743 8.74621 1.60064 8.89822 1.61706 8.91532C1.72108 9.01603 1.90538 9.06923 1.97473 9.22315C2.0167 9.31815 2.05867 9.21745 2.10794 9.23455C2.11524 9.23645 2.12254 9.29915 2.14991 9.31815C2.33057 9.43406 2.46378 9.44736 2.34882 9.70958C2.39444 9.74378 2.41816 9.78939 2.48933 9.80649C2.5532 9.82169 2.65174 9.79509 2.7229 9.80649C2.66268 9.9072 2.5313 9.83879 2.7229 10.0003C2.83604 10.0193 2.93641 10.0972 3.02582 10.2302C3.18823 10.158 3.30684 10.2283 3.37801 10.4392C3.47838 10.5171 3.48933 10.5304 3.61159 10.5855C3.65538 10.6045 3.72655 10.5874 3.79955 10.6349C4.02947 10.7813 3.69736 11.1841 3.94006 11.2202V11.2677C3.774 11.2677 3.83604 11.3912 3.84517 11.4482C3.84517 11.4539 3.84517 11.4596 3.84517 11.4634C3.84334 11.4786 3.84517 11.4957 3.84517 11.5128C3.83057 11.5717 3.83239 11.6116 3.83969 11.6382C3.83969 11.6287 3.83969 11.6192 3.83969 11.6078C3.83969 11.6249 3.84334 11.642 3.84882 11.6591C3.84517 11.6534 3.84334 11.6458 3.83969 11.6382C3.83969 11.7123 3.84517 11.7636 3.84517 11.8529C3.84517 11.8852 3.84517 11.9175 3.84517 11.9498C3.67546 11.908 3.75757 12.1437 3.7521 12.2425C3.7521 12.2596 3.7521 12.2748 3.7521 12.2919C3.7521 12.3166 3.66816 12.3812 3.71013 12.5047C3.73385 12.5712 3.89079 12.5769 3.87984 12.8144C3.87801 12.8714 3.7886 12.9759 3.75028 13.0709C3.73385 13.1146 3.66086 13.2191 3.70283 13.2666C3.71195 13.2761 3.91086 13.2514 3.89079 13.3882L3.70283 13.3635C3.70283 13.3635 3.65903 13.5023 3.65538 13.5099H3.88896V13.5593C3.68823 13.4947 3.67911 13.6638 3.60611 13.7683C3.58239 13.8025 3.52217 13.8063 3.51305 13.8291C3.44553 14.0096 3.73933 13.9355 3.74845 13.9488C3.76305 13.9754 3.73933 14.0913 3.74845 14.1445C3.7302 14.1445 3.66816 14.0761 3.65538 14.0951C3.64626 14.1103 3.58239 14.3687 3.56049 14.4371C3.55684 14.4523 3.56414 14.4713 3.56049 14.4865H3.60794C3.59699 14.4979 3.61706 14.5587 3.60794 14.5834C3.57327 14.6765 3.57874 14.7012 3.56049 14.7791C3.52217 14.84 3.524 14.8609 3.54407 14.8609C3.52217 14.9844 3.51852 15.0718 3.49845 15.1858C3.4802 15.2903 3.33057 15.2884 3.51487 15.3397L3.49298 15.4157C3.48933 15.4252 3.48568 15.4366 3.48385 15.448L3.42181 15.657C3.41451 15.6741 3.38166 15.6893 3.37436 15.7064C3.25392 15.9743 3.36341 16.0959 3.35794 16.267C3.35794 16.3126 3.28677 16.3601 3.2813 16.3886C3.27947 16.4038 3.28495 16.4209 3.2813 16.438C3.24115 16.4551 3.24115 16.4703 3.2813 16.4874C3.27765 16.5026 3.28495 16.5197 3.2813 16.5368C3.274 16.5691 3.23933 16.5995 3.23385 16.6831C3.22838 16.7534 3.21378 16.7895 3.23385 16.8788C3.22473 16.9111 3.19188 16.9472 3.18641 16.9757C3.18458 16.9909 3.19006 17.008 3.18641 17.0251C3.18093 17.0536 3.19006 17.0916 3.18641 17.122C3.2302 17.1296 3.28495 17.1144 3.32692 17.122C3.34334 17.1258 3.38531 17.1752 3.41998 17.1714C3.41998 17.1866 3.41998 17.2037 3.41998 17.2208C3.41998 17.2379 3.41998 17.2531 3.41998 17.2702L3.27947 17.2208C3.32874 17.3671 3.36159 17.3994 3.37254 17.5628C3.37254 17.578 3.37254 17.5951 3.37254 17.6123C3.37254 17.6294 3.37254 17.6446 3.37254 17.6617C3.37254 17.7472 3.29042 17.7795 3.37254 17.8574C3.50575 17.9144 3.58422 17.9144 3.60611 17.8574C3.61159 17.8574 3.65538 17.9505 3.69918 17.9543C3.7156 17.9543 3.73568 17.9505 3.74663 17.9543C3.92546 17.789 3.76122 17.7168 4.06414 17.8061C4.06597 17.808 4.06962 17.8118 4.07327 17.8137L4.02765 18.0037C4.11524 18.0037 4.15721 17.8232 4.17546 17.8137C4.18823 17.8061 4.40356 17.8498 4.44918 17.8574C4.50028 17.8669 4.54225 17.8878 4.58969 17.9068C4.55319 17.7358 4.66998 17.6275 4.68458 17.4678C5.10064 17.8802 4.98385 17.2892 5.01122 17.274C5.07144 17.2379 5.2302 17.331 5.38531 17.274C5.39809 17.2702 5.41451 17.236 5.43276 17.2246C5.44371 17.217 5.46925 17.2322 5.4802 17.2246C5.73933 17.0232 5.59152 16.9814 5.63531 16.8427C5.64079 16.8275 5.71195 16.8066 5.71378 16.7857C5.71743 16.7667 5.65356 16.666 5.66633 16.59C5.67911 16.5178 5.73933 16.3848 5.7594 16.2974C5.76305 16.2822 5.75575 16.2651 5.7594 16.248C5.76852 16.2023 5.85064 16.151 5.7594 16.0522C5.79042 16.0522 5.82144 16.0522 5.85247 16.0522C5.93276 15.9496 5.67181 15.8717 5.71195 16.0522C5.54407 15.9629 5.85794 15.771 5.89991 15.6627H5.94736C5.90721 15.6817 5.90721 15.6969 5.94736 15.7121C5.90721 15.7197 5.83604 15.8185 5.83604 15.8527C5.83604 15.8698 5.91633 16.1111 5.93093 16.113C6.03677 16.1187 6.16268 16.0845 6.18093 15.9572C6.18823 15.9534 6.21378 15.9572 6.22838 15.9572C6.23933 15.9572 6.25028 15.9572 6.26122 15.9572C6.26487 15.9572 6.27035 15.9572 6.27582 15.9572C6.2813 15.9572 6.28677 16.0332 6.36889 16.0047V15.7121C6.58057 15.6399 6.64626 15.5886 6.64991 15.3226C6.66086 15.3074 6.76305 15.3929 6.7886 15.372C6.80137 15.3625 6.91086 15.1231 6.92911 15.0794C6.9875 14.9445 6.92911 14.935 6.94918 14.8323C6.97473 14.6936 7.07327 14.4732 7.21013 14.591C7.21743 14.5112 7.201 14.4257 7.21013 14.3478C7.21195 14.3326 7.20648 14.3136 7.21013 14.2984C7.32692 14.2927 7.4875 14.1445 7.55684 14.0571C7.56597 14.0457 7.52582 13.8253 7.62984 13.9583C7.63896 13.9716 7.60976 14.0647 7.63896 14.0951C7.69371 14.1521 7.91268 14.3269 8.00393 14.3972C8.12619 14.4903 8.22838 14.4637 8.19188 14.6898C8.25393 14.6746 8.25393 14.4181 8.37801 14.5435C8.41268 14.5777 8.33057 14.7164 8.33057 14.7392C8.33239 14.7753 8.38531 14.916 8.42363 14.935C8.43093 14.9388 8.45648 14.935 8.47108 14.935L8.33057 15.2276C8.61524 15.144 8.53312 15.4746 8.63531 15.5202C8.65539 15.5297 8.69006 15.3416 8.79955 15.3739C8.70466 15.5145 8.73933 15.5392 8.89261 15.5202C8.88531 15.5278 8.89991 15.5601 8.89261 15.5696C8.86341 15.6019 8.85612 15.5069 8.79955 15.6665C8.76122 15.7729 8.70465 15.7653 8.84699 15.8622C8.97655 15.9477 8.99663 15.8565 9.03495 15.8622C9.04225 15.8622 9.08787 15.9363 9.15903 15.9496C9.32692 15.9819 9.5167 15.8945 9.59699 16.1054C9.59152 16.1054 9.56232 16.1586 9.52947 16.1586C9.49663 16.1586 9.524 16.018 9.43458 16.0579C9.18093 16.4171 9.56597 16.2632 9.59881 16.3012C9.61524 16.3202 9.57327 16.4532 9.60611 16.4912C9.61706 16.5045 9.68093 16.4912 9.71925 16.5159C9.81962 16.5824 9.7302 16.5805 9.92728 16.5938C10.17 16.6109 10.1828 16.5121 10.1609 16.837C10.4747 17.0327 10.6572 17.3348 11.0349 17.407C11.1006 17.4203 11.1828 17.3538 11.2557 17.3766C11.3342 17.3994 11.3105 17.5894 11.42 17.5134C11.4291 17.5077 11.4255 17.4298 11.4474 17.4222C11.6499 17.3538 11.5076 17.5609 11.5185 17.5685C11.6773 17.5742 11.7703 17.3329 11.9401 17.4716V17.521C11.9893 17.4982 12.0459 17.4887 12.0806 17.4716C12.2047 17.4108 12.2594 17.1619 12.3397 17.1315C12.462 17.084 12.3433 17.3709 12.5495 17.2759C12.3762 17.0232 12.5039 17.0764 12.5495 16.9833C12.5824 16.9187 12.6079 16.8332 12.6444 16.7648C12.5806 16.7344 12.5495 16.685 12.5021 16.6413C12.3853 16.495 12.5751 16.5178 12.6426 16.5444C12.6901 16.4532 12.4346 16.018 12.316 16.0066C12.2995 15.9135 12.4255 15.9819 12.4528 15.9534C12.5057 15.8964 12.462 15.7026 12.3269 15.7577L12.4109 15.714C12.4492 15.6171 12.2776 15.372 12.1773 15.3226C12.1718 15.1459 12.159 15.1801 12.0842 15.0794C12.0733 15.0642 12.0222 15.068 12.0003 14.9977C11.9474 14.8266 12.0441 14.7145 11.7576 14.7354C11.7722 14.5834 11.6864 14.3953 11.6627 14.2509C11.6609 14.2357 11.6663 14.2186 11.6627 14.2015C11.6225 13.9792 11.7156 13.5612 11.3817 13.6163C11.3981 13.4491 11.6006 13.6372 11.5678 13.4966C11.5276 13.3198 11.4054 13.2419 11.3342 13.1298C11.3598 13.1146 11.4309 13.1583 11.4291 13.1051C11.316 12.8524 11.409 12.4097 11.2412 12.2045C11.2266 12.1874 11.2083 12.1741 11.1937 12.1551C11.1992 12.1285 11.1937 12.0886 11.1937 12.0582C11.1974 11.9935 11.1937 11.927 11.1937 11.8624C11.1098 11.8434 11.0769 11.9213 11.0058 11.9593C10.9839 11.9441 10.9528 11.9536 10.9127 11.9099C10.8908 11.7313 10.9601 11.87 11.024 11.8529C11.128 11.8244 11.1061 11.6154 11.0988 11.5204C11.0933 11.4444 11.0897 11.3931 11.0514 11.3247C11.0331 11.2924 10.962 11.2791 10.9601 11.2734C10.9455 11.2335 11.0952 11.0511 11.1098 11.0435C11.2065 10.9941 11.2977 11.0891 11.3525 11.0834C11.3963 11.0796 11.3926 10.9789 11.4236 10.958C11.4656 10.9295 11.6025 11.034 11.6609 10.9086C11.7028 10.8174 11.5386 10.882 11.5678 10.6901C11.6207 10.8668 11.7886 10.7281 11.8963 10.6406C12.1919 10.6958 12.0623 10.5057 12.2083 10.4525C12.2776 10.4278 12.4455 10.4582 12.4583 10.4449C12.4693 10.4335 12.3707 10.31 12.5057 10.1523C12.5441 10.1067 12.7576 9.9623 12.8342 9.9091C12.8744 9.88059 12.9893 9.88059 13.0203 9.78559C13.0568 9.67918 12.9601 9.72098 12.9017 9.71718C12.8944 9.71718 12.889 9.71338 12.8798 9.71338C12.847 9.70008 12.7776 9.57467 12.7868 9.56707C12.8324 9.56137 12.8853 9.57467 12.9273 9.56707C13.0842 9.62597 13.2302 9.69438 13.3963 9.61457L13.2557 9.42076C13.3123 9.42646 13.3525 9.40176 13.3963 9.37136C13.5258 9.28015 13.5806 9.18324 13.7703 9.22505C13.7101 9.08634 13.5933 9.04643 13.6353 8.86592C13.6627 8.74811 13.7557 8.82412 13.816 8.83552C13.7466 8.93812 14.0149 8.97613 14.0769 8.96663C14.1335 8.95713 14.1627 8.80702 14.2375 8.78801C14.2904 8.77281 14.4565 8.80512 14.4711 8.78801C14.4875 8.77091 14.4547 8.6227 14.4711 8.5923C14.4784 8.5809 14.5514 8.5885 14.6116 8.39659L14.8926 8.34718C14.9109 8.25978 14.836 8.22557 14.7995 8.15337C14.805 8.14957 14.8397 8.11347 14.847 8.10396C15.0568 8.21797 15.024 8.07166 15.097 8.02226C15.1499 7.98616 15.2284 7.98996 15.2758 7.93675C15.3287 7.87595 15.2703 7.61753 15.3178 7.56813C15.3251 7.56053 15.4784 7.64603 15.5039 7.61753C15.513 7.60803 15.493 7.50732 15.5149 7.45982C15.5733 7.33631 15.6627 7.2451 15.6919 7.07979C15.7922 7.38761 15.8178 7.1615 15.878 7.06459C15.9218 6.99619 16.0313 7.00949 15.9711 6.78717C15.9583 6.76627 15.8963 6.83467 15.878 6.83657L15.8817 6.83277ZM15.3671 6.58956V6.60666C15.3671 6.60666 15.3671 6.59526 15.3671 6.58956ZM7.63896 1.46109C7.63896 1.46109 7.64261 1.46869 7.64626 1.47249C7.64261 1.47249 7.63896 1.47249 7.63531 1.47439C7.63531 1.47059 7.63714 1.46489 7.63896 1.46109ZM1.73933 7.07599C1.73933 7.07599 1.71743 7.07789 1.69918 7.07599C1.69918 7.06839 1.71378 7.06839 1.73933 7.07599ZM13.6645 6.58576C13.6536 6.58956 13.6444 6.58956 13.639 6.58956C13.6371 6.58576 13.6335 6.58195 13.6317 6.57815C13.6317 6.57435 13.6317 6.57245 13.6317 6.56865C13.6408 6.57435 13.6536 6.58005 13.6663 6.58576H13.6645ZM2.91086 8.19897C2.84517 8.28638 2.80684 8.28828 2.7959 8.20277C2.81779 8.25408 2.84699 8.28258 2.87254 8.23697C2.86341 8.07546 2.93823 8.03176 3.09882 8.10396C3.33422 7.95765 3.55867 7.83795 3.80137 8.00516C3.77947 8.00516 3.40538 8.10207 3.38896 8.11537C3.36159 8.13817 3.36706 8.22177 3.30502 8.24077C3.2083 8.27118 3.22108 8.11727 3.19188 8.29778C3.11524 8.31868 3.03677 8.28638 2.9583 8.20087C2.96743 8.18947 3.05684 8.22747 3.05137 8.17617C2.93641 8.05456 2.92728 8.05456 2.91086 8.20087V8.19897ZM2.56779 7.80754C2.54407 7.81134 2.524 7.81134 2.5094 7.80564C2.52947 7.80564 2.54955 7.80564 2.56779 7.80754ZM2.76122 8.06406C2.76122 8.06406 2.74663 8.05076 2.73933 8.04696C2.75028 8.03366 2.76122 8.01846 2.77035 8.00136C2.76122 8.01086 2.7594 8.03366 2.76122 8.06216V8.06406ZM8.74298 11.5698L8.68823 11.5964C8.71195 11.5698 8.7375 11.5413 8.7667 11.5071C8.81232 11.585 8.90356 11.5869 9.04407 11.5147C9.05502 11.5527 9.06779 11.5736 9.08239 11.5812C9.05137 11.6211 9.024 11.6648 8.99845 11.7104C8.9875 11.7142 8.97655 11.718 8.96743 11.7218C8.96378 11.7218 8.96013 11.718 8.95465 11.7161C8.90721 11.7161 8.78677 11.7275 8.7667 11.7161C8.76122 11.7123 8.83239 11.6097 8.74298 11.5717V11.5698ZM5.34517 13.7094C5.37254 13.7835 5.41268 13.8424 5.43823 13.9051C5.54772 14.1673 5.39444 14.0001 5.34517 14.0514C5.33057 14.0685 5.43093 14.3744 5.20465 14.4409C5.19553 14.4333 5.13896 14.458 5.11889 14.4333C5.08604 14.3934 5.12436 14.2908 5.11159 14.2471C5.25028 14.5188 5.40721 14.0951 5.2302 14.0134C5.23568 13.9507 5.2375 13.888 5.19736 13.8918C5.2375 13.8652 5.2229 13.8101 5.15903 13.8082C5.20465 13.7873 5.2448 13.755 5.20648 13.7113C5.29955 13.831 5.34699 13.831 5.34699 13.7113L5.34517 13.7094ZM7.0459 5.56918C7.0459 5.56918 7.03495 5.56728 7.0313 5.56538C7.03495 5.56538 7.04042 5.56728 7.0459 5.56918ZM11.128 9.12434H11.1043C11.1043 9.12434 11.1189 9.12434 11.128 9.12434ZM9.84152 7.41802L9.74845 7.46742C9.75757 7.46742 9.77765 7.50732 9.7959 7.51682C9.70283 7.48832 9.63714 7.56433 9.61706 7.64983C9.60794 7.49402 9.39079 7.33441 9.28495 7.42182C9.27217 7.41232 9.24115 7.41042 9.18823 7.41802C9.22838 7.39711 9.2302 7.38191 9.18823 7.36861C9.29407 7.38381 9.29225 7.36291 9.28312 7.2584C9.32874 7.28501 9.34334 7.2584 9.32874 7.1729C9.34517 7.1539 9.35794 7.1368 9.37071 7.11779C9.37071 7.2071 9.46378 7.30591 9.51487 7.2223V7.1729L9.57144 7.2698C9.63166 7.1995 9.67546 7.1995 9.701 7.2698C9.64079 7.39521 9.72655 7.43892 9.84152 7.41612V7.41802ZM8.48568 11.9118V11.9441C8.39444 11.8852 8.26487 11.8757 8.24845 11.8567C8.21925 11.8225 8.29225 11.7693 8.2959 11.7598C8.31414 11.7997 8.37801 11.8358 8.44006 11.8491C8.43641 11.8814 8.48568 11.9061 8.4875 11.9118H8.48568ZM8.39809 12.2843C8.39809 12.2843 8.39261 12.2919 8.38896 12.2957V12.2463C8.38896 12.2463 8.39626 12.2444 8.39809 12.2425C8.40174 12.2539 8.40174 12.2672 8.39809 12.2843ZM5.86159 11.9061C5.86159 11.9061 5.86159 11.9061 5.86341 11.9061H5.86159ZM6.89079 8.39279C6.97838 8.70631 7.02217 8.45739 7.07874 8.39279C7.15721 8.44409 7.19006 8.41179 7.12619 8.34338C7.13714 8.33578 7.2302 8.30918 7.2667 8.29398L7.50028 8.39089C7.35429 8.35098 7.28677 8.43459 7.40721 8.5372L7.33787 8.65691C7.16451 8.72531 7.00758 8.85262 7.17363 9.02363C7.13714 9.03883 7.11341 9.05973 7.10247 9.08254C7.08057 9.05973 7.05685 9.04073 7.03312 9.02363C7.15356 8.95903 7.08057 8.77471 6.96743 8.81462C7.10429 8.74241 6.9729 8.69681 6.85611 8.70061L6.89261 8.68161C7.02582 8.6417 6.95283 8.5353 6.85794 8.45929C6.88714 8.46499 6.89991 8.44219 6.89261 8.38899L6.89079 8.39279ZM8.26487 5.13025C8.26487 5.13025 8.25393 5.13025 8.24845 5.12645C8.25393 5.12645 8.2594 5.12835 8.26487 5.13025ZM5.63896 11.2202C5.63531 11.2354 5.62984 11.2506 5.62619 11.2715C5.62984 11.2487 5.63349 11.2316 5.63896 11.2202ZM6.04772 10.2473C6.04772 10.2131 6.04772 10.1789 6.04772 10.1447C6.05319 10.1542 6.05319 10.1884 6.04772 10.2473ZM8.96195 8.05646C8.96195 8.05646 8.97473 8.05646 8.98203 8.05456C8.97655 8.05646 8.96925 8.05836 8.96195 8.05646ZM9.35064 10.9295C9.34152 10.9295 9.33239 10.9333 9.32692 10.9295H9.35064ZM7.46013 5.45137C7.46013 5.45137 7.45466 5.46087 7.45283 5.46847C7.45283 5.46087 7.45648 5.45707 7.46013 5.45137ZM7.0313 7.12539H6.93823C6.96743 7.12539 7.0021 7.12159 7.0313 7.12539ZM10.0313 7.02659C10.0313 7.02659 10.0295 7.02659 10.0276 7.02659H10.0313ZM9.41998 12.2558L9.46743 12.3223C9.44736 12.3641 9.43093 12.3983 9.41816 12.4287C9.37436 12.3831 9.31779 12.3147 9.32692 12.252C9.34882 12.2387 9.38714 12.252 9.41998 12.2539V12.2558ZM9.56049 11.7085L9.56597 11.7047C9.56414 11.7047 9.56232 11.7066 9.56049 11.7085ZM8.93276 11.7845C8.94188 11.7997 8.96378 11.8092 8.99845 11.8054C8.91998 11.9859 8.951 12.0353 9.09152 11.9517C9.16816 12.0068 9.23933 11.9783 9.32509 12.0011C9.32874 11.8814 9.35612 11.8339 9.23203 11.8548C9.35794 11.8073 9.39809 11.8871 9.35247 12.0924C9.33787 12.1 9.32327 12.1076 9.30867 12.1057C9.2521 12.1019 9.34152 11.946 9.14079 12.0563C9.21013 12.1133 9.16268 12.1456 9.00028 12.1532C8.94188 12.1114 8.90356 12.0981 8.90721 12.0068C8.76487 12.0182 8.85064 11.8662 8.93276 11.7826V11.7845ZM11.3634 8.5885C11.3634 8.5885 11.3798 8.5866 11.3853 8.5885H11.3634ZM13.2977 7.64033C13.2977 7.64033 13.3014 7.63843 13.3032 7.63653C13.3014 7.63653 13.2995 7.63843 13.2977 7.64033ZM4.54407 12.6111C4.54407 12.6111 4.54772 12.6111 4.54955 12.6111C4.54772 12.6111 4.5459 12.613 4.54407 12.6149C4.54407 12.6149 4.54407 12.6111 4.54407 12.6092V12.6111ZM10.0276 12.2938C10.0276 12.2938 10.024 12.2786 10.0222 12.271C10.0276 12.2767 10.0331 12.2843 10.0386 12.29C10.0349 12.29 10.0313 12.29 10.0276 12.2919V12.2938ZM3.64261 6.50975C3.64261 6.50975 3.64626 6.51355 3.64809 6.51355C3.64809 6.51355 3.64444 6.50975 3.64261 6.50975ZM12.7941 8.67971C12.7941 8.67971 12.7977 8.68351 12.7995 8.68541H12.7922C12.7922 8.68541 12.7922 8.68161 12.7941 8.67971ZM6.48203 5.10935C6.48203 5.10935 6.4729 5.09795 6.46925 5.09225C6.47108 5.09225 6.4729 5.09225 6.47473 5.09225L6.48203 5.11125V5.10935ZM4.40903 13.1488C4.40903 13.1488 4.40903 13.164 4.39809 13.1678C4.39809 13.1564 4.39809 13.1469 4.39809 13.1355C4.40174 13.1393 4.40538 13.145 4.41086 13.1488H4.40903ZM13.1663 8.73481H13.1426C13.1517 8.73291 13.1609 8.73101 13.1663 8.73481ZM12.524 6.50405C12.5203 6.50785 12.5185 6.51165 12.5149 6.51545C12.5167 6.51165 12.5203 6.50785 12.524 6.50405ZM10.2758 4.81673C10.2722 4.83763 10.2685 4.86043 10.263 4.88323C10.263 4.86043 10.2685 4.83763 10.2758 4.81673ZM10.2156 5.17395C10.2266 5.18915 10.2357 5.20246 10.2412 5.21766C10.2266 5.19485 10.2156 5.17775 10.2156 5.17395ZM7.73385 1.51619C7.7229 1.50099 7.7083 1.48959 7.69553 1.48199C7.7083 1.48009 7.72108 1.47439 7.73385 1.46679V1.51619ZM8.34334 14.3421C8.34334 14.3421 8.33969 14.3459 8.33787 14.3497C8.33969 14.3478 8.34152 14.3459 8.34334 14.3421ZM13.7047 6.10882L13.6828 6.05182C13.6955 6.07272 13.7028 6.09172 13.7065 6.10882H13.7047ZM13.8689 8.5885C13.8689 8.5885 13.8689 8.5733 13.8689 8.5657V8.5885ZM3.4729 15.5126L3.45648 15.5639C3.46195 15.543 3.46743 15.524 3.4729 15.5126Z" fill="#96A8FE"/>
<path d="M3.19174 17.2684V17.4641H3.28481L3.23736 17.2684H3.19174Z" fill="#96A8FE"/>
</g>
<defs>
<clipPath id="clip0_17_646">
<rect width="16" height="18" fill="white"/>
</clipPath>
</defs>
</svg>
